<?xml version="1.0" encoding="utf-8" standalone="no"?>
<!DOCTYPE svg PUBLIC "-//W3C//DTD SVG 1.1//EN"
  "http://www.w3.org/Graphics/SVG/1.1/DTD/svg11.dtd">
<!-- Created with matplotlib (http://matplotlib.org/) -->
<svg height="504pt" version="1.1" viewBox="0 0 1080 504" width="1080pt" xmlns="http://www.w3.org/2000/svg" xmlns:xlink="http://www.w3.org/1999/xlink">
 <defs>
  <style type="text/css">
*{stroke-linecap:butt;stroke-linejoin:round;}
  </style>
 </defs>
 <g id="figure_1">
  <g id="patch_1">
   <path d="M 0 504 
L 1080 504 
L 1080 0 
L 0 0 
z
" style="fill:#ffffff;"/>
  </g>
  <g id="axes_1">
   <g id="patch_2">
    <path clip-path="url(#p664790f793)" d="M 69.80751 69.7 
C 72.234118 69.7 74.561666 68.735898 76.277537 67.020027 
C 77.993408 65.304156 78.95751 62.976608 78.95751 60.55 
C 78.95751 58.123392 77.993408 55.795844 76.277537 54.079973 
C 74.561666 52.364102 72.234118 51.4 69.80751 51.4 
C 67.380902 51.4 65.053354 52.364102 63.337483 54.079973 
C 61.621612 55.795844 60.65751 58.123392 60.65751 60.55 
C 60.65751 62.976608 61.621612 65.304156 63.337483 67.020027 
C 65.053354 68.735898 67.380902 69.7 69.80751 69.7 
z
" style="fill:#ffffff;stroke:#000000;stroke-linejoin:miter;"/>
   </g>
   <g id="text_1">
    <!-- Hexose -->
    <defs>
     <path d="M 9.8125 72.90625 
L 19.671875 72.90625 
L 19.671875 43.015625 
L 55.515625 43.015625 
L 55.515625 72.90625 
L 65.375 72.90625 
L 65.375 0 
L 55.515625 0 
L 55.515625 34.71875 
L 19.671875 34.71875 
L 19.671875 0 
L 9.8125 0 
z
" id="DejaVuSans-48"/>
     <path d="M 56.203125 29.59375 
L 56.203125 25.203125 
L 14.890625 25.203125 
Q 15.484375 15.921875 20.484375 11.0625 
Q 25.484375 6.203125 34.421875 6.203125 
Q 39.59375 6.203125 44.453125 7.46875 
Q 49.3125 8.734375 54.109375 11.28125 
L 54.109375 2.78125 
Q 49.265625 0.734375 44.1875 -0.34375 
Q 39.109375 -1.421875 33.890625 -1.421875 
Q 20.796875 -1.421875 13.15625 6.1875 
Q 5.515625 13.8125 5.515625 26.8125 
Q 5.515625 40.234375 12.765625 48.109375 
Q 20.015625 56 32.328125 56 
Q 43.359375 56 49.78125 48.890625 
Q 56.203125 41.796875 56.203125 29.59375 
z
M 47.21875 32.234375 
Q 47.125 39.59375 43.09375 43.984375 
Q 39.0625 48.390625 32.421875 48.390625 
Q 24.90625 48.390625 20.390625 44.140625 
Q 15.875 39.890625 15.1875 32.171875 
z
" id="DejaVuSans-65"/>
     <path d="M 54.890625 54.6875 
L 35.109375 28.078125 
L 55.90625 0 
L 45.3125 0 
L 29.390625 21.484375 
L 13.484375 0 
L 2.875 0 
L 24.125 28.609375 
L 4.6875 54.6875 
L 15.28125 54.6875 
L 29.78125 35.203125 
L 44.28125 54.6875 
z
" id="DejaVuSans-78"/>
     <path d="M 30.609375 48.390625 
Q 23.390625 48.390625 19.1875 42.75 
Q 14.984375 37.109375 14.984375 27.296875 
Q 14.984375 17.484375 19.15625 11.84375 
Q 23.34375 6.203125 30.609375 6.203125 
Q 37.796875 6.203125 41.984375 11.859375 
Q 46.1875 17.53125 46.1875 27.296875 
Q 46.1875 37.015625 41.984375 42.703125 
Q 37.796875 48.390625 30.609375 48.390625 
z
M 30.609375 56 
Q 42.328125 56 49.015625 48.375 
Q 55.71875 40.765625 55.71875 27.296875 
Q 55.71875 13.875 49.015625 6.21875 
Q 42.328125 -1.421875 30.609375 -1.421875 
Q 18.84375 -1.421875 12.171875 6.21875 
Q 5.515625 13.875 5.515625 27.296875 
Q 5.515625 40.765625 12.171875 48.375 
Q 18.84375 56 30.609375 56 
z
" id="DejaVuSans-6f"/>
     <path d="M 44.28125 53.078125 
L 44.28125 44.578125 
Q 40.484375 46.53125 36.375 47.5 
Q 32.28125 48.484375 27.875 48.484375 
Q 21.1875 48.484375 17.84375 46.4375 
Q 14.5 44.390625 14.5 40.28125 
Q 14.5 37.15625 16.890625 35.375 
Q 19.28125 33.59375 26.515625 31.984375 
L 29.59375 31.296875 
Q 39.15625 29.25 43.1875 25.515625 
Q 47.21875 21.78125 47.21875 15.09375 
Q 47.21875 7.46875 41.1875 3.015625 
Q 35.15625 -1.421875 24.609375 -1.421875 
Q 20.21875 -1.421875 15.453125 -0.5625 
Q 10.6875 0.296875 5.421875 2 
L 5.421875 11.28125 
Q 10.40625 8.6875 15.234375 7.390625 
Q 20.0625 6.109375 24.8125 6.109375 
Q 31.15625 6.109375 34.5625 8.28125 
Q 37.984375 10.453125 37.984375 14.40625 
Q 37.984375 18.0625 35.515625 20.015625 
Q 33.0625 21.96875 24.703125 23.78125 
L 21.578125 24.515625 
Q 13.234375 26.265625 9.515625 29.90625 
Q 5.8125 33.546875 5.8125 39.890625 
Q 5.8125 47.609375 11.28125 51.796875 
Q 16.75 56 26.8125 56 
Q 31.78125 56 36.171875 55.265625 
Q 40.578125 54.546875 44.28125 53.078125 
z
" id="DejaVuSans-73"/>
    </defs>
    <g transform="translate(40.15376 88)scale(0.16 -0.16)">
     <use xlink:href="#DejaVuSans-48"/>
     <use x="75.195312" xlink:href="#DejaVuSans-65"/>
     <use x="136.703125" xlink:href="#DejaVuSans-78"/>
     <use x="195.835938" xlink:href="#DejaVuSans-6f"/>
     <use x="257.017578" xlink:href="#DejaVuSans-73"/>
     <use x="309.117188" xlink:href="#DejaVuSans-65"/>
    </g>
   </g>
  </g>
  <g id="axes_2">
   <g id="patch_3">
    <path clip-path="url(#pa1fa31c7a5)" d="M 176.361443 69.7 
C 178.788052 69.7 181.115599 68.735898 182.83147 67.020027 
C 184.547342 65.304156 185.511443 62.976608 185.511443 60.55 
C 185.511443 58.123392 184.547342 55.795844 182.83147 54.079973 
C 181.115599 52.364102 178.788052 51.4 176.361443 51.4 
C 173.934835 51.4 171.607288 52.364102 169.891416 54.079973 
C 168.175545 55.795844 167.211443 58.123392 167.211443 60.55 
C 167.211443 62.976608 168.175545 65.304156 169.891416 67.020027 
C 171.607288 68.735898 173.934835 69.7 176.361443 69.7 
z
" style="fill:#0090bc;stroke:#000000;stroke-linejoin:miter;"/>
   </g>
   <g id="text_2">
    <!-- Glc -->
    <defs>
     <path d="M 59.515625 10.40625 
L 59.515625 29.984375 
L 43.40625 29.984375 
L 43.40625 38.09375 
L 69.28125 38.09375 
L 69.28125 6.78125 
Q 63.578125 2.734375 56.6875 0.65625 
Q 49.8125 -1.421875 42 -1.421875 
Q 24.90625 -1.421875 15.25 8.5625 
Q 5.609375 18.5625 5.609375 36.375 
Q 5.609375 54.25 15.25 64.234375 
Q 24.90625 74.21875 42 74.21875 
Q 49.125 74.21875 55.546875 72.453125 
Q 61.96875 70.703125 67.390625 67.28125 
L 67.390625 56.78125 
Q 61.921875 61.421875 55.765625 63.765625 
Q 49.609375 66.109375 42.828125 66.109375 
Q 29.4375 66.109375 22.71875 58.640625 
Q 16.015625 51.171875 16.015625 36.375 
Q 16.015625 21.625 22.71875 14.15625 
Q 29.4375 6.6875 42.828125 6.6875 
Q 48.046875 6.6875 52.140625 7.59375 
Q 56.25 8.5 59.515625 10.40625 
z
" id="DejaVuSans-47"/>
     <path d="M 9.421875 75.984375 
L 18.40625 75.984375 
L 18.40625 0 
L 9.421875 0 
z
" id="DejaVuSans-6c"/>
     <path d="M 48.78125 52.59375 
L 48.78125 44.1875 
Q 44.96875 46.296875 41.140625 47.34375 
Q 37.3125 48.390625 33.40625 48.390625 
Q 24.65625 48.390625 19.8125 42.84375 
Q 14.984375 37.3125 14.984375 27.296875 
Q 14.984375 17.28125 19.8125 11.734375 
Q 24.65625 6.203125 33.40625 6.203125 
Q 37.3125 6.203125 41.140625 7.25 
Q 44.96875 8.296875 48.78125 10.40625 
L 48.78125 2.09375 
Q 45.015625 0.34375 40.984375 -0.53125 
Q 36.96875 -1.421875 32.421875 -1.421875 
Q 20.0625 -1.421875 12.78125 6.34375 
Q 5.515625 14.109375 5.515625 27.296875 
Q 5.515625 40.671875 12.859375 48.328125 
Q 20.21875 56 33.015625 56 
Q 37.15625 56 41.109375 55.140625 
Q 45.0625 54.296875 48.78125 52.59375 
z
" id="DejaVuSans-63"/>
    </defs>
    <g transform="translate(163.541443 88)scale(0.16 -0.16)">
     <use xlink:href="#DejaVuSans-47"/>
     <use x="77.490234" xlink:href="#DejaVuSans-6c"/>
     <use x="105.273438" xlink:href="#DejaVuSans-63"/>
    </g>
   </g>
  </g>
  <g id="axes_3">
   <g id="patch_4">
    <path clip-path="url(#pabfa998c23)" d="M 282.915377 69.7 
C 285.341985 69.7 287.669533 68.735898 289.385404 67.020027 
C 291.101275 65.304156 292.065377 62.976608 292.065377 60.55 
C 292.065377 58.123392 291.101275 55.795844 289.385404 54.079973 
C 287.669533 52.364102 285.341985 51.4 282.915377 51.4 
C 280.488768 51.4 278.161221 52.364102 276.44535 54.079973 
C 274.729478 55.795844 273.765377 58.123392 273.765377 60.55 
C 273.765377 62.976608 274.729478 65.304156 276.44535 67.020027 
C 278.161221 68.735898 280.488768 69.7 282.915377 69.7 
z
" style="fill:#00a651;stroke:#000000;stroke-linejoin:miter;"/>
   </g>
   <g id="text_3">
    <!-- Man -->
    <defs>
     <path d="M 9.8125 72.90625 
L 24.515625 72.90625 
L 43.109375 23.296875 
L 61.8125 72.90625 
L 76.515625 72.90625 
L 76.515625 0 
L 66.890625 0 
L 66.890625 64.015625 
L 48.09375 14.015625 
L 38.1875 14.015625 
L 19.390625 64.015625 
L 19.390625 0 
L 9.8125 0 
z
" id="DejaVuSans-4d"/>
     <path d="M 34.28125 27.484375 
Q 23.390625 27.484375 19.1875 25 
Q 14.984375 22.515625 14.984375 16.5 
Q 14.984375 11.71875 18.140625 8.90625 
Q 21.296875 6.109375 26.703125 6.109375 
Q 34.1875 6.109375 38.703125 11.40625 
Q 43.21875 16.703125 43.21875 25.484375 
L 43.21875 27.484375 
z
M 52.203125 31.203125 
L 52.203125 0 
L 43.21875 0 
L 43.21875 8.296875 
Q 40.140625 3.328125 35.546875 0.953125 
Q 30.953125 -1.421875 24.3125 -1.421875 
Q 15.921875 -1.421875 10.953125 3.296875 
Q 6 8.015625 6 15.921875 
Q 6 25.140625 12.171875 29.828125 
Q 18.359375 34.515625 30.609375 34.515625 
L 43.21875 34.515625 
L 43.21875 35.40625 
Q 43.21875 41.609375 39.140625 45 
Q 35.0625 48.390625 27.6875 48.390625 
Q 23 48.390625 18.546875 47.265625 
Q 14.109375 46.140625 10.015625 43.890625 
L 10.015625 52.203125 
Q 14.9375 54.109375 19.578125 55.046875 
Q 24.21875 56 28.609375 56 
Q 40.484375 56 46.34375 49.84375 
Q 52.203125 43.703125 52.203125 31.203125 
z
" id="DejaVuSans-61"/>
     <path d="M 54.890625 33.015625 
L 54.890625 0 
L 45.90625 0 
L 45.90625 32.71875 
Q 45.90625 40.484375 42.875 44.328125 
Q 39.84375 48.1875 33.796875 48.1875 
Q 26.515625 48.1875 22.3125 43.546875 
Q 18.109375 38.921875 18.109375 30.90625 
L 18.109375 0 
L 9.078125 0 
L 9.078125 54.6875 
L 18.109375 54.6875 
L 18.109375 46.1875 
Q 21.34375 51.125 25.703125 53.5625 
Q 30.078125 56 35.796875 56 
Q 45.21875 56 50.046875 50.171875 
Q 54.890625 44.34375 54.890625 33.015625 
z
" id="DejaVuSans-6e"/>
    </defs>
    <g transform="translate(266.040377 88)scale(0.16 -0.16)">
     <use xlink:href="#DejaVuSans-4d"/>
     <use x="86.279297" xlink:href="#DejaVuSans-61"/>
     <use x="147.558594" xlink:href="#DejaVuSans-6e"/>
    </g>
   </g>
  </g>
  <g id="axes_4">
   <g id="patch_5">
    <path clip-path="url(#p228aa89a54)" d="M 389.46931 69.7 
C 391.895918 69.7 394.223466 68.735898 395.939337 67.020027 
C 397.655208 65.304156 398.61931 62.976608 398.61931 60.55 
C 398.61931 58.123392 397.655208 55.795844 395.939337 54.079973 
C 394.223466 52.364102 391.895918 51.4 389.46931 51.4 
C 387.042702 51.4 384.715154 52.364102 382.999283 54.079973 
C 381.283412 55.795844 380.31931 58.123392 380.31931 60.55 
C 380.31931 62.976608 381.283412 65.304156 382.999283 67.020027 
C 384.715154 68.735898 387.042702 69.7 389.46931 69.7 
z
" style="fill:#ffd400;stroke:#000000;stroke-linejoin:miter;"/>
   </g>
   <g id="text_4">
    <!-- Gal -->
    <g transform="translate(376.14556 88)scale(0.16 -0.16)">
     <use xlink:href="#DejaVuSans-47"/>
     <use x="77.490234" xlink:href="#DejaVuSans-61"/>
     <use x="138.769531" xlink:href="#DejaVuSans-6c"/>
    </g>
   </g>
  </g>
  <g id="axes_5">
   <g id="patch_6">
    <path clip-path="url(#pab4fb94f84)" d="M 496.023243 69.7 
C 498.449852 69.7 500.777399 68.735898 502.49327 67.020027 
C 504.209142 65.304156 505.173243 62.976608 505.173243 60.55 
C 505.173243 58.123392 504.209142 55.795844 502.49327 54.079973 
C 500.777399 52.364102 498.449852 51.4 496.023243 51.4 
C 493.596635 51.4 491.269088 52.364102 489.553216 54.079973 
C 487.837345 55.795844 486.873243 58.123392 486.873243 60.55 
C 486.873243 62.976608 487.837345 65.304156 489.553216 67.020027 
C 491.269088 68.735898 493.596635 69.7 496.023243 69.7 
z
" style="fill:#f47920;stroke:#000000;stroke-linejoin:miter;"/>
   </g>
   <g id="text_5">
    <!-- Gul -->
    <defs>
     <path d="M 8.5 21.578125 
L 8.5 54.6875 
L 17.484375 54.6875 
L 17.484375 21.921875 
Q 17.484375 14.15625 20.5 10.265625 
Q 23.53125 6.390625 29.59375 6.390625 
Q 36.859375 6.390625 41.078125 11.03125 
Q 45.3125 15.671875 45.3125 23.6875 
L 45.3125 54.6875 
L 54.296875 54.6875 
L 54.296875 0 
L 45.3125 0 
L 45.3125 8.40625 
Q 42.046875 3.421875 37.71875 1 
Q 33.40625 -1.421875 27.6875 -1.421875 
Q 18.265625 -1.421875 13.375 4.4375 
Q 8.5 10.296875 8.5 21.578125 
z
M 31.109375 56 
z
" id="DejaVuSans-75"/>
    </defs>
    <g transform="translate(482.531993 88)scale(0.16 -0.16)">
     <use xlink:href="#DejaVuSans-47"/>
     <use x="77.490234" xlink:href="#DejaVuSans-75"/>
     <use x="140.869141" xlink:href="#DejaVuSans-6c"/>
    </g>
   </g>
  </g>
  <g id="axes_6">
   <g id="patch_7">
    <path clip-path="url(#p1215ebce9e)" d="M 602.577177 69.7 
C 605.003785 69.7 607.331332 68.735898 609.047204 67.020027 
C 610.763075 65.304156 611.727177 62.976608 611.727177 60.55 
C 611.727177 58.123392 610.763075 55.795844 609.047204 54.079973 
C 607.331332 52.364102 605.003785 51.4 602.577177 51.4 
C 600.150568 51.4 597.823021 52.364102 596.10715 54.079973 
C 594.391278 55.795844 593.427177 58.123392 593.427177 60.55 
C 593.427177 62.976608 594.391278 65.304156 596.10715 67.020027 
C 597.823021 68.735898 600.150568 69.7 602.577177 69.7 
z
" style="fill:#f69ea1;stroke:#000000;stroke-linejoin:miter;"/>
   </g>
   <g id="text_6">
    <!-- Alt -->
    <defs>
     <path d="M 34.1875 63.1875 
L 20.796875 26.90625 
L 47.609375 26.90625 
z
M 28.609375 72.90625 
L 39.796875 72.90625 
L 67.578125 0 
L 57.328125 0 
L 50.6875 18.703125 
L 17.828125 18.703125 
L 11.1875 0 
L 0.78125 0 
z
" id="DejaVuSans-41"/>
     <path d="M 18.3125 70.21875 
L 18.3125 54.6875 
L 36.8125 54.6875 
L 36.8125 47.703125 
L 18.3125 47.703125 
L 18.3125 18.015625 
Q 18.3125 11.328125 20.140625 9.421875 
Q 21.96875 7.515625 27.59375 7.515625 
L 36.8125 7.515625 
L 36.8125 0 
L 27.59375 0 
Q 17.1875 0 13.234375 3.875 
Q 9.28125 7.765625 9.28125 18.015625 
L 9.28125 47.703125 
L 2.6875 47.703125 
L 2.6875 54.6875 
L 9.28125 54.6875 
L 9.28125 70.21875 
z
" id="DejaVuSans-74"/>
    </defs>
    <g transform="translate(591.745927 88)scale(0.16 -0.16)">
     <use xlink:href="#DejaVuSans-41"/>
     <use x="68.408203" xlink:href="#DejaVuSans-6c"/>
     <use x="96.191406" xlink:href="#DejaVuSans-74"/>
    </g>
   </g>
  </g>
  <g id="axes_7">
   <g id="patch_8">
    <path clip-path="url(#peb0b4131ee)" d="M 709.13111 69.7 
C 711.557718 69.7 713.885266 68.735898 715.601137 67.020027 
C 717.317008 65.304156 718.28111 62.976608 718.28111 60.55 
C 718.28111 58.123392 717.317008 55.795844 715.601137 54.079973 
C 713.885266 52.364102 711.557718 51.4 709.13111 51.4 
C 706.704502 51.4 704.376954 52.364102 702.661083 54.079973 
C 700.945212 55.795844 699.98111 58.123392 699.98111 60.55 
C 699.98111 62.976608 700.945212 65.304156 702.661083 67.020027 
C 704.376954 68.735898 706.704502 69.7 709.13111 69.7 
z
" style="fill:#a54399;stroke:#000000;stroke-linejoin:miter;"/>
   </g>
   <g id="text_7">
    <!-- All -->
    <g transform="translate(699.21361 88)scale(0.16 -0.16)">
     <use xlink:href="#DejaVuSans-41"/>
     <use x="68.408203" xlink:href="#DejaVuSans-6c"/>
     <use x="96.191406" xlink:href="#DejaVuSans-6c"/>
    </g>
   </g>
  </g>
  <g id="axes_8">
   <g id="patch_9">
    <path clip-path="url(#p8b696901bb)" d="M 815.685043 69.7 
C 818.111652 69.7 820.439199 68.735898 822.15507 67.020027 
C 823.870942 65.304156 824.835043 62.976608 824.835043 60.55 
C 824.835043 58.123392 823.870942 55.795844 822.15507 54.079973 
C 820.439199 52.364102 818.111652 51.4 815.685043 51.4 
C 813.258435 51.4 810.930887 52.364102 809.215016 54.079973 
C 807.499145 55.795844 806.535043 58.123392 806.535043 60.55 
C 806.535043 62.976608 807.499145 65.304156 809.215016 67.020027 
C 810.930887 68.735898 813.258435 69.7 815.685043 69.7 
z
" style="fill:#8fcce9;stroke:#000000;stroke-linejoin:miter;"/>
   </g>
   <g id="text_8">
    <!-- Tal -->
    <defs>
     <path d="M -0.296875 72.90625 
L 61.375 72.90625 
L 61.375 64.59375 
L 35.5 64.59375 
L 35.5 0 
L 25.59375 0 
L 25.59375 64.59375 
L -0.296875 64.59375 
z
" id="DejaVuSans-54"/>
    </defs>
    <g transform="translate(803.693793 88)scale(0.16 -0.16)">
     <use xlink:href="#DejaVuSans-54"/>
     <use x="60.833984" xlink:href="#DejaVuSans-61"/>
     <use x="122.113281" xlink:href="#DejaVuSans-6c"/>
    </g>
   </g>
  </g>
  <g id="axes_9">
   <g id="patch_10">
    <path clip-path="url(#pf9f7d3faaf)" d="M 922.238977 69.7 
C 924.665585 69.7 926.993132 68.735898 928.709004 67.020027 
C 930.424875 65.304156 931.388977 62.976608 931.388977 60.55 
C 931.388977 58.123392 930.424875 55.795844 928.709004 54.079973 
C 926.993132 52.364102 924.665585 51.4 922.238977 51.4 
C 919.812368 51.4 917.484821 52.364102 915.76895 54.079973 
C 914.053078 55.795844 913.088977 58.123392 913.088977 60.55 
C 913.088977 62.976608 914.053078 65.304156 915.76895 67.020027 
C 917.484821 68.735898 919.812368 69.7 922.238977 69.7 
z
" style="fill:#a17a4d;stroke:#000000;stroke-linejoin:miter;"/>
   </g>
   <g id="text_9">
    <!-- Ido -->
    <defs>
     <path d="M 9.8125 72.90625 
L 19.671875 72.90625 
L 19.671875 0 
L 9.8125 0 
z
" id="DejaVuSans-49"/>
     <path d="M 45.40625 46.390625 
L 45.40625 75.984375 
L 54.390625 75.984375 
L 54.390625 0 
L 45.40625 0 
L 45.40625 8.203125 
Q 42.578125 3.328125 38.25 0.953125 
Q 33.9375 -1.421875 27.875 -1.421875 
Q 17.96875 -1.421875 11.734375 6.484375 
Q 5.515625 14.40625 5.515625 27.296875 
Q 5.515625 40.1875 11.734375 48.09375 
Q 17.96875 56 27.875 56 
Q 33.9375 56 38.25 53.625 
Q 42.578125 51.265625 45.40625 46.390625 
z
M 14.796875 27.296875 
Q 14.796875 17.390625 18.875 11.75 
Q 22.953125 6.109375 30.078125 6.109375 
Q 37.203125 6.109375 41.296875 11.75 
Q 45.40625 17.390625 45.40625 27.296875 
Q 45.40625 37.203125 41.296875 42.84375 
Q 37.203125 48.484375 30.078125 48.484375 
Q 22.953125 48.484375 18.875 42.84375 
Q 14.796875 37.203125 14.796875 27.296875 
z
" id="DejaVuSans-64"/>
    </defs>
    <g transform="translate(909.905227 88)scale(0.16 -0.16)">
     <use xlink:href="#DejaVuSans-49"/>
     <use x="29.492188" xlink:href="#DejaVuSans-64"/>
     <use x="92.96875" xlink:href="#DejaVuSans-6f"/>
    </g>
   </g>
  </g>
  <g id="axes_10"/>
  <g id="axes_11">
   <g id="patch_11">
    <path clip-path="url(#pcc3e82bd10)" d="M 78.95751 174.7 
L 78.95751 193 
L 60.65751 193 
L 60.65751 174.7 
L 78.95751 174.7 
z
" style="fill:#ffffff;stroke:#000000;stroke-linejoin:miter;"/>
   </g>
   <g id="text_10">
    <!-- HexNAc -->
    <defs>
     <path d="M 9.8125 72.90625 
L 23.09375 72.90625 
L 55.421875 11.921875 
L 55.421875 72.90625 
L 64.984375 72.90625 
L 64.984375 0 
L 51.703125 0 
L 19.390625 60.984375 
L 19.390625 0 
L 9.8125 0 
z
" id="DejaVuSans-4e"/>
    </defs>
    <g transform="translate(38.28001 211.3)scale(0.16 -0.16)">
     <use xlink:href="#DejaVuSans-48"/>
     <use x="75.195312" xlink:href="#DejaVuSans-65"/>
     <use x="136.703125" xlink:href="#DejaVuSans-78"/>
     <use x="195.882812" xlink:href="#DejaVuSans-4e"/>
     <use x="270.6875" xlink:href="#DejaVuSans-41"/>
     <use x="339.080078" xlink:href="#DejaVuSans-63"/>
    </g>
   </g>
  </g>
  <g id="axes_12">
   <g id="patch_12">
    <path clip-path="url(#p010a0d0fd0)" d="M 185.511443 174.7 
L 185.511443 193 
L 167.211443 193 
L 167.211443 174.7 
L 185.511443 174.7 
z
" style="fill:#0090bc;stroke:#000000;stroke-linejoin:miter;"/>
   </g>
   <g id="text_11">
    <!-- GlcNAc -->
    <g transform="translate(147.686443 211.3)scale(0.16 -0.16)">
     <use xlink:href="#DejaVuSans-47"/>
     <use x="77.490234" xlink:href="#DejaVuSans-6c"/>
     <use x="105.273438" xlink:href="#DejaVuSans-63"/>
     <use x="160.253906" xlink:href="#DejaVuSans-4e"/>
     <use x="235.058594" xlink:href="#DejaVuSans-41"/>
     <use x="303.451172" xlink:href="#DejaVuSans-63"/>
    </g>
   </g>
  </g>
  <g id="axes_13">
   <g id="patch_13">
    <path clip-path="url(#p57925ebb0f)" d="M 292.065377 174.7 
L 292.065377 193 
L 273.765377 193 
L 273.765377 174.7 
L 292.065377 174.7 
z
" style="fill:#00a651;stroke:#000000;stroke-linejoin:miter;"/>
   </g>
   <g id="text_12">
    <!-- ManNAc -->
    <g transform="translate(250.185377 211.3)scale(0.16 -0.16)">
     <use xlink:href="#DejaVuSans-4d"/>
     <use x="86.279297" xlink:href="#DejaVuSans-61"/>
     <use x="147.558594" xlink:href="#DejaVuSans-6e"/>
     <use x="210.9375" xlink:href="#DejaVuSans-4e"/>
     <use x="285.742188" xlink:href="#DejaVuSans-41"/>
     <use x="354.134766" xlink:href="#DejaVuSans-63"/>
    </g>
   </g>
  </g>
  <g id="axes_14">
   <g id="patch_14">
    <path clip-path="url(#p347acdb9f2)" d="M 398.61931 174.7 
L 398.61931 193 
L 380.31931 193 
L 380.31931 174.7 
L 398.61931 174.7 
z
" style="fill:#ffd400;stroke:#000000;stroke-linejoin:miter;"/>
   </g>
   <g id="text_13">
    <!-- GalNAc -->
    <g transform="translate(360.29056 211.3)scale(0.16 -0.16)">
     <use xlink:href="#DejaVuSans-47"/>
     <use x="77.490234" xlink:href="#DejaVuSans-61"/>
     <use x="138.769531" xlink:href="#DejaVuSans-6c"/>
     <use x="166.552734" xlink:href="#DejaVuSans-4e"/>
     <use x="241.357422" xlink:href="#DejaVuSans-41"/>
     <use x="309.75" xlink:href="#DejaVuSans-63"/>
    </g>
   </g>
  </g>
  <g id="axes_15">
   <g id="patch_15">
    <path clip-path="url(#pcbbb6ffe6f)" d="M 505.173243 174.7 
L 505.173243 193 
L 486.873243 193 
L 486.873243 174.7 
L 505.173243 174.7 
z
" style="fill:#f47920;stroke:#000000;stroke-linejoin:miter;"/>
   </g>
   <g id="text_14">
    <!-- GulNAc -->
    <g transform="translate(466.676993 211.3)scale(0.16 -0.16)">
     <use xlink:href="#DejaVuSans-47"/>
     <use x="77.490234" xlink:href="#DejaVuSans-75"/>
     <use x="140.869141" xlink:href="#DejaVuSans-6c"/>
     <use x="168.652344" xlink:href="#DejaVuSans-4e"/>
     <use x="243.457031" xlink:href="#DejaVuSans-41"/>
     <use x="311.849609" xlink:href="#DejaVuSans-63"/>
    </g>
   </g>
  </g>
  <g id="axes_16">
   <g id="patch_16">
    <path clip-path="url(#p9a7e96e3c8)" d="M 611.727177 174.7 
L 611.727177 193 
L 593.427177 193 
L 593.427177 174.7 
L 611.727177 174.7 
z
" style="fill:#f69ea1;stroke:#000000;stroke-linejoin:miter;"/>
   </g>
   <g id="text_15">
    <!-- AltNAc -->
    <g transform="translate(575.890927 211.3)scale(0.16 -0.16)">
     <use xlink:href="#DejaVuSans-41"/>
     <use x="68.408203" xlink:href="#DejaVuSans-6c"/>
     <use x="96.191406" xlink:href="#DejaVuSans-74"/>
     <use x="135.400391" xlink:href="#DejaVuSans-4e"/>
     <use x="210.205078" xlink:href="#DejaVuSans-41"/>
     <use x="278.597656" xlink:href="#DejaVuSans-63"/>
    </g>
   </g>
  </g>
  <g id="axes_17">
   <g id="patch_17">
    <path clip-path="url(#p2a59de7e9d)" d="M 718.28111 174.7 
L 718.28111 193 
L 699.98111 193 
L 699.98111 174.7 
L 718.28111 174.7 
z
" style="fill:#a54399;stroke:#000000;stroke-linejoin:miter;"/>
   </g>
   <g id="text_16">
    <!-- AllNAc -->
    <g transform="translate(683.35861 211.3)scale(0.16 -0.16)">
     <use xlink:href="#DejaVuSans-41"/>
     <use x="68.408203" xlink:href="#DejaVuSans-6c"/>
     <use x="96.191406" xlink:href="#DejaVuSans-6c"/>
     <use x="123.974609" xlink:href="#DejaVuSans-4e"/>
     <use x="198.779297" xlink:href="#DejaVuSans-41"/>
     <use x="267.171875" xlink:href="#DejaVuSans-63"/>
    </g>
   </g>
  </g>
  <g id="axes_18">
   <g id="patch_18">
    <path clip-path="url(#p55c065c2ad)" d="M 824.835043 174.7 
L 824.835043 193 
L 806.535043 193 
L 806.535043 174.7 
L 824.835043 174.7 
z
" style="fill:#8fcce9;stroke:#000000;stroke-linejoin:miter;"/>
   </g>
   <g id="text_17">
    <!-- TalNAc -->
    <g transform="translate(787.838793 211.3)scale(0.16 -0.16)">
     <use xlink:href="#DejaVuSans-54"/>
     <use x="60.833984" xlink:href="#DejaVuSans-61"/>
     <use x="122.113281" xlink:href="#DejaVuSans-6c"/>
     <use x="149.896484" xlink:href="#DejaVuSans-4e"/>
     <use x="224.701172" xlink:href="#DejaVuSans-41"/>
     <use x="293.09375" xlink:href="#DejaVuSans-63"/>
    </g>
   </g>
  </g>
  <g id="axes_19">
   <g id="patch_19">
    <path clip-path="url(#p09af9cb9e8)" d="M 931.388977 174.7 
L 931.388977 193 
L 913.088977 193 
L 913.088977 174.7 
L 931.388977 174.7 
z
" style="fill:#a17a4d;stroke:#000000;stroke-linejoin:miter;"/>
   </g>
   <g id="text_18">
    <!-- IdoNAc -->
    <g transform="translate(894.050227 211.3)scale(0.16 -0.16)">
     <use xlink:href="#DejaVuSans-49"/>
     <use x="29.492188" xlink:href="#DejaVuSans-64"/>
     <use x="92.96875" xlink:href="#DejaVuSans-6f"/>
     <use x="154.150391" xlink:href="#DejaVuSans-4e"/>
     <use x="228.955078" xlink:href="#DejaVuSans-41"/>
     <use x="297.347656" xlink:href="#DejaVuSans-63"/>
    </g>
   </g>
  </g>
  <g id="axes_20"/>
  <g id="axes_21">
   <g id="patch_20">
    <path clip-path="url(#pab42802ffa)" d="M 69.80751 298.4575 
L 80.673135 315.8425 
L 58.941885 315.8425 
L 69.80751 298.4575 
z
" style="fill:#ffffff;stroke:#000000;stroke-linejoin:miter;"/>
   </g>
   <g id="text_19">
    <!-- Deoxyhexose -->
    <defs>
     <path d="M 19.671875 64.796875 
L 19.671875 8.109375 
L 31.59375 8.109375 
Q 46.6875 8.109375 53.6875 14.9375 
Q 60.6875 21.78125 60.6875 36.53125 
Q 60.6875 51.171875 53.6875 57.984375 
Q 46.6875 64.796875 31.59375 64.796875 
z
M 9.8125 72.90625 
L 30.078125 72.90625 
Q 51.265625 72.90625 61.171875 64.09375 
Q 71.09375 55.28125 71.09375 36.53125 
Q 71.09375 17.671875 61.125 8.828125 
Q 51.171875 0 30.078125 0 
L 9.8125 0 
z
" id="DejaVuSans-44"/>
     <path d="M 32.171875 -5.078125 
Q 28.375 -14.84375 24.75 -17.8125 
Q 21.140625 -20.796875 15.09375 -20.796875 
L 7.90625 -20.796875 
L 7.90625 -13.28125 
L 13.1875 -13.28125 
Q 16.890625 -13.28125 18.9375 -11.515625 
Q 21 -9.765625 23.484375 -3.21875 
L 25.09375 0.875 
L 2.984375 54.6875 
L 12.5 54.6875 
L 29.59375 11.921875 
L 46.6875 54.6875 
L 56.203125 54.6875 
z
" id="DejaVuSans-79"/>
     <path d="M 54.890625 33.015625 
L 54.890625 0 
L 45.90625 0 
L 45.90625 32.71875 
Q 45.90625 40.484375 42.875 44.328125 
Q 39.84375 48.1875 33.796875 48.1875 
Q 26.515625 48.1875 22.3125 43.546875 
Q 18.109375 38.921875 18.109375 30.90625 
L 18.109375 0 
L 9.078125 0 
L 9.078125 75.984375 
L 18.109375 75.984375 
L 18.109375 46.1875 
Q 21.34375 51.125 25.703125 53.5625 
Q 30.078125 56 35.796875 56 
Q 45.21875 56 50.046875 50.171875 
Q 54.890625 44.34375 54.890625 33.015625 
z
" id="DejaVuSans-68"/>
    </defs>
    <g transform="translate(15.65626 334.6)scale(0.16 -0.16)">
     <use xlink:href="#DejaVuSans-44"/>
     <use x="77.001953" xlink:href="#DejaVuSans-65"/>
     <use x="138.525391" xlink:href="#DejaVuSans-6f"/>
     <use x="199.660156" xlink:href="#DejaVuSans-78"/>
     <use x="258.839844" xlink:href="#DejaVuSans-79"/>
     <use x="318.019531" xlink:href="#DejaVuSans-68"/>
     <use x="381.398438" xlink:href="#DejaVuSans-65"/>
     <use x="442.90625" xlink:href="#DejaVuSans-78"/>
     <use x="502.039062" xlink:href="#DejaVuSans-6f"/>
     <use x="563.220703" xlink:href="#DejaVuSans-73"/>
     <use x="615.320312" xlink:href="#DejaVuSans-65"/>
    </g>
   </g>
  </g>
  <g id="axes_22">
   <g id="patch_21">
    <path clip-path="url(#pd63bb86d1c)" d="M 176.361443 298.4575 
L 187.227068 315.8425 
L 165.495818 315.8425 
L 176.361443 298.4575 
z
" style="fill:#0090bc;stroke:#000000;stroke-linejoin:miter;"/>
   </g>
   <g id="text_20">
    <!-- Qui -->
    <defs>
     <path d="M 39.40625 66.21875 
Q 28.65625 66.21875 22.328125 58.203125 
Q 16.015625 50.203125 16.015625 36.375 
Q 16.015625 22.609375 22.328125 14.59375 
Q 28.65625 6.59375 39.40625 6.59375 
Q 50.140625 6.59375 56.421875 14.59375 
Q 62.703125 22.609375 62.703125 36.375 
Q 62.703125 50.203125 56.421875 58.203125 
Q 50.140625 66.21875 39.40625 66.21875 
z
M 53.21875 1.3125 
L 66.21875 -12.890625 
L 54.296875 -12.890625 
L 43.5 -1.21875 
Q 41.890625 -1.3125 41.03125 -1.359375 
Q 40.1875 -1.421875 39.40625 -1.421875 
Q 24.03125 -1.421875 14.8125 8.859375 
Q 5.609375 19.140625 5.609375 36.375 
Q 5.609375 53.65625 14.8125 63.9375 
Q 24.03125 74.21875 39.40625 74.21875 
Q 54.734375 74.21875 63.90625 63.9375 
Q 73.09375 53.65625 73.09375 36.375 
Q 73.09375 23.6875 67.984375 14.640625 
Q 62.890625 5.609375 53.21875 1.3125 
z
" id="DejaVuSans-51"/>
     <path d="M 9.421875 54.6875 
L 18.40625 54.6875 
L 18.40625 0 
L 9.421875 0 
z
M 9.421875 75.984375 
L 18.40625 75.984375 
L 18.40625 64.59375 
L 9.421875 64.59375 
z
" id="DejaVuSans-69"/>
    </defs>
    <g transform="translate(162.771443 334.6)scale(0.16 -0.16)">
     <use xlink:href="#DejaVuSans-51"/>
     <use x="78.710938" xlink:href="#DejaVuSans-75"/>
     <use x="142.089844" xlink:href="#DejaVuSans-69"/>
    </g>
   </g>
  </g>
  <g id="axes_23">
   <g id="patch_22">
    <path clip-path="url(#paabf1a6250)" d="M 282.915377 298.4575 
L 293.781002 315.8425 
L 272.049752 315.8425 
L 282.915377 298.4575 
z
" style="fill:#00a651;stroke:#000000;stroke-linejoin:miter;"/>
   </g>
   <g id="text_21">
    <!-- Rha -->
    <defs>
     <path d="M 44.390625 34.1875 
Q 47.5625 33.109375 50.5625 29.59375 
Q 53.5625 26.078125 56.59375 19.921875 
L 66.609375 0 
L 56 0 
L 46.6875 18.703125 
Q 43.0625 26.03125 39.671875 28.421875 
Q 36.28125 30.8125 30.421875 30.8125 
L 19.671875 30.8125 
L 19.671875 0 
L 9.8125 0 
L 9.8125 72.90625 
L 32.078125 72.90625 
Q 44.578125 72.90625 50.734375 67.671875 
Q 56.890625 62.453125 56.890625 51.90625 
Q 56.890625 45.015625 53.6875 40.46875 
Q 50.484375 35.9375 44.390625 34.1875 
z
M 19.671875 64.796875 
L 19.671875 38.921875 
L 32.078125 38.921875 
Q 39.203125 38.921875 42.84375 42.21875 
Q 46.484375 45.515625 46.484375 51.90625 
Q 46.484375 58.296875 42.84375 61.546875 
Q 39.203125 64.796875 32.078125 64.796875 
z
" id="DejaVuSans-52"/>
    </defs>
    <g transform="translate(267.384127 334.6)scale(0.16 -0.16)">
     <use xlink:href="#DejaVuSans-52"/>
     <use x="69.482422" xlink:href="#DejaVuSans-68"/>
     <use x="132.861328" xlink:href="#DejaVuSans-61"/>
    </g>
   </g>
  </g>
  <g id="axes_24"/>
  <g id="axes_25">
   <g id="patch_23">
    <path clip-path="url(#p126e470cda)" d="M 496.023243 298.4575 
L 506.888868 315.8425 
L 485.157618 315.8425 
L 496.023243 298.4575 
z
" style="fill:#f47920;stroke:#000000;stroke-linejoin:miter;"/>
   </g>
   <g id="text_22">
    <!-- 6dGul -->
    <defs>
     <path d="M 33.015625 40.375 
Q 26.375 40.375 22.484375 35.828125 
Q 18.609375 31.296875 18.609375 23.390625 
Q 18.609375 15.53125 22.484375 10.953125 
Q 26.375 6.390625 33.015625 6.390625 
Q 39.65625 6.390625 43.53125 10.953125 
Q 47.40625 15.53125 47.40625 23.390625 
Q 47.40625 31.296875 43.53125 35.828125 
Q 39.65625 40.375 33.015625 40.375 
z
M 52.59375 71.296875 
L 52.59375 62.3125 
Q 48.875 64.0625 45.09375 64.984375 
Q 41.3125 65.921875 37.59375 65.921875 
Q 27.828125 65.921875 22.671875 59.328125 
Q 17.53125 52.734375 16.796875 39.40625 
Q 19.671875 43.65625 24.015625 45.921875 
Q 28.375 48.1875 33.59375 48.1875 
Q 44.578125 48.1875 50.953125 41.515625 
Q 57.328125 34.859375 57.328125 23.390625 
Q 57.328125 12.15625 50.6875 5.359375 
Q 44.046875 -1.421875 33.015625 -1.421875 
Q 20.359375 -1.421875 13.671875 8.265625 
Q 6.984375 17.96875 6.984375 36.375 
Q 6.984375 53.65625 15.1875 63.9375 
Q 23.390625 74.21875 37.203125 74.21875 
Q 40.921875 74.21875 44.703125 73.484375 
Q 48.484375 72.75 52.59375 71.296875 
z
" id="DejaVuSans-36"/>
    </defs>
    <g transform="translate(472.363243 334.6)scale(0.16 -0.16)">
     <use xlink:href="#DejaVuSans-36"/>
     <use x="63.623047" xlink:href="#DejaVuSans-64"/>
     <use x="127.099609" xlink:href="#DejaVuSans-47"/>
     <use x="204.589844" xlink:href="#DejaVuSans-75"/>
     <use x="267.96875" xlink:href="#DejaVuSans-6c"/>
    </g>
   </g>
  </g>
  <g id="axes_26">
   <g id="patch_24">
    <path clip-path="url(#pd937449ef8)" d="M 602.577177 298.4575 
L 613.442802 315.8425 
L 591.711552 315.8425 
L 602.577177 298.4575 
z
" style="fill:#f69ea1;stroke:#000000;stroke-linejoin:miter;"/>
   </g>
   <g id="text_23">
    <!-- 6dAlt -->
    <g transform="translate(581.577177 334.6)scale(0.16 -0.16)">
     <use xlink:href="#DejaVuSans-36"/>
     <use x="63.623047" xlink:href="#DejaVuSans-64"/>
     <use x="127.099609" xlink:href="#DejaVuSans-41"/>
     <use x="195.507812" xlink:href="#DejaVuSans-6c"/>
     <use x="223.291016" xlink:href="#DejaVuSans-74"/>
    </g>
   </g>
  </g>
  <g id="axes_27"/>
  <g id="axes_28">
   <g id="patch_25">
    <path clip-path="url(#p3061ae70c2)" d="M 815.685043 298.4575 
L 826.550668 315.8425 
L 804.819418 315.8425 
L 815.685043 298.4575 
z
" style="fill:#8fcce9;stroke:#000000;stroke-linejoin:miter;"/>
   </g>
   <g id="text_24">
    <!-- 6dTal -->
    <g transform="translate(793.525043 334.6)scale(0.16 -0.16)">
     <use xlink:href="#DejaVuSans-36"/>
     <use x="63.623047" xlink:href="#DejaVuSans-64"/>
     <use x="127.099609" xlink:href="#DejaVuSans-54"/>
     <use x="187.933594" xlink:href="#DejaVuSans-61"/>
     <use x="249.212891" xlink:href="#DejaVuSans-6c"/>
    </g>
   </g>
  </g>
  <g id="axes_29"/>
  <g id="axes_30">
   <g id="patch_26">
    <path clip-path="url(#pcab563ce43)" d="M 1028.79291 298.4575 
L 1039.658535 315.8425 
L 1017.927285 315.8425 
L 1028.79291 298.4575 
z
" style="fill:#ed1c24;stroke:#000000;stroke-linejoin:miter;"/>
   </g>
   <g id="text_25">
    <!-- Fuc -->
    <defs>
     <path d="M 9.8125 72.90625 
L 51.703125 72.90625 
L 51.703125 64.59375 
L 19.671875 64.59375 
L 19.671875 43.109375 
L 48.578125 43.109375 
L 48.578125 34.8125 
L 19.671875 34.8125 
L 19.671875 0 
L 9.8125 0 
z
" id="DejaVuSans-46"/>
    </defs>
    <g transform="translate(1014.72916 334.6)scale(0.16 -0.16)">
     <use xlink:href="#DejaVuSans-46"/>
     <use x="57.441406" xlink:href="#DejaVuSans-75"/>
     <use x="120.820312" xlink:href="#DejaVuSans-63"/>
    </g>
   </g>
  </g>
  <g id="axes_31">
   <g id="patch_27">
    <path clip-path="url(#p74be466c48)" d="M 69.80751 417.509946 
L 82.747564 430.45 
L 69.80751 443.390054 
L 56.867456 430.45 
L 69.80751 417.509946 
z
" style="fill:#ffffff;stroke:#000000;stroke-linejoin:miter;"/>
   </g>
   <g id="text_26">
    <!-- Deoxynonulosonate -->
    <g transform="translate(-9.95249 457.9)scale(0.16 -0.16)">
     <use xlink:href="#DejaVuSans-44"/>
     <use x="77.001953" xlink:href="#DejaVuSans-65"/>
     <use x="138.525391" xlink:href="#DejaVuSans-6f"/>
     <use x="199.660156" xlink:href="#DejaVuSans-78"/>
     <use x="258.839844" xlink:href="#DejaVuSans-79"/>
     <use x="318.019531" xlink:href="#DejaVuSans-6e"/>
     <use x="381.398438" xlink:href="#DejaVuSans-6f"/>
     <use x="442.580078" xlink:href="#DejaVuSans-6e"/>
     <use x="505.958984" xlink:href="#DejaVuSans-75"/>
     <use x="569.337891" xlink:href="#DejaVuSans-6c"/>
     <use x="597.121094" xlink:href="#DejaVuSans-6f"/>
     <use x="658.302734" xlink:href="#DejaVuSans-73"/>
     <use x="710.402344" xlink:href="#DejaVuSans-6f"/>
     <use x="771.583984" xlink:href="#DejaVuSans-6e"/>
     <use x="834.962891" xlink:href="#DejaVuSans-61"/>
     <use x="896.242188" xlink:href="#DejaVuSans-74"/>
     <use x="935.451172" xlink:href="#DejaVuSans-65"/>
    </g>
   </g>
  </g>
  <g id="axes_32"/>
  <g id="axes_33">
   <g id="patch_28">
    <path clip-path="url(#p42fef557cf)" d="M 282.915377 417.509946 
L 295.855431 430.45 
L 282.915377 443.390054 
L 269.975323 430.45 
L 282.915377 417.509946 
z
" style="fill:#00a651;stroke:#000000;stroke-linejoin:miter;"/>
   </g>
   <g id="text_27">
    <!-- Kdn -->
    <defs>
     <path d="M 9.8125 72.90625 
L 19.671875 72.90625 
L 19.671875 42.09375 
L 52.390625 72.90625 
L 65.09375 72.90625 
L 28.90625 38.921875 
L 67.671875 0 
L 54.6875 0 
L 19.671875 35.109375 
L 19.671875 0 
L 9.8125 0 
z
" id="DejaVuSans-4b"/>
    </defs>
    <g transform="translate(267.520377 457.9)scale(0.16 -0.16)">
     <use xlink:href="#DejaVuSans-4b"/>
     <use x="65.576172" xlink:href="#DejaVuSans-64"/>
     <use x="129.052734" xlink:href="#DejaVuSans-6e"/>
    </g>
   </g>
  </g>
  <g id="axes_34"/>
  <g id="axes_35"/>
  <g id="axes_36"/>
  <g id="axes_37">
   <g id="patch_29">
    <path clip-path="url(#pcc825d15a6)" d="M 709.13111 417.509946 
L 722.071164 430.45 
L 709.13111 443.390054 
L 696.191056 430.45 
L 709.13111 417.509946 
z
" style="fill:#a54399;stroke:#000000;stroke-linejoin:miter;"/>
   </g>
   <g id="text_28">
    <!-- Neu5Ac -->
    <defs>
     <path d="M 10.796875 72.90625 
L 49.515625 72.90625 
L 49.515625 64.59375 
L 19.828125 64.59375 
L 19.828125 46.734375 
Q 21.96875 47.46875 24.109375 47.828125 
Q 26.265625 48.1875 28.421875 48.1875 
Q 40.625 48.1875 47.75 41.5 
Q 54.890625 34.8125 54.890625 23.390625 
Q 54.890625 11.625 47.5625 5.09375 
Q 40.234375 -1.421875 26.90625 -1.421875 
Q 22.3125 -1.421875 17.546875 -0.640625 
Q 12.796875 0.140625 7.71875 1.703125 
L 7.71875 11.625 
Q 12.109375 9.234375 16.796875 8.0625 
Q 21.484375 6.890625 26.703125 6.890625 
Q 35.15625 6.890625 40.078125 11.328125 
Q 45.015625 15.765625 45.015625 23.390625 
Q 45.015625 31 40.078125 35.4375 
Q 35.15625 39.890625 26.703125 39.890625 
Q 22.75 39.890625 18.8125 39.015625 
Q 14.890625 38.140625 10.796875 36.28125 
z
" id="DejaVuSans-35"/>
    </defs>
    <g transform="translate(678.19361 457.9)scale(0.16 -0.16)">
     <use xlink:href="#DejaVuSans-4e"/>
     <use x="74.804688" xlink:href="#DejaVuSans-65"/>
     <use x="136.328125" xlink:href="#DejaVuSans-75"/>
     <use x="199.707031" xlink:href="#DejaVuSans-35"/>
     <use x="263.330078" xlink:href="#DejaVuSans-41"/>
     <use x="331.722656" xlink:href="#DejaVuSans-63"/>
    </g>
   </g>
  </g>
  <g id="axes_38">
   <g id="patch_30">
    <path clip-path="url(#p913f6aa25a)" d="M 815.685043 417.509946 
L 828.625097 430.45 
L 815.685043 443.390054 
L 802.744989 430.45 
L 815.685043 417.509946 
z
" style="fill:#8fcce9;stroke:#000000;stroke-linejoin:miter;"/>
   </g>
   <g id="text_29">
    <!-- Neu5Gc -->
    <g transform="translate(784.020043 457.9)scale(0.16 -0.16)">
     <use xlink:href="#DejaVuSans-4e"/>
     <use x="74.804688" xlink:href="#DejaVuSans-65"/>
     <use x="136.328125" xlink:href="#DejaVuSans-75"/>
     <use x="199.707031" xlink:href="#DejaVuSans-35"/>
     <use x="263.330078" xlink:href="#DejaVuSans-47"/>
     <use x="340.820312" xlink:href="#DejaVuSans-63"/>
    </g>
   </g>
  </g>
  <g id="axes_39">
   <g id="patch_31">
    <path clip-path="url(#p4b2e567348)" d="M 922.238977 417.509946 
L 935.179031 430.45 
L 922.238977 443.390054 
L 909.298923 430.45 
L 922.238977 417.509946 
z
" style="fill:#a17a4d;stroke:#000000;stroke-linejoin:miter;"/>
   </g>
   <g id="text_30">
    <!-- Neu -->
    <g transform="translate(906.261477 457.9)scale(0.16 -0.16)">
     <use xlink:href="#DejaVuSans-4e"/>
     <use x="74.804688" xlink:href="#DejaVuSans-65"/>
     <use x="136.328125" xlink:href="#DejaVuSans-75"/>
    </g>
   </g>
  </g>
  <g id="axes_40">
   <g id="patch_32">
    <path clip-path="url(#p42fd0dfaf3)" d="M 1028.79291 417.509946 
L 1041.732964 430.45 
L 1028.79291 443.390054 
L 1015.852856 430.45 
L 1028.79291 417.509946 
z
" style="fill:#ed1c24;stroke:#000000;stroke-linejoin:miter;"/>
   </g>
   <g id="text_31">
    <!-- Sia  -->
    <defs>
     <path d="M 53.515625 70.515625 
L 53.515625 60.890625 
Q 47.90625 63.578125 42.921875 64.890625 
Q 37.9375 66.21875 33.296875 66.21875 
Q 25.25 66.21875 20.875 63.09375 
Q 16.5 59.96875 16.5 54.203125 
Q 16.5 49.359375 19.40625 46.890625 
Q 22.3125 44.4375 30.421875 42.921875 
L 36.375 41.703125 
Q 47.40625 39.59375 52.65625 34.296875 
Q 57.90625 29 57.90625 20.125 
Q 57.90625 9.515625 50.796875 4.046875 
Q 43.703125 -1.421875 29.984375 -1.421875 
Q 24.8125 -1.421875 18.96875 -0.25 
Q 13.140625 0.921875 6.890625 3.21875 
L 6.890625 13.375 
Q 12.890625 10.015625 18.65625 8.296875 
Q 24.421875 6.59375 29.984375 6.59375 
Q 38.421875 6.59375 43.015625 9.90625 
Q 47.609375 13.234375 47.609375 19.390625 
Q 47.609375 24.75 44.3125 27.78125 
Q 41.015625 30.8125 33.5 32.328125 
L 27.484375 33.5 
Q 16.453125 35.6875 11.515625 40.375 
Q 6.59375 45.0625 6.59375 53.421875 
Q 6.59375 63.09375 13.40625 68.65625 
Q 20.21875 74.21875 32.171875 74.21875 
Q 37.3125 74.21875 42.625 73.28125 
Q 47.953125 72.359375 53.515625 70.515625 
z
" id="DejaVuSans-53"/>
     <path id="DejaVuSans-20"/>
    </defs>
    <g transform="translate(1014.04666 457.9)scale(0.16 -0.16)">
     <use xlink:href="#DejaVuSans-53"/>
     <use x="63.476562" xlink:href="#DejaVuSans-69"/>
     <use x="91.259766" xlink:href="#DejaVuSans-61"/>
     <use x="152.539062" xlink:href="#DejaVuSans-20"/>
    </g>
   </g>
  </g>
 </g>
 <defs>
  <clipPath id="p664790f793">
   <rect height="91.5" width="54.9" x="42.35751" y="14.8"/>
  </clipPath>
  <clipPath id="pa1fa31c7a5">
   <rect height="91.5" width="54.9" x="148.911443" y="14.8"/>
  </clipPath>
  <clipPath id="pabfa998c23">
   <rect height="91.5" width="54.9" x="255.465377" y="14.8"/>
  </clipPath>
  <clipPath id="p228aa89a54">
   <rect height="91.5" width="54.9" x="362.01931" y="14.8"/>
  </clipPath>
  <clipPath id="pab4fb94f84">
   <rect height="91.5" width="54.9" x="468.573243" y="14.8"/>
  </clipPath>
  <clipPath id="p1215ebce9e">
   <rect height="91.5" width="54.9" x="575.127177" y="14.8"/>
  </clipPath>
  <clipPath id="peb0b4131ee">
   <rect height="91.5" width="54.9" x="681.68111" y="14.8"/>
  </clipPath>
  <clipPath id="p8b696901bb">
   <rect height="91.5" width="54.9" x="788.235043" y="14.8"/>
  </clipPath>
  <clipPath id="pf9f7d3faaf">
   <rect height="91.5" width="54.9" x="894.788977" y="14.8"/>
  </clipPath>
  <clipPath id="pcc3e82bd10">
   <rect height="91.5" width="54.9" x="42.35751" y="138.1"/>
  </clipPath>
  <clipPath id="p010a0d0fd0">
   <rect height="91.5" width="54.9" x="148.911443" y="138.1"/>
  </clipPath>
  <clipPath id="p57925ebb0f">
   <rect height="91.5" width="54.9" x="255.465377" y="138.1"/>
  </clipPath>
  <clipPath id="p347acdb9f2">
   <rect height="91.5" width="54.9" x="362.01931" y="138.1"/>
  </clipPath>
  <clipPath id="pcbbb6ffe6f">
   <rect height="91.5" width="54.9" x="468.573243" y="138.1"/>
  </clipPath>
  <clipPath id="p9a7e96e3c8">
   <rect height="91.5" width="54.9" x="575.127177" y="138.1"/>
  </clipPath>
  <clipPath id="p2a59de7e9d">
   <rect height="91.5" width="54.9" x="681.68111" y="138.1"/>
  </clipPath>
  <clipPath id="p55c065c2ad">
   <rect height="91.5" width="54.9" x="788.235043" y="138.1"/>
  </clipPath>
  <clipPath id="p09af9cb9e8">
   <rect height="91.5" width="54.9" x="894.788977" y="138.1"/>
  </clipPath>
  <clipPath id="pab42802ffa">
   <rect height="91.5" width="54.9" x="42.35751" y="261.4"/>
  </clipPath>
  <clipPath id="pd63bb86d1c">
   <rect height="91.5" width="54.9" x="148.911443" y="261.4"/>
  </clipPath>
  <clipPath id="paabf1a6250">
   <rect height="91.5" width="54.9" x="255.465377" y="261.4"/>
  </clipPath>
  <clipPath id="p126e470cda">
   <rect height="91.5" width="54.9" x="468.573243" y="261.4"/>
  </clipPath>
  <clipPath id="pd937449ef8">
   <rect height="91.5" width="54.9" x="575.127177" y="261.4"/>
  </clipPath>
  <clipPath id="p3061ae70c2">
   <rect height="91.5" width="54.9" x="788.235043" y="261.4"/>
  </clipPath>
  <clipPath id="pcab563ce43">
   <rect height="91.5" width="54.9" x="1001.34291" y="261.4"/>
  </clipPath>
  <clipPath id="p74be466c48">
   <rect height="91.5" width="54.9" x="42.35751" y="384.7"/>
  </clipPath>
  <clipPath id="p42fef557cf">
   <rect height="91.5" width="54.9" x="255.465377" y="384.7"/>
  </clipPath>
  <clipPath id="pcc825d15a6">
   <rect height="91.5" width="54.9" x="681.68111" y="384.7"/>
  </clipPath>
  <clipPath id="p913f6aa25a">
   <rect height="91.5" width="54.9" x="788.235043" y="384.7"/>
  </clipPath>
  <clipPath id="p4b2e567348">
   <rect height="91.5" width="54.9" x="894.788977" y="384.7"/>
  </clipPath>
  <clipPath id="p42fd0dfaf3">
   <rect height="91.5" width="54.9" x="1001.34291" y="384.7"/>
  </clipPath>
 </defs>
</svg>
