<?xml version="1.0" encoding="utf-8" standalone="no"?>
<!DOCTYPE svg PUBLIC "-//W3C//DTD SVG 1.1//EN"
  "http://www.w3.org/Graphics/SVG/1.1/DTD/svg11.dtd">
<!-- Created with matplotlib (https://matplotlib.org/) -->
<svg height="288pt" version="1.1" viewBox="0 0 432 288" width="432pt" xmlns="http://www.w3.org/2000/svg" xmlns:xlink="http://www.w3.org/1999/xlink">
 <defs>
  <style type="text/css">
*{stroke-linecap:butt;stroke-linejoin:round;}
  </style>
 </defs>
 <g id="figure_1">
  <g id="patch_1">
   <path d="M 0 288 
L 432 288 
L 432 0 
L 0 0 
z
" style="fill:#ffffff;"/>
  </g>
  <g id="axes_1">
   <g id="patch_2">
    <path d="M 54 252 
L 388.8 252 
L 388.8 34.56 
L 54 34.56 
z
" style="fill:#ffffff;"/>
   </g>
   <g id="matplotlib.axis_1">
    <g id="xtick_1">
     <g id="line2d_1">
      <defs>
       <path d="M 0 0 
L 0 6 
" id="m4b915c1ca6" style="stroke:#262626;stroke-width:1.25;"/>
      </defs>
      <g>
       <use style="fill:#262626;stroke:#262626;stroke-width:1.25;" x="87.48" xlink:href="#m4b915c1ca6" y="252"/>
      </g>
     </g>
     <g id="text_1">
      <!-- GLYMMR -->
      <defs>
       <path d="M 59.515625 10.40625 
L 59.515625 29.984375 
L 43.40625 29.984375 
L 43.40625 38.09375 
L 69.28125 38.09375 
L 69.28125 6.78125 
Q 63.578125 2.734375 56.6875 0.65625 
Q 49.8125 -1.421875 42 -1.421875 
Q 24.90625 -1.421875 15.25 8.5625 
Q 5.609375 18.5625 5.609375 36.375 
Q 5.609375 54.25 15.25 64.234375 
Q 24.90625 74.21875 42 74.21875 
Q 49.125 74.21875 55.546875 72.453125 
Q 61.96875 70.703125 67.390625 67.28125 
L 67.390625 56.78125 
Q 61.921875 61.421875 55.765625 63.765625 
Q 49.609375 66.109375 42.828125 66.109375 
Q 29.4375 66.109375 22.71875 58.640625 
Q 16.015625 51.171875 16.015625 36.375 
Q 16.015625 21.625 22.71875 14.15625 
Q 29.4375 6.6875 42.828125 6.6875 
Q 48.046875 6.6875 52.140625 7.59375 
Q 56.25 8.5 59.515625 10.40625 
z
" id="DejaVuSans-71"/>
       <path d="M 9.8125 72.90625 
L 19.671875 72.90625 
L 19.671875 8.296875 
L 55.171875 8.296875 
L 55.171875 0 
L 9.8125 0 
z
" id="DejaVuSans-76"/>
       <path d="M -0.203125 72.90625 
L 10.40625 72.90625 
L 30.609375 42.921875 
L 50.6875 72.90625 
L 61.28125 72.90625 
L 35.5 34.71875 
L 35.5 0 
L 25.59375 0 
L 25.59375 34.71875 
z
" id="DejaVuSans-89"/>
       <path d="M 9.8125 72.90625 
L 24.515625 72.90625 
L 43.109375 23.296875 
L 61.8125 72.90625 
L 76.515625 72.90625 
L 76.515625 0 
L 66.890625 0 
L 66.890625 64.015625 
L 48.09375 14.015625 
L 38.1875 14.015625 
L 19.390625 64.015625 
L 19.390625 0 
L 9.8125 0 
z
" id="DejaVuSans-77"/>
       <path d="M 44.390625 34.1875 
Q 47.5625 33.109375 50.5625 29.59375 
Q 53.5625 26.078125 56.59375 19.921875 
L 66.609375 0 
L 56 0 
L 46.6875 18.703125 
Q 43.0625 26.03125 39.671875 28.421875 
Q 36.28125 30.8125 30.421875 30.8125 
L 19.671875 30.8125 
L 19.671875 0 
L 9.8125 0 
L 9.8125 72.90625 
L 32.078125 72.90625 
Q 44.578125 72.90625 50.734375 67.671875 
Q 56.890625 62.453125 56.890625 51.90625 
Q 56.890625 45.015625 53.6875 40.46875 
Q 50.484375 35.9375 44.390625 34.1875 
z
M 19.671875 64.796875 
L 19.671875 38.921875 
L 32.078125 38.921875 
Q 39.203125 38.921875 42.84375 42.21875 
Q 46.484375 45.515625 46.484375 51.90625 
Q 46.484375 58.296875 42.84375 61.546875 
Q 39.203125 64.796875 32.078125 64.796875 
z
" id="DejaVuSans-82"/>
      </defs>
      <g style="fill:#262626;" transform="translate(63.493125 269.858281)scale(0.11 -0.11)">
       <use xlink:href="#DejaVuSans-71"/>
       <use x="77.490234" xlink:href="#DejaVuSans-76"/>
       <use x="133" xlink:href="#DejaVuSans-89"/>
       <use x="194.083984" xlink:href="#DejaVuSans-77"/>
       <use x="280.363281" xlink:href="#DejaVuSans-77"/>
       <use x="366.642578" xlink:href="#DejaVuSans-82"/>
      </g>
      <!-- (mean) -->
      <defs>
       <path d="M 31 75.875 
Q 24.46875 64.65625 21.28125 53.65625 
Q 18.109375 42.671875 18.109375 31.390625 
Q 18.109375 20.125 21.3125 9.0625 
Q 24.515625 -2 31 -13.1875 
L 23.1875 -13.1875 
Q 15.875 -1.703125 12.234375 9.375 
Q 8.59375 20.453125 8.59375 31.390625 
Q 8.59375 42.28125 12.203125 53.3125 
Q 15.828125 64.359375 23.1875 75.875 
z
" id="DejaVuSans-40"/>
       <path d="M 52 44.1875 
Q 55.375 50.25 60.0625 53.125 
Q 64.75 56 71.09375 56 
Q 79.640625 56 84.28125 50.015625 
Q 88.921875 44.046875 88.921875 33.015625 
L 88.921875 0 
L 79.890625 0 
L 79.890625 32.71875 
Q 79.890625 40.578125 77.09375 44.375 
Q 74.3125 48.1875 68.609375 48.1875 
Q 61.625 48.1875 57.5625 43.546875 
Q 53.515625 38.921875 53.515625 30.90625 
L 53.515625 0 
L 44.484375 0 
L 44.484375 32.71875 
Q 44.484375 40.625 41.703125 44.40625 
Q 38.921875 48.1875 33.109375 48.1875 
Q 26.21875 48.1875 22.15625 43.53125 
Q 18.109375 38.875 18.109375 30.90625 
L 18.109375 0 
L 9.078125 0 
L 9.078125 54.6875 
L 18.109375 54.6875 
L 18.109375 46.1875 
Q 21.1875 51.21875 25.484375 53.609375 
Q 29.78125 56 35.6875 56 
Q 41.65625 56 45.828125 52.96875 
Q 50 49.953125 52 44.1875 
z
" id="DejaVuSans-109"/>
       <path d="M 56.203125 29.59375 
L 56.203125 25.203125 
L 14.890625 25.203125 
Q 15.484375 15.921875 20.484375 11.0625 
Q 25.484375 6.203125 34.421875 6.203125 
Q 39.59375 6.203125 44.453125 7.46875 
Q 49.3125 8.734375 54.109375 11.28125 
L 54.109375 2.78125 
Q 49.265625 0.734375 44.1875 -0.34375 
Q 39.109375 -1.421875 33.890625 -1.421875 
Q 20.796875 -1.421875 13.15625 6.1875 
Q 5.515625 13.8125 5.515625 26.8125 
Q 5.515625 40.234375 12.765625 48.109375 
Q 20.015625 56 32.328125 56 
Q 43.359375 56 49.78125 48.890625 
Q 56.203125 41.796875 56.203125 29.59375 
z
M 47.21875 32.234375 
Q 47.125 39.59375 43.09375 43.984375 
Q 39.0625 48.390625 32.421875 48.390625 
Q 24.90625 48.390625 20.390625 44.140625 
Q 15.875 39.890625 15.1875 32.171875 
z
" id="DejaVuSans-101"/>
       <path d="M 34.28125 27.484375 
Q 23.390625 27.484375 19.1875 25 
Q 14.984375 22.515625 14.984375 16.5 
Q 14.984375 11.71875 18.140625 8.90625 
Q 21.296875 6.109375 26.703125 6.109375 
Q 34.1875 6.109375 38.703125 11.40625 
Q 43.21875 16.703125 43.21875 25.484375 
L 43.21875 27.484375 
z
M 52.203125 31.203125 
L 52.203125 0 
L 43.21875 0 
L 43.21875 8.296875 
Q 40.140625 3.328125 35.546875 0.953125 
Q 30.953125 -1.421875 24.3125 -1.421875 
Q 15.921875 -1.421875 10.953125 3.296875 
Q 6 8.015625 6 15.921875 
Q 6 25.140625 12.171875 29.828125 
Q 18.359375 34.515625 30.609375 34.515625 
L 43.21875 34.515625 
L 43.21875 35.40625 
Q 43.21875 41.609375 39.140625 45 
Q 35.0625 48.390625 27.6875 48.390625 
Q 23 48.390625 18.546875 47.265625 
Q 14.109375 46.140625 10.015625 43.890625 
L 10.015625 52.203125 
Q 14.9375 54.109375 19.578125 55.046875 
Q 24.21875 56 28.609375 56 
Q 40.484375 56 46.34375 49.84375 
Q 52.203125 43.703125 52.203125 31.203125 
z
" id="DejaVuSans-97"/>
       <path d="M 54.890625 33.015625 
L 54.890625 0 
L 45.90625 0 
L 45.90625 32.71875 
Q 45.90625 40.484375 42.875 44.328125 
Q 39.84375 48.1875 33.796875 48.1875 
Q 26.515625 48.1875 22.3125 43.546875 
Q 18.109375 38.921875 18.109375 30.90625 
L 18.109375 0 
L 9.078125 0 
L 9.078125 54.6875 
L 18.109375 54.6875 
L 18.109375 46.1875 
Q 21.34375 51.125 25.703125 53.5625 
Q 30.078125 56 35.796875 56 
Q 45.21875 56 50.046875 50.171875 
Q 54.890625 44.34375 54.890625 33.015625 
z
" id="DejaVuSans-110"/>
       <path d="M 8.015625 75.875 
L 15.828125 75.875 
Q 23.140625 64.359375 26.78125 53.3125 
Q 30.421875 42.28125 30.421875 31.390625 
Q 30.421875 20.453125 26.78125 9.375 
Q 23.140625 -1.703125 15.828125 -13.1875 
L 8.015625 -13.1875 
Q 14.5 -2 17.703125 9.0625 
Q 20.90625 20.125 20.90625 31.390625 
Q 20.90625 42.671875 17.703125 53.65625 
Q 14.5 64.65625 8.015625 75.875 
z
" id="DejaVuSans-41"/>
      </defs>
      <g style="fill:#262626;" transform="translate(67.590625 282.175875)scale(0.11 -0.11)">
       <use xlink:href="#DejaVuSans-40"/>
       <use x="39.013672" xlink:href="#DejaVuSans-109"/>
       <use x="136.425781" xlink:href="#DejaVuSans-101"/>
       <use x="197.949219" xlink:href="#DejaVuSans-97"/>
       <use x="259.228516" xlink:href="#DejaVuSans-110"/>
       <use x="322.607422" xlink:href="#DejaVuSans-41"/>
      </g>
     </g>
    </g>
    <g id="xtick_2">
     <g id="line2d_2">
      <g>
       <use style="fill:#262626;stroke:#262626;stroke-width:1.25;" x="154.44" xlink:href="#m4b915c1ca6" y="252"/>
      </g>
     </g>
     <g id="text_2">
      <!-- GLYMMR -->
      <g style="fill:#262626;" transform="translate(130.453125 269.858281)scale(0.11 -0.11)">
       <use xlink:href="#DejaVuSans-71"/>
       <use x="77.490234" xlink:href="#DejaVuSans-76"/>
       <use x="133" xlink:href="#DejaVuSans-89"/>
       <use x="194.083984" xlink:href="#DejaVuSans-77"/>
       <use x="280.363281" xlink:href="#DejaVuSans-77"/>
       <use x="366.642578" xlink:href="#DejaVuSans-82"/>
      </g>
      <!-- (best) -->
      <defs>
       <path d="M 48.6875 27.296875 
Q 48.6875 37.203125 44.609375 42.84375 
Q 40.53125 48.484375 33.40625 48.484375 
Q 26.265625 48.484375 22.1875 42.84375 
Q 18.109375 37.203125 18.109375 27.296875 
Q 18.109375 17.390625 22.1875 11.75 
Q 26.265625 6.109375 33.40625 6.109375 
Q 40.53125 6.109375 44.609375 11.75 
Q 48.6875 17.390625 48.6875 27.296875 
z
M 18.109375 46.390625 
Q 20.953125 51.265625 25.265625 53.625 
Q 29.59375 56 35.59375 56 
Q 45.5625 56 51.78125 48.09375 
Q 58.015625 40.1875 58.015625 27.296875 
Q 58.015625 14.40625 51.78125 6.484375 
Q 45.5625 -1.421875 35.59375 -1.421875 
Q 29.59375 -1.421875 25.265625 0.953125 
Q 20.953125 3.328125 18.109375 8.203125 
L 18.109375 0 
L 9.078125 0 
L 9.078125 75.984375 
L 18.109375 75.984375 
z
" id="DejaVuSans-98"/>
       <path d="M 44.28125 53.078125 
L 44.28125 44.578125 
Q 40.484375 46.53125 36.375 47.5 
Q 32.28125 48.484375 27.875 48.484375 
Q 21.1875 48.484375 17.84375 46.4375 
Q 14.5 44.390625 14.5 40.28125 
Q 14.5 37.15625 16.890625 35.375 
Q 19.28125 33.59375 26.515625 31.984375 
L 29.59375 31.296875 
Q 39.15625 29.25 43.1875 25.515625 
Q 47.21875 21.78125 47.21875 15.09375 
Q 47.21875 7.46875 41.1875 3.015625 
Q 35.15625 -1.421875 24.609375 -1.421875 
Q 20.21875 -1.421875 15.453125 -0.5625 
Q 10.6875 0.296875 5.421875 2 
L 5.421875 11.28125 
Q 10.40625 8.6875 15.234375 7.390625 
Q 20.0625 6.109375 24.8125 6.109375 
Q 31.15625 6.109375 34.5625 8.28125 
Q 37.984375 10.453125 37.984375 14.40625 
Q 37.984375 18.0625 35.515625 20.015625 
Q 33.0625 21.96875 24.703125 23.78125 
L 21.578125 24.515625 
Q 13.234375 26.265625 9.515625 29.90625 
Q 5.8125 33.546875 5.8125 39.890625 
Q 5.8125 47.609375 11.28125 51.796875 
Q 16.75 56 26.8125 56 
Q 31.78125 56 36.171875 55.265625 
Q 40.578125 54.546875 44.28125 53.078125 
z
" id="DejaVuSans-115"/>
       <path d="M 18.3125 70.21875 
L 18.3125 54.6875 
L 36.8125 54.6875 
L 36.8125 47.703125 
L 18.3125 47.703125 
L 18.3125 18.015625 
Q 18.3125 11.328125 20.140625 9.421875 
Q 21.96875 7.515625 27.59375 7.515625 
L 36.8125 7.515625 
L 36.8125 0 
L 27.59375 0 
Q 17.1875 0 13.234375 3.875 
Q 9.28125 7.765625 9.28125 18.015625 
L 9.28125 47.703125 
L 2.6875 47.703125 
L 2.6875 54.6875 
L 9.28125 54.6875 
L 9.28125 70.21875 
z
" id="DejaVuSans-116"/>
      </defs>
      <g style="fill:#262626;" transform="translate(138.251094 282.175875)scale(0.11 -0.11)">
       <use xlink:href="#DejaVuSans-40"/>
       <use x="39.013672" xlink:href="#DejaVuSans-98"/>
       <use x="102.490234" xlink:href="#DejaVuSans-101"/>
       <use x="164.013672" xlink:href="#DejaVuSans-115"/>
       <use x="216.113281" xlink:href="#DejaVuSans-116"/>
       <use x="255.322266" xlink:href="#DejaVuSans-41"/>
      </g>
     </g>
    </g>
    <g id="xtick_3">
     <g id="line2d_3">
      <g>
       <use style="fill:#262626;stroke:#262626;stroke-width:1.25;" x="221.4" xlink:href="#m4b915c1ca6" y="252"/>
      </g>
     </g>
     <g id="text_3">
      <!-- MotifFinder -->
      <defs>
       <path d="M 30.609375 48.390625 
Q 23.390625 48.390625 19.1875 42.75 
Q 14.984375 37.109375 14.984375 27.296875 
Q 14.984375 17.484375 19.15625 11.84375 
Q 23.34375 6.203125 30.609375 6.203125 
Q 37.796875 6.203125 41.984375 11.859375 
Q 46.1875 17.53125 46.1875 27.296875 
Q 46.1875 37.015625 41.984375 42.703125 
Q 37.796875 48.390625 30.609375 48.390625 
z
M 30.609375 56 
Q 42.328125 56 49.015625 48.375 
Q 55.71875 40.765625 55.71875 27.296875 
Q 55.71875 13.875 49.015625 6.21875 
Q 42.328125 -1.421875 30.609375 -1.421875 
Q 18.84375 -1.421875 12.171875 6.21875 
Q 5.515625 13.875 5.515625 27.296875 
Q 5.515625 40.765625 12.171875 48.375 
Q 18.84375 56 30.609375 56 
z
" id="DejaVuSans-111"/>
       <path d="M 9.421875 54.6875 
L 18.40625 54.6875 
L 18.40625 0 
L 9.421875 0 
z
M 9.421875 75.984375 
L 18.40625 75.984375 
L 18.40625 64.59375 
L 9.421875 64.59375 
z
" id="DejaVuSans-105"/>
       <path d="M 37.109375 75.984375 
L 37.109375 68.5 
L 28.515625 68.5 
Q 23.6875 68.5 21.796875 66.546875 
Q 19.921875 64.59375 19.921875 59.515625 
L 19.921875 54.6875 
L 34.71875 54.6875 
L 34.71875 47.703125 
L 19.921875 47.703125 
L 19.921875 0 
L 10.890625 0 
L 10.890625 47.703125 
L 2.296875 47.703125 
L 2.296875 54.6875 
L 10.890625 54.6875 
L 10.890625 58.5 
Q 10.890625 67.625 15.140625 71.796875 
Q 19.390625 75.984375 28.609375 75.984375 
z
" id="DejaVuSans-102"/>
       <path d="M 9.8125 72.90625 
L 51.703125 72.90625 
L 51.703125 64.59375 
L 19.671875 64.59375 
L 19.671875 43.109375 
L 48.578125 43.109375 
L 48.578125 34.8125 
L 19.671875 34.8125 
L 19.671875 0 
L 9.8125 0 
z
" id="DejaVuSans-70"/>
       <path d="M 45.40625 46.390625 
L 45.40625 75.984375 
L 54.390625 75.984375 
L 54.390625 0 
L 45.40625 0 
L 45.40625 8.203125 
Q 42.578125 3.328125 38.25 0.953125 
Q 33.9375 -1.421875 27.875 -1.421875 
Q 17.96875 -1.421875 11.734375 6.484375 
Q 5.515625 14.40625 5.515625 27.296875 
Q 5.515625 40.1875 11.734375 48.09375 
Q 17.96875 56 27.875 56 
Q 33.9375 56 38.25 53.625 
Q 42.578125 51.265625 45.40625 46.390625 
z
M 14.796875 27.296875 
Q 14.796875 17.390625 18.875 11.75 
Q 22.953125 6.109375 30.078125 6.109375 
Q 37.203125 6.109375 41.296875 11.75 
Q 45.40625 17.390625 45.40625 27.296875 
Q 45.40625 37.203125 41.296875 42.84375 
Q 37.203125 48.484375 30.078125 48.484375 
Q 22.953125 48.484375 18.875 42.84375 
Q 14.796875 37.203125 14.796875 27.296875 
z
" id="DejaVuSans-100"/>
       <path d="M 41.109375 46.296875 
Q 39.59375 47.171875 37.8125 47.578125 
Q 36.03125 48 33.890625 48 
Q 26.265625 48 22.1875 43.046875 
Q 18.109375 38.09375 18.109375 28.8125 
L 18.109375 0 
L 9.078125 0 
L 9.078125 54.6875 
L 18.109375 54.6875 
L 18.109375 46.1875 
Q 20.953125 51.171875 25.484375 53.578125 
Q 30.03125 56 36.53125 56 
Q 37.453125 56 38.578125 55.875 
Q 39.703125 55.765625 41.0625 55.515625 
z
" id="DejaVuSans-114"/>
      </defs>
      <g style="fill:#262626;" transform="translate(190.361094 269.858281)scale(0.11 -0.11)">
       <use xlink:href="#DejaVuSans-77"/>
       <use x="86.279297" xlink:href="#DejaVuSans-111"/>
       <use x="147.460938" xlink:href="#DejaVuSans-116"/>
       <use x="186.669922" xlink:href="#DejaVuSans-105"/>
       <use x="214.453125" xlink:href="#DejaVuSans-102"/>
       <use x="249.658203" xlink:href="#DejaVuSans-70"/>
       <use x="307.068359" xlink:href="#DejaVuSans-105"/>
       <use x="334.851562" xlink:href="#DejaVuSans-110"/>
       <use x="398.230469" xlink:href="#DejaVuSans-100"/>
       <use x="461.707031" xlink:href="#DejaVuSans-101"/>
       <use x="523.230469" xlink:href="#DejaVuSans-114"/>
      </g>
     </g>
    </g>
    <g id="xtick_4">
     <g id="line2d_4">
      <g>
       <use style="fill:#262626;stroke:#262626;stroke-width:1.25;" x="288.36" xlink:href="#m4b915c1ca6" y="252"/>
      </g>
     </g>
     <g id="text_4">
      <!-- Glycan -->
      <defs>
       <path d="M 9.421875 75.984375 
L 18.40625 75.984375 
L 18.40625 0 
L 9.421875 0 
z
" id="DejaVuSans-108"/>
       <path d="M 32.171875 -5.078125 
Q 28.375 -14.84375 24.75 -17.8125 
Q 21.140625 -20.796875 15.09375 -20.796875 
L 7.90625 -20.796875 
L 7.90625 -13.28125 
L 13.1875 -13.28125 
Q 16.890625 -13.28125 18.9375 -11.515625 
Q 21 -9.765625 23.484375 -3.21875 
L 25.09375 0.875 
L 2.984375 54.6875 
L 12.5 54.6875 
L 29.59375 11.921875 
L 46.6875 54.6875 
L 56.203125 54.6875 
z
" id="DejaVuSans-121"/>
       <path d="M 48.78125 52.59375 
L 48.78125 44.1875 
Q 44.96875 46.296875 41.140625 47.34375 
Q 37.3125 48.390625 33.40625 48.390625 
Q 24.65625 48.390625 19.8125 42.84375 
Q 14.984375 37.3125 14.984375 27.296875 
Q 14.984375 17.28125 19.8125 11.734375 
Q 24.65625 6.203125 33.40625 6.203125 
Q 37.3125 6.203125 41.140625 7.25 
Q 44.96875 8.296875 48.78125 10.40625 
L 48.78125 2.09375 
Q 45.015625 0.34375 40.984375 -0.53125 
Q 36.96875 -1.421875 32.421875 -1.421875 
Q 20.0625 -1.421875 12.78125 6.34375 
Q 5.515625 14.109375 5.515625 27.296875 
Q 5.515625 40.671875 12.859375 48.328125 
Q 20.21875 56 33.015625 56 
Q 37.15625 56 41.109375 55.140625 
Q 45.0625 54.296875 48.78125 52.59375 
z
" id="DejaVuSans-99"/>
      </defs>
      <g style="fill:#262626;" transform="translate(269.434844 269.858281)scale(0.11 -0.11)">
       <use xlink:href="#DejaVuSans-71"/>
       <use x="77.490234" xlink:href="#DejaVuSans-108"/>
       <use x="105.273438" xlink:href="#DejaVuSans-121"/>
       <use x="164.453125" xlink:href="#DejaVuSans-99"/>
       <use x="219.433594" xlink:href="#DejaVuSans-97"/>
       <use x="280.712891" xlink:href="#DejaVuSans-110"/>
      </g>
      <!-- Miner Tool -->
      <defs>
       <path id="DejaVuSans-32"/>
       <path d="M -0.296875 72.90625 
L 61.375 72.90625 
L 61.375 64.59375 
L 35.5 64.59375 
L 35.5 0 
L 25.59375 0 
L 25.59375 64.59375 
L -0.296875 64.59375 
z
" id="DejaVuSans-84"/>
      </defs>
      <g style="fill:#262626;" transform="translate(259.604453 282.175875)scale(0.11 -0.11)">
       <use xlink:href="#DejaVuSans-77"/>
       <use x="86.279297" xlink:href="#DejaVuSans-105"/>
       <use x="114.0625" xlink:href="#DejaVuSans-110"/>
       <use x="177.441406" xlink:href="#DejaVuSans-101"/>
       <use x="238.964844" xlink:href="#DejaVuSans-114"/>
       <use x="280.078125" xlink:href="#DejaVuSans-32"/>
       <use x="311.865234" xlink:href="#DejaVuSans-84"/>
       <use x="372.683594" xlink:href="#DejaVuSans-111"/>
       <use x="433.865234" xlink:href="#DejaVuSans-111"/>
       <use x="495.046875" xlink:href="#DejaVuSans-108"/>
      </g>
     </g>
    </g>
    <g id="xtick_5">
     <g id="line2d_5">
      <g>
       <use style="fill:#262626;stroke:#262626;stroke-width:1.25;" x="355.32" xlink:href="#m4b915c1ca6" y="252"/>
      </g>
     </g>
     <g id="text_5">
      <!-- CCARL -->
      <defs>
       <path d="M 64.40625 67.28125 
L 64.40625 56.890625 
Q 59.421875 61.53125 53.78125 63.8125 
Q 48.140625 66.109375 41.796875 66.109375 
Q 29.296875 66.109375 22.65625 58.46875 
Q 16.015625 50.828125 16.015625 36.375 
Q 16.015625 21.96875 22.65625 14.328125 
Q 29.296875 6.6875 41.796875 6.6875 
Q 48.140625 6.6875 53.78125 8.984375 
Q 59.421875 11.28125 64.40625 15.921875 
L 64.40625 5.609375 
Q 59.234375 2.09375 53.4375 0.328125 
Q 47.65625 -1.421875 41.21875 -1.421875 
Q 24.65625 -1.421875 15.125 8.703125 
Q 5.609375 18.84375 5.609375 36.375 
Q 5.609375 53.953125 15.125 64.078125 
Q 24.65625 74.21875 41.21875 74.21875 
Q 47.75 74.21875 53.53125 72.484375 
Q 59.328125 70.75 64.40625 67.28125 
z
" id="DejaVuSans-67"/>
       <path d="M 34.1875 63.1875 
L 20.796875 26.90625 
L 47.609375 26.90625 
z
M 28.609375 72.90625 
L 39.796875 72.90625 
L 67.578125 0 
L 57.328125 0 
L 50.6875 18.703125 
L 17.828125 18.703125 
L 11.1875 0 
L 0.78125 0 
z
" id="DejaVuSans-65"/>
      </defs>
      <g style="fill:#262626;" transform="translate(336.990391 269.858281)scale(0.11 -0.11)">
       <use xlink:href="#DejaVuSans-67"/>
       <use x="69.824219" xlink:href="#DejaVuSans-67"/>
       <use x="139.648438" xlink:href="#DejaVuSans-65"/>
       <use x="208.056641" xlink:href="#DejaVuSans-82"/>
       <use x="277.539062" xlink:href="#DejaVuSans-76"/>
      </g>
     </g>
    </g>
   </g>
   <g id="matplotlib.axis_2">
    <g id="ytick_1">
     <g id="line2d_6">
      <defs>
       <path d="M 0 0 
L -6 0 
" id="m15d6371d5e" style="stroke:#262626;stroke-width:1.25;"/>
      </defs>
      <g>
       <use style="fill:#262626;stroke:#262626;stroke-width:1.25;" x="54" xlink:href="#m15d6371d5e" y="252"/>
      </g>
     </g>
     <g id="text_6">
      <!-- 0.5 -->
      <defs>
       <path d="M 31.78125 66.40625 
Q 24.171875 66.40625 20.328125 58.90625 
Q 16.5 51.421875 16.5 36.375 
Q 16.5 21.390625 20.328125 13.890625 
Q 24.171875 6.390625 31.78125 6.390625 
Q 39.453125 6.390625 43.28125 13.890625 
Q 47.125 21.390625 47.125 36.375 
Q 47.125 51.421875 43.28125 58.90625 
Q 39.453125 66.40625 31.78125 66.40625 
z
M 31.78125 74.21875 
Q 44.046875 74.21875 50.515625 64.515625 
Q 56.984375 54.828125 56.984375 36.375 
Q 56.984375 17.96875 50.515625 8.265625 
Q 44.046875 -1.421875 31.78125 -1.421875 
Q 19.53125 -1.421875 13.0625 8.265625 
Q 6.59375 17.96875 6.59375 36.375 
Q 6.59375 54.828125 13.0625 64.515625 
Q 19.53125 74.21875 31.78125 74.21875 
z
" id="DejaVuSans-48"/>
       <path d="M 10.6875 12.40625 
L 21 12.40625 
L 21 0 
L 10.6875 0 
z
" id="DejaVuSans-46"/>
       <path d="M 10.796875 72.90625 
L 49.515625 72.90625 
L 49.515625 64.59375 
L 19.828125 64.59375 
L 19.828125 46.734375 
Q 21.96875 47.46875 24.109375 47.828125 
Q 26.265625 48.1875 28.421875 48.1875 
Q 40.625 48.1875 47.75 41.5 
Q 54.890625 34.8125 54.890625 23.390625 
Q 54.890625 11.625 47.5625 5.09375 
Q 40.234375 -1.421875 26.90625 -1.421875 
Q 22.3125 -1.421875 17.546875 -0.640625 
Q 12.796875 0.140625 7.71875 1.703125 
L 7.71875 11.625 
Q 12.109375 9.234375 16.796875 8.0625 
Q 21.484375 6.890625 26.703125 6.890625 
Q 35.15625 6.890625 40.078125 11.328125 
Q 45.015625 15.765625 45.015625 23.390625 
Q 45.015625 31 40.078125 35.4375 
Q 35.15625 39.890625 26.703125 39.890625 
Q 22.75 39.890625 18.8125 39.015625 
Q 14.890625 38.140625 10.796875 36.28125 
z
" id="DejaVuSans-53"/>
      </defs>
      <g style="fill:#262626;" transform="translate(27.006563 256.179141)scale(0.11 -0.11)">
       <use xlink:href="#DejaVuSans-48"/>
       <use x="63.623047" xlink:href="#DejaVuSans-46"/>
       <use x="95.410156" xlink:href="#DejaVuSans-53"/>
      </g>
     </g>
    </g>
    <g id="ytick_2">
     <g id="line2d_7">
      <g>
       <use style="fill:#262626;stroke:#262626;stroke-width:1.25;" x="54" xlink:href="#m15d6371d5e" y="212.465455"/>
      </g>
     </g>
     <g id="text_7">
      <!-- 0.6 -->
      <defs>
       <path d="M 33.015625 40.375 
Q 26.375 40.375 22.484375 35.828125 
Q 18.609375 31.296875 18.609375 23.390625 
Q 18.609375 15.53125 22.484375 10.953125 
Q 26.375 6.390625 33.015625 6.390625 
Q 39.65625 6.390625 43.53125 10.953125 
Q 47.40625 15.53125 47.40625 23.390625 
Q 47.40625 31.296875 43.53125 35.828125 
Q 39.65625 40.375 33.015625 40.375 
z
M 52.59375 71.296875 
L 52.59375 62.3125 
Q 48.875 64.0625 45.09375 64.984375 
Q 41.3125 65.921875 37.59375 65.921875 
Q 27.828125 65.921875 22.671875 59.328125 
Q 17.53125 52.734375 16.796875 39.40625 
Q 19.671875 43.65625 24.015625 45.921875 
Q 28.375 48.1875 33.59375 48.1875 
Q 44.578125 48.1875 50.953125 41.515625 
Q 57.328125 34.859375 57.328125 23.390625 
Q 57.328125 12.15625 50.6875 5.359375 
Q 44.046875 -1.421875 33.015625 -1.421875 
Q 20.359375 -1.421875 13.671875 8.265625 
Q 6.984375 17.96875 6.984375 36.375 
Q 6.984375 53.65625 15.1875 63.9375 
Q 23.390625 74.21875 37.203125 74.21875 
Q 40.921875 74.21875 44.703125 73.484375 
Q 48.484375 72.75 52.59375 71.296875 
z
" id="DejaVuSans-54"/>
      </defs>
      <g style="fill:#262626;" transform="translate(27.006563 216.644595)scale(0.11 -0.11)">
       <use xlink:href="#DejaVuSans-48"/>
       <use x="63.623047" xlink:href="#DejaVuSans-46"/>
       <use x="95.410156" xlink:href="#DejaVuSans-54"/>
      </g>
     </g>
    </g>
    <g id="ytick_3">
     <g id="line2d_8">
      <g>
       <use style="fill:#262626;stroke:#262626;stroke-width:1.25;" x="54" xlink:href="#m15d6371d5e" y="172.930909"/>
      </g>
     </g>
     <g id="text_8">
      <!-- 0.7 -->
      <defs>
       <path d="M 8.203125 72.90625 
L 55.078125 72.90625 
L 55.078125 68.703125 
L 28.609375 0 
L 18.3125 0 
L 43.21875 64.59375 
L 8.203125 64.59375 
z
" id="DejaVuSans-55"/>
      </defs>
      <g style="fill:#262626;" transform="translate(27.006563 177.11005)scale(0.11 -0.11)">
       <use xlink:href="#DejaVuSans-48"/>
       <use x="63.623047" xlink:href="#DejaVuSans-46"/>
       <use x="95.410156" xlink:href="#DejaVuSans-55"/>
      </g>
     </g>
    </g>
    <g id="ytick_4">
     <g id="line2d_9">
      <g>
       <use style="fill:#262626;stroke:#262626;stroke-width:1.25;" x="54" xlink:href="#m15d6371d5e" y="133.396364"/>
      </g>
     </g>
     <g id="text_9">
      <!-- 0.8 -->
      <defs>
       <path d="M 31.78125 34.625 
Q 24.75 34.625 20.71875 30.859375 
Q 16.703125 27.09375 16.703125 20.515625 
Q 16.703125 13.921875 20.71875 10.15625 
Q 24.75 6.390625 31.78125 6.390625 
Q 38.8125 6.390625 42.859375 10.171875 
Q 46.921875 13.96875 46.921875 20.515625 
Q 46.921875 27.09375 42.890625 30.859375 
Q 38.875 34.625 31.78125 34.625 
z
M 21.921875 38.8125 
Q 15.578125 40.375 12.03125 44.71875 
Q 8.5 49.078125 8.5 55.328125 
Q 8.5 64.0625 14.71875 69.140625 
Q 20.953125 74.21875 31.78125 74.21875 
Q 42.671875 74.21875 48.875 69.140625 
Q 55.078125 64.0625 55.078125 55.328125 
Q 55.078125 49.078125 51.53125 44.71875 
Q 48 40.375 41.703125 38.8125 
Q 48.828125 37.15625 52.796875 32.3125 
Q 56.78125 27.484375 56.78125 20.515625 
Q 56.78125 9.90625 50.3125 4.234375 
Q 43.84375 -1.421875 31.78125 -1.421875 
Q 19.734375 -1.421875 13.25 4.234375 
Q 6.78125 9.90625 6.78125 20.515625 
Q 6.78125 27.484375 10.78125 32.3125 
Q 14.796875 37.15625 21.921875 38.8125 
z
M 18.3125 54.390625 
Q 18.3125 48.734375 21.84375 45.5625 
Q 25.390625 42.390625 31.78125 42.390625 
Q 38.140625 42.390625 41.71875 45.5625 
Q 45.3125 48.734375 45.3125 54.390625 
Q 45.3125 60.0625 41.71875 63.234375 
Q 38.140625 66.40625 31.78125 66.40625 
Q 25.390625 66.40625 21.84375 63.234375 
Q 18.3125 60.0625 18.3125 54.390625 
z
" id="DejaVuSans-56"/>
      </defs>
      <g style="fill:#262626;" transform="translate(27.006563 137.575504)scale(0.11 -0.11)">
       <use xlink:href="#DejaVuSans-48"/>
       <use x="63.623047" xlink:href="#DejaVuSans-46"/>
       <use x="95.410156" xlink:href="#DejaVuSans-56"/>
      </g>
     </g>
    </g>
    <g id="ytick_5">
     <g id="line2d_10">
      <g>
       <use style="fill:#262626;stroke:#262626;stroke-width:1.25;" x="54" xlink:href="#m15d6371d5e" y="93.861818"/>
      </g>
     </g>
     <g id="text_10">
      <!-- 0.9 -->
      <defs>
       <path d="M 10.984375 1.515625 
L 10.984375 10.5 
Q 14.703125 8.734375 18.5 7.8125 
Q 22.3125 6.890625 25.984375 6.890625 
Q 35.75 6.890625 40.890625 13.453125 
Q 46.046875 20.015625 46.78125 33.40625 
Q 43.953125 29.203125 39.59375 26.953125 
Q 35.25 24.703125 29.984375 24.703125 
Q 19.046875 24.703125 12.671875 31.3125 
Q 6.296875 37.9375 6.296875 49.421875 
Q 6.296875 60.640625 12.9375 67.421875 
Q 19.578125 74.21875 30.609375 74.21875 
Q 43.265625 74.21875 49.921875 64.515625 
Q 56.59375 54.828125 56.59375 36.375 
Q 56.59375 19.140625 48.40625 8.859375 
Q 40.234375 -1.421875 26.421875 -1.421875 
Q 22.703125 -1.421875 18.890625 -0.6875 
Q 15.09375 0.046875 10.984375 1.515625 
z
M 30.609375 32.421875 
Q 37.25 32.421875 41.125 36.953125 
Q 45.015625 41.5 45.015625 49.421875 
Q 45.015625 57.28125 41.125 61.84375 
Q 37.25 66.40625 30.609375 66.40625 
Q 23.96875 66.40625 20.09375 61.84375 
Q 16.21875 57.28125 16.21875 49.421875 
Q 16.21875 41.5 20.09375 36.953125 
Q 23.96875 32.421875 30.609375 32.421875 
z
" id="DejaVuSans-57"/>
      </defs>
      <g style="fill:#262626;" transform="translate(27.006563 98.040959)scale(0.11 -0.11)">
       <use xlink:href="#DejaVuSans-48"/>
       <use x="63.623047" xlink:href="#DejaVuSans-46"/>
       <use x="95.410156" xlink:href="#DejaVuSans-57"/>
      </g>
     </g>
    </g>
    <g id="ytick_6">
     <g id="line2d_11">
      <g>
       <use style="fill:#262626;stroke:#262626;stroke-width:1.25;" x="54" xlink:href="#m15d6371d5e" y="54.327273"/>
      </g>
     </g>
     <g id="text_11">
      <!-- 1.0 -->
      <defs>
       <path d="M 12.40625 8.296875 
L 28.515625 8.296875 
L 28.515625 63.921875 
L 10.984375 60.40625 
L 10.984375 69.390625 
L 28.421875 72.90625 
L 38.28125 72.90625 
L 38.28125 8.296875 
L 54.390625 8.296875 
L 54.390625 0 
L 12.40625 0 
z
" id="DejaVuSans-49"/>
      </defs>
      <g style="fill:#262626;" transform="translate(27.006563 58.506413)scale(0.11 -0.11)">
       <use xlink:href="#DejaVuSans-49"/>
       <use x="63.623047" xlink:href="#DejaVuSans-46"/>
       <use x="95.410156" xlink:href="#DejaVuSans-48"/>
      </g>
     </g>
    </g>
    <g id="text_12">
     <!-- AUC -->
     <defs>
      <path d="M 8.6875 72.90625 
L 18.609375 72.90625 
L 18.609375 28.609375 
Q 18.609375 16.890625 22.84375 11.734375 
Q 27.09375 6.59375 36.625 6.59375 
Q 46.09375 6.59375 50.34375 11.734375 
Q 54.59375 16.890625 54.59375 28.609375 
L 54.59375 72.90625 
L 64.5 72.90625 
L 64.5 27.390625 
Q 64.5 13.140625 57.4375 5.859375 
Q 50.390625 -1.421875 36.625 -1.421875 
Q 22.796875 -1.421875 15.734375 5.859375 
Q 8.6875 13.140625 8.6875 27.390625 
z
" id="DejaVuSans-85"/>
     </defs>
     <g style="fill:#262626;" transform="translate(20.510938 155.965313)rotate(-90)scale(0.12 -0.12)">
      <use xlink:href="#DejaVuSans-65"/>
      <use x="68.408203" xlink:href="#DejaVuSans-85"/>
      <use x="141.601562" xlink:href="#DejaVuSans-67"/>
     </g>
    </g>
   </g>
   <g id="PolyCollection_1">
    <defs>
     <path d="M 87.676232 -5.165083 
L 87.283768 -5.165083 
L 87.231294 -7.802387 
L 87.167866 -10.43969 
L 87.091994 -13.076994 
L 87.002151 -15.714298 
L 86.896808 -18.351602 
L 86.774459 -20.988905 
L 86.633656 -23.626209 
L 86.473044 -26.263513 
L 86.291391 -28.900817 
L 86.08762 -31.53812 
L 85.860849 -34.175424 
L 85.610421 -36.812728 
L 85.335943 -39.450032 
L 85.037329 -42.087336 
L 84.714841 -44.724639 
L 84.369138 -47.361943 
L 84.001315 -49.999247 
L 83.612949 -52.636551 
L 83.206133 -55.273854 
L 82.783489 -57.911158 
L 82.348177 -60.548462 
L 81.903868 -63.185766 
L 81.454692 -65.823069 
L 81.005163 -68.460373 
L 80.560066 -71.097677 
L 80.124318 -73.734981 
L 79.702807 -76.372284 
L 79.300214 -79.009588 
L 78.920831 -81.646892 
L 78.568374 -84.284196 
L 78.245823 -86.921499 
L 77.955274 -89.558803 
L 77.697842 -92.196107 
L 77.473599 -94.833411 
L 77.281578 -97.470714 
L 77.119828 -100.108018 
L 76.98554 -102.745322 
L 76.875225 -105.382626 
L 76.784956 -108.019929 
L 76.710648 -110.657233 
L 76.648363 -113.294537 
L 76.594634 -115.931841 
L 76.546758 -118.569145 
L 76.503068 -121.206448 
L 76.463124 -123.843752 
L 76.427829 -126.481056 
L 76.399444 -129.11836 
L 76.381491 -131.755663 
L 76.378549 -134.392967 
L 76.395951 -137.030271 
L 76.439402 -139.667575 
L 76.514546 -142.304878 
L 76.626515 -144.942182 
L 76.779497 -147.579486 
L 76.976354 -150.21679 
L 77.218334 -152.854093 
L 77.504882 -155.491397 
L 77.833583 -158.128701 
L 78.200237 -160.766005 
L 78.599048 -163.403308 
L 79.022931 -166.040612 
L 79.463896 -168.677916 
L 79.913485 -171.31522 
L 80.363233 -173.952523 
L 80.80511 -176.589827 
L 81.231923 -179.227131 
L 81.637648 -181.864435 
L 82.017669 -184.501738 
L 82.368928 -187.139042 
L 82.689955 -189.776346 
L 82.980811 -192.41365 
L 83.242939 -195.050954 
L 83.478936 -197.688257 
L 83.692278 -200.325561 
L 83.887013 -202.962865 
L 84.067442 -205.600169 
L 84.237819 -208.237472 
L 84.40208 -210.874776 
L 84.563618 -213.51208 
L 84.725122 -216.149384 
L 84.888476 -218.786687 
L 85.054725 -221.423991 
L 85.224099 -224.061295 
L 85.396097 -226.698599 
L 85.569597 -229.335902 
L 85.743016 -231.973206 
L 85.914465 -234.61051 
L 86.081917 -237.247814 
L 86.243361 -239.885117 
L 86.396932 -242.522421 
L 86.541023 -245.159725 
L 86.674358 -247.797029 
L 86.796034 -250.434332 
L 86.905538 -253.071636 
L 87.002733 -255.70894 
L 87.087822 -258.346244 
L 87.161301 -260.983547 
L 87.223896 -263.620851 
L 87.276506 -266.258155 
L 87.683494 -266.258155 
L 87.683494 -266.258155 
L 87.736104 -263.620851 
L 87.798699 -260.983547 
L 87.872178 -258.346244 
L 87.957267 -255.70894 
L 88.054462 -253.071636 
L 88.163966 -250.434332 
L 88.285642 -247.797029 
L 88.418977 -245.159725 
L 88.563068 -242.522421 
L 88.716639 -239.885117 
L 88.878083 -237.247814 
L 89.045535 -234.61051 
L 89.216984 -231.973206 
L 89.390403 -229.335902 
L 89.563903 -226.698599 
L 89.735901 -224.061295 
L 89.905275 -221.423991 
L 90.071524 -218.786687 
L 90.234878 -216.149384 
L 90.396382 -213.51208 
L 90.55792 -210.874776 
L 90.722181 -208.237472 
L 90.892558 -205.600169 
L 91.072987 -202.962865 
L 91.267722 -200.325561 
L 91.481064 -197.688257 
L 91.717061 -195.050954 
L 91.979189 -192.41365 
L 92.270045 -189.776346 
L 92.591072 -187.139042 
L 92.942331 -184.501738 
L 93.322352 -181.864435 
L 93.728077 -179.227131 
L 94.15489 -176.589827 
L 94.596767 -173.952523 
L 95.046515 -171.31522 
L 95.496104 -168.677916 
L 95.937069 -166.040612 
L 96.360952 -163.403308 
L 96.759763 -160.766005 
L 97.126417 -158.128701 
L 97.455118 -155.491397 
L 97.741666 -152.854093 
L 97.983646 -150.21679 
L 98.180503 -147.579486 
L 98.333485 -144.942182 
L 98.445454 -142.304878 
L 98.520598 -139.667575 
L 98.564049 -137.030271 
L 98.581451 -134.392967 
L 98.578509 -131.755663 
L 98.560556 -129.11836 
L 98.532171 -126.481056 
L 98.496876 -123.843752 
L 98.456932 -121.206448 
L 98.413242 -118.569145 
L 98.365366 -115.931841 
L 98.311637 -113.294537 
L 98.249352 -110.657233 
L 98.175044 -108.019929 
L 98.084775 -105.382626 
L 97.97446 -102.745322 
L 97.840172 -100.108018 
L 97.678422 -97.470714 
L 97.486401 -94.833411 
L 97.262158 -92.196107 
L 97.004726 -89.558803 
L 96.714177 -86.921499 
L 96.391626 -84.284196 
L 96.039169 -81.646892 
L 95.659786 -79.009588 
L 95.257193 -76.372284 
L 94.835682 -73.734981 
L 94.399934 -71.097677 
L 93.954837 -68.460373 
L 93.505308 -65.823069 
L 93.056132 -63.185766 
L 92.611823 -60.548462 
L 92.176511 -57.911158 
L 91.753867 -55.273854 
L 91.347051 -52.636551 
L 90.958685 -49.999247 
L 90.590862 -47.361943 
L 90.245159 -44.724639 
L 89.922671 -42.087336 
L 89.624057 -39.450032 
L 89.349579 -36.812728 
L 89.099151 -34.175424 
L 88.87238 -31.53812 
L 88.668609 -28.900817 
L 88.486956 -26.263513 
L 88.326344 -23.626209 
L 88.185541 -20.988905 
L 88.063192 -18.351602 
L 87.957849 -15.714298 
L 87.868006 -13.076994 
L 87.792134 -10.43969 
L 87.728706 -7.802387 
L 87.676232 -5.165083 
z
" id="m4d72fd4ac4" style="stroke:#4c4c4c;stroke-width:1.5;"/>
    </defs>
    <g clip-path="url(#pca9ebe0068)">
     <use style="fill:#5875a4;stroke:#4c4c4c;stroke-width:1.5;" x="0" xlink:href="#m4d72fd4ac4" y="288"/>
    </g>
   </g>
   <g id="PolyCollection_2">
    <defs>
     <path d="M 154.63719 -28.742206 
L 154.24281 -28.742206 
L 154.192193 -31.066681 
L 154.132702 -33.391156 
L 154.063935 -35.715631 
L 153.985773 -38.040106 
L 153.898434 -40.364581 
L 153.802501 -42.689056 
L 153.698938 -45.013531 
L 153.589056 -47.338006 
L 153.474452 -49.662481 
L 153.35691 -51.986956 
L 153.238256 -54.311431 
L 153.1202 -56.635906 
L 153.00415 -58.960381 
L 152.891029 -61.284856 
L 152.781107 -63.609331 
L 152.673862 -65.933806 
L 152.567898 -68.258281 
L 152.460912 -70.582756 
L 152.349737 -72.907231 
L 152.230447 -75.231706 
L 152.098531 -77.556181 
L 151.949118 -79.880656 
L 151.777231 -82.205131 
L 151.578066 -84.529605 
L 151.34727 -86.85408 
L 151.081187 -89.178555 
L 150.777082 -91.50303 
L 150.433308 -93.827505 
L 150.049424 -96.15198 
L 149.626255 -98.476455 
L 149.165897 -100.80093 
L 148.671669 -103.125405 
L 148.148024 -105.44988 
L 147.600411 -107.774355 
L 147.035104 -110.09883 
L 146.458996 -112.423305 
L 145.879363 -114.74778 
L 145.303613 -117.072255 
L 144.739015 -119.39673 
L 144.19243 -121.721205 
L 143.670058 -124.04568 
L 143.177218 -126.370155 
L 142.718179 -128.69463 
L 142.296064 -131.019105 
L 141.912838 -133.34358 
L 141.569378 -135.668055 
L 141.26564 -137.99253 
L 141.000891 -140.317005 
L 140.773999 -142.64148 
L 140.583739 -144.965955 
L 140.429088 -147.29043 
L 140.309478 -149.614905 
L 140.224962 -151.93938 
L 140.176299 -154.263855 
L 140.164919 -156.58833 
L 140.19279 -158.912805 
L 140.262195 -161.23728 
L 140.375445 -163.561755 
L 140.53456 -165.88623 
L 140.74095 -168.210705 
L 140.995135 -170.53518 
L 141.296529 -172.859655 
L 141.643315 -175.18413 
L 142.032411 -177.508605 
L 142.459544 -179.83308 
L 142.919413 -182.157555 
L 143.405933 -184.48203 
L 143.912529 -186.806505 
L 144.432463 -189.13098 
L 144.95916 -191.455455 
L 145.486514 -193.77993 
L 146.009136 -196.104405 
L 146.522544 -198.42888 
L 147.02327 -200.753355 
L 147.508887 -203.07783 
L 147.97795 -205.402305 
L 148.42987 -207.72678 
L 148.864736 -210.051255 
L 149.283099 -212.37573 
L 149.685747 -214.700205 
L 150.07349 -217.02468 
L 150.446984 -219.349155 
L 150.806587 -221.67363 
L 151.152287 -223.998105 
L 151.48368 -226.32258 
L 151.800006 -228.647055 
L 152.100233 -230.97153 
L 152.383169 -233.296005 
L 152.647593 -235.62048 
L 152.892391 -237.944955 
L 153.116674 -240.26943 
L 153.31987 -242.593905 
L 153.50179 -244.91838 
L 153.662654 -247.242855 
L 153.803087 -249.56733 
L 153.924081 -251.891805 
L 154.026935 -254.21628 
L 154.113186 -256.540755 
L 154.184524 -258.86523 
L 154.695476 -258.86523 
L 154.695476 -258.86523 
L 154.766814 -256.540755 
L 154.853065 -254.21628 
L 154.955919 -251.891805 
L 155.076913 -249.56733 
L 155.217346 -247.242855 
L 155.37821 -244.91838 
L 155.56013 -242.593905 
L 155.763326 -240.26943 
L 155.987609 -237.944955 
L 156.232407 -235.62048 
L 156.496831 -233.296005 
L 156.779767 -230.97153 
L 157.079994 -228.647055 
L 157.39632 -226.32258 
L 157.727713 -223.998105 
L 158.073413 -221.67363 
L 158.433016 -219.349155 
L 158.80651 -217.02468 
L 159.194253 -214.700205 
L 159.596901 -212.37573 
L 160.015264 -210.051255 
L 160.45013 -207.72678 
L 160.90205 -205.402305 
L 161.371113 -203.07783 
L 161.85673 -200.753355 
L 162.357456 -198.42888 
L 162.870864 -196.104405 
L 163.393486 -193.77993 
L 163.92084 -191.455455 
L 164.447537 -189.13098 
L 164.967471 -186.806505 
L 165.474067 -184.48203 
L 165.960587 -182.157555 
L 166.420456 -179.83308 
L 166.847589 -177.508605 
L 167.236685 -175.18413 
L 167.583471 -172.859655 
L 167.884865 -170.53518 
L 168.13905 -168.210705 
L 168.34544 -165.88623 
L 168.504555 -163.561755 
L 168.617805 -161.23728 
L 168.68721 -158.912805 
L 168.715081 -156.58833 
L 168.703701 -154.263855 
L 168.655038 -151.93938 
L 168.570522 -149.614905 
L 168.450912 -147.29043 
L 168.296261 -144.965955 
L 168.106001 -142.64148 
L 167.879109 -140.317005 
L 167.61436 -137.99253 
L 167.310622 -135.668055 
L 166.967162 -133.34358 
L 166.583936 -131.019105 
L 166.161821 -128.69463 
L 165.702782 -126.370155 
L 165.209942 -124.04568 
L 164.68757 -121.721205 
L 164.140985 -119.39673 
L 163.576387 -117.072255 
L 163.000637 -114.74778 
L 162.421004 -112.423305 
L 161.844896 -110.09883 
L 161.279589 -107.774355 
L 160.731976 -105.44988 
L 160.208331 -103.125405 
L 159.714103 -100.80093 
L 159.253745 -98.476455 
L 158.830576 -96.15198 
L 158.446692 -93.827505 
L 158.102918 -91.50303 
L 157.798813 -89.178555 
L 157.53273 -86.85408 
L 157.301934 -84.529605 
L 157.102769 -82.205131 
L 156.930882 -79.880656 
L 156.781469 -77.556181 
L 156.649553 -75.231706 
L 156.530263 -72.907231 
L 156.419088 -70.582756 
L 156.312102 -68.258281 
L 156.206138 -65.933806 
L 156.098893 -63.609331 
L 155.988971 -61.284856 
L 155.87585 -58.960381 
L 155.7598 -56.635906 
L 155.641744 -54.311431 
L 155.52309 -51.986956 
L 155.405548 -49.662481 
L 155.290944 -47.338006 
L 155.181062 -45.013531 
L 155.077499 -42.689056 
L 154.981566 -40.364581 
L 154.894227 -38.040106 
L 154.816065 -35.715631 
L 154.747298 -33.391156 
L 154.687807 -31.066681 
L 154.63719 -28.742206 
z
" id="mb8c59733f5" style="stroke:#4c4c4c;stroke-width:1.5;"/>
    </defs>
    <g clip-path="url(#pca9ebe0068)">
     <use style="fill:#cc8963;stroke:#4c4c4c;stroke-width:1.5;" x="0" xlink:href="#mb8c59733f5" y="288"/>
    </g>
   </g>
   <g id="PolyCollection_3">
    <path clip-path="url(#pca9ebe0068)" d="M 221.570602 312.865621 
L 221.229398 312.865621 
L 221.18888 309.851055 
L 221.141157 306.836489 
L 221.085553 303.821924 
L 221.021467 300.807358 
L 220.948396 297.792792 
L 220.865971 294.778227 
L 220.77398 291.763661 
L 220.672389 288.749095 
L 220.561355 285.734529 
L 220.441227 282.719964 
L 220.312545 279.705398 
L 220.176012 276.690832 
L 220.032469 273.676266 
L 219.882857 270.661701 
L 219.728162 267.647135 
L 219.569372 264.632569 
L 219.40742 261.618003 
L 219.243138 258.603438 
L 219.077217 255.588872 
L 218.910182 252.574306 
L 218.742375 249.559741 
L 218.573966 246.545175 
L 218.404967 243.530609 
L 218.235272 240.516043 
L 218.064706 237.501478 
L 217.893078 234.486912 
L 217.720245 231.472346 
L 217.546162 228.45778 
L 217.370937 225.443215 
L 217.194856 222.428649 
L 217.018405 219.414083 
L 216.842266 216.399517 
L 216.667286 213.384952 
L 216.494437 210.370386 
L 216.324756 207.35582 
L 216.159268 204.341254 
L 215.998909 201.326689 
L 215.844448 198.312123 
L 215.696407 195.297557 
L 215.555008 192.282992 
L 215.420122 189.268426 
L 215.291248 186.25386 
L 215.167516 183.239294 
L 215.047707 180.224729 
L 214.930308 177.210163 
L 214.813582 174.195597 
L 214.695658 171.181031 
L 214.574638 168.166466 
L 214.448711 165.1519 
L 214.316269 162.137334 
L 214.176022 159.122768 
L 214.027098 156.108203 
L 213.869138 153.093637 
L 213.702354 150.079071 
L 213.527578 147.064506 
L 213.346279 144.04994 
L 213.160547 141.035374 
L 212.973061 138.020808 
L 212.787021 135.006243 
L 212.606073 131.991677 
L 212.434202 128.977111 
L 212.275626 125.962545 
L 212.134675 122.94798 
L 212.015669 119.933414 
L 211.922801 116.918848 
L 211.860016 113.904282 
L 211.830905 110.889717 
L 211.8386 107.875151 
L 211.885683 104.860585 
L 211.9741 101.84602 
L 212.105093 98.831454 
L 212.279139 95.816888 
L 212.495911 92.802322 
L 212.754249 89.787757 
L 213.052159 86.773191 
L 213.386834 83.758625 
L 213.754693 80.744059 
L 214.15146 77.729494 
L 214.572258 74.714928 
L 215.011733 71.700362 
L 215.464197 68.685796 
L 215.923786 65.671231 
L 216.384631 62.656665 
L 216.841021 59.642099 
L 217.28757 56.627534 
L 217.719357 53.612968 
L 218.132056 50.598402 
L 218.522025 47.583836 
L 218.886378 44.569271 
L 219.223009 41.554705 
L 219.530594 38.540139 
L 219.808555 35.525573 
L 220.057006 32.511008 
L 220.276669 29.496442 
L 220.468779 26.481876 
L 220.634981 23.46731 
L 220.777225 20.452745 
L 220.897659 17.438179 
L 220.998538 14.423613 
L 221.801462 14.423613 
L 221.801462 14.423613 
L 221.902341 17.438179 
L 222.022775 20.452745 
L 222.165019 23.46731 
L 222.331221 26.481876 
L 222.523331 29.496442 
L 222.742994 32.511008 
L 222.991445 35.525573 
L 223.269406 38.540139 
L 223.576991 41.554705 
L 223.913622 44.569271 
L 224.277975 47.583836 
L 224.667944 50.598402 
L 225.080643 53.612968 
L 225.51243 56.627534 
L 225.958979 59.642099 
L 226.415369 62.656665 
L 226.876214 65.671231 
L 227.335803 68.685796 
L 227.788267 71.700362 
L 228.227742 74.714928 
L 228.64854 77.729494 
L 229.045307 80.744059 
L 229.413166 83.758625 
L 229.747841 86.773191 
L 230.045751 89.787757 
L 230.304089 92.802322 
L 230.520861 95.816888 
L 230.694907 98.831454 
L 230.8259 101.84602 
L 230.914317 104.860585 
L 230.9614 107.875151 
L 230.969095 110.889717 
L 230.939984 113.904282 
L 230.877199 116.918848 
L 230.784331 119.933414 
L 230.665325 122.94798 
L 230.524374 125.962545 
L 230.365798 128.977111 
L 230.193927 131.991677 
L 230.012979 135.006243 
L 229.826939 138.020808 
L 229.639453 141.035374 
L 229.453721 144.04994 
L 229.272422 147.064506 
L 229.097646 150.079071 
L 228.930862 153.093637 
L 228.772902 156.108203 
L 228.623978 159.122768 
L 228.483731 162.137334 
L 228.351289 165.1519 
L 228.225362 168.166466 
L 228.104342 171.181031 
L 227.986418 174.195597 
L 227.869692 177.210163 
L 227.752293 180.224729 
L 227.632484 183.239294 
L 227.508752 186.25386 
L 227.379878 189.268426 
L 227.244992 192.282992 
L 227.103593 195.297557 
L 226.955552 198.312123 
L 226.801091 201.326689 
L 226.640732 204.341254 
L 226.475244 207.35582 
L 226.305563 210.370386 
L 226.132714 213.384952 
L 225.957734 216.399517 
L 225.781595 219.414083 
L 225.605144 222.428649 
L 225.429063 225.443215 
L 225.253838 228.45778 
L 225.079755 231.472346 
L 224.906922 234.486912 
L 224.735294 237.501478 
L 224.564728 240.516043 
L 224.395033 243.530609 
L 224.226034 246.545175 
L 224.057625 249.559741 
L 223.889818 252.574306 
L 223.722783 255.588872 
L 223.556862 258.603438 
L 223.39258 261.618003 
L 223.230628 264.632569 
L 223.071838 267.647135 
L 222.917143 270.661701 
L 222.767531 273.676266 
L 222.623988 276.690832 
L 222.487455 279.705398 
L 222.358773 282.719964 
L 222.238645 285.734529 
L 222.127611 288.749095 
L 222.02602 291.763661 
L 221.934029 294.778227 
L 221.851604 297.792792 
L 221.778533 300.807358 
L 221.714447 303.821924 
L 221.658843 306.836489 
L 221.61112 309.851055 
L 221.570602 312.865621 
z
" style="fill:#5f9e6e;stroke:#4c4c4c;stroke-width:1.5;"/>
   </g>
   <g id="PolyCollection_4">
    <defs>
     <path d="M 288.678384 -99.120812 
L 288.041616 -99.120812 
L 287.959005 -100.575187 
L 287.861879 -102.029561 
L 287.749676 -103.483935 
L 287.622352 -104.93831 
L 287.480496 -106.392684 
L 287.325393 -107.847059 
L 287.159057 -109.301433 
L 286.984202 -110.755807 
L 286.804155 -112.210182 
L 286.622698 -113.664556 
L 286.443859 -115.118931 
L 286.27165 -116.573305 
L 286.109779 -118.027679 
L 285.961356 -119.482054 
L 285.828626 -120.936428 
L 285.712744 -122.390803 
L 285.613625 -123.845177 
L 285.529875 -125.299552 
L 285.458815 -126.753926 
L 285.396583 -128.2083 
L 285.338313 -129.662675 
L 285.278344 -131.117049 
L 285.210456 -132.571424 
L 285.128083 -134.025798 
L 285.024478 -135.480172 
L 284.89283 -136.934547 
L 284.726304 -138.388921 
L 284.518026 -139.843296 
L 284.261032 -141.29767 
L 283.948208 -142.752044 
L 283.572268 -144.206419 
L 283.125795 -145.660793 
L 282.6014 -147.115168 
L 281.992 -148.569542 
L 281.291242 -150.023916 
L 280.494035 -151.478291 
L 279.597195 -152.932665 
L 278.600111 -154.38704 
L 277.505406 -155.841414 
L 276.319496 -157.295788 
L 275.052989 -158.750163 
L 273.720868 -160.204537 
L 272.342392 -161.658912 
L 270.940716 -163.113286 
L 269.542207 -164.56766 
L 268.175502 -166.022035 
L 266.870346 -167.476409 
L 265.656293 -168.930784 
L 264.561361 -170.385158 
L 263.610717 -171.839532 
L 262.825507 -173.293907 
L 262.221908 -174.748281 
L 261.810443 -176.202656 
L 261.59564 -177.65703 
L 261.576 -179.111405 
L 261.744304 -180.565779 
L 262.088184 -182.020153 
L 262.590923 -183.474528 
L 263.232404 -184.928902 
L 263.99014 -186.383277 
L 264.840313 -187.837651 
L 265.758768 -189.292025 
L 266.721912 -190.7464 
L 267.707501 -192.200774 
L 268.695291 -193.655149 
L 269.667559 -195.109523 
L 270.609502 -196.563897 
L 271.509511 -198.018272 
L 272.359341 -199.472646 
L 273.15416 -200.927021 
L 273.892489 -202.381395 
L 274.576012 -203.835769 
L 275.20926 -205.290144 
L 275.79916 -206.744518 
L 276.35446 -208.198893 
L 276.885055 -209.653267 
L 277.401242 -211.107641 
L 277.91295 -212.562016 
L 278.42902 -214.01639 
L 278.956555 -215.470765 
L 279.500432 -216.925139 
L 280.06299 -218.379513 
L 280.643934 -219.833888 
L 281.240442 -221.288262 
L 281.847477 -222.742637 
L 282.458254 -224.197011 
L 283.06482 -225.651385 
L 283.658684 -227.10576 
L 284.231438 -228.560134 
L 284.775327 -230.014509 
L 285.283704 -231.468883 
L 285.751368 -232.923258 
L 286.174752 -234.377632 
L 286.551973 -235.832006 
L 286.882755 -237.286381 
L 287.168259 -238.740755 
L 287.410837 -240.19513 
L 287.613748 -241.649504 
L 287.780867 -243.103878 
L 288.939133 -243.103878 
L 288.939133 -243.103878 
L 289.106252 -241.649504 
L 289.309163 -240.19513 
L 289.551741 -238.740755 
L 289.837245 -237.286381 
L 290.168027 -235.832006 
L 290.545248 -234.377632 
L 290.968632 -232.923258 
L 291.436296 -231.468883 
L 291.944673 -230.014509 
L 292.488562 -228.560134 
L 293.061316 -227.10576 
L 293.65518 -225.651385 
L 294.261746 -224.197011 
L 294.872523 -222.742637 
L 295.479558 -221.288262 
L 296.076066 -219.833888 
L 296.65701 -218.379513 
L 297.219568 -216.925139 
L 297.763445 -215.470765 
L 298.29098 -214.01639 
L 298.80705 -212.562016 
L 299.318758 -211.107641 
L 299.834945 -209.653267 
L 300.36554 -208.198893 
L 300.92084 -206.744518 
L 301.51074 -205.290144 
L 302.143988 -203.835769 
L 302.827511 -202.381395 
L 303.56584 -200.927021 
L 304.360659 -199.472646 
L 305.210489 -198.018272 
L 306.110498 -196.563897 
L 307.052441 -195.109523 
L 308.024709 -193.655149 
L 309.012499 -192.200774 
L 309.998088 -190.7464 
L 310.961232 -189.292025 
L 311.879687 -187.837651 
L 312.72986 -186.383277 
L 313.487596 -184.928902 
L 314.129077 -183.474528 
L 314.631816 -182.020153 
L 314.975696 -180.565779 
L 315.144 -179.111405 
L 315.12436 -177.65703 
L 314.909557 -176.202656 
L 314.498092 -174.748281 
L 313.894493 -173.293907 
L 313.109283 -171.839532 
L 312.158639 -170.385158 
L 311.063707 -168.930784 
L 309.849654 -167.476409 
L 308.544498 -166.022035 
L 307.177793 -164.56766 
L 305.779284 -163.113286 
L 304.377608 -161.658912 
L 302.999132 -160.204537 
L 301.667011 -158.750163 
L 300.400504 -157.295788 
L 299.214594 -155.841414 
L 298.119889 -154.38704 
L 297.122805 -152.932665 
L 296.225965 -151.478291 
L 295.428758 -150.023916 
L 294.728 -148.569542 
L 294.1186 -147.115168 
L 293.594205 -145.660793 
L 293.147732 -144.206419 
L 292.771792 -142.752044 
L 292.458968 -141.29767 
L 292.201974 -139.843296 
L 291.993696 -138.388921 
L 291.82717 -136.934547 
L 291.695522 -135.480172 
L 291.591917 -134.025798 
L 291.509544 -132.571424 
L 291.441656 -131.117049 
L 291.381687 -129.662675 
L 291.323417 -128.2083 
L 291.261185 -126.753926 
L 291.190125 -125.299552 
L 291.106375 -123.845177 
L 291.007256 -122.390803 
L 290.891374 -120.936428 
L 290.758644 -119.482054 
L 290.610221 -118.027679 
L 290.44835 -116.573305 
L 290.276141 -115.118931 
L 290.097302 -113.664556 
L 289.915845 -112.210182 
L 289.735798 -110.755807 
L 289.560943 -109.301433 
L 289.394607 -107.847059 
L 289.239504 -106.392684 
L 289.097648 -104.93831 
L 288.970324 -103.483935 
L 288.858121 -102.029561 
L 288.760995 -100.575187 
L 288.678384 -99.120812 
z
" id="mb9ccfaa4d3" style="stroke:#4c4c4c;stroke-width:1.5;"/>
    </defs>
    <g clip-path="url(#pca9ebe0068)">
     <use style="fill:#b55d60;stroke:#4c4c4c;stroke-width:1.5;" x="0" xlink:href="#mb9ccfaa4d3" y="288"/>
    </g>
   </g>
   <g id="PolyCollection_5">
    <defs>
     <path d="M 355.611512 -96.561391 
L 355.028488 -96.561391 
L 354.955465 -98.099803 
L 354.870148 -99.638214 
L 354.772163 -101.176626 
L 354.66161 -102.715037 
L 354.539152 -104.253448 
L 354.40609 -105.79186 
L 354.264411 -107.330271 
L 354.116781 -108.868683 
L 353.966503 -110.407094 
L 353.817412 -111.945506 
L 353.673724 -113.483917 
L 353.539834 -115.022328 
L 353.420074 -116.56074 
L 353.318457 -118.099151 
L 353.238408 -119.637563 
L 353.182512 -121.175974 
L 353.152293 -122.714386 
L 353.148042 -124.252797 
L 353.168704 -125.791208 
L 353.211827 -127.32962 
L 353.273588 -128.868031 
L 353.348864 -130.406443 
L 353.431373 -131.944854 
L 353.513841 -133.483266 
L 353.588207 -135.021677 
L 353.645833 -136.560088 
L 353.677733 -138.0985 
L 353.674787 -139.636911 
L 353.62796 -141.175323 
L 353.52852 -142.713734 
L 353.368245 -144.252146 
L 353.139646 -145.790557 
L 352.836185 -147.328968 
L 352.452503 -148.86738 
L 351.984646 -150.405791 
L 351.430284 -151.944203 
L 350.78892 -153.482614 
L 350.062055 -155.021026 
L 349.253321 -156.559437 
L 348.368552 -158.097848 
L 347.415784 -159.63626 
L 346.405185 -161.174671 
L 345.348899 -162.713083 
L 344.260818 -164.251494 
L 343.156275 -165.789906 
L 342.051672 -167.328317 
L 340.964049 -168.866728 
L 339.910602 -170.40514 
L 338.908167 -171.943551 
L 337.972675 -173.481963 
L 337.118602 -175.020374 
L 336.35842 -176.558786 
L 335.702086 -178.097197 
L 335.156586 -179.635608 
L 334.725569 -181.17402 
L 334.409094 -182.712431 
L 334.203539 -184.250843 
L 334.101682 -185.789254 
L 334.092981 -187.327666 
L 334.164058 -188.866077 
L 334.299377 -190.404488 
L 334.482099 -191.9429 
L 334.695054 -193.481311 
L 334.921792 -195.019723 
L 335.147642 -196.558134 
L 335.360687 -198.096546 
L 335.552601 -199.634957 
L 335.719269 -201.173368 
L 335.861128 -202.71178 
L 335.983198 -204.250191 
L 336.094779 -205.788603 
L 336.208833 -207.327014 
L 336.341074 -208.865426 
L 336.508832 -210.403837 
L 336.729774 -211.942248 
L 337.020571 -213.48066 
L 337.39562 -215.019071 
L 337.865912 -216.557483 
L 338.438147 -218.095894 
L 339.114155 -219.634306 
L 339.890662 -221.172717 
L 340.759434 -222.711128 
L 341.707754 -224.24954 
L 342.719197 -225.787951 
L 343.774635 -227.326363 
L 344.853371 -228.864774 
L 345.934317 -230.403186 
L 346.997126 -231.941597 
L 348.023177 -233.480008 
L 348.996387 -235.01842 
L 349.903764 -236.556831 
L 350.73573 -238.095243 
L 351.486186 -239.633654 
L 352.152365 -241.172066 
L 352.734505 -242.710477 
L 353.235399 -244.248888 
L 353.659864 -245.7873 
L 354.014189 -247.325711 
L 354.305597 -248.864123 
L 356.334403 -248.864123 
L 356.334403 -248.864123 
L 356.625811 -247.325711 
L 356.980136 -245.7873 
L 357.404601 -244.248888 
L 357.905495 -242.710477 
L 358.487635 -241.172066 
L 359.153814 -239.633654 
L 359.90427 -238.095243 
L 360.736236 -236.556831 
L 361.643613 -235.01842 
L 362.616823 -233.480008 
L 363.642874 -231.941597 
L 364.705683 -230.403186 
L 365.786629 -228.864774 
L 366.865365 -227.326363 
L 367.920803 -225.787951 
L 368.932246 -224.24954 
L 369.880566 -222.711128 
L 370.749338 -221.172717 
L 371.525845 -219.634306 
L 372.201853 -218.095894 
L 372.774088 -216.557483 
L 373.24438 -215.019071 
L 373.619429 -213.48066 
L 373.910226 -211.942248 
L 374.131168 -210.403837 
L 374.298926 -208.865426 
L 374.431167 -207.327014 
L 374.545221 -205.788603 
L 374.656802 -204.250191 
L 374.778872 -202.71178 
L 374.920731 -201.173368 
L 375.087399 -199.634957 
L 375.279313 -198.096546 
L 375.492358 -196.558134 
L 375.718208 -195.019723 
L 375.944946 -193.481311 
L 376.157901 -191.9429 
L 376.340623 -190.404488 
L 376.475942 -188.866077 
L 376.547019 -187.327666 
L 376.538318 -185.789254 
L 376.436461 -184.250843 
L 376.230906 -182.712431 
L 375.914431 -181.17402 
L 375.483414 -179.635608 
L 374.937914 -178.097197 
L 374.28158 -176.558786 
L 373.521398 -175.020374 
L 372.667325 -173.481963 
L 371.731833 -171.943551 
L 370.729398 -170.40514 
L 369.675951 -168.866728 
L 368.588328 -167.328317 
L 367.483725 -165.789906 
L 366.379182 -164.251494 
L 365.291101 -162.713083 
L 364.234815 -161.174671 
L 363.224216 -159.63626 
L 362.271448 -158.097848 
L 361.386679 -156.559437 
L 360.577945 -155.021026 
L 359.85108 -153.482614 
L 359.209716 -151.944203 
L 358.655354 -150.405791 
L 358.187497 -148.86738 
L 357.803815 -147.328968 
L 357.500354 -145.790557 
L 357.271755 -144.252146 
L 357.11148 -142.713734 
L 357.01204 -141.175323 
L 356.965213 -139.636911 
L 356.962267 -138.0985 
L 356.994167 -136.560088 
L 357.051793 -135.021677 
L 357.126159 -133.483266 
L 357.208627 -131.944854 
L 357.291136 -130.406443 
L 357.366412 -128.868031 
L 357.428173 -127.32962 
L 357.471296 -125.791208 
L 357.491958 -124.252797 
L 357.487707 -122.714386 
L 357.457488 -121.175974 
L 357.401592 -119.637563 
L 357.321543 -118.099151 
L 357.219926 -116.56074 
L 357.100166 -115.022328 
L 356.966276 -113.483917 
L 356.822588 -111.945506 
L 356.673497 -110.407094 
L 356.523219 -108.868683 
L 356.375589 -107.330271 
L 356.23391 -105.79186 
L 356.100848 -104.253448 
L 355.97839 -102.715037 
L 355.867837 -101.176626 
L 355.769852 -99.638214 
L 355.684535 -98.099803 
L 355.611512 -96.561391 
z
" id="meaac96b43a" style="stroke:#4c4c4c;stroke-width:1.5;"/>
    </defs>
    <g clip-path="url(#pca9ebe0068)">
     <use style="fill:#857aab;stroke:#4c4c4c;stroke-width:1.5;" x="0" xlink:href="#meaac96b43a" y="288"/>
    </g>
   </g>
   <g id="line2d_12">
    <path clip-path="url(#pca9ebe0068)" d="M 77.383562 190.548162 
L 97.576438 190.548162 
" style="fill:none;stroke:#4c4c4c;stroke-dasharray:3.375,3.375;stroke-dashoffset:0;stroke-width:1.5;"/>
   </g>
   <g id="line2d_13">
    <path clip-path="url(#pca9ebe0068)" d="M 76.53835 160.323943 
L 98.42165 160.323943 
" style="fill:none;stroke:#4c4c4c;stroke-dasharray:6.75,6.75;stroke-dashoffset:0;stroke-width:1.5;"/>
   </g>
   <g id="line2d_14">
    <path clip-path="url(#pca9ebe0068)" d="M 77.320951 133.995217 
L 97.639049 133.995217 
" style="fill:none;stroke:#4c4c4c;stroke-dasharray:3.375,3.375;stroke-dashoffset:0;stroke-width:1.5;"/>
   </g>
   <g id="line2d_15">
    <path clip-path="url(#pca9ebe0068)" d="M 142.03811 154.442084 
L 166.84189 154.442084 
" style="fill:none;stroke:#4c4c4c;stroke-dasharray:3.375,3.375;stroke-dashoffset:0;stroke-width:1.5;"/>
   </g>
   <g id="line2d_16">
    <path clip-path="url(#pca9ebe0068)" d="M 140.30767 130.4726 
L 168.57233 130.4726 
" style="fill:none;stroke:#4c4c4c;stroke-dasharray:6.75,6.75;stroke-dashoffset:0;stroke-width:1.5;"/>
   </g>
   <g id="line2d_17">
    <path clip-path="url(#pca9ebe0068)" d="M 141.771282 111.956919 
L 167.108718 111.956919 
" style="fill:none;stroke:#4c4c4c;stroke-dasharray:3.375,3.375;stroke-dashoffset:0;stroke-width:1.5;"/>
   </g>
   <g id="line2d_18">
    <path clip-path="url(#pca9ebe0068)" d="M 215.11123 180.403373 
L 227.68877 180.403373 
" style="fill:none;stroke:#4c4c4c;stroke-dasharray:3.375,3.375;stroke-dashoffset:0;stroke-width:1.5;"/>
   </g>
   <g id="line2d_19">
    <path clip-path="url(#pca9ebe0068)" d="M 212.36687 126.164161 
L 230.43313 126.164161 
" style="fill:none;stroke:#4c4c4c;stroke-dasharray:6.75,6.75;stroke-dashoffset:0;stroke-width:1.5;"/>
   </g>
   <g id="line2d_20">
    <path clip-path="url(#pca9ebe0068)" d="M 212.068359 100.803896 
L 230.731641 100.803896 
" style="fill:none;stroke:#4c4c4c;stroke-dasharray:3.375,3.375;stroke-dashoffset:0;stroke-width:1.5;"/>
   </g>
   <g id="line2d_21">
    <path clip-path="url(#pca9ebe0068)" d="M 263.858209 115.493562 
L 312.861791 115.493562 
" style="fill:none;stroke:#4c4c4c;stroke-dasharray:3.375,3.375;stroke-dashoffset:0;stroke-width:1.5;"/>
   </g>
   <g id="line2d_22">
    <path clip-path="url(#pca9ebe0068)" d="M 261.84384 108.847484 
L 314.87616 108.847484 
" style="fill:none;stroke:#4c4c4c;stroke-dasharray:6.75,6.75;stroke-dashoffset:0;stroke-width:1.5;"/>
   </g>
   <g id="line2d_23">
    <path clip-path="url(#pca9ebe0068)" d="M 268.891938 94.811024 
L 307.828062 94.811024 
" style="fill:none;stroke:#4c4c4c;stroke-dasharray:3.375,3.375;stroke-dashoffset:0;stroke-width:1.5;"/>
   </g>
   <g id="line2d_24">
    <path clip-path="url(#pca9ebe0068)" d="M 335.35822 107.661016 
L 375.28178 107.661016 
" style="fill:none;stroke:#4c4c4c;stroke-dasharray:3.375,3.375;stroke-dashoffset:0;stroke-width:1.5;"/>
   </g>
   <g id="line2d_25">
    <path clip-path="url(#pca9ebe0068)" d="M 334.375617 99.009602 
L 376.264383 99.009602 
" style="fill:none;stroke:#4c4c4c;stroke-dasharray:6.75,6.75;stroke-dashoffset:0;stroke-width:1.5;"/>
   </g>
   <g id="line2d_26">
    <path clip-path="url(#pca9ebe0068)" d="M 337.574863 72.509804 
L 373.065137 72.509804 
" style="fill:none;stroke:#4c4c4c;stroke-dasharray:3.375,3.375;stroke-dashoffset:0;stroke-width:1.5;"/>
   </g>
   <g id="patch_3">
    <path d="M 54 252 
L 54 34.56 
" style="fill:none;stroke:#262626;stroke-linecap:square;stroke-linejoin:miter;stroke-width:1.25;"/>
   </g>
   <g id="patch_4">
    <path d="M 388.8 252 
L 388.8 34.56 
" style="fill:none;stroke:#262626;stroke-linecap:square;stroke-linejoin:miter;stroke-width:1.25;"/>
   </g>
   <g id="patch_5">
    <path d="M 54 252 
L 388.8 252 
" style="fill:none;stroke:#262626;stroke-linecap:square;stroke-linejoin:miter;stroke-width:1.25;"/>
   </g>
   <g id="patch_6">
    <path d="M 54 34.56 
L 388.8 34.56 
" style="fill:none;stroke:#262626;stroke-linecap:square;stroke-linejoin:miter;stroke-width:1.25;"/>
   </g>
   <g id="PathCollection_1">
    <defs>
     <path d="M 0 2.5 
C 0.663008 2.5 1.29895 2.236584 1.767767 1.767767 
C 2.236584 1.29895 2.5 0.663008 2.5 0 
C 2.5 -0.663008 2.236584 -1.29895 1.767767 -1.767767 
C 1.29895 -2.236584 0.663008 -2.5 0 -2.5 
C -0.663008 -2.5 -1.29895 -2.236584 -1.767767 -1.767767 
C -2.236584 -1.29895 -2.5 -0.663008 -2.5 0 
C -2.5 0.663008 -2.236584 1.29895 -1.767767 1.767767 
C -1.29895 2.236584 -0.663008 2.5 0 2.5 
z
" id="C0_0_69feec9ef2"/>
    </defs>
    <g clip-path="url(#pca9ebe0068)">
     <use x="87.48" xlink:href="#C0_0_69feec9ef2" y="235.206721"/>
    </g>
    <g clip-path="url(#pca9ebe0068)">
     <use x="87.48" xlink:href="#C0_0_69feec9ef2" y="212.395538"/>
    </g>
    <g clip-path="url(#pca9ebe0068)">
     <use x="82.555322" xlink:href="#C0_0_69feec9ef2" y="209.779517"/>
    </g>
    <g clip-path="url(#pca9ebe0068)">
     <use x="87.48" xlink:href="#C0_0_69feec9ef2" y="200.590435"/>
    </g>
    <g clip-path="url(#pca9ebe0068)">
     <use x="82.325542" xlink:href="#C0_0_69feec9ef2" y="199.156826"/>
    </g>
    <g clip-path="url(#pca9ebe0068)">
     <use x="87.48" xlink:href="#C0_0_69feec9ef2" y="187.678607"/>
    </g>
    <g clip-path="url(#pca9ebe0068)">
     <use x="82.426069" xlink:href="#C0_0_69feec9ef2" y="185.634845"/>
    </g>
    <g clip-path="url(#pca9ebe0068)">
     <use x="87.48" xlink:href="#C0_0_69feec9ef2" y="174.598089"/>
    </g>
    <g clip-path="url(#pca9ebe0068)">
     <use x="82.368107" xlink:href="#C0_0_69feec9ef2" y="172.877996"/>
    </g>
    <g clip-path="url(#pca9ebe0068)">
     <use x="92.302373" xlink:href="#C0_0_69feec9ef2" y="171.613926"/>
    </g>
    <g clip-path="url(#pca9ebe0068)">
     <use x="87.48" xlink:href="#C0_0_69feec9ef2" y="149.033961"/>
    </g>
    <g clip-path="url(#pca9ebe0068)">
     <use x="83.367634" xlink:href="#C0_0_69feec9ef2" y="144.341313"/>
    </g>
    <g clip-path="url(#pca9ebe0068)">
     <use x="91.345044" xlink:href="#C0_0_69feec9ef2" y="143.925133"/>
    </g>
    <g clip-path="url(#pca9ebe0068)">
     <use x="96.037263" xlink:href="#C0_0_69feec9ef2" y="140.53905"/>
    </g>
    <g clip-path="url(#pca9ebe0068)">
     <use x="87.48" xlink:href="#C0_0_69feec9ef2" y="134.901717"/>
    </g>
    <g clip-path="url(#pca9ebe0068)">
     <use x="82.875304" xlink:href="#C0_0_69feec9ef2" y="131.275719"/>
    </g>
    <g clip-path="url(#pca9ebe0068)">
     <use x="87.48" xlink:href="#C0_0_69feec9ef2" y="126.83512"/>
    </g>
    <g clip-path="url(#pca9ebe0068)">
     <use x="87.48" xlink:href="#C0_0_69feec9ef2" y="113.069642"/>
    </g>
    <g clip-path="url(#pca9ebe0068)">
     <use x="87.48" xlink:href="#C0_0_69feec9ef2" y="84.164152"/>
    </g>
    <g clip-path="url(#pca9ebe0068)">
     <use x="87.48" xlink:href="#C0_0_69feec9ef2" y="69.370041"/>
    </g>
   </g>
   <g id="PathCollection_2">
    <defs>
     <path d="M 0 2.5 
C 0.663008 2.5 1.29895 2.236584 1.767767 1.767767 
C 2.236584 1.29895 2.5 0.663008 2.5 0 
C 2.5 -0.663008 2.236584 -1.29895 1.767767 -1.767767 
C 1.29895 -2.236584 0.663008 -2.5 0 -2.5 
C -0.663008 -2.5 -1.29895 -2.236584 -1.767767 -1.767767 
C -2.236584 -1.29895 -2.5 -0.663008 -2.5 0 
C -2.5 0.663008 -2.236584 1.29895 -1.767767 1.767767 
C -1.29895 2.236584 -0.663008 2.5 0 2.5 
z
" id="C1_0_1c6d638790"/>
    </defs>
    <g clip-path="url(#pca9ebe0068)">
     <use x="154.44" xlink:href="#C1_0_1c6d638790" y="219.504976"/>
    </g>
    <g clip-path="url(#pca9ebe0068)">
     <use x="154.44" xlink:href="#C1_0_1c6d638790" y="183.179184"/>
    </g>
    <g clip-path="url(#pca9ebe0068)">
     <use x="154.44" xlink:href="#C1_0_1c6d638790" y="174.307178"/>
    </g>
    <g clip-path="url(#pca9ebe0068)">
     <use x="154.44" xlink:href="#C1_0_1c6d638790" y="162.248612"/>
    </g>
    <g clip-path="url(#pca9ebe0068)">
     <use x="149.588341" xlink:href="#C1_0_1c6d638790" y="159.364262"/>
    </g>
    <g clip-path="url(#pca9ebe0068)">
     <use x="154.44" xlink:href="#C1_0_1c6d638790" y="152.801358"/>
    </g>
    <g clip-path="url(#pca9ebe0068)">
     <use x="159.689649" xlink:href="#C1_0_1c6d638790" y="152.714089"/>
    </g>
    <g clip-path="url(#pca9ebe0068)">
     <use x="149.575915" xlink:href="#C1_0_1c6d638790" y="149.960607"/>
    </g>
    <g clip-path="url(#pca9ebe0068)">
     <use x="154.44" xlink:href="#C1_0_1c6d638790" y="143.045789"/>
    </g>
    <g clip-path="url(#pca9ebe0068)">
     <use x="154.44" xlink:href="#C1_0_1c6d638790" y="131.830914"/>
    </g>
    <g clip-path="url(#pca9ebe0068)">
     <use x="149.541739" xlink:href="#C1_0_1c6d638790" y="129.114286"/>
    </g>
    <g clip-path="url(#pca9ebe0068)">
     <use x="154.44" xlink:href="#C1_0_1c6d638790" y="122.800516"/>
    </g>
    <g clip-path="url(#pca9ebe0068)">
     <use x="159.656464" xlink:href="#C1_0_1c6d638790" y="121.94863"/>
    </g>
    <g clip-path="url(#pca9ebe0068)">
     <use x="149.289331" xlink:href="#C1_0_1c6d638790" y="121.339019"/>
    </g>
    <g clip-path="url(#pca9ebe0068)">
     <use x="154.44" xlink:href="#C1_0_1c6d638790" y="114.629101"/>
    </g>
    <g clip-path="url(#pca9ebe0068)">
     <use x="154.44" xlink:href="#C1_0_1c6d638790" y="103.940372"/>
    </g>
    <g clip-path="url(#pca9ebe0068)">
     <use x="149.190003" xlink:href="#C1_0_1c6d638790" y="103.932619"/>
    </g>
    <g clip-path="url(#pca9ebe0068)">
     <use x="157.885139" xlink:href="#C1_0_1c6d638790" y="98.244187"/>
    </g>
    <g clip-path="url(#pca9ebe0068)">
     <use x="154.44" xlink:href="#C1_0_1c6d638790" y="80.214968"/>
    </g>
    <g clip-path="url(#pca9ebe0068)">
     <use x="154.44" xlink:href="#C1_0_1c6d638790" y="68.887589"/>
    </g>
   </g>
   <g id="PathCollection_3">
    <defs>
     <path d="M 0 2.5 
C 0.663008 2.5 1.29895 2.236584 1.767767 1.767767 
C 2.236584 1.29895 2.5 0.663008 2.5 0 
C 2.5 -0.663008 2.236584 -1.29895 1.767767 -1.767767 
C 1.29895 -2.236584 0.663008 -2.5 0 -2.5 
C -0.663008 -2.5 -1.29895 -2.236584 -1.767767 -1.767767 
C -2.236584 -1.29895 -2.5 -0.663008 -2.5 0 
C -2.5 0.663008 -2.236584 1.29895 -1.767767 1.767767 
C -1.29895 2.236584 -0.663008 2.5 0 2.5 
z
" id="C2_0_0133295be0"/>
    </defs>
    <g clip-path="url(#pca9ebe0068)">
     <use x="221.4" xlink:href="#C2_0_0133295be0" y="253.464242"/>
    </g>
    <g clip-path="url(#pca9ebe0068)">
     <use x="221.4" xlink:href="#C2_0_0133295be0" y="236.931924"/>
    </g>
    <g clip-path="url(#pca9ebe0068)">
     <use x="221.4" xlink:href="#C2_0_0133295be0" y="205.925906"/>
    </g>
    <g clip-path="url(#pca9ebe0068)">
     <use x="221.4" xlink:href="#C2_0_0133295be0" y="198.279789"/>
    </g>
    <g clip-path="url(#pca9ebe0068)">
     <use x="216.512856" xlink:href="#C2_0_0133295be0" y="195.522078"/>
    </g>
    <g clip-path="url(#pca9ebe0068)">
     <use x="221.4" xlink:href="#C2_0_0133295be0" y="175.363804"/>
    </g>
    <g clip-path="url(#pca9ebe0068)">
     <use x="221.4" xlink:href="#C2_0_0133295be0" y="166.288248"/>
    </g>
    <g clip-path="url(#pca9ebe0068)">
     <use x="216.745741" xlink:href="#C2_0_0133295be0" y="162.79553"/>
    </g>
    <g clip-path="url(#pca9ebe0068)">
     <use x="221.4" xlink:href="#C2_0_0133295be0" y="143.226575"/>
    </g>
    <g clip-path="url(#pca9ebe0068)">
     <use x="221.4" xlink:href="#C2_0_0133295be0" y="126.703508"/>
    </g>
    <g clip-path="url(#pca9ebe0068)">
     <use x="216.203876" xlink:href="#C2_0_0133295be0" y="125.624815"/>
    </g>
    <g clip-path="url(#pca9ebe0068)">
     <use x="225.169223" xlink:href="#C2_0_0133295be0" y="121.448742"/>
    </g>
    <g clip-path="url(#pca9ebe0068)">
     <use x="230.39352" xlink:href="#C2_0_0133295be0" y="120.702674"/>
    </g>
    <g clip-path="url(#pca9ebe0068)">
     <use x="221.4" xlink:href="#C2_0_0133295be0" y="104.717986"/>
    </g>
    <g clip-path="url(#pca9ebe0068)">
     <use x="216.193751" xlink:href="#C2_0_0133295be0" y="103.745455"/>
    </g>
    <g clip-path="url(#pca9ebe0068)">
     <use x="221.4" xlink:href="#C2_0_0133295be0" y="91.979221"/>
    </g>
    <g clip-path="url(#pca9ebe0068)">
     <use x="216.27519" xlink:href="#C2_0_0133295be0" y="90.340523"/>
    </g>
    <g clip-path="url(#pca9ebe0068)">
     <use x="221.4" xlink:href="#C2_0_0133295be0" y="79.512847"/>
    </g>
    <g clip-path="url(#pca9ebe0068)">
     <use x="216.150507" xlink:href="#C2_0_0133295be0" y="79.407929"/>
    </g>
    <g clip-path="url(#pca9ebe0068)">
     <use x="224.851788" xlink:href="#C2_0_0133295be0" y="73.824992"/>
    </g>
   </g>
   <g id="PathCollection_4">
    <defs>
     <path d="M 0 2.5 
C 0.663008 2.5 1.29895 2.236584 1.767767 1.767767 
C 2.236584 1.29895 2.5 0.663008 2.5 0 
C 2.5 -0.663008 2.236584 -1.29895 1.767767 -1.767767 
C 1.29895 -2.236584 0.663008 -2.5 0 -2.5 
C -0.663008 -2.5 -1.29895 -2.236584 -1.767767 -1.767767 
C -2.236584 -1.29895 -2.5 -0.663008 -2.5 0 
C -2.5 0.663008 -2.236584 1.29895 -1.767767 1.767767 
C -1.29895 2.236584 -0.663008 2.5 0 2.5 
z
" id="C3_0_d29e4f55cc"/>
    </defs>
    <g clip-path="url(#pca9ebe0068)">
     <use x="288.36" xlink:href="#C3_0_d29e4f55cc" y="164.315658"/>
    </g>
    <g clip-path="url(#pca9ebe0068)">
     <use x="288.36" xlink:href="#C3_0_d29e4f55cc" y="140.732761"/>
    </g>
    <g clip-path="url(#pca9ebe0068)">
     <use x="288.36" xlink:href="#C3_0_d29e4f55cc" y="124.242967"/>
    </g>
    <g clip-path="url(#pca9ebe0068)">
     <use x="283.58603" xlink:href="#C3_0_d29e4f55cc" y="121.102019"/>
    </g>
    <g clip-path="url(#pca9ebe0068)">
     <use x="291.824339" xlink:href="#C3_0_d29e4f55cc" y="118.570909"/>
    </g>
    <g clip-path="url(#pca9ebe0068)">
     <use x="287.417579" xlink:href="#C3_0_d29e4f55cc" y="114.46778"/>
    </g>
    <g clip-path="url(#pca9ebe0068)">
     <use x="281.400275" xlink:href="#C3_0_d29e4f55cc" y="114.238478"/>
    </g>
    <g clip-path="url(#pca9ebe0068)">
     <use x="295.770923" xlink:href="#C3_0_d29e4f55cc" y="113.592636"/>
    </g>
    <g clip-path="url(#pca9ebe0068)">
     <use x="276.844157" xlink:href="#C3_0_d29e4f55cc" y="110.487753"/>
    </g>
    <g clip-path="url(#pca9ebe0068)">
     <use x="300.502549" xlink:href="#C3_0_d29e4f55cc" y="110.321896"/>
    </g>
    <g clip-path="url(#pca9ebe0068)">
     <use x="289.21114" xlink:href="#C3_0_d29e4f55cc" y="107.373072"/>
    </g>
    <g clip-path="url(#pca9ebe0068)">
     <use x="283.998208" xlink:href="#C3_0_d29e4f55cc" y="106.477598"/>
    </g>
    <g clip-path="url(#pca9ebe0068)">
     <use x="293.864874" xlink:href="#C3_0_d29e4f55cc" y="103.878907"/>
    </g>
    <g clip-path="url(#pca9ebe0068)">
     <use x="288.36" xlink:href="#C3_0_d29e4f55cc" y="98.591951"/>
    </g>
    <g clip-path="url(#pca9ebe0068)">
     <use x="283.395353" xlink:href="#C3_0_d29e4f55cc" y="96.137092"/>
    </g>
    <g clip-path="url(#pca9ebe0068)">
     <use x="288.36" xlink:href="#C3_0_d29e4f55cc" y="90.83282"/>
    </g>
    <g clip-path="url(#pca9ebe0068)">
     <use x="293.554149" xlink:href="#C3_0_d29e4f55cc" y="89.734638"/>
    </g>
    <g clip-path="url(#pca9ebe0068)">
     <use x="288.36" xlink:href="#C3_0_d29e4f55cc" y="75.444587"/>
    </g>
    <g clip-path="url(#pca9ebe0068)">
     <use x="283.251563" xlink:href="#C3_0_d29e4f55cc" y="73.703398"/>
    </g>
    <g clip-path="url(#pca9ebe0068)">
     <use x="291.559622" xlink:href="#C3_0_d29e4f55cc" y="69.459651"/>
    </g>
   </g>
   <g id="PathCollection_5">
    <defs>
     <path d="M 0 2.5 
C 0.663008 2.5 1.29895 2.236584 1.767767 1.767767 
C 2.236584 1.29895 2.5 0.663008 2.5 0 
C 2.5 -0.663008 2.236584 -1.29895 1.767767 -1.767767 
C 1.29895 -2.236584 0.663008 -2.5 0 -2.5 
C -0.663008 -2.5 -1.29895 -2.236584 -1.767767 -1.767767 
C -2.236584 -1.29895 -2.5 -0.663008 -2.5 0 
C -2.5 0.663008 -2.236584 1.29895 -1.767767 1.767767 
C -1.29895 2.236584 -0.663008 2.5 0 2.5 
z
" id="C4_0_5785c84529"/>
    </defs>
    <g clip-path="url(#pca9ebe0068)">
     <use x="355.32" xlink:href="#C4_0_5785c84529" y="164.701786"/>
    </g>
    <g clip-path="url(#pca9ebe0068)">
     <use x="355.32" xlink:href="#C4_0_5785c84529" y="120.284738"/>
    </g>
    <g clip-path="url(#pca9ebe0068)">
     <use x="350.309071" xlink:href="#C4_0_5785c84529" y="118.032674"/>
    </g>
    <g clip-path="url(#pca9ebe0068)">
     <use x="360.139572" xlink:href="#C4_0_5785c84529" y="117.291236"/>
    </g>
    <g clip-path="url(#pca9ebe0068)">
     <use x="355.32" xlink:href="#C4_0_5785c84529" y="110.045242"/>
    </g>
    <g clip-path="url(#pca9ebe0068)">
     <use x="350.558217" xlink:href="#C4_0_5785c84529" y="106.866274"/>
    </g>
    <g clip-path="url(#pca9ebe0068)">
     <use x="358.229802" xlink:href="#C4_0_5785c84529" y="103.76191"/>
    </g>
    <g clip-path="url(#pca9ebe0068)">
     <use x="363.478848" xlink:href="#C4_0_5785c84529" y="103.618014"/>
    </g>
    <g clip-path="url(#pca9ebe0068)">
     <use x="347.17655" xlink:href="#C4_0_5785c84529" y="101.091987"/>
    </g>
    <g clip-path="url(#pca9ebe0068)">
     <use x="353.512287" xlink:href="#C4_0_5785c84529" y="100.449295"/>
    </g>
    <g clip-path="url(#pca9ebe0068)">
     <use x="366.620494" xlink:href="#C4_0_5785c84529" y="97.56991"/>
    </g>
    <g clip-path="url(#pca9ebe0068)">
     <use x="355.32" xlink:href="#C4_0_5785c84529" y="88.186634"/>
    </g>
    <g clip-path="url(#pca9ebe0068)">
     <use x="350.103525" xlink:href="#C4_0_5785c84529" y="87.334889"/>
    </g>
    <g clip-path="url(#pca9ebe0068)">
     <use x="355.32" xlink:href="#C4_0_5785c84529" y="80.526244"/>
    </g>
    <g clip-path="url(#pca9ebe0068)">
     <use x="355.32" xlink:href="#C4_0_5785c84529" y="72.814404"/>
    </g>
    <g clip-path="url(#pca9ebe0068)">
     <use x="350.138833" xlink:href="#C4_0_5785c84529" y="71.596003"/>
    </g>
    <g clip-path="url(#pca9ebe0068)">
     <use x="360.387892" xlink:href="#C4_0_5785c84529" y="70.843416"/>
    </g>
    <g clip-path="url(#pca9ebe0068)">
     <use x="345.073604" xlink:href="#C4_0_5785c84529" y="69.610914"/>
    </g>
    <g clip-path="url(#pca9ebe0068)">
     <use x="365.277371" xlink:href="#C4_0_5785c84529" y="68.094276"/>
    </g>
    <g clip-path="url(#pca9ebe0068)">
     <use x="340.512516" xlink:href="#C4_0_5785c84529" y="65.8727"/>
    </g>
   </g>
  </g>
 </g>
 <defs>
  <clipPath id="pca9ebe0068">
   <rect height="217.44" width="334.8" x="54" y="34.56"/>
  </clipPath>
 </defs>
</svg>
