<?xml version="1.0" encoding="utf-8" standalone="no"?>
<!DOCTYPE svg PUBLIC "-//W3C//DTD SVG 1.1//EN"
  "http://www.w3.org/Graphics/SVG/1.1/DTD/svg11.dtd">
<!-- Created with matplotlib (http://matplotlib.org/) -->
<svg height="648pt" version="1.1" viewBox="0 0 144 648" width="144pt" xmlns="http://www.w3.org/2000/svg" xmlns:xlink="http://www.w3.org/1999/xlink">
 <defs>
  <style type="text/css">
*{stroke-linecap:butt;stroke-linejoin:round;}
  </style>
 </defs>
 <g id="figure_1">
  <g id="patch_1">
   <path d="M 0 648 
L 144 648 
L 144 0 
L 0 0 
z
" style="fill:#ffffff;"/>
  </g>
  <g id="axes_1">
   <g id="line2d_1">
    <path clip-path="url(#p447a4cb605)" d="M 54.445367 88.69138 
L 54.445367 115.191696 
" style="fill:none;stroke:#000000;stroke-linecap:square;stroke-width:1.116;"/>
   </g>
   <g id="line2d_2">
    <path clip-path="url(#p447a4cb605)" d="M 98.61256 88.69138 
L 54.445367 88.69138 
" style="fill:none;stroke:#000000;stroke-linecap:square;stroke-width:1.116;"/>
   </g>
   <g id="patch_2">
    <path clip-path="url(#p447a4cb605)" d="M 59.367593 104.106766 
Q 60.149146 104.274118 60.587367 104.803779 
Q 61.027314 105.331715 61.027314 106.108092 
Q 61.027314 107.298536 60.207805 107.952417 
Q 59.388297 108.604573 57.878676 108.604573 
Q 57.373168 108.604573 56.836606 108.504507 
Q 56.300044 108.404441 55.728976 108.204308 
L 55.728976 107.153612 
Q 56.180999 107.41758 56.719287 107.552152 
Q 57.2593 107.686724 57.847621 107.686724 
Q 58.870712 107.686724 59.407275 107.283008 
Q 59.943837 106.879293 59.943837 106.108092 
Q 59.943837 105.395551 59.445231 104.995286 
Q 58.946625 104.593295 58.058105 104.593295 
L 57.119552 104.593295 
L 57.119552 103.697874 
L 58.101237 103.697874 
Q 58.903493 103.697874 59.329637 103.376972 
Q 59.755781 103.05607 59.755781 102.452221 
Q 59.755781 101.832846 59.315835 101.501592 
Q 58.877613 101.168612 58.058105 101.168612 
Q 57.609532 101.168612 57.097123 101.266953 
Q 56.584715 101.363569 55.970515 101.567152 
L 55.970515 100.597544 
Q 56.591616 100.425016 57.133354 100.338752 
Q 57.675093 100.252488 58.154721 100.252488 
Q 59.395198 100.252488 60.116365 100.816655 
Q 60.839258 101.379097 60.839258 102.338353 
Q 60.839258 103.007762 60.456246 103.468412 
Q 60.073233 103.929062 59.367593 104.106766 
z
M 63.206128 107.0777 
L 64.343088 107.0777 
L 64.343088 108.005901 
L 63.459744 109.731182 
L 62.764456 109.731182 
L 63.206128 108.005901 
z
M 69.59549 101.346316 
L 66.845392 105.643991 
L 69.59549 105.643991 
z
M 69.309094 100.397412 
L 70.678967 100.397412 
L 70.678967 105.643991 
L 71.828004 105.643991 
L 71.828004 106.549764 
L 70.678967 106.549764 
L 70.678967 108.447573 
L 69.59549 108.447573 
L 69.59549 106.549764 
L 65.962048 106.549764 
L 65.962048 105.499068 
z
M 73.741125 107.0777 
L 74.878085 107.0777 
L 74.878085 108.005901 
L 73.994741 109.731182 
L 73.299453 109.731182 
L 73.741125 108.005901 
z
M 79.602551 103.989447 
Q 78.869307 103.989447 78.439712 104.491504 
Q 78.011842 104.991835 78.011842 105.864827 
Q 78.011842 106.732644 78.439712 107.238151 
Q 78.869307 107.741933 79.602551 107.741933 
Q 80.335796 107.741933 80.763665 107.238151 
Q 81.191535 106.732644 81.191535 105.864827 
Q 81.191535 104.991835 80.763665 104.491504 
Q 80.335796 103.989447 79.602551 103.989447 
z
M 81.764328 100.575116 
L 81.764328 101.567152 
Q 81.353711 101.373921 80.936193 101.272129 
Q 80.518675 101.168612 80.108059 101.168612 
Q 79.029758 101.168612 78.460415 101.896681 
Q 77.892798 102.62475 77.81171 104.096414 
Q 78.129161 103.627138 78.608789 103.376972 
Q 79.090143 103.126806 79.666387 103.126806 
Q 80.879259 103.126806 81.583174 103.863501 
Q 82.287088 104.598471 82.287088 105.864827 
Q 82.287088 107.105304 81.553844 107.855802 
Q 80.8206 108.604573 79.602551 108.604573 
Q 78.205074 108.604573 77.466653 107.534899 
Q 76.728233 106.4635 76.728233 104.431119 
Q 76.728233 102.522958 77.634006 101.387723 
Q 78.539778 100.252488 80.064927 100.252488 
Q 80.475543 100.252488 80.893061 100.333576 
Q 81.310579 100.414665 81.764328 100.575116 
z
"/>
   </g>
   <g id="patch_3">
    <path clip-path="url(#p447a4cb605)" d="M 99.798691 89.036437 
L 99.560602 87.790784 
Q 99.319062 86.51235 98.358081 86.51235 
Q 97.636913 86.51235 97.307385 87.105847 
Q 96.891592 87.849443 96.891592 88.831128 
Q 96.891592 90.018121 97.297033 90.584014 
Q 97.705925 91.160257 98.358081 91.160257 
Q 99.080974 91.160257 99.469162 90.01122 
z
M 100.354231 87.387068 
L 100.887343 85.806711 
L 101.772412 85.806711 
L 100.666507 89.079569 
L 100.882167 90.259661 
Q 100.930475 90.523629 101.11853 90.744465 
Q 101.341092 91.003257 101.51362 91.003257 
L 101.988072 91.003257 
L 101.988072 91.845194 
L 101.394575 91.845194 
Q 100.887343 91.845194 100.435319 91.391445 
Q 100.212758 91.165433 100.121318 90.690981 
Q 99.874603 91.289654 99.36737 91.75893 
Q 99.129281 91.979766 98.358081 91.979766 
Q 97.091725 91.979766 96.477525 91.160257 
Q 95.846072 90.313144 95.846072 88.831128 
Q 95.846072 87.245595 96.531008 86.501999 
Q 97.291857 85.672139 98.358081 85.672139 
Q 100.035054 85.672139 100.354231 87.387068 
z
"/>
   </g>
   <g id="patch_4">
    <path clip-path="url(#p447a4cb605)" d="M 63.278805 79.857942 
L 63.278805 97.524819 
L 45.611928 97.524819 
L 45.611928 79.857942 
L 63.278805 79.857942 
z
" style="fill:#0090bc;stroke:#000000;stroke-linejoin:miter;stroke-width:1.116;"/>
   </g>
   <g id="patch_5">
    <path clip-path="url(#p447a4cb605)" d="M 61.070446 108.566617 
L 47.820288 121.816775 
z
" style="fill:#ffffff;stroke:#000000;stroke-linejoin:miter;stroke-width:1.116;"/>
   </g>
   <g id="patch_6">
    <path clip-path="url(#p447a4cb605)" d="M 47.820288 108.566617 
L 61.070446 121.816775 
z
" style="fill:#ffffff;stroke:#000000;stroke-linejoin:miter;stroke-width:1.116;"/>
   </g>
  </g>
  <g id="axes_2">
   <g id="line2d_3">
    <path clip-path="url(#pe1b3245394)" d="M 76.553695 156.479804 
L 31.986222 156.479804 
" style="fill:none;stroke:#000000;stroke-linecap:square;stroke-width:0.837;"/>
   </g>
   <g id="line2d_4">
    <path clip-path="url(#pe1b3245394)" d="M 121.121169 156.479804 
L 76.553695 156.479804 
" style="fill:none;stroke:#000000;stroke-linecap:square;stroke-width:0.837;"/>
   </g>
   <g id="patch_7">
    <path clip-path="url(#pe1b3245394)" d="M 46.961589 155.212417 
L 46.961589 157.905615 
L 45.955339 157.905615 
L 45.955339 149.533546 
Q 45.955339 147.052739 48.2725 147.052739 
Q 50.634924 147.052739 50.634924 149.147062 
Q 50.634924 150.637287 49.698311 151.182194 
Q 51.221613 151.671392 51.221613 153.123316 
Q 51.221613 155.703355 48.599792 155.703355 
Q 47.445564 155.703355 46.961589 155.212417 
z
M 46.961589 153.906729 
Q 47.565688 154.848565 48.638092 154.848565 
Q 50.204918 154.848565 50.204918 153.140725 
Q 50.204918 151.605237 47.680588 151.72536 
L 47.680588 150.800933 
Q 49.654788 150.800933 49.654788 149.060016 
Q 49.654788 147.869229 48.382178 147.869229 
Q 46.961589 147.869229 46.961589 149.566623 
z
"/>
   </g>
   <g id="patch_8">
    <path clip-path="url(#pe1b3245394)" d="M 62.802193 151.208308 
Q 63.590828 151.377177 64.033021 151.911638 
Q 64.476955 152.444359 64.476955 153.227771 
Q 64.476955 154.429004 63.650019 155.088811 
Q 62.823084 155.746878 61.299781 155.746878 
Q 60.789693 155.746878 60.248267 155.645905 
Q 59.706842 155.544932 59.130599 155.342985 
L 59.130599 154.282767 
Q 59.586719 154.549127 60.129885 154.684919 
Q 60.674792 154.82071 61.268445 154.82071 
Q 62.300808 154.82071 62.842234 154.413336 
Q 63.383659 154.005961 63.383659 153.227771 
Q 63.383659 152.508773 62.880534 152.10488 
Q 62.377409 151.699246 61.480837 151.699246 
L 60.533778 151.699246 
L 60.533778 150.79571 
L 61.524359 150.79571 
Q 62.333886 150.79571 62.763892 150.4719 
Q 63.193899 150.148089 63.193899 149.538768 
Q 63.193899 148.913779 62.749965 148.579523 
Q 62.307772 148.243526 61.480837 148.243526 
Q 61.028198 148.243526 60.511146 148.342758 
Q 59.994094 148.44025 59.374327 148.645678 
L 59.374327 147.667283 
Q 60.001057 147.493191 60.547705 147.406145 
Q 61.094353 147.319099 61.578328 147.319099 
Q 62.830047 147.319099 63.55775 147.888379 
Q 64.287195 148.455918 64.287195 149.423868 
Q 64.287195 150.099344 63.900711 150.564168 
Q 63.514228 151.028993 62.802193 151.208308 
z
"/>
   </g>
   <g id="patch_9">
    <path clip-path="url(#pe1b3245394)" d="M 122.318049 156.827988 
L 122.077803 155.571045 
Q 121.834074 154.281026 120.864384 154.281026 
Q 120.13668 154.281026 119.804165 154.879901 
Q 119.384604 155.630237 119.384604 156.620818 
Q 119.384604 157.818569 119.79372 158.38959 
Q 120.206317 158.971056 120.864384 158.971056 
Q 121.593828 158.971056 121.985534 157.811606 
z
M 122.878624 155.163671 
L 123.416568 153.568991 
L 124.309658 153.568991 
L 123.19373 156.87151 
L 123.411345 158.062298 
Q 123.460091 158.328658 123.649851 158.551495 
Q 123.874429 158.812633 124.048521 158.812633 
L 124.527273 158.812633 
L 124.527273 159.6622 
L 123.928397 159.6622 
Q 123.416568 159.6622 122.960447 159.204339 
Q 122.735869 158.976279 122.643601 158.497527 
Q 122.394649 159.101625 121.88282 159.575154 
Q 121.642573 159.797992 120.864384 159.797992 
Q 119.58655 159.797992 118.966784 158.971056 
Q 118.329608 158.116266 118.329608 156.620818 
Q 118.329608 155.020916 119.020752 154.270581 
Q 119.788497 153.433199 120.864384 153.433199 
Q 122.556555 153.433199 122.878624 155.163671 
z
"/>
   </g>
   <g id="patch_10">
    <path clip-path="url(#pe1b3245394)" d="M 85.46719 147.566309 
L 85.46719 165.393299 
L 67.640201 165.393299 
L 67.640201 147.566309 
L 85.46719 147.566309 
z
" style="fill:#ffd400;stroke:#000000;stroke-linejoin:miter;stroke-width:0.837;"/>
   </g>
   <g id="patch_11">
    <path clip-path="url(#pe1b3245394)" d="M 31.986222 165.393299 
C 34.350108 165.393299 36.617494 164.454117 38.289014 162.782597 
C 39.960535 161.111077 40.899717 158.843691 40.899717 156.479804 
C 40.899717 154.115918 39.960535 151.848532 38.289014 150.177012 
C 36.617494 148.505491 34.350108 147.566309 31.986222 147.566309 
C 29.622336 147.566309 27.35495 148.505491 25.683429 150.177012 
C 24.011909 151.848532 23.072727 154.115918 23.072727 156.479804 
C 23.072727 158.843691 24.011909 161.111077 25.683429 162.782597 
C 27.35495 164.454117 29.622336 165.393299 31.986222 165.393299 
z
" style="fill:#ffd400;stroke:#000000;stroke-linejoin:miter;stroke-width:0.837;"/>
   </g>
  </g>
  <g id="axes_3">
   <g id="line2d_5">
    <path clip-path="url(#pfa400e2da7)" d="M 64.295858 199.462701 
L 64.295858 225.963017 
" style="fill:none;stroke:#000000;stroke-linecap:square;stroke-width:1.674;"/>
   </g>
   <g id="patch_12">
    <path clip-path="url(#pfa400e2da7)" d="M 69.218085 214.878087 
Q 69.999637 215.045439 70.437859 215.5751 
Q 70.877805 216.103036 70.877805 216.879413 
Q 70.877805 218.069857 70.058297 218.723738 
Q 69.238788 219.375894 67.729168 219.375894 
Q 67.22366 219.375894 66.687098 219.275828 
Q 66.150535 219.175762 65.579467 218.975629 
L 65.579467 217.924933 
Q 66.031491 218.188901 66.569779 218.323473 
Q 67.109792 218.458045 67.698112 218.458045 
Q 68.721204 218.458045 69.257766 218.054329 
Q 69.794329 217.650613 69.794329 216.879413 
Q 69.794329 216.166872 69.295723 215.766606 
Q 68.797116 215.364616 67.908597 215.364616 
L 66.970044 215.364616 
L 66.970044 214.469195 
L 67.951729 214.469195 
Q 68.753984 214.469195 69.180129 214.148293 
Q 69.606273 213.827391 69.606273 213.223542 
Q 69.606273 212.604166 69.166327 212.272912 
Q 68.728105 211.939933 67.908597 211.939933 
Q 67.460024 211.939933 66.947615 212.038274 
Q 66.435207 212.13489 65.821007 212.338473 
L 65.821007 211.368865 
Q 66.442108 211.196337 66.983846 211.110073 
Q 67.525584 211.023809 68.005212 211.023809 
Q 69.24569 211.023809 69.966857 211.587976 
Q 70.68975 212.150417 70.68975 213.109674 
Q 70.68975 213.779083 70.306737 214.239733 
Q 69.923725 214.700383 69.218085 214.878087 
z
M 73.05662 217.849021 
L 74.19358 217.849021 
L 74.19358 218.777222 
L 73.310236 220.502503 
L 72.614948 220.502503 
L 73.05662 218.777222 
z
M 79.445982 212.117637 
L 76.695884 216.415312 
L 79.445982 216.415312 
z
M 79.159585 211.168733 
L 80.529458 211.168733 
L 80.529458 216.415312 
L 81.678496 216.415312 
L 81.678496 217.321085 
L 80.529458 217.321085 
L 80.529458 219.218894 
L 79.445982 219.218894 
L 79.445982 217.321085 
L 75.81254 217.321085 
L 75.81254 216.270388 
z
M 83.591617 217.849021 
L 84.728577 217.849021 
L 84.728577 218.777222 
L 83.845233 220.502503 
L 83.149945 220.502503 
L 83.591617 218.777222 
z
M 89.453043 214.760768 
Q 88.719799 214.760768 88.290204 215.262824 
Q 87.862334 215.763156 87.862334 216.636148 
Q 87.862334 217.503964 88.290204 218.009472 
Q 88.719799 218.513254 89.453043 218.513254 
Q 90.186288 218.513254 90.614157 218.009472 
Q 91.042027 217.503964 91.042027 216.636148 
Q 91.042027 215.763156 90.614157 215.262824 
Q 90.186288 214.760768 89.453043 214.760768 
z
M 91.61482 211.346437 
L 91.61482 212.338473 
Q 91.204203 212.145242 90.786685 212.04345 
Q 90.369167 211.939933 89.95855 211.939933 
Q 88.88025 211.939933 88.310907 212.668002 
Q 87.74329 213.39607 87.662201 214.867735 
Q 87.979653 214.398459 88.459281 214.148293 
Q 88.940635 213.898127 89.516878 213.898127 
Q 90.729751 213.898127 91.433666 214.634822 
Q 92.13758 215.369792 92.13758 216.636148 
Q 92.13758 217.876625 91.404336 218.627122 
Q 90.671091 219.375894 89.453043 219.375894 
Q 88.055565 219.375894 87.317145 218.30622 
Q 86.578725 217.234821 86.578725 215.20244 
Q 86.578725 213.294279 87.484497 212.159044 
Q 88.39027 211.023809 89.915418 211.023809 
Q 90.326035 211.023809 90.743553 211.104897 
Q 91.161071 211.185985 91.61482 211.346437 
z
"/>
   </g>
   <g id="patch_13">
    <path clip-path="url(#pfa400e2da7)" d="M 73.129297 190.629262 
L 73.129297 208.29614 
L 55.46242 208.29614 
L 55.46242 190.629262 
L 73.129297 190.629262 
z
" style="fill:#0090bc;stroke:#000000;stroke-linejoin:miter;stroke-width:1.674;"/>
   </g>
   <g id="patch_14">
    <path clip-path="url(#pfa400e2da7)" d="M 70.920937 219.337938 
L 57.670779 232.588096 
z
" style="fill:#ffffff;stroke:#000000;stroke-linejoin:miter;stroke-width:1.674;"/>
   </g>
   <g id="patch_15">
    <path clip-path="url(#pfa400e2da7)" d="M 57.670779 219.337938 
L 70.920937 232.588096 
z
" style="fill:#ffffff;stroke:#000000;stroke-linejoin:miter;stroke-width:1.674;"/>
   </g>
  </g>
  <g id="axes_4">
   <g id="line2d_6">
    <path clip-path="url(#pebdad8fc4c)" d="M 91.312897 258.643037 
L 60.294638 258.643037 
" style="fill:none;stroke:#000000;stroke-linecap:square;stroke-width:0.6696;"/>
   </g>
   <g id="line2d_7">
    <path clip-path="url(#pebdad8fc4c)" d="M 91.312897 258.643037 
L 91.312897 277.253992 
" style="fill:none;stroke:#000000;stroke-linecap:square;stroke-width:0.6696;"/>
   </g>
   <g id="line2d_8">
    <path clip-path="url(#pebdad8fc4c)" d="M 60.294638 258.643037 
L 29.276379 258.643037 
" style="fill:none;stroke:#000000;stroke-linecap:square;stroke-width:0.6696;"/>
   </g>
   <g id="line2d_9">
    <path clip-path="url(#pebdad8fc4c)" d="M 60.294638 258.643037 
L 60.294638 277.253992 
" style="fill:none;stroke:#000000;stroke-linecap:square;stroke-width:0.6696;"/>
   </g>
   <g id="line2d_10">
    <path clip-path="url(#pebdad8fc4c)" d="M 122.331156 258.643037 
L 91.312897 258.643037 
" style="fill:none;stroke:#000000;stroke-linecap:square;stroke-width:0.6696;"/>
   </g>
   <g id="patch_16">
    <path clip-path="url(#pebdad8fc4c)" d="M 70.717258 257.760955 
L 70.717258 259.635379 
L 70.016923 259.635379 
L 70.016923 253.80855 
Q 70.016923 252.081948 71.629631 252.081948 
Q 73.273841 252.081948 73.273841 253.539564 
Q 73.273841 254.576737 72.621973 254.955984 
Q 73.682167 255.296458 73.682167 256.306974 
Q 73.682167 258.102641 71.857421 258.102641 
Q 71.054097 258.102641 70.717258 257.760955 
z
M 70.717258 256.852217 
Q 71.1377 257.50772 71.884077 257.50772 
Q 72.974563 257.50772 72.974563 256.319091 
Q 72.974563 255.250415 71.217669 255.334019 
L 71.217669 254.690632 
Q 72.591681 254.690632 72.591681 253.478981 
Q 72.591681 252.650212 71.705965 252.650212 
Q 70.717258 252.650212 70.717258 253.831572 
z
"/>
   </g>
   <g id="patch_17">
    <path clip-path="url(#pebdad8fc4c)" d="M 81.526394 253.035517 
L 79.595023 256.053739 
L 81.526394 256.053739 
z
M 81.32526 252.369109 
L 82.287311 252.369109 
L 82.287311 256.053739 
L 83.09427 256.053739 
L 83.09427 256.689856 
L 82.287311 256.689856 
L 82.287311 258.022672 
L 81.526394 258.022672 
L 81.526394 256.689856 
L 78.974657 256.689856 
L 78.974657 255.951961 
z
"/>
   </g>
   <g id="patch_18">
    <path clip-path="url(#pebdad8fc4c)" d="M 94.769736 269.469136 
Q 95.318614 269.586666 95.626373 269.958643 
Q 95.935344 270.329408 95.935344 270.874651 
Q 95.935344 271.71069 95.35981 272.169906 
Q 94.784276 272.62791 93.724082 272.62791 
Q 93.369068 272.62791 92.992245 272.557634 
Q 92.615421 272.487358 92.214365 272.346807 
L 92.214365 271.608911 
Q 92.531818 271.794294 92.909853 271.888803 
Q 93.289099 271.983312 93.702272 271.983312 
Q 94.420781 271.983312 94.797604 271.699785 
Q 95.174428 271.416259 95.174428 270.874651 
Q 95.174428 270.374239 94.824261 270.093136 
Q 94.474094 269.810822 93.850094 269.810822 
L 93.190956 269.810822 
L 93.190956 269.181975 
L 93.880385 269.181975 
Q 94.443802 269.181975 94.74308 268.956608 
Q 95.042358 268.731241 95.042358 268.307163 
Q 95.042358 267.872181 94.733387 267.639544 
Q 94.425628 267.405695 93.850094 267.405695 
Q 93.535064 267.405695 93.175204 267.474759 
Q 92.815344 267.542612 92.383996 267.685586 
L 92.383996 267.004639 
Q 92.82019 266.883474 93.200649 266.822891 
Q 93.581107 266.762309 93.917946 266.762309 
Q 94.789123 266.762309 95.295593 267.158518 
Q 95.803274 267.553516 95.803274 268.227194 
Q 95.803274 268.697315 95.534288 269.020825 
Q 95.265302 269.344336 94.769736 269.469136 
z
M 97.465508 271.555599 
L 98.263986 271.555599 
L 98.263986 272.207467 
L 97.643621 273.419118 
L 97.155325 273.419118 
L 97.465508 272.207467 
z
M 101.58194 269.386744 
Q 101.066988 269.386744 100.765287 269.739334 
Q 100.464798 270.090713 100.464798 270.703808 
Q 100.464798 271.313269 100.765287 271.668282 
Q 101.066988 272.022084 101.58194 272.022084 
Q 102.096891 272.022084 102.397381 271.668282 
Q 102.69787 271.313269 102.69787 270.703808 
Q 102.69787 270.090713 102.397381 269.739334 
Q 102.096891 269.386744 101.58194 269.386744 
z
M 103.100138 266.988887 
L 103.100138 267.685586 
Q 102.811765 267.549881 102.518546 267.478394 
Q 102.225326 267.405695 101.936953 267.405695 
Q 101.179672 267.405695 100.779827 267.917012 
Q 100.381194 268.428328 100.324246 269.461866 
Q 100.54719 269.132297 100.884029 268.956608 
Q 101.22208 268.780919 101.626771 268.780919 
Q 102.478561 268.780919 102.972915 269.298294 
Q 103.467268 269.814457 103.467268 270.703808 
Q 103.467268 271.574985 102.952317 272.102053 
Q 102.437365 272.62791 101.58194 272.62791 
Q 100.600503 272.62791 100.081916 271.876686 
Q 99.56333 271.124251 99.56333 269.696927 
Q 99.56333 268.356841 100.199446 267.559575 
Q 100.835563 266.762309 101.906662 266.762309 
Q 102.195035 266.762309 102.488255 266.819256 
Q 102.781474 266.876204 103.100138 266.988887 
z
"/>
   </g>
   <g id="patch_19">
    <path clip-path="url(#pebdad8fc4c)" d="M 39.698999 257.760955 
L 39.698999 259.635379 
L 38.998665 259.635379 
L 38.998665 253.80855 
Q 38.998665 252.081948 40.611372 252.081948 
Q 42.255582 252.081948 42.255582 253.539564 
Q 42.255582 254.576737 41.603714 254.955984 
Q 42.663908 255.296458 42.663908 256.306974 
Q 42.663908 258.102641 40.839162 258.102641 
Q 40.035838 258.102641 39.698999 257.760955 
z
M 39.698999 256.852217 
Q 40.119442 257.50772 40.865818 257.50772 
Q 41.956304 257.50772 41.956304 256.319091 
Q 41.956304 255.250415 40.19941 255.334019 
L 40.19941 254.690632 
Q 41.573422 254.690632 41.573422 253.478981 
Q 41.573422 252.650212 40.687706 252.650212 
Q 39.698999 252.650212 39.698999 253.831572 
z
"/>
   </g>
   <g id="patch_20">
    <path clip-path="url(#pebdad8fc4c)" d="M 50.723809 254.974158 
Q 51.272687 255.091689 51.580446 255.463665 
Q 51.889417 255.83443 51.889417 256.379673 
Q 51.889417 257.215712 51.313883 257.674928 
Q 50.738349 258.132932 49.678154 258.132932 
Q 49.323141 258.132932 48.946317 258.062656 
Q 48.569494 257.99238 48.168437 257.851829 
L 48.168437 257.113934 
Q 48.48589 257.299316 48.863925 257.393825 
Q 49.243172 257.488334 49.656344 257.488334 
Q 50.374853 257.488334 50.751677 257.204807 
Q 51.1285 256.921281 51.1285 256.379673 
Q 51.1285 255.879262 50.778333 255.598159 
Q 50.428166 255.315844 49.804166 255.315844 
L 49.145028 255.315844 
L 49.145028 254.686997 
L 49.834457 254.686997 
Q 50.397875 254.686997 50.697152 254.46163 
Q 50.99643 254.236263 50.99643 253.812185 
Q 50.99643 253.377203 50.687459 253.144566 
Q 50.3797 252.910717 49.804166 252.910717 
Q 49.489137 252.910717 49.129276 252.979781 
Q 48.769416 253.047634 48.338068 253.190609 
L 48.338068 252.509661 
Q 48.774263 252.388496 49.154721 252.327913 
Q 49.535179 252.267331 49.872018 252.267331 
Q 50.743195 252.267331 51.249665 252.663541 
Q 51.757347 253.058539 51.757347 253.732216 
Q 51.757347 254.202337 51.48836 254.525848 
Q 51.219374 254.849358 50.723809 254.974158 
z
"/>
   </g>
   <g id="patch_21">
    <path clip-path="url(#pebdad8fc4c)" d="M 62.092728 271.874263 
L 64.761994 271.874263 
L 64.761994 272.51765 
L 61.173085 272.51765 
L 61.173085 271.874263 
Q 61.608067 271.423529 62.359291 270.665036 
Q 63.111726 269.905331 63.304378 269.68481 
Q 63.671509 269.272849 63.816907 268.986899 
Q 63.963516 268.70095 63.963516 268.424693 
Q 63.963516 267.973959 63.647276 267.690433 
Q 63.331035 267.405695 62.823353 267.405695 
Q 62.463493 267.405695 62.063648 267.530495 
Q 61.665015 267.655295 61.210646 267.909742 
L 61.210646 267.136709 
Q 61.672285 266.951326 62.073341 266.856817 
Q 62.475609 266.762309 62.808813 266.762309 
Q 63.68726 266.762309 64.209481 267.202138 
Q 64.731703 267.640755 64.731703 268.375016 
Q 64.731703 268.723971 64.600845 269.036577 
Q 64.471198 269.347971 64.125878 269.772049 
Q 64.031369 269.882309 63.523687 270.406954 
Q 63.017217 270.931599 62.092728 271.874263 
z
M 66.447249 271.555599 
L 67.245727 271.555599 
L 67.245727 272.207467 
L 66.625362 273.419118 
L 66.137066 273.419118 
L 66.447249 272.207467 
z
M 70.934446 267.530495 
L 69.003075 270.548717 
L 70.934446 270.548717 
z
M 70.733312 266.864087 
L 71.695363 266.864087 
L 71.695363 270.548717 
L 72.502322 270.548717 
L 72.502322 271.184834 
L 71.695363 271.184834 
L 71.695363 272.51765 
L 70.934446 272.51765 
L 70.934446 271.184834 
L 68.38271 271.184834 
L 68.38271 270.446938 
z
M 73.845891 271.555599 
L 74.644369 271.555599 
L 74.644369 272.207467 
L 74.024004 273.419118 
L 73.535709 273.419118 
L 73.845891 272.207467 
z
M 77.962323 269.386744 
Q 77.447372 269.386744 77.145671 269.739334 
Q 76.845181 270.090713 76.845181 270.703808 
Q 76.845181 271.313269 77.145671 271.668282 
Q 77.447372 272.022084 77.962323 272.022084 
Q 78.477275 272.022084 78.777764 271.668282 
Q 79.078254 271.313269 79.078254 270.703808 
Q 79.078254 270.090713 78.777764 269.739334 
Q 78.477275 269.386744 77.962323 269.386744 
z
M 79.480522 266.988887 
L 79.480522 267.685586 
Q 79.192149 267.549881 78.898929 267.478394 
Q 78.60571 267.405695 78.317337 267.405695 
Q 77.560055 267.405695 77.16021 267.917012 
Q 76.761577 268.428328 76.70463 269.461866 
Q 76.927573 269.132297 77.264412 268.956608 
Q 77.602463 268.780919 78.007154 268.780919 
Q 78.858945 268.780919 79.353298 269.298294 
Q 79.847652 269.814457 79.847652 270.703808 
Q 79.847652 271.574985 79.3327 272.102053 
Q 78.817749 272.62791 77.962323 272.62791 
Q 76.980886 272.62791 76.4623 271.876686 
Q 75.943713 271.124251 75.943713 269.696927 
Q 75.943713 268.356841 76.57983 267.559575 
Q 77.215946 266.762309 78.287046 266.762309 
Q 78.575418 266.762309 78.868638 266.819256 
Q 79.161857 266.876204 79.480522 266.988887 
z
"/>
   </g>
   <g id="patch_22">
    <path clip-path="url(#pebdad8fc4c)" d="M 121.562363 262.158036 
L 121.562363 264.032459 
L 120.862029 264.032459 
L 120.862029 258.205631 
Q 120.862029 256.479029 122.474736 256.479029 
Q 124.118946 256.479029 124.118946 257.936645 
Q 124.118946 258.973818 123.467078 259.353064 
Q 124.527273 259.693538 124.527273 260.704055 
Q 124.527273 262.499721 122.702527 262.499721 
Q 121.899202 262.499721 121.562363 262.158036 
z
M 121.562363 261.249298 
Q 121.982806 261.904801 122.729183 261.904801 
Q 123.819669 261.904801 123.819669 260.716171 
Q 123.819669 259.647495 122.062775 259.731099 
L 122.062775 259.087713 
Q 123.436787 259.087713 123.436787 257.876062 
Q 123.436787 257.047293 122.55107 257.047293 
Q 121.562363 257.047293 121.562363 258.228652 
z
"/>
   </g>
   <g id="patch_23">
    <path clip-path="url(#pebdad8fc4c)" d="M 97.516549 252.439385 
L 97.516549 264.846689 
L 85.109245 264.846689 
L 85.109245 252.439385 
L 97.516549 252.439385 
z
" style="fill:#0090bc;stroke:#000000;stroke-linejoin:miter;stroke-width:0.6696;"/>
   </g>
   <g id="patch_24">
    <path clip-path="url(#pebdad8fc4c)" d="M 60.294638 264.846689 
C 61.939866 264.846689 63.517931 264.193033 64.681282 263.029681 
C 65.844634 261.866329 66.49829 260.288265 66.49829 258.643037 
C 66.49829 256.997809 65.844634 255.419744 64.681282 254.256393 
C 63.517931 253.093041 61.939866 252.439385 60.294638 252.439385 
C 58.64941 252.439385 57.071345 253.093041 55.907994 254.256393 
C 54.744642 255.419744 54.090986 256.997809 54.090986 258.643037 
C 54.090986 260.288265 54.744642 261.866329 55.907994 263.029681 
C 57.071345 264.193033 58.64941 264.846689 60.294638 264.846689 
z
" style="fill:#ffd400;stroke:#000000;stroke-linejoin:miter;stroke-width:0.6696;"/>
   </g>
   <g id="patch_25">
    <path clip-path="url(#pebdad8fc4c)" d="M 95.965636 272.601253 
L 86.660158 281.906731 
z
" style="fill:#ffffff;stroke:#000000;stroke-linejoin:miter;stroke-width:0.6696;"/>
   </g>
   <g id="patch_26">
    <path clip-path="url(#pebdad8fc4c)" d="M 86.660158 272.601253 
L 95.965636 281.906731 
z
" style="fill:#ffffff;stroke:#000000;stroke-linejoin:miter;stroke-width:0.6696;"/>
   </g>
   <g id="patch_27">
    <path clip-path="url(#pebdad8fc4c)" d="M 35.480031 252.439385 
L 35.480031 264.846689 
L 23.072727 264.846689 
L 23.072727 252.439385 
L 35.480031 252.439385 
z
" style="fill:#0090bc;stroke:#000000;stroke-linejoin:miter;stroke-width:0.6696;"/>
   </g>
   <g id="patch_28">
    <path clip-path="url(#pebdad8fc4c)" d="M 64.947377 272.601253 
L 55.641899 281.906731 
z
" style="fill:#ffffff;stroke:#000000;stroke-linejoin:miter;stroke-width:0.6696;"/>
   </g>
   <g id="patch_29">
    <path clip-path="url(#pebdad8fc4c)" d="M 55.641899 272.601253 
L 64.947377 281.906731 
z
" style="fill:#ffffff;stroke:#000000;stroke-linejoin:miter;stroke-width:0.6696;"/>
   </g>
  </g>
  <g id="axes_5">
   <g id="line2d_11">
    <path clip-path="url(#p1a1c0fd90a)" d="M 110.033766 322.797538 
L 37.566234 322.797538 
" style="fill:none;stroke:#000000;stroke-linecap:square;stroke-width:1.116;"/>
   </g>
   <g id="patch_30">
    <path clip-path="url(#p1a1c0fd90a)" d="M 61.916457 320.736742 
L 61.916457 325.115932 
L 60.280276 325.115932 
L 60.280276 311.502793 
Q 60.280276 307.468956 64.048022 307.468956 
Q 67.889367 307.468956 67.889367 310.874364 
Q 67.889367 313.297497 66.366416 314.183526 
Q 68.843334 314.97897 68.843334 317.339827 
Q 68.843334 321.535017 64.580205 321.535017 
Q 62.703409 321.535017 61.916457 320.736742 
z
M 61.916457 318.61367 
Q 62.898732 320.145113 64.642482 320.145113 
Q 67.190168 320.145113 67.190168 317.368134 
Q 67.190168 314.871401 63.085562 315.066724 
L 63.085562 313.563589 
Q 66.295647 313.563589 66.295647 310.732826 
Q 66.295647 308.796584 64.22636 308.796584 
Q 61.916457 308.796584 61.916457 311.556578 
z
"/>
   </g>
   <g id="patch_31">
    <path clip-path="url(#p1a1c0fd90a)" d="M 87.673569 314.225987 
Q 88.955905 314.500571 89.674919 315.369615 
Q 90.396763 316.235829 90.396763 317.509672 
Q 90.396763 319.462899 89.052151 320.535758 
Q 87.707539 321.605786 85.230621 321.605786 
Q 84.401207 321.605786 83.52084 321.441602 
Q 82.640473 321.277418 81.70349 320.949049 
L 81.70349 319.225115 
Q 82.44515 319.658221 83.328348 319.879021 
Q 84.214377 320.09982 85.179667 320.09982 
Q 86.85831 320.09982 87.738677 319.437422 
Q 88.619044 318.775023 88.619044 317.509672 
Q 88.619044 316.340567 87.800954 315.68383 
Q 86.982863 315.024262 85.52502 315.024262 
L 83.985085 315.024262 
L 83.985085 313.555096 
L 85.595789 313.555096 
Q 86.912094 313.555096 87.611293 313.028574 
Q 88.310491 312.502053 88.310491 311.511286 
Q 88.310491 310.495042 87.588647 309.951535 
Q 86.869633 309.405198 85.52502 309.405198 
Q 84.789022 309.405198 83.948285 309.566551 
Q 83.107549 309.725074 82.099797 310.059104 
L 82.099797 308.468215 
Q 83.118872 308.185139 84.007731 308.043601 
Q 84.896591 307.902063 85.683543 307.902063 
Q 87.718862 307.902063 88.902121 308.827722 
Q 90.08821 309.750551 90.08821 311.324455 
Q 90.08821 312.422791 89.459781 313.178605 
Q 88.831351 313.934419 87.673569 314.225987 
z
"/>
   </g>
   <g id="patch_32">
    <path clip-path="url(#p1a1c0fd90a)" d="M 124.527273 308.304031 
L 124.527273 337.291044 
L 95.54026 337.291044 
L 95.54026 308.304031 
L 124.527273 308.304031 
z
" style="fill:#ffd400;stroke:#000000;stroke-linejoin:miter;stroke-width:1.116;"/>
   </g>
   <g id="patch_33">
    <path clip-path="url(#p1a1c0fd90a)" d="M 37.566234 337.291044 
C 41.409957 337.291044 45.096768 335.763917 47.81469 333.045994 
C 50.532613 330.328072 52.05974 326.64126 52.05974 322.797538 
C 52.05974 318.953815 50.532613 315.267003 47.81469 312.549081 
C 45.096768 309.831158 41.409957 308.304031 37.566234 308.304031 
C 33.722511 308.304031 30.0357 309.831158 27.317777 312.549081 
C 24.599855 315.267003 23.072727 318.953815 23.072727 322.797538 
C 23.072727 326.64126 24.599855 330.328072 27.317777 333.045994 
C 30.0357 335.763917 33.722511 337.291044 37.566234 337.291044 
z
" style="fill:#ffd400;stroke:#000000;stroke-linejoin:miter;stroke-width:1.116;"/>
   </g>
  </g>
  <g id="axes_6">
   <g id="line2d_12">
    <path clip-path="url(#p1e570ba395)" d="M 107.749659 379.450229 
L 37.185549 379.450229 
" style="fill:none;stroke:#000000;stroke-linecap:square;stroke-width:1.116;"/>
   </g>
   <g id="patch_34">
    <path clip-path="url(#p1e570ba395)" d="M 64.93709 373.55151 
L 64.556706 371.561382 
Q 64.170808 369.518881 62.635488 369.518881 
Q 61.483308 369.518881 60.956834 370.467087 
Q 60.292539 371.6551 60.292539 373.223497 
Q 60.292539 375.119908 60.940295 376.02401 
Q 61.593564 376.944651 62.635488 376.944651 
Q 63.790424 376.944651 64.410616 375.108882 
z
M 65.824655 370.916382 
L 66.676385 368.39151 
L 68.090424 368.39151 
L 66.323565 373.62042 
L 66.668116 375.505805 
Q 66.745296 375.927536 67.045744 376.280356 
Q 67.401321 376.693818 67.676962 376.693818 
L 68.434975 376.693818 
L 68.434975 378.038946 
L 67.48677 378.038946 
Q 66.676385 378.038946 65.954206 377.31401 
Q 65.598629 376.952921 65.452539 376.194908 
Q 65.058372 377.151382 64.247988 377.901126 
Q 63.867603 378.253946 62.635488 378.253946 
Q 60.612282 378.253946 59.631 376.944651 
Q 58.622154 375.591254 58.622154 373.223497 
Q 58.622154 370.690356 59.716449 369.502343 
Q 60.932026 368.17651 62.635488 368.17651 
Q 65.314719 368.17651 65.824655 370.916382 
z
"/>
   </g>
   <g id="patch_35">
    <path clip-path="url(#p1e570ba395)" d="M 107.749659 361.809201 
L 124.527273 373.998851 
L 118.118794 393.72212 
L 97.380523 393.72212 
L 90.972045 373.998851 
z
" style="fill:#ffffff;stroke:#000000;stroke-linejoin:miter;stroke-width:1.116;"/>
   </g>
   <g id="patch_36">
    <path clip-path="url(#p1e570ba395)" d="M 51.298371 365.337407 
L 51.298371 393.56305 
L 23.072727 393.56305 
L 23.072727 365.337407 
L 51.298371 365.337407 
z
" style="fill:#ffd400;stroke:#000000;stroke-linejoin:miter;stroke-width:1.116;"/>
   </g>
  </g>
  <g id="axes_7">
   <g id="line2d_13">
    <path clip-path="url(#p8f9e624c1e)" d="M 54.445367 421.005343 
L 54.445367 447.505659 
" style="fill:none;stroke:#000000;stroke-linecap:square;stroke-width:1.116;"/>
   </g>
   <g id="line2d_14">
    <path clip-path="url(#p8f9e624c1e)" d="M 98.61256 421.005343 
L 54.445367 421.005343 
" style="fill:none;stroke:#000000;stroke-linecap:square;stroke-width:1.116;"/>
   </g>
   <g id="patch_37">
    <path clip-path="url(#p8f9e624c1e)" d="M 59.060493 432.946012 
L 56.310395 437.243687 
L 59.060493 437.243687 
z
M 58.774097 431.997108 
L 60.14397 431.997108 
L 60.14397 437.243687 
L 61.293007 437.243687 
L 61.293007 438.14946 
L 60.14397 438.14946 
L 60.14397 440.047269 
L 59.060493 440.047269 
L 59.060493 438.14946 
L 55.427051 438.14946 
L 55.427051 437.098764 
z
"/>
   </g>
   <g id="patch_38">
    <path clip-path="url(#p8f9e624c1e)" d="M 99.798691 421.350399 
L 99.560602 420.104746 
Q 99.319062 418.826313 98.358081 418.826313 
Q 97.636913 418.826313 97.307385 419.419809 
Q 96.891592 420.163405 96.891592 421.14509 
Q 96.891592 422.332084 97.297033 422.897976 
Q 97.705925 423.47422 98.358081 423.47422 
Q 99.080974 423.47422 99.469162 422.325183 
z
M 100.354231 419.70103 
L 100.887343 418.120673 
L 101.772412 418.120673 
L 100.666507 421.393531 
L 100.882167 422.573623 
Q 100.930475 422.837591 101.11853 423.058427 
Q 101.341092 423.317219 101.51362 423.317219 
L 101.988072 423.317219 
L 101.988072 424.159156 
L 101.394575 424.159156 
Q 100.887343 424.159156 100.435319 423.705407 
Q 100.212758 423.479396 100.121318 423.004943 
Q 99.874603 423.603616 99.36737 424.072892 
Q 99.129281 424.293728 98.358081 424.293728 
Q 97.091725 424.293728 96.477525 423.47422 
Q 95.846072 422.627107 95.846072 421.14509 
Q 95.846072 419.559557 96.531008 418.815961 
Q 97.291857 417.986101 98.358081 417.986101 
Q 100.035054 417.986101 100.354231 419.70103 
z
"/>
   </g>
   <g id="patch_39">
    <path clip-path="url(#p8f9e624c1e)" d="M 63.278805 412.171904 
L 63.278805 429.838781 
L 45.611928 429.838781 
L 45.611928 412.171904 
L 63.278805 412.171904 
z
" style="fill:#ffd400;stroke:#000000;stroke-linejoin:miter;stroke-width:1.116;"/>
   </g>
   <g id="patch_40">
    <path clip-path="url(#p8f9e624c1e)" d="M 61.070446 440.88058 
L 47.820288 454.130738 
z
" style="fill:#ffffff;stroke:#000000;stroke-linejoin:miter;stroke-width:1.116;"/>
   </g>
   <g id="patch_41">
    <path clip-path="url(#p8f9e624c1e)" d="M 47.820288 440.88058 
L 61.070446 454.130738 
z
" style="fill:#ffffff;stroke:#000000;stroke-linejoin:miter;stroke-width:1.116;"/>
   </g>
  </g>
  <g id="axes_8">
   <g id="line2d_15">
    <path clip-path="url(#pdeb02f1598)" d="M 73.8 476.038605 
L 73.8 502.820839 
" style="fill:none;stroke:#000000;stroke-linecap:square;stroke-width:1.674;"/>
   </g>
   <g id="patch_42">
    <path clip-path="url(#pdeb02f1598)" d="M 78.774591 491.048687 
Q 79.564457 491.21782 80.007341 491.753116 
Q 80.451968 492.286668 80.451968 493.071304 
Q 80.451968 494.274412 79.623741 494.93525 
Q 78.795514 495.594344 77.269834 495.594344 
Q 76.758949 495.594344 76.216678 495.493213 
Q 75.674408 495.392082 75.097264 495.189821 
L 75.097264 494.127947 
Q 75.554097 494.394723 76.098111 494.530727 
Q 76.643869 494.66673 77.238448 494.66673 
Q 78.272424 494.66673 78.814694 494.25872 
Q 79.356965 493.850709 79.356965 493.071304 
Q 79.356965 492.351183 78.853054 491.946659 
Q 78.349144 491.540392 77.451172 491.540392 
L 76.502634 491.540392 
L 76.502634 490.635446 
L 77.494763 490.635446 
Q 78.305553 490.635446 78.736231 490.31113 
Q 79.166909 489.986814 79.166909 489.376541 
Q 79.166909 488.750576 78.722282 488.415798 
Q 78.279398 488.079277 77.451172 488.079277 
Q 76.997827 488.079277 76.479967 488.178664 
Q 75.962107 488.276308 75.341373 488.482057 
L 75.341373 487.502134 
Q 75.969082 487.32777 76.516583 487.240588 
Q 77.064085 487.153407 77.548815 487.153407 
Q 78.802489 487.153407 79.531328 487.723575 
Q 80.261911 488.292 80.261911 489.261461 
Q 80.261911 489.937992 79.874824 490.403542 
Q 79.487738 490.869093 78.774591 491.048687 
z
"/>
   </g>
   <g id="patch_43">
    <path clip-path="url(#pdeb02f1598)" d="M 73.8 467.557564 
L 84.401301 484.519646 
L 63.198699 484.519646 
L 73.8 467.557564 
z
" style="fill:#ed1c24;stroke:#000000;stroke-linejoin:miter;stroke-width:1.674;"/>
   </g>
   <g id="patch_44">
    <path clip-path="url(#pdeb02f1598)" d="M 80.495559 496.125281 
L 67.104441 509.516398 
z
" style="fill:#ffffff;stroke:#000000;stroke-linejoin:miter;stroke-width:1.674;"/>
   </g>
   <g id="patch_45">
    <path clip-path="url(#pdeb02f1598)" d="M 67.104441 496.125281 
L 80.495559 509.516398 
z
" style="fill:#ffffff;stroke:#000000;stroke-linejoin:miter;stroke-width:1.674;"/>
   </g>
  </g>
  <g id="axes_9">
   <g id="line2d_16">
    <path clip-path="url(#pcfbf3e59bd)" d="M 110.033766 544.340179 
L 37.566234 544.340179 
" style="fill:none;stroke:#000000;stroke-linecap:square;stroke-width:1.116;"/>
   </g>
   <g id="patch_46">
    <path clip-path="url(#pcfbf3e59bd)" d="M 61.916457 542.279384 
L 61.916457 546.658574 
L 60.280276 546.658574 
L 60.280276 533.045435 
Q 60.280276 529.011597 64.048022 529.011597 
Q 67.889367 529.011597 67.889367 532.417005 
Q 67.889367 534.840138 66.366416 535.726167 
Q 68.843334 536.521612 68.843334 538.882468 
Q 68.843334 543.077659 64.580205 543.077659 
Q 62.703409 543.077659 61.916457 542.279384 
z
M 61.916457 540.156311 
Q 62.898732 541.687754 64.642482 541.687754 
Q 67.190168 541.687754 67.190168 538.910776 
Q 67.190168 536.414043 63.085562 536.609365 
L 63.085562 535.10623 
Q 66.295647 535.10623 66.295647 532.275467 
Q 66.295647 530.339225 64.22636 530.339225 
Q 61.916457 530.339225 61.916457 533.099219 
z
"/>
   </g>
   <g id="patch_47">
    <path clip-path="url(#pcfbf3e59bd)" d="M 87.673569 535.768629 
Q 88.955905 536.043213 89.674919 536.912257 
Q 90.396763 537.77847 90.396763 539.052314 
Q 90.396763 541.00554 89.052151 542.078399 
Q 87.707539 543.148428 85.230621 543.148428 
Q 84.401207 543.148428 83.52084 542.984244 
Q 82.640473 542.820059 81.70349 542.491691 
L 81.70349 540.767756 
Q 82.44515 541.200863 83.328348 541.421662 
Q 84.214377 541.642462 85.179667 541.642462 
Q 86.85831 541.642462 87.738677 540.980063 
Q 88.619044 540.317665 88.619044 539.052314 
Q 88.619044 537.883209 87.800954 537.226472 
Q 86.982863 536.566904 85.52502 536.566904 
L 83.985085 536.566904 
L 83.985085 535.097738 
L 85.595789 535.097738 
Q 86.912094 535.097738 87.611293 534.571216 
Q 88.310491 534.044694 88.310491 533.053927 
Q 88.310491 532.037683 87.588647 531.494177 
Q 86.869633 530.947839 85.52502 530.947839 
Q 84.789022 530.947839 83.948285 531.109193 
Q 83.107549 531.267716 82.099797 531.601746 
L 82.099797 530.010857 
Q 83.118872 529.727781 84.007731 529.586242 
Q 84.896591 529.444704 85.683543 529.444704 
Q 87.718862 529.444704 88.902121 530.370364 
Q 90.08821 531.293192 90.08821 532.867097 
Q 90.08821 533.965433 89.459781 534.721246 
Q 88.831351 535.47706 87.673569 535.768629 
z
"/>
   </g>
   <g id="patch_48">
    <path clip-path="url(#pcfbf3e59bd)" d="M 124.527273 529.846673 
L 124.527273 558.833686 
L 95.54026 558.833686 
L 95.54026 529.846673 
L 124.527273 529.846673 
z
" style="fill:#0090bc;stroke:#000000;stroke-linejoin:miter;stroke-width:1.116;"/>
   </g>
   <g id="patch_49">
    <path clip-path="url(#pcfbf3e59bd)" d="M 37.566234 558.833686 
C 41.409957 558.833686 45.096768 557.306558 47.81469 554.588636 
C 50.532613 551.870713 52.05974 548.183902 52.05974 544.340179 
C 52.05974 540.496456 50.532613 536.809645 47.81469 534.091722 
C 45.096768 531.3738 41.409957 529.846673 37.566234 529.846673 
C 33.722511 529.846673 30.0357 531.3738 27.317777 534.091722 
C 24.599855 536.809645 23.072727 540.496456 23.072727 544.340179 
C 23.072727 548.183902 24.599855 551.870713 27.317777 554.588636 
C 30.0357 557.306558 33.722511 558.833686 37.566234 558.833686 
z
" style="fill:#ffd400;stroke:#000000;stroke-linejoin:miter;stroke-width:1.116;"/>
   </g>
  </g>
 </g>
 <defs>
  <clipPath id="p447a4cb605">
   <rect height="46.154717" width="62.013759" x="42.793121" y="77.76"/>
  </clipPath>
  <clipPath id="pe1b3245394">
   <rect height="20.174616" width="111.6" x="18" y="146.135711"/>
  </clipPath>
  <clipPath id="pfa400e2da7">
   <rect height="46.154717" width="40.342677" x="53.628662" y="188.531321"/>
  </clipPath>
  <clipPath id="pebdad8fc4c">
   <rect height="32.807261" width="111.6" x="18" y="250.590709"/>
  </clipPath>
  <clipPath id="p1a1c0fd90a">
   <rect height="32.804297" width="111.6" x="18" y="305.977852"/>
  </clipPath>
  <clipPath id="p1e570ba395">
   <rect height="35.10421" width="111.6" x="18" y="360.213555"/>
  </clipPath>
  <clipPath id="p8f9e624c1e">
   <rect height="46.154717" width="62.013759" x="42.793121" y="410.073962"/>
  </clipPath>
  <clipPath id="pdeb02f1598">
   <rect height="46.154717" width="23.322862" x="62.138569" y="465.459623"/>
  </clipPath>
  <clipPath id="pcfbf3e59bd">
   <rect height="32.804297" width="111.6" x="18" y="527.520493"/>
  </clipPath>
 </defs>
</svg>
