<?xml version="1.0" encoding="utf-8" standalone="no"?>
<!DOCTYPE svg PUBLIC "-//W3C//DTD SVG 1.1//EN"
  "http://www.w3.org/Graphics/SVG/1.1/DTD/svg11.dtd">
<!-- Created with matplotlib (http://matplotlib.org/) -->
<svg height="216pt" version="1.1" viewBox="0 0 144 216" width="144pt" xmlns="http://www.w3.org/2000/svg" xmlns:xlink="http://www.w3.org/1999/xlink">
 <defs>
  <style type="text/css">
*{stroke-linecap:butt;stroke-linejoin:round;}
  </style>
 </defs>
 <g id="figure_1">
  <g id="patch_1">
   <path d="M 0 216 
L 144 216 
L 144 0 
L 0 0 
z
" style="fill:#ffffff;"/>
  </g>
  <g id="axes_1">
   <g id="line2d_1">
    <path clip-path="url(#p2a0875f636)" d="M 92.199955 37.479893 
L 92.199955 64.859572 
" style="fill:none;stroke:#000000;stroke-linecap:square;stroke-width:1.116;"/>
   </g>
   <g id="line2d_2">
    <path clip-path="url(#p2a0875f636)" d="M 92.199955 37.479893 
L 46.567157 37.479893 
" style="fill:none;stroke:#000000;stroke-linecap:square;stroke-width:1.116;"/>
   </g>
   <g id="patch_2">
    <path clip-path="url(#p2a0875f636)" d="M 94.845232 56.945134 
L 98.772148 56.945134 
L 98.772148 57.891658 
L 93.492291 57.891658 
L 93.492291 56.945134 
Q 94.132219 56.282032 95.237389 55.166168 
Q 96.34434 54.04852 96.627763 53.7241 
Q 97.16787 53.118039 97.381774 52.697362 
Q 97.59746 52.276684 97.59746 51.870267 
Q 97.59746 51.207166 97.132219 50.790053 
Q 96.666979 50.371159 95.920098 50.371159 
Q 95.390686 50.371159 94.802451 50.554759 
Q 94.215998 50.73836 93.547549 51.112692 
L 93.547549 49.975437 
Q 94.226693 49.702709 94.816711 49.563672 
Q 95.408512 49.424635 95.898708 49.424635 
Q 97.191043 49.424635 97.959314 50.071693 
Q 98.727585 50.71697 98.727585 51.797184 
Q 98.727585 52.310553 98.535071 52.770446 
Q 98.34434 53.228556 97.836319 53.852442 
Q 97.697282 54.014652 96.950401 54.786488 
Q 96.205303 55.558324 94.845232 56.945134 
z
M 101.251426 56.476328 
L 102.426114 56.476328 
L 102.426114 57.43533 
L 101.513458 59.217861 
L 100.795098 59.217861 
L 101.251426 57.43533 
z
M 107.852807 50.554759 
L 105.011453 54.995045 
L 107.852807 54.995045 
z
M 107.556907 49.574367 
L 108.972237 49.574367 
L 108.972237 54.995045 
L 110.159403 54.995045 
L 110.159403 55.930873 
L 108.972237 55.930873 
L 108.972237 57.891658 
L 107.852807 57.891658 
L 107.852807 55.930873 
L 104.098797 55.930873 
L 104.098797 54.845312 
z
"/>
   </g>
   <g id="patch_3">
    <path clip-path="url(#p2a0875f636)" d="M 64.513681 33.665276 
L 64.267692 32.378289 
Q 64.018137 31.057433 63.025267 31.057433 
Q 62.280169 31.057433 61.939706 31.670624 
Q 61.510116 32.438895 61.510116 33.453155 
Q 61.510116 34.679537 61.929011 35.264207 
Q 62.351471 35.859572 63.025267 35.859572 
Q 63.772148 35.859572 64.173217 34.672406 
z
M 65.087656 31.961176 
L 65.638458 30.328378 
L 66.552897 30.328378 
L 65.410294 33.70984 
L 65.633111 34.929091 
Q 65.683021 35.201818 65.877317 35.429982 
Q 66.107264 35.697362 66.285517 35.697362 
L 66.775713 35.697362 
L 66.775713 36.567237 
L 66.162522 36.567237 
Q 65.638458 36.567237 65.171435 36.098431 
Q 64.941488 35.86492 64.847014 35.374724 
Q 64.592112 35.993262 64.068048 36.478111 
Q 63.822059 36.706275 63.025267 36.706275 
Q 61.716889 36.706275 61.082308 35.859572 
Q 60.429902 34.984349 60.429902 33.453155 
Q 60.429902 31.815009 61.137567 31.046738 
Q 61.923663 30.18934 63.025267 30.18934 
Q 64.757888 30.18934 65.087656 31.961176 
z
"/>
   </g>
   <g id="patch_4">
    <path clip-path="url(#p2a0875f636)" d="M 78.119742 32.082389 
Q 78.927228 32.255294 79.379991 32.802531 
Q 79.834537 33.347986 79.834537 34.150125 
Q 79.834537 35.380071 78.987834 36.055651 
Q 78.141132 36.729447 76.581417 36.729447 
Q 76.059135 36.729447 75.504768 36.626061 
Q 74.950401 36.522674 74.360383 36.3159 
L 74.360383 35.230339 
Q 74.827406 35.503066 75.383556 35.642103 
Q 75.941488 35.781141 76.549332 35.781141 
Q 77.606373 35.781141 78.16074 35.364029 
Q 78.715107 34.946916 78.715107 34.150125 
Q 78.715107 33.413939 78.199955 33.000392 
Q 77.684804 32.585062 76.7668 32.585062 
L 75.797103 32.585062 
L 75.797103 31.659929 
L 76.811364 31.659929 
Q 77.640241 31.659929 78.080526 31.328378 
Q 78.520811 30.996827 78.520811 30.372941 
Q 78.520811 29.733012 78.066266 29.390766 
Q 77.613503 29.046738 76.7668 29.046738 
Q 76.303342 29.046738 75.77393 29.148342 
Q 75.244519 29.248164 74.609938 29.458503 
L 74.609938 28.45672 
Q 75.251649 28.278467 75.811364 28.18934 
Q 76.371078 28.100214 76.866622 28.100214 
Q 78.148262 28.100214 78.89336 28.683102 
Q 79.640241 29.264207 79.640241 30.255294 
Q 79.640241 30.946916 79.244519 31.422852 
Q 78.848797 31.898788 78.119742 32.082389 
z
"/>
   </g>
   <g id="patch_5">
    <path clip-path="url(#p2a0875f636)" d="M 92.199955 46.606453 
C 94.620347 46.606453 96.941932 45.644821 98.653408 43.933345 
C 100.364883 42.22187 101.326515 39.900285 101.326515 37.479893 
C 101.326515 35.059501 100.364883 32.737916 98.653408 31.026441 
C 96.941932 29.314965 94.620347 28.353333 92.199955 28.353333 
C 89.779564 28.353333 87.457979 29.314965 85.746503 31.026441 
C 84.035028 32.737916 83.073396 35.059501 83.073396 37.479893 
C 83.073396 39.900285 84.035028 42.22187 85.746503 43.933345 
C 87.457979 45.644821 89.779564 46.606453 92.199955 46.606453 
z
" style="fill:#00a651;stroke:#000000;stroke-linejoin:miter;stroke-width:1.116;"/>
   </g>
   <g id="patch_6">
    <path clip-path="url(#p2a0875f636)" d="M 99.044875 58.014652 
L 85.355036 71.704492 
z
" style="fill:#ffffff;stroke:#000000;stroke-linejoin:miter;stroke-width:1.116;"/>
   </g>
   <g id="patch_7">
    <path clip-path="url(#p2a0875f636)" d="M 85.355036 58.014652 
L 99.044875 71.704492 
z
" style="fill:#ffffff;stroke:#000000;stroke-linejoin:miter;stroke-width:1.116;"/>
   </g>
   <g id="patch_8">
    <path clip-path="url(#p2a0875f636)" d="M 46.567157 46.606453 
C 48.987549 46.606453 51.309134 45.644821 53.020609 43.933345 
C 54.732085 42.22187 55.693717 39.900285 55.693717 37.479893 
C 55.693717 35.059501 54.732085 32.737916 53.020609 31.026441 
C 51.309134 29.314965 48.987549 28.353333 46.567157 28.353333 
C 44.146765 28.353333 41.82518 29.314965 40.113705 31.026441 
C 38.402229 32.737916 37.440597 35.059501 37.440597 37.479893 
C 37.440597 39.900285 38.402229 42.22187 40.113705 43.933345 
C 41.82518 45.644821 44.146765 46.606453 46.567157 46.606453 
z
" style="fill:#00a651;stroke:#000000;stroke-linejoin:miter;stroke-width:1.116;"/>
   </g>
  </g>
  <g id="axes_2">
   <g id="line2d_3">
    <path clip-path="url(#p212cad5c35)" d="M 53.686361 94.837709 
L 53.686361 122.377253 
" style="fill:none;stroke:#000000;stroke-linecap:square;stroke-width:1.116;"/>
   </g>
   <g id="line2d_4">
    <path clip-path="url(#p212cad5c35)" d="M 99.585601 94.837709 
L 53.686361 94.837709 
" style="fill:none;stroke:#000000;stroke-linecap:square;stroke-width:1.116;"/>
   </g>
   <g id="patch_9">
    <path clip-path="url(#p212cad5c35)" d="M 58.801616 110.85762 
Q 59.613818 111.031535 60.069224 111.581967 
Q 60.526424 112.130606 60.526424 112.937429 
Q 60.526424 114.174557 59.674778 114.854081 
Q 58.823132 115.531812 57.25431 115.531812 
Q 56.728979 115.531812 56.171375 115.427821 
Q 55.613771 115.323831 55.020308 115.11585 
L 55.020308 114.02395 
Q 55.490058 114.29827 56.049455 114.438119 
Q 56.610645 114.577968 57.222037 114.577968 
Q 58.28525 114.577968 58.842854 114.15842 
Q 59.400458 113.738873 59.400458 112.937429 
Q 59.400458 112.196945 58.882299 111.780983 
Q 58.364139 111.363228 57.440776 111.363228 
L 56.465417 111.363228 
L 56.465417 110.432693 
L 57.485599 110.432693 
Q 58.319316 110.432693 58.762172 110.099206 
Q 59.205028 109.76572 59.205028 109.138191 
Q 59.205028 108.494526 58.747828 108.150282 
Q 58.292422 107.804244 57.440776 107.804244 
Q 56.974612 107.804244 56.442109 107.906442 
Q 55.909606 108.006846 55.271319 108.218413 
L 55.271319 107.210781 
Q 55.916778 107.031488 56.47976 106.941841 
Q 57.042743 106.852194 57.54118 106.852194 
Q 58.830304 106.852194 59.579752 107.438485 
Q 60.330994 108.022983 60.330994 109.019857 
Q 60.330994 109.715517 59.932961 110.194232 
Q 59.534929 110.672947 58.801616 110.85762 
z
M 62.790682 113.945061 
L 63.972229 113.945061 
L 63.972229 114.909662 
L 63.054244 116.702601 
L 62.331689 116.702601 
L 62.790682 114.909662 
z
M 69.430607 107.988917 
L 66.572663 112.455128 
L 69.430607 112.455128 
z
M 69.13298 107.002801 
L 70.556573 107.002801 
L 70.556573 112.455128 
L 71.750671 112.455128 
L 71.750671 113.396421 
L 70.556573 113.396421 
L 70.556573 115.368654 
L 69.430607 115.368654 
L 69.430607 113.396421 
L 65.654678 113.396421 
L 65.654678 112.304521 
z
M 73.738816 113.945061 
L 74.920363 113.945061 
L 74.920363 114.909662 
L 74.002378 116.702601 
L 73.279824 116.702601 
L 73.738816 114.909662 
z
M 79.830102 110.7357 
Q 79.068103 110.7357 78.621661 111.257445 
Q 78.177012 111.777397 78.177012 112.684624 
Q 78.177012 113.586473 78.621661 114.111804 
Q 79.068103 114.635342 79.830102 114.635342 
Q 80.592101 114.635342 81.03675 114.111804 
Q 81.481399 113.586473 81.481399 112.684624 
Q 81.481399 111.777397 81.03675 111.257445 
Q 80.592101 110.7357 79.830102 110.7357 
z
M 82.076655 107.187473 
L 82.076655 108.218413 
Q 81.649935 108.017604 81.216044 107.911821 
Q 80.782153 107.804244 80.355433 107.804244 
Q 79.234847 107.804244 78.643177 108.560865 
Q 78.0533 109.317485 77.969032 110.846862 
Q 78.298932 110.359182 78.797369 110.099206 
Q 79.297599 109.83923 79.896441 109.83923 
Q 81.156877 109.83923 81.888396 110.604815 
Q 82.619915 111.368607 82.619915 112.684624 
Q 82.619915 113.973748 81.857916 114.753676 
Q 81.095917 115.531812 79.830102 115.531812 
Q 78.377822 115.531812 77.610444 114.420189 
Q 76.843066 113.306774 76.843066 111.194692 
Q 76.843066 109.211701 77.784359 108.031948 
Q 78.725652 106.852194 80.31061 106.852194 
Q 80.737329 106.852194 81.171221 106.936462 
Q 81.605112 107.02073 82.076655 107.187473 
z
"/>
   </g>
   <g id="patch_10">
    <path clip-path="url(#p212cad5c35)" d="M 100.818247 95.196297 
L 100.570821 93.901795 
Q 100.31981 92.573227 99.321143 92.573227 
Q 98.571694 92.573227 98.229243 93.189998 
Q 97.797145 93.962755 97.797145 94.982937 
Q 97.797145 96.216479 98.218485 96.804563 
Q 98.643412 97.403405 99.321143 97.403405 
Q 100.072384 97.403405 100.475796 96.209307 
z
M 101.395573 93.482247 
L 101.949592 91.839915 
L 102.869369 91.839915 
L 101.720095 95.24112 
L 101.944213 96.467491 
Q 101.994415 96.74181 102.189845 96.971306 
Q 102.421135 97.240247 102.600428 97.240247 
L 103.093487 97.240247 
L 103.093487 98.115202 
L 102.476716 98.115202 
Q 101.949592 98.115202 101.479842 97.643659 
Q 101.248552 97.408784 101.153527 96.915725 
Q 100.897136 97.537875 100.370012 98.025555 
Q 100.122587 98.255051 99.321143 98.255051 
Q 98.005126 98.255051 97.366839 97.403405 
Q 96.710624 96.523072 96.710624 94.982937 
Q 96.710624 93.335226 97.42242 92.562469 
Q 98.213107 91.700066 99.321143 91.700066 
Q 101.06388 91.700066 101.395573 93.482247 
z
"/>
   </g>
   <g id="patch_11">
    <path clip-path="url(#p212cad5c35)" d="M 53.686361 104.017557 
C 56.120885 104.017557 58.456026 103.05031 60.177494 101.328842 
C 61.898963 99.607373 62.866209 97.272233 62.866209 94.837709 
C 62.866209 92.403185 61.898963 90.068045 60.177494 88.346576 
C 58.456026 86.625108 56.120885 85.657861 53.686361 85.657861 
C 51.251837 85.657861 48.916697 86.625108 47.195229 88.346576 
C 45.47376 90.068045 44.506513 92.403185 44.506513 94.837709 
C 44.506513 97.272233 45.47376 99.607373 47.195229 101.328842 
C 48.916697 103.05031 51.251837 104.017557 53.686361 104.017557 
z
" style="fill:#00a651;stroke:#000000;stroke-linejoin:miter;stroke-width:1.116;"/>
   </g>
   <g id="patch_12">
    <path clip-path="url(#p212cad5c35)" d="M 60.571247 115.492367 
L 46.801475 129.262139 
z
" style="fill:#ffffff;stroke:#000000;stroke-linejoin:miter;stroke-width:1.116;"/>
   </g>
   <g id="patch_13">
    <path clip-path="url(#p212cad5c35)" d="M 46.801475 115.492367 
L 60.571247 129.262139 
z
" style="fill:#ffffff;stroke:#000000;stroke-linejoin:miter;stroke-width:1.116;"/>
   </g>
  </g>
  <g id="axes_3">
   <g id="line2d_5">
    <path clip-path="url(#pe4de88b027)" d="M 110.033766 165.218631 
L 37.566234 165.218631 
" style="fill:none;stroke:#000000;stroke-linecap:square;stroke-width:1.116;"/>
   </g>
   <g id="patch_14">
    <path clip-path="url(#pe4de88b027)" d="M 66.066356 159.160798 
L 65.67571 157.116988 
Q 65.279403 155.019392 63.702668 155.019392 
Q 62.519409 155.019392 61.978734 155.993175 
Q 61.29652 157.213234 61.29652 158.823938 
Q 61.29652 160.771503 61.961749 161.699993 
Q 62.63264 162.645468 63.702668 162.645468 
Q 64.888758 162.645468 65.52568 160.76018 
z
M 66.977861 156.454589 
L 67.852567 153.86161 
L 69.304748 153.86161 
L 67.490229 159.231568 
L 67.844075 161.167809 
Q 67.923336 161.600916 68.231889 161.963254 
Q 68.597058 162.387868 68.880134 162.387868 
L 69.658594 162.387868 
L 69.658594 163.769281 
L 68.684811 163.769281 
Q 67.852567 163.769281 67.110907 163.02479 
Q 66.745739 162.65396 66.595708 161.8755 
Q 66.190909 162.857775 65.358665 163.627742 
Q 64.968019 163.99008 63.702668 163.99008 
Q 61.624888 163.99008 60.617137 162.645468 
Q 59.581078 161.255563 59.581078 158.823938 
Q 59.581078 156.222466 60.70489 155.002408 
Q 61.953257 153.640811 63.702668 153.640811 
Q 66.45417 153.640811 66.977861 156.454589 
z
"/>
   </g>
   <g id="patch_15">
    <path clip-path="url(#pe4de88b027)" d="M 87.673569 156.647081 
Q 88.955905 156.921665 89.674919 157.790709 
Q 90.396763 158.656923 90.396763 159.930766 
Q 90.396763 161.883992 89.052151 162.956852 
Q 87.707539 164.02688 85.230621 164.02688 
Q 84.401207 164.02688 83.52084 163.862696 
Q 82.640473 163.698512 81.70349 163.370143 
L 81.70349 161.646208 
Q 82.44515 162.079315 83.328348 162.300115 
Q 84.214377 162.520914 85.179667 162.520914 
Q 86.85831 162.520914 87.738677 161.858516 
Q 88.619044 161.196117 88.619044 159.930766 
Q 88.619044 158.761661 87.800954 158.104924 
Q 86.982863 157.445356 85.52502 157.445356 
L 83.985085 157.445356 
L 83.985085 155.97619 
L 85.595789 155.97619 
Q 86.912094 155.97619 87.611293 155.449668 
Q 88.310491 154.923146 88.310491 153.932379 
Q 88.310491 152.916135 87.588647 152.372629 
Q 86.869633 151.826292 85.52502 151.826292 
Q 84.789022 151.826292 83.948285 151.987645 
Q 83.107549 152.146168 82.099797 152.480198 
L 82.099797 150.889309 
Q 83.118872 150.606233 84.007731 150.464695 
Q 84.896591 150.323156 85.683543 150.323156 
Q 87.718862 150.323156 88.902121 151.248816 
Q 90.08821 152.171645 90.08821 153.745549 
Q 90.08821 154.843885 89.459781 155.599699 
Q 88.831351 156.355512 87.673569 156.647081 
z
"/>
   </g>
   <g id="patch_16">
    <path clip-path="url(#pe4de88b027)" d="M 110.033766 179.712138 
C 113.877489 179.712138 117.5643 178.18501 120.282223 175.467088 
C 123.000145 172.749165 124.527273 169.062354 124.527273 165.218631 
C 124.527273 161.374908 123.000145 157.688097 120.282223 154.970175 
C 117.5643 152.252252 113.877489 150.725125 110.033766 150.725125 
C 106.190043 150.725125 102.503232 152.252252 99.78531 154.970175 
C 97.067387 157.688097 95.54026 161.374908 95.54026 165.218631 
C 95.54026 169.062354 97.067387 172.749165 99.78531 175.467088 
C 102.503232 178.18501 106.190043 179.712138 110.033766 179.712138 
z
" style="fill:#00a651;stroke:#000000;stroke-linejoin:miter;stroke-width:1.116;"/>
   </g>
   <g id="patch_17">
    <path clip-path="url(#pe4de88b027)" d="M 37.566234 179.712138 
C 41.409957 179.712138 45.096768 178.18501 47.81469 175.467088 
C 50.532613 172.749165 52.05974 169.062354 52.05974 165.218631 
C 52.05974 161.374908 50.532613 157.688097 47.81469 154.970175 
C 45.096768 152.252252 41.409957 150.725125 37.566234 150.725125 
C 33.722511 150.725125 30.0357 152.252252 27.317777 154.970175 
C 24.599855 157.688097 23.072727 161.374908 23.072727 165.218631 
C 23.072727 169.062354 24.599855 172.749165 27.317777 175.467088 
C 30.0357 178.18501 33.722511 179.712138 37.566234 179.712138 
z
" style="fill:#00a651;stroke:#000000;stroke-linejoin:miter;stroke-width:1.116;"/>
   </g>
  </g>
 </g>
 <defs>
  <clipPath id="p2a0875f636">
   <rect height="47.964706" width="79.990686" x="33.804657" y="25.92"/>
  </clipPath>
  <clipPath id="p212cad5c35">
   <rect height="47.964706" width="64.445671" x="41.577165" y="83.477647"/>
  </clipPath>
  <clipPath id="pe4de88b027">
   <rect height="32.327879" width="111.6" x="18" y="148.853707"/>
  </clipPath>
 </defs>
</svg>
