<?xml version="1.0" encoding="utf-8" standalone="no"?>
<!DOCTYPE svg PUBLIC "-//W3C//DTD SVG 1.1//EN"
  "http://www.w3.org/Graphics/SVG/1.1/DTD/svg11.dtd">
<!-- Created with matplotlib (http://matplotlib.org/) -->
<svg height="648pt" version="1.1" viewBox="0 0 144 648" width="144pt" xmlns="http://www.w3.org/2000/svg" xmlns:xlink="http://www.w3.org/1999/xlink">
 <defs>
  <style type="text/css">
*{stroke-linecap:butt;stroke-linejoin:round;}
  </style>
 </defs>
 <g id="figure_1">
  <g id="patch_1">
   <path d="M 0 648 
L 144 648 
L 144 0 
L 0 0 
z
" style="fill:#ffffff;"/>
  </g>
  <g id="axes_1">
   <g id="line2d_1">
    <path clip-path="url(#p7934901110)" d="M 64.295858 88.69138 
L 64.295858 115.191696 
" style="fill:none;stroke:#000000;stroke-linecap:square;stroke-width:1.674;"/>
   </g>
   <g id="patch_2">
    <path clip-path="url(#p7934901110)" d="M 69.218085 104.106766 
Q 69.999637 104.274118 70.437859 104.803779 
Q 70.877805 105.331715 70.877805 106.108092 
Q 70.877805 107.298536 70.058297 107.952417 
Q 69.238788 108.604573 67.729168 108.604573 
Q 67.22366 108.604573 66.687098 108.504507 
Q 66.150535 108.404441 65.579467 108.204308 
L 65.579467 107.153612 
Q 66.031491 107.41758 66.569779 107.552152 
Q 67.109792 107.686724 67.698112 107.686724 
Q 68.721204 107.686724 69.257766 107.283008 
Q 69.794329 106.879293 69.794329 106.108092 
Q 69.794329 105.395551 69.295723 104.995286 
Q 68.797116 104.593295 67.908597 104.593295 
L 66.970044 104.593295 
L 66.970044 103.697874 
L 67.951729 103.697874 
Q 68.753984 103.697874 69.180129 103.376972 
Q 69.606273 103.05607 69.606273 102.452221 
Q 69.606273 101.832846 69.166327 101.501592 
Q 68.728105 101.168612 67.908597 101.168612 
Q 67.460024 101.168612 66.947615 101.266953 
Q 66.435207 101.363569 65.821007 101.567152 
L 65.821007 100.597544 
Q 66.442108 100.425016 66.983846 100.338752 
Q 67.525584 100.252488 68.005212 100.252488 
Q 69.24569 100.252488 69.966857 100.816655 
Q 70.68975 101.379097 70.68975 102.338353 
Q 70.68975 103.007762 70.306737 103.468412 
Q 69.923725 103.929062 69.218085 104.106766 
z
M 73.05662 107.0777 
L 74.19358 107.0777 
L 74.19358 108.005901 
L 73.310236 109.731182 
L 72.614948 109.731182 
L 73.05662 108.005901 
z
M 79.445982 101.346316 
L 76.695884 105.643991 
L 79.445982 105.643991 
z
M 79.159585 100.397412 
L 80.529458 100.397412 
L 80.529458 105.643991 
L 81.678496 105.643991 
L 81.678496 106.549764 
L 80.529458 106.549764 
L 80.529458 108.447573 
L 79.445982 108.447573 
L 79.445982 106.549764 
L 75.81254 106.549764 
L 75.81254 105.499068 
z
M 83.591617 107.0777 
L 84.728577 107.0777 
L 84.728577 108.005901 
L 83.845233 109.731182 
L 83.149945 109.731182 
L 83.591617 108.005901 
z
M 89.453043 103.989447 
Q 88.719799 103.989447 88.290204 104.491504 
Q 87.862334 104.991835 87.862334 105.864827 
Q 87.862334 106.732644 88.290204 107.238151 
Q 88.719799 107.741933 89.453043 107.741933 
Q 90.186288 107.741933 90.614157 107.238151 
Q 91.042027 106.732644 91.042027 105.864827 
Q 91.042027 104.991835 90.614157 104.491504 
Q 90.186288 103.989447 89.453043 103.989447 
z
M 91.61482 100.575116 
L 91.61482 101.567152 
Q 91.204203 101.373921 90.786685 101.272129 
Q 90.369167 101.168612 89.95855 101.168612 
Q 88.88025 101.168612 88.310907 101.896681 
Q 87.74329 102.62475 87.662201 104.096414 
Q 87.979653 103.627138 88.459281 103.376972 
Q 88.940635 103.126806 89.516878 103.126806 
Q 90.729751 103.126806 91.433666 103.863501 
Q 92.13758 104.598471 92.13758 105.864827 
Q 92.13758 107.105304 91.404336 107.855802 
Q 90.671091 108.604573 89.453043 108.604573 
Q 88.055565 108.604573 87.317145 107.534899 
Q 86.578725 106.4635 86.578725 104.431119 
Q 86.578725 102.522958 87.484497 101.387723 
Q 88.39027 100.252488 89.915418 100.252488 
Q 90.326035 100.252488 90.743553 100.333576 
Q 91.161071 100.414665 91.61482 100.575116 
z
"/>
   </g>
   <g id="patch_3">
    <path clip-path="url(#p7934901110)" d="M 73.129297 79.857942 
L 73.129297 97.524819 
L 55.46242 97.524819 
L 55.46242 79.857942 
L 73.129297 79.857942 
z
" style="fill:#ffd400;stroke:#000000;stroke-linejoin:miter;stroke-width:1.674;"/>
   </g>
   <g id="patch_4">
    <path clip-path="url(#p7934901110)" d="M 70.920937 108.566617 
L 57.670779 121.816775 
z
" style="fill:#ffffff;stroke:#000000;stroke-linejoin:miter;stroke-width:1.674;"/>
   </g>
   <g id="patch_5">
    <path clip-path="url(#p7934901110)" d="M 57.670779 108.566617 
L 70.920937 121.816775 
z
" style="fill:#ffffff;stroke:#000000;stroke-linejoin:miter;stroke-width:1.674;"/>
   </g>
  </g>
  <g id="axes_2">
   <g id="line2d_2">
    <path clip-path="url(#p91e4a66844)" d="M 51.579197 149.827158 
L 27.823806 149.827158 
" style="fill:none;stroke:#000000;stroke-linecap:square;stroke-width:0.558;"/>
   </g>
   <g id="line2d_3">
    <path clip-path="url(#p91e4a66844)" d="M 51.579197 149.827158 
L 51.579197 164.080393 
" style="fill:none;stroke:#000000;stroke-linecap:square;stroke-width:0.558;"/>
   </g>
   <g id="line2d_4">
    <path clip-path="url(#p91e4a66844)" d="M 75.334589 149.827158 
L 51.579197 149.827158 
" style="fill:none;stroke:#000000;stroke-linecap:square;stroke-width:0.558;"/>
   </g>
   <g id="line2d_5">
    <path clip-path="url(#p91e4a66844)" d="M 75.334589 149.827158 
L 75.334589 164.080393 
" style="fill:none;stroke:#000000;stroke-linecap:square;stroke-width:0.558;"/>
   </g>
   <g id="line2d_6">
    <path clip-path="url(#p91e4a66844)" d="M 99.089981 149.827158 
L 75.334589 149.827158 
" style="fill:none;stroke:#000000;stroke-linecap:square;stroke-width:0.558;"/>
   </g>
   <g id="line2d_7">
    <path clip-path="url(#p91e4a66844)" d="M 99.089981 149.827158 
L 99.089981 164.080393 
" style="fill:none;stroke:#000000;stroke-linecap:square;stroke-width:0.558;"/>
   </g>
   <g id="line2d_8">
    <path clip-path="url(#p91e4a66844)" d="M 122.845372 149.827158 
L 99.089981 149.827158 
" style="fill:none;stroke:#000000;stroke-linecap:square;stroke-width:0.558;"/>
   </g>
   <g id="patch_6">
    <path clip-path="url(#p91e4a66844)" d="M 35.805988 149.151614 
L 35.805988 150.587145 
L 35.269636 150.587145 
L 35.269636 146.124658 
Q 35.269636 144.802336 36.504731 144.802336 
Q 37.763952 144.802336 37.763952 145.918654 
Q 37.763952 146.712975 37.264718 147.003421 
Q 38.07667 147.264174 38.07667 148.03808 
Q 38.07667 149.413295 36.679185 149.413295 
Q 36.063957 149.413295 35.805988 149.151614 
z
M 35.805988 148.455655 
Q 36.127985 148.957674 36.699599 148.957674 
Q 37.53475 148.957674 37.53475 148.04736 
Q 37.53475 147.228912 36.18923 147.29294 
L 36.18923 146.800201 
Q 37.241519 146.800201 37.241519 145.872256 
Q 37.241519 145.237542 36.563192 145.237542 
Q 35.805988 145.237542 35.805988 146.142288 
z
"/>
   </g>
   <g id="patch_7">
    <path clip-path="url(#p91e4a66844)" d="M 44.084186 145.532629 
L 42.605041 147.84414 
L 44.084186 147.84414 
z
M 43.930147 145.022259 
L 44.666935 145.022259 
L 44.666935 147.84414 
L 45.284946 147.84414 
L 45.284946 148.331311 
L 44.666935 148.331311 
L 44.666935 149.35205 
L 44.084186 149.35205 
L 44.084186 148.331311 
L 42.129934 148.331311 
L 42.129934 147.766192 
z
"/>
   </g>
   <g id="patch_8">
    <path clip-path="url(#p91e4a66844)" d="M 54.226624 158.118347 
Q 54.646983 158.208357 54.882681 158.493236 
Q 55.119307 158.777187 55.119307 159.194763 
Q 55.119307 159.835045 54.678534 160.186736 
Q 54.23776 160.537499 53.425808 160.537499 
Q 53.15392 160.537499 52.865329 160.483678 
Q 52.576738 160.429857 52.269588 160.322216 
L 52.269588 159.757097 
Q 52.51271 159.899073 52.802229 159.971453 
Q 53.092676 160.043832 53.409105 160.043832 
Q 53.959376 160.043832 54.247967 159.826693 
Q 54.536558 159.609554 54.536558 159.194763 
Q 54.536558 158.811521 54.268382 158.596238 
Q 54.000206 158.380027 53.522314 158.380027 
L 53.017512 158.380027 
L 53.017512 157.898424 
L 53.545513 157.898424 
Q 53.977007 157.898424 54.20621 157.725826 
Q 54.435412 157.553228 54.435412 157.228447 
Q 54.435412 156.895315 54.198786 156.71715 
Q 53.963088 156.538056 53.522314 156.538056 
Q 53.281048 156.538056 53.005449 156.590949 
Q 52.729849 156.642914 52.399501 156.752411 
L 52.399501 156.230906 
Q 52.733561 156.138112 53.024936 156.091715 
Q 53.31631 156.045317 53.574279 156.045317 
Q 54.241471 156.045317 54.629352 156.348755 
Q 55.018161 156.651265 55.018161 157.167203 
Q 55.018161 157.527246 54.812158 157.775007 
Q 54.606154 158.022768 54.226624 158.118347 
z
M 56.291186 159.716268 
L 56.902702 159.716268 
L 56.902702 160.215502 
L 56.427594 161.143447 
L 56.053632 161.143447 
L 56.291186 160.215502 
z
M 59.443763 158.055246 
Q 59.049386 158.055246 58.818328 158.325278 
Q 58.588198 158.594382 58.588198 159.063922 
Q 58.588198 159.530679 58.818328 159.802567 
Q 59.049386 160.073527 59.443763 160.073527 
Q 59.83814 160.073527 60.06827 159.802567 
Q 60.2984 159.530679 60.2984 159.063922 
Q 60.2984 158.594382 60.06827 158.325278 
Q 59.83814 158.055246 59.443763 158.055246 
z
M 60.606478 156.218843 
L 60.606478 156.752411 
Q 60.385627 156.648482 60.161065 156.593733 
Q 59.936502 156.538056 59.715651 156.538056 
Q 59.135685 156.538056 58.829464 156.929649 
Q 58.52417 157.321242 58.480556 158.112779 
Q 58.651298 157.860378 58.909267 157.725826 
Q 59.168163 157.591274 59.478097 157.591274 
Q 60.130442 157.591274 60.509044 157.987506 
Q 60.887645 158.382811 60.887645 159.063922 
Q 60.887645 159.731115 60.493269 160.134771 
Q 60.098892 160.537499 59.443763 160.537499 
Q 58.692128 160.537499 58.294967 159.962173 
Q 57.897807 159.385919 57.897807 158.2928 
Q 57.897807 157.266493 58.384978 156.655905 
Q 58.872149 156.045317 59.692452 156.045317 
Q 59.913303 156.045317 60.137866 156.088931 
Q 60.362429 156.132544 60.606478 156.218843 
z
"/>
   </g>
   <g id="patch_9">
    <path clip-path="url(#p91e4a66844)" d="M 59.56138 149.151614 
L 59.56138 150.587145 
L 59.025028 150.587145 
L 59.025028 146.124658 
Q 59.025028 144.802336 60.260123 144.802336 
Q 61.519344 144.802336 61.519344 145.918654 
Q 61.519344 146.712975 61.02011 147.003421 
Q 61.832061 147.264174 61.832061 148.03808 
Q 61.832061 149.413295 60.434576 149.413295 
Q 59.819349 149.413295 59.56138 149.151614 
z
M 59.56138 148.455655 
Q 59.883377 148.957674 60.454991 148.957674 
Q 61.290142 148.957674 61.290142 148.04736 
Q 61.290142 147.228912 59.944621 147.29294 
L 59.944621 146.800201 
Q 60.996911 146.800201 60.996911 145.872256 
Q 60.996911 145.237542 60.318583 145.237542 
Q 59.56138 145.237542 59.56138 146.142288 
z
"/>
   </g>
   <g id="patch_10">
    <path clip-path="url(#p91e4a66844)" d="M 68.004752 147.017341 
Q 68.425111 147.107351 68.660809 147.39223 
Q 68.897435 147.676182 68.897435 148.093757 
Q 68.897435 148.734039 68.456661 149.08573 
Q 68.015887 149.436493 67.203935 149.436493 
Q 66.932047 149.436493 66.643456 149.382672 
Q 66.354865 149.328852 66.047716 149.22121 
L 66.047716 148.656091 
Q 66.290837 148.798067 66.580356 148.870447 
Q 66.870803 148.942826 67.187232 148.942826 
Q 67.737503 148.942826 68.026094 148.725687 
Q 68.314685 148.508548 68.314685 148.093757 
Q 68.314685 147.710516 68.046509 147.495232 
Q 67.778333 147.279021 67.300441 147.279021 
L 66.795639 147.279021 
L 66.795639 146.797418 
L 67.32364 146.797418 
Q 67.755134 146.797418 67.984337 146.62482 
Q 68.213539 146.452222 68.213539 146.127441 
Q 68.213539 145.794309 67.976913 145.616144 
Q 67.741215 145.43705 67.300441 145.43705 
Q 67.059176 145.43705 66.783576 145.489943 
Q 66.507976 145.541908 66.177628 145.651406 
L 66.177628 145.129901 
Q 66.511688 145.037106 66.803063 144.990709 
Q 67.094438 144.944312 67.352406 144.944312 
Q 68.019599 144.944312 68.40748 145.24775 
Q 68.796289 145.55026 68.796289 146.066197 
Q 68.796289 146.42624 68.590285 146.674001 
Q 68.384281 146.921762 68.004752 147.017341 
z
"/>
   </g>
   <g id="patch_11">
    <path clip-path="url(#p91e4a66844)" d="M 76.711659 159.960317 
L 78.755922 159.960317 
L 78.755922 160.453056 
L 76.007349 160.453056 
L 76.007349 159.960317 
Q 76.340481 159.615122 76.915807 159.034228 
Q 77.492061 158.452407 77.639604 158.283521 
Q 77.920772 157.968019 78.032125 157.749024 
Q 78.144406 157.530029 78.144406 157.318458 
Q 78.144406 156.973262 77.902213 156.756123 
Q 77.660019 156.538056 77.27121 156.538056 
Q 76.995611 156.538056 76.689389 156.633635 
Q 76.384095 156.729213 76.036115 156.924081 
L 76.036115 156.332052 
Q 76.389662 156.190077 76.696812 156.117697 
Q 77.00489 156.045317 77.260075 156.045317 
Q 77.932835 156.045317 78.332779 156.382161 
Q 78.732724 156.718078 78.732724 157.280412 
Q 78.732724 157.54766 78.632506 157.78707 
Q 78.533215 158.025552 78.268751 158.350333 
Q 78.196371 158.434776 77.807562 158.836576 
Q 77.419681 159.238376 76.711659 159.960317 
z
M 80.046578 159.716268 
L 80.658093 159.716268 
L 80.658093 160.215502 
L 80.182986 161.143447 
L 79.809024 161.143447 
L 80.046578 160.215502 
z
M 83.483106 156.633635 
L 82.003962 158.945145 
L 83.483106 158.945145 
z
M 83.329067 156.123265 
L 84.065855 156.123265 
L 84.065855 158.945145 
L 84.683867 158.945145 
L 84.683867 159.432317 
L 84.065855 159.432317 
L 84.065855 160.453056 
L 83.483106 160.453056 
L 83.483106 159.432317 
L 81.528854 159.432317 
L 81.528854 158.867198 
z
M 85.712842 159.716268 
L 86.324358 159.716268 
L 86.324358 160.215502 
L 85.84925 161.143447 
L 85.475288 161.143447 
L 85.712842 160.215502 
z
M 88.865419 158.055246 
Q 88.471042 158.055246 88.239984 158.325278 
Q 88.009854 158.594382 88.009854 159.063922 
Q 88.009854 159.530679 88.239984 159.802567 
Q 88.471042 160.073527 88.865419 160.073527 
Q 89.259795 160.073527 89.489926 159.802567 
Q 89.720056 159.530679 89.720056 159.063922 
Q 89.720056 158.594382 89.489926 158.325278 
Q 89.259795 158.055246 88.865419 158.055246 
z
M 90.028134 156.218843 
L 90.028134 156.752411 
Q 89.807283 156.648482 89.58272 156.593733 
Q 89.358158 156.538056 89.137307 156.538056 
Q 88.557341 156.538056 88.251119 156.929649 
Q 87.945825 157.321242 87.902212 158.112779 
Q 88.072954 157.860378 88.330923 157.725826 
Q 88.589819 157.591274 88.899753 157.591274 
Q 89.552098 157.591274 89.9307 157.987506 
Q 90.309301 158.382811 90.309301 159.063922 
Q 90.309301 159.731115 89.914925 160.134771 
Q 89.520548 160.537499 88.865419 160.537499 
Q 88.113783 160.537499 87.716623 159.962173 
Q 87.319463 159.385919 87.319463 158.2928 
Q 87.319463 157.266493 87.806634 156.655905 
Q 88.293805 156.045317 89.114108 156.045317 
Q 89.334959 156.045317 89.559522 156.088931 
Q 89.784084 156.132544 90.028134 156.218843 
z
"/>
   </g>
   <g id="patch_12">
    <path clip-path="url(#p91e4a66844)" d="M 83.316772 149.151614 
L 83.316772 150.587145 
L 82.78042 150.587145 
L 82.78042 146.124658 
Q 82.78042 144.802336 84.015514 144.802336 
Q 85.274736 144.802336 85.274736 145.918654 
Q 85.274736 146.712975 84.775501 147.003421 
Q 85.587453 147.264174 85.587453 148.03808 
Q 85.587453 149.413295 84.189968 149.413295 
Q 83.574741 149.413295 83.316772 149.151614 
z
M 83.316772 148.455655 
Q 83.638769 148.957674 84.210383 148.957674 
Q 85.045533 148.957674 85.045533 148.04736 
Q 85.045533 147.228912 83.700013 147.29294 
L 83.700013 146.800201 
Q 84.752303 146.800201 84.752303 145.872256 
Q 84.752303 145.237542 84.073975 145.237542 
Q 83.316772 145.237542 83.316772 146.142288 
z
"/>
   </g>
   <g id="patch_13">
    <path clip-path="url(#p91e4a66844)" d="M 91.594969 145.532629 
L 90.115825 147.84414 
L 91.594969 147.84414 
z
M 91.44093 145.022259 
L 92.177719 145.022259 
L 92.177719 147.84414 
L 92.79573 147.84414 
L 92.79573 148.331311 
L 92.177719 148.331311 
L 92.177719 149.35205 
L 91.594969 149.35205 
L 91.594969 148.331311 
L 89.640717 148.331311 
L 89.640717 147.766192 
z
"/>
   </g>
   <g id="patch_14">
    <path clip-path="url(#p91e4a66844)" d="M 101.737408 158.118347 
Q 102.157767 158.208357 102.393465 158.493236 
Q 102.630091 158.777187 102.630091 159.194763 
Q 102.630091 159.835045 102.189317 160.186736 
Q 101.748543 160.537499 100.936591 160.537499 
Q 100.664703 160.537499 100.376112 160.483678 
Q 100.087522 160.429857 99.780372 160.322216 
L 99.780372 159.757097 
Q 100.023493 159.899073 100.313012 159.971453 
Q 100.603459 160.043832 100.919888 160.043832 
Q 101.47016 160.043832 101.758751 159.826693 
Q 102.047341 159.609554 102.047341 159.194763 
Q 102.047341 158.811521 101.779165 158.596238 
Q 101.510989 158.380027 101.033098 158.380027 
L 100.528295 158.380027 
L 100.528295 157.898424 
L 101.056296 157.898424 
Q 101.487791 157.898424 101.716993 157.725826 
Q 101.946195 157.553228 101.946195 157.228447 
Q 101.946195 156.895315 101.709569 156.71715 
Q 101.473871 156.538056 101.033098 156.538056 
Q 100.791832 156.538056 100.516232 156.590949 
Q 100.240633 156.642914 99.910284 156.752411 
L 99.910284 156.230906 
Q 100.244344 156.138112 100.535719 156.091715 
Q 100.827094 156.045317 101.085062 156.045317 
Q 101.752255 156.045317 102.140136 156.348755 
Q 102.528945 156.651265 102.528945 157.167203 
Q 102.528945 157.527246 102.322941 157.775007 
Q 102.116937 158.022768 101.737408 158.118347 
z
M 103.801969 159.716268 
L 104.413485 159.716268 
L 104.413485 160.215502 
L 103.938377 161.143447 
L 103.564415 161.143447 
L 103.801969 160.215502 
z
M 106.954546 158.055246 
Q 106.56017 158.055246 106.329112 158.325278 
Q 106.098981 158.594382 106.098981 159.063922 
Q 106.098981 159.530679 106.329112 159.802567 
Q 106.56017 160.073527 106.954546 160.073527 
Q 107.348923 160.073527 107.579053 159.802567 
Q 107.809184 159.530679 107.809184 159.063922 
Q 107.809184 158.594382 107.579053 158.325278 
Q 107.348923 158.055246 106.954546 158.055246 
z
M 108.117262 156.218843 
L 108.117262 156.752411 
Q 107.896411 156.648482 107.671848 156.593733 
Q 107.447285 156.538056 107.226434 156.538056 
Q 106.646469 156.538056 106.340247 156.929649 
Q 106.034953 157.321242 105.99134 158.112779 
Q 106.162081 157.860378 106.42005 157.725826 
Q 106.678947 157.591274 106.98888 157.591274 
Q 107.641226 157.591274 108.019827 157.987506 
Q 108.398429 158.382811 108.398429 159.063922 
Q 108.398429 159.731115 108.004052 160.134771 
Q 107.609676 160.537499 106.954546 160.537499 
Q 106.202911 160.537499 105.805751 159.962173 
Q 105.40859 159.385919 105.40859 158.2928 
Q 105.40859 157.266493 105.895761 156.655905 
Q 106.382932 156.045317 107.203236 156.045317 
Q 107.424087 156.045317 107.648649 156.088931 
Q 107.873212 156.132544 108.117262 156.218843 
z
"/>
   </g>
   <g id="patch_15">
    <path clip-path="url(#p91e4a66844)" d="M 122.256591 152.519126 
L 122.256591 153.954657 
L 121.720239 153.954657 
L 121.720239 149.49217 
Q 121.720239 148.169848 122.955334 148.169848 
Q 124.214555 148.169848 124.214555 149.286166 
Q 124.214555 150.080487 123.715321 150.370934 
Q 124.527273 150.631686 124.527273 151.405592 
Q 124.527273 152.780807 123.129788 152.780807 
Q 122.51456 152.780807 122.256591 152.519126 
z
M 122.256591 151.823168 
Q 122.578588 152.325186 123.150202 152.325186 
Q 123.985353 152.325186 123.985353 151.414872 
Q 123.985353 150.596424 122.639833 150.660453 
L 122.639833 150.167714 
Q 123.692122 150.167714 123.692122 149.239769 
Q 123.692122 148.605054 123.013794 148.605054 
Q 122.256591 148.605054 122.256591 149.509801 
z
"/>
   </g>
   <g id="patch_16">
    <path clip-path="url(#p91e4a66844)" d="M 103.841059 145.07608 
L 103.841059 154.578236 
L 94.338902 154.578236 
L 94.338902 145.07608 
L 103.841059 145.07608 
z
" style="fill:#0090bc;stroke:#000000;stroke-linejoin:miter;stroke-width:0.558;"/>
   </g>
   <g id="patch_17">
    <path clip-path="url(#p91e4a66844)" d="M 75.334589 154.578236 
C 76.59459 154.578236 77.803154 154.077633 78.694109 153.186678 
C 79.585064 152.295723 80.085667 151.087159 80.085667 149.827158 
C 80.085667 148.567157 79.585064 147.358593 78.694109 146.467638 
C 77.803154 145.576683 76.59459 145.07608 75.334589 145.07608 
C 74.074588 145.07608 72.866024 145.576683 71.975069 146.467638 
C 71.084114 147.358593 70.583511 148.567157 70.583511 149.827158 
C 70.583511 151.087159 71.084114 152.295723 71.975069 153.186678 
C 72.866024 154.077633 74.074588 154.578236 75.334589 154.578236 
z
" style="fill:#ffd400;stroke:#000000;stroke-linejoin:miter;stroke-width:0.558;"/>
   </g>
   <g id="patch_18">
    <path clip-path="url(#p91e4a66844)" d="M 102.653289 160.517084 
L 95.526672 167.643702 
z
" style="fill:#ffffff;stroke:#000000;stroke-linejoin:miter;stroke-width:0.558;"/>
   </g>
   <g id="patch_19">
    <path clip-path="url(#p91e4a66844)" d="M 95.526672 160.517084 
L 102.653289 167.643702 
z
" style="fill:#ffffff;stroke:#000000;stroke-linejoin:miter;stroke-width:0.558;"/>
   </g>
   <g id="patch_20">
    <path clip-path="url(#p91e4a66844)" d="M 56.330276 145.07608 
L 56.330276 154.578236 
L 46.828119 154.578236 
L 46.828119 145.07608 
L 56.330276 145.07608 
z
" style="fill:#0090bc;stroke:#000000;stroke-linejoin:miter;stroke-width:0.558;"/>
   </g>
   <g id="patch_21">
    <path clip-path="url(#p91e4a66844)" d="M 78.897898 160.517084 
L 71.77128 167.643702 
z
" style="fill:#ffffff;stroke:#000000;stroke-linejoin:miter;stroke-width:0.558;"/>
   </g>
   <g id="patch_22">
    <path clip-path="url(#p91e4a66844)" d="M 71.77128 160.517084 
L 78.897898 167.643702 
z
" style="fill:#ffffff;stroke:#000000;stroke-linejoin:miter;stroke-width:0.558;"/>
   </g>
   <g id="patch_23">
    <path clip-path="url(#p91e4a66844)" d="M 27.823806 154.578236 
C 29.083806 154.578236 30.29237 154.077633 31.183325 153.186678 
C 32.07428 152.295723 32.574884 151.087159 32.574884 149.827158 
C 32.574884 148.567157 32.07428 147.358593 31.183325 146.467638 
C 30.29237 145.576683 29.083806 145.07608 27.823806 145.07608 
C 26.563805 145.07608 25.355241 145.576683 24.464286 146.467638 
C 23.573331 147.358593 23.072727 148.567157 23.072727 149.827158 
C 23.072727 151.087159 23.573331 152.295723 24.464286 153.186678 
C 25.355241 154.077633 26.563805 154.578236 27.823806 154.578236 
z
" style="fill:#ffd400;stroke:#000000;stroke-linejoin:miter;stroke-width:0.558;"/>
   </g>
   <g id="patch_24">
    <path clip-path="url(#p91e4a66844)" d="M 55.142506 160.517084 
L 48.015889 167.643702 
z
" style="fill:#ffffff;stroke:#000000;stroke-linejoin:miter;stroke-width:0.558;"/>
   </g>
   <g id="patch_25">
    <path clip-path="url(#p91e4a66844)" d="M 48.015889 160.517084 
L 55.142506 167.643702 
z
" style="fill:#ffffff;stroke:#000000;stroke-linejoin:miter;stroke-width:0.558;"/>
   </g>
  </g>
  <g id="axes_3">
   <g id="line2d_9">
    <path clip-path="url(#p1e720b8bb8)" d="M 96.857851 211.741532 
L 73.8 211.741532 
" style="fill:none;stroke:#000000;stroke-linecap:square;stroke-width:0.558;"/>
   </g>
   <g id="line2d_10">
    <path clip-path="url(#p1e720b8bb8)" d="M 96.857851 211.741532 
L 96.857851 225.576243 
" style="fill:none;stroke:#000000;stroke-linecap:square;stroke-width:0.558;"/>
   </g>
   <g id="line2d_11">
    <path clip-path="url(#p1e720b8bb8)" d="M 119.915702 211.741532 
L 96.857851 211.741532 
" style="fill:none;stroke:#000000;stroke-linecap:square;stroke-width:0.558;"/>
   </g>
   <g id="line2d_12">
    <path clip-path="url(#p1e720b8bb8)" d="M 73.8 211.741532 
L 50.742149 227.882028 
" style="fill:none;stroke:#000000;stroke-linecap:square;stroke-width:0.558;"/>
   </g>
   <g id="line2d_13">
    <path clip-path="url(#p1e720b8bb8)" d="M 73.8 211.741532 
L 73.8 225.576243 
" style="fill:none;stroke:#000000;stroke-linecap:square;stroke-width:0.558;"/>
   </g>
   <g id="line2d_14">
    <path clip-path="url(#p1e720b8bb8)" d="M 73.8 211.741532 
L 50.742149 195.601036 
" style="fill:none;stroke:#000000;stroke-linecap:square;stroke-width:0.558;"/>
   </g>
   <g id="line2d_15">
    <path clip-path="url(#p1e720b8bb8)" d="M 50.742149 195.601036 
L 27.684298 195.601036 
" style="fill:none;stroke:#000000;stroke-linecap:square;stroke-width:0.558;"/>
   </g>
   <g id="patch_26">
    <path clip-path="url(#p1e720b8bb8)" d="M 81.547798 211.085824 
L 81.547798 212.479203 
L 81.027195 212.479203 
L 81.027195 208.14775 
Q 81.027195 206.864256 82.226023 206.864256 
Q 83.44827 206.864256 83.44827 207.947795 
Q 83.44827 208.718792 82.963694 209.00071 
Q 83.751805 209.253806 83.751805 210.004988 
Q 83.751805 211.339821 82.395354 211.339821 
Q 81.798192 211.339821 81.547798 211.085824 
z
M 81.547798 210.410301 
Q 81.86034 210.897579 82.41517 210.897579 
Q 83.225797 210.897579 83.225797 210.013995 
Q 83.225797 209.21958 81.919786 209.281728 
L 81.919786 208.803457 
Q 82.941177 208.803457 82.941177 207.90276 
Q 82.941177 207.286683 82.282767 207.286683 
Q 81.547798 207.286683 81.547798 208.164863 
z
"/>
   </g>
   <g id="patch_27">
    <path clip-path="url(#p1e720b8bb8)" d="M 89.582919 207.573105 
L 88.147208 209.816742 
L 89.582919 209.816742 
z
M 89.433403 207.077721 
L 90.148557 207.077721 
L 90.148557 209.816742 
L 90.748421 209.816742 
L 90.748421 210.289608 
L 90.148557 210.289608 
L 90.148557 211.280375 
L 89.582919 211.280375 
L 89.582919 210.289608 
L 87.68605 210.289608 
L 87.68605 209.741083 
z
"/>
   </g>
   <g id="patch_28">
    <path clip-path="url(#p1e720b8bb8)" d="M 99.427541 219.789263 
Q 99.835557 219.87663 100.064334 220.153144 
Q 100.294011 220.428758 100.294011 220.834071 
Q 100.294011 221.455553 99.86618 221.796917 
Q 99.438349 222.13738 98.650239 222.13738 
Q 98.386335 222.13738 98.106218 222.08514 
Q 97.826101 222.0329 97.52797 221.928419 
L 97.52797 221.379894 
Q 97.763953 221.517701 98.04497 221.587955 
Q 98.326889 221.65821 98.634026 221.65821 
Q 99.16814 221.65821 99.448257 221.447446 
Q 99.728374 221.236683 99.728374 220.834071 
Q 99.728374 220.462083 99.468072 220.253122 
Q 99.207771 220.043259 98.743911 220.043259 
L 98.253932 220.043259 
L 98.253932 219.575797 
L 98.766429 219.575797 
Q 99.185253 219.575797 99.407725 219.408268 
Q 99.630198 219.240738 99.630198 218.925494 
Q 99.630198 218.602144 99.40052 218.42921 
Q 99.171743 218.255375 98.743911 218.255375 
Q 98.50973 218.255375 98.242223 218.306715 
Q 97.974716 218.357154 97.654068 218.463436 
L 97.654068 217.957244 
Q 97.978319 217.867175 98.261138 217.82214 
Q 98.543957 217.777105 98.79435 217.777105 
Q 99.441952 217.777105 99.818443 218.071633 
Q 100.195835 218.36526 100.195835 218.866048 
Q 100.195835 219.215518 99.995881 219.456005 
Q 99.795926 219.696491 99.427541 219.789263 
z
M 101.43148 221.340263 
L 102.025039 221.340263 
L 102.025039 221.824839 
L 101.563882 222.725536 
L 101.200901 222.725536 
L 101.43148 221.824839 
z
M 104.491486 219.728015 
Q 104.10869 219.728015 103.884416 219.990118 
Q 103.661043 220.25132 103.661043 220.707073 
Q 103.661043 221.160124 103.884416 221.424028 
Q 104.10869 221.687032 104.491486 221.687032 
Q 104.874283 221.687032 105.097655 221.424028 
Q 105.321028 221.160124 105.321028 220.707073 
Q 105.321028 220.25132 105.097655 219.990118 
Q 104.874283 219.728015 104.491486 219.728015 
z
M 105.62006 217.945535 
L 105.62006 218.463436 
Q 105.405694 218.362558 105.187725 218.309417 
Q 104.969756 218.255375 104.75539 218.255375 
Q 104.192455 218.255375 103.895225 218.635469 
Q 103.598895 219.015564 103.556562 219.783858 
Q 103.722291 219.538869 103.972684 219.408268 
Q 104.223979 219.277667 104.524812 219.277667 
Q 105.158002 219.277667 105.525487 219.662264 
Q 105.892971 220.045961 105.892971 220.707073 
Q 105.892971 221.354675 105.510175 221.746478 
Q 105.127378 222.13738 104.491486 222.13738 
Q 103.761921 222.13738 103.376423 221.578948 
Q 102.990924 221.019615 102.990924 219.958594 
Q 102.990924 218.962422 103.463791 218.369764 
Q 103.936657 217.777105 104.732873 217.777105 
Q 104.947239 217.777105 105.165208 217.819438 
Q 105.383176 217.86177 105.62006 217.945535 
z
"/>
   </g>
   <g id="patch_29">
    <path clip-path="url(#p1e720b8bb8)" d="M 104.60565 211.085824 
L 104.60565 212.479203 
L 104.085046 212.479203 
L 104.085046 208.14775 
Q 104.085046 206.864256 105.283875 206.864256 
Q 106.506121 206.864256 106.506121 207.947795 
Q 106.506121 208.718792 106.021546 209.00071 
Q 106.809656 209.253806 106.809656 210.004988 
Q 106.809656 211.339821 105.453206 211.339821 
Q 104.856043 211.339821 104.60565 211.085824 
z
M 104.60565 210.410301 
Q 104.918192 210.897579 105.473021 210.897579 
Q 106.283649 210.897579 106.283649 210.013995 
Q 106.283649 209.21958 104.977638 209.281728 
L 104.977638 208.803457 
Q 105.999028 208.803457 105.999028 207.90276 
Q 105.999028 207.286683 105.340619 207.286683 
Q 104.60565 207.286683 104.60565 208.164863 
z
"/>
   </g>
   <g id="patch_30">
    <path clip-path="url(#p1e720b8bb8)" d="M 112.64077 207.573105 
L 111.205059 209.816742 
L 112.64077 209.816742 
z
M 112.491255 207.077721 
L 113.206408 207.077721 
L 113.206408 209.816742 
L 113.806273 209.816742 
L 113.806273 210.289608 
L 113.206408 210.289608 
L 113.206408 211.280375 
L 112.64077 211.280375 
L 112.64077 210.289608 
L 110.743902 210.289608 
L 110.743902 209.741083 
z
"/>
   </g>
   <g id="patch_31">
    <path clip-path="url(#p1e720b8bb8)" d="M 56.516519 221.112387 
L 56.392223 220.462083 
Q 56.266125 219.794667 55.764437 219.794667 
Q 55.387946 219.794667 55.215912 220.104507 
Q 54.998844 220.492707 54.998844 221.005204 
Q 54.998844 221.624884 55.210508 221.920312 
Q 55.423973 222.221145 55.764437 222.221145 
Q 56.141829 222.221145 56.344486 221.621281 
z
M 56.806544 220.25132 
L 57.084859 219.426282 
L 57.546917 219.426282 
L 56.96957 221.134904 
L 57.082157 221.750981 
Q 57.107377 221.888788 57.205553 222.004077 
Q 57.321743 222.139182 57.411812 222.139182 
L 57.659504 222.139182 
L 57.659504 222.578722 
L 57.349664 222.578722 
Q 57.084859 222.578722 56.848877 222.341839 
Q 56.732687 222.223847 56.68495 221.976156 
Q 56.55615 222.288698 56.291345 222.533687 
Q 56.167049 222.648977 55.764437 222.648977 
Q 55.103325 222.648977 54.782677 222.221145 
Q 54.453022 221.778903 54.453022 221.005204 
Q 54.453022 220.177463 54.810599 219.789263 
Q 55.207806 219.356027 55.764437 219.356027 
Q 56.639915 219.356027 56.806544 220.25132 
z
"/>
   </g>
   <g id="patch_32">
    <path clip-path="url(#p1e720b8bb8)" d="M 63.175374 215.409172 
Q 62.792578 215.409172 62.568304 215.671274 
Q 62.344932 215.932477 62.344932 216.38823 
Q 62.344932 216.84128 62.568304 217.105185 
Q 62.792578 217.368188 63.175374 217.368188 
Q 63.558171 217.368188 63.781544 217.105185 
Q 64.004917 216.84128 64.004917 216.38823 
Q 64.004917 215.932477 63.781544 215.671274 
Q 63.558171 215.409172 63.175374 215.409172 
z
M 64.303948 213.626692 
L 64.303948 214.144593 
Q 64.089582 214.043714 63.871614 213.990573 
Q 63.653645 213.936531 63.439279 213.936531 
Q 62.876343 213.936531 62.579113 214.316626 
Q 62.282783 214.69672 62.240451 215.465015 
Q 62.406179 215.220025 62.656573 215.089424 
Q 62.907867 214.958823 63.2087 214.958823 
Q 63.84189 214.958823 64.209375 215.343421 
Q 64.57686 215.727118 64.57686 216.38823 
Q 64.57686 217.035831 64.194063 217.427634 
Q 63.811267 217.818537 63.175374 217.818537 
Q 62.44581 217.818537 62.060311 217.260105 
Q 61.674813 216.700772 61.674813 215.63975 
Q 61.674813 214.643579 62.147679 214.05092 
Q 62.620545 213.458261 63.416761 213.458261 
Q 63.631127 213.458261 63.849096 213.500594 
Q 64.067065 213.542927 64.303948 213.626692 
z
"/>
   </g>
   <g id="patch_33">
    <path clip-path="url(#p1e720b8bb8)" d="M 75.136635 221.577147 
L 77.120871 221.577147 
L 77.120871 222.055417 
L 74.453006 222.055417 
L 74.453006 221.577147 
Q 74.776356 221.242087 75.334788 220.678251 
Q 75.894121 220.113514 76.037332 219.949587 
Q 76.310243 219.64335 76.418327 219.430785 
Q 76.527311 219.218221 76.527311 219.012862 
Q 76.527311 218.677802 76.292229 218.467039 
Q 76.057147 218.255375 75.679755 218.255375 
Q 75.412248 218.255375 75.115018 218.348147 
Q 74.818689 218.440919 74.480927 218.630065 
L 74.480927 218.05542 
Q 74.824093 217.917614 75.122224 217.847359 
Q 75.421255 217.777105 75.668947 217.777105 
Q 76.321952 217.777105 76.710153 218.104058 
Q 77.098354 218.43011 77.098354 218.975933 
Q 77.098354 219.235334 77.001078 219.467714 
Q 76.904704 219.699193 76.648005 220.014437 
Q 76.577751 220.0964 76.200358 220.486402 
Q 75.823867 220.876404 75.136635 221.577147 
z
M 78.373628 221.340263 
L 78.967188 221.340263 
L 78.967188 221.824839 
L 78.506031 222.725536 
L 78.14305 222.725536 
L 78.373628 221.824839 
z
M 81.709248 218.348147 
L 80.273537 220.591784 
L 81.709248 220.591784 
z
M 81.559733 217.852763 
L 82.274886 217.852763 
L 82.274886 220.591784 
L 82.874751 220.591784 
L 82.874751 221.06465 
L 82.274886 221.06465 
L 82.274886 222.055417 
L 81.709248 222.055417 
L 81.709248 221.06465 
L 79.81238 221.06465 
L 79.81238 220.516125 
z
"/>
   </g>
   <g id="patch_34">
    <path clip-path="url(#p1e720b8bb8)" d="M 59.810369 198.515693 
L 59.686073 197.865389 
Q 59.559975 197.197973 59.058287 197.197973 
Q 58.681796 197.197973 58.509762 197.507812 
Q 58.292694 197.896013 58.292694 198.40851 
Q 58.292694 199.02819 58.504358 199.323618 
Q 58.717823 199.624451 59.058287 199.624451 
Q 59.435679 199.624451 59.638336 199.024587 
z
M 60.100394 197.654626 
L 60.378709 196.829587 
L 60.840767 196.829587 
L 60.26342 198.53821 
L 60.376007 199.154287 
Q 60.401227 199.292094 60.499403 199.407383 
Q 60.615593 199.542488 60.705662 199.542488 
L 60.953354 199.542488 
L 60.953354 199.982028 
L 60.643514 199.982028 
Q 60.378709 199.982028 60.142727 199.745145 
Q 60.026537 199.627153 59.9788 199.379461 
Q 59.85 199.692003 59.585195 199.936993 
Q 59.460899 200.052282 59.058287 200.052282 
Q 58.397175 200.052282 58.076527 199.624451 
Q 57.746872 199.182209 57.746872 198.40851 
Q 57.746872 197.580769 58.104449 197.192568 
Q 58.501656 196.759333 59.058287 196.759333 
Q 59.933765 196.759333 60.100394 197.654626 
z
"/>
   </g>
   <g id="patch_35">
    <path clip-path="url(#p1e720b8bb8)" d="M 66.685392 202.558022 
Q 67.093408 202.64539 67.322185 202.921904 
Q 67.551863 203.197517 67.551863 203.602831 
Q 67.551863 204.224312 67.124032 204.565677 
Q 66.6962 204.90614 65.90809 204.90614 
Q 65.644186 204.90614 65.364069 204.8539 
Q 65.083952 204.801659 64.785821 204.697178 
L 64.785821 204.148654 
Q 65.021804 204.28646 65.302822 204.356715 
Q 65.58474 204.426969 65.891878 204.426969 
Q 66.425991 204.426969 66.706108 204.216206 
Q 66.986225 204.005443 66.986225 203.602831 
Q 66.986225 203.230843 66.725923 203.021881 
Q 66.465622 202.812019 66.001763 202.812019 
L 65.511783 202.812019 
L 65.511783 202.344557 
L 66.02428 202.344557 
Q 66.443104 202.344557 66.665577 202.177027 
Q 66.888049 202.009498 66.888049 201.694254 
Q 66.888049 201.370903 66.658371 201.197969 
Q 66.429594 201.024135 66.001763 201.024135 
Q 65.767581 201.024135 65.500074 201.075475 
Q 65.232567 201.125914 64.911919 201.232196 
L 64.911919 200.726004 
Q 65.23617 200.635934 65.518989 200.590899 
Q 65.801808 200.545864 66.052202 200.545864 
Q 66.699803 200.545864 67.076295 200.840393 
Q 67.453687 201.13402 67.453687 201.634808 
Q 67.453687 201.984278 67.253732 202.224764 
Q 67.053777 202.46525 66.685392 202.558022 
z
"/>
   </g>
   <g id="patch_36">
    <path clip-path="url(#p1e720b8bb8)" d="M 35.432096 194.945329 
L 35.432096 196.338707 
L 34.911493 196.338707 
L 34.911493 192.007254 
Q 34.911493 190.72376 36.110321 190.72376 
Q 37.332567 190.72376 37.332567 191.807299 
Q 37.332567 192.578296 36.847992 192.860214 
Q 37.636102 193.11331 37.636102 193.864492 
Q 37.636102 195.199325 36.279652 195.199325 
Q 35.68249 195.199325 35.432096 194.945329 
z
M 35.432096 194.269806 
Q 35.744638 194.757083 36.299467 194.757083 
Q 37.110095 194.757083 37.110095 193.873499 
Q 37.110095 193.079084 35.804084 193.141232 
L 35.804084 192.662962 
Q 36.825475 192.662962 36.825475 191.762264 
Q 36.825475 191.146187 36.167065 191.146187 
Q 35.432096 191.146187 35.432096 192.024367 
z
"/>
   </g>
   <g id="patch_37">
    <path clip-path="url(#p1e720b8bb8)" d="M 42.394486 194.661609 
L 44.378722 194.661609 
L 44.378722 195.139879 
L 41.710857 195.139879 
L 41.710857 194.661609 
Q 42.034207 194.32655 42.592639 193.762713 
Q 43.151972 193.197976 43.295183 193.034049 
Q 43.568095 192.727812 43.676178 192.515247 
Q 43.785163 192.302683 43.785163 192.097324 
Q 43.785163 191.762264 43.550081 191.551501 
Q 43.314999 191.339837 42.937607 191.339837 
Q 42.670099 191.339837 42.372869 191.432609 
Q 42.07654 191.525381 41.738778 191.714527 
L 41.738778 191.139882 
Q 42.081944 191.002076 42.380075 190.931821 
Q 42.679106 190.861567 42.926798 190.861567 
Q 43.579804 190.861567 43.968004 191.18852 
Q 44.356205 191.514573 44.356205 192.060395 
Q 44.356205 192.319796 44.258929 192.552176 
Q 44.162555 192.783655 43.905856 193.098899 
Q 43.835602 193.180863 43.45821 193.570864 
Q 43.081718 193.960866 42.394486 194.661609 
z
"/>
   </g>
   <g id="patch_38">
    <path clip-path="url(#p1e720b8bb8)" d="M 124.527273 207.129962 
L 124.527273 216.353102 
L 115.304132 216.353102 
L 115.304132 207.129962 
L 124.527273 207.129962 
z
" style="fill:#0090bc;stroke:#000000;stroke-linejoin:miter;stroke-width:0.558;"/>
   </g>
   <g id="patch_39">
    <path clip-path="url(#p1e720b8bb8)" d="M 101.469421 207.129962 
L 101.469421 216.353102 
L 92.246281 216.353102 
L 92.246281 207.129962 
L 101.469421 207.129962 
z
" style="fill:#0090bc;stroke:#000000;stroke-linejoin:miter;stroke-width:0.558;"/>
   </g>
   <g id="patch_40">
    <path clip-path="url(#p1e720b8bb8)" d="M 73.8 216.353102 
C 75.023003 216.353102 76.196079 215.867198 77.060873 215.002405 
C 77.925666 214.137611 78.41157 212.964535 78.41157 211.741532 
C 78.41157 210.518529 77.925666 209.345453 77.060873 208.48066 
C 76.196079 207.615866 75.023003 207.129962 73.8 207.129962 
C 72.576997 207.129962 71.403921 207.615866 70.539127 208.48066 
C 69.674334 209.345453 69.18843 210.518529 69.18843 211.741532 
C 69.18843 212.964535 69.674334 214.137611 70.539127 215.002405 
C 71.403921 215.867198 72.576997 216.353102 73.8 216.353102 
z
" style="fill:#00a651;stroke:#000000;stroke-linejoin:miter;stroke-width:0.558;"/>
   </g>
   <g id="patch_41">
    <path clip-path="url(#p1e720b8bb8)" d="M 100.316529 222.117565 
L 93.399174 229.034921 
z
" style="fill:#ffffff;stroke:#000000;stroke-linejoin:miter;stroke-width:0.558;"/>
   </g>
   <g id="patch_42">
    <path clip-path="url(#p1e720b8bb8)" d="M 93.399174 222.117565 
L 100.316529 229.034921 
z
" style="fill:#ffffff;stroke:#000000;stroke-linejoin:miter;stroke-width:0.558;"/>
   </g>
   <g id="patch_43">
    <path clip-path="url(#p1e720b8bb8)" d="M 50.742149 232.493598 
C 51.965151 232.493598 53.138228 232.007694 54.003021 231.142901 
C 54.867815 230.278107 55.353719 229.105031 55.353719 227.882028 
C 55.353719 226.659025 54.867815 225.485949 54.003021 224.621155 
C 53.138228 223.756362 51.965151 223.270458 50.742149 223.270458 
C 49.519146 223.270458 48.34607 223.756362 47.481276 224.621155 
C 46.616483 225.485949 46.130579 226.659025 46.130579 227.882028 
C 46.130579 229.105031 46.616483 230.278107 47.481276 231.142901 
C 48.34607 232.007694 49.519146 232.493598 50.742149 232.493598 
z
" style="fill:#00a651;stroke:#000000;stroke-linejoin:miter;stroke-width:0.558;"/>
   </g>
   <g id="patch_44">
    <path clip-path="url(#p1e720b8bb8)" d="M 77.258678 222.117565 
L 70.341322 229.034921 
z
" style="fill:#ffffff;stroke:#000000;stroke-linejoin:miter;stroke-width:0.558;"/>
   </g>
   <g id="patch_45">
    <path clip-path="url(#p1e720b8bb8)" d="M 70.341322 222.117565 
L 77.258678 229.034921 
z
" style="fill:#ffffff;stroke:#000000;stroke-linejoin:miter;stroke-width:0.558;"/>
   </g>
   <g id="patch_46">
    <path clip-path="url(#p1e720b8bb8)" d="M 50.742149 200.212606 
C 51.965151 200.212606 53.138228 199.726702 54.003021 198.861909 
C 54.867815 197.997115 55.353719 196.824039 55.353719 195.601036 
C 55.353719 194.378034 54.867815 193.204957 54.003021 192.340164 
C 53.138228 191.47537 51.965151 190.989466 50.742149 190.989466 
C 49.519146 190.989466 48.34607 191.47537 47.481276 192.340164 
C 46.616483 193.204957 46.130579 194.378034 46.130579 195.601036 
C 46.130579 196.824039 46.616483 197.997115 47.481276 198.861909 
C 48.34607 199.726702 49.519146 200.212606 50.742149 200.212606 
z
" style="fill:#00a651;stroke:#000000;stroke-linejoin:miter;stroke-width:0.558;"/>
   </g>
   <g id="patch_47">
    <path clip-path="url(#p1e720b8bb8)" d="M 32.295868 190.989466 
L 32.295868 200.212606 
L 23.072727 200.212606 
L 23.072727 190.989466 
L 32.295868 190.989466 
z
" style="fill:#0090bc;stroke:#000000;stroke-linejoin:miter;stroke-width:0.558;"/>
   </g>
  </g>
  <g id="axes_4">
   <g id="line2d_16">
    <path clip-path="url(#p8f67d455b2)" d="M 87.12976 255.040652 
L 87.12976 281.387136 
" style="fill:none;stroke:#000000;stroke-linecap:square;stroke-width:1.116;"/>
   </g>
   <g id="line2d_17">
    <path clip-path="url(#p8f67d455b2)" d="M 87.12976 255.040652 
L 43.218954 255.040652 
" style="fill:none;stroke:#000000;stroke-linecap:square;stroke-width:1.116;"/>
   </g>
   <g id="line2d_18">
    <path clip-path="url(#p8f67d455b2)" d="M 43.218954 255.040652 
L 43.218954 281.387136 
" style="fill:none;stroke:#000000;stroke-linecap:square;stroke-width:1.116;"/>
   </g>
   <g id="patch_48">
    <path clip-path="url(#p8f67d455b2)" d="M 92.023413 270.366552 
Q 92.800429 270.532933 93.236106 271.05952 
Q 93.673499 271.584391 93.673499 272.356261 
Q 93.673499 273.539794 92.858748 274.18988 
Q 92.043997 274.83825 90.543139 274.83825 
Q 90.040566 274.83825 89.507118 274.738765 
Q 88.973671 274.63928 88.405918 274.440309 
L 88.405918 273.395712 
Q 88.855317 273.658148 89.39048 273.791938 
Q 89.927358 273.925729 90.512264 273.925729 
Q 91.529417 273.925729 92.062864 273.524357 
Q 92.596312 273.122985 92.596312 272.356261 
Q 92.596312 271.647856 92.1006 271.249914 
Q 91.604889 270.850257 90.721527 270.850257 
L 89.788422 270.850257 
L 89.788422 269.960034 
L 90.764408 269.960034 
Q 91.562007 269.960034 91.985678 269.640995 
Q 92.409348 269.321955 92.409348 268.721612 
Q 92.409348 268.105832 91.971955 267.776501 
Q 91.536278 267.445455 90.721527 267.445455 
Q 90.275557 267.445455 89.766123 267.543225 
Q 89.25669 267.63928 88.646055 267.841681 
L 88.646055 266.877702 
Q 89.263551 266.706175 89.802144 266.620412 
Q 90.340738 266.534648 90.817581 266.534648 
Q 92.050858 266.534648 92.767839 267.09554 
Q 93.486535 267.654717 93.486535 268.608405 
Q 93.486535 269.273928 93.105746 269.731904 
Q 92.724957 270.18988 92.023413 270.366552 
z
M 95.839666 273.32024 
L 96.970026 273.32024 
L 96.970026 274.243053 
L 96.09181 275.958319 
L 95.400557 275.958319 
L 95.839666 274.243053 
z
M 102.191938 267.622127 
L 99.457804 271.894854 
L 102.191938 271.894854 
z
M 101.907204 266.678731 
L 103.269125 266.678731 
L 103.269125 271.894854 
L 104.411492 271.894854 
L 104.411492 272.795369 
L 103.269125 272.795369 
L 103.269125 274.682161 
L 102.191938 274.682161 
L 102.191938 272.795369 
L 98.579588 272.795369 
L 98.579588 271.750772 
z
M 106.313508 273.32024 
L 107.443868 273.32024 
L 107.443868 274.243053 
L 106.565652 275.958319 
L 105.8744 275.958319 
L 106.313508 274.243053 
z
M 112.140909 270.249914 
Q 111.411921 270.249914 110.98482 270.749057 
Q 110.559434 271.246484 110.559434 272.114408 
Q 110.559434 272.977187 110.98482 273.47976 
Q 111.411921 273.980617 112.140909 273.980617 
Q 112.869897 273.980617 113.295283 273.47976 
Q 113.720669 272.977187 113.720669 272.114408 
Q 113.720669 271.246484 113.295283 270.749057 
Q 112.869897 270.249914 112.140909 270.249914 
z
M 114.290137 266.855403 
L 114.290137 267.841681 
Q 113.881904 267.649571 113.46681 267.54837 
Q 113.051715 267.445455 112.643482 267.445455 
Q 111.571441 267.445455 111.005403 268.169297 
Q 110.441081 268.893139 110.360463 270.356261 
Q 110.676072 269.889708 111.152916 269.640995 
Q 111.631475 269.392281 112.204374 269.392281 
Q 113.410206 269.392281 114.110034 270.1247 
Q 114.809863 270.855403 114.809863 272.114408 
Q 114.809863 273.347684 114.080875 274.093825 
Q 113.351887 274.83825 112.140909 274.83825 
Q 110.751544 274.83825 110.01741 273.774786 
Q 109.283276 272.709605 109.283276 270.689022 
Q 109.283276 268.791938 110.183791 267.663293 
Q 111.084305 266.534648 112.6006 266.534648 
Q 113.008834 266.534648 113.423928 266.615266 
Q 113.839022 266.695883 114.290137 266.855403 
z
"/>
   </g>
   <g id="patch_49">
    <path clip-path="url(#p8f67d455b2)" d="M 60.48825 251.369983 
L 60.251544 250.131561 
Q 60.011407 248.860549 59.056003 248.860549 
Q 58.339022 248.860549 58.011407 249.4506 
Q 57.598027 250.18988 57.598027 251.165866 
Q 57.598027 252.345969 58.001115 252.908576 
Q 58.407633 253.481475 59.056003 253.481475 
Q 59.7747 253.481475 60.160635 252.339108 
z
M 61.040566 249.730189 
L 61.570583 248.159005 
L 62.450515 248.159005 
L 61.351029 251.412864 
L 61.565437 252.586106 
Q 61.613465 252.848542 61.800429 253.068096 
Q 62.021698 253.325386 62.193225 253.325386 
L 62.664923 253.325386 
L 62.664923 254.162436 
L 62.074871 254.162436 
Q 61.570583 254.162436 61.121184 253.711321 
Q 60.899914 253.486621 60.809005 253.014923 
Q 60.563722 253.61012 60.059434 254.076672 
Q 59.822727 254.296226 59.056003 254.296226 
Q 57.796998 254.296226 57.186364 253.481475 
Q 56.558576 252.63928 56.558576 251.165866 
Q 56.558576 249.589537 57.239537 248.850257 
Q 57.995969 248.025214 59.056003 248.025214 
Q 60.723242 248.025214 61.040566 249.730189 
z
"/>
   </g>
   <g id="patch_50">
    <path clip-path="url(#p8f67d455b2)" d="M 71.232676 253.25163 
L 75.011407 253.25163 
L 75.011407 254.162436 
L 69.930789 254.162436 
L 69.930789 253.25163 
Q 70.546569 252.613551 71.610034 251.539794 
Q 72.675214 250.464322 72.947942 250.152144 
Q 73.467667 249.568954 73.673499 249.164151 
Q 73.881046 248.759348 73.881046 248.368268 
Q 73.881046 247.730189 73.433362 247.328816 
Q 72.985678 246.925729 72.266981 246.925729 
Q 71.757547 246.925729 71.191509 247.102401 
Q 70.627187 247.279074 69.983962 247.63928 
L 69.983962 246.54494 
Q 70.637479 246.282504 71.205232 246.148714 
Q 71.7747 246.014923 72.246398 246.014923 
Q 73.489966 246.014923 74.229245 246.637564 
Q 74.968525 247.258491 74.968525 248.297942 
Q 74.968525 248.791938 74.783276 249.234477 
Q 74.599743 249.6753 74.110892 250.275643 
Q 73.977101 250.431732 73.258405 251.174443 
Q 72.541424 251.917153 71.232676 253.25163 
z
"/>
   </g>
   <g id="patch_51">
    <path clip-path="url(#p8f67d455b2)" d="M 48.112607 269.806518 
Q 48.889623 269.972899 49.3253 270.499485 
Q 49.762693 271.024357 49.762693 271.796226 
Q 49.762693 272.97976 48.947942 273.629846 
Q 48.13319 274.278216 46.632333 274.278216 
Q 46.12976 274.278216 45.596312 274.178731 
Q 45.062864 274.079245 44.495111 273.880274 
L 44.495111 272.835678 
Q 44.944511 273.098113 45.479674 273.231904 
Q 46.016552 273.365695 46.601458 273.365695 
Q 47.618611 273.365695 48.152058 272.964322 
Q 48.685506 272.56295 48.685506 271.796226 
Q 48.685506 271.087822 48.189794 270.68988 
Q 47.694082 270.290223 46.81072 270.290223 
L 45.877616 270.290223 
L 45.877616 269.4 
L 46.853602 269.4 
Q 47.651201 269.4 48.074871 269.080961 
Q 48.498542 268.761921 48.498542 268.161578 
Q 48.498542 267.545798 48.061149 267.216467 
Q 47.625472 266.88542 46.81072 266.88542 
Q 46.364751 266.88542 45.855317 266.98319 
Q 45.345883 267.079245 44.735249 267.281647 
L 44.735249 266.317667 
Q 45.352744 266.146141 45.891338 266.060377 
Q 46.429931 265.974614 46.906775 265.974614 
Q 48.140051 265.974614 48.857033 266.535506 
Q 49.575729 267.094683 49.575729 268.04837 
Q 49.575729 268.713894 49.19494 269.17187 
Q 48.814151 269.629846 48.112607 269.806518 
z
"/>
   </g>
   <g id="patch_52">
    <path clip-path="url(#p8f67d455b2)" d="M 87.12976 263.822813 
C 89.458816 263.822813 91.692794 262.897469 93.339686 261.250578 
C 94.986577 259.603686 95.911921 257.369708 95.911921 255.040652 
C 95.911921 252.711595 94.986577 250.477618 93.339686 248.830726 
C 91.692794 247.183834 89.458816 246.258491 87.12976 246.258491 
C 84.800703 246.258491 82.566726 247.183834 80.919834 248.830726 
C 79.272943 250.477618 78.347599 252.711595 78.347599 255.040652 
C 78.347599 257.369708 79.272943 259.603686 80.919834 261.250578 
C 82.566726 262.897469 84.800703 263.822813 87.12976 263.822813 
z
" style="fill:#ffd400;stroke:#000000;stroke-linejoin:miter;stroke-width:1.116;"/>
   </g>
   <g id="patch_53">
    <path clip-path="url(#p8f67d455b2)" d="M 93.716381 274.800515 
L 80.543139 287.973756 
z
" style="fill:#ffffff;stroke:#000000;stroke-linejoin:miter;stroke-width:1.116;"/>
   </g>
   <g id="patch_54">
    <path clip-path="url(#p8f67d455b2)" d="M 80.543139 274.800515 
L 93.716381 287.973756 
z
" style="fill:#ffffff;stroke:#000000;stroke-linejoin:miter;stroke-width:1.116;"/>
   </g>
   <g id="patch_55">
    <path clip-path="url(#p8f67d455b2)" d="M 43.218954 246.697599 
L 53.64777 263.383705 
L 32.790137 263.383705 
L 43.218954 246.697599 
z
" style="fill:#ed1c24;stroke:#000000;stroke-linejoin:miter;stroke-width:1.116;"/>
   </g>
   <g id="patch_56">
    <path clip-path="url(#p8f67d455b2)" d="M 49.805575 274.800515 
L 36.632333 287.973756 
z
" style="fill:#ffffff;stroke:#000000;stroke-linejoin:miter;stroke-width:1.116;"/>
   </g>
   <g id="patch_57">
    <path clip-path="url(#p8f67d455b2)" d="M 36.632333 274.800515 
L 49.805575 287.973756 
z
" style="fill:#ffffff;stroke:#000000;stroke-linejoin:miter;stroke-width:1.116;"/>
   </g>
  </g>
  <g id="axes_5">
   <g id="line2d_19">
    <path clip-path="url(#p9e43484019)" d="M 91.689386 314.12336 
L 61.022723 314.12336 
" style="fill:none;stroke:#000000;stroke-linecap:square;stroke-width:0.6696;"/>
   </g>
   <g id="line2d_20">
    <path clip-path="url(#p9e43484019)" d="M 61.022723 314.12336 
L 30.35606 314.12336 
" style="fill:none;stroke:#000000;stroke-linecap:square;stroke-width:0.6696;"/>
   </g>
   <g id="line2d_21">
    <path clip-path="url(#p9e43484019)" d="M 30.35606 314.12336 
L 30.35606 332.523358 
" style="fill:none;stroke:#000000;stroke-linecap:square;stroke-width:0.6696;"/>
   </g>
   <g id="line2d_22">
    <path clip-path="url(#p9e43484019)" d="M 122.356049 314.12336 
L 91.689386 314.12336 
" style="fill:none;stroke:#000000;stroke-linecap:square;stroke-width:0.6696;"/>
   </g>
   <g id="patch_58">
    <path clip-path="url(#p9e43484019)" d="M 71.327201 313.251277 
L 71.327201 315.104454 
L 70.634805 315.104454 
L 70.634805 309.343673 
Q 70.634805 307.636642 72.229232 307.636642 
Q 73.854805 307.636642 73.854805 309.077736 
Q 73.854805 310.103152 73.210326 310.4781 
Q 74.258503 310.814715 74.258503 311.813777 
Q 74.258503 313.58909 72.45444 313.58909 
Q 71.660222 313.58909 71.327201 313.251277 
z
M 71.327201 312.35284 
Q 71.742878 313.000913 72.480794 313.000913 
Q 73.558919 313.000913 73.558919 311.825756 
Q 73.558919 310.769194 71.82194 310.85185 
L 71.82194 310.215757 
Q 73.180378 310.215757 73.180378 309.01784 
Q 73.180378 308.198465 72.304701 308.198465 
Q 71.327201 308.198465 71.327201 309.366434 
z
"/>
   </g>
   <g id="patch_59">
    <path clip-path="url(#p9e43484019)" d="M 82.013814 308.579403 
L 80.104335 311.563413 
L 82.013814 311.563413 
z
M 81.81496 307.920549 
L 82.766106 307.920549 
L 82.766106 311.563413 
L 83.563918 311.563413 
L 83.563918 312.192319 
L 82.766106 312.192319 
L 82.766106 313.510027 
L 82.013814 313.510027 
L 82.013814 312.192319 
L 79.491002 312.192319 
L 79.491002 311.462788 
z
"/>
   </g>
   <g id="patch_60">
    <path clip-path="url(#p9e43484019)" d="M 42.416683 311.559819 
L 42.251371 310.694923 
Q 42.083663 309.807267 41.416423 309.807267 
Q 40.915694 309.807267 40.686892 310.21935 
Q 40.398194 310.735652 40.398194 311.417267 
Q 40.398194 312.241433 40.679704 312.63435 
Q 40.963611 313.034454 41.416423 313.034454 
Q 41.91835 313.034454 42.187881 312.236642 
z
M 42.802412 310.414611 
L 43.172569 309.317319 
L 43.7871 309.317319 
L 43.019235 311.589767 
L 43.168975 312.409142 
Q 43.202517 312.592423 43.333089 312.745756 
Q 43.487621 312.925444 43.607412 312.925444 
L 43.936839 312.925444 
L 43.936839 313.510027 
L 43.524756 313.510027 
Q 43.172569 313.510027 42.858715 313.194975 
Q 42.704183 313.038048 42.640694 312.708621 
Q 42.469392 313.124298 42.117204 313.450131 
Q 41.951892 313.603465 41.416423 313.603465 
Q 40.537152 313.603465 40.110694 313.034454 
Q 39.672257 312.446277 39.672257 311.417267 
Q 39.672257 310.316382 40.147829 309.80008 
Q 40.676111 309.223882 41.416423 309.223882 
Q 42.580798 309.223882 42.802412 310.414611 
z
"/>
   </g>
   <g id="patch_61">
    <path clip-path="url(#p9e43484019)" d="M 49.920432 312.873933 
L 52.559443 312.873933 
L 52.559443 313.510027 
L 49.011214 313.510027 
L 49.011214 312.873933 
Q 49.441266 312.428308 50.183974 311.678413 
Q 50.92788 310.927319 51.118349 310.709298 
Q 51.481318 310.302007 51.625068 310.019298 
Q 51.770016 309.73659 51.770016 309.463465 
Q 51.770016 309.01784 51.457359 308.737528 
Q 51.144703 308.456017 50.642776 308.456017 
Q 50.286995 308.456017 49.891682 308.579403 
Q 49.497568 308.702788 49.048349 308.954351 
L 49.048349 308.19008 
Q 49.504755 308.006799 49.901266 307.913361 
Q 50.298974 307.819924 50.628401 307.819924 
Q 51.496891 307.819924 52.013193 308.254767 
Q 52.529495 308.688413 52.529495 309.41435 
Q 52.529495 309.75935 52.40012 310.068413 
Q 52.271943 310.376277 51.930536 310.795548 
Q 51.837099 310.904559 51.335172 311.423256 
Q 50.834443 311.941954 49.920432 312.873933 
z
"/>
   </g>
   <g id="patch_62">
    <path clip-path="url(#p9e43484019)" d="M 33.773716 324.435625 
Q 34.316372 324.551823 34.620643 324.919583 
Q 34.926111 325.286145 34.926111 325.825208 
Q 34.926111 326.65177 34.357101 327.105781 
Q 33.788091 327.558593 32.739914 327.558593 
Q 32.388924 327.558593 32.016372 327.489114 
Q 31.64382 327.419635 31.24731 327.280677 
L 31.24731 326.551145 
Q 31.561164 326.734427 31.934914 326.827864 
Q 32.309862 326.921302 32.718351 326.921302 
Q 33.428716 326.921302 33.801268 326.640989 
Q 34.17382 326.360677 34.17382 325.825208 
Q 34.17382 325.330468 33.827622 325.052552 
Q 33.481424 324.773437 32.864497 324.773437 
L 32.21283 324.773437 
L 32.21283 324.151719 
L 32.894445 324.151719 
Q 33.451476 324.151719 33.747361 323.928906 
Q 34.043247 323.706094 34.043247 323.286823 
Q 34.043247 322.856771 33.737778 322.626771 
Q 33.433507 322.395573 32.864497 322.395573 
Q 32.553039 322.395573 32.197257 322.463854 
Q 31.841476 322.530937 31.415018 322.672292 
L 31.415018 321.999063 
Q 31.846268 321.879271 32.222414 321.819375 
Q 32.598559 321.759479 32.93158 321.759479 
Q 33.792882 321.759479 34.293611 322.151198 
Q 34.795538 322.541719 34.795538 323.20776 
Q 34.795538 323.672552 34.529601 323.992396 
Q 34.263663 324.312239 33.773716 324.435625 
z
"/>
   </g>
   <g id="patch_63">
    <path clip-path="url(#p9e43484019)" d="M 121.595971 317.598516 
L 121.595971 319.451693 
L 120.903575 319.451693 
L 120.903575 313.690912 
Q 120.903575 311.983881 122.498002 311.983881 
Q 124.123575 311.983881 124.123575 313.424975 
Q 124.123575 314.450392 123.479096 314.825339 
Q 124.527273 315.161954 124.527273 316.161016 
Q 124.527273 317.936329 122.72321 317.936329 
Q 121.928992 317.936329 121.595971 317.598516 
z
M 121.595971 316.700079 
Q 122.011648 317.348152 122.749565 317.348152 
Q 123.827689 317.348152 123.827689 316.172996 
Q 123.827689 315.116433 122.090711 315.199089 
L 122.090711 314.562996 
Q 123.449148 314.562996 123.449148 313.365079 
Q 123.449148 312.545704 122.573471 312.545704 
Q 121.595971 312.545704 121.595971 313.713673 
z
"/>
   </g>
   <g id="patch_64">
    <path clip-path="url(#p9e43484019)" d="M 97.822719 307.990028 
L 97.822719 320.256693 
L 85.556053 320.256693 
L 85.556053 307.990028 
L 97.822719 307.990028 
z
" style="fill:#0090bc;stroke:#000000;stroke-linejoin:miter;stroke-width:0.6696;"/>
   </g>
   <g id="patch_65">
    <path clip-path="url(#p9e43484019)" d="M 61.022723 320.256693 
C 62.649302 320.256693 64.209479 319.610446 65.359644 318.460281 
C 66.509809 317.310117 67.156055 315.749939 67.156055 314.12336 
C 67.156055 312.496782 66.509809 310.936604 65.359644 309.786439 
C 64.209479 308.636274 62.649302 307.990028 61.022723 307.990028 
C 59.396144 307.990028 57.835967 308.636274 56.685802 309.786439 
C 55.535637 310.936604 54.88939 312.496782 54.88939 314.12336 
C 54.88939 315.749939 55.535637 317.310117 56.685802 318.460281 
C 57.835967 319.610446 59.396144 320.256693 61.022723 320.256693 
z
" style="fill:#ffd400;stroke:#000000;stroke-linejoin:miter;stroke-width:0.6696;"/>
   </g>
   <g id="patch_66">
    <path clip-path="url(#p9e43484019)" d="M 30.35606 308.296694 
L 37.639392 319.950026 
L 23.072727 319.950026 
L 30.35606 308.296694 
z
" style="fill:#ed1c24;stroke:#000000;stroke-linejoin:miter;stroke-width:0.6696;"/>
   </g>
   <g id="patch_67">
    <path clip-path="url(#p9e43484019)" d="M 34.956059 327.923359 
L 25.75606 337.123358 
z
" style="fill:#ffffff;stroke:#000000;stroke-linejoin:miter;stroke-width:0.6696;"/>
   </g>
   <g id="patch_68">
    <path clip-path="url(#p9e43484019)" d="M 25.75606 327.923359 
L 34.956059 337.123358 
z
" style="fill:#ffffff;stroke:#000000;stroke-linejoin:miter;stroke-width:0.6696;"/>
   </g>
  </g>
  <g id="axes_6">
   <g id="line2d_23">
    <path clip-path="url(#p2ecdb5d7b9)" d="M 52.028314 367.275952 
L 52.028314 392.451252 
" style="fill:none;stroke:#000000;stroke-linecap:square;stroke-width:1.116;"/>
   </g>
   <g id="line2d_24">
    <path clip-path="url(#p2ecdb5d7b9)" d="M 93.987147 367.275952 
L 52.028314 367.275952 
" style="fill:none;stroke:#000000;stroke-linecap:square;stroke-width:1.116;"/>
   </g>
   <g id="patch_69">
    <path clip-path="url(#p2ecdb5d7b9)" d="M 56.704429 381.920568 
Q 57.446904 382.079553 57.863214 382.582731 
Q 58.281163 383.08427 58.281163 383.821828 
Q 58.281163 384.95275 57.50263 385.573937 
Q 56.724097 386.193485 55.289957 386.193485 
Q 54.809726 386.193485 54.299991 386.098422 
Q 53.790257 386.00336 53.247742 385.813234 
L 53.247742 384.815072 
Q 53.677165 385.065842 54.188538 385.193685 
Q 54.70155 385.321528 55.260455 385.321528 
Q 56.232392 385.321528 56.742127 384.937998 
Q 57.251861 384.554469 57.251861 383.821828 
Q 57.251861 383.144914 56.778185 382.764662 
Q 56.304509 382.382771 55.460415 382.382771 
L 54.56879 382.382771 
L 54.56879 381.532121 
L 55.501391 381.532121 
Q 56.263534 381.532121 56.668371 381.227264 
Q 57.073208 380.922407 57.073208 380.348751 
Q 57.073208 379.760344 56.655259 379.445653 
Q 56.238948 379.129322 55.460415 379.129322 
Q 55.034271 379.129322 54.547483 379.222746 
Q 54.060695 379.314531 53.477205 379.507935 
L 53.477205 378.586808 
Q 54.067251 378.422906 54.581902 378.340955 
Q 55.096553 378.259004 55.5522 378.259004 
Q 56.730653 378.259004 57.415762 378.794963 
Q 58.102511 379.329283 58.102511 380.240576 
Q 58.102511 380.876515 57.738649 381.314132 
Q 57.374787 381.75175 56.704429 381.920568 
z
M 60.351037 384.742955 
L 61.431149 384.742955 
L 61.431149 385.624747 
L 60.591972 387.263764 
L 59.931449 387.263764 
L 60.351037 385.624747 
z
M 65.919392 381.809115 
Q 65.22281 381.809115 64.814695 382.286069 
Q 64.408218 382.761384 64.408218 383.590727 
Q 64.408218 384.415152 64.814695 384.895384 
Q 65.22281 385.373977 65.919392 385.373977 
Q 66.615974 385.373977 67.02245 384.895384 
Q 67.428927 384.415152 67.428927 383.590727 
Q 67.428927 382.761384 67.02245 382.286069 
Q 66.615974 381.809115 65.919392 381.809115 
z
M 67.97308 378.565501 
L 67.97308 379.507935 
Q 67.582994 379.324365 67.186352 379.227663 
Q 66.78971 379.129322 66.399624 379.129322 
Q 65.375238 379.129322 64.834363 379.820988 
Q 64.295126 380.512653 64.218093 381.910734 
Q 64.519672 381.464922 64.975318 381.227264 
Q 65.432604 380.989607 65.980036 380.989607 
Q 67.132265 380.989607 67.800984 381.689467 
Q 68.469702 382.387688 68.469702 383.590727 
Q 68.469702 384.76918 67.77312 385.482152 
Q 67.076538 386.193485 65.919392 386.193485 
Q 64.591788 386.193485 63.890289 385.177295 
Q 63.18879 384.159465 63.18879 382.228704 
Q 63.18879 380.415951 64.049274 379.337478 
Q 64.909758 378.259004 66.358649 378.259004 
Q 66.748735 378.259004 67.145377 378.336038 
Q 67.542019 378.413072 67.97308 378.565501 
z
"/>
   </g>
   <g id="patch_70">
    <path clip-path="url(#p2ecdb5d7b9)" d="M 66.127137 366.082748 
L 66.127137 368.618307 
L 65.179786 368.618307 
L 65.179786 360.736274 
Q 65.179786 358.400675 67.361317 358.400675 
Q 69.585463 358.400675 69.585463 360.372413 
Q 69.585463 361.775411 68.703672 362.288423 
Q 70.137812 362.748987 70.137812 364.115927 
Q 70.137812 366.54495 67.669452 366.54495 
Q 66.582784 366.54495 66.127137 366.082748 
z
M 66.127137 364.853485 
Q 66.695876 365.740193 67.705511 365.740193 
Q 69.180626 365.740193 69.180626 364.132317 
Q 69.180626 362.686705 66.804051 362.799797 
L 66.804051 361.929479 
Q 68.662697 361.929479 68.662697 360.290462 
Q 68.662697 359.169374 67.464575 359.169374 
Q 66.127137 359.169374 66.127137 360.767416 
z
"/>
   </g>
   <g id="patch_71">
    <path clip-path="url(#p2ecdb5d7b9)" d="M 93.987147 356.786244 
L 103.963453 364.034454 
L 100.152843 375.762304 
L 87.821452 375.762304 
L 84.010842 364.034454 
z
" style="fill:#ffffff;stroke:#000000;stroke-linejoin:miter;stroke-width:1.116;"/>
   </g>
   <g id="patch_72">
    <path clip-path="url(#p2ecdb5d7b9)" d="M 60.420081 358.884185 
L 60.420081 375.667719 
L 43.636547 375.667719 
L 43.636547 358.884185 
L 60.420081 358.884185 
z
" style="fill:#0090bc;stroke:#000000;stroke-linejoin:miter;stroke-width:1.116;"/>
   </g>
   <g id="patch_73">
    <path clip-path="url(#p2ecdb5d7b9)" d="M 58.322139 386.157427 
L 45.734489 398.745077 
z
" style="fill:#ffffff;stroke:#000000;stroke-linejoin:miter;stroke-width:1.116;"/>
   </g>
   <g id="patch_74">
    <path clip-path="url(#p2ecdb5d7b9)" d="M 45.734489 386.157427 
L 58.322139 398.745077 
z
" style="fill:#ffffff;stroke:#000000;stroke-linejoin:miter;stroke-width:1.116;"/>
   </g>
  </g>
  <g id="axes_7">
   <g id="line2d_25">
    <path clip-path="url(#pca7def7ce5)" d="M 64.257902 421.005343 
L 64.257902 447.505659 
" style="fill:none;stroke:#000000;stroke-linecap:square;stroke-width:1.674;"/>
   </g>
   <g id="patch_75">
    <path clip-path="url(#pca7def7ce5)" d="M 66.818219 439.845411 
L 70.619013 439.845411 
L 70.619013 440.761535 
L 65.508731 440.761535 
L 65.508731 439.845411 
Q 66.128107 439.203606 67.197781 438.123581 
Q 68.26918 437.041829 68.5435 436.727828 
Q 69.06626 436.141233 69.273294 435.734066 
Q 69.482053 435.3269 69.482053 434.933536 
Q 69.482053 434.291731 69.031755 433.888016 
Q 68.581456 433.482575 67.858564 433.482575 
Q 67.346155 433.482575 66.776812 433.660279 
Q 66.209195 433.837983 65.562215 434.200292 
L 65.562215 433.099562 
Q 66.219547 432.835594 66.790615 432.701022 
Q 67.363408 432.56645 67.83786 432.56645 
Q 69.088689 432.56645 69.832285 433.192727 
Q 70.575881 433.817279 70.575881 434.862799 
Q 70.575881 435.35968 70.389551 435.804803 
Q 70.204946 436.2482 69.713241 436.852048 
Q 69.578669 437.009049 68.855776 437.756096 
Q 68.134609 438.503142 66.818219 439.845411 
z
M 73.018663 439.391662 
L 74.155624 439.391662 
L 74.155624 440.319863 
L 73.27228 442.045144 
L 72.576991 442.045144 
L 73.018663 440.319863 
z
M 79.715126 436.420728 
Q 80.496678 436.58808 80.9349 437.117742 
Q 81.374846 437.645678 81.374846 438.422054 
Q 81.374846 439.612498 80.555338 440.26638 
Q 79.735829 440.918536 78.226208 440.918536 
Q 77.720701 440.918536 77.184139 440.818469 
Q 76.647576 440.718403 76.076508 440.518271 
L 76.076508 439.467574 
Q 76.528532 439.731542 77.06682 439.866114 
Q 77.606832 440.000686 78.195153 440.000686 
Q 79.218245 440.000686 79.754807 439.596971 
Q 80.29137 439.193255 80.29137 438.422054 
Q 80.29137 437.709513 79.792764 437.309248 
Q 79.294157 436.907257 78.405638 436.907257 
L 77.467085 436.907257 
L 77.467085 436.011837 
L 78.44877 436.011837 
Q 79.251025 436.011837 79.67717 435.690934 
Q 80.103314 435.370032 80.103314 434.766184 
Q 80.103314 434.146808 79.663367 433.815554 
Q 79.225146 433.482575 78.405638 433.482575 
Q 77.957065 433.482575 77.444656 433.580916 
Q 76.932248 433.677531 76.318048 433.881115 
L 76.318048 432.911507 
Q 76.939149 432.738979 77.480887 432.652715 
Q 78.022625 432.56645 78.502253 432.56645 
Q 79.74273 432.56645 80.463898 433.130617 
Q 81.186791 433.693059 81.186791 434.652315 
Q 81.186791 435.321724 80.803778 435.782374 
Q 80.420766 436.243024 79.715126 436.420728 
z
M 83.55366 439.391662 
L 84.690621 439.391662 
L 84.690621 440.319863 
L 83.807277 442.045144 
L 83.111988 442.045144 
L 83.55366 440.319863 
z
M 89.943023 433.660279 
L 87.192925 437.957954 
L 89.943023 437.957954 
z
M 89.656626 432.711374 
L 91.026499 432.711374 
L 91.026499 437.957954 
L 92.175536 437.957954 
L 92.175536 438.863726 
L 91.026499 438.863726 
L 91.026499 440.761535 
L 89.943023 440.761535 
L 89.943023 438.863726 
L 86.309581 438.863726 
L 86.309581 437.81303 
z
"/>
   </g>
   <g id="patch_76">
    <path clip-path="url(#pca7def7ce5)" d="M 64.257902 429.838781 
C 66.600557 429.838781 68.847579 428.908034 70.504087 427.251527 
C 72.160594 425.59502 73.091341 423.347998 73.091341 421.005343 
C 73.091341 418.662687 72.160594 416.415666 70.504087 414.759158 
C 68.847579 413.102651 66.600557 412.171904 64.257902 412.171904 
C 61.915247 412.171904 59.668225 413.102651 58.011718 414.759158 
C 56.35521 416.415666 55.424464 418.662687 55.424464 421.005343 
C 55.424464 423.347998 56.35521 425.59502 58.011718 427.251527 
C 59.668225 428.908034 61.915247 429.838781 64.257902 429.838781 
z
" style="fill:#ffd400;stroke:#000000;stroke-linejoin:miter;stroke-width:1.674;"/>
   </g>
   <g id="patch_77">
    <path clip-path="url(#pca7def7ce5)" d="M 70.882981 440.88058 
L 57.632823 454.130738 
z
" style="fill:#ffffff;stroke:#000000;stroke-linejoin:miter;stroke-width:1.674;"/>
   </g>
   <g id="patch_78">
    <path clip-path="url(#pca7def7ce5)" d="M 57.632823 440.88058 
L 70.882981 454.130738 
z
" style="fill:#ffffff;stroke:#000000;stroke-linejoin:miter;stroke-width:1.674;"/>
   </g>
  </g>
  <g id="axes_8">
   <g id="line2d_26">
    <path clip-path="url(#pb459dd5605)" d="M 110.033766 488.954519 
L 37.566234 488.954519 
" style="fill:none;stroke:#000000;stroke-linecap:square;stroke-width:1.116;"/>
   </g>
   <g id="patch_79">
    <path clip-path="url(#pb459dd5605)" d="M 61.916457 486.893723 
L 61.916457 491.272914 
L 60.280276 491.272914 
L 60.280276 477.659774 
Q 60.280276 473.625937 64.048022 473.625937 
Q 67.889367 473.625937 67.889367 477.031345 
Q 67.889367 479.454478 66.366416 480.340507 
Q 68.843334 481.135951 68.843334 483.496808 
Q 68.843334 487.691998 64.580205 487.691998 
Q 62.703409 487.691998 61.916457 486.893723 
z
M 61.916457 484.770651 
Q 62.898732 486.302094 64.642482 486.302094 
Q 67.190168 486.302094 67.190168 483.525115 
Q 67.190168 481.028382 63.085562 481.223705 
L 63.085562 479.72057 
Q 66.295647 479.72057 66.295647 476.889807 
Q 66.295647 474.953565 64.22636 474.953565 
Q 61.916457 474.953565 61.916457 477.713559 
z
"/>
   </g>
   <g id="patch_80">
    <path clip-path="url(#pb459dd5605)" d="M 87.673569 480.382968 
Q 88.955905 480.657552 89.674919 481.526597 
Q 90.396763 482.39281 90.396763 483.666653 
Q 90.396763 485.61988 89.052151 486.692739 
Q 87.707539 487.762767 85.230621 487.762767 
Q 84.401207 487.762767 83.52084 487.598583 
Q 82.640473 487.434399 81.70349 487.10603 
L 81.70349 485.382096 
Q 82.44515 485.815203 83.328348 486.036002 
Q 84.214377 486.256802 85.179667 486.256802 
Q 86.85831 486.256802 87.738677 485.594403 
Q 88.619044 484.932004 88.619044 483.666653 
Q 88.619044 482.497548 87.800954 481.840811 
Q 86.982863 481.181244 85.52502 481.181244 
L 83.985085 481.181244 
L 83.985085 479.712078 
L 85.595789 479.712078 
Q 86.912094 479.712078 87.611293 479.185556 
Q 88.310491 478.659034 88.310491 477.668267 
Q 88.310491 476.652023 87.588647 476.108516 
Q 86.869633 475.562179 85.52502 475.562179 
Q 84.789022 475.562179 83.948285 475.723532 
Q 83.107549 475.882055 82.099797 476.216085 
L 82.099797 474.625196 
Q 83.118872 474.34212 84.007731 474.200582 
Q 84.896591 474.059044 85.683543 474.059044 
Q 87.718862 474.059044 88.902121 474.984703 
Q 90.08821 475.907532 90.08821 477.481436 
Q 90.08821 478.579772 89.459781 479.335586 
Q 88.831351 480.0914 87.673569 480.382968 
z
"/>
   </g>
   <g id="patch_81">
    <path clip-path="url(#pb459dd5605)" d="M 124.527273 474.461012 
L 124.527273 503.448025 
L 95.54026 503.448025 
L 95.54026 474.461012 
L 124.527273 474.461012 
z
" style="fill:#ffd400;stroke:#000000;stroke-linejoin:miter;stroke-width:1.116;"/>
   </g>
   <g id="patch_82">
    <path clip-path="url(#pb459dd5605)" d="M 37.566234 503.448025 
C 41.409957 503.448025 45.096768 501.920898 47.81469 499.202975 
C 50.532613 496.485053 52.05974 492.798242 52.05974 488.954519 
C 52.05974 485.110796 50.532613 481.423984 47.81469 478.706062 
C 45.096768 475.988139 41.409957 474.461012 37.566234 474.461012 
C 33.722511 474.461012 30.0357 475.988139 27.317777 478.706062 
C 24.599855 481.423984 23.072727 485.110796 23.072727 488.954519 
C 23.072727 492.798242 24.599855 496.485053 27.317777 499.202975 
C 30.0357 501.920898 33.722511 503.448025 37.566234 503.448025 
z
" style="fill:#ffd400;stroke:#000000;stroke-linejoin:miter;stroke-width:1.116;"/>
   </g>
  </g>
  <g id="axes_9">
   <g id="line2d_27">
    <path clip-path="url(#p20e7367173)" d="M 64.295858 531.776663 
L 64.295858 558.276979 
" style="fill:none;stroke:#000000;stroke-linecap:square;stroke-width:1.674;"/>
   </g>
   <g id="patch_83">
    <path clip-path="url(#p20e7367173)" d="M 69.218085 547.192049 
Q 69.999637 547.359401 70.437859 547.889062 
Q 70.877805 548.416998 70.877805 549.193375 
Q 70.877805 550.383819 70.058297 551.0377 
Q 69.238788 551.689857 67.729168 551.689857 
Q 67.22366 551.689857 66.687098 551.58979 
Q 66.150535 551.489724 65.579467 551.289591 
L 65.579467 550.238895 
Q 66.031491 550.502863 66.569779 550.637435 
Q 67.109792 550.772007 67.698112 550.772007 
Q 68.721204 550.772007 69.257766 550.368291 
Q 69.794329 549.964576 69.794329 549.193375 
Q 69.794329 548.480834 69.295723 548.080569 
Q 68.797116 547.678578 67.908597 547.678578 
L 66.970044 547.678578 
L 66.970044 546.783157 
L 67.951729 546.783157 
Q 68.753984 546.783157 69.180129 546.462255 
Q 69.606273 546.141353 69.606273 545.537505 
Q 69.606273 544.918129 69.166327 544.586875 
Q 68.728105 544.253895 67.908597 544.253895 
Q 67.460024 544.253895 66.947615 544.352236 
Q 66.435207 544.448852 65.821007 544.652435 
L 65.821007 543.682827 
Q 66.442108 543.510299 66.983846 543.424035 
Q 67.525584 543.337771 68.005212 543.337771 
Q 69.24569 543.337771 69.966857 543.901938 
Q 70.68975 544.46438 70.68975 545.423636 
Q 70.68975 546.093045 70.306737 546.553695 
Q 69.923725 547.014345 69.218085 547.192049 
z
M 73.05662 550.162983 
L 74.19358 550.162983 
L 74.19358 551.091184 
L 73.310236 552.816465 
L 72.614948 552.816465 
L 73.05662 551.091184 
z
M 79.445982 544.431599 
L 76.695884 548.729274 
L 79.445982 548.729274 
z
M 79.159585 543.482695 
L 80.529458 543.482695 
L 80.529458 548.729274 
L 81.678496 548.729274 
L 81.678496 549.635047 
L 80.529458 549.635047 
L 80.529458 551.532856 
L 79.445982 551.532856 
L 79.445982 549.635047 
L 75.81254 549.635047 
L 75.81254 548.584351 
z
M 83.591617 550.162983 
L 84.728577 550.162983 
L 84.728577 551.091184 
L 83.845233 552.816465 
L 83.149945 552.816465 
L 83.591617 551.091184 
z
M 89.453043 547.07473 
Q 88.719799 547.07473 88.290204 547.576787 
Q 87.862334 548.077118 87.862334 548.95011 
Q 87.862334 549.817927 88.290204 550.323434 
Q 88.719799 550.827216 89.453043 550.827216 
Q 90.186288 550.827216 90.614157 550.323434 
Q 91.042027 549.817927 91.042027 548.95011 
Q 91.042027 548.077118 90.614157 547.576787 
Q 90.186288 547.07473 89.453043 547.07473 
z
M 91.61482 543.660399 
L 91.61482 544.652435 
Q 91.204203 544.459204 90.786685 544.357412 
Q 90.369167 544.253895 89.95855 544.253895 
Q 88.88025 544.253895 88.310907 544.981964 
Q 87.74329 545.710033 87.662201 547.181697 
Q 87.979653 546.712421 88.459281 546.462255 
Q 88.940635 546.212089 89.516878 546.212089 
Q 90.729751 546.212089 91.433666 546.948784 
Q 92.13758 547.683754 92.13758 548.95011 
Q 92.13758 550.190587 91.404336 550.941085 
Q 90.671091 551.689857 89.453043 551.689857 
Q 88.055565 551.689857 87.317145 550.620182 
Q 86.578725 549.548783 86.578725 547.516402 
Q 86.578725 545.608241 87.484497 544.473006 
Q 88.39027 543.337771 89.915418 543.337771 
Q 90.326035 543.337771 90.743553 543.418859 
Q 91.161071 543.499948 91.61482 543.660399 
z
"/>
   </g>
   <g id="patch_84">
    <path clip-path="url(#p20e7367173)" d="M 73.129297 522.943225 
L 73.129297 540.610102 
L 55.46242 540.610102 
L 55.46242 522.943225 
L 73.129297 522.943225 
z
" style="fill:#0090bc;stroke:#000000;stroke-linejoin:miter;stroke-width:1.674;"/>
   </g>
   <g id="patch_85">
    <path clip-path="url(#p20e7367173)" d="M 70.920937 551.6519 
L 57.670779 564.902058 
z
" style="fill:#ffffff;stroke:#000000;stroke-linejoin:miter;stroke-width:1.674;"/>
   </g>
   <g id="patch_86">
    <path clip-path="url(#p20e7367173)" d="M 57.670779 551.6519 
L 70.920937 564.902058 
z
" style="fill:#ffffff;stroke:#000000;stroke-linejoin:miter;stroke-width:1.674;"/>
   </g>
  </g>
 </g>
 <defs>
  <clipPath id="p7934901110">
   <rect height="46.154717" width="40.342677" x="53.628662" y="77.76"/>
  </clipPath>
  <clipPath id="p91e4a66844">
   <rect height="25.125502" width="111.6" x="18" y="143.660268"/>
  </clipPath>
  <clipPath id="p1e720b8bb8">
   <rect height="45.946822" width="111.6" x="18" y="188.635268"/>
  </clipPath>
  <clipPath id="p8f67d455b2">
   <rect height="46.154717" width="90.221698" x="28.689151" y="243.916981"/>
  </clipPath>
  <clipPath id="p9e43484019">
   <rect height="32.435387" width="111.6" x="18" y="306.162307"/>
  </clipPath>
  <clipPath id="p2ecdb5d7b9">
   <rect height="46.154717" width="66.359596" x="40.620202" y="354.688302"/>
  </clipPath>
  <clipPath id="pca7def7ce5">
   <rect height="46.154717" width="40.42618" x="53.58691" y="410.073962"/>
  </clipPath>
  <clipPath id="pb459dd5605">
   <rect height="32.804297" width="111.6" x="18" y="472.134833"/>
  </clipPath>
  <clipPath id="p20e7367173">
   <rect height="46.154717" width="40.342677" x="53.628662" y="520.845283"/>
  </clipPath>
 </defs>
</svg>
