<?xml version="1.0" encoding="utf-8" standalone="no"?>
<!DOCTYPE svg PUBLIC "-//W3C//DTD SVG 1.1//EN"
  "http://www.w3.org/Graphics/SVG/1.1/DTD/svg11.dtd">
<!-- Created with matplotlib (http://matplotlib.org/) -->
<svg height="72pt" version="1.1" viewBox="0 0 144 72" width="144pt" xmlns="http://www.w3.org/2000/svg" xmlns:xlink="http://www.w3.org/1999/xlink">
 <defs>
  <style type="text/css">
*{stroke-linecap:butt;stroke-linejoin:round;}
  </style>
 </defs>
 <g id="figure_1">
  <g id="patch_1">
   <path d="M 0 72 
L 144 72 
L 144 0 
L 0 0 
z
" style="fill:#ffffff;"/>
  </g>
  <g id="axes_1">
   <g id="line2d_1">
    <path clip-path="url(#p8ee909e61f)" d="M 32.008302 23.657497 
L 32.008302 50.46422 
" style="fill:none;stroke:#000000;stroke-linecap:square;stroke-width:0.837;"/>
   </g>
   <g id="line2d_2">
    <path clip-path="url(#p8ee909e61f)" d="M 76.686173 23.657497 
L 32.008302 23.657497 
" style="fill:none;stroke:#000000;stroke-linecap:square;stroke-width:0.837;"/>
   </g>
   <g id="line2d_3">
    <path clip-path="url(#p8ee909e61f)" d="M 121.364045 23.657497 
L 76.686173 23.657497 
" style="fill:none;stroke:#000000;stroke-linecap:square;stroke-width:0.837;"/>
   </g>
   <g id="patch_2">
    <path clip-path="url(#p8ee909e61f)" d="M 34.598222 42.715401 
L 38.442962 42.715401 
L 38.442962 43.642118 
L 33.273593 43.642118 
L 33.273593 42.715401 
Q 33.90013 42.066176 34.982172 40.973662 
Q 36.06596 39.879403 36.343451 39.561772 
Q 36.872256 38.968394 37.081683 38.55652 
Q 37.292856 38.144646 37.292856 37.746733 
Q 37.292856 37.097508 36.837351 36.689124 
Q 36.381846 36.278995 35.650595 36.278995 
Q 35.132262 36.278995 34.556336 36.458754 
Q 33.982156 36.638513 33.327695 37.005011 
L 33.327695 35.891554 
Q 33.992627 35.624534 34.570298 35.488406 
Q 35.149714 35.352279 35.629652 35.352279 
Q 36.894944 35.352279 37.647138 35.985797 
Q 38.399331 36.61757 38.399331 37.675179 
Q 38.399331 38.177805 38.210847 38.628074 
Q 38.024107 39.076598 37.526717 39.687428 
Q 37.390589 39.846244 36.659338 40.601928 
Q 35.929832 41.357613 34.598222 42.715401 
z
M 40.870358 42.256406 
L 42.020464 42.256406 
L 42.020464 43.195339 
L 41.126907 44.940569 
L 40.423579 44.940569 
L 40.870358 43.195339 
z
M 47.644248 39.251121 
Q 48.434837 39.420408 48.878125 39.956194 
Q 49.323158 40.490234 49.323158 41.275587 
Q 49.323158 42.479795 48.494174 43.141237 
Q 47.66519 43.800934 46.138115 43.800934 
Q 45.626763 43.800934 45.083996 43.699711 
Q 44.54123 43.598487 43.963559 43.396041 
L 43.963559 42.333196 
Q 44.420809 42.600216 44.965321 42.736344 
Q 45.511577 42.872472 46.106701 42.872472 
Q 47.141622 42.872472 47.684388 42.464088 
Q 48.227154 42.055704 48.227154 41.275587 
Q 48.227154 40.554807 47.722783 40.149914 
Q 47.218412 39.743276 46.319619 39.743276 
L 45.370214 39.743276 
L 45.370214 38.837502 
L 46.363249 38.837502 
Q 47.174781 38.837502 47.605853 38.512889 
Q 48.036924 38.188276 48.036924 37.577446 
Q 48.036924 36.950909 47.591891 36.615825 
Q 47.148603 36.278995 46.319619 36.278995 
Q 45.865859 36.278995 45.347526 36.378473 
Q 44.829193 36.476206 44.207891 36.682143 
L 44.207891 35.701324 
Q 44.836174 35.526801 45.384176 35.43954 
Q 45.932178 35.352279 46.417351 35.352279 
Q 47.672171 35.352279 48.401677 35.922969 
Q 49.132928 36.491913 49.132928 37.462261 
Q 49.132928 38.13941 48.745487 38.605386 
Q 48.358046 39.071362 47.644248 39.251121 
z
M 51.527165 42.256406 
L 52.677271 42.256406 
L 52.677271 43.195339 
L 51.783714 44.940569 
L 51.080386 44.940569 
L 51.527165 43.195339 
z
M 57.990404 36.458754 
L 55.208508 40.80612 
L 57.990404 40.80612 
z
M 57.700696 35.498878 
L 59.086408 35.498878 
L 59.086408 40.80612 
L 60.24873 40.80612 
L 60.24873 41.722366 
L 59.086408 41.722366 
L 59.086408 43.642118 
L 57.990404 43.642118 
L 57.990404 41.722366 
L 54.314951 41.722366 
L 54.314951 40.659521 
z
M 62.183972 42.256406 
L 63.334078 42.256406 
L 63.334078 43.195339 
L 62.44052 44.940569 
L 61.737193 44.940569 
L 62.183972 43.195339 
z
M 68.11317 39.132445 
Q 67.371448 39.132445 66.936886 39.640307 
Q 66.504069 40.146424 66.504069 41.02951 
Q 66.504069 41.90736 66.936886 42.418712 
Q 67.371448 42.928319 68.11317 42.928319 
Q 68.854893 42.928319 69.28771 42.418712 
Q 69.720526 41.90736 69.720526 41.02951 
Q 69.720526 40.146424 69.28771 39.640307 
Q 68.854893 39.132445 68.11317 39.132445 
z
M 70.299943 35.678636 
L 70.299943 36.682143 
Q 69.884578 36.486678 69.462232 36.383709 
Q 69.039887 36.278995 68.624522 36.278995 
Q 67.533754 36.278995 66.957828 37.015482 
Q 66.383648 37.751969 66.301622 39.24065 
Q 66.622744 38.765947 67.107918 38.512889 
Q 67.594837 38.259831 68.177744 38.259831 
Q 69.40464 38.259831 70.116693 39.005044 
Q 70.828747 39.748511 70.828747 41.02951 
Q 70.828747 42.28433 70.087025 43.043504 
Q 69.345302 43.800934 68.11317 43.800934 
Q 66.699534 43.800934 65.952576 42.718892 
Q 65.205618 41.635104 65.205618 39.579224 
Q 65.205618 37.649 66.121863 36.500639 
Q 67.038109 35.352279 68.580892 35.352279 
Q 68.996256 35.352279 69.418602 35.434304 
Q 69.840947 35.51633 70.299943 35.678636 
z
"/>
   </g>
   <g id="patch_3">
    <path clip-path="url(#p8ee909e61f)" d="M 49.579271 19.922706 
L 49.338429 18.66265 
Q 49.094097 17.369435 48.122004 17.369435 
Q 47.392498 17.369435 47.05916 17.969794 
Q 46.638559 18.721988 46.638559 19.715024 
Q 46.638559 20.915741 47.048688 21.488177 
Q 47.462308 22.071083 48.122004 22.071083 
Q 48.853255 22.071083 49.245932 20.90876 
z
M 50.141235 18.254267 
L 50.68051 16.655636 
L 51.575813 16.655636 
L 50.457121 19.966337 
L 50.675275 21.160073 
Q 50.724141 21.427094 50.914371 21.650483 
Q 51.139506 21.912267 51.314029 21.912267 
L 51.793967 21.912267 
L 51.793967 22.763939 
L 51.193608 22.763939 
Q 50.68051 22.763939 50.22326 22.304944 
Q 49.998126 22.076319 49.905629 21.596381 
Q 49.656061 22.201975 49.142963 22.676678 
Q 48.902122 22.900067 48.122004 22.900067 
Q 46.841006 22.900067 46.219704 22.071083 
Q 45.58095 21.214176 45.58095 19.715024 
Q 45.58095 18.111158 46.273806 17.358964 
Q 47.043452 16.519509 48.122004 16.519509 
Q 49.818367 16.519509 50.141235 18.254267 
z
"/>
   </g>
   <g id="patch_4">
    <path clip-path="url(#p8ee909e61f)" d="M 62.900606 18.372942 
Q 63.691195 18.542229 64.134484 19.078015 
Q 64.579517 19.612055 64.579517 20.397408 
Q 64.579517 21.601616 63.750533 22.263058 
Q 62.921549 22.922755 61.394473 22.922755 
Q 60.883121 22.922755 60.340355 22.821532 
Q 59.797589 22.720308 59.219918 22.517862 
L 59.219918 21.455017 
Q 59.677168 21.722037 60.221679 21.858165 
Q 60.767936 21.994293 61.363059 21.994293 
Q 62.39798 21.994293 62.940747 21.585909 
Q 63.483513 21.177526 63.483513 20.397408 
Q 63.483513 19.676628 62.979142 19.271735 
Q 62.47477 18.865097 61.575977 18.865097 
L 60.626573 18.865097 
L 60.626573 17.959323 
L 61.619608 17.959323 
Q 62.43114 17.959323 62.862211 17.63471 
Q 63.293283 17.310097 63.293283 16.699267 
Q 63.293283 16.07273 62.848249 15.737646 
Q 62.404961 15.400817 61.575977 15.400817 
Q 61.122218 15.400817 60.603885 15.500295 
Q 60.085551 15.598027 59.46425 15.803965 
L 59.46425 14.823146 
Q 60.092532 14.648623 60.640534 14.561361 
Q 61.188536 14.4741 61.67371 14.4741 
Q 62.92853 14.4741 63.658036 15.04479 
Q 64.389287 15.613735 64.389287 16.584082 
Q 64.389287 17.261231 64.001846 17.727207 
Q 63.614405 18.193184 62.900606 18.372942 
z
"/>
   </g>
   <g id="patch_5">
    <path clip-path="url(#p8ee909e61f)" d="M 120.256696 28.720407 
L 120.256696 31.420277 
L 119.247954 31.420277 
L 119.247954 23.027469 
Q 119.247954 20.540517 121.570854 20.540517 
Q 123.93913 20.540517 123.93913 22.640028 
Q 123.93913 24.133944 123.000197 24.680201 
Q 124.527273 25.17061 124.527273 26.626132 
Q 124.527273 29.212562 121.898957 29.212562 
Q 120.74187 29.212562 120.256696 28.720407 
z
M 120.256696 27.411485 
Q 120.862291 28.355654 121.937352 28.355654 
Q 123.508059 28.355654 123.508059 26.643584 
Q 123.508059 25.104292 120.977476 25.224713 
L 120.977476 24.297996 
Q 122.956566 24.297996 122.956566 22.552766 
Q 122.956566 21.35903 121.680804 21.35903 
Q 120.256696 21.35903 120.256696 23.060628 
z
"/>
   </g>
   <g id="patch_6">
    <path clip-path="url(#p8ee909e61f)" d="M 76.686173 32.593071 
C 79.055915 32.593071 81.328918 31.651562 83.004578 29.975902 
C 84.680239 28.300241 85.621747 26.027239 85.621747 23.657497 
C 85.621747 21.287755 84.680239 19.014752 83.004578 17.339091 
C 81.328918 15.663431 79.055915 14.721922 76.686173 14.721922 
C 74.316431 14.721922 72.043429 15.663431 70.367768 17.339091 
C 68.692107 19.014752 67.750599 21.287755 67.750599 23.657497 
C 67.750599 26.027239 68.692107 28.300241 70.367768 29.975902 
C 72.043429 31.651562 74.316431 32.593071 76.686173 32.593071 
z
" style="fill:#ffd400;stroke:#000000;stroke-linejoin:miter;stroke-width:0.837;"/>
   </g>
   <g id="patch_7">
    <path clip-path="url(#p8ee909e61f)" d="M 32.008302 32.593071 
C 34.378044 32.593071 36.651046 31.651562 38.326707 29.975902 
C 40.002367 28.300241 40.943876 26.027239 40.943876 23.657497 
C 40.943876 21.287755 40.002367 19.014752 38.326707 17.339091 
C 36.651046 15.663431 34.378044 14.721922 32.008302 14.721922 
C 29.63856 14.721922 27.365557 15.663431 25.689896 17.339091 
C 24.014236 19.014752 23.072727 21.287755 23.072727 23.657497 
C 23.072727 26.027239 24.014236 28.300241 25.689896 29.975902 
C 27.365557 31.651562 29.63856 32.593071 32.008302 32.593071 
z
" style="fill:#ffd400;stroke:#000000;stroke-linejoin:miter;stroke-width:0.837;"/>
   </g>
   <g id="patch_8">
    <path clip-path="url(#p8ee909e61f)" d="M 38.709982 43.762539 
L 25.306621 57.1659 
z
" style="fill:#ffffff;stroke:#000000;stroke-linejoin:miter;stroke-width:0.837;"/>
   </g>
   <g id="patch_9">
    <path clip-path="url(#p8ee909e61f)" d="M 25.306621 43.762539 
L 38.709982 57.1659 
z
" style="fill:#ffffff;stroke:#000000;stroke-linejoin:miter;stroke-width:0.837;"/>
   </g>
  </g>
 </g>
 <defs>
  <clipPath id="p8ee909e61f">
   <rect height="46.960981" width="111.6" x="18" y="12.33951"/>
  </clipPath>
 </defs>
</svg>
