<?xml version="1.0" encoding="utf-8" standalone="no"?>
<!DOCTYPE svg PUBLIC "-//W3C//DTD SVG 1.1//EN"
  "http://www.w3.org/Graphics/SVG/1.1/DTD/svg11.dtd">
<!-- Created with matplotlib (http://matplotlib.org/) -->
<svg height="360pt" version="1.1" viewBox="0 0 144 360" width="144pt" xmlns="http://www.w3.org/2000/svg" xmlns:xlink="http://www.w3.org/1999/xlink">
 <defs>
  <style type="text/css">
*{stroke-linecap:butt;stroke-linejoin:round;}
  </style>
 </defs>
 <g id="figure_1">
  <g id="patch_1">
   <path d="M 0 360 
L 144 360 
L 144 0 
L 0 0 
z
" style="fill:#ffffff;"/>
  </g>
  <g id="axes_1">
   <g id="line2d_1">
    <path clip-path="url(#pd5e13db2fa)" d="M 46.009107 56.996567 
L 46.009107 81.744893 
" style="fill:none;stroke:#000000;stroke-linecap:square;stroke-width:1.116;"/>
   </g>
   <g id="line2d_2">
    <path clip-path="url(#pd5e13db2fa)" d="M 87.256317 56.996567 
L 46.009107 56.996567 
" style="fill:none;stroke:#000000;stroke-linecap:square;stroke-width:1.116;"/>
   </g>
   <g id="line2d_3">
    <path clip-path="url(#pd5e13db2fa)" d="M 87.256317 56.996567 
L 87.256317 81.744893 
" style="fill:none;stroke:#000000;stroke-linecap:square;stroke-width:1.116;"/>
   </g>
   <g id="patch_2">
    <path clip-path="url(#pd5e13db2fa)" d="M 49.698798 71.876176 
Q 48.97375 71.876176 48.558055 72.26448 
Q 48.143972 72.652784 48.143972 73.331107 
Q 48.143972 74.011041 48.558055 74.399345 
Q 48.97375 74.787649 49.698798 74.787649 
Q 50.423847 74.787649 50.841153 74.397734 
Q 51.26007 74.006208 51.26007 73.331107 
Q 51.26007 72.652784 50.844375 72.26448 
Q 50.430292 71.876176 49.698798 71.876176 
z
M 48.682119 71.444369 
Q 48.027964 71.283247 47.662217 70.835328 
Q 47.298082 70.385798 47.298082 69.741311 
Q 47.298082 68.840639 47.939347 68.316993 
Q 48.582224 67.793347 49.698798 67.793347 
Q 50.821818 67.793347 51.461472 68.316993 
Q 52.101126 68.840639 52.101126 69.741311 
Q 52.101126 70.385798 51.735379 70.835328 
Q 51.371244 71.283247 50.721923 71.444369 
Q 51.456639 71.615158 51.865888 72.114636 
Q 52.276749 72.612503 52.276749 73.331107 
Q 52.276749 74.425125 51.609704 75.009997 
Q 50.94266 75.593259 49.698798 75.593259 
Q 48.456548 75.593259 47.787892 75.009997 
Q 47.120848 74.425125 47.120848 73.331107 
Q 47.120848 72.612503 47.53332 72.114636 
Q 47.947403 71.615158 48.682119 71.444369 
z
M 48.309928 69.837984 
Q 48.309928 70.421245 48.674063 70.748323 
Q 49.03981 71.0754 49.698798 71.0754 
Q 50.354565 71.0754 50.723534 70.748323 
Q 51.094114 70.421245 51.094114 69.837984 
Q 51.094114 69.253111 50.723534 68.926034 
Q 50.354565 68.598956 49.698798 68.598956 
Q 49.03981 68.598956 48.674063 68.926034 
Q 48.309928 69.253111 48.309928 69.837984 
z
M 54.190676 74.16733 
L 55.252469 74.16733 
L 55.252469 75.034166 
L 54.427525 76.645385 
L 53.778204 76.645385 
L 54.190676 75.034166 
z
M 57.392773 75.290349 
L 57.392773 74.363898 
Q 57.776243 74.545966 58.167769 74.641028 
Q 58.560907 74.73609 58.939543 74.73609 
Q 59.946555 74.73609 60.476646 74.059378 
Q 61.008349 73.382666 61.084076 72.001851 
Q 60.792445 72.435269 60.342915 72.667285 
Q 59.894996 72.8993 59.352015 72.8993 
Q 58.224162 72.8993 57.566784 72.217754 
Q 56.909407 71.534597 56.909407 70.350351 
Q 56.909407 69.193496 57.594175 68.494227 
Q 58.278943 67.793347 59.416464 67.793347 
Q 60.721552 67.793347 61.407931 68.793914 
Q 62.095921 69.79287 62.095921 71.695719 
Q 62.095921 73.472894 61.251643 74.533076 
Q 60.408975 75.593259 58.984657 75.593259 
Q 58.601187 75.593259 58.20805 75.517531 
Q 57.816523 75.441804 57.392773 75.290349 
z
M 59.416464 72.103358 
Q 60.101232 72.103358 60.500815 71.636104 
Q 60.902008 71.16724 60.902008 70.350351 
Q 60.902008 69.539908 60.500815 69.069432 
Q 60.101232 68.598956 59.416464 68.598956 
Q 58.731696 68.598956 58.332114 69.069432 
Q 57.932531 69.539908 57.932531 70.350351 
Q 57.932531 71.16724 58.332114 71.636104 
Q 58.731696 72.103358 59.416464 72.103358 
z
"/>
   </g>
   <g id="patch_3">
    <path clip-path="url(#pd5e13db2fa)" d="M 62.230861 53.548558 
L 62.008513 52.385258 
Q 61.782942 51.191344 60.885493 51.191344 
Q 60.212003 51.191344 59.904261 51.745604 
Q 59.515957 52.440039 59.515957 53.356823 
Q 59.515957 54.465342 59.894593 54.993822 
Q 60.276452 55.531969 60.885493 55.531969 
Q 61.560594 55.531969 61.923118 54.458897 
z
M 62.749674 52.008232 
L 63.24754 50.532356 
L 64.074096 50.532356 
L 63.041304 53.588838 
L 63.242707 54.690912 
Q 63.287821 54.937429 63.463444 55.143665 
Q 63.671291 55.385348 63.832413 55.385348 
L 64.275498 55.385348 
L 64.275498 56.171623 
L 63.721239 56.171623 
Q 63.24754 56.171623 62.825401 55.747872 
Q 62.617554 55.536802 62.532159 55.093717 
Q 62.301755 55.65281 61.828056 56.091062 
Q 61.605708 56.297298 60.885493 56.297298 
Q 59.702858 56.297298 59.129264 55.531969 
Q 58.539558 54.74086 58.539558 53.356823 
Q 58.539558 51.876112 59.179212 51.181677 
Q 59.88976 50.406681 60.885493 50.406681 
Q 62.451598 50.406681 62.749674 52.008232 
z
"/>
   </g>
   <g id="patch_4">
    <path clip-path="url(#pd5e13db2fa)" d="M 74.529297 52.117795 
Q 75.259179 52.274084 75.668429 52.768728 
Q 76.07929 53.261761 76.07929 53.98681 
Q 76.07929 55.098551 75.313961 55.709203 
Q 74.548632 56.318244 73.138815 56.318244 
Q 72.666728 56.318244 72.165638 56.224793 
Q 71.664549 56.131342 71.131236 55.944441 
L 71.131236 54.963208 
Q 71.553375 55.209725 72.056076 55.3354 
Q 72.560387 55.461075 73.109813 55.461075 
Q 74.065266 55.461075 74.566355 55.08405 
Q 75.067444 54.707025 75.067444 53.98681 
Q 75.067444 53.321376 74.601802 52.947573 
Q 74.136159 52.572159 73.306382 52.572159 
L 72.429878 52.572159 
L 72.429878 51.735936 
L 73.346662 51.735936 
Q 74.095879 51.735936 74.49385 51.43625 
Q 74.891821 51.136563 74.891821 50.572636 
Q 74.891821 49.994208 74.48096 49.684854 
Q 74.071711 49.373889 73.306382 49.373889 
Q 72.887465 49.373889 72.408933 49.465729 
Q 71.9304 49.555957 71.356806 49.746081 
L 71.356806 48.840576 
Q 71.936845 48.679454 72.442768 48.598893 
Q 72.948691 48.518332 73.39661 48.518332 
Q 74.555076 48.518332 75.228566 49.0452 
Q 75.903667 49.570458 75.903667 50.466296 
Q 75.903667 51.091449 75.545976 51.521644 
Q 75.188286 51.95184 74.529297 52.117795 
z
"/>
   </g>
   <g id="patch_5">
    <path clip-path="url(#pd5e13db2fa)" d="M 89.647366 74.59108 
L 93.196882 74.59108 
L 93.196882 75.446638 
L 88.424451 75.446638 
L 88.424451 74.59108 
Q 89.002879 73.991707 90.001835 72.983084 
Q 91.002402 71.972849 91.258586 71.679607 
Q 91.746785 71.131793 91.940131 70.751545 
Q 92.135089 70.371297 92.135089 70.003939 
Q 92.135089 69.404566 91.714561 69.02754 
Q 91.294032 68.648904 90.618932 68.648904 
Q 90.140399 68.648904 89.608697 68.81486 
Q 89.078606 68.980815 88.474399 69.319171 
L 88.474399 68.291213 
Q 89.088273 68.044697 89.621587 67.919022 
Q 90.156512 67.793347 90.599597 67.793347 
Q 91.767731 67.793347 92.462166 68.378219 
Q 93.156602 68.96148 93.156602 69.937879 
Q 93.156602 70.40191 92.98259 70.817605 
Q 92.81019 71.231688 92.350992 71.795615 
Q 92.225317 71.942236 91.550216 72.639894 
Q 90.876727 73.337552 89.647366 74.59108 
z
M 95.437887 74.16733 
L 96.49968 74.16733 
L 96.49968 75.034166 
L 95.674736 76.645385 
L 95.025415 76.645385 
L 95.437887 75.034166 
z
M 101.404835 68.81486 
L 98.836552 72.828406 
L 101.404835 72.828406 
z
M 101.137373 67.928689 
L 102.416681 67.928689 
L 102.416681 72.828406 
L 103.489753 72.828406 
L 103.489753 73.674297 
L 102.416681 73.674297 
L 102.416681 75.446638 
L 101.404835 75.446638 
L 101.404835 73.674297 
L 98.011608 73.674297 
L 98.011608 72.693064 
z
M 105.276394 74.16733 
L 106.338187 74.16733 
L 106.338187 75.034166 
L 105.513243 76.645385 
L 104.863922 76.645385 
L 105.276394 75.034166 
z
M 110.750309 71.283247 
Q 110.065541 71.283247 109.664348 71.752112 
Q 109.264765 72.219366 109.264765 73.034643 
Q 109.264765 73.845086 109.664348 74.317173 
Q 110.065541 74.787649 110.750309 74.787649 
Q 111.435078 74.787649 111.83466 74.317173 
Q 112.234242 73.845086 112.234242 73.034643 
Q 112.234242 72.219366 111.83466 71.752112 
Q 111.435078 71.283247 110.750309 71.283247 
z
M 112.769167 68.094645 
L 112.769167 69.021096 
Q 112.385697 68.840639 111.995782 68.745577 
Q 111.605867 68.648904 111.222397 68.648904 
Q 110.215385 68.648904 109.683682 69.328838 
Q 109.153591 70.008773 109.077864 71.383143 
Q 109.374328 70.944891 109.822247 70.711264 
Q 110.271777 70.477638 110.809924 70.477638 
Q 111.942612 70.477638 112.599989 71.165628 
Q 113.257366 71.852008 113.257366 73.034643 
Q 113.257366 74.193109 112.572598 74.893989 
Q 111.88783 75.593259 110.750309 75.593259 
Q 109.445222 75.593259 108.75562 74.594303 
Q 108.066018 73.593736 108.066018 71.695719 
Q 108.066018 69.913711 108.911908 68.853529 
Q 109.757798 67.793347 111.182116 67.793347 
Q 111.565586 67.793347 111.955501 67.869074 
Q 112.345416 67.944801 112.769167 68.094645 
z
"/>
   </g>
   <g id="patch_6">
    <path clip-path="url(#pd5e13db2fa)" d="M 87.256317 65.246009 
C 89.444095 65.246009 91.542561 64.376796 93.089554 62.829803 
C 94.636546 61.282811 95.505759 59.184345 95.505759 56.996567 
C 95.505759 54.808789 94.636546 52.710323 93.089554 51.163331 
C 91.542561 49.616338 89.444095 48.747125 87.256317 48.747125 
C 85.06854 48.747125 82.970073 49.616338 81.423081 51.163331 
C 79.876088 52.710323 79.006875 54.808789 79.006875 56.996567 
C 79.006875 59.184345 79.876088 61.282811 81.423081 62.829803 
C 82.970073 64.376796 85.06854 65.246009 87.256317 65.246009 
z
" style="fill:#ffd400;stroke:#000000;stroke-linejoin:miter;stroke-width:1.116;"/>
   </g>
   <g id="patch_7">
    <path clip-path="url(#pd5e13db2fa)" d="M 46.009107 45.330094 
L 57.675579 56.996567 
L 46.009107 68.66304 
L 34.342634 56.996567 
L 46.009107 45.330094 
z
" style="fill:#a54399;stroke:#000000;stroke-linejoin:miter;stroke-width:1.116;"/>
   </g>
   <g id="patch_8">
    <path clip-path="url(#pd5e13db2fa)" d="M 93.443399 75.557812 
L 81.069236 87.931975 
z
" style="fill:#ffffff;stroke:#000000;stroke-linejoin:miter;stroke-width:1.116;"/>
   </g>
   <g id="patch_9">
    <path clip-path="url(#pd5e13db2fa)" d="M 81.069236 75.557812 
L 93.443399 87.931975 
z
" style="fill:#ffffff;stroke:#000000;stroke-linejoin:miter;stroke-width:1.116;"/>
   </g>
   <g id="patch_10">
    <path clip-path="url(#pd5e13db2fa)" d="M 52.196188 75.557812 
L 39.822025 87.931975 
z
" style="fill:#ffffff;stroke:#000000;stroke-linejoin:miter;stroke-width:1.116;"/>
   </g>
   <g id="patch_11">
    <path clip-path="url(#pd5e13db2fa)" d="M 39.822025 75.557812 
L 52.196188 87.931975 
z
" style="fill:#ffffff;stroke:#000000;stroke-linejoin:miter;stroke-width:1.116;"/>
   </g>
  </g>
  <g id="axes_2">
   <g id="line2d_4">
    <path clip-path="url(#pd372499eaf)" d="M 71.589829 113.23105 
L 71.589829 137.979376 
" style="fill:none;stroke:#000000;stroke-linecap:square;stroke-width:1.674;"/>
   </g>
   <g id="patch_12">
    <path clip-path="url(#pd372499eaf)" d="M 75.279521 128.110659 
Q 74.554472 128.110659 74.138778 128.498963 
Q 73.724694 128.887266 73.724694 129.56559 
Q 73.724694 130.245524 74.138778 130.633828 
Q 74.554472 131.022132 75.279521 131.022132 
Q 76.00457 131.022132 76.421875 130.632217 
Q 76.840792 130.24069 76.840792 129.56559 
Q 76.840792 128.887266 76.425098 128.498963 
Q 76.011014 128.110659 75.279521 128.110659 
z
M 74.262842 127.678852 
Q 73.608687 127.51773 73.24294 127.069811 
Q 72.878804 126.620281 72.878804 125.975793 
Q 72.878804 125.075122 73.52007 124.551476 
Q 74.162946 124.027829 75.279521 124.027829 
Q 76.402541 124.027829 77.042195 124.551476 
Q 77.681849 125.075122 77.681849 125.975793 
Q 77.681849 126.620281 77.316102 127.069811 
Q 76.951966 127.51773 76.302645 127.678852 
Q 77.037361 127.849641 77.446611 128.349119 
Q 77.857472 128.846986 77.857472 129.56559 
Q 77.857472 130.659607 77.190427 131.24448 
Q 76.523382 131.827741 75.279521 131.827741 
Q 74.037271 131.827741 73.368615 131.24448 
Q 72.70157 130.659607 72.70157 129.56559 
Q 72.70157 128.846986 73.114042 128.349119 
Q 73.528126 127.849641 74.262842 127.678852 
z
M 73.89065 126.072466 
Q 73.89065 126.655728 74.254785 126.982805 
Q 74.620532 127.309883 75.279521 127.309883 
Q 75.935287 127.309883 76.304256 126.982805 
Q 76.674837 126.655728 76.674837 126.072466 
Q 76.674837 125.487594 76.304256 125.160516 
Q 75.935287 124.833439 75.279521 124.833439 
Q 74.620532 124.833439 74.254785 125.160516 
Q 73.89065 125.487594 73.89065 126.072466 
z
M 79.771399 130.401812 
L 80.833192 130.401812 
L 80.833192 131.268648 
L 80.008248 132.879867 
L 79.358926 132.879867 
L 79.771399 131.268648 
z
M 82.973495 131.524832 
L 82.973495 130.598381 
Q 83.356965 130.780449 83.748492 130.875511 
Q 84.141629 130.970573 84.520266 130.970573 
Q 85.527278 130.970573 86.057369 130.293861 
Q 86.589071 129.617149 86.664798 128.236334 
Q 86.373168 128.669752 85.923637 128.901767 
Q 85.475719 129.133783 84.932738 129.133783 
Q 83.804884 129.133783 83.147507 128.452237 
Q 82.490129 127.76908 82.490129 126.584834 
Q 82.490129 125.427979 83.174898 124.72871 
Q 83.859666 124.027829 84.997186 124.027829 
Q 86.302274 124.027829 86.988653 125.028396 
Q 87.676644 126.027352 87.676644 127.930202 
Q 87.676644 129.707377 86.832365 130.767559 
Q 85.989697 131.827741 84.56538 131.827741 
Q 84.18191 131.827741 83.788772 131.752014 
Q 83.397246 131.676287 82.973495 131.524832 
z
M 84.997186 128.337841 
Q 85.681955 128.337841 86.081537 127.870587 
Q 86.482731 127.401722 86.482731 126.584834 
Q 86.482731 125.774391 86.081537 125.303915 
Q 85.681955 124.833439 84.997186 124.833439 
Q 84.312418 124.833439 83.912836 125.303915 
Q 83.513254 125.774391 83.513254 126.584834 
Q 83.513254 127.401722 83.912836 127.870587 
Q 84.312418 128.337841 84.997186 128.337841 
z
"/>
   </g>
   <g id="patch_13">
    <path clip-path="url(#pd372499eaf)" d="M 71.589829 101.564577 
L 83.256302 113.23105 
L 71.589829 124.897523 
L 59.923356 113.23105 
L 71.589829 101.564577 
z
" style="fill:#a54399;stroke:#000000;stroke-linejoin:miter;stroke-width:1.674;"/>
   </g>
   <g id="patch_14">
    <path clip-path="url(#pd372499eaf)" d="M 77.776911 131.792295 
L 65.402747 144.166458 
z
" style="fill:#ffffff;stroke:#000000;stroke-linejoin:miter;stroke-width:1.674;"/>
   </g>
   <g id="patch_15">
    <path clip-path="url(#pd372499eaf)" d="M 65.402747 131.792295 
L 77.776911 144.166458 
z
" style="fill:#ffffff;stroke:#000000;stroke-linejoin:miter;stroke-width:1.674;"/>
   </g>
  </g>
  <g id="axes_3">
   <g id="line2d_5">
    <path clip-path="url(#pd7c776b693)" d="M 54.274868 166.767877 
L 54.274868 193.674328 
" style="fill:none;stroke:#000000;stroke-linecap:square;stroke-width:1.116;"/>
   </g>
   <g id="line2d_6">
    <path clip-path="url(#pd7c776b693)" d="M 99.118953 166.767877 
L 54.274868 166.767877 
" style="fill:none;stroke:#000000;stroke-linecap:square;stroke-width:1.116;"/>
   </g>
   <g id="patch_16">
    <path clip-path="url(#pd7c776b693)" d="M 56.874423 185.896682 
L 60.733467 185.896682 
L 60.733467 186.826846 
L 55.544866 186.826846 
L 55.544866 185.896682 
Q 56.173735 185.245041 57.259802 184.148463 
Q 58.347622 183.050133 58.626145 182.73132 
Q 59.156917 182.135734 59.367124 181.722328 
Q 59.579082 181.308922 59.579082 180.909529 
Q 59.579082 180.257888 59.121883 179.847985 
Q 58.664683 179.436331 57.930712 179.436331 
Q 57.41045 179.436331 56.832382 179.616758 
Q 56.256065 179.797185 55.59917 180.165047 
L 55.59917 179.047448 
Q 56.266576 178.779435 56.846396 178.642801 
Q 57.427968 178.506166 57.909691 178.506166 
Q 59.17969 178.506166 59.934682 179.142041 
Q 60.689674 179.776165 60.689674 180.837708 
Q 60.689674 181.342204 60.500488 181.794149 
Q 60.313054 182.244341 59.813813 182.857444 
Q 59.677179 183.016851 58.943207 183.775346 
Q 58.210987 184.533842 56.874423 185.896682 
z
M 63.169894 185.435979 
L 64.324278 185.435979 
L 64.324278 186.378405 
L 63.427397 188.130127 
L 62.721453 188.130127 
L 63.169894 186.378405 
z
M 69.657177 179.616758 
L 66.864932 183.980298 
L 69.657177 183.980298 
z
M 69.366391 178.653311 
L 70.757259 178.653311 
L 70.757259 183.980298 
L 71.923906 183.980298 
L 71.923906 184.899952 
L 70.757259 184.899952 
L 70.757259 186.826846 
L 69.657177 186.826846 
L 69.657177 184.899952 
L 65.968051 184.899952 
L 65.968051 183.833153 
z
M 73.866346 185.435979 
L 75.020731 185.435979 
L 75.020731 186.378405 
L 74.12385 188.130127 
L 73.417906 188.130127 
L 73.866346 186.378405 
z
M 79.817603 182.300396 
Q 79.073121 182.300396 78.636943 182.810147 
Q 78.202516 183.318147 78.202516 184.204518 
Q 78.202516 185.085634 78.636943 185.598889 
Q 79.073121 186.110392 79.817603 186.110392 
Q 80.562085 186.110392 80.996512 185.598889 
Q 81.430939 185.085634 81.430939 184.204518 
Q 81.430939 183.318147 80.996512 182.810147 
Q 80.562085 182.300396 79.817603 182.300396 
z
M 82.012511 178.833738 
L 82.012511 179.840978 
Q 81.595601 179.644786 81.171684 179.541434 
Q 80.747768 179.436331 80.330858 179.436331 
Q 79.236032 179.436331 78.657963 180.175557 
Q 78.081647 180.914784 77.999316 182.409003 
Q 78.321633 181.932535 78.808611 181.678535 
Q 79.297342 181.424535 79.882417 181.424535 
Q 81.113878 181.424535 81.82858 182.172521 
Q 82.543283 182.918754 82.543283 184.204518 
Q 82.543283 185.464006 81.798801 186.226005 
Q 81.054319 186.986253 79.817603 186.986253 
Q 78.398708 186.986253 77.648971 185.900185 
Q 76.899234 184.812366 76.899234 182.748837 
Q 76.899234 180.811432 77.818888 179.658799 
Q 78.738542 178.506166 80.287065 178.506166 
Q 80.703975 178.506166 81.127891 178.588497 
Q 81.551808 178.670828 82.012511 178.833738 
z
"/>
   </g>
   <g id="patch_17">
    <path clip-path="url(#pd7c776b693)" d="M 98.007485 171.849622 
L 98.007485 174.559536 
L 96.99499 174.559536 
L 96.99499 166.135505 
Q 96.99499 163.639301 99.326532 163.639301 
Q 101.703619 163.639301 101.703619 165.746623 
Q 101.703619 167.246097 100.761192 167.794386 
Q 102.293949 168.28662 102.293949 169.747556 
Q 102.293949 172.343608 99.655856 172.343608 
Q 98.494464 172.343608 98.007485 171.849622 
z
M 98.007485 170.535831 
Q 98.615333 171.483512 99.694394 171.483512 
Q 101.270944 171.483512 101.270944 169.765073 
Q 101.270944 168.220054 98.730947 168.340923 
L 98.730947 167.410759 
Q 100.717399 167.410759 100.717399 165.659037 
Q 100.717399 164.460859 99.436891 164.460859 
Q 98.007485 164.460859 98.007485 166.168788 
z
"/>
   </g>
   <g id="patch_18">
    <path clip-path="url(#pd7c776b693)" d="M 54.274868 175.736694 
C 56.653426 175.736694 58.934885 174.791682 60.616779 173.109788 
C 62.298674 171.427893 63.243685 169.146435 63.243685 166.767877 
C 63.243685 164.389319 62.298674 162.10786 60.616779 160.425965 
C 58.934885 158.744071 56.653426 157.79906 54.274868 157.79906 
C 51.89631 157.79906 49.614851 158.744071 47.932956 160.425965 
C 46.251062 162.10786 45.306051 164.389319 45.306051 166.767877 
C 45.306051 169.146435 46.251062 171.427893 47.932956 173.109788 
C 49.614851 174.791682 51.89631 175.736694 54.274868 175.736694 
z
" style="fill:#ffd400;stroke:#000000;stroke-linejoin:miter;stroke-width:1.116;"/>
   </g>
   <g id="patch_19">
    <path clip-path="url(#pd7c776b693)" d="M 61.001481 186.947715 
L 47.548255 200.40094 
z
" style="fill:#ffffff;stroke:#000000;stroke-linejoin:miter;stroke-width:1.116;"/>
   </g>
   <g id="patch_20">
    <path clip-path="url(#pd7c776b693)" d="M 47.548255 186.947715 
L 61.001481 200.40094 
z
" style="fill:#ffffff;stroke:#000000;stroke-linejoin:miter;stroke-width:1.116;"/>
   </g>
  </g>
  <g id="axes_4">
   <g id="line2d_7">
    <path clip-path="url(#p9c5dced7e6)" d="M 73.899271 235.578523 
L 31.543818 235.578523 
" style="fill:none;stroke:#000000;stroke-linecap:square;stroke-width:0.837;"/>
   </g>
   <g id="line2d_8">
    <path clip-path="url(#p9c5dced7e6)" d="M 116.254723 235.578523 
L 73.899271 235.578523 
" style="fill:none;stroke:#000000;stroke-linecap:square;stroke-width:0.837;"/>
   </g>
   <g id="patch_21">
    <path clip-path="url(#p9c5dced7e6)" d="M 45.775912 234.37404 
L 45.775912 236.933567 
L 44.819605 236.933567 
L 44.819605 228.977029 
Q 44.819605 226.619352 47.021758 226.619352 
Q 49.266928 226.619352 49.266928 228.609727 
Q 49.266928 230.025988 48.376801 230.543849 
Q 49.824497 231.008767 49.824497 232.388628 
Q 49.824497 234.840612 47.332806 234.840612 
Q 46.235866 234.840612 45.775912 234.37404 
z
M 45.775912 233.133157 
Q 46.350027 234.028247 47.369205 234.028247 
Q 48.858264 234.028247 48.858264 232.405173 
Q 48.858264 230.945895 46.459224 231.060056 
L 46.459224 230.181512 
Q 48.335439 230.181512 48.335439 228.527002 
Q 48.335439 227.395317 47.125992 227.395317 
Q 45.775912 227.395317 45.775912 229.008464 
z
"/>
   </g>
   <g id="patch_22">
    <path clip-path="url(#p9c5dced7e6)" d="M 60.535794 227.921451 
L 57.898506 232.042835 
L 60.535794 232.042835 
z
M 60.261146 227.011471 
L 61.574827 227.011471 
L 61.574827 232.042835 
L 62.67673 232.042835 
L 62.67673 232.911453 
L 61.574827 232.911453 
L 61.574827 234.731414 
L 60.535794 234.731414 
L 60.535794 232.911453 
L 57.051397 232.911453 
L 57.051397 231.903857 
z
"/>
   </g>
   <g id="patch_23">
    <path clip-path="url(#p9c5dced7e6)" d="M 112.356698 238.042088 
L 112.128376 236.847532 
Q 111.896744 235.62154 110.975182 235.62154 
Q 110.283597 235.62154 109.967586 236.190692 
Q 109.568849 236.903785 109.568849 237.845201 
Q 109.568849 238.983504 109.957659 239.526184 
Q 110.349778 240.07879 110.975182 240.07879 
Q 111.668422 240.07879 112.040687 238.976886 
z
M 112.88945 236.460377 
L 113.400694 234.944846 
L 114.249457 234.944846 
L 113.188917 238.083451 
L 113.39573 239.215136 
Q 113.442057 239.468276 113.622398 239.680053 
Q 113.83583 239.928229 114.001281 239.928229 
L 114.456271 239.928229 
L 114.456271 240.73563 
L 113.88712 240.73563 
Q 113.400694 240.73563 112.967212 240.300494 
Q 112.75378 240.083753 112.666091 239.628763 
Q 112.429497 240.202878 111.943071 240.652905 
Q 111.714748 240.864682 110.975182 240.864682 
Q 109.760772 240.864682 109.171767 240.07879 
Q 108.566216 239.266425 108.566216 237.845201 
Q 108.566216 236.324707 109.223056 235.611613 
Q 109.952695 234.815794 110.975182 234.815794 
Q 112.583366 234.815794 112.88945 236.460377 
z
M 117.650716 233.015687 
L 118.529261 233.015687 
L 115.840682 241.718409 
L 114.962138 241.718409 
z
M 120.478687 240.378256 
L 120.478687 242.937783 
L 119.52238 242.937783 
L 119.52238 234.981245 
Q 119.52238 232.623568 121.724533 232.623568 
Q 123.969703 232.623568 123.969703 234.613944 
Q 123.969703 236.030204 123.079577 236.548066 
Q 124.527273 237.012983 124.527273 238.392844 
Q 124.527273 240.844828 122.035581 240.844828 
Q 120.938641 240.844828 120.478687 240.378256 
z
M 120.478687 239.137374 
Q 121.052802 240.032464 122.07198 240.032464 
Q 123.561039 240.032464 123.561039 238.409389 
Q 123.561039 236.950112 121.162 237.064273 
L 121.162 236.185728 
Q 123.038214 236.185728 123.038214 234.531218 
Q 123.038214 233.399533 121.828767 233.399533 
Q 120.478687 233.399533 120.478687 235.012681 
z
"/>
   </g>
   <g id="patch_24">
    <path clip-path="url(#p9c5dced7e6)" d="M 82.370361 227.107432 
L 82.370361 244.049614 
L 65.42818 244.049614 
L 65.42818 227.107432 
L 82.370361 227.107432 
z
" style="fill:#0090bc;stroke:#000000;stroke-linejoin:miter;stroke-width:0.837;"/>
   </g>
   <g id="patch_25">
    <path clip-path="url(#p9c5dced7e6)" d="M 40.014908 227.107432 
L 40.014908 244.049614 
L 23.072727 244.049614 
L 23.072727 227.107432 
L 40.014908 227.107432 
z
" style="fill:#0090bc;stroke:#000000;stroke-linejoin:miter;stroke-width:0.837;"/>
   </g>
  </g>
  <g id="axes_5">
   <g id="line2d_9">
    <path clip-path="url(#pfbd980cdef)" d="M 58.801975 279.236842 
L 58.801975 306.143293 
" style="fill:none;stroke:#000000;stroke-linecap:square;stroke-width:1.674;"/>
   </g>
   <g id="patch_26">
    <path clip-path="url(#pfbd980cdef)" d="M 61.40153 298.365647 
L 65.260574 298.365647 
L 65.260574 299.295812 
L 60.071973 299.295812 
L 60.071973 298.365647 
Q 60.700841 297.714007 61.786909 296.617429 
Q 62.874728 295.519099 63.153252 295.200285 
Q 63.684024 294.6047 63.894231 294.191293 
Q 64.106189 293.777887 64.106189 293.378494 
Q 64.106189 292.726854 63.64899 292.316951 
Q 63.19179 291.905296 62.457819 291.905296 
Q 61.937557 291.905296 61.359489 292.085724 
Q 60.783172 292.266151 60.126276 292.634013 
L 60.126276 291.516414 
Q 60.793683 291.2484 61.373503 291.111766 
Q 61.955074 290.975132 62.436798 290.975132 
Q 63.706796 290.975132 64.461789 291.611007 
Q 65.216781 292.24513 65.216781 293.306674 
Q 65.216781 293.81117 65.027595 294.263114 
Q 64.840161 294.713307 64.34092 295.326409 
Q 64.204285 295.485816 63.470314 296.244312 
Q 62.738094 297.002807 61.40153 298.365647 
z
M 67.697 297.904944 
L 68.851385 297.904944 
L 68.851385 298.847371 
L 67.954503 300.599093 
L 67.248559 300.599093 
L 67.697 298.847371 
z
M 74.496091 294.888479 
Q 75.289621 295.058396 75.734558 295.596175 
Q 76.181247 296.132202 76.181247 296.920476 
Q 76.181247 298.129165 75.349179 298.793067 
Q 74.517111 299.455218 72.984354 299.455218 
Q 72.4711 299.455218 71.926314 299.353618 
Q 71.381529 299.252019 70.801709 299.048819 
L 70.801709 297.98202 
Q 71.26066 298.250034 71.807197 298.386668 
Q 72.355486 298.523302 72.952823 298.523302 
Q 73.991595 298.523302 74.53638 298.113399 
Q 75.081166 297.703496 75.081166 296.920476 
Q 75.081166 296.197015 74.574918 295.790616 
Q 74.06867 295.382464 73.166534 295.382464 
L 72.213597 295.382464 
L 72.213597 294.473321 
L 73.210327 294.473321 
Q 74.024877 294.473321 74.457553 294.1475 
Q 74.890228 293.82168 74.890228 293.208577 
Q 74.890228 292.579709 74.443539 292.243379 
Q 73.998601 291.905296 73.166534 291.905296 
Q 72.711086 291.905296 72.190824 292.005144 
Q 71.670563 292.103241 71.04695 292.309944 
L 71.04695 291.325476 
Q 71.67757 291.150304 72.22761 291.062718 
Q 72.777651 290.975132 73.26463 290.975132 
Q 74.524118 290.975132 75.256338 291.547945 
Q 75.990309 292.119006 75.990309 293.092964 
Q 75.990309 293.772632 75.601427 294.240342 
Q 75.212545 294.708051 74.496091 294.888479 
z
M 78.393453 297.904944 
L 79.547838 297.904944 
L 79.547838 298.847371 
L 78.650956 300.599093 
L 77.945012 300.599093 
L 78.393453 298.847371 
z
M 84.880737 292.085724 
L 82.088492 296.449263 
L 84.880737 296.449263 
z
M 84.589951 291.122276 
L 85.980818 291.122276 
L 85.980818 296.449263 
L 87.147465 296.449263 
L 87.147465 297.368917 
L 85.980818 297.368917 
L 85.980818 299.295812 
L 84.880737 299.295812 
L 84.880737 297.368917 
L 81.19161 297.368917 
L 81.19161 296.302119 
z
M 89.089906 297.904944 
L 90.244291 297.904944 
L 90.244291 298.847371 
L 89.347409 300.599093 
L 88.641465 300.599093 
L 89.089906 298.847371 
z
M 95.041163 294.769362 
Q 94.296681 294.769362 93.860502 295.279113 
Q 93.426075 295.787112 93.426075 296.673484 
Q 93.426075 297.5546 93.860502 298.067854 
Q 94.296681 298.579357 95.041163 298.579357 
Q 95.785645 298.579357 96.220072 298.067854 
Q 96.654499 297.5546 96.654499 296.673484 
Q 96.654499 295.787112 96.220072 295.279113 
Q 95.785645 294.769362 95.041163 294.769362 
z
M 97.236071 291.302704 
L 97.236071 292.309944 
Q 96.819161 292.113751 96.395244 292.010399 
Q 95.971327 291.905296 95.554417 291.905296 
Q 94.459591 291.905296 93.881523 292.644523 
Q 93.305206 293.38375 93.222875 294.877969 
Q 93.545192 294.4015 94.032171 294.1475 
Q 94.520901 293.893501 95.105977 293.893501 
Q 96.337437 293.893501 97.05214 294.641486 
Q 97.766842 295.38772 97.766842 296.673484 
Q 97.766842 297.932972 97.022361 298.694971 
Q 96.277879 299.455218 95.041163 299.455218 
Q 93.622268 299.455218 92.872531 298.369151 
Q 92.122794 297.281331 92.122794 295.217803 
Q 92.122794 293.280398 93.042448 292.127765 
Q 93.962102 290.975132 95.510624 290.975132 
Q 95.927534 290.975132 96.351451 291.057463 
Q 96.775368 291.139794 97.236071 291.302704 
z
"/>
   </g>
   <g id="patch_27">
    <path clip-path="url(#pfbd980cdef)" d="M 58.801975 288.205659 
C 61.180533 288.205659 63.461991 287.260648 65.143886 285.578753 
C 66.82578 283.896859 67.770792 281.6154 67.770792 279.236842 
C 67.770792 276.858284 66.82578 274.576825 65.143886 272.894931 
C 63.461991 271.213036 61.180533 270.268025 58.801975 270.268025 
C 56.423416 270.268025 54.141958 271.213036 52.460063 272.894931 
C 50.778169 274.576825 49.833158 276.858284 49.833158 279.236842 
C 49.833158 281.6154 50.778169 283.896859 52.460063 285.578753 
C 54.141958 287.260648 56.423416 288.205659 58.801975 288.205659 
z
" style="fill:#ffd400;stroke:#000000;stroke-linejoin:miter;stroke-width:1.674;"/>
   </g>
   <g id="patch_28">
    <path clip-path="url(#pfbd980cdef)" d="M 65.528587 299.41668 
L 52.075362 312.869906 
z
" style="fill:#ffffff;stroke:#000000;stroke-linejoin:miter;stroke-width:1.674;"/>
   </g>
   <g id="patch_29">
    <path clip-path="url(#pfbd980cdef)" d="M 52.075362 299.41668 
L 65.528587 312.869906 
z
" style="fill:#ffffff;stroke:#000000;stroke-linejoin:miter;stroke-width:1.674;"/>
   </g>
  </g>
 </g>
 <defs>
  <clipPath id="pd5e13db2fa">
   <rect height="46.862069" width="86.806206" x="30.396897" y="43.2"/>
  </clipPath>
  <clipPath id="pd372499eaf">
   <rect height="46.862069" width="30.528617" x="58.535692" y="99.434483"/>
  </clipPath>
  <clipPath id="pd7c776b693">
   <rect height="46.862069" width="62.686688" x="42.456656" y="155.668966"/>
  </clipPath>
  <clipPath id="p9c5dced7e6">
   <rect height="19.173288" width="111.6" x="18" y="225.747839"/>
  </clipPath>
  <clipPath id="pfbd980cdef">
   <rect height="46.862069" width="52.727053" x="47.436473" y="268.137931"/>
  </clipPath>
 </defs>
</svg>
