<?xml version="1.0" encoding="utf-8" standalone="no"?>
<!DOCTYPE svg PUBLIC "-//W3C//DTD SVG 1.1//EN"
  "http://www.w3.org/Graphics/SVG/1.1/DTD/svg11.dtd">
<!-- Created with matplotlib (http://matplotlib.org/) -->
<svg height="216pt" version="1.1" viewBox="0 0 144 216" width="144pt" xmlns="http://www.w3.org/2000/svg" xmlns:xlink="http://www.w3.org/1999/xlink">
 <defs>
  <style type="text/css">
*{stroke-linecap:butt;stroke-linejoin:round;}
  </style>
 </defs>
 <g id="figure_1">
  <g id="patch_1">
   <path d="M 0 216 
L 144 216 
L 144 0 
L 0 0 
z
" style="fill:#ffffff;"/>
  </g>
  <g id="axes_1">
   <g id="line2d_1">
    <path clip-path="url(#p592ccf9656)" d="M 57.048361 40.041192 
L 57.048361 65.371832 
" style="fill:none;stroke:#000000;stroke-linecap:square;stroke-width:1.116;"/>
   </g>
   <g id="line2d_2">
    <path clip-path="url(#p592ccf9656)" d="M 99.266094 40.041192 
L 57.048361 40.041192 
" style="fill:none;stroke:#000000;stroke-linecap:square;stroke-width:1.116;"/>
   </g>
   <g id="patch_2">
    <path clip-path="url(#p592ccf9656)" d="M 60.824869 55.27091 
Q 60.08276 55.27091 59.657285 55.66835 
Q 59.233458 56.06579 59.233458 56.760074 
Q 59.233458 57.456007 59.657285 57.853447 
Q 60.08276 58.250888 60.824869 58.250888 
Q 61.566978 58.250888 61.994102 57.851798 
Q 62.422876 57.45106 62.422876 56.760074 
Q 62.422876 56.06579 61.997401 55.66835 
Q 61.573574 55.27091 60.824869 55.27091 
z
M 59.784268 54.828943 
Q 59.114721 54.66403 58.740368 54.205571 
Q 58.367665 53.745464 58.367665 53.085812 
Q 58.367665 52.163948 59.024019 51.627981 
Q 59.682022 51.092014 60.824869 51.092014 
Q 61.974313 51.092014 62.629017 51.627981 
Q 63.283722 52.163948 63.283722 53.085812 
Q 63.283722 53.745464 62.90937 54.205571 
Q 62.536666 54.66403 61.872067 54.828943 
Q 62.62407 55.00375 63.042949 55.514981 
Q 63.463477 56.024562 63.463477 56.760074 
Q 63.463477 57.879833 62.780737 58.478468 
Q 62.097998 59.075453 60.824869 59.075453 
Q 59.55339 59.075453 58.869001 58.478468 
Q 58.186261 57.879833 58.186261 56.760074 
Q 58.186261 56.024562 58.608438 55.514981 
Q 59.032264 55.00375 59.784268 54.828943 
z
M 59.403319 53.18476 
Q 59.403319 53.781745 59.776022 54.116518 
Q 60.150375 54.451292 60.824869 54.451292 
Q 61.496065 54.451292 61.873716 54.116518 
Q 62.253016 53.781745 62.253016 53.18476 
Q 62.253016 52.586126 61.873716 52.251352 
Q 61.496065 51.916579 60.824869 51.916579 
Q 60.150375 51.916579 59.776022 52.251352 
Q 59.403319 52.586126 59.403319 53.18476 
z
M 65.422438 57.615973 
L 66.509215 57.615973 
L 66.509215 58.503205 
L 65.66486 60.152335 
L 65.000261 60.152335 
L 65.422438 58.503205 
z
M 68.699878 58.765416 
L 68.699878 57.817167 
Q 69.092371 58.003518 69.49311 58.100817 
Q 69.895497 58.198116 70.283043 58.198116 
Q 71.313749 58.198116 71.856313 57.505481 
Q 72.400526 56.812846 72.478035 55.399542 
Q 72.179543 55.843158 71.719435 56.080632 
Q 71.260977 56.318107 70.70522 56.318107 
Q 69.550829 56.318107 68.877984 55.620525 
Q 68.205139 54.921294 68.205139 53.709183 
Q 68.205139 52.525108 68.906019 51.809385 
Q 69.6069 51.092014 70.771186 51.092014 
Q 72.106981 51.092014 72.80951 52.116123 
Q 73.513689 53.138584 73.513689 55.086207 
Q 73.513689 56.905198 72.649545 57.990325 
Q 71.78705 59.075453 70.329219 59.075453 
Q 69.936726 59.075453 69.534338 58.997944 
Q 69.133599 58.920435 68.699878 58.765416 
z
M 70.771186 55.503437 
Q 71.472066 55.503437 71.88105 55.025189 
Q 72.291684 54.545292 72.291684 53.709183 
Q 72.291684 52.879671 71.88105 52.398125 
Q 71.472066 51.916579 70.771186 51.916579 
Q 70.070305 51.916579 69.661321 52.398125 
Q 69.252337 52.879671 69.252337 53.709183 
Q 69.252337 54.545292 69.661321 55.025189 
Q 70.070305 55.503437 70.771186 55.503437 
z
"/>
   </g>
   <g id="patch_3">
    <path clip-path="url(#p592ccf9656)" d="M 100.399871 40.371018 
L 100.172291 39.180346 
Q 99.941413 37.958341 99.022847 37.958341 
Q 98.333511 37.958341 98.018527 38.525641 
Q 97.621087 39.236417 97.621087 40.174772 
Q 97.621087 41.309373 98.008632 41.850288 
Q 98.399476 42.401097 99.022847 42.401097 
Q 99.713833 42.401097 100.084887 41.302777 
z
M 100.930891 38.79445 
L 101.440472 37.283846 
L 102.286476 37.283846 
L 101.229384 40.412246 
L 101.435525 41.540251 
Q 101.4817 41.792568 101.661456 42.003657 
Q 101.874193 42.251027 102.039107 42.251027 
L 102.492617 42.251027 
L 102.492617 43.055802 
L 101.925317 43.055802 
Q 101.440472 43.055802 101.0084 42.622081 
Q 100.795662 42.406045 100.708258 41.952534 
Q 100.472433 42.524782 99.987589 42.973346 
Q 99.760009 43.184434 99.022847 43.184434 
Q 97.812386 43.184434 97.225295 42.401097 
Q 96.621714 41.591374 96.621714 40.174772 
Q 96.621714 38.659221 97.276418 37.948446 
Q 98.003685 37.155214 99.022847 37.155214 
Q 100.625802 37.155214 100.930891 38.79445 
z
"/>
   </g>
   <g id="patch_4">
    <path clip-path="url(#p592ccf9656)" d="M 57.048361 28.100214 
L 68.989339 40.041192 
L 57.048361 51.98217 
L 45.107383 40.041192 
L 57.048361 28.100214 
z
" style="fill:#a54399;stroke:#000000;stroke-linejoin:miter;stroke-width:1.116;"/>
   </g>
   <g id="patch_5">
    <path clip-path="url(#p592ccf9656)" d="M 63.381021 59.039172 
L 50.715701 71.704492 
z
" style="fill:#ffffff;stroke:#000000;stroke-linejoin:miter;stroke-width:1.116;"/>
   </g>
   <g id="patch_6">
    <path clip-path="url(#p592ccf9656)" d="M 50.715701 59.039172 
L 63.381021 71.704492 
z
" style="fill:#ffffff;stroke:#000000;stroke-linejoin:miter;stroke-width:1.116;"/>
   </g>
  </g>
  <g id="axes_2">
   <g id="line2d_3">
    <path clip-path="url(#pb74f91493a)" d="M 76.686173 107.717421 
L 32.008302 107.717421 
" style="fill:none;stroke:#000000;stroke-linecap:square;stroke-width:0.837;"/>
   </g>
   <g id="line2d_4">
    <path clip-path="url(#pb74f91493a)" d="M 121.364045 107.717421 
L 76.686173 107.717421 
" style="fill:none;stroke:#000000;stroke-linecap:square;stroke-width:0.837;"/>
   </g>
   <g id="patch_7">
    <path clip-path="url(#pb74f91493a)" d="M 47.020764 106.446894 
L 47.020764 109.146764 
L 46.012022 109.146764 
L 46.012022 100.753956 
Q 46.012022 98.267004 48.334922 98.267004 
Q 50.703198 98.267004 50.703198 100.366515 
Q 50.703198 101.860432 49.764265 102.406688 
Q 51.291341 102.897098 51.291341 104.352619 
Q 51.291341 106.939049 48.663025 106.939049 
Q 47.505938 106.939049 47.020764 106.446894 
z
M 47.020764 105.137972 
Q 47.626359 106.082141 48.70142 106.082141 
Q 50.272127 106.082141 50.272127 104.370071 
Q 50.272127 102.830779 47.741544 102.9512 
L 47.741544 102.024483 
Q 49.720634 102.024483 49.720634 100.279254 
Q 49.720634 99.085517 48.444872 99.085517 
Q 47.020764 99.085517 47.020764 100.787116 
z
"/>
   </g>
   <g id="patch_8">
    <path clip-path="url(#pb74f91493a)" d="M 62.589956 99.6405 
L 59.80806 103.987866 
L 62.589956 103.987866 
z
M 62.300247 98.680624 
L 63.68596 98.680624 
L 63.68596 103.987866 
L 64.848282 103.987866 
L 64.848282 104.904112 
L 63.68596 104.904112 
L 63.68596 106.823864 
L 62.589956 106.823864 
L 62.589956 104.904112 
L 58.914503 104.904112 
L 58.914503 103.841267 
z
"/>
   </g>
   <g id="patch_9">
    <path clip-path="url(#pb74f91493a)" d="M 120.256696 112.780332 
L 120.256696 115.480201 
L 119.247954 115.480201 
L 119.247954 107.087394 
Q 119.247954 104.600442 121.570854 104.600442 
Q 123.93913 104.600442 123.93913 106.699953 
Q 123.93913 108.193869 123.000197 108.740126 
Q 124.527273 109.230535 124.527273 110.686056 
Q 124.527273 113.272486 121.898957 113.272486 
Q 120.74187 113.272486 120.256696 112.780332 
z
M 120.256696 111.47141 
Q 120.862291 112.415579 121.937352 112.415579 
Q 123.508059 112.415579 123.508059 110.703509 
Q 123.508059 109.164216 120.977476 109.284637 
L 120.977476 108.357921 
Q 122.956566 108.357921 122.956566 106.612691 
Q 122.956566 105.418954 121.680804 105.418954 
Q 120.256696 105.418954 120.256696 107.120553 
z
"/>
   </g>
   <g id="patch_10">
    <path clip-path="url(#pb74f91493a)" d="M 85.621747 98.781847 
L 85.621747 116.652996 
L 67.750599 116.652996 
L 67.750599 98.781847 
L 85.621747 98.781847 
z
" style="fill:#0090bc;stroke:#000000;stroke-linejoin:miter;stroke-width:0.837;"/>
   </g>
   <g id="patch_11">
    <path clip-path="url(#pb74f91493a)" d="M 32.008302 116.652996 
C 34.378044 116.652996 36.651046 115.711487 38.326707 114.035827 
C 40.002367 112.360166 40.943876 110.087163 40.943876 107.717421 
C 40.943876 105.347679 40.002367 103.074677 38.326707 101.399016 
C 36.651046 99.723356 34.378044 98.781847 32.008302 98.781847 
C 29.63856 98.781847 27.365557 99.723356 25.689896 101.399016 
C 24.014236 103.074677 23.072727 105.347679 23.072727 107.717421 
C 23.072727 110.087163 24.014236 112.360166 25.689896 114.035827 
C 27.365557 115.711487 29.63856 116.652996 32.008302 116.652996 
z
" style="fill:#ffd400;stroke:#000000;stroke-linejoin:miter;stroke-width:0.837;"/>
   </g>
  </g>
  <g id="axes_3">
   <g id="line2d_5">
    <path clip-path="url(#pfce0cf2590)" d="M 116.354822 165.017647 
L 75.49257 165.017647 
" style="fill:none;stroke:#000000;stroke-linecap:square;stroke-width:0.837;"/>
   </g>
   <g id="line2d_6">
    <path clip-path="url(#pfce0cf2590)" d="M 75.49257 165.017647 
L 34.630318 165.017647 
" style="fill:none;stroke:#000000;stroke-linecap:square;stroke-width:0.837;"/>
   </g>
   <g id="patch_12">
    <path clip-path="url(#pfce0cf2590)" d="M 89.222925 163.855627 
L 89.222925 166.32492 
L 88.300332 166.32492 
L 88.300332 158.648882 
Q 88.300332 156.374323 90.42485 156.374323 
Q 92.590869 156.374323 92.590869 158.29453 
Q 92.590869 159.660861 91.732123 160.160466 
Q 93.128782 160.608993 93.128782 161.940209 
Q 93.128782 164.30575 90.724932 164.30575 
Q 89.666664 164.30575 89.222925 163.855627 
z
M 89.222925 162.65849 
Q 89.7768 163.522025 90.760048 163.522025 
Q 92.196612 163.522025 92.196612 161.95617 
Q 92.196612 160.548338 89.882148 160.658475 
L 89.882148 159.810902 
Q 91.692218 159.810902 91.692218 158.214721 
Q 91.692218 157.122932 90.525409 157.122932 
Q 89.222925 157.122932 89.222925 158.679209 
z
"/>
   </g>
   <g id="patch_13">
    <path clip-path="url(#pfce0cf2590)" d="M 103.462462 157.630518 
L 100.918149 161.606607 
L 103.462462 161.606607 
z
M 103.197496 156.752618 
L 104.464865 156.752618 
L 104.464865 161.606607 
L 105.527922 161.606607 
L 105.527922 162.444602 
L 104.464865 162.444602 
L 104.464865 164.200402 
L 103.462462 164.200402 
L 103.462462 162.444602 
L 100.100904 162.444602 
L 100.100904 161.472527 
z
"/>
   </g>
   <g id="patch_14">
    <path clip-path="url(#pfce0cf2590)" d="M 50.700675 161.601818 
L 50.480402 160.449375 
Q 50.256937 159.266604 49.367863 159.266604 
Q 48.70066 159.266604 48.395789 159.815691 
Q 48.011109 160.503645 48.011109 161.411873 
Q 48.011109 162.510046 48.386212 163.033593 
Q 48.764507 163.566718 49.367863 163.566718 
Q 50.036664 163.566718 50.395805 162.503661 
z
M 51.214646 160.075868 
L 51.707866 158.613766 
L 52.526707 158.613766 
L 51.503555 161.641723 
L 51.703077 162.733511 
Q 51.74777 162.977727 51.921754 163.182038 
Q 52.127662 163.421465 52.28728 163.421465 
L 52.72623 163.421465 
L 52.72623 164.200402 
L 52.177143 164.200402 
Q 51.707866 164.200402 51.289666 163.780606 
Q 51.083759 163.571506 50.999161 163.132556 
Q 50.770907 163.686431 50.30163 164.120593 
Q 50.081357 164.324904 49.367863 164.324904 
Q 48.196266 164.324904 47.628025 163.566718 
Q 47.043823 162.782993 47.043823 161.411873 
Q 47.043823 159.944982 47.677507 159.257027 
Q 48.381423 158.489264 49.367863 158.489264 
Q 50.919352 158.489264 51.214646 160.075868 
z
"/>
   </g>
   <g id="patch_15">
    <path clip-path="url(#pfce0cf2590)" d="M 62.111778 160.075868 
Q 61.433401 160.075868 61.035952 160.540357 
Q 60.640099 161.00325 60.640099 161.810918 
Q 60.640099 162.613797 61.035952 163.081479 
Q 61.433401 163.547564 62.111778 163.547564 
Q 62.790156 163.547564 63.186009 163.081479 
Q 63.581862 162.613797 63.581862 161.810918 
Q 63.581862 161.00325 63.186009 160.540357 
Q 62.790156 160.075868 62.111778 160.075868 
z
M 64.111794 156.917025 
L 64.111794 157.834829 
Q 63.731903 157.656057 63.345627 157.561882 
Q 62.959351 157.466111 62.57946 157.466111 
Q 61.581846 157.466111 61.055106 158.1397 
Q 60.529962 158.813289 60.454942 160.174832 
Q 60.748639 159.74067 61.192378 159.509224 
Q 61.637712 159.277778 62.170837 159.277778 
Q 63.292953 159.277778 63.944195 159.959347 
Q 64.595437 160.639321 64.595437 161.810918 
Q 64.595437 162.958573 63.91706 163.652912 
Q 63.238683 164.345655 62.111778 164.345655 
Q 60.818871 164.345655 60.135705 163.356022 
Q 59.45254 162.364793 59.45254 160.484491 
Q 59.45254 158.719114 60.290535 157.668826 
Q 61.128531 156.618539 62.539555 156.618539 
Q 62.919446 156.618539 63.305722 156.693559 
Q 63.691998 156.76858 64.111794 156.917025 
z
"/>
   </g>
   <g id="patch_16">
    <path clip-path="url(#pfce0cf2590)" d="M 124.527273 156.845197 
L 124.527273 173.190098 
L 108.182372 173.190098 
L 108.182372 156.845197 
L 124.527273 156.845197 
z
" style="fill:#0090bc;stroke:#000000;stroke-linejoin:miter;stroke-width:0.837;"/>
   </g>
   <g id="patch_17">
    <path clip-path="url(#pfce0cf2590)" d="M 75.49257 173.190098 
C 77.659929 173.190098 79.738811 172.328997 81.271365 170.796442 
C 82.803919 169.263888 83.66502 167.185006 83.66502 165.017647 
C 83.66502 162.850288 82.803919 160.771406 81.271365 159.238852 
C 79.738811 157.706298 77.659929 156.845197 75.49257 156.845197 
C 73.325211 156.845197 71.246329 157.706298 69.713775 159.238852 
C 68.18122 160.771406 67.320119 162.850288 67.320119 165.017647 
C 67.320119 167.185006 68.18122 169.263888 69.713775 170.796442 
C 71.246329 172.328997 73.325211 173.190098 75.49257 173.190098 
z
" style="fill:#ffd400;stroke:#000000;stroke-linejoin:miter;stroke-width:0.837;"/>
   </g>
   <g id="patch_18">
    <path clip-path="url(#pfce0cf2590)" d="M 34.630318 153.460057 
L 46.187908 165.017647 
L 34.630318 176.575237 
L 23.072727 165.017647 
L 34.630318 153.460057 
z
" style="fill:#a54399;stroke:#000000;stroke-linejoin:miter;stroke-width:0.837;"/>
   </g>
  </g>
 </g>
 <defs>
  <clipPath id="p592ccf9656">
   <rect height="47.964706" width="63.123758" x="42.238121" y="25.92"/>
  </clipPath>
  <clipPath id="pb74f91493a">
   <rect height="20.22459" width="111.6" x="18" y="97.347705"/>
  </clipPath>
  <clipPath id="pfce0cf2590">
   <rect height="25.426699" width="111.6" x="18" y="152.304298"/>
  </clipPath>
 </defs>
</svg>
