<?xml version="1.0" encoding="utf-8" standalone="no"?>
<!DOCTYPE svg PUBLIC "-//W3C//DTD SVG 1.1//EN"
  "http://www.w3.org/Graphics/SVG/1.1/DTD/svg11.dtd">
<!-- Created with matplotlib (http://matplotlib.org/) -->
<svg height="576pt" version="1.1" viewBox="0 0 144 576" width="144pt" xmlns="http://www.w3.org/2000/svg" xmlns:xlink="http://www.w3.org/1999/xlink">
 <defs>
  <style type="text/css">
*{stroke-linecap:butt;stroke-linejoin:round;}
  </style>
 </defs>
 <g id="figure_1">
  <g id="patch_1">
   <path d="M 0 576 
L 144 576 
L 144 0 
L 0 0 
z
" style="fill:#ffffff;"/>
  </g>
  <g id="axes_1">
   <g id="line2d_1">
    <path clip-path="url(#pfe1f1d9297)" d="M 75.243691 92.251915 
L 51.87812 108.607814 
" style="fill:none;stroke:#000000;stroke-linecap:square;stroke-width:0.837;"/>
   </g>
   <g id="line2d_2">
    <path clip-path="url(#pfe1f1d9297)" d="M 75.243691 92.251915 
L 75.243691 106.271257 
" style="fill:none;stroke:#000000;stroke-linecap:square;stroke-width:0.837;"/>
   </g>
   <g id="line2d_3">
    <path clip-path="url(#pfe1f1d9297)" d="M 75.243691 92.251915 
L 51.87812 75.896015 
" style="fill:none;stroke:#000000;stroke-linecap:square;stroke-width:0.837;"/>
   </g>
   <g id="line2d_4">
    <path clip-path="url(#pfe1f1d9297)" d="M 98.609262 92.251915 
L 75.243691 92.251915 
" style="fill:none;stroke:#000000;stroke-linecap:square;stroke-width:0.837;"/>
   </g>
   <g id="patch_2">
    <path clip-path="url(#pfe1f1d9297)" d="M 57.729553 101.747829 
L 57.603598 101.088847 
Q 57.475818 100.412523 56.967434 100.412523 
Q 56.585918 100.412523 56.411589 100.726498 
Q 56.191624 101.119879 56.191624 101.639215 
Q 56.191624 102.267165 56.406112 102.566537 
Q 56.622427 102.871384 56.967434 102.871384 
Q 57.349862 102.871384 57.555224 102.263514 
z
M 58.023448 100.875271 
L 58.305478 100.039221 
L 58.773702 100.039221 
L 58.18865 101.770647 
L 58.30274 102.394946 
Q 58.328296 102.534591 58.427782 102.651419 
Q 58.545523 102.788327 58.636794 102.788327 
L 58.887792 102.788327 
L 58.887792 103.233733 
L 58.573817 103.233733 
Q 58.305478 103.233733 58.066346 102.993688 
Q 57.948605 102.874122 57.900231 102.623125 
Q 57.769713 102.939838 57.501374 103.188097 
Q 57.375419 103.304925 56.967434 103.304925 
Q 56.297499 103.304925 55.972572 102.871384 
Q 55.638517 102.42324 55.638517 101.639215 
Q 55.638517 100.800428 56.000866 100.407047 
Q 56.403374 99.968029 56.967434 99.968029 
Q 57.854595 99.968029 58.023448 100.875271 
z
"/>
   </g>
   <g id="patch_3">
    <path clip-path="url(#pfe1f1d9297)" d="M 64.477274 95.968501 
Q 64.089369 95.968501 63.862103 96.234102 
Q 63.635749 96.49879 63.635749 96.960625 
Q 63.635749 97.419722 63.862103 97.687148 
Q 64.089369 97.953662 64.477274 97.953662 
Q 64.865179 97.953662 65.091533 97.687148 
Q 65.317887 97.419722 65.317887 96.960625 
Q 65.317887 96.49879 65.091533 96.234102 
Q 64.865179 95.968501 64.477274 95.968501 
z
M 65.620909 94.162233 
L 65.620909 94.687045 
Q 65.403683 94.584821 65.182805 94.530971 
Q 64.961927 94.476208 64.7447 94.476208 
Q 64.174252 94.476208 63.873055 94.861375 
Q 63.572771 95.246541 63.529873 96.025089 
Q 63.697813 95.77683 63.951549 95.644486 
Q 64.206197 95.512142 64.511045 95.512142 
Q 65.152685 95.512142 65.525074 95.901873 
Q 65.897463 96.29069 65.897463 96.960625 
Q 65.897463 97.616869 65.509558 98.013901 
Q 65.121653 98.410021 64.477274 98.410021 
Q 63.737973 98.410021 63.34733 97.844136 
Q 62.956687 97.277338 62.956687 96.202157 
Q 62.956687 95.192691 63.435863 94.592123 
Q 63.91504 93.991555 64.721883 93.991555 
Q 64.939109 93.991555 65.159987 94.034452 
Q 65.380865 94.07735 65.620909 94.162233 
z
"/>
   </g>
   <g id="patch_4">
    <path clip-path="url(#pfe1f1d9297)" d="M 76.598164 102.218791 
L 78.608881 102.218791 
L 78.608881 102.703444 
L 75.905411 102.703444 
L 75.905411 102.218791 
Q 76.233077 101.87926 76.798962 101.307899 
Q 77.365759 100.735625 77.510882 100.56951 
Q 77.787435 100.259186 77.896961 100.043785 
Q 78.0074 99.828384 78.0074 99.620284 
Q 78.0074 99.280753 77.769181 99.067177 
Q 77.530961 98.852689 77.148533 98.852689 
Q 76.877456 98.852689 76.576259 98.946699 
Q 76.275975 99.040708 75.933706 99.232379 
L 75.933706 98.650065 
Q 76.281451 98.510419 76.583561 98.439228 
Q 76.886583 98.368036 77.13758 98.368036 
Q 77.7993 98.368036 78.192682 98.699352 
Q 78.586063 99.029756 78.586063 99.582863 
Q 78.586063 99.845725 78.487489 100.081206 
Q 78.389829 100.315775 78.129704 100.635226 
Q 78.058512 100.718283 77.676083 101.11349 
Q 77.294568 101.508697 76.598164 102.218791 
z
M 79.878357 101.978746 
L 80.479838 101.978746 
L 80.479838 102.469788 
L 80.012526 103.382506 
L 79.644701 103.382506 
L 79.878357 102.469788 
z
M 83.258493 98.946699 
L 81.803621 101.220278 
L 83.258493 101.220278 
z
M 83.106981 98.444704 
L 83.831679 98.444704 
L 83.831679 101.220278 
L 84.439549 101.220278 
L 84.439549 101.699455 
L 83.831679 101.699455 
L 83.831679 102.703444 
L 83.258493 102.703444 
L 83.258493 101.699455 
L 81.336309 101.699455 
L 81.336309 101.14361 
z
"/>
   </g>
   <g id="patch_5">
    <path clip-path="url(#pfe1f1d9297)" d="M 61.067361 78.84957 
L 60.941406 78.190588 
Q 60.813626 77.514264 60.305242 77.514264 
Q 59.923726 77.514264 59.749397 77.828239 
Q 59.529432 78.22162 59.529432 78.740956 
Q 59.529432 79.368906 59.743921 79.668277 
Q 59.960235 79.973125 60.305242 79.973125 
Q 60.687671 79.973125 60.893032 79.365255 
z
M 61.361256 77.977012 
L 61.643286 77.140962 
L 62.11151 77.140962 
L 61.526458 78.872388 
L 61.640548 79.496686 
Q 61.666104 79.636332 61.76559 79.75316 
Q 61.883331 79.890068 61.974603 79.890068 
L 62.2256 79.890068 
L 62.2256 80.335474 
L 61.911625 80.335474 
Q 61.643286 80.335474 61.404154 80.095429 
Q 61.286414 79.975863 61.238039 79.724866 
Q 61.107521 80.041579 60.839182 80.289838 
Q 60.713227 80.406666 60.305242 80.406666 
Q 59.635307 80.406666 59.31038 79.973125 
Q 58.976325 79.524981 58.976325 78.740956 
Q 58.976325 77.902169 59.338674 77.508787 
Q 59.741183 77.06977 60.305242 77.06977 
Q 61.192404 77.06977 61.361256 77.977012 
z
"/>
   </g>
   <g id="patch_6">
    <path clip-path="url(#pfe1f1d9297)" d="M 68.034135 82.945846 
Q 68.447596 83.03438 68.679426 83.314584 
Q 68.912169 83.593876 68.912169 84.004599 
Q 68.912169 84.634374 68.478628 84.980294 
Q 68.045087 85.325301 67.246459 85.325301 
Q 66.979033 85.325301 66.695178 85.272363 
Q 66.411323 85.219426 66.109213 85.113551 
L 66.109213 84.557706 
Q 66.348345 84.697351 66.633113 84.768543 
Q 66.918794 84.839735 67.230031 84.839735 
Q 67.771272 84.839735 68.055127 84.626159 
Q 68.338982 84.412583 68.338982 84.004599 
Q 68.338982 83.627646 68.075207 83.415896 
Q 67.811432 83.203233 67.341382 83.203233 
L 66.844864 83.203233 
L 66.844864 82.729532 
L 67.3642 82.729532 
Q 67.788614 82.729532 68.014055 82.559767 
Q 68.239496 82.390001 68.239496 82.07055 
Q 68.239496 81.742884 68.006753 81.567643 
Q 67.774923 81.391488 67.341382 81.391488 
Q 67.104075 81.391488 66.832998 81.443513 
Q 66.561921 81.494625 66.236994 81.602326 
L 66.236994 81.089379 
Q 66.565572 80.998107 66.852165 80.952471 
Q 67.138759 80.906835 67.392494 80.906835 
Q 68.048738 80.906835 68.430254 81.205294 
Q 68.812683 81.50284 68.812683 82.010311 
Q 68.812683 82.364445 68.61006 82.608141 
Q 68.407436 82.851836 68.034135 82.945846 
z
"/>
   </g>
   <g id="patch_7">
    <path clip-path="url(#pfe1f1d9297)" d="M 99.236755 92.434458 
L 99.1108 91.775476 
Q 98.98302 91.099153 98.474636 91.099153 
Q 98.09312 91.099153 97.918791 91.413127 
Q 97.698826 91.806509 97.698826 92.325845 
Q 97.698826 92.953795 97.913314 93.253166 
Q 98.129629 93.558014 98.474636 93.558014 
Q 98.857064 93.558014 99.062426 92.950144 
z
M 99.53065 91.5619 
L 99.81268 90.725851 
L 100.280904 90.725851 
L 99.695852 92.457276 
L 99.809942 93.081575 
Q 99.835498 93.221221 99.934984 93.338049 
Q 100.052725 93.474956 100.143996 93.474956 
L 100.394994 93.474956 
L 100.394994 93.920363 
L 100.081019 93.920363 
Q 99.81268 93.920363 99.573548 93.680318 
Q 99.455807 93.560752 99.407433 93.309755 
Q 99.276915 93.626468 99.008576 93.874727 
Q 98.882621 93.991555 98.474636 93.991555 
Q 97.804701 93.991555 97.479774 93.558014 
Q 97.145719 93.109869 97.145719 92.325845 
Q 97.145719 91.487058 97.508068 91.093676 
Q 97.910576 90.654659 98.474636 90.654659 
Q 99.361797 90.654659 99.53065 91.5619 
z
"/>
   </g>
   <g id="patch_8">
    <path clip-path="url(#pfe1f1d9297)" d="M 75.243691 96.925029 
C 76.483015 96.925029 77.671747 96.43264 78.548082 95.556306 
C 79.424416 94.679971 79.916805 93.491239 79.916805 92.251915 
C 79.916805 91.012591 79.424416 89.823859 78.548082 88.947524 
C 77.671747 88.07119 76.483015 87.578801 75.243691 87.578801 
C 74.004367 87.578801 72.815635 88.07119 71.9393 88.947524 
C 71.062966 89.823859 70.570577 91.012591 70.570577 92.251915 
C 70.570577 93.491239 71.062966 94.679971 71.9393 95.556306 
C 72.815635 96.43264 74.004367 96.925029 75.243691 96.925029 
z
" style="fill:#00a651;stroke:#000000;stroke-linejoin:miter;stroke-width:0.837;"/>
   </g>
   <g id="patch_9">
    <path clip-path="url(#pfe1f1d9297)" d="M 51.87812 113.280928 
C 53.117445 113.280928 54.306176 112.78854 55.182511 111.912205 
C 56.058846 111.03587 56.551235 109.847139 56.551235 108.607814 
C 56.551235 107.36849 56.058846 106.179758 55.182511 105.303424 
C 54.306176 104.427089 53.117445 103.9347 51.87812 103.9347 
C 50.638796 103.9347 49.450064 104.427089 48.57373 105.303424 
C 47.697395 106.179758 47.205006 107.36849 47.205006 108.607814 
C 47.205006 109.847139 47.697395 111.03587 48.57373 111.912205 
C 49.450064 112.78854 50.638796 113.280928 51.87812 113.280928 
z
" style="fill:#00a651;stroke:#000000;stroke-linejoin:miter;stroke-width:0.837;"/>
   </g>
   <g id="patch_10">
    <path clip-path="url(#pfe1f1d9297)" d="M 78.748527 102.766422 
L 71.738855 109.776093 
z
" style="fill:#ffffff;stroke:#000000;stroke-linejoin:miter;stroke-width:0.837;"/>
   </g>
   <g id="patch_11">
    <path clip-path="url(#pfe1f1d9297)" d="M 71.738855 102.766422 
L 78.748527 109.776093 
z
" style="fill:#ffffff;stroke:#000000;stroke-linejoin:miter;stroke-width:0.837;"/>
   </g>
   <g id="patch_12">
    <path clip-path="url(#pfe1f1d9297)" d="M 51.87812 80.56913 
C 53.117445 80.56913 54.306176 80.076741 55.182511 79.200406 
C 56.058846 78.324072 56.551235 77.13534 56.551235 75.896015 
C 56.551235 74.656691 56.058846 73.467959 55.182511 72.591625 
C 54.306176 71.71529 53.117445 71.222901 51.87812 71.222901 
C 50.638796 71.222901 49.450064 71.71529 48.57373 72.591625 
C 47.697395 73.467959 47.205006 74.656691 47.205006 75.896015 
C 47.205006 77.13534 47.697395 78.324072 48.57373 79.200406 
C 49.450064 80.076741 50.638796 80.56913 51.87812 80.56913 
z
" style="fill:#00a651;stroke:#000000;stroke-linejoin:miter;stroke-width:0.837;"/>
   </g>
  </g>
  <g id="axes_2">
   <g id="line2d_5">
    <path clip-path="url(#pc50151907d)" d="M 73.8 135.593819 
L 73.8 162.156783 
" style="fill:none;stroke:#000000;stroke-linecap:square;stroke-width:1.674;"/>
   </g>
   <g id="patch_13">
    <path clip-path="url(#pc50151907d)" d="M 77.896853 150.363415 
Q 77.161875 150.363415 76.731265 150.866658 
Q 76.302383 151.368173 76.302383 152.243229 
Q 76.302383 153.113097 76.731265 153.619799 
Q 77.161875 154.124772 77.896853 154.124772 
Q 78.631831 154.124772 79.060712 153.619799 
Q 79.489593 153.113097 79.489593 152.243229 
Q 79.489593 151.368173 79.060712 150.866658 
Q 78.631831 150.363415 77.896853 150.363415 
z
M 80.063741 146.941012 
L 80.063741 147.935394 
Q 79.652153 147.741706 79.233648 147.639673 
Q 78.815143 147.535912 78.403555 147.535912 
Q 77.322706 147.535912 76.752017 148.265702 
Q 76.183058 148.995491 76.101778 150.470635 
Q 76.41998 150.000249 76.900742 149.749492 
Q 77.383233 149.498735 77.960839 149.498735 
Q 79.176579 149.498735 79.882158 150.237172 
Q 80.587737 150.973879 80.587737 152.243229 
Q 80.587737 153.486638 79.852759 154.23891 
Q 79.117781 154.989452 77.896853 154.989452 
Q 76.496072 154.989452 75.755906 153.917249 
Q 75.01574 152.843317 75.01574 150.806131 
Q 75.01574 148.893459 75.923654 147.75554 
Q 76.831567 146.617622 78.360321 146.617622 
Q 78.771909 146.617622 79.190414 146.698902 
Q 79.608919 146.780182 80.063741 146.941012 
z
"/>
   </g>
   <g id="patch_14">
    <path clip-path="url(#pc50151907d)" d="M 82.654321 126.739497 
L 82.654321 144.44814 
L 64.945679 144.44814 
L 64.945679 126.739497 
L 82.654321 126.739497 
z
" style="fill:#0090bc;stroke:#000000;stroke-linejoin:miter;stroke-width:1.674;"/>
   </g>
   <g id="patch_15">
    <path clip-path="url(#pc50151907d)" d="M 80.440741 155.516042 
L 67.159259 168.797524 
z
" style="fill:#ffffff;stroke:#000000;stroke-linejoin:miter;stroke-width:1.674;"/>
   </g>
   <g id="patch_16">
    <path clip-path="url(#pc50151907d)" d="M 67.159259 155.516042 
L 80.440741 168.797524 
z
" style="fill:#ffffff;stroke:#000000;stroke-linejoin:miter;stroke-width:1.674;"/>
   </g>
  </g>
  <g id="axes_3">
   <g id="line2d_6">
    <path clip-path="url(#p303aa3f1c8)" d="M 63.119369 210.891345 
L 63.119369 221.629565 
" style="fill:none;stroke:#000000;stroke-linecap:square;stroke-width:1.116;"/>
   </g>
   <g id="line2d_7">
    <path clip-path="url(#p303aa3f1c8)" d="M 81.016402 198.363422 
L 63.119369 210.891345 
" style="fill:none;stroke:#000000;stroke-linecap:square;stroke-width:1.116;"/>
   </g>
   <g id="line2d_8">
    <path clip-path="url(#p303aa3f1c8)" d="M 81.016402 198.363422 
L 63.119369 185.835499 
" style="fill:none;stroke:#000000;stroke-linecap:square;stroke-width:1.116;"/>
   </g>
   <g id="line2d_9">
    <path clip-path="url(#p303aa3f1c8)" d="M 81.016402 198.363422 
L 81.016402 209.101642 
" style="fill:none;stroke:#000000;stroke-linecap:square;stroke-width:1.116;"/>
   </g>
   <g id="patch_17">
    <path clip-path="url(#p303aa3f1c8)" d="M 65.113909 217.137829 
Q 65.430603 217.205642 65.608175 217.420267 
Q 65.786446 217.634192 65.786446 217.948789 
Q 65.786446 218.431169 65.454372 218.696129 
Q 65.122299 218.96039 64.510584 218.96039 
Q 64.305746 218.96039 64.088325 218.919842 
Q 63.870904 218.879294 63.639501 218.798198 
L 63.639501 218.372445 
Q 63.822666 218.479408 64.040786 218.533938 
Q 64.259606 218.588468 64.498 218.588468 
Q 64.912568 218.588468 65.129989 218.424878 
Q 65.34741 218.261288 65.34741 217.948789 
Q 65.34741 217.660059 65.145369 217.497867 
Q 64.943328 217.334976 64.58329 217.334976 
L 64.202978 217.334976 
L 64.202978 216.972142 
L 64.600768 216.972142 
Q 64.925851 216.972142 65.098529 216.842109 
Q 65.271207 216.712076 65.271207 216.46739 
Q 65.271207 216.216412 65.092936 216.082184 
Q 64.915364 215.947257 64.58329 215.947257 
Q 64.401524 215.947257 64.19389 215.987106 
Q 63.986256 216.026256 63.737376 216.10875 
L 63.737376 215.715854 
Q 63.989053 215.645944 64.208571 215.610989 
Q 64.428089 215.576033 64.62244 215.576033 
Q 65.125095 215.576033 65.41732 215.80464 
Q 65.710244 216.032548 65.710244 216.421249 
Q 65.710244 216.692501 65.555043 216.879161 
Q 65.399842 217.065822 65.113909 217.137829 
z
M 66.669326 218.341684 
L 67.130035 218.341684 
L 67.130035 218.717802 
L 66.772094 219.416905 
L 66.490355 219.416905 
L 66.669326 218.717802 
z
M 69.258366 216.019265 
L 68.143996 217.76073 
L 69.258366 217.76073 
z
M 69.142315 215.634758 
L 69.697402 215.634758 
L 69.697402 217.76073 
L 70.163005 217.76073 
L 70.163005 218.127759 
L 69.697402 218.127759 
L 69.697402 218.896772 
L 69.258366 218.896772 
L 69.258366 218.127759 
L 67.786055 218.127759 
L 67.786055 217.702005 
z
M 70.938223 218.341684 
L 71.398931 218.341684 
L 71.398931 218.717802 
L 71.040991 219.416905 
L 70.759252 219.416905 
L 70.938223 218.717802 
z
M 73.313337 217.09029 
Q 73.016218 217.09029 72.842142 217.293729 
Q 72.668764 217.496469 72.668764 217.850215 
Q 72.668764 218.201864 72.842142 218.406701 
Q 73.016218 218.610839 73.313337 218.610839 
Q 73.610456 218.610839 73.783833 218.406701 
Q 73.957211 218.201864 73.957211 217.850215 
Q 73.957211 217.496469 73.783833 217.293729 
Q 73.610456 217.09029 73.313337 217.09029 
z
M 74.189313 215.706766 
L 74.189313 216.10875 
Q 74.022926 216.03045 73.853744 215.989203 
Q 73.684561 215.947257 73.518174 215.947257 
Q 73.081235 215.947257 72.850531 216.242278 
Q 72.620526 216.5373 72.587668 217.133635 
Q 72.716303 216.943479 72.910654 216.842109 
Q 73.105703 216.740739 73.339204 216.740739 
Q 73.830673 216.740739 74.115907 217.039256 
Q 74.401141 217.337074 74.401141 217.850215 
Q 74.401141 218.35287 74.104022 218.65698 
Q 73.806904 218.96039 73.313337 218.96039 
Q 72.747064 218.96039 72.447848 218.526947 
Q 72.148632 218.092804 72.148632 217.269261 
Q 72.148632 216.496053 72.515661 216.036043 
Q 72.88269 215.576033 73.500697 215.576033 
Q 73.667083 215.576033 73.836266 215.608891 
Q 74.005449 215.641749 74.189313 215.706766 
z
"/>
   </g>
   <g id="patch_18">
    <path clip-path="url(#p303aa3f1c8)" d="M 67.601317 205.636888 
L 67.504841 205.132136 
Q 67.406967 204.614101 67.017566 204.614101 
Q 66.725341 204.614101 66.591813 204.854592 
Q 66.423329 205.155906 66.423329 205.553695 
Q 66.423329 206.034678 66.587618 206.263984 
Q 66.753305 206.497484 67.017566 206.497484 
Q 67.31049 206.497484 67.467789 206.031881 
z
M 67.826428 204.968546 
L 68.042451 204.328168 
L 68.401091 204.328168 
L 67.952966 205.654366 
L 68.040354 206.132552 
Q 68.059929 206.239515 68.136131 206.329 
Q 68.226315 206.433866 68.296225 206.433866 
L 68.488479 206.433866 
L 68.488479 206.775028 
L 68.247987 206.775028 
Q 68.042451 206.775028 67.859286 206.591164 
Q 67.769102 206.499581 67.732049 206.307328 
Q 67.632078 206.549917 67.426542 206.740073 
Q 67.330065 206.829558 67.017566 206.829558 
Q 66.504425 206.829558 66.255544 206.497484 
Q 65.999673 206.154224 65.999673 205.553695 
Q 65.999673 204.91122 66.277216 204.609906 
Q 66.585521 204.273638 67.017566 204.273638 
Q 67.697094 204.273638 67.826428 204.968546 
z
"/>
   </g>
   <g id="patch_19">
    <path clip-path="url(#p303aa3f1c8)" d="M 73.185052 201.257708 
Q 73.501745 201.325521 73.679317 201.540146 
Q 73.857589 201.754071 73.857589 202.068667 
Q 73.857589 202.551048 73.525515 202.816008 
Q 73.193441 203.080269 72.581726 203.080269 
Q 72.376889 203.080269 72.159468 203.039721 
Q 71.942047 202.999173 71.710644 202.918077 
L 71.710644 202.492324 
Q 71.893809 202.599286 72.111929 202.653817 
Q 72.330748 202.708347 72.569142 202.708347 
Q 72.98371 202.708347 73.201131 202.544756 
Q 73.418552 202.381166 73.418552 202.068667 
Q 73.418552 201.779938 73.216511 201.617746 
Q 73.014471 201.454855 72.654433 201.454855 
L 72.274121 201.454855 
L 72.274121 201.092021 
L 72.67191 201.092021 
Q 72.996993 201.092021 73.169671 200.961988 
Q 73.34235 200.831955 73.34235 200.587269 
Q 73.34235 200.336291 73.164079 200.202063 
Q 72.986506 200.067136 72.654433 200.067136 
Q 72.472666 200.067136 72.265032 200.106985 
Q 72.057399 200.146135 71.808518 200.228629 
L 71.808518 199.835733 
Q 72.060195 199.765823 72.279713 199.730868 
Q 72.499232 199.695912 72.693582 199.695912 
Q 73.196237 199.695912 73.488462 199.924519 
Q 73.781386 200.152427 73.781386 200.541128 
Q 73.781386 200.81238 73.626186 200.99904 
Q 73.470985 201.185701 73.185052 201.257708 
z
"/>
   </g>
   <g id="patch_20">
    <path clip-path="url(#p303aa3f1c8)" d="M 70.157936 188.097796 
L 70.06146 187.593044 
Q 69.963586 187.075009 69.574185 187.075009 
Q 69.28196 187.075009 69.148432 187.3155 
Q 68.979948 187.616813 68.979948 188.014603 
Q 68.979948 188.495586 69.144237 188.724891 
Q 69.309925 188.958392 69.574185 188.958392 
Q 69.86711 188.958392 70.024408 188.492789 
z
M 70.383047 187.429454 
L 70.59907 186.789076 
L 70.95771 186.789076 
L 70.509585 188.115274 
L 70.596973 188.59346 
Q 70.616548 188.700423 70.69275 188.789908 
Q 70.782934 188.894773 70.852845 188.894773 
L 71.045098 188.894773 
L 71.045098 189.235936 
L 70.804606 189.235936 
Q 70.59907 189.235936 70.415905 189.052072 
Q 70.325721 188.960489 70.288669 188.768236 
Q 70.188697 189.010825 69.983161 189.20098 
Q 69.886684 189.290466 69.574185 189.290466 
Q 69.061044 189.290466 68.812163 188.958392 
Q 68.556292 188.615132 68.556292 188.014603 
Q 68.556292 187.372127 68.833836 187.070814 
Q 69.14214 186.734546 69.574185 186.734546 
Q 70.253713 186.734546 70.383047 187.429454 
z
"/>
   </g>
   <g id="patch_21">
    <path clip-path="url(#p303aa3f1c8)" d="M 75.155823 191.187831 
Q 74.858704 191.187831 74.684627 191.39127 
Q 74.51125 191.59401 74.51125 191.947756 
Q 74.51125 192.299404 74.684627 192.504241 
Q 74.858704 192.708379 75.155823 192.708379 
Q 75.452941 192.708379 75.626319 192.504241 
Q 75.799696 192.299404 75.799696 191.947756 
Q 75.799696 191.59401 75.626319 191.39127 
Q 75.452941 191.187831 75.155823 191.187831 
z
M 76.031798 189.804306 
L 76.031798 190.20629 
Q 75.865412 190.127991 75.696229 190.086744 
Q 75.527046 190.044798 75.36066 190.044798 
Q 74.92372 190.044798 74.693016 190.339819 
Q 74.463012 190.63484 74.430154 191.231175 
Q 74.558789 191.041019 74.753139 190.939649 
Q 74.948189 190.838279 75.181689 190.838279 
Q 75.673159 190.838279 75.958393 191.136796 
Q 76.243627 191.434614 76.243627 191.947756 
Q 76.243627 192.450411 75.946508 192.75452 
Q 75.649389 193.057931 75.155823 193.057931 
Q 74.589549 193.057931 74.290333 192.624487 
Q 73.991117 192.190344 73.991117 191.366801 
Q 73.991117 190.593593 74.358146 190.133584 
Q 74.725175 189.673574 75.343182 189.673574 
Q 75.509569 189.673574 75.678752 189.706432 
Q 75.847934 189.73929 76.031798 189.804306 
z
"/>
   </g>
   <g id="patch_22">
    <path clip-path="url(#p303aa3f1c8)" d="M 82.05387 205.997625 
L 83.593994 205.997625 
L 83.593994 206.368849 
L 81.523251 206.368849 
L 81.523251 205.997625 
Q 81.774229 205.737559 82.207673 205.299921 
Q 82.641816 204.861583 82.752973 204.734347 
Q 82.964801 204.496652 83.048694 204.331663 
Q 83.133285 204.166675 83.133285 204.00728 
Q 83.133285 203.747213 82.950819 203.583623 
Q 82.768353 203.419334 82.475429 203.419334 
Q 82.267796 203.419334 82.037092 203.491342 
Q 81.807087 203.563349 81.544923 203.710161 
L 81.544923 203.264133 
Q 81.811282 203.157171 82.042685 203.102641 
Q 82.274787 203.048111 82.46704 203.048111 
Q 82.97389 203.048111 83.275203 203.301885 
Q 83.576516 203.55496 83.576516 203.978616 
Q 83.576516 204.179958 83.501013 204.360327 
Q 83.426209 204.539996 83.226965 204.784682 
Q 83.172435 204.8483 82.879511 205.151012 
Q 82.587286 205.453723 82.05387 205.997625 
z
M 84.566359 205.813761 
L 85.027067 205.813761 
L 85.027067 206.189879 
L 84.669127 206.888982 
L 84.387388 206.888982 
L 84.566359 206.189879 
z
M 87.155399 203.491342 
L 86.041029 205.232807 
L 87.155399 205.232807 
z
M 87.039347 203.106835 
L 87.594435 203.106835 
L 87.594435 205.232807 
L 88.060038 205.232807 
L 88.060038 205.599836 
L 87.594435 205.599836 
L 87.594435 206.368849 
L 87.155399 206.368849 
L 87.155399 205.599836 
L 85.683088 205.599836 
L 85.683088 205.174082 
z
"/>
   </g>
   <g id="patch_23">
    <path clip-path="url(#p303aa3f1c8)" d="M 81.016402 201.942829 
C 81.965671 201.942829 82.876189 201.56568 83.547424 200.894445 
C 84.218659 200.22321 84.595808 199.312692 84.595808 198.363422 
C 84.595808 197.414153 84.218659 196.503635 83.547424 195.8324 
C 82.876189 195.161165 81.965671 194.784016 81.016402 194.784016 
C 80.067132 194.784016 79.156614 195.161165 78.485379 195.8324 
C 77.814144 196.503635 77.436995 197.414153 77.436995 198.363422 
C 77.436995 199.312692 77.814144 200.22321 78.485379 200.894445 
C 79.156614 201.56568 80.067132 201.942829 81.016402 201.942829 
z
" style="fill:#00a651;stroke:#000000;stroke-linejoin:miter;stroke-width:1.116;"/>
   </g>
   <g id="patch_24">
    <path clip-path="url(#p303aa3f1c8)" d="M 63.119369 214.470752 
C 64.068639 214.470752 64.979157 214.093603 65.650392 213.422368 
C 66.321627 212.751133 66.698775 211.840615 66.698775 210.891345 
C 66.698775 209.942076 66.321627 209.031558 65.650392 208.360323 
C 64.979157 207.689088 64.068639 207.311939 63.119369 207.311939 
C 62.170099 207.311939 61.259581 207.689088 60.588346 208.360323 
C 59.917111 209.031558 59.539962 209.942076 59.539962 210.891345 
C 59.539962 211.840615 59.917111 212.751133 60.588346 213.422368 
C 61.259581 214.093603 62.170099 214.470752 63.119369 214.470752 
z
" style="fill:#00a651;stroke:#000000;stroke-linejoin:miter;stroke-width:1.116;"/>
   </g>
   <g id="patch_25">
    <path clip-path="url(#p303aa3f1c8)" d="M 63.119369 189.414906 
C 64.068639 189.414906 64.979157 189.037757 65.650392 188.366522 
C 66.321627 187.695287 66.698775 186.784769 66.698775 185.835499 
C 66.698775 184.88623 66.321627 183.975712 65.650392 183.304477 
C 64.979157 182.633242 64.068639 182.256093 63.119369 182.256093 
C 62.170099 182.256093 61.259581 182.633242 60.588346 183.304477 
C 59.917111 183.975712 59.539962 184.88623 59.539962 185.835499 
C 59.539962 186.784769 59.917111 187.695287 60.588346 188.366522 
C 61.259581 189.037757 62.170099 189.414906 63.119369 189.414906 
z
" style="fill:#00a651;stroke:#000000;stroke-linejoin:miter;stroke-width:1.116;"/>
   </g>
   <g id="patch_26">
    <path clip-path="url(#p303aa3f1c8)" d="M 83.700957 206.417087 
L 78.331847 211.786197 
z
" style="fill:#ffffff;stroke:#000000;stroke-linejoin:miter;stroke-width:1.116;"/>
   </g>
   <g id="patch_27">
    <path clip-path="url(#p303aa3f1c8)" d="M 78.331847 206.417087 
L 83.700957 211.786197 
z
" style="fill:#ffffff;stroke:#000000;stroke-linejoin:miter;stroke-width:1.116;"/>
   </g>
   <g id="patch_28">
    <path clip-path="url(#p303aa3f1c8)" d="M 65.803924 218.94501 
L 60.434814 224.31412 
z
" style="fill:#ffffff;stroke:#000000;stroke-linejoin:miter;stroke-width:1.116;"/>
   </g>
   <g id="patch_29">
    <path clip-path="url(#p303aa3f1c8)" d="M 60.434814 218.94501 
L 65.803924 224.31412 
z
" style="fill:#ffffff;stroke:#000000;stroke-linejoin:miter;stroke-width:1.116;"/>
   </g>
  </g>
  <g id="axes_4">
   <g id="line2d_10">
    <path clip-path="url(#p30f99dbbbe)" d="M 51.929484 247.024942 
L 51.929484 273.269561 
" style="fill:none;stroke:#000000;stroke-linecap:square;stroke-width:1.116;"/>
   </g>
   <g id="line2d_11">
    <path clip-path="url(#p30f99dbbbe)" d="M 95.670516 247.024942 
L 51.929484 247.024942 
" style="fill:none;stroke:#000000;stroke-linecap:square;stroke-width:1.116;"/>
   </g>
   <g id="patch_30">
    <path clip-path="url(#p30f99dbbbe)" d="M 54.465097 265.683226 
L 58.229218 265.683226 
L 58.229218 266.59051 
L 53.168244 266.59051 
L 53.168244 265.683226 
Q 53.781643 265.047614 54.840997 263.978009 
Q 55.902058 262.906695 56.173731 262.595724 
Q 56.691447 262.014788 56.896483 261.611551 
Q 57.103228 261.208313 57.103228 260.818745 
Q 57.103228 260.183133 56.657275 259.783312 
Q 56.211321 259.381783 55.495403 259.381783 
Q 54.987939 259.381783 54.42409 259.557773 
Q 53.861949 259.733762 53.221212 260.092575 
L 53.221212 259.002467 
Q 53.872201 258.741046 54.437759 258.607772 
Q 55.005025 258.474499 55.4749 258.474499 
Q 56.71366 258.474499 57.450081 259.094733 
Q 58.186502 259.713258 58.186502 260.748691 
Q 58.186502 261.240777 58.00197 261.681605 
Q 57.819146 262.120724 57.332185 262.718746 
Q 57.198912 262.874231 56.482994 263.61407 
Q 55.768785 264.353908 54.465097 265.683226 
z
M 60.605714 265.233855 
L 61.731704 265.233855 
L 61.731704 266.1531 
L 60.856884 267.861734 
L 60.168304 267.861734 
L 60.605714 266.1531 
z
M 67.237564 262.291587 
Q 68.011575 262.457325 68.445568 262.981875 
Q 68.88127 263.504717 68.88127 264.273603 
Q 68.88127 265.45256 68.069669 266.100132 
Q 67.258067 266.745996 65.763013 266.745996 
Q 65.262383 266.745996 64.730998 266.646895 
Q 64.199612 266.547795 63.634055 266.349593 
L 63.634055 265.309035 
Q 64.081717 265.570456 64.614811 265.703729 
Q 65.149613 265.837003 65.732257 265.837003 
Q 66.745477 265.837003 67.276862 265.437182 
Q 67.808248 265.037362 67.808248 264.273603 
Q 67.808248 263.567937 67.314452 263.171534 
Q 66.820657 262.773422 65.940711 262.773422 
L 65.011214 262.773422 
L 65.011214 261.886641 
L 65.983426 261.886641 
Q 66.777941 261.886641 67.199974 261.568835 
Q 67.622006 261.251029 67.622006 260.653007 
Q 67.622006 260.039607 67.186305 259.71155 
Q 66.752312 259.381783 65.940711 259.381783 
Q 65.496466 259.381783 64.989001 259.479176 
Q 64.481537 259.574859 63.873263 259.776478 
L 63.873263 258.816226 
Q 64.488372 258.645362 65.024883 258.55993 
Q 65.561394 258.474499 66.036394 258.474499 
Q 67.264902 258.474499 67.979111 259.033222 
Q 68.695029 259.590237 68.695029 260.540237 
Q 68.695029 261.203187 68.315712 261.659393 
Q 67.936395 262.115598 67.237564 262.291587 
z
M 71.039061 265.233855 
L 72.165051 265.233855 
L 72.165051 266.1531 
L 71.29023 267.861734 
L 70.601651 267.861734 
L 71.039061 266.1531 
z
M 77.366774 259.557773 
L 74.643211 263.81398 
L 77.366774 263.81398 
z
M 77.08314 258.618024 
L 78.439796 258.618024 
L 78.439796 263.81398 
L 79.577746 263.81398 
L 79.577746 264.711013 
L 78.439796 264.711013 
L 78.439796 266.59051 
L 77.366774 266.59051 
L 77.366774 264.711013 
L 73.76839 264.711013 
L 73.76839 263.670455 
z
M 81.472408 265.233855 
L 82.598397 265.233855 
L 82.598397 266.1531 
L 81.723577 267.861734 
L 81.034997 267.861734 
L 81.472408 266.1531 
z
M 87.277278 262.1754 
Q 86.551109 262.1754 86.125659 262.672613 
Q 85.701918 263.168116 85.701918 264.032685 
Q 85.701918 264.892128 86.125659 265.392758 
Q 86.551109 265.891679 87.277278 265.891679 
Q 88.003448 265.891679 88.427189 265.392758 
Q 88.85093 264.892128 88.85093 264.032685 
Q 88.85093 263.168116 88.427189 262.672613 
Q 88.003448 262.1754 87.277278 262.1754 
z
M 89.418197 258.794013 
L 89.418197 259.776478 
Q 89.011542 259.585111 88.598052 259.484301 
Q 88.184563 259.381783 87.777908 259.381783 
Q 86.710012 259.381783 86.146162 260.102827 
Q 85.584022 260.823871 85.503716 262.281335 
Q 85.818105 261.816587 86.293105 261.568835 
Q 86.769814 261.321083 87.340498 261.321083 
Q 88.541667 261.321083 89.23879 262.05067 
Q 89.935913 262.778548 89.935913 264.032685 
Q 89.935913 265.261193 89.209743 266.004449 
Q 88.483574 266.745996 87.277278 266.745996 
Q 85.893285 266.745996 85.161989 265.686643 
Q 84.430694 264.625581 84.430694 262.61281 
Q 84.430694 260.723061 85.327727 259.59878 
Q 86.22476 258.474499 87.735192 258.474499 
Q 88.141847 258.474499 88.555336 258.554805 
Q 88.968826 258.63511 89.418197 258.794013 
z
"/>
   </g>
   <g id="patch_31">
    <path clip-path="url(#p30f99dbbbe)" d="M 66.627154 245.781056 
L 66.627154 248.424313 
L 65.639564 248.424313 
L 65.639564 240.207492 
Q 65.639564 237.772689 67.913756 237.772689 
Q 70.232372 237.772689 70.232372 239.828175 
Q 70.232372 241.290766 69.313127 241.825569 
Q 70.808182 242.305695 70.808182 243.730696 
Q 70.808182 246.262891 68.234979 246.262891 
Q 67.102155 246.262891 66.627154 245.781056 
z
M 66.627154 244.499581 
Q 67.22005 245.423952 68.272569 245.423952 
Q 69.810339 245.423952 69.810339 243.747782 
Q 69.810339 242.240767 67.33282 242.358662 
L 67.33282 241.451378 
Q 69.270411 241.451378 69.270411 239.742744 
Q 69.270411 238.574038 68.0214 238.574038 
Q 66.627154 238.574038 66.627154 240.239956 
z
"/>
   </g>
   <g id="patch_32">
    <path clip-path="url(#p30f99dbbbe)" d="M 82.174015 241.851198 
Q 82.948027 242.016936 83.38202 242.541486 
Q 83.817721 243.064328 83.817721 243.833214 
Q 83.817721 245.012171 83.00612 245.659743 
Q 82.194519 246.305607 80.699464 246.305607 
Q 80.198835 246.305607 79.667449 246.206506 
Q 79.136064 246.107405 78.570506 245.909204 
L 78.570506 244.868646 
Q 79.018168 245.130067 79.551262 245.26334 
Q 80.086065 245.396614 80.668709 245.396614 
Q 81.681929 245.396614 82.213314 244.996793 
Q 82.744699 244.596973 82.744699 243.833214 
Q 82.744699 243.127548 82.250904 242.731145 
Q 81.757109 242.333033 80.877162 242.333033 
L 79.947665 242.333033 
L 79.947665 241.446252 
L 80.919878 241.446252 
Q 81.714393 241.446252 82.136426 241.128446 
Q 82.558458 240.81064 82.558458 240.212618 
Q 82.558458 239.599218 82.122756 239.271161 
Q 81.688763 238.941394 80.877162 238.941394 
Q 80.432917 238.941394 79.925453 239.038786 
Q 79.417989 239.13447 78.809715 239.336089 
L 78.809715 238.375836 
Q 79.424823 238.204973 79.961334 238.119541 
Q 80.497845 238.03411 80.972846 238.03411 
Q 82.201354 238.03411 82.915563 238.592833 
Q 83.63148 239.149848 83.63148 240.099848 
Q 83.63148 240.762798 83.252164 241.219003 
Q 82.872847 241.675209 82.174015 241.851198 
z
"/>
   </g>
   <g id="patch_33">
    <path clip-path="url(#p30f99dbbbe)" d="M 104.418722 238.276736 
L 104.418722 255.773148 
L 86.922309 255.773148 
L 86.922309 238.276736 
L 104.418722 238.276736 
z
" style="fill:#0090bc;stroke:#000000;stroke-linejoin:miter;stroke-width:1.116;"/>
   </g>
   <g id="patch_34">
    <path clip-path="url(#p30f99dbbbe)" d="M 51.929484 255.773148 
C 54.249536 255.773148 56.474876 254.851382 58.1154 253.210858 
C 59.755924 251.570334 60.677691 249.344993 60.677691 247.024942 
C 60.677691 244.704891 59.755924 242.47955 58.1154 240.839026 
C 56.474876 239.198502 54.249536 238.276736 51.929484 238.276736 
C 49.609433 238.276736 47.384092 239.198502 45.743568 240.839026 
C 44.103044 242.47955 43.181278 244.704891 43.181278 247.024942 
C 43.181278 249.344993 44.103044 251.570334 45.743568 253.210858 
C 47.384092 254.851382 49.609433 255.773148 51.929484 255.773148 
z
" style="fill:#ffd400;stroke:#000000;stroke-linejoin:miter;stroke-width:1.116;"/>
   </g>
   <g id="patch_35">
    <path clip-path="url(#p30f99dbbbe)" d="M 58.490639 266.708406 
L 45.368329 279.830716 
z
" style="fill:#ffffff;stroke:#000000;stroke-linejoin:miter;stroke-width:1.116;"/>
   </g>
   <g id="patch_36">
    <path clip-path="url(#p30f99dbbbe)" d="M 45.368329 266.708406 
L 58.490639 279.830716 
z
" style="fill:#ffffff;stroke:#000000;stroke-linejoin:miter;stroke-width:1.116;"/>
   </g>
  </g>
  <g id="axes_5">
   <g id="line2d_12">
    <path clip-path="url(#p228f09c155)" d="M 86.258078 302.541538 
L 42.517046 302.541538 
" style="fill:none;stroke:#000000;stroke-linecap:square;stroke-width:1.116;"/>
   </g>
   <g id="line2d_13">
    <path clip-path="url(#p228f09c155)" d="M 86.258078 302.541538 
L 86.258078 328.786157 
" style="fill:none;stroke:#000000;stroke-linecap:square;stroke-width:1.116;"/>
   </g>
   <g id="patch_37">
    <path clip-path="url(#p228f09c155)" d="M 57.214716 301.297652 
L 57.214716 303.940909 
L 56.227126 303.940909 
L 56.227126 295.724088 
Q 56.227126 293.289284 58.501318 293.289284 
Q 60.819934 293.289284 60.819934 295.344771 
Q 60.819934 296.807362 59.900689 297.342164 
Q 61.395744 297.82229 61.395744 299.247291 
Q 61.395744 301.779487 58.822541 301.779487 
Q 57.689717 301.779487 57.214716 301.297652 
z
M 57.214716 300.016177 
Q 57.807612 300.940548 58.860131 300.940548 
Q 60.397902 300.940548 60.397902 299.264378 
Q 60.397902 297.757362 57.920382 297.875258 
L 57.920382 296.967973 
Q 59.857973 296.967973 59.857973 295.259339 
Q 59.857973 294.090634 58.608962 294.090634 
Q 57.214716 294.090634 57.214716 295.756552 
z
"/>
   </g>
   <g id="patch_38">
    <path clip-path="url(#p228f09c155)" d="M 72.761578 297.367794 
Q 73.535589 297.533531 73.969582 298.058082 
Q 74.405284 298.580924 74.405284 299.349809 
Q 74.405284 300.528767 73.593682 301.176339 
Q 72.782081 301.822203 71.287026 301.822203 
Q 70.786397 301.822203 70.255012 301.723102 
Q 69.723626 301.624001 69.158068 301.4258 
L 69.158068 300.385242 
Q 69.605731 300.646663 70.138824 300.779936 
Q 70.673627 300.913209 71.256271 300.913209 
Q 72.269491 300.913209 72.800876 300.513389 
Q 73.332261 300.113569 73.332261 299.349809 
Q 73.332261 298.644143 72.838466 298.24774 
Q 72.344671 297.849629 71.464724 297.849629 
L 70.535227 297.849629 
L 70.535227 296.962848 
L 71.50744 296.962848 
Q 72.301955 296.962848 72.723988 296.645042 
Q 73.14602 296.327236 73.14602 295.729214 
Q 73.14602 295.115814 72.710319 294.787756 
Q 72.276326 294.45799 71.464724 294.45799 
Q 71.02048 294.45799 70.513015 294.555382 
Q 70.005551 294.651066 69.397277 294.852684 
L 69.397277 293.892432 
Q 70.012385 293.721569 70.548897 293.636137 
Q 71.085408 293.550705 71.560408 293.550705 
Q 72.788916 293.550705 73.503125 294.109429 
Q 74.219043 294.666443 74.219043 295.616444 
Q 74.219043 296.279394 73.839726 296.735599 
Q 73.460409 297.191804 72.761578 297.367794 
z
"/>
   </g>
   <g id="patch_39">
    <path clip-path="url(#p228f09c155)" d="M 88.793691 321.199821 
L 92.557812 321.199821 
L 92.557812 322.107106 
L 87.496838 322.107106 
L 87.496838 321.199821 
Q 88.110237 320.56421 89.16959 319.494605 
Q 90.230652 318.423291 90.502325 318.11232 
Q 91.020041 317.531384 91.225077 317.128147 
Q 91.431822 316.724909 91.431822 316.33534 
Q 91.431822 315.699728 90.985868 315.299908 
Q 90.539915 314.898379 89.823997 314.898379 
Q 89.316533 314.898379 88.752684 315.074368 
Q 88.190543 315.250358 87.549805 315.609171 
L 87.549805 314.519062 
Q 88.200795 314.257641 88.766353 314.124368 
Q 89.333619 313.991094 89.803494 313.991094 
Q 91.042253 313.991094 91.778675 314.611329 
Q 92.515096 315.229854 92.515096 316.265286 
Q 92.515096 316.757373 92.330563 317.198201 
Q 92.14774 317.63732 91.660779 318.235341 
Q 91.527505 318.390827 90.811588 319.130666 
Q 90.097379 319.870504 88.793691 321.199821 
z
M 94.934308 320.750451 
L 96.060298 320.750451 
L 96.060298 321.669696 
L 95.185477 323.37833 
L 94.496898 323.37833 
L 94.934308 321.669696 
z
M 101.262021 315.074368 
L 98.538458 319.330576 
L 101.262021 319.330576 
z
M 100.978387 314.13462 
L 102.335043 314.13462 
L 102.335043 319.330576 
L 103.472993 319.330576 
L 103.472993 320.227609 
L 102.335043 320.227609 
L 102.335043 322.107106 
L 101.262021 322.107106 
L 101.262021 320.227609 
L 97.663637 320.227609 
L 97.663637 319.187051 
z
M 105.367655 320.750451 
L 106.493645 320.750451 
L 106.493645 321.669696 
L 105.618824 323.37833 
L 104.930244 323.37833 
L 105.367655 321.669696 
z
M 111.172525 317.691996 
Q 110.446356 317.691996 110.020906 318.189208 
Q 109.597165 318.684712 109.597165 319.549281 
Q 109.597165 320.408724 110.020906 320.909354 
Q 110.446356 321.408275 111.172525 321.408275 
Q 111.898695 321.408275 112.322436 320.909354 
Q 112.746177 320.408724 112.746177 319.549281 
Q 112.746177 318.684712 112.322436 318.189208 
Q 111.898695 317.691996 111.172525 317.691996 
z
M 113.313444 314.310609 
L 113.313444 315.293074 
Q 112.906789 315.101707 112.493299 315.000897 
Q 112.07981 314.898379 111.673155 314.898379 
Q 110.605259 314.898379 110.04141 315.619423 
Q 109.479269 316.340466 109.398963 317.797931 
Q 109.713352 317.333183 110.188352 317.085431 
Q 110.665061 316.837679 111.235745 316.837679 
Q 112.436915 316.837679 113.134037 317.567266 
Q 113.83116 318.295144 113.83116 319.549281 
Q 113.83116 320.777789 113.10499 321.521045 
Q 112.378821 322.262592 111.172525 322.262592 
Q 109.788532 322.262592 109.057236 321.203239 
Q 108.325941 320.142177 108.325941 318.129406 
Q 108.325941 316.239657 109.222974 315.115376 
Q 110.120007 313.991094 111.630439 313.991094 
Q 112.037094 313.991094 112.450584 314.0714 
Q 112.864073 314.151706 113.313444 314.310609 
z
"/>
   </g>
   <g id="patch_40">
    <path clip-path="url(#p228f09c155)" d="M 86.258078 311.289744 
C 88.578129 311.289744 90.80347 310.367978 92.443994 308.727454 
C 94.084518 307.08693 95.006284 304.861589 95.006284 302.541538 
C 95.006284 300.221486 94.084518 297.996146 92.443994 296.355622 
C 90.80347 294.715098 88.578129 293.793331 86.258078 293.793331 
C 83.938027 293.793331 81.712686 294.715098 80.072162 296.355622 
C 78.431638 297.996146 77.509872 300.221486 77.509872 302.541538 
C 77.509872 304.861589 78.431638 307.08693 80.072162 308.727454 
C 81.712686 310.367978 83.938027 311.289744 86.258078 311.289744 
z
" style="fill:#ffd400;stroke:#000000;stroke-linejoin:miter;stroke-width:1.116;"/>
   </g>
   <g id="patch_41">
    <path clip-path="url(#p228f09c155)" d="M 51.265253 293.793331 
L 51.265253 311.289744 
L 33.76884 311.289744 
L 33.76884 293.793331 
L 51.265253 293.793331 
z
" style="fill:#0090bc;stroke:#000000;stroke-linejoin:miter;stroke-width:1.116;"/>
   </g>
   <g id="patch_42">
    <path clip-path="url(#p228f09c155)" d="M 92.819233 322.225002 
L 79.696923 335.347311 
z
" style="fill:#ffffff;stroke:#000000;stroke-linejoin:miter;stroke-width:1.116;"/>
   </g>
   <g id="patch_43">
    <path clip-path="url(#p228f09c155)" d="M 79.696923 322.225002 
L 92.819233 335.347311 
z
" style="fill:#ffffff;stroke:#000000;stroke-linejoin:miter;stroke-width:1.116;"/>
   </g>
  </g>
  <g id="axes_6">
   <g id="line2d_14">
    <path clip-path="url(#pe9b4369d50)" d="M 91.689386 361.578254 
L 61.022723 361.578254 
" style="fill:none;stroke:#000000;stroke-linecap:square;stroke-width:0.6696;"/>
   </g>
   <g id="line2d_15">
    <path clip-path="url(#pe9b4369d50)" d="M 61.022723 361.578254 
L 30.35606 361.578254 
" style="fill:none;stroke:#000000;stroke-linecap:square;stroke-width:0.6696;"/>
   </g>
   <g id="line2d_16">
    <path clip-path="url(#pe9b4369d50)" d="M 30.35606 361.578254 
L 30.35606 379.978252 
" style="fill:none;stroke:#000000;stroke-linecap:square;stroke-width:0.6696;"/>
   </g>
   <g id="line2d_17">
    <path clip-path="url(#pe9b4369d50)" d="M 122.356049 361.578254 
L 91.689386 361.578254 
" style="fill:none;stroke:#000000;stroke-linecap:square;stroke-width:0.6696;"/>
   </g>
   <g id="patch_44">
    <path clip-path="url(#pe9b4369d50)" d="M 71.327201 360.706171 
L 71.327201 362.559348 
L 70.634805 362.559348 
L 70.634805 356.798567 
Q 70.634805 355.091536 72.229232 355.091536 
Q 73.854805 355.091536 73.854805 356.53263 
Q 73.854805 357.558046 73.210326 357.932994 
Q 74.258503 358.269609 74.258503 359.268671 
Q 74.258503 361.043983 72.45444 361.043983 
Q 71.660222 361.043983 71.327201 360.706171 
z
M 71.327201 359.807733 
Q 71.742878 360.455806 72.480794 360.455806 
Q 73.558919 360.455806 73.558919 359.28065 
Q 73.558919 358.224088 71.82194 358.306744 
L 71.82194 357.67065 
Q 73.180378 357.67065 73.180378 356.472734 
Q 73.180378 355.653359 72.304701 355.653359 
Q 71.327201 355.653359 71.327201 356.821327 
z
"/>
   </g>
   <g id="patch_45">
    <path clip-path="url(#pe9b4369d50)" d="M 82.013814 356.034296 
L 80.104335 359.018306 
L 82.013814 359.018306 
z
M 81.81496 355.375442 
L 82.766106 355.375442 
L 82.766106 359.018306 
L 83.563918 359.018306 
L 83.563918 359.647213 
L 82.766106 359.647213 
L 82.766106 360.964921 
L 82.013814 360.964921 
L 82.013814 359.647213 
L 79.491002 359.647213 
L 79.491002 358.917681 
z
"/>
   </g>
   <g id="patch_46">
    <path clip-path="url(#pe9b4369d50)" d="M 42.416683 359.014713 
L 42.251371 358.149817 
Q 42.083663 357.262161 41.416423 357.262161 
Q 40.915694 357.262161 40.686892 357.674244 
Q 40.398194 358.190546 40.398194 358.872161 
Q 40.398194 359.696327 40.679704 360.089244 
Q 40.963611 360.489348 41.416423 360.489348 
Q 41.91835 360.489348 42.187881 359.691535 
z
M 42.802412 357.869504 
L 43.172569 356.772213 
L 43.7871 356.772213 
L 43.019235 359.044661 
L 43.168975 359.864035 
Q 43.202517 360.047317 43.333089 360.20065 
Q 43.487621 360.380337 43.607412 360.380337 
L 43.936839 360.380337 
L 43.936839 360.964921 
L 43.524756 360.964921 
Q 43.172569 360.964921 42.858715 360.649869 
Q 42.704183 360.492942 42.640694 360.163515 
Q 42.469392 360.579192 42.117204 360.905025 
Q 41.951892 361.058358 41.416423 361.058358 
Q 40.537152 361.058358 40.110694 360.489348 
Q 39.672257 359.901171 39.672257 358.872161 
Q 39.672257 357.771275 40.147829 357.254973 
Q 40.676111 356.678775 41.416423 356.678775 
Q 42.580798 356.678775 42.802412 357.869504 
z
"/>
   </g>
   <g id="patch_47">
    <path clip-path="url(#pe9b4369d50)" d="M 49.920432 360.328827 
L 52.559443 360.328827 
L 52.559443 360.964921 
L 49.011214 360.964921 
L 49.011214 360.328827 
Q 49.441266 359.883202 50.183974 359.133306 
Q 50.92788 358.382213 51.118349 358.164192 
Q 51.481318 357.7569 51.625068 357.474192 
Q 51.770016 357.191484 51.770016 356.918359 
Q 51.770016 356.472734 51.457359 356.192421 
Q 51.144703 355.910911 50.642776 355.910911 
Q 50.286995 355.910911 49.891682 356.034296 
Q 49.497568 356.157682 49.048349 356.409244 
L 49.048349 355.644973 
Q 49.504755 355.461692 49.901266 355.368255 
Q 50.298974 355.274817 50.628401 355.274817 
Q 51.496891 355.274817 52.013193 355.709661 
Q 52.529495 356.143307 52.529495 356.869244 
Q 52.529495 357.214244 52.40012 357.523307 
Q 52.271943 357.831171 51.930536 358.250442 
Q 51.837099 358.359452 51.335172 358.87815 
Q 50.834443 359.396848 49.920432 360.328827 
z
"/>
   </g>
   <g id="patch_48">
    <path clip-path="url(#pe9b4369d50)" d="M 33.773716 371.890518 
Q 34.316372 372.006716 34.620643 372.374477 
Q 34.926111 372.741039 34.926111 373.280102 
Q 34.926111 374.106664 34.357101 374.560674 
Q 33.788091 375.013487 32.739914 375.013487 
Q 32.388924 375.013487 32.016372 374.944008 
Q 31.64382 374.874528 31.24731 374.73557 
L 31.24731 374.006039 
Q 31.561164 374.18932 31.934914 374.282758 
Q 32.309862 374.376195 32.718351 374.376195 
Q 33.428716 374.376195 33.801268 374.095883 
Q 34.17382 373.81557 34.17382 373.280102 
Q 34.17382 372.785362 33.827622 372.507445 
Q 33.481424 372.228331 32.864497 372.228331 
L 32.21283 372.228331 
L 32.21283 371.606612 
L 32.894445 371.606612 
Q 33.451476 371.606612 33.747361 371.3838 
Q 34.043247 371.160987 34.043247 370.741716 
Q 34.043247 370.311664 33.737778 370.081664 
Q 33.433507 369.850467 32.864497 369.850467 
Q 32.553039 369.850467 32.197257 369.918748 
Q 31.841476 369.985831 31.415018 370.127185 
L 31.415018 369.453956 
Q 31.846268 369.334165 32.222414 369.274269 
Q 32.598559 369.214373 32.93158 369.214373 
Q 33.792882 369.214373 34.293611 369.606092 
Q 34.795538 369.996612 34.795538 370.662654 
Q 34.795538 371.127446 34.529601 371.447289 
Q 34.263663 371.767133 33.773716 371.890518 
z
"/>
   </g>
   <g id="patch_49">
    <path clip-path="url(#pe9b4369d50)" d="M 121.595971 365.05341 
L 121.595971 366.906587 
L 120.903575 366.906587 
L 120.903575 361.145806 
Q 120.903575 359.438775 122.498002 359.438775 
Q 124.123575 359.438775 124.123575 360.879869 
Q 124.123575 361.905285 123.479096 362.280233 
Q 124.527273 362.616848 124.527273 363.61591 
Q 124.527273 365.391222 122.72321 365.391222 
Q 121.928992 365.391222 121.595971 365.05341 
z
M 121.595971 364.154972 
Q 122.011648 364.803045 122.749565 364.803045 
Q 123.827689 364.803045 123.827689 363.627889 
Q 123.827689 362.571327 122.090711 362.653983 
L 122.090711 362.017889 
Q 123.449148 362.017889 123.449148 360.819973 
Q 123.449148 360.000598 122.573471 360.000598 
Q 121.595971 360.000598 121.595971 361.168567 
z
"/>
   </g>
   <g id="patch_50">
    <path clip-path="url(#pe9b4369d50)" d="M 97.822719 355.444921 
L 97.822719 367.711587 
L 85.556053 367.711587 
L 85.556053 355.444921 
L 97.822719 355.444921 
z
" style="fill:#0090bc;stroke:#000000;stroke-linejoin:miter;stroke-width:0.6696;"/>
   </g>
   <g id="patch_51">
    <path clip-path="url(#pe9b4369d50)" d="M 61.022723 367.711587 
C 62.649302 367.711587 64.209479 367.06534 65.359644 365.915175 
C 66.509809 364.76501 67.156055 363.204833 67.156055 361.578254 
C 67.156055 359.951675 66.509809 358.391498 65.359644 357.241333 
C 64.209479 356.091168 62.649302 355.444921 61.022723 355.444921 
C 59.396144 355.444921 57.835967 356.091168 56.685802 357.241333 
C 55.535637 358.391498 54.88939 359.951675 54.88939 361.578254 
C 54.88939 363.204833 55.535637 364.76501 56.685802 365.915175 
C 57.835967 367.06534 59.396144 367.711587 61.022723 367.711587 
z
" style="fill:#ffd400;stroke:#000000;stroke-linejoin:miter;stroke-width:0.6696;"/>
   </g>
   <g id="patch_52">
    <path clip-path="url(#pe9b4369d50)" d="M 30.35606 355.751588 
L 37.639392 367.40492 
L 23.072727 367.40492 
L 30.35606 355.751588 
z
" style="fill:#ed1c24;stroke:#000000;stroke-linejoin:miter;stroke-width:0.6696;"/>
   </g>
   <g id="patch_53">
    <path clip-path="url(#pe9b4369d50)" d="M 34.956059 375.378252 
L 25.75606 384.578251 
z
" style="fill:#ffffff;stroke:#000000;stroke-linejoin:miter;stroke-width:0.6696;"/>
   </g>
   <g id="patch_54">
    <path clip-path="url(#pe9b4369d50)" d="M 25.75606 375.378252 
L 34.956059 384.578251 
z
" style="fill:#ffffff;stroke:#000000;stroke-linejoin:miter;stroke-width:0.6696;"/>
   </g>
  </g>
  <g id="axes_7">
   <g id="line2d_18">
    <path clip-path="url(#p8ef0845d17)" d="M 51.976844 414.836983 
L 51.976844 440.071799 
" style="fill:none;stroke:#000000;stroke-linecap:square;stroke-width:1.116;"/>
   </g>
   <g id="line2d_19">
    <path clip-path="url(#p8ef0845d17)" d="M 94.034871 414.836983 
L 51.976844 414.836983 
" style="fill:none;stroke:#000000;stroke-linecap:square;stroke-width:1.116;"/>
   </g>
   <g id="patch_55">
    <path clip-path="url(#p8ef0845d17)" d="M 55.868854 428.868099 
Q 55.170626 428.868099 54.761545 429.34618 
Q 54.354108 429.822619 54.354108 430.653922 
Q 54.354108 431.480297 54.761545 431.961664 
Q 55.170626 432.441388 55.868854 432.441388 
Q 56.567083 432.441388 56.974521 431.961664 
Q 57.381958 431.480297 57.381958 430.653922 
Q 57.381958 429.822619 56.974521 429.34618 
Q 56.567083 428.868099 55.868854 428.868099 
z
M 57.927398 425.616816 
L 57.927398 426.561479 
Q 57.53639 426.377475 57.13881 426.280545 
Q 56.74123 426.181971 56.350222 426.181971 
Q 55.323414 426.181971 54.78126 426.875271 
Q 54.240749 427.568572 54.163533 428.969958 
Q 54.465825 428.523092 54.922549 428.284872 
Q 55.380916 428.046653 55.929641 428.046653 
Q 57.084594 428.046653 57.754894 428.748168 
Q 58.425194 429.44804 58.425194 430.653922 
Q 58.425194 431.835161 57.726965 432.549819 
Q 57.028736 433.262834 55.868854 433.262834 
Q 54.538112 433.262834 53.834955 432.244241 
Q 53.131797 431.224006 53.131797 429.288679 
Q 53.131797 427.471641 53.994315 426.390618 
Q 54.856833 425.309596 56.309149 425.309596 
Q 56.700158 425.309596 57.097737 425.386812 
Q 57.495317 425.464027 57.927398 425.616816 
z
"/>
   </g>
   <g id="patch_56">
    <path clip-path="url(#p8ef0845d17)" d="M 66.108998 413.640957 
L 66.108998 416.182511 
L 65.159407 416.182511 
L 65.159407 408.281845 
Q 65.159407 405.940724 67.346096 405.940724 
Q 69.5755 405.940724 69.5755 407.917123 
Q 69.5755 409.323438 68.691624 409.837663 
Q 70.129154 410.299316 70.129154 411.669487 
Q 70.129154 414.104253 67.654959 414.104253 
Q 66.565722 414.104253 66.108998 413.640957 
z
M 66.108998 412.408789 
Q 66.679082 413.297593 67.691103 413.297593 
Q 69.169706 413.297593 69.169706 411.685916 
Q 69.169706 410.236886 66.787513 410.350245 
L 66.787513 409.47787 
Q 68.650552 409.47787 68.650552 407.834978 
Q 68.650552 406.71124 67.449598 406.71124 
Q 66.108998 406.71124 66.108998 408.31306 
z
"/>
   </g>
   <g id="patch_57">
    <path clip-path="url(#p8ef0845d17)" d="M 94.034871 404.322476 
L 104.034761 411.587821 
L 100.215143 423.343397 
L 87.854599 423.343397 
L 84.034981 411.587821 
z
" style="fill:#ffffff;stroke:#000000;stroke-linejoin:miter;stroke-width:1.116;"/>
   </g>
   <g id="patch_58">
    <path clip-path="url(#p8ef0845d17)" d="M 60.388449 406.425377 
L 60.388449 423.248588 
L 43.565239 423.248588 
L 43.565239 406.425377 
L 60.388449 406.425377 
z
" style="fill:#0090bc;stroke:#000000;stroke-linejoin:miter;stroke-width:1.116;"/>
   </g>
   <g id="patch_59">
    <path clip-path="url(#p8ef0845d17)" d="M 58.285548 433.763095 
L 45.66814 446.380503 
z
" style="fill:#ffffff;stroke:#000000;stroke-linejoin:miter;stroke-width:1.116;"/>
   </g>
   <g id="patch_60">
    <path clip-path="url(#p8ef0845d17)" d="M 45.66814 433.763095 
L 58.285548 446.380503 
z
" style="fill:#ffffff;stroke:#000000;stroke-linejoin:miter;stroke-width:1.116;"/>
   </g>
  </g>
  <g id="axes_8">
   <g id="line2d_20">
    <path clip-path="url(#p22ed30dae7)" d="M 110.033766 481.285623 
L 37.566234 481.285623 
" style="fill:none;stroke:#000000;stroke-linecap:square;stroke-width:1.116;"/>
   </g>
   <g id="patch_61">
    <path clip-path="url(#p22ed30dae7)" d="M 61.916457 479.224827 
L 61.916457 483.604018 
L 60.280276 483.604018 
L 60.280276 469.990878 
Q 60.280276 465.957041 64.048022 465.957041 
Q 67.889367 465.957041 67.889367 469.362449 
Q 67.889367 471.785582 66.366416 472.671611 
Q 68.843334 473.467055 68.843334 475.827912 
Q 68.843334 480.023102 64.580205 480.023102 
Q 62.703409 480.023102 61.916457 479.224827 
z
M 61.916457 477.101755 
Q 62.898732 478.633198 64.642482 478.633198 
Q 67.190168 478.633198 67.190168 475.856219 
Q 67.190168 473.359486 63.085562 473.554809 
L 63.085562 472.051674 
Q 66.295647 472.051674 66.295647 469.220911 
Q 66.295647 467.284669 64.22636 467.284669 
Q 61.916457 467.284669 61.916457 470.044663 
z
"/>
   </g>
   <g id="patch_62">
    <path clip-path="url(#p22ed30dae7)" d="M 87.169694 468.184852 
L 82.657457 475.236282 
L 87.169694 475.236282 
z
M 86.699787 466.627932 
L 88.947413 466.627932 
L 88.947413 475.236282 
L 90.832701 475.236282 
L 90.832701 476.722433 
L 88.947413 476.722433 
L 88.947413 479.836272 
L 87.169694 479.836272 
L 87.169694 476.722433 
L 81.208107 476.722433 
L 81.208107 474.998498 
z
"/>
   </g>
   <g id="patch_63">
    <path clip-path="url(#p22ed30dae7)" d="M 110.033766 495.779129 
C 113.877489 495.779129 117.5643 494.252002 120.282223 491.534079 
C 123.000145 488.816157 124.527273 485.129345 124.527273 481.285623 
C 124.527273 477.4419 123.000145 473.755088 120.282223 471.037166 
C 117.5643 468.319243 113.877489 466.792116 110.033766 466.792116 
C 106.190043 466.792116 102.503232 468.319243 99.78531 471.037166 
C 97.067387 473.755088 95.54026 477.4419 95.54026 481.285623 
C 95.54026 485.129345 97.067387 488.816157 99.78531 491.534079 
C 102.503232 494.252002 106.190043 495.779129 110.033766 495.779129 
z
" style="fill:#0090bc;stroke:#000000;stroke-linejoin:miter;stroke-width:1.116;"/>
   </g>
   <g id="patch_64">
    <path clip-path="url(#p22ed30dae7)" d="M 37.566234 495.779129 
C 41.409957 495.779129 45.096768 494.252002 47.81469 491.534079 
C 50.532613 488.816157 52.05974 485.129345 52.05974 481.285623 
C 52.05974 477.4419 50.532613 473.755088 47.81469 471.037166 
C 45.096768 468.319243 41.409957 466.792116 37.566234 466.792116 
C 33.722511 466.792116 30.0357 468.319243 27.317777 471.037166 
C 24.599855 473.755088 23.072727 477.4419 23.072727 481.285623 
C 23.072727 485.129345 24.599855 488.816157 27.317777 491.534079 
C 30.0357 494.252002 33.722511 495.779129 37.566234 495.779129 
z
" style="fill:#ffd400;stroke:#000000;stroke-linejoin:miter;stroke-width:1.116;"/>
   </g>
  </g>
 </g>
 <defs>
  <clipPath id="pfe1f1d9297">
   <rect height="46.26383" width="58.508986" x="44.545507" y="69.12"/>
  </clipPath>
  <clipPath id="pc50151907d">
   <rect height="46.26383" width="19.479507" x="64.060246" y="124.636596"/>
  </clipPath>
  <clipPath id="p303aa3f1c8">
   <rect height="46.26383" width="31.372083" x="58.113959" y="180.153191"/>
  </clipPath>
  <clipPath id="p30f99dbbbe">
   <rect height="46.26383" width="67.361189" x="40.119406" y="235.669787"/>
  </clipPath>
  <clipPath id="p228f09c155">
   <rect height="46.26383" width="88.068552" x="29.765724" y="291.186383"/>
  </clipPath>
  <clipPath id="pe9b4369d50">
   <rect height="32.435387" width="111.6" x="18" y="353.6172"/>
  </clipPath>
  <clipPath id="p8ef0845d17">
   <rect height="46.26383" width="66.516475" x="40.541763" y="402.219574"/>
  </clipPath>
  <clipPath id="p22ed30dae7">
   <rect height="32.804297" width="111.6" x="18" y="464.465937"/>
  </clipPath>
 </defs>
</svg>
