<?xml version="1.0" encoding="utf-8" standalone="no"?>
<!DOCTYPE svg PUBLIC "-//W3C//DTD SVG 1.1//EN"
  "http://www.w3.org/Graphics/SVG/1.1/DTD/svg11.dtd">
<!-- Created with matplotlib (http://matplotlib.org/) -->
<svg height="504pt" version="1.1" viewBox="0 0 144 504" width="144pt" xmlns="http://www.w3.org/2000/svg" xmlns:xlink="http://www.w3.org/1999/xlink">
 <defs>
  <style type="text/css">
*{stroke-linecap:butt;stroke-linejoin:round;}
  </style>
 </defs>
 <g id="figure_1">
  <g id="patch_1">
   <path d="M 0 504 
L 144 504 
L 144 0 
L 0 0 
z
" style="fill:#ffffff;"/>
  </g>
  <g id="axes_1">
   <g id="line2d_1">
    <path clip-path="url(#pe397368fa5)" d="M 51.700787 71.470629 
L 51.700787 98.114578 
" style="fill:none;stroke:#000000;stroke-linecap:square;stroke-width:1.116;"/>
   </g>
   <g id="line2d_2">
    <path clip-path="url(#pe397368fa5)" d="M 96.107369 71.470629 
L 51.700787 71.470629 
" style="fill:none;stroke:#000000;stroke-linecap:square;stroke-width:1.116;"/>
   </g>
   <g id="patch_2">
    <path clip-path="url(#pe397368fa5)" d="M 56.340928 84.194155 
L 53.575924 88.515124 
L 56.340928 88.515124 
z
M 56.052979 83.240108 
L 57.430277 83.240108 
L 57.430277 88.515124 
L 58.585542 88.515124 
L 58.585542 89.425806 
L 57.430277 89.425806 
L 57.430277 91.333901 
L 56.340928 91.333901 
L 56.340928 89.425806 
L 52.687793 89.425806 
L 52.687793 88.369415 
z
M 60.509032 89.956603 
L 61.652155 89.956603 
L 61.652155 90.889835 
L 60.764023 92.624468 
L 60.064966 92.624468 
L 60.509032 90.889835 
z
M 66.402228 86.851612 
Q 65.665009 86.851612 65.233086 87.35639 
Q 64.802897 87.859433 64.802897 88.737157 
Q 64.802897 89.609677 65.233086 90.117924 
Q 65.665009 90.624437 66.402228 90.624437 
Q 67.139446 90.624437 67.569635 90.117924 
Q 67.999824 89.609677 67.999824 88.737157 
Q 67.999824 87.859433 67.569635 87.35639 
Q 67.139446 86.851612 66.402228 86.851612 
z
M 68.575722 83.418775 
L 68.575722 84.416188 
Q 68.162879 84.22191 67.743098 84.119566 
Q 67.323317 84.015488 66.910475 84.015488 
Q 65.82633 84.015488 65.253901 84.747503 
Q 64.683207 85.479518 64.60168 86.959159 
Q 64.920852 86.487339 65.40308 86.235817 
Q 65.887042 85.984296 66.466409 85.984296 
Q 67.685855 85.984296 68.393585 86.724984 
Q 69.101315 87.463937 69.101315 88.737157 
Q 69.101315 89.984357 68.364097 90.738922 
Q 67.626878 91.491753 66.402228 91.491753 
Q 64.997176 91.491753 64.254753 90.416281 
Q 63.512331 89.339074 63.512331 87.295678 
Q 63.512331 85.377175 64.423013 84.235787 
Q 65.333694 83.094399 66.867109 83.094399 
Q 67.279952 83.094399 67.699733 83.175926 
Q 68.119514 83.257454 68.575722 83.418775 
z
"/>
   </g>
   <g id="patch_3">
    <path clip-path="url(#pe397368fa5)" d="M 92.020576 74.053496 
L 91.781196 72.801092 
Q 91.538348 71.515729 90.572158 71.515729 
Q 89.847082 71.515729 89.515767 72.112443 
Q 89.097721 72.860069 89.097721 73.847075 
Q 89.097721 75.040502 89.505359 75.609461 
Q 89.916467 76.188828 90.572158 76.188828 
Q 91.298969 76.188828 91.689261 75.033563 
z
M 92.579127 72.395188 
L 93.115128 70.806265 
L 94.004995 70.806265 
L 92.893096 74.096862 
L 93.109925 75.28335 
Q 93.158494 75.548749 93.347569 75.770782 
Q 93.571337 76.030977 93.7448 76.030977 
L 94.221824 76.030977 
L 94.221824 76.877477 
L 93.62511 76.877477 
Q 93.115128 76.877477 92.660655 76.421269 
Q 92.436887 76.194032 92.344952 75.717008 
Q 92.096899 76.318926 91.586918 76.790746 
Q 91.347538 77.012779 90.572158 77.012779 
Q 89.298938 77.012779 88.681409 76.188828 
Q 88.046533 75.337124 88.046533 73.847075 
Q 88.046533 72.252948 88.735182 71.505322 
Q 89.500155 70.670964 90.572158 70.670964 
Q 92.25822 70.670964 92.579127 72.395188 
z
M 97.570965 68.783684 
L 98.492054 68.783684 
L 95.673277 77.907849 
L 94.752188 77.907849 
z
M 100.535885 76.502797 
L 100.535885 79.186273 
L 99.533267 79.186273 
L 99.533267 70.844427 
Q 99.533267 68.372576 101.842063 68.372576 
Q 104.195958 68.372576 104.195958 70.459338 
Q 104.195958 71.944184 103.262726 72.487123 
Q 104.780529 72.974555 104.780529 74.421238 
Q 104.780529 76.991963 102.168173 76.991963 
Q 101.018112 76.991963 100.535885 76.502797 
z
M 100.535885 75.201823 
Q 101.137802 76.140259 102.206335 76.140259 
Q 103.767504 76.140259 103.767504 74.438585 
Q 103.767504 72.908639 101.252288 73.028329 
L 101.252288 72.107239 
Q 103.21936 72.107239 103.21936 70.372607 
Q 103.21936 69.186119 101.951344 69.186119 
Q 100.535885 69.186119 100.535885 70.877385 
z
"/>
   </g>
   <g id="patch_4">
    <path clip-path="url(#pe397368fa5)" d="M 60.582103 62.589313 
L 60.582103 80.351945 
L 42.819471 80.351945 
L 42.819471 62.589313 
L 60.582103 62.589313 
z
" style="fill:#ffd400;stroke:#000000;stroke-linejoin:miter;stroke-width:1.116;"/>
   </g>
   <g id="patch_5">
    <path clip-path="url(#pe397368fa5)" d="M 58.361774 91.453591 
L 45.0398 104.775565 
z
" style="fill:#ffffff;stroke:#000000;stroke-linejoin:miter;stroke-width:1.116;"/>
   </g>
   <g id="patch_6">
    <path clip-path="url(#pe397368fa5)" d="M 45.0398 91.453591 
L 58.361774 104.775565 
z
" style="fill:#ffffff;stroke:#000000;stroke-linejoin:miter;stroke-width:1.116;"/>
   </g>
  </g>
  <g id="axes_2">
   <g id="line2d_3">
    <path clip-path="url(#p9f6fcd2e18)" d="M 54.340463 127.156483 
L 54.340463 153.800432 
" style="fill:none;stroke:#000000;stroke-linecap:square;stroke-width:1.116;"/>
   </g>
   <g id="line2d_4">
    <path clip-path="url(#p9f6fcd2e18)" d="M 98.747045 127.156483 
L 54.340463 127.156483 
" style="fill:none;stroke:#000000;stroke-linecap:square;stroke-width:1.116;"/>
   </g>
   <g id="patch_7">
    <path clip-path="url(#p9f6fcd2e18)" d="M 58.980604 139.880009 
L 56.215601 144.200978 
L 58.980604 144.200978 
z
M 58.692655 138.925961 
L 60.069953 138.925961 
L 60.069953 144.200978 
L 61.225218 144.200978 
L 61.225218 145.11166 
L 60.069953 145.11166 
L 60.069953 147.019755 
L 58.980604 147.019755 
L 58.980604 145.11166 
L 55.327469 145.11166 
L 55.327469 144.055269 
z
M 63.148708 145.642457 
L 64.291831 145.642457 
L 64.291831 146.575689 
L 63.403699 148.310321 
L 62.704643 148.310321 
L 63.148708 146.575689 
z
M 69.041904 142.537466 
Q 68.304685 142.537466 67.872762 143.042243 
Q 67.442573 143.545287 67.442573 144.423011 
Q 67.442573 145.295531 67.872762 145.803778 
Q 68.304685 146.31029 69.041904 146.31029 
Q 69.779123 146.31029 70.209312 145.803778 
Q 70.6395 145.295531 70.6395 144.423011 
Q 70.6395 143.545287 70.209312 143.042243 
Q 69.779123 142.537466 69.041904 142.537466 
z
M 71.215398 139.104629 
L 71.215398 140.102042 
Q 70.802556 139.907763 70.382775 139.80542 
Q 69.962994 139.701342 69.550151 139.701342 
Q 68.466006 139.701342 67.893578 140.433357 
Q 67.322884 141.165372 67.241356 142.645013 
Q 67.560528 142.173193 68.042756 141.921671 
Q 68.526718 141.670149 69.106086 141.670149 
Q 70.325532 141.670149 71.033262 142.410837 
Q 71.740992 143.149791 71.740992 144.423011 
Q 71.740992 145.670211 71.003773 146.424776 
Q 70.266554 147.177606 69.041904 147.177606 
Q 67.636852 147.177606 66.89443 146.102135 
Q 66.152007 145.024928 66.152007 142.981531 
Q 66.152007 141.063028 67.062689 139.92164 
Q 67.973371 138.780252 69.506786 138.780252 
Q 69.919628 138.780252 70.339409 138.86178 
Q 70.75919 138.943308 71.215398 139.104629 
z
"/>
   </g>
   <g id="patch_8">
    <path clip-path="url(#p9f6fcd2e18)" d="M 99.939605 127.503409 
L 99.700226 126.251005 
Q 99.457377 124.965642 98.491187 124.965642 
Q 97.766111 124.965642 97.434796 125.562356 
Q 97.01675 126.309982 97.01675 127.296988 
Q 97.01675 128.490415 97.424388 129.059374 
Q 97.835496 129.638741 98.491187 129.638741 
Q 99.217998 129.638741 99.60829 128.483476 
z
M 100.498156 125.845101 
L 101.034158 124.256178 
L 101.924024 124.256178 
L 100.812125 127.546775 
L 101.028954 128.733263 
Q 101.077523 128.998662 101.266598 129.220695 
Q 101.490366 129.48089 101.663829 129.48089 
L 102.140853 129.48089 
L 102.140853 130.32739 
L 101.54414 130.32739 
Q 101.034158 130.32739 100.579684 129.871182 
Q 100.355917 129.643945 100.263981 129.166921 
Q 100.015929 129.768839 99.505947 130.240659 
Q 99.266568 130.462691 98.491187 130.462691 
Q 97.217967 130.462691 96.600438 129.638741 
Q 95.965563 128.787037 95.965563 127.296988 
Q 95.965563 125.702861 96.654212 124.955235 
Q 97.419184 124.120876 98.491187 124.120876 
Q 100.177249 124.120876 100.498156 125.845101 
z
"/>
   </g>
   <g id="patch_9">
    <path clip-path="url(#p9f6fcd2e18)" d="M 63.22178 118.275166 
L 63.22178 136.037799 
L 45.459147 136.037799 
L 45.459147 118.275166 
L 63.22178 118.275166 
z
" style="fill:#ffd400;stroke:#000000;stroke-linejoin:miter;stroke-width:1.116;"/>
   </g>
   <g id="patch_10">
    <path clip-path="url(#p9f6fcd2e18)" d="M 61.001451 147.139445 
L 47.679476 160.461419 
z
" style="fill:#ffffff;stroke:#000000;stroke-linejoin:miter;stroke-width:1.116;"/>
   </g>
   <g id="patch_11">
    <path clip-path="url(#p9f6fcd2e18)" d="M 47.679476 147.139445 
L 61.001451 160.461419 
z
" style="fill:#ffffff;stroke:#000000;stroke-linejoin:miter;stroke-width:1.116;"/>
   </g>
  </g>
  <g id="axes_3">
   <g id="line2d_5">
    <path clip-path="url(#p63e49b1a29)" d="M 69.540394 182.842336 
L 69.540394 209.486285 
" style="fill:none;stroke:#000000;stroke-linecap:square;stroke-width:1.674;"/>
   </g>
   <g id="patch_12">
    <path clip-path="url(#p63e49b1a29)" d="M 74.180535 195.565863 
L 71.415531 199.886831 
L 74.180535 199.886831 
z
M 73.892586 194.611815 
L 75.269884 194.611815 
L 75.269884 199.886831 
L 76.425149 199.886831 
L 76.425149 200.797513 
L 75.269884 200.797513 
L 75.269884 202.705609 
L 74.180535 202.705609 
L 74.180535 200.797513 
L 70.5274 200.797513 
L 70.5274 199.741122 
z
M 78.348639 201.328311 
L 79.491762 201.328311 
L 79.491762 202.261543 
L 78.60363 203.996175 
L 77.904573 203.996175 
L 78.348639 202.261543 
z
M 84.241835 198.223319 
Q 83.504616 198.223319 83.072693 198.728097 
Q 82.642504 199.23114 82.642504 200.108864 
Q 82.642504 200.981384 83.072693 201.489631 
Q 83.504616 201.996144 84.241835 201.996144 
Q 84.979053 201.996144 85.409242 201.489631 
Q 85.839431 200.981384 85.839431 200.108864 
Q 85.839431 199.23114 85.409242 198.728097 
Q 84.979053 198.223319 84.241835 198.223319 
z
M 86.415329 194.790482 
L 86.415329 195.787896 
Q 86.002486 195.593617 85.582705 195.491274 
Q 85.162924 195.387196 84.750082 195.387196 
Q 83.665937 195.387196 83.093508 196.11921 
Q 82.522814 196.851225 82.441287 198.330866 
Q 82.760459 197.859046 83.242687 197.607525 
Q 83.726649 197.356003 84.306016 197.356003 
Q 85.525463 197.356003 86.233192 198.096691 
Q 86.940922 198.835644 86.940922 200.108864 
Q 86.940922 201.356065 86.203704 202.11063 
Q 85.466485 202.86346 84.241835 202.86346 
Q 82.836783 202.86346 82.09436 201.787988 
Q 81.351938 200.710782 81.351938 198.667385 
Q 81.351938 196.748882 82.26262 195.607494 
Q 83.173301 194.466106 84.706716 194.466106 
Q 85.119559 194.466106 85.53934 194.547634 
Q 85.959121 194.629161 86.415329 194.790482 
z
"/>
   </g>
   <g id="patch_13">
    <path clip-path="url(#p63e49b1a29)" d="M 78.42171 173.96102 
L 78.42171 191.723653 
L 60.659078 191.723653 
L 60.659078 173.96102 
L 78.42171 173.96102 
z
" style="fill:#ffd400;stroke:#000000;stroke-linejoin:miter;stroke-width:1.674;"/>
   </g>
   <g id="patch_14">
    <path clip-path="url(#p63e49b1a29)" d="M 76.201381 202.825298 
L 62.879407 216.147273 
z
" style="fill:#ffffff;stroke:#000000;stroke-linejoin:miter;stroke-width:1.674;"/>
   </g>
   <g id="patch_15">
    <path clip-path="url(#p63e49b1a29)" d="M 62.879407 202.825298 
L 76.201381 216.147273 
z
" style="fill:#ffffff;stroke:#000000;stroke-linejoin:miter;stroke-width:1.674;"/>
   </g>
  </g>
  <g id="axes_4">
   <g id="line2d_6">
    <path clip-path="url(#p32eaa71e9f)" d="M 107.749659 252.424568 
L 37.185549 252.424568 
" style="fill:none;stroke:#000000;stroke-linecap:square;stroke-width:1.116;"/>
   </g>
   <g id="patch_16">
    <path clip-path="url(#p32eaa71e9f)" d="M 64.93709 246.52585 
L 64.556706 244.535721 
Q 64.170808 242.493221 62.635488 242.493221 
Q 61.483308 242.493221 60.956834 243.441426 
Q 60.292539 244.629439 60.292539 246.197837 
Q 60.292539 248.094247 60.940295 248.99835 
Q 61.593564 249.918991 62.635488 249.918991 
Q 63.790424 249.918991 64.410616 248.083222 
z
M 65.824655 243.890721 
L 66.676385 241.365849 
L 68.090424 241.365849 
L 66.323565 246.59476 
L 66.668116 248.480145 
Q 66.745296 248.901876 67.045744 249.254696 
Q 67.401321 249.668158 67.676962 249.668158 
L 68.434975 249.668158 
L 68.434975 251.013286 
L 67.48677 251.013286 
Q 66.676385 251.013286 65.954206 250.28835 
Q 65.598629 249.92726 65.452539 249.169247 
Q 65.058372 250.125722 64.247988 250.875465 
Q 63.867603 251.228286 62.635488 251.228286 
Q 60.612282 251.228286 59.631 249.918991 
Q 58.622154 248.565593 58.622154 246.197837 
Q 58.622154 243.664696 59.716449 242.476683 
Q 60.932026 241.150849 62.635488 241.150849 
Q 65.314719 241.150849 65.824655 243.890721 
z
"/>
   </g>
   <g id="patch_17">
    <path clip-path="url(#p32eaa71e9f)" d="M 107.749659 234.783541 
L 124.527273 246.973191 
L 118.118794 266.696459 
L 97.380523 266.696459 
L 90.972045 246.973191 
z
" style="fill:#ffffff;stroke:#000000;stroke-linejoin:miter;stroke-width:1.116;"/>
   </g>
   <g id="patch_18">
    <path clip-path="url(#p32eaa71e9f)" d="M 51.298371 238.311746 
L 51.298371 266.53739 
L 23.072727 266.53739 
L 23.072727 238.311746 
L 51.298371 238.311746 
z
" style="fill:#ffd400;stroke:#000000;stroke-linejoin:miter;stroke-width:1.116;"/>
   </g>
  </g>
  <g id="axes_5">
   <g id="line2d_7">
    <path clip-path="url(#pb6bc05148e)" d="M 107.749659 308.110422 
L 37.185549 308.110422 
" style="fill:none;stroke:#000000;stroke-linecap:square;stroke-width:1.116;"/>
   </g>
   <g id="patch_19">
    <path clip-path="url(#pb6bc05148e)" d="M 64.93709 302.211703 
L 64.556706 300.221575 
Q 64.170808 298.179075 62.635488 298.179075 
Q 61.483308 298.179075 60.956834 299.12728 
Q 60.292539 300.315293 60.292539 301.88369 
Q 60.292539 303.780101 60.940295 304.684204 
Q 61.593564 305.604845 62.635488 305.604845 
Q 63.790424 305.604845 64.410616 303.769075 
z
M 65.824655 299.576575 
L 66.676385 297.051703 
L 68.090424 297.051703 
L 66.323565 302.280614 
L 66.668116 304.165998 
Q 66.745296 304.587729 67.045744 304.94055 
Q 67.401321 305.354011 67.676962 305.354011 
L 68.434975 305.354011 
L 68.434975 306.69914 
L 67.48677 306.69914 
Q 66.676385 306.69914 65.954206 305.974204 
Q 65.598629 305.613114 65.452539 304.855101 
Q 65.058372 305.811575 64.247988 306.561319 
Q 63.867603 306.91414 62.635488 306.91414 
Q 60.612282 306.91414 59.631 305.604845 
Q 58.622154 304.251447 58.622154 301.88369 
Q 58.622154 299.350549 59.716449 298.162536 
Q 60.932026 296.836703 62.635488 296.836703 
Q 65.314719 296.836703 65.824655 299.576575 
z
"/>
   </g>
   <g id="patch_20">
    <path clip-path="url(#pb6bc05148e)" d="M 107.749659 290.469394 
L 124.527273 302.659045 
L 118.118794 322.382313 
L 97.380523 322.382313 
L 90.972045 302.659045 
z
" style="fill:#ffffff;stroke:#000000;stroke-linejoin:miter;stroke-width:1.116;"/>
   </g>
   <g id="patch_21">
    <path clip-path="url(#pb6bc05148e)" d="M 51.298371 293.9976 
L 51.298371 322.223244 
L 23.072727 322.223244 
L 23.072727 293.9976 
L 51.298371 293.9976 
z
" style="fill:#ffd400;stroke:#000000;stroke-linejoin:miter;stroke-width:1.116;"/>
   </g>
  </g>
  <g id="axes_6">
   <g id="line2d_8">
    <path clip-path="url(#pd42f9405ef)" d="M 51.91031 351.565144 
L 51.91031 376.876896 
" style="fill:none;stroke:#000000;stroke-linecap:square;stroke-width:1.116;"/>
   </g>
   <g id="line2d_9">
    <path clip-path="url(#pd42f9405ef)" d="M 94.096563 351.565144 
L 51.91031 351.565144 
" style="fill:none;stroke:#000000;stroke-linecap:square;stroke-width:1.116;"/>
   </g>
   <g id="patch_22">
    <path clip-path="url(#pd42f9405ef)" d="M 56.61177 366.289135 
Q 57.358269 366.448981 57.776836 366.954887 
Q 58.19705 367.459144 58.19705 368.2007 
Q 58.19705 369.337751 57.414298 369.962305 
Q 56.631545 370.585212 55.189632 370.585212 
Q 54.706797 370.585212 54.1943 370.489633 
Q 53.681803 370.394055 53.136348 370.202899 
L 53.136348 369.199327 
Q 53.568098 369.451456 54.082243 369.579992 
Q 54.598036 369.708529 55.15997 369.708529 
Q 56.137175 369.708529 56.649672 369.32292 
Q 57.162169 368.937311 57.162169 368.2007 
Q 57.162169 367.520117 56.685926 367.137804 
Q 56.209682 366.753843 55.361014 366.753843 
L 54.464556 366.753843 
L 54.464556 365.898583 
L 55.402211 365.898583 
Q 56.168485 365.898583 56.575516 365.592073 
Q 56.982548 365.285564 56.982548 364.708799 
Q 56.982548 364.117202 56.562333 363.800805 
Q 56.143766 363.482761 55.361014 363.482761 
Q 54.93256 363.482761 54.443133 363.576691 
Q 53.953707 363.668973 53.367054 363.863426 
L 53.367054 362.937305 
Q 53.960298 362.772515 54.477739 362.69012 
Q 54.99518 362.607725 55.453296 362.607725 
Q 56.638137 362.607725 57.326959 363.146589 
Q 58.017429 363.683804 58.017429 364.600037 
Q 58.017429 365.239422 57.651595 365.679412 
Q 57.285761 366.119401 56.61177 366.289135 
z
M 60.278143 369.12682 
L 61.364109 369.12682 
L 61.364109 370.01339 
L 60.520384 371.661291 
L 59.85628 371.661291 
L 60.278143 370.01339 
z
M 65.876679 366.177078 
Q 65.176321 366.177078 64.765994 366.656617 
Q 64.357315 367.134508 64.357315 367.968346 
Q 64.357315 368.79724 64.765994 369.280074 
Q 65.176321 369.761261 65.876679 369.761261 
Q 66.577036 369.761261 66.985716 369.280074 
Q 67.394395 368.79724 67.394395 367.968346 
Q 67.394395 367.134508 66.985716 366.656617 
Q 66.577036 366.177078 65.876679 366.177078 
z
M 67.941498 362.915883 
L 67.941498 363.863426 
Q 67.549298 363.678861 67.150506 363.581635 
Q 66.751714 363.482761 66.359514 363.482761 
Q 65.329576 363.482761 64.785769 364.178175 
Q 64.243609 364.873589 64.166158 366.279248 
Q 64.469372 365.831019 64.927488 365.592073 
Q 65.387252 365.353128 65.937651 365.353128 
Q 67.096125 365.353128 67.768469 366.056781 
Q 68.440812 366.758787 68.440812 367.968346 
Q 68.440812 369.153186 67.740454 369.870023 
Q 67.040097 370.585212 65.876679 370.585212 
Q 64.541879 370.585212 63.836578 369.563513 
Q 63.131277 368.540167 63.131277 366.59894 
Q 63.131277 364.776362 63.996424 363.692044 
Q 64.861572 362.607725 66.318316 362.607725 
Q 66.710516 362.607725 67.109308 362.685177 
Q 67.5081 362.762628 67.941498 362.915883 
z
"/>
   </g>
   <g id="patch_23">
    <path clip-path="url(#pd42f9405ef)" d="M 66.08555 350.365473 
L 66.08555 352.914775 
L 65.133064 352.914775 
L 65.133064 344.990021 
Q 65.133064 342.641763 67.326419 342.641763 
Q 69.56262 342.641763 69.56262 344.624187 
Q 69.56262 346.03479 68.67605 346.550583 
Q 70.117963 347.013643 70.117963 348.387992 
Q 70.117963 350.830181 67.636225 350.830181 
Q 66.543666 350.830181 66.08555 350.365473 
z
M 66.08555 349.129547 
Q 66.657372 350.021061 67.672478 350.021061 
Q 69.155589 350.021061 69.155589 348.404471 
Q 69.155589 346.951023 66.766133 347.064728 
L 66.766133 346.189693 
Q 68.634852 346.189693 68.634852 344.541792 
Q 68.634852 343.414628 67.430237 343.414628 
Q 66.08555 343.414628 66.08555 345.021331 
z
"/>
   </g>
   <g id="patch_24">
    <path clip-path="url(#pd42f9405ef)" d="M 94.096563 341.018581 
L 104.12694 348.306077 
L 100.295677 360.097493 
L 87.897449 360.097493 
L 84.066185 348.306077 
z
" style="fill:#ffffff;stroke:#000000;stroke-linejoin:miter;stroke-width:1.116;"/>
   </g>
   <g id="patch_25">
    <path clip-path="url(#pd42f9405ef)" d="M 60.347561 343.127894 
L 60.347561 360.002395 
L 43.47306 360.002395 
L 43.47306 343.127894 
L 60.347561 343.127894 
z
" style="fill:#0090bc;stroke:#000000;stroke-linejoin:miter;stroke-width:1.116;"/>
   </g>
   <g id="patch_26">
    <path clip-path="url(#pd42f9405ef)" d="M 58.238248 370.548958 
L 45.582372 383.204834 
z
" style="fill:#ffffff;stroke:#000000;stroke-linejoin:miter;stroke-width:1.116;"/>
   </g>
   <g id="patch_27">
    <path clip-path="url(#pd42f9405ef)" d="M 45.582372 370.548958 
L 58.238248 383.204834 
z
" style="fill:#ffffff;stroke:#000000;stroke-linejoin:miter;stroke-width:1.116;"/>
   </g>
  </g>
  <g id="axes_7">
   <g id="line2d_10">
    <path clip-path="url(#p42ad8eb8a1)" d="M 110.033766 418.215099 
L 37.566234 418.215099 
" style="fill:none;stroke:#000000;stroke-linecap:square;stroke-width:1.116;"/>
   </g>
   <g id="patch_28">
    <path clip-path="url(#p42ad8eb8a1)" d="M 61.916457 416.154303 
L 61.916457 420.533493 
L 60.280276 420.533493 
L 60.280276 406.920354 
Q 60.280276 402.886517 64.048022 402.886517 
Q 67.889367 402.886517 67.889367 406.291925 
Q 67.889367 408.715058 66.366416 409.601087 
Q 68.843334 410.396531 68.843334 412.757387 
Q 68.843334 416.952578 64.580205 416.952578 
Q 62.703409 416.952578 61.916457 416.154303 
z
M 61.916457 414.031231 
Q 62.898732 415.562674 64.642482 415.562674 
Q 67.190168 415.562674 67.190168 412.785695 
Q 67.190168 410.288962 63.085562 410.484285 
L 63.085562 408.98115 
Q 66.295647 408.98115 66.295647 406.150387 
Q 66.295647 404.214145 64.22636 404.214145 
Q 61.916457 404.214145 61.916457 406.974139 
z
"/>
   </g>
   <g id="patch_29">
    <path clip-path="url(#p42ad8eb8a1)" d="M 87.169694 405.114327 
L 82.657457 412.165758 
L 87.169694 412.165758 
z
M 86.699787 403.557408 
L 88.947413 403.557408 
L 88.947413 412.165758 
L 90.832701 412.165758 
L 90.832701 413.651909 
L 88.947413 413.651909 
L 88.947413 416.765748 
L 87.169694 416.765748 
L 87.169694 413.651909 
L 81.208107 413.651909 
L 81.208107 411.927974 
z
"/>
   </g>
   <g id="patch_30">
    <path clip-path="url(#p42ad8eb8a1)" d="M 110.033766 432.708605 
C 113.877489 432.708605 117.5643 431.181478 120.282223 428.463555 
C 123.000145 425.745633 124.527273 422.058821 124.527273 418.215099 
C 124.527273 414.371376 123.000145 410.684564 120.282223 407.966642 
C 117.5643 405.248719 113.877489 403.721592 110.033766 403.721592 
C 106.190043 403.721592 102.503232 405.248719 99.78531 407.966642 
C 97.067387 410.684564 95.54026 414.371376 95.54026 418.215099 
C 95.54026 422.058821 97.067387 425.745633 99.78531 428.463555 
C 102.503232 431.181478 106.190043 432.708605 110.033766 432.708605 
z
" style="fill:#0090bc;stroke:#000000;stroke-linejoin:miter;stroke-width:1.116;"/>
   </g>
   <g id="patch_31">
    <path clip-path="url(#p42ad8eb8a1)" d="M 37.566234 432.708605 
C 41.409957 432.708605 45.096768 431.181478 47.81469 428.463555 
C 50.532613 425.745633 52.05974 422.058821 52.05974 418.215099 
C 52.05974 414.371376 50.532613 410.684564 47.81469 407.966642 
C 45.096768 405.248719 41.409957 403.721592 37.566234 403.721592 
C 33.722511 403.721592 30.0357 405.248719 27.317777 407.966642 
C 24.599855 410.684564 23.072727 414.371376 23.072727 418.215099 
C 23.072727 422.058821 24.599855 425.745633 27.317777 428.463555 
C 30.0357 431.181478 33.722511 432.708605 37.566234 432.708605 
z
" style="fill:#ffd400;stroke:#000000;stroke-linejoin:miter;stroke-width:1.116;"/>
   </g>
  </g>
 </g>
 <defs>
  <clipPath id="pe397368fa5">
   <rect height="46.404878" width="68.157165" x="39.721418" y="60.48"/>
  </clipPath>
  <clipPath id="p9f6fcd2e18">
   <rect height="46.404878" width="62.349877" x="42.625062" y="116.165854"/>
  </clipPath>
  <clipPath id="p63e49b1a29">
   <rect height="46.404878" width="28.910029" x="59.344985" y="171.851707"/>
  </clipPath>
  <clipPath id="p32eaa71e9f">
   <rect height="35.10421" width="111.6" x="18" y="233.187895"/>
  </clipPath>
  <clipPath id="pb6bc05148e">
   <rect height="35.10421" width="111.6" x="18" y="288.873749"/>
  </clipPath>
  <clipPath id="pd42f9405ef">
   <rect height="46.404878" width="66.719269" x="40.440365" y="338.909268"/>
  </clipPath>
  <clipPath id="p42ad8eb8a1">
   <rect height="32.804297" width="111.6" x="18" y="401.395413"/>
  </clipPath>
 </defs>
</svg>
