<?xml version="1.0" encoding="utf-8" standalone="no"?>
<!DOCTYPE svg PUBLIC "-//W3C//DTD SVG 1.1//EN"
  "http://www.w3.org/Graphics/SVG/1.1/DTD/svg11.dtd">
<!-- Created with matplotlib (http://matplotlib.org/) -->
<svg height="288pt" version="1.1" viewBox="0 0 144 288" width="144pt" xmlns="http://www.w3.org/2000/svg" xmlns:xlink="http://www.w3.org/1999/xlink">
 <defs>
  <style type="text/css">
*{stroke-linecap:butt;stroke-linejoin:round;}
  </style>
 </defs>
 <g id="figure_1">
  <g id="patch_1">
   <path d="M 0 288 
L 144 288 
L 144 0 
L 0 0 
z
" style="fill:#ffffff;"/>
  </g>
  <g id="axes_1">
   <g id="line2d_1">
    <path clip-path="url(#p60ec705bd3)" d="M 76.553695 58.318388 
L 31.986222 58.318388 
" style="fill:none;stroke:#000000;stroke-linecap:square;stroke-width:0.837;"/>
   </g>
   <g id="line2d_2">
    <path clip-path="url(#p60ec705bd3)" d="M 121.121169 58.318388 
L 76.553695 58.318388 
" style="fill:none;stroke:#000000;stroke-linecap:square;stroke-width:0.837;"/>
   </g>
   <g id="patch_2">
    <path clip-path="url(#p60ec705bd3)" d="M 49.513774 54.592825 
L 49.273527 53.335883 
Q 49.029799 52.045864 48.060108 52.045864 
Q 47.332405 52.045864 46.99989 52.644739 
Q 46.580329 53.395075 46.580329 54.385656 
Q 46.580329 55.583407 46.989444 56.154428 
Q 47.402041 56.735894 48.060108 56.735894 
Q 48.789552 56.735894 49.181258 55.576444 
z
M 50.074349 52.928509 
L 50.612292 51.333829 
L 51.505383 51.333829 
L 50.389455 54.636348 
L 50.607069 55.827136 
Q 50.655815 56.093496 50.845575 56.316333 
Q 51.070153 56.577471 51.244245 56.577471 
L 51.722997 56.577471 
L 51.722997 57.427038 
L 51.124122 57.427038 
Q 50.612292 57.427038 50.156172 56.969177 
Q 49.931594 56.741117 49.839325 56.262365 
Q 49.590374 56.866463 49.078544 57.339992 
Q 48.838298 57.56283 48.060108 57.56283 
Q 46.782275 57.56283 46.162509 56.735894 
Q 45.525333 55.881104 45.525333 54.385656 
Q 45.525333 52.785754 46.216477 52.035419 
Q 46.984221 51.198037 48.060108 51.198037 
Q 49.752279 51.198037 50.074349 52.928509 
z
"/>
   </g>
   <g id="patch_3">
    <path clip-path="url(#p60ec705bd3)" d="M 62.802193 53.046891 
Q 63.590828 53.21576 64.033021 53.750222 
Q 64.476955 54.282942 64.476955 55.066355 
Q 64.476955 56.267588 63.650019 56.927395 
Q 62.823084 57.585462 61.299781 57.585462 
Q 60.789693 57.585462 60.248267 57.484489 
Q 59.706842 57.383515 59.130599 57.181569 
L 59.130599 56.121351 
Q 59.586719 56.387711 60.129885 56.523502 
Q 60.674792 56.659294 61.268445 56.659294 
Q 62.300808 56.659294 62.842234 56.251919 
Q 63.383659 55.844545 63.383659 55.066355 
Q 63.383659 54.347356 62.880534 53.943463 
Q 62.377409 53.53783 61.480837 53.53783 
L 60.533778 53.53783 
L 60.533778 52.634294 
L 61.524359 52.634294 
Q 62.333886 52.634294 62.763892 52.310483 
Q 63.193899 51.986673 63.193899 51.377352 
Q 63.193899 50.752363 62.749965 50.418107 
Q 62.307772 50.08211 61.480837 50.08211 
Q 61.028198 50.08211 60.511146 50.181342 
Q 59.994094 50.278833 59.374327 50.484262 
L 59.374327 49.505866 
Q 60.001057 49.331775 60.547705 49.244729 
Q 61.094353 49.157683 61.578328 49.157683 
Q 62.830047 49.157683 63.55775 49.726963 
Q 64.287195 50.294502 64.287195 51.262451 
Q 64.287195 51.937927 63.900711 52.402752 
Q 63.514228 52.867577 62.802193 53.046891 
z
"/>
   </g>
   <g id="patch_4">
    <path clip-path="url(#p60ec705bd3)" d="M 122.318049 58.666571 
L 122.077803 57.409629 
Q 121.834074 56.11961 120.864384 56.11961 
Q 120.13668 56.11961 119.804165 56.718485 
Q 119.384604 57.46882 119.384604 58.459402 
Q 119.384604 59.657153 119.79372 60.228174 
Q 120.206317 60.80964 120.864384 60.80964 
Q 121.593828 60.80964 121.985534 59.650189 
z
M 122.878624 57.002255 
L 123.416568 55.407575 
L 124.309658 55.407575 
L 123.19373 58.710094 
L 123.411345 59.900881 
Q 123.460091 60.167241 123.649851 60.390079 
Q 123.874429 60.651216 124.048521 60.651216 
L 124.527273 60.651216 
L 124.527273 61.500784 
L 123.928397 61.500784 
Q 123.416568 61.500784 122.960447 61.042923 
Q 122.735869 60.814863 122.643601 60.33611 
Q 122.394649 60.940209 121.88282 61.413738 
Q 121.642573 61.636575 120.864384 61.636575 
Q 119.58655 61.636575 118.966784 60.80964 
Q 118.329608 59.95485 118.329608 58.459402 
Q 118.329608 56.859499 119.020752 56.109164 
Q 119.788497 55.271783 120.864384 55.271783 
Q 122.556555 55.271783 122.878624 57.002255 
z
"/>
   </g>
   <g id="patch_5">
    <path clip-path="url(#p60ec705bd3)" d="M 76.553695 67.231882 
C 78.917582 67.231882 81.184968 66.2927 82.856488 64.62118 
C 84.528008 62.94966 85.46719 60.682274 85.46719 58.318388 
C 85.46719 55.954501 84.528008 53.687115 82.856488 52.015595 
C 81.184968 50.344075 78.917582 49.404893 76.553695 49.404893 
C 74.189809 49.404893 71.922423 50.344075 70.250903 52.015595 
C 68.579383 53.687115 67.640201 55.954501 67.640201 58.318388 
C 67.640201 60.682274 68.579383 62.94966 70.250903 64.62118 
C 71.922423 66.2927 74.189809 67.231882 76.553695 67.231882 
z
" style="fill:#00a651;stroke:#000000;stroke-linejoin:miter;stroke-width:0.837;"/>
   </g>
   <g id="patch_6">
    <path clip-path="url(#p60ec705bd3)" d="M 31.986222 67.231882 
C 34.350108 67.231882 36.617494 66.2927 38.289014 64.62118 
C 39.960535 62.94966 40.899717 60.682274 40.899717 58.318388 
C 40.899717 55.954501 39.960535 53.687115 38.289014 52.015595 
C 36.617494 50.344075 34.350108 49.404893 31.986222 49.404893 
C 29.622336 49.404893 27.35495 50.344075 25.683429 52.015595 
C 24.011909 53.687115 23.072727 55.954501 23.072727 58.318388 
C 23.072727 60.682274 24.011909 62.94966 25.683429 64.62118 
C 27.35495 66.2927 29.622336 67.231882 31.986222 67.231882 
z
" style="fill:#00a651;stroke:#000000;stroke-linejoin:miter;stroke-width:0.837;"/>
   </g>
  </g>
  <g id="axes_2">
   <g id="line2d_3">
    <path clip-path="url(#pc369970372)" d="M 49.223432 124.26785 
L 49.223432 133.977111 
" style="fill:none;stroke:#000000;stroke-linecap:square;stroke-width:0.6696;"/>
   </g>
   <g id="line2d_4">
    <path clip-path="url(#pc369970372)" d="M 65.405534 112.940378 
L 49.223432 124.26785 
" style="fill:none;stroke:#000000;stroke-linecap:square;stroke-width:0.6696;"/>
   </g>
   <g id="line2d_5">
    <path clip-path="url(#pc369970372)" d="M 65.405534 112.940378 
L 49.223432 101.612906 
" style="fill:none;stroke:#000000;stroke-linecap:square;stroke-width:0.6696;"/>
   </g>
   <g id="line2d_6">
    <path clip-path="url(#pc369970372)" d="M 81.587637 112.940378 
L 65.405534 112.940378 
" style="fill:none;stroke:#000000;stroke-linecap:square;stroke-width:0.6696;"/>
   </g>
   <g id="line2d_7">
    <path clip-path="url(#pc369970372)" d="M 81.587637 112.940378 
L 81.587637 122.64964 
" style="fill:none;stroke:#000000;stroke-linecap:square;stroke-width:0.6696;"/>
   </g>
   <g id="line2d_8">
    <path clip-path="url(#pc369970372)" d="M 97.769739 112.940378 
L 81.587637 112.940378 
" style="fill:none;stroke:#000000;stroke-linecap:square;stroke-width:0.6696;"/>
   </g>
   <g id="line2d_9">
    <path clip-path="url(#pc369970372)" d="M 97.769739 112.940378 
L 97.769739 96.758275 
" style="fill:none;stroke:#000000;stroke-linecap:square;stroke-width:0.6696;"/>
   </g>
   <g id="line2d_10">
    <path clip-path="url(#pc369970372)" d="M 97.769739 112.940378 
L 97.769739 122.64964 
" style="fill:none;stroke:#000000;stroke-linecap:square;stroke-width:0.6696;"/>
   </g>
   <g id="line2d_11">
    <path clip-path="url(#pc369970372)" d="M 97.769739 96.758275 
L 88.060478 96.758275 
" style="fill:none;stroke:#000000;stroke-linecap:square;stroke-width:0.6696;"/>
   </g>
   <g id="patch_7">
    <path clip-path="url(#pc369970372)" d="M 51.026851 129.915783 
Q 51.313199 129.977098 51.473755 130.171157 
Q 51.634944 130.364584 51.634944 130.649035 
Q 51.634944 131.085193 51.33469 131.324764 
Q 51.034437 131.563703 50.481337 131.563703 
Q 50.296128 131.563703 50.099541 131.52704 
Q 49.902954 131.490377 49.693724 131.417052 
L 49.693724 131.032095 
Q 49.859338 131.128809 50.056557 131.178113 
Q 50.254409 131.227418 50.469959 131.227418 
Q 50.844802 131.227418 51.04139 131.079504 
Q 51.237977 130.931589 51.237977 130.649035 
Q 51.237977 130.387972 51.055296 130.241321 
Q 50.872615 130.094039 50.547077 130.094039 
L 50.203207 130.094039 
L 50.203207 129.765972 
L 50.56288 129.765972 
Q 50.856813 129.765972 51.012945 129.648399 
Q 51.169077 129.530826 51.169077 129.309586 
Q 51.169077 129.082658 51.007888 128.961292 
Q 50.847331 128.839294 50.547077 128.839294 
Q 50.382728 128.839294 50.19499 128.875324 
Q 50.007252 128.910723 49.78222 128.985312 
L 49.78222 128.630064 
Q 50.009781 128.566853 50.208264 128.535247 
Q 50.406748 128.503642 50.582475 128.503642 
Q 51.036965 128.503642 51.301188 128.710343 
Q 51.566044 128.916412 51.566044 129.267867 
Q 51.566044 129.513127 51.425715 129.681901 
Q 51.285386 129.850675 51.026851 129.915783 
z
M 52.433224 131.004282 
L 52.849787 131.004282 
L 52.849787 131.344359 
L 52.526145 131.976473 
L 52.271403 131.976473 
L 52.433224 131.344359 
z
M 54.774177 128.904402 
L 53.766589 130.478996 
L 54.774177 130.478996 
z
M 54.669246 128.556739 
L 55.171145 128.556739 
L 55.171145 130.478996 
L 55.592132 130.478996 
L 55.592132 130.810856 
L 55.171145 130.810856 
L 55.171145 131.50618 
L 54.774177 131.50618 
L 54.774177 130.810856 
L 53.442947 130.810856 
L 53.442947 130.425898 
z
M 56.293067 131.004282 
L 56.709629 131.004282 
L 56.709629 131.344359 
L 56.385987 131.976473 
L 56.131246 131.976473 
L 56.293067 131.344359 
z
M 58.440593 129.872799 
Q 58.171945 129.872799 58.014549 130.056744 
Q 57.857784 130.240057 57.857784 130.559907 
Q 57.857784 130.87786 58.014549 131.063069 
Q 58.171945 131.247646 58.440593 131.247646 
Q 58.709241 131.247646 58.866005 131.063069 
Q 59.022769 130.87786 59.022769 130.559907 
Q 59.022769 130.240057 58.866005 130.056744 
Q 58.709241 129.872799 58.440593 129.872799 
z
M 59.232631 128.621847 
L 59.232631 128.985312 
Q 59.082188 128.914515 58.929217 128.877221 
Q 58.776245 128.839294 58.625802 128.839294 
Q 58.230731 128.839294 58.022134 129.106046 
Q 57.814169 129.372798 57.784459 129.91199 
Q 57.900768 129.740055 58.076496 129.648399 
Q 58.252855 129.556743 58.463981 129.556743 
Q 58.908357 129.556743 59.166259 129.826655 
Q 59.424161 130.095935 59.424161 130.559907 
Q 59.424161 131.014396 59.155513 131.289365 
Q 58.886865 131.563703 58.440593 131.563703 
Q 57.928581 131.563703 57.658037 131.171792 
Q 57.387492 130.77925 57.387492 130.03462 
Q 57.387492 129.335503 57.719352 128.919572 
Q 58.051211 128.503642 58.609999 128.503642 
Q 58.760442 128.503642 58.913414 128.533351 
Q 59.066385 128.56306 59.232631 128.621847 
z
"/>
   </g>
   <g id="patch_8">
    <path clip-path="url(#pc369970372)" d="M 53.275911 119.516886 
L 53.188679 119.0605 
Q 53.100183 118.592104 52.748096 118.592104 
Q 52.483872 118.592104 52.363139 118.809551 
Q 52.2108 119.081992 52.2108 119.441664 
Q 52.2108 119.876558 52.359346 120.083891 
Q 52.509157 120.295017 52.748096 120.295017 
Q 53.012951 120.295017 53.155177 119.87403 
z
M 53.479451 118.912585 
L 53.674774 118.333569 
L 53.999048 118.333569 
L 53.593864 119.532689 
L 53.672878 119.965054 
Q 53.690577 120.061767 53.759477 120.142678 
Q 53.84102 120.237495 53.904231 120.237495 
L 54.078062 120.237495 
L 54.078062 120.545966 
L 53.860615 120.545966 
Q 53.674774 120.545966 53.50916 120.379721 
Q 53.427618 120.296914 53.394116 120.123082 
Q 53.303724 120.342426 53.117882 120.514361 
Q 53.030651 120.595271 52.748096 120.595271 
Q 52.284125 120.595271 52.059092 120.295017 
Q 51.827739 119.98465 51.827739 119.441664 
Q 51.827739 118.860752 52.078688 118.588311 
Q 52.35745 118.284265 52.748096 118.284265 
Q 53.36251 118.284265 53.479451 118.912585 
z
"/>
   </g>
   <g id="patch_9">
    <path clip-path="url(#pc369970372)" d="M 58.3246 115.557327 
Q 58.610948 115.618642 58.771504 115.812701 
Q 58.932693 116.006128 58.932693 116.290579 
Q 58.932693 116.726737 58.632439 116.966308 
Q 58.332186 117.205247 57.779086 117.205247 
Q 57.593877 117.205247 57.39729 117.168585 
Q 57.200703 117.131922 56.991473 117.058597 
L 56.991473 116.67364 
Q 57.157087 116.770353 57.354306 116.819658 
Q 57.552158 116.868963 57.767708 116.868963 
Q 58.142551 116.868963 58.339139 116.721048 
Q 58.535726 116.573134 58.535726 116.290579 
Q 58.535726 116.029516 58.353045 115.882866 
Q 58.170364 115.735583 57.844826 115.735583 
L 57.500956 115.735583 
L 57.500956 115.407517 
L 57.860629 115.407517 
Q 58.154562 115.407517 58.310694 115.289944 
Q 58.466826 115.17237 58.466826 114.951131 
Q 58.466826 114.724202 58.305637 114.602836 
Q 58.14508 114.480838 57.844826 114.480838 
Q 57.680477 114.480838 57.492739 114.516869 
Q 57.305001 114.552267 57.079969 114.626857 
L 57.079969 114.271609 
Q 57.30753 114.208398 57.506013 114.176792 
Q 57.704497 114.145186 57.880224 114.145186 
Q 58.334714 114.145186 58.598937 114.351887 
Q 58.863793 114.557956 58.863793 114.909411 
Q 58.863793 115.154671 58.723464 115.323446 
Q 58.583135 115.49222 58.3246 115.557327 
z
"/>
   </g>
   <g id="patch_10">
    <path clip-path="url(#pc369970372)" d="M 55.587549 103.658425 
L 55.500318 103.202039 
Q 55.411822 102.733643 55.059735 102.733643 
Q 54.795511 102.733643 54.674777 102.95109 
Q 54.522438 103.223531 54.522438 103.583204 
Q 54.522438 104.018098 54.670985 104.225431 
Q 54.820796 104.436557 55.059735 104.436557 
Q 55.32459 104.436557 55.466816 104.015569 
z
M 55.79109 103.054125 
L 55.986413 102.475109 
L 56.310687 102.475109 
L 55.905502 103.674228 
L 55.984516 104.106594 
Q 56.002216 104.203307 56.071116 104.284217 
Q 56.152659 104.379034 56.21587 104.379034 
L 56.389701 104.379034 
L 56.389701 104.687506 
L 56.172254 104.687506 
Q 55.986413 104.687506 55.820799 104.52126 
Q 55.739256 104.438453 55.705754 104.264622 
Q 55.615362 104.483965 55.429521 104.6559 
Q 55.342289 104.736811 55.059735 104.736811 
Q 54.595763 104.736811 54.370731 104.436557 
Q 54.139377 104.126189 54.139377 103.583204 
Q 54.139377 103.002291 54.390326 102.729851 
Q 54.669088 102.425804 55.059735 102.425804 
Q 55.674149 102.425804 55.79109 103.054125 
z
"/>
   </g>
   <g id="patch_11">
    <path clip-path="url(#pc369970372)" d="M 60.106528 106.452366 
Q 59.83788 106.452366 59.680483 106.636311 
Q 59.523719 106.819624 59.523719 107.139474 
Q 59.523719 107.457427 59.680483 107.642636 
Q 59.83788 107.827213 60.106528 107.827213 
Q 60.375176 107.827213 60.53194 107.642636 
Q 60.688704 107.457427 60.688704 107.139474 
Q 60.688704 106.819624 60.53194 106.636311 
Q 60.375176 106.452366 60.106528 106.452366 
z
M 60.898566 105.201414 
L 60.898566 105.564879 
Q 60.748123 105.494082 60.595151 105.456788 
Q 60.44218 105.418861 60.291737 105.418861 
Q 59.896666 105.418861 59.688069 105.685613 
Q 59.480103 105.952365 59.450394 106.491557 
Q 59.566703 106.319623 59.74243 106.227966 
Q 59.91879 106.13631 60.129916 106.13631 
Q 60.574292 106.13631 60.832194 106.406222 
Q 61.090096 106.675502 61.090096 107.139474 
Q 61.090096 107.593963 60.821448 107.868932 
Q 60.5528 108.14327 60.106528 108.14327 
Q 59.594516 108.14327 59.323971 107.751359 
Q 59.053427 107.358817 59.053427 106.614187 
Q 59.053427 105.91507 59.385286 105.499139 
Q 59.717146 105.083209 60.275934 105.083209 
Q 60.426377 105.083209 60.579349 105.112918 
Q 60.73232 105.142627 60.898566 105.201414 
z
"/>
   </g>
   <g id="patch_12">
    <path clip-path="url(#pc369970372)" d="M 70.842974 112.4802 
L 70.842974 113.458079 
L 70.477612 113.458079 
L 70.477612 110.418246 
Q 70.477612 109.517484 71.318955 109.517484 
Q 72.176733 109.517484 72.176733 110.277917 
Q 72.176733 110.819006 71.836656 111.016857 
Q 72.389755 111.194481 72.389755 111.721663 
Q 72.389755 112.658456 71.437792 112.658456 
Q 71.018701 112.658456 70.842974 112.4802 
z
M 70.842974 112.006115 
Q 71.062317 112.348088 71.451699 112.348088 
Q 72.020601 112.348088 72.020601 111.727985 
Q 72.020601 111.170461 71.104036 111.214076 
L 71.104036 110.878424 
Q 71.820853 110.878424 71.820853 110.246311 
Q 71.820853 109.813945 71.358778 109.813945 
Q 70.842974 109.813945 70.842974 110.430256 
z
"/>
   </g>
   <g id="patch_13">
    <path clip-path="url(#pc369970372)" d="M 76.482057 110.014957 
L 75.474468 111.589552 
L 76.482057 111.589552 
z
M 76.377126 109.667295 
L 76.879024 109.667295 
L 76.879024 111.589552 
L 77.300012 111.589552 
L 77.300012 111.921411 
L 76.879024 111.921411 
L 76.879024 112.616736 
L 76.482057 112.616736 
L 76.482057 111.921411 
L 75.150826 111.921411 
L 75.150826 111.536454 
z
"/>
   </g>
   <g id="patch_14">
    <path clip-path="url(#pc369970372)" d="M 83.391056 118.588311 
Q 83.677404 118.649626 83.837961 118.843685 
Q 83.999149 119.037112 83.999149 119.321563 
Q 83.999149 119.757721 83.698896 119.997292 
Q 83.398642 120.236231 82.845543 120.236231 
Q 82.660333 120.236231 82.463746 120.199568 
Q 82.267159 120.162906 82.057929 120.08958 
L 82.057929 119.704623 
Q 82.223543 119.801337 82.420762 119.850642 
Q 82.618614 119.899946 82.834164 119.899946 
Q 83.209008 119.899946 83.405595 119.752032 
Q 83.602182 119.604117 83.602182 119.321563 
Q 83.602182 119.0605 83.419501 118.91385 
Q 83.236821 118.766567 82.911282 118.766567 
L 82.567413 118.766567 
L 82.567413 118.4385 
L 82.927085 118.4385 
Q 83.221018 118.4385 83.37715 118.320927 
Q 83.533282 118.203354 83.533282 117.982114 
Q 83.533282 117.755186 83.372093 117.63382 
Q 83.211536 117.511822 82.911282 117.511822 
Q 82.746933 117.511822 82.559195 117.547853 
Q 82.371457 117.583251 82.146425 117.65784 
L 82.146425 117.302593 
Q 82.373986 117.239381 82.57247 117.207776 
Q 82.770953 117.17617 82.946681 117.17617 
Q 83.40117 117.17617 83.665394 117.382871 
Q 83.930249 117.58894 83.930249 117.940395 
Q 83.930249 118.185655 83.78992 118.354429 
Q 83.649591 118.523203 83.391056 118.588311 
z
M 84.79743 119.67681 
L 85.213992 119.67681 
L 85.213992 120.016887 
L 84.89035 120.649001 
L 84.635609 120.649001 
L 84.79743 120.016887 
z
M 86.944956 118.545327 
Q 86.676308 118.545327 86.518911 118.729272 
Q 86.362147 118.912585 86.362147 119.232435 
Q 86.362147 119.550388 86.518911 119.735597 
Q 86.676308 119.920174 86.944956 119.920174 
Q 87.213604 119.920174 87.370368 119.735597 
Q 87.527132 119.550388 87.527132 119.232435 
Q 87.527132 118.912585 87.370368 118.729272 
Q 87.213604 118.545327 86.944956 118.545327 
z
M 87.736994 117.294375 
L 87.736994 117.65784 
Q 87.586551 117.587044 87.433579 117.549749 
Q 87.280608 117.511822 87.130165 117.511822 
Q 86.735094 117.511822 86.526497 117.778574 
Q 86.318531 118.045326 86.288822 118.584518 
Q 86.405131 118.412584 86.580859 118.320927 
Q 86.757218 118.229271 86.968344 118.229271 
Q 87.41272 118.229271 87.670622 118.499183 
Q 87.928524 118.768463 87.928524 119.232435 
Q 87.928524 119.686924 87.659876 119.961894 
Q 87.391228 120.236231 86.944956 120.236231 
Q 86.432944 120.236231 86.162399 119.84432 
Q 85.891855 119.451778 85.891855 118.707148 
Q 85.891855 118.008031 86.223714 117.5921 
Q 86.555574 117.17617 87.114362 117.17617 
Q 87.264805 117.17617 87.417777 117.205879 
Q 87.570748 117.235589 87.736994 117.294375 
z
"/>
   </g>
   <g id="patch_15">
    <path clip-path="url(#pc369970372)" d="M 87.025076 112.4802 
L 87.025076 113.458079 
L 86.659715 113.458079 
L 86.659715 110.418246 
Q 86.659715 109.517484 87.501058 109.517484 
Q 88.358835 109.517484 88.358835 110.277917 
Q 88.358835 110.819006 88.018758 111.016857 
Q 88.571858 111.194481 88.571858 111.721663 
Q 88.571858 112.658456 87.619895 112.658456 
Q 87.200804 112.658456 87.025076 112.4802 
z
M 87.025076 112.006115 
Q 87.24442 112.348088 87.633801 112.348088 
Q 88.202703 112.348088 88.202703 111.727985 
Q 88.202703 111.170461 87.286139 111.214076 
L 87.286139 110.878424 
Q 88.002956 110.878424 88.002956 110.246311 
Q 88.002956 109.813945 87.540881 109.813945 
Q 87.025076 109.813945 87.025076 110.430256 
z
"/>
   </g>
   <g id="patch_16">
    <path clip-path="url(#pc369970372)" d="M 92.66416 110.014957 
L 91.656571 111.589552 
L 92.66416 111.589552 
z
M 92.559229 109.667295 
L 93.061127 109.667295 
L 93.061127 111.589552 
L 93.482114 111.589552 
L 93.482114 111.921411 
L 93.061127 111.921411 
L 93.061127 112.616736 
L 92.66416 112.616736 
L 92.66416 111.921411 
L 91.332929 111.921411 
L 91.332929 111.536454 
z
"/>
   </g>
   <g id="patch_17">
    <path clip-path="url(#pc369970372)" d="M 99.602868 101.415687 
L 99.515637 100.959301 
Q 99.427141 100.490905 99.075054 100.490905 
Q 98.81083 100.490905 98.690097 100.708352 
Q 98.537757 100.980793 98.537757 101.340465 
Q 98.537757 101.775359 98.686304 101.982693 
Q 98.836115 102.193818 99.075054 102.193818 
Q 99.339909 102.193818 99.482135 101.772831 
z
M 99.806409 100.811386 
L 100.001732 100.232371 
L 100.326006 100.232371 
L 99.920821 101.43149 
L 99.999836 101.863855 
Q 100.017535 101.960569 100.086435 102.041479 
Q 100.167978 102.136296 100.231189 102.136296 
L 100.40502 102.136296 
L 100.40502 102.444767 
L 100.187573 102.444767 
Q 100.001732 102.444767 99.836118 102.278522 
Q 99.754576 102.195715 99.721074 102.021884 
Q 99.630681 102.241227 99.44484 102.413162 
Q 99.357608 102.494072 99.075054 102.494072 
Q 98.611082 102.494072 98.38605 102.193818 
Q 98.154697 101.883451 98.154697 101.340465 
Q 98.154697 100.759553 98.405646 100.487112 
Q 98.684408 100.183066 99.075054 100.183066 
Q 99.689468 100.183066 99.806409 100.811386 
z
"/>
   </g>
   <g id="patch_18">
    <path clip-path="url(#pc369970372)" d="M 99.267216 106.040544 
Q 98.998568 106.040544 98.841172 106.224489 
Q 98.684408 106.407802 98.684408 106.727652 
Q 98.684408 107.045605 98.841172 107.230814 
Q 98.998568 107.415391 99.267216 107.415391 
Q 99.535864 107.415391 99.692628 107.230814 
Q 99.849393 107.045605 99.849393 106.727652 
Q 99.849393 106.407802 99.692628 106.224489 
Q 99.535864 106.040544 99.267216 106.040544 
z
M 100.059254 104.789592 
L 100.059254 105.153057 
Q 99.908811 105.082261 99.75584 105.044966 
Q 99.602868 105.007039 99.452425 105.007039 
Q 99.057354 105.007039 98.848757 105.273791 
Q 98.640792 105.540543 98.611082 106.079735 
Q 98.727391 105.907801 98.903119 105.816144 
Q 99.079478 105.724488 99.290604 105.724488 
Q 99.73498 105.724488 99.992882 105.9944 
Q 100.250785 106.26368 100.250785 106.727652 
Q 100.250785 107.182141 99.982136 107.457111 
Q 99.713488 107.731448 99.267216 107.731448 
Q 98.755204 107.731448 98.48466 107.339537 
Q 98.214115 106.946995 98.214115 106.202365 
Q 98.214115 105.503248 98.545975 105.087317 
Q 98.877834 104.671387 99.436622 104.671387 
Q 99.587065 104.671387 99.740037 104.701096 
Q 99.893008 104.730806 100.059254 104.789592 
z
"/>
   </g>
   <g id="patch_19">
    <path clip-path="url(#pc369970372)" d="M 99.573159 118.381926 
Q 99.859506 118.443241 100.020063 118.6373 
Q 100.181252 118.830727 100.181252 119.115178 
Q 100.181252 119.551336 99.880998 119.790907 
Q 99.580744 120.029846 99.027645 120.029846 
Q 98.842436 120.029846 98.645849 119.993183 
Q 98.449261 119.956521 98.240032 119.883195 
L 98.240032 119.498238 
Q 98.405646 119.594952 98.602865 119.644257 
Q 98.800716 119.693561 99.016267 119.693561 
Q 99.39111 119.693561 99.587698 119.545647 
Q 99.784285 119.397732 99.784285 119.115178 
Q 99.784285 118.854115 99.601604 118.707465 
Q 99.418923 118.560182 99.093385 118.560182 
L 98.749515 118.560182 
L 98.749515 118.232115 
L 99.109188 118.232115 
Q 99.40312 118.232115 99.559252 118.114542 
Q 99.715384 117.996969 99.715384 117.775729 
Q 99.715384 117.548801 99.554196 117.427435 
Q 99.393639 117.305437 99.093385 117.305437 
Q 98.929035 117.305437 98.741298 117.341468 
Q 98.55356 117.376866 98.328528 117.451455 
L 98.328528 117.096208 
Q 98.556089 117.032996 98.754572 117.001391 
Q 98.953056 116.969785 99.128783 116.969785 
Q 99.583273 116.969785 99.847496 117.176486 
Q 100.112352 117.382555 100.112352 117.73401 
Q 100.112352 117.97927 99.972023 118.148044 
Q 99.831693 118.316818 99.573159 118.381926 
z
"/>
   </g>
   <g id="patch_20">
    <path clip-path="url(#pc369970372)" d="M 94.394886 94.844236 
Q 94.681234 94.905551 94.84179 95.09961 
Q 95.002979 95.293037 95.002979 95.577488 
Q 95.002979 96.013646 94.702725 96.253217 
Q 94.402471 96.492156 93.849372 96.492156 
Q 93.664163 96.492156 93.467576 96.455493 
Q 93.270989 96.418831 93.061759 96.345505 
L 93.061759 95.960548 
Q 93.227373 96.057262 93.424592 96.106567 
Q 93.622444 96.155871 93.837994 96.155871 
Q 94.212837 96.155871 94.409425 96.007957 
Q 94.606012 95.860042 94.606012 95.577488 
Q 94.606012 95.316425 94.423331 95.169775 
Q 94.24065 95.022492 93.915112 95.022492 
L 93.571242 95.022492 
L 93.571242 94.694425 
L 93.930915 94.694425 
Q 94.224848 94.694425 94.38098 94.576852 
Q 94.537112 94.459279 94.537112 94.238039 
Q 94.537112 94.011111 94.375923 93.889745 
Q 94.215366 93.767747 93.915112 93.767747 
Q 93.750763 93.767747 93.563025 93.803778 
Q 93.375287 93.839176 93.150255 93.913765 
L 93.150255 93.558518 
Q 93.377816 93.495306 93.576299 93.463701 
Q 93.774783 93.432095 93.95051 93.432095 
Q 94.405 93.432095 94.669223 93.638796 
Q 94.934079 93.844865 94.934079 94.19632 
Q 94.934079 94.44158 94.79375 94.610354 
Q 94.653421 94.779128 94.394886 94.844236 
z
"/>
   </g>
   <g id="patch_21">
    <path clip-path="url(#pc369970372)" d="M 101.00616 109.703958 
L 101.00616 116.176799 
L 94.533319 116.176799 
L 94.533319 109.703958 
L 101.00616 109.703958 
z
" style="fill:#0090bc;stroke:#000000;stroke-linejoin:miter;stroke-width:0.6696;"/>
   </g>
   <g id="patch_22">
    <path clip-path="url(#pc369970372)" d="M 84.824057 109.703958 
L 84.824057 116.176799 
L 78.351216 116.176799 
L 78.351216 109.703958 
L 84.824057 109.703958 
z
" style="fill:#0090bc;stroke:#000000;stroke-linejoin:miter;stroke-width:0.6696;"/>
   </g>
   <g id="patch_23">
    <path clip-path="url(#pc369970372)" d="M 97.769739 93.683676 
L 101.612989 99.832875 
L 93.92649 99.832875 
L 97.769739 93.683676 
z
" style="fill:#ed1c24;stroke:#000000;stroke-linejoin:miter;stroke-width:0.6696;"/>
   </g>
   <g id="patch_24">
    <path clip-path="url(#pc369970372)" d="M 100.197055 120.222324 
L 95.342424 125.076955 
z
" style="fill:#ffffff;stroke:#000000;stroke-linejoin:miter;stroke-width:0.6696;"/>
   </g>
   <g id="patch_25">
    <path clip-path="url(#pc369970372)" d="M 95.342424 120.222324 
L 100.197055 125.076955 
z
" style="fill:#ffffff;stroke:#000000;stroke-linejoin:miter;stroke-width:0.6696;"/>
   </g>
   <g id="patch_26">
    <path clip-path="url(#pc369970372)" d="M 65.405534 116.176799 
C 66.263843 116.176799 67.087113 115.835789 67.694029 115.228873 
C 68.300945 114.621957 68.641955 113.798687 68.641955 112.940378 
C 68.641955 112.082069 68.300945 111.258799 67.694029 110.651883 
C 67.087113 110.044967 66.263843 109.703958 65.405534 109.703958 
C 64.547226 109.703958 63.723955 110.044967 63.117039 110.651883 
C 62.510123 111.258799 62.169114 112.082069 62.169114 112.940378 
C 62.169114 113.798687 62.510123 114.621957 63.117039 115.228873 
C 63.723955 115.835789 64.547226 116.176799 65.405534 116.176799 
z
" style="fill:#00a651;stroke:#000000;stroke-linejoin:miter;stroke-width:0.6696;"/>
   </g>
   <g id="patch_27">
    <path clip-path="url(#pc369970372)" d="M 84.014952 120.222324 
L 79.160321 125.076955 
z
" style="fill:#ffffff;stroke:#000000;stroke-linejoin:miter;stroke-width:0.6696;"/>
   </g>
   <g id="patch_28">
    <path clip-path="url(#pc369970372)" d="M 79.160321 120.222324 
L 84.014952 125.076955 
z
" style="fill:#ffffff;stroke:#000000;stroke-linejoin:miter;stroke-width:0.6696;"/>
   </g>
   <g id="patch_29">
    <path clip-path="url(#pc369970372)" d="M 90.487793 94.33096 
L 85.633163 99.185591 
z
" style="fill:#ffffff;stroke:#000000;stroke-linejoin:miter;stroke-width:0.6696;"/>
   </g>
   <g id="patch_30">
    <path clip-path="url(#pc369970372)" d="M 85.633163 94.33096 
L 90.487793 99.185591 
z
" style="fill:#ffffff;stroke:#000000;stroke-linejoin:miter;stroke-width:0.6696;"/>
   </g>
   <g id="patch_31">
    <path clip-path="url(#pc369970372)" d="M 49.223432 127.50427 
C 50.08174 127.50427 50.905011 127.163261 51.511927 126.556345 
C 52.118843 125.949429 52.459852 125.126159 52.459852 124.26785 
C 52.459852 123.409541 52.118843 122.586271 51.511927 121.979355 
C 50.905011 121.372439 50.08174 121.031429 49.223432 121.031429 
C 48.365123 121.031429 47.541853 121.372439 46.934937 121.979355 
C 46.328021 122.586271 45.987011 123.409541 45.987011 124.26785 
C 45.987011 125.126159 46.328021 125.949429 46.934937 126.556345 
C 47.541853 127.163261 48.365123 127.50427 49.223432 127.50427 
z
" style="fill:#00a651;stroke:#000000;stroke-linejoin:miter;stroke-width:0.6696;"/>
   </g>
   <g id="patch_32">
    <path clip-path="url(#pc369970372)" d="M 49.223432 104.849327 
C 50.08174 104.849327 50.905011 104.508317 51.511927 103.901401 
C 52.118843 103.294485 52.459852 102.471215 52.459852 101.612906 
C 52.459852 100.754598 52.118843 99.931327 51.511927 99.324411 
C 50.905011 98.717495 50.08174 98.376486 49.223432 98.376486 
C 48.365123 98.376486 47.541853 98.717495 46.934937 99.324411 
C 46.328021 99.931327 45.987011 100.754598 45.987011 101.612906 
C 45.987011 102.471215 46.328021 103.294485 46.934937 103.901401 
C 47.541853 104.508317 48.365123 104.849327 49.223432 104.849327 
z
" style="fill:#00a651;stroke:#000000;stroke-linejoin:miter;stroke-width:0.6696;"/>
   </g>
   <g id="patch_33">
    <path clip-path="url(#pc369970372)" d="M 51.650747 131.549796 
L 46.796116 136.404427 
z
" style="fill:#ffffff;stroke:#000000;stroke-linejoin:miter;stroke-width:0.6696;"/>
   </g>
   <g id="patch_34">
    <path clip-path="url(#pc369970372)" d="M 46.796116 131.549796 
L 51.650747 136.404427 
z
" style="fill:#ffffff;stroke:#000000;stroke-linejoin:miter;stroke-width:0.6696;"/>
   </g>
  </g>
  <g id="axes_3">
   <g id="line2d_12">
    <path clip-path="url(#p6cea307d9f)" d="M 83.426227 171.641739 
L 59.552709 188.353202 
" style="fill:none;stroke:#000000;stroke-linecap:square;stroke-width:1.116;"/>
   </g>
   <g id="line2d_13">
    <path clip-path="url(#p6cea307d9f)" d="M 83.426227 171.641739 
L 83.426227 185.96585 
" style="fill:none;stroke:#000000;stroke-linecap:square;stroke-width:1.116;"/>
   </g>
   <g id="line2d_14">
    <path clip-path="url(#p6cea307d9f)" d="M 83.426227 171.641739 
L 59.552709 154.930277 
" style="fill:none;stroke:#000000;stroke-linecap:square;stroke-width:1.116;"/>
   </g>
   <g id="patch_35">
    <path clip-path="url(#p6cea307d9f)" d="M 65.531346 181.344086 
L 65.402653 180.670778 
Q 65.272095 179.979752 64.752659 179.979752 
Q 64.36285 179.979752 64.184731 180.300552 
Q 63.959984 180.702485 63.959984 181.233111 
Q 63.959984 181.874712 64.179136 182.180592 
Q 64.400152 182.492066 64.752659 182.492066 
Q 65.143402 182.492066 65.353228 181.870982 
z
M 65.831631 180.452559 
L 66.119791 179.598335 
L 66.598194 179.598335 
L 66.000424 181.3674 
L 66.116994 182.005271 
Q 66.143105 182.147952 66.244754 182.26732 
Q 66.365055 182.407204 66.45831 182.407204 
L 66.714764 182.407204 
L 66.714764 182.862292 
L 66.393964 182.862292 
Q 66.119791 182.862292 65.875461 182.617029 
Q 65.755161 182.494864 65.705735 182.23841 
Q 65.572379 182.562008 65.298207 182.815665 
Q 65.169513 182.935032 64.752659 182.935032 
Q 64.068161 182.935032 63.73617 182.492066 
Q 63.394853 182.03418 63.394853 181.233111 
Q 63.394853 180.376089 63.765079 179.974156 
Q 64.176338 179.525595 64.752659 179.525595 
Q 65.659107 179.525595 65.831631 180.452559 
z
"/>
   </g>
   <g id="patch_36">
    <path clip-path="url(#p6cea307d9f)" d="M 72.425757 175.439121 
Q 72.02942 175.439121 71.797212 175.710495 
Q 71.565938 175.980938 71.565938 176.452812 
Q 71.565938 176.92189 71.797212 177.19513 
Q 72.02942 177.467437 72.425757 177.467437 
Q 72.822095 177.467437 73.05337 177.19513 
Q 73.284644 176.92189 73.284644 176.452812 
Q 73.284644 175.980938 73.05337 175.710495 
Q 72.822095 175.439121 72.425757 175.439121 
z
M 73.594254 173.593586 
L 73.594254 174.129807 
Q 73.372305 174.025361 73.146626 173.97034 
Q 72.920946 173.914386 72.698997 173.914386 
Q 72.116148 173.914386 71.808403 174.307926 
Q 71.501591 174.701466 71.457761 175.496939 
Q 71.629352 175.243283 71.888603 175.108062 
Q 72.148787 174.972841 72.460262 174.972841 
Q 73.115851 174.972841 73.496335 175.371044 
Q 73.87682 175.768314 73.87682 176.452812 
Q 73.87682 177.123323 73.480482 177.528986 
Q 73.084144 177.933717 72.425757 177.933717 
Q 71.670384 177.933717 71.271249 177.35553 
Q 70.872114 176.776411 70.872114 175.677856 
Q 70.872114 174.646445 71.361707 174.032821 
Q 71.851301 173.419197 72.675683 173.419197 
Q 72.897632 173.419197 73.123312 173.463027 
Q 73.348991 173.506858 73.594254 173.593586 
z
"/>
   </g>
   <g id="patch_37">
    <path clip-path="url(#p6cea307d9f)" d="M 84.810145 181.825287 
L 86.864573 181.825287 
L 86.864573 182.320476 
L 84.102332 182.320476 
L 84.102332 181.825287 
Q 84.437121 181.478375 85.015308 180.894592 
Q 85.594427 180.309878 85.742704 180.140152 
Q 86.025269 179.823082 86.137177 179.602998 
Q 86.250016 179.382914 86.250016 179.17029 
Q 86.250016 178.823378 86.006618 178.605159 
Q 85.76322 178.386008 85.372478 178.386008 
Q 85.095508 178.386008 84.787763 178.482062 
Q 84.480951 178.578115 84.131242 178.773953 
L 84.131242 178.17898 
Q 84.486547 178.036298 84.795224 177.963559 
Q 85.104833 177.890819 85.361287 177.890819 
Q 86.037393 177.890819 86.439326 178.229338 
Q 86.841259 178.566924 86.841259 179.132055 
Q 86.841259 179.400632 86.740542 179.641233 
Q 86.640759 179.8809 86.374979 180.207296 
Q 86.30224 180.292159 85.911497 180.695957 
Q 85.521687 181.099755 84.810145 181.825287 
z
M 88.161646 181.580023 
L 88.776203 181.580023 
L 88.776203 182.08174 
L 88.298732 183.0143 
L 87.922911 183.0143 
L 88.161646 182.08174 
z
M 91.615263 178.482062 
L 90.128763 180.805067 
L 91.615263 180.805067 
z
M 91.460458 177.969154 
L 92.20091 177.969154 
L 92.20091 180.805067 
L 92.821995 180.805067 
L 92.821995 181.29466 
L 92.20091 181.29466 
L 92.20091 182.320476 
L 91.615263 182.320476 
L 91.615263 181.29466 
L 89.651293 181.29466 
L 89.651293 180.726732 
z
"/>
   </g>
   <g id="patch_38">
    <path clip-path="url(#p6cea307d9f)" d="M 68.941716 157.948039 
L 68.813023 157.274731 
Q 68.682464 156.583704 68.163029 156.583704 
Q 67.773219 156.583704 67.5951 156.904505 
Q 67.370353 157.306438 67.370353 157.837064 
Q 67.370353 158.478665 67.589505 158.784544 
Q 67.810521 159.096019 68.163029 159.096019 
Q 68.553771 159.096019 68.763597 158.474935 
z
M 69.242 157.056512 
L 69.530161 156.202288 
L 70.008564 156.202288 
L 69.410793 157.971353 
L 69.527363 158.609223 
Q 69.553475 158.751905 69.655124 158.871272 
Q 69.775424 159.011156 69.86868 159.011156 
L 70.125134 159.011156 
L 70.125134 159.466245 
L 69.804333 159.466245 
Q 69.530161 159.466245 69.28583 159.220982 
Q 69.16553 159.098817 69.116104 158.842363 
Q 68.982748 159.165961 68.708576 159.419617 
Q 68.579883 159.538985 68.163029 159.538985 
Q 67.47853 159.538985 67.146539 159.096019 
Q 66.805222 158.638132 66.805222 157.837064 
Q 66.805222 156.980042 67.175449 156.578109 
Q 67.586707 156.129548 68.163029 156.129548 
Q 69.069476 156.129548 69.242 157.056512 
z
"/>
   </g>
   <g id="patch_39">
    <path clip-path="url(#p6cea307d9f)" d="M 76.059941 162.133365 
Q 76.48239 162.223823 76.71926 162.510119 
Q 76.957063 162.795482 76.957063 163.215133 
Q 76.957063 163.858599 76.514097 164.212039 
Q 76.071132 164.564547 75.255142 164.564547 
Q 74.981902 164.564547 74.691876 164.510458 
Q 74.40185 164.45637 74.093173 164.348193 
L 74.093173 163.780264 
Q 74.337504 163.922946 74.628462 163.995686 
Q 74.920353 164.068425 75.238356 164.068425 
Q 75.791364 164.068425 76.08139 163.850206 
Q 76.371416 163.631987 76.371416 163.215133 
Q 76.371416 162.829986 76.101906 162.613633 
Q 75.832396 162.396346 75.352128 162.396346 
L 74.844816 162.396346 
L 74.844816 161.912348 
L 75.375442 161.912348 
Q 75.809082 161.912348 76.039425 161.738892 
Q 76.269767 161.565436 76.269767 161.23904 
Q 76.269767 160.904251 76.031964 160.7252 
Q 75.795094 160.545216 75.352128 160.545216 
Q 75.109663 160.545216 74.832693 160.598372 
Q 74.555723 160.650595 74.223732 160.760637 
L 74.223732 160.236539 
Q 74.559453 160.143283 74.852277 160.096655 
Q 75.1451 160.050027 75.404352 160.050027 
Q 76.074862 160.050027 76.464672 160.354974 
Q 76.855414 160.658988 76.855414 161.177491 
Q 76.855414 161.539324 76.648386 161.788318 
Q 76.441358 162.037311 76.059941 162.133365 
z
"/>
   </g>
   <g id="patch_40">
    <path clip-path="url(#p6cea307d9f)" d="M 83.426227 176.416443 
C 84.692493 176.416443 85.907067 175.91335 86.802452 175.017964 
C 87.697837 174.122579 88.20093 172.908005 88.20093 171.641739 
C 88.20093 170.375473 87.697837 169.160899 86.802452 168.265514 
C 85.907067 167.370128 84.692493 166.867036 83.426227 166.867036 
C 82.159961 166.867036 80.945387 167.370128 80.050001 168.265514 
C 79.154616 169.160899 78.651523 170.375473 78.651523 171.641739 
C 78.651523 172.908005 79.154616 174.122579 80.050001 175.017964 
C 80.945387 175.91335 82.159961 176.416443 83.426227 176.416443 
z
" style="fill:#00a651;stroke:#000000;stroke-linejoin:miter;stroke-width:1.116;"/>
   </g>
   <g id="patch_41">
    <path clip-path="url(#p6cea307d9f)" d="M 59.552709 193.127905 
C 60.818975 193.127905 62.033549 192.624812 62.928934 191.729427 
C 63.82432 190.834041 64.327412 189.619468 64.327412 188.353202 
C 64.327412 187.086935 63.82432 185.872362 62.928934 184.976976 
C 62.033549 184.081591 60.818975 183.578498 59.552709 183.578498 
C 58.286443 183.578498 57.071869 184.081591 56.176484 184.976976 
C 55.281098 185.872362 54.778005 187.086935 54.778005 188.353202 
C 54.778005 189.619468 55.281098 190.834041 56.176484 191.729427 
C 57.071869 192.624812 58.286443 193.127905 59.552709 193.127905 
z
" style="fill:#00a651;stroke:#000000;stroke-linejoin:miter;stroke-width:1.116;"/>
   </g>
   <g id="patch_42">
    <path clip-path="url(#p6cea307d9f)" d="M 87.007254 182.384822 
L 79.845199 189.546877 
z
" style="fill:#ffffff;stroke:#000000;stroke-linejoin:miter;stroke-width:1.116;"/>
   </g>
   <g id="patch_43">
    <path clip-path="url(#p6cea307d9f)" d="M 79.845199 182.384822 
L 87.007254 189.546877 
z
" style="fill:#ffffff;stroke:#000000;stroke-linejoin:miter;stroke-width:1.116;"/>
   </g>
   <g id="patch_44">
    <path clip-path="url(#p6cea307d9f)" d="M 59.552709 159.70498 
C 60.818975 159.70498 62.033549 159.201887 62.928934 158.306502 
C 63.82432 157.411117 64.327412 156.196543 64.327412 154.930277 
C 64.327412 153.66401 63.82432 152.449437 62.928934 151.554051 
C 62.033549 150.658666 60.818975 150.155573 59.552709 150.155573 
C 58.286443 150.155573 57.071869 150.658666 56.176484 151.554051 
C 55.281098 152.449437 54.778005 153.66401 54.778005 154.930277 
C 54.778005 156.196543 55.281098 157.411117 56.176484 158.306502 
C 57.071869 159.201887 58.286443 159.70498 59.552709 159.70498 
z
" style="fill:#00a651;stroke:#000000;stroke-linejoin:miter;stroke-width:1.116;"/>
   </g>
  </g>
  <g id="axes_4">
   <g id="line2d_15">
    <path clip-path="url(#p67a9b06f16)" d="M 110.033766 228.566202 
L 37.566234 228.566202 
" style="fill:none;stroke:#000000;stroke-linecap:square;stroke-width:1.116;"/>
   </g>
   <g id="patch_45">
    <path clip-path="url(#p67a9b06f16)" d="M 66.066356 222.508369 
L 65.67571 220.464558 
Q 65.279403 218.366963 63.702668 218.366963 
Q 62.519409 218.366963 61.978734 219.340745 
Q 61.29652 220.560804 61.29652 222.171508 
Q 61.29652 224.119073 61.961749 225.047563 
Q 62.63264 225.993038 63.702668 225.993038 
Q 64.888758 225.993038 65.52568 224.10775 
z
M 66.977861 219.802159 
L 67.852567 217.20918 
L 69.304748 217.20918 
L 67.490229 222.579138 
L 67.844075 224.51538 
Q 67.923336 224.948486 68.231889 225.310824 
Q 68.597058 225.735439 68.880134 225.735439 
L 69.658594 225.735439 
L 69.658594 227.116851 
L 68.684811 227.116851 
Q 67.852567 227.116851 67.110907 226.37236 
Q 66.745739 226.00153 66.595708 225.22307 
Q 66.190909 226.205345 65.358665 226.975313 
Q 64.968019 227.33765 63.702668 227.33765 
Q 61.624888 227.33765 60.617137 225.993038 
Q 59.581078 224.603133 59.581078 222.171508 
Q 59.581078 219.570037 60.70489 218.349978 
Q 61.953257 216.988381 63.702668 216.988381 
Q 66.45417 216.988381 66.977861 219.802159 
z
"/>
   </g>
   <g id="patch_46">
    <path clip-path="url(#p67a9b06f16)" d="M 87.673569 219.994651 
Q 88.955905 220.269235 89.674919 221.138279 
Q 90.396763 222.004493 90.396763 223.278336 
Q 90.396763 225.231563 89.052151 226.304422 
Q 87.707539 227.37445 85.230621 227.37445 
Q 84.401207 227.37445 83.52084 227.210266 
Q 82.640473 227.046082 81.70349 226.717713 
L 81.70349 224.993779 
Q 82.44515 225.426885 83.328348 225.647685 
Q 84.214377 225.868484 85.179667 225.868484 
Q 86.85831 225.868484 87.738677 225.206086 
Q 88.619044 224.543687 88.619044 223.278336 
Q 88.619044 222.109231 87.800954 221.452494 
Q 86.982863 220.792926 85.52502 220.792926 
L 83.985085 220.792926 
L 83.985085 219.32376 
L 85.595789 219.32376 
Q 86.912094 219.32376 87.611293 218.797238 
Q 88.310491 218.270717 88.310491 217.27995 
Q 88.310491 216.263706 87.588647 215.720199 
Q 86.869633 215.173862 85.52502 215.173862 
Q 84.789022 215.173862 83.948285 215.335215 
Q 83.107549 215.493738 82.099797 215.827768 
L 82.099797 214.236879 
Q 83.118872 213.953803 84.007731 213.812265 
Q 84.896591 213.670727 85.683543 213.670727 
Q 87.718862 213.670727 88.902121 214.596386 
Q 90.08821 215.519215 90.08821 217.093119 
Q 90.08821 218.191455 89.459781 218.947269 
Q 88.831351 219.703083 87.673569 219.994651 
z
"/>
   </g>
   <g id="patch_47">
    <path clip-path="url(#p67a9b06f16)" d="M 110.033766 243.059708 
C 113.877489 243.059708 117.5643 241.532581 120.282223 238.814658 
C 123.000145 236.096736 124.527273 232.409924 124.527273 228.566202 
C 124.527273 224.722479 123.000145 221.035667 120.282223 218.317745 
C 117.5643 215.599822 113.877489 214.072695 110.033766 214.072695 
C 106.190043 214.072695 102.503232 215.599822 99.78531 218.317745 
C 97.067387 221.035667 95.54026 224.722479 95.54026 228.566202 
C 95.54026 232.409924 97.067387 236.096736 99.78531 238.814658 
C 102.503232 241.532581 106.190043 243.059708 110.033766 243.059708 
z
" style="fill:#00a651;stroke:#000000;stroke-linejoin:miter;stroke-width:1.116;"/>
   </g>
   <g id="patch_48">
    <path clip-path="url(#p67a9b06f16)" d="M 37.566234 243.059708 
C 41.409957 243.059708 45.096768 241.532581 47.81469 238.814658 
C 50.532613 236.096736 52.05974 232.409924 52.05974 228.566202 
C 52.05974 224.722479 50.532613 221.035667 47.81469 218.317745 
C 45.096768 215.599822 41.409957 214.072695 37.566234 214.072695 
C 33.722511 214.072695 30.0357 215.599822 27.317777 218.317745 
C 24.599855 221.035667 23.072727 224.722479 23.072727 228.566202 
C 23.072727 232.409924 24.599855 236.096736 27.317777 238.814658 
C 30.0357 241.532581 33.722511 243.059708 37.566234 243.059708 
z
" style="fill:#00a651;stroke:#000000;stroke-linejoin:miter;stroke-width:1.116;"/>
   </g>
  </g>
 </g>
 <defs>
  <clipPath id="p60ec705bd3">
   <rect height="19.88162" width="111.6" x="18" y="48.253973"/>
  </clipPath>
  <clipPath id="pc369970372">
   <rect height="47.269565" width="61.188575" x="43.205712" y="91.283478"/>
  </clipPath>
  <clipPath id="p6cea307d9f">
   <rect height="47.269565" width="41.848388" x="52.875806" y="148.006957"/>
  </clipPath>
  <clipPath id="p67a9b06f16">
   <rect height="32.327879" width="111.6" x="18" y="212.201278"/>
  </clipPath>
 </defs>
</svg>
