<?xml version="1.0" encoding="utf-8" standalone="no"?>
<!DOCTYPE svg PUBLIC "-//W3C//DTD SVG 1.1//EN"
  "http://www.w3.org/Graphics/SVG/1.1/DTD/svg11.dtd">
<!-- Created with matplotlib (http://matplotlib.org/) -->
<svg height="576pt" version="1.1" viewBox="0 0 144 576" width="144pt" xmlns="http://www.w3.org/2000/svg" xmlns:xlink="http://www.w3.org/1999/xlink">
 <defs>
  <style type="text/css">
*{stroke-linecap:butt;stroke-linejoin:round;}
  </style>
 </defs>
 <g id="figure_1">
  <g id="patch_1">
   <path d="M 0 576 
L 144 576 
L 144 0 
L 0 0 
z
" style="fill:#ffffff;"/>
  </g>
  <g id="axes_1">
   <g id="line2d_1">
    <path clip-path="url(#pe32e3cb27e)" d="M 76.553695 92.5087 
L 31.986222 92.5087 
" style="fill:none;stroke:#000000;stroke-linecap:square;stroke-width:0.837;"/>
   </g>
   <g id="line2d_2">
    <path clip-path="url(#pe32e3cb27e)" d="M 121.121169 92.5087 
L 76.553695 92.5087 
" style="fill:none;stroke:#000000;stroke-linecap:square;stroke-width:0.837;"/>
   </g>
   <g id="patch_2">
    <path clip-path="url(#pe32e3cb27e)" d="M 46.961589 91.241313 
L 46.961589 93.934511 
L 45.955339 93.934511 
L 45.955339 85.562442 
Q 45.955339 83.081635 48.2725 83.081635 
Q 50.634924 83.081635 50.634924 85.175958 
Q 50.634924 86.666183 49.698311 87.21109 
Q 51.221613 87.700288 51.221613 89.152212 
Q 51.221613 91.732251 48.599792 91.732251 
Q 47.445564 91.732251 46.961589 91.241313 
z
M 46.961589 89.935625 
Q 47.565688 90.877461 48.638092 90.877461 
Q 50.204918 90.877461 50.204918 89.169621 
Q 50.204918 87.634133 47.680588 87.754256 
L 47.680588 86.829829 
Q 49.654788 86.829829 49.654788 85.088912 
Q 49.654788 83.898125 48.382178 83.898125 
Q 46.961589 83.898125 46.961589 85.595519 
z
"/>
   </g>
   <g id="patch_3">
    <path clip-path="url(#pe32e3cb27e)" d="M 62.802193 87.237204 
Q 63.590828 87.406073 64.033021 87.940534 
Q 64.476955 88.473255 64.476955 89.256667 
Q 64.476955 90.4579 63.650019 91.117708 
Q 62.823084 91.775774 61.299781 91.775774 
Q 60.789693 91.775774 60.248267 91.674801 
Q 59.706842 91.573828 59.130599 91.371881 
L 59.130599 90.311663 
Q 59.586719 90.578023 60.129885 90.713815 
Q 60.674792 90.849606 61.268445 90.849606 
Q 62.300808 90.849606 62.842234 90.442232 
Q 63.383659 90.034857 63.383659 89.256667 
Q 63.383659 88.537669 62.880534 88.133776 
Q 62.377409 87.728142 61.480837 87.728142 
L 60.533778 87.728142 
L 60.533778 86.824606 
L 61.524359 86.824606 
Q 62.333886 86.824606 62.763892 86.500796 
Q 63.193899 86.176985 63.193899 85.567664 
Q 63.193899 84.942675 62.749965 84.608419 
Q 62.307772 84.272422 61.480837 84.272422 
Q 61.028198 84.272422 60.511146 84.371654 
Q 59.994094 84.469146 59.374327 84.674574 
L 59.374327 83.696179 
Q 60.001057 83.522087 60.547705 83.435041 
Q 61.094353 83.347995 61.578328 83.347995 
Q 62.830047 83.347995 63.55775 83.917275 
Q 64.287195 84.484814 64.287195 85.452764 
Q 64.287195 86.12824 63.900711 86.593064 
Q 63.514228 87.057889 62.802193 87.237204 
z
"/>
   </g>
   <g id="patch_4">
    <path clip-path="url(#pe32e3cb27e)" d="M 122.318049 92.856884 
L 122.077803 91.599942 
Q 121.834074 90.309922 120.864384 90.309922 
Q 120.13668 90.309922 119.804165 90.908797 
Q 119.384604 91.659133 119.384604 92.649714 
Q 119.384604 93.847465 119.79372 94.418486 
Q 120.206317 94.999952 120.864384 94.999952 
Q 121.593828 94.999952 121.985534 93.840502 
z
M 122.878624 91.192567 
L 123.416568 89.597887 
L 124.309658 89.597887 
L 123.19373 92.900406 
L 123.411345 94.091194 
Q 123.460091 94.357554 123.649851 94.580391 
Q 123.874429 94.841529 124.048521 94.841529 
L 124.527273 94.841529 
L 124.527273 95.691096 
L 123.928397 95.691096 
Q 123.416568 95.691096 122.960447 95.233235 
Q 122.735869 95.005175 122.643601 94.526423 
Q 122.394649 95.130521 121.88282 95.60405 
Q 121.642573 95.826888 120.864384 95.826888 
Q 119.58655 95.826888 118.966784 94.999952 
Q 118.329608 94.145162 118.329608 92.649714 
Q 118.329608 91.049812 119.020752 90.299477 
Q 119.788497 89.462096 120.864384 89.462096 
Q 122.556555 89.462096 122.878624 91.192567 
z
"/>
   </g>
   <g id="patch_5">
    <path clip-path="url(#pe32e3cb27e)" d="M 85.46719 83.595205 
L 85.46719 101.422195 
L 67.640201 101.422195 
L 67.640201 83.595205 
L 85.46719 83.595205 
z
" style="fill:#ffd400;stroke:#000000;stroke-linejoin:miter;stroke-width:0.837;"/>
   </g>
   <g id="patch_6">
    <path clip-path="url(#pe32e3cb27e)" d="M 31.986222 101.422195 
C 34.350108 101.422195 36.617494 100.483013 38.289014 98.811493 
C 39.960535 97.139973 40.899717 94.872587 40.899717 92.5087 
C 40.899717 90.144814 39.960535 87.877428 38.289014 86.205908 
C 36.617494 84.534387 34.350108 83.595205 31.986222 83.595205 
C 29.622336 83.595205 27.35495 84.534387 25.683429 86.205908 
C 24.011909 87.877428 23.072727 90.144814 23.072727 92.5087 
C 23.072727 94.872587 24.011909 97.139973 25.683429 98.811493 
C 27.35495 100.483013 29.622336 101.422195 31.986222 101.422195 
z
" style="fill:#ffd400;stroke:#000000;stroke-linejoin:miter;stroke-width:0.837;"/>
   </g>
  </g>
  <g id="axes_2">
   <g id="line2d_3">
    <path clip-path="url(#p3f75c5d62f)" d="M 64.851484 155.37475 
L 64.851484 166.112969 
" style="fill:none;stroke:#000000;stroke-linecap:square;stroke-width:0.478286;"/>
   </g>
   <g id="line2d_4">
    <path clip-path="url(#p3f75c5d62f)" d="M 64.851484 155.37475 
L 46.954451 155.37475 
" style="fill:none;stroke:#000000;stroke-linecap:square;stroke-width:0.478286;"/>
   </g>
   <g id="line2d_5">
    <path clip-path="url(#p3f75c5d62f)" d="M 46.954451 155.37475 
L 29.057418 155.37475 
" style="fill:none;stroke:#000000;stroke-linecap:square;stroke-width:0.478286;"/>
   </g>
   <g id="line2d_6">
    <path clip-path="url(#p3f75c5d62f)" d="M 46.954451 155.37475 
L 46.954451 166.112969 
" style="fill:none;stroke:#000000;stroke-linecap:square;stroke-width:0.478286;"/>
   </g>
   <g id="line2d_7">
    <path clip-path="url(#p3f75c5d62f)" d="M 29.057418 155.37475 
L 29.057418 166.112969 
" style="fill:none;stroke:#000000;stroke-linecap:square;stroke-width:0.478286;"/>
   </g>
   <g id="line2d_8">
    <path clip-path="url(#p3f75c5d62f)" d="M 82.748516 142.846827 
L 64.851484 155.37475 
" style="fill:none;stroke:#000000;stroke-linecap:square;stroke-width:0.478286;"/>
   </g>
   <g id="line2d_9">
    <path clip-path="url(#p3f75c5d62f)" d="M 82.748516 142.846827 
L 64.851484 130.318904 
" style="fill:none;stroke:#000000;stroke-linecap:square;stroke-width:0.478286;"/>
   </g>
   <g id="line2d_10">
    <path clip-path="url(#p3f75c5d62f)" d="M 82.748516 142.846827 
L 82.748516 153.585046 
" style="fill:none;stroke:#000000;stroke-linecap:square;stroke-width:0.478286;"/>
   </g>
   <g id="line2d_11">
    <path clip-path="url(#p3f75c5d62f)" d="M 100.645549 142.846827 
L 82.748516 142.846827 
" style="fill:none;stroke:#000000;stroke-linecap:square;stroke-width:0.478286;"/>
   </g>
   <g id="line2d_12">
    <path clip-path="url(#p3f75c5d62f)" d="M 100.645549 142.846827 
L 100.645549 153.585046 
" style="fill:none;stroke:#000000;stroke-linecap:square;stroke-width:0.478286;"/>
   </g>
   <g id="line2d_13">
    <path clip-path="url(#p3f75c5d62f)" d="M 118.542582 142.846827 
L 100.645549 142.846827 
" style="fill:none;stroke:#000000;stroke-linecap:square;stroke-width:0.478286;"/>
   </g>
   <g id="patch_7">
    <path clip-path="url(#p3f75c5d62f)" d="M 66.846024 161.621233 
Q 67.162718 161.689046 67.34029 161.903671 
Q 67.518561 162.117597 67.518561 162.432193 
Q 67.518561 162.914574 67.186487 163.179534 
Q 66.854413 163.443795 66.242698 163.443795 
Q 66.037861 163.443795 65.82044 163.403247 
Q 65.603019 163.362699 65.371616 163.281603 
L 65.371616 162.855849 
Q 65.554781 162.962812 65.772901 163.017342 
Q 65.99172 163.071872 66.230114 163.071872 
Q 66.644682 163.071872 66.862103 162.908282 
Q 67.079524 162.744692 67.079524 162.432193 
Q 67.079524 162.143463 66.877484 161.981271 
Q 66.675443 161.81838 66.315405 161.81838 
L 65.935093 161.81838 
L 65.935093 161.455546 
L 66.332883 161.455546 
Q 66.657965 161.455546 66.830644 161.325513 
Q 67.003322 161.19548 67.003322 160.950794 
Q 67.003322 160.699816 66.825051 160.565588 
Q 66.647479 160.430661 66.315405 160.430661 
Q 66.133638 160.430661 65.926005 160.47051 
Q 65.718371 160.50966 65.469491 160.592154 
L 65.469491 160.199258 
Q 65.721168 160.129348 65.940686 160.094393 
Q 66.160204 160.059438 66.354555 160.059438 
Q 66.85721 160.059438 67.149435 160.288044 
Q 67.442359 160.515952 67.442359 160.904653 
Q 67.442359 161.175905 67.287158 161.362565 
Q 67.131957 161.549226 66.846024 161.621233 
z
M 68.40144 162.825089 
L 68.862149 162.825089 
L 68.862149 163.201206 
L 68.504209 163.900309 
L 68.22247 163.900309 
L 68.40144 163.201206 
z
M 70.99048 160.502669 
L 69.876111 162.244134 
L 70.99048 162.244134 
z
M 70.874429 160.118162 
L 71.429517 160.118162 
L 71.429517 162.244134 
L 71.89512 162.244134 
L 71.89512 162.611163 
L 71.429517 162.611163 
L 71.429517 163.380176 
L 70.99048 163.380176 
L 70.99048 162.611163 
L 69.51817 162.611163 
L 69.51817 162.185409 
z
M 72.670337 162.825089 
L 73.131046 162.825089 
L 73.131046 163.201206 
L 72.773105 163.900309 
L 72.491367 163.900309 
L 72.670337 163.201206 
z
M 75.045452 161.573694 
Q 74.748333 161.573694 74.574256 161.777133 
Q 74.400879 161.979873 74.400879 162.333619 
Q 74.400879 162.685268 74.574256 162.890105 
Q 74.748333 163.094243 75.045452 163.094243 
Q 75.34257 163.094243 75.515948 162.890105 
Q 75.689325 162.685268 75.689325 162.333619 
Q 75.689325 161.979873 75.515948 161.777133 
Q 75.34257 161.573694 75.045452 161.573694 
z
M 75.921428 160.19017 
L 75.921428 160.592154 
Q 75.755041 160.513855 75.585858 160.472608 
Q 75.416675 160.430661 75.250289 160.430661 
Q 74.81335 160.430661 74.582646 160.725683 
Q 74.352641 161.020704 74.319783 161.617039 
Q 74.448418 161.426883 74.642768 161.325513 
Q 74.837818 161.224143 75.071319 161.224143 
Q 75.562788 161.224143 75.848022 161.52266 
Q 76.133256 161.820478 76.133256 162.333619 
Q 76.133256 162.836274 75.836137 163.140384 
Q 75.539018 163.443795 75.045452 163.443795 
Q 74.479178 163.443795 74.179962 163.010351 
Q 73.880746 162.576208 73.880746 161.752665 
Q 73.880746 160.979457 74.247775 160.519447 
Q 74.614804 160.059438 75.232811 160.059438 
Q 75.399198 160.059438 75.568381 160.092296 
Q 75.737564 160.125153 75.921428 160.19017 
z
"/>
   </g>
   <g id="patch_8">
    <path clip-path="url(#p3f75c5d62f)" d="M 52.968133 154.865803 
L 52.968133 155.947315 
L 52.564052 155.947315 
L 52.564052 152.585329 
Q 52.564052 151.589108 53.494558 151.589108 
Q 54.44324 151.589108 54.44324 152.430128 
Q 54.44324 153.02856 54.067123 153.24738 
Q 54.678838 153.443828 54.678838 154.026879 
Q 54.678838 155.06295 53.625989 155.06295 
Q 53.162484 155.06295 52.968133 154.865803 
z
M 52.968133 154.341476 
Q 53.210722 154.71969 53.64137 154.71969 
Q 54.270562 154.71969 54.270562 154.03387 
Q 54.270562 153.417262 53.256863 153.4655 
L 53.256863 153.094276 
Q 54.049646 153.094276 54.049646 152.395173 
Q 54.049646 151.916987 53.538601 151.916987 
Q 52.968133 151.916987 52.968133 152.598612 
z
"/>
   </g>
   <g id="patch_9">
    <path clip-path="url(#p3f75c5d62f)" d="M 58.372198 154.645585 
L 59.912322 154.645585 
L 59.912322 155.016809 
L 57.841579 155.016809 
L 57.841579 154.645585 
Q 58.092557 154.385519 58.526001 153.947881 
Q 58.960144 153.509543 59.071301 153.382306 
Q 59.283129 153.144612 59.367022 152.979623 
Q 59.451613 152.814635 59.451613 152.65524 
Q 59.451613 152.395173 59.269147 152.231583 
Q 59.086682 152.067294 58.793757 152.067294 
Q 58.586124 152.067294 58.35542 152.139302 
Q 58.125415 152.211309 57.863252 152.358121 
L 57.863252 151.912093 
Q 58.12961 151.80513 58.361013 151.7506 
Q 58.593115 151.69607 58.785368 151.69607 
Q 59.292218 151.69607 59.593531 151.949845 
Q 59.894844 152.20292 59.894844 152.626576 
Q 59.894844 152.827918 59.819341 153.008286 
Q 59.744537 153.187956 59.545293 153.432642 
Q 59.490763 153.49626 59.197839 153.798972 
Q 58.905614 154.101683 58.372198 154.645585 
z
"/>
   </g>
   <g id="patch_10">
    <path clip-path="url(#p3f75c5d62f)" d="M 35.071101 154.865803 
L 35.071101 155.947315 
L 34.667019 155.947315 
L 34.667019 152.585329 
Q 34.667019 151.589108 35.597525 151.589108 
Q 36.546208 151.589108 36.546208 152.430128 
Q 36.546208 153.02856 36.17009 153.24738 
Q 36.781805 153.443828 36.781805 154.026879 
Q 36.781805 155.06295 35.728956 155.06295 
Q 35.265451 155.06295 35.071101 154.865803 
z
M 35.071101 154.341476 
Q 35.313689 154.71969 35.744337 154.71969 
Q 36.373529 154.71969 36.373529 154.03387 
Q 36.373529 153.417262 35.35983 153.4655 
L 35.35983 153.094276 
Q 36.152613 153.094276 36.152613 152.395173 
Q 36.152613 151.916987 35.641569 151.916987 
Q 35.071101 151.916987 35.071101 152.598612 
z
"/>
   </g>
   <g id="patch_11">
    <path clip-path="url(#p3f75c5d62f)" d="M 41.307797 152.139302 
L 40.193427 153.880767 
L 41.307797 153.880767 
z
M 41.191746 151.754795 
L 41.746834 151.754795 
L 41.746834 153.880767 
L 42.212436 153.880767 
L 42.212436 154.247796 
L 41.746834 154.247796 
L 41.746834 155.016809 
L 41.307797 155.016809 
L 41.307797 154.247796 
L 39.835487 154.247796 
L 39.835487 153.822042 
z
"/>
   </g>
   <g id="patch_12">
    <path clip-path="url(#p3f75c5d62f)" d="M 48.948991 161.621233 
Q 49.265685 161.689046 49.443257 161.903671 
Q 49.621528 162.117597 49.621528 162.432193 
Q 49.621528 162.914574 49.289454 163.179534 
Q 48.95738 163.443795 48.345665 163.443795 
Q 48.140828 163.443795 47.923407 163.403247 
Q 47.705986 163.362699 47.474583 163.281603 
L 47.474583 162.855849 
Q 47.657748 162.962812 47.875868 163.017342 
Q 48.094688 163.071872 48.333082 163.071872 
Q 48.74765 163.071872 48.965071 162.908282 
Q 49.182492 162.744692 49.182492 162.432193 
Q 49.182492 162.143463 48.980451 161.981271 
Q 48.77841 161.81838 48.418372 161.81838 
L 48.03806 161.81838 
L 48.03806 161.455546 
L 48.43585 161.455546 
Q 48.760933 161.455546 48.933611 161.325513 
Q 49.106289 161.19548 49.106289 160.950794 
Q 49.106289 160.699816 48.928018 160.565588 
Q 48.750446 160.430661 48.418372 160.430661 
Q 48.236605 160.430661 48.028972 160.47051 
Q 47.821338 160.50966 47.572458 160.592154 
L 47.572458 160.199258 
Q 47.824135 160.129348 48.043653 160.094393 
Q 48.263171 160.059438 48.457522 160.059438 
Q 48.960177 160.059438 49.252402 160.288044 
Q 49.545326 160.515952 49.545326 160.904653 
Q 49.545326 161.175905 49.390125 161.362565 
Q 49.234924 161.549226 48.948991 161.621233 
z
M 50.504408 162.825089 
L 50.965116 162.825089 
L 50.965116 163.201206 
L 50.607176 163.900309 
L 50.325437 163.900309 
L 50.504408 163.201206 
z
M 52.879522 161.573694 
Q 52.582403 161.573694 52.408327 161.777133 
Q 52.234949 161.979873 52.234949 162.333619 
Q 52.234949 162.685268 52.408327 162.890105 
Q 52.582403 163.094243 52.879522 163.094243 
Q 53.176641 163.094243 53.350018 162.890105 
Q 53.523396 162.685268 53.523396 162.333619 
Q 53.523396 161.979873 53.350018 161.777133 
Q 53.176641 161.573694 52.879522 161.573694 
z
M 53.755498 160.19017 
L 53.755498 160.592154 
Q 53.589112 160.513855 53.419929 160.472608 
Q 53.250746 160.430661 53.084359 160.430661 
Q 52.64742 160.430661 52.416716 160.725683 
Q 52.186711 161.020704 52.153853 161.617039 
Q 52.282488 161.426883 52.476839 161.325513 
Q 52.671889 161.224143 52.905389 161.224143 
Q 53.396858 161.224143 53.682092 161.52266 
Q 53.967326 161.820478 53.967326 162.333619 
Q 53.967326 162.836274 53.670207 163.140384 
Q 53.373089 163.443795 52.879522 163.443795 
Q 52.313249 163.443795 52.014033 163.010351 
Q 51.714817 162.576208 51.714817 161.752665 
Q 51.714817 160.979457 52.081846 160.519447 
Q 52.448875 160.059438 53.066882 160.059438 
Q 53.233268 160.059438 53.402451 160.092296 
Q 53.571634 160.125153 53.755498 160.19017 
z
"/>
   </g>
   <g id="patch_13">
    <path clip-path="url(#p3f75c5d62f)" d="M 30.094887 163.008953 
L 31.63501 163.008953 
L 31.63501 163.380176 
L 29.564268 163.380176 
L 29.564268 163.008953 
Q 29.815245 162.748886 30.248689 162.311248 
Q 30.682832 161.872911 30.793989 161.745674 
Q 31.005818 161.507979 31.08971 161.342991 
Q 31.174301 161.178002 31.174301 161.018607 
Q 31.174301 160.758541 30.991836 160.594951 
Q 30.80937 160.430661 30.516446 160.430661 
Q 30.308812 160.430661 30.078108 160.502669 
Q 29.848103 160.574677 29.58594 160.721488 
L 29.58594 160.275461 
Q 29.852298 160.168498 30.083701 160.113968 
Q 30.315803 160.059438 30.508056 160.059438 
Q 31.014906 160.059438 31.316219 160.313212 
Q 31.617533 160.566287 31.617533 160.989944 
Q 31.617533 161.191285 31.54203 161.371654 
Q 31.467226 161.551323 31.267981 161.796009 
Q 31.213451 161.859628 30.920527 162.162339 
Q 30.628302 162.465051 30.094887 163.008953 
z
M 32.607375 162.825089 
L 33.068084 162.825089 
L 33.068084 163.201206 
L 32.710143 163.900309 
L 32.428405 163.900309 
L 32.607375 163.201206 
z
M 35.196415 160.502669 
L 34.082045 162.244134 
L 35.196415 162.244134 
z
M 35.080364 160.118162 
L 35.635451 160.118162 
L 35.635451 162.244134 
L 36.101054 162.244134 
L 36.101054 162.611163 
L 35.635451 162.611163 
L 35.635451 163.380176 
L 35.196415 163.380176 
L 35.196415 162.611163 
L 33.724104 162.611163 
L 33.724104 162.185409 
z
M 36.876272 162.825089 
L 37.33698 162.825089 
L 37.33698 163.201206 
L 36.97904 163.900309 
L 36.697301 163.900309 
L 36.876272 163.201206 
z
M 39.251386 161.573694 
Q 38.954267 161.573694 38.780191 161.777133 
Q 38.606813 161.979873 38.606813 162.333619 
Q 38.606813 162.685268 38.780191 162.890105 
Q 38.954267 163.094243 39.251386 163.094243 
Q 39.548505 163.094243 39.721882 162.890105 
Q 39.89526 162.685268 39.89526 162.333619 
Q 39.89526 161.979873 39.721882 161.777133 
Q 39.548505 161.573694 39.251386 161.573694 
z
M 40.127362 160.19017 
L 40.127362 160.592154 
Q 39.960976 160.513855 39.791793 160.472608 
Q 39.62261 160.430661 39.456223 160.430661 
Q 39.019284 160.430661 38.78858 160.725683 
Q 38.558575 161.020704 38.525717 161.617039 
Q 38.654352 161.426883 38.848703 161.325513 
Q 39.043753 161.224143 39.277253 161.224143 
Q 39.768722 161.224143 40.053956 161.52266 
Q 40.33919 161.820478 40.33919 162.333619 
Q 40.33919 162.836274 40.042071 163.140384 
Q 39.744953 163.443795 39.251386 163.443795 
Q 38.685113 163.443795 38.385897 163.010351 
Q 38.086681 162.576208 38.086681 161.752665 
Q 38.086681 160.979457 38.45371 160.519447 
Q 38.820739 160.059438 39.438746 160.059438 
Q 39.605132 160.059438 39.774315 160.092296 
Q 39.943498 160.125153 40.127362 160.19017 
z
"/>
   </g>
   <g id="patch_14">
    <path clip-path="url(#p3f75c5d62f)" d="M 69.333432 150.120293 
L 69.236956 149.61554 
Q 69.139081 149.097505 68.749681 149.097505 
Q 68.457456 149.097505 68.323927 149.337997 
Q 68.155444 149.63931 68.155444 150.037099 
Q 68.155444 150.518082 68.319733 150.747388 
Q 68.48542 150.980888 68.749681 150.980888 
Q 69.042605 150.980888 69.199903 150.515286 
z
M 69.558543 149.45195 
L 69.774566 148.811572 
L 70.133206 148.811572 
L 69.685081 150.13777 
L 69.772469 150.615957 
Q 69.792043 150.722919 69.868246 150.812404 
Q 69.95843 150.91727 70.02834 150.91727 
L 70.220593 150.91727 
L 70.220593 151.258432 
L 69.980102 151.258432 
Q 69.774566 151.258432 69.591401 151.074568 
Q 69.501217 150.982986 69.464164 150.790732 
Q 69.364192 151.033321 69.158656 151.223477 
Q 69.06218 151.312962 68.749681 151.312962 
Q 68.23654 151.312962 67.987659 150.980888 
Q 67.731787 150.637629 67.731787 150.037099 
Q 67.731787 149.394624 68.009331 149.093311 
Q 68.317635 148.757042 68.749681 148.757042 
Q 69.429209 148.757042 69.558543 149.45195 
z
"/>
   </g>
   <g id="patch_15">
    <path clip-path="url(#p3f75c5d62f)" d="M 74.917166 145.741112 
Q 75.23386 145.808925 75.411432 146.02355 
Q 75.589703 146.237475 75.589703 146.552072 
Q 75.589703 147.034453 75.257629 147.299413 
Q 74.925556 147.563674 74.313841 147.563674 
Q 74.109003 147.563674 73.891582 147.523126 
Q 73.674161 147.482578 73.442758 147.401482 
L 73.442758 146.975728 
Q 73.625923 147.082691 73.844043 147.137221 
Q 74.062863 147.191751 74.301257 147.191751 
Q 74.715825 147.191751 74.933246 147.028161 
Q 75.150667 146.864571 75.150667 146.552072 
Q 75.150667 146.263342 74.948626 146.10115 
Q 74.746585 145.938259 74.386547 145.938259 
L 74.006235 145.938259 
L 74.006235 145.575425 
L 74.404025 145.575425 
Q 74.729108 145.575425 74.901786 145.445392 
Q 75.074464 145.315359 75.074464 145.070673 
Q 75.074464 144.819695 74.896193 144.685467 
Q 74.718621 144.55054 74.386547 144.55054 
Q 74.204781 144.55054 73.997147 144.590389 
Q 73.789513 144.629539 73.540633 144.712033 
L 73.540633 144.319137 
Q 73.79231 144.249227 74.011828 144.214272 
Q 74.231346 144.179317 74.425697 144.179317 
Q 74.928352 144.179317 75.220577 144.407923 
Q 75.513501 144.635831 75.513501 145.024532 
Q 75.513501 145.295784 75.3583 145.482444 
Q 75.203099 145.669105 74.917166 145.741112 
z
"/>
   </g>
   <g id="patch_16">
    <path clip-path="url(#p3f75c5d62f)" d="M 71.890051 132.5812 
L 71.793575 132.076448 
Q 71.6957 131.558413 71.3063 131.558413 
Q 71.014075 131.558413 70.880547 131.798904 
Q 70.712063 132.100218 70.712063 132.498007 
Q 70.712063 132.97899 70.876352 133.208296 
Q 71.042039 133.441796 71.3063 133.441796 
Q 71.599224 133.441796 71.756522 132.976194 
z
M 72.115162 131.912858 
L 72.331185 131.27248 
L 72.689825 131.27248 
L 72.2417 132.598678 
L 72.329088 133.076864 
Q 72.348662 133.183827 72.424865 133.273312 
Q 72.515049 133.378178 72.584959 133.378178 
L 72.777213 133.378178 
L 72.777213 133.71934 
L 72.536721 133.71934 
Q 72.331185 133.71934 72.14802 133.535476 
Q 72.057836 133.443893 72.020783 133.25164 
Q 71.920812 133.494229 71.715275 133.684385 
Q 71.618799 133.77387 71.3063 133.77387 
Q 70.793159 133.77387 70.544278 133.441796 
Q 70.288406 133.098537 70.288406 132.498007 
Q 70.288406 131.855532 70.56595 131.554218 
Q 70.874255 131.21795 71.3063 131.21795 
Q 71.985828 131.21795 72.115162 131.912858 
z
"/>
   </g>
   <g id="patch_17">
    <path clip-path="url(#p3f75c5d62f)" d="M 76.887937 135.671235 
Q 76.590819 135.671235 76.416742 135.874674 
Q 76.243364 136.077414 76.243364 136.43116 
Q 76.243364 136.782809 76.416742 136.987646 
Q 76.590819 137.191784 76.887937 137.191784 
Q 77.185056 137.191784 77.358433 136.987646 
Q 77.531811 136.782809 77.531811 136.43116 
Q 77.531811 136.077414 77.358433 135.874674 
Q 77.185056 135.671235 76.887937 135.671235 
z
M 77.763913 134.287711 
L 77.763913 134.689695 
Q 77.597527 134.611395 77.428344 134.570148 
Q 77.259161 134.528202 77.092774 134.528202 
Q 76.655835 134.528202 76.425131 134.823223 
Q 76.195126 135.118245 76.162269 135.714579 
Q 76.290903 135.524423 76.485254 135.423054 
Q 76.680304 135.321684 76.913804 135.321684 
Q 77.405273 135.321684 77.690507 135.620201 
Q 77.975741 135.918018 77.975741 136.43116 
Q 77.975741 136.933815 77.678623 137.237925 
Q 77.381504 137.541335 76.887937 137.541335 
Q 76.321664 137.541335 76.022448 137.107891 
Q 75.723232 136.673749 75.723232 135.850205 
Q 75.723232 135.076998 76.090261 134.616988 
Q 76.45729 134.156978 77.075297 134.156978 
Q 77.241683 134.156978 77.410866 134.189836 
Q 77.580049 134.222694 77.763913 134.287711 
z
"/>
   </g>
   <g id="patch_18">
    <path clip-path="url(#p3f75c5d62f)" d="M 83.785985 150.48103 
L 85.326109 150.48103 
L 85.326109 150.852253 
L 83.255366 150.852253 
L 83.255366 150.48103 
Q 83.506344 150.220963 83.939788 149.783325 
Q 84.373931 149.344988 84.485088 149.217751 
Q 84.696916 148.980056 84.780808 148.815068 
Q 84.8654 148.650079 84.8654 148.490684 
Q 84.8654 148.230618 84.682934 148.067028 
Q 84.500468 147.902738 84.207544 147.902738 
Q 83.99991 147.902738 83.769207 147.974746 
Q 83.539202 148.046754 83.277038 148.193565 
L 83.277038 147.747538 
Q 83.543396 147.640575 83.774799 147.586045 
Q 84.006902 147.531515 84.199155 147.531515 
Q 84.706004 147.531515 85.007318 147.785289 
Q 85.308631 148.038364 85.308631 148.462021 
Q 85.308631 148.663362 85.233128 148.843731 
Q 85.158324 149.0234 84.95908 149.268086 
Q 84.90455 149.331705 84.611625 149.634416 
Q 84.3194 149.937128 83.785985 150.48103 
z
M 86.298473 150.297166 
L 86.759182 150.297166 
L 86.759182 150.673283 
L 86.401241 151.372386 
L 86.119503 151.372386 
L 86.298473 150.673283 
z
M 88.887513 147.974746 
L 87.773143 149.716211 
L 88.887513 149.716211 
z
M 88.771462 147.590239 
L 89.32655 147.590239 
L 89.32655 149.716211 
L 89.792152 149.716211 
L 89.792152 150.08324 
L 89.32655 150.08324 
L 89.32655 150.852253 
L 88.887513 150.852253 
L 88.887513 150.08324 
L 87.415203 150.08324 
L 87.415203 149.657487 
z
"/>
   </g>
   <g id="patch_19">
    <path clip-path="url(#p3f75c5d62f)" d="M 88.762199 142.33788 
L 88.762199 143.419392 
L 88.358118 143.419392 
L 88.358118 140.057406 
Q 88.358118 139.061185 89.288624 139.061185 
Q 90.237306 139.061185 90.237306 139.902205 
Q 90.237306 140.500637 89.861189 140.719457 
Q 90.472904 140.915905 90.472904 141.498956 
Q 90.472904 142.535027 89.420055 142.535027 
Q 88.95655 142.535027 88.762199 142.33788 
z
M 88.762199 141.813553 
Q 89.004788 142.191767 89.435435 142.191767 
Q 90.064628 142.191767 90.064628 141.505947 
Q 90.064628 140.889339 89.050929 140.937577 
L 89.050929 140.566353 
Q 89.843711 140.566353 89.843711 139.86725 
Q 89.843711 139.389064 89.332667 139.389064 
Q 88.762199 139.389064 88.762199 140.070689 
z
"/>
   </g>
   <g id="patch_20">
    <path clip-path="url(#p3f75c5d62f)" d="M 94.998896 139.611379 
L 93.884526 141.352844 
L 94.998896 141.352844 
z
M 94.882844 139.226872 
L 95.437932 139.226872 
L 95.437932 141.352844 
L 95.903535 141.352844 
L 95.903535 141.719873 
L 95.437932 141.719873 
L 95.437932 142.488886 
L 94.998896 142.488886 
L 94.998896 141.719873 
L 93.526585 141.719873 
L 93.526585 141.294119 
z
"/>
   </g>
   <g id="patch_21">
    <path clip-path="url(#p3f75c5d62f)" d="M 102.64009 149.093311 
Q 102.956783 149.161124 103.134355 149.375748 
Q 103.312627 149.589674 103.312627 149.90427 
Q 103.312627 150.386651 102.980553 150.651611 
Q 102.648479 150.915872 102.036764 150.915872 
Q 101.831927 150.915872 101.614506 150.875324 
Q 101.397085 150.834776 101.165682 150.75368 
L 101.165682 150.327926 
Q 101.348847 150.434889 101.566967 150.489419 
Q 101.785786 150.543949 102.02418 150.543949 
Q 102.438748 150.543949 102.656169 150.380359 
Q 102.87359 150.216769 102.87359 149.90427 
Q 102.87359 149.61554 102.671549 149.453348 
Q 102.469509 149.290458 102.109471 149.290458 
L 101.729159 149.290458 
L 101.729159 148.927623 
L 102.126948 148.927623 
Q 102.452031 148.927623 102.624709 148.79759 
Q 102.797388 148.667557 102.797388 148.422871 
Q 102.797388 148.171893 102.619117 148.037665 
Q 102.441544 147.902738 102.109471 147.902738 
Q 101.927704 147.902738 101.72007 147.942587 
Q 101.512437 147.981737 101.263556 148.064231 
L 101.263556 147.671335 
Q 101.515233 147.601425 101.734751 147.56647 
Q 101.95427 147.531515 102.14862 147.531515 
Q 102.651275 147.531515 102.9435 147.760121 
Q 103.236424 147.988029 103.236424 148.37673 
Q 103.236424 148.647982 103.081224 148.834642 
Q 102.926023 149.021303 102.64009 149.093311 
z
M 104.195506 150.297166 
L 104.656215 150.297166 
L 104.656215 150.673283 
L 104.298274 151.372386 
L 104.016536 151.372386 
L 104.195506 150.673283 
z
M 106.570621 149.045772 
Q 106.273502 149.045772 106.099425 149.24921 
Q 105.926048 149.45195 105.926048 149.805696 
Q 105.926048 150.157345 106.099425 150.362182 
Q 106.273502 150.56632 106.570621 150.56632 
Q 106.867739 150.56632 107.041117 150.362182 
Q 107.214494 150.157345 107.214494 149.805696 
Q 107.214494 149.45195 107.041117 149.24921 
Q 106.867739 149.045772 106.570621 149.045772 
z
M 107.446596 147.662247 
L 107.446596 148.064231 
Q 107.28021 147.985932 107.111027 147.944685 
Q 106.941844 147.902738 106.775458 147.902738 
Q 106.338518 147.902738 106.107814 148.19776 
Q 105.87781 148.492781 105.844952 149.089116 
Q 105.973587 148.89896 106.167937 148.79759 
Q 106.362987 148.69622 106.596487 148.69622 
Q 107.087957 148.69622 107.373191 148.994737 
Q 107.658425 149.292555 107.658425 149.805696 
Q 107.658425 150.308351 107.361306 150.612461 
Q 107.064187 150.915872 106.570621 150.915872 
Q 106.004347 150.915872 105.705131 150.482428 
Q 105.405915 150.048285 105.405915 149.224742 
Q 105.405915 148.451534 105.772944 147.991524 
Q 106.139973 147.531515 106.75798 147.531515 
Q 106.924367 147.531515 107.09355 147.564373 
Q 107.262732 147.59723 107.446596 147.662247 
z
"/>
   </g>
   <g id="patch_22">
    <path clip-path="url(#p3f75c5d62f)" d="M 106.659232 142.33788 
L 106.659232 143.419392 
L 106.25515 143.419392 
L 106.25515 140.057406 
Q 106.25515 139.061185 107.185656 139.061185 
Q 108.134339 139.061185 108.134339 139.902205 
Q 108.134339 140.500637 107.758222 140.719457 
Q 108.369937 140.915905 108.369937 141.498956 
Q 108.369937 142.535027 107.317088 142.535027 
Q 106.853582 142.535027 106.659232 142.33788 
z
M 106.659232 141.813553 
Q 106.901821 142.191767 107.332468 142.191767 
Q 107.96166 142.191767 107.96166 141.505947 
Q 107.96166 140.889339 106.947961 140.937577 
L 106.947961 140.566353 
Q 107.740744 140.566353 107.740744 139.86725 
Q 107.740744 139.389064 107.2297 139.389064 
Q 106.659232 139.389064 106.659232 140.070689 
z
"/>
   </g>
   <g id="patch_23">
    <path clip-path="url(#p3f75c5d62f)" d="M 112.895928 139.611379 
L 111.781558 141.352844 
L 112.895928 141.352844 
z
M 112.779877 139.226872 
L 113.334965 139.226872 
L 113.334965 141.352844 
L 113.800567 141.352844 
L 113.800567 141.719873 
L 113.334965 141.719873 
L 113.334965 142.488886 
L 112.895928 142.488886 
L 112.895928 141.719873 
L 111.423618 141.719873 
L 111.423618 141.294119 
z
"/>
   </g>
   <g id="patch_24">
    <path clip-path="url(#p3f75c5d62f)" d="M 122.121989 139.26742 
L 122.121989 146.426233 
L 114.963175 146.426233 
L 114.963175 139.26742 
L 122.121989 139.26742 
z
" style="fill:#0090bc;stroke:#000000;stroke-linejoin:miter;stroke-width:0.478286;"/>
   </g>
   <g id="patch_25">
    <path clip-path="url(#p3f75c5d62f)" d="M 104.224956 139.26742 
L 104.224956 146.426233 
L 97.066143 146.426233 
L 97.066143 139.26742 
L 104.224956 139.26742 
z
" style="fill:#0090bc;stroke:#000000;stroke-linejoin:miter;stroke-width:0.478286;"/>
   </g>
   <g id="patch_26">
    <path clip-path="url(#p3f75c5d62f)" d="M 82.748516 146.426233 
C 83.697786 146.426233 84.608304 146.049084 85.279539 145.377849 
C 85.950774 144.706614 86.327923 143.796096 86.327923 142.846827 
C 86.327923 141.897557 85.950774 140.987039 85.279539 140.315804 
C 84.608304 139.644569 83.697786 139.26742 82.748516 139.26742 
C 81.799247 139.26742 80.888729 139.644569 80.217494 140.315804 
C 79.546259 140.987039 79.16911 141.897557 79.16911 142.846827 
C 79.16911 143.796096 79.546259 144.706614 80.217494 145.377849 
C 80.888729 146.049084 81.799247 146.426233 82.748516 146.426233 
z
" style="fill:#00a651;stroke:#000000;stroke-linejoin:miter;stroke-width:0.478286;"/>
   </g>
   <g id="patch_27">
    <path clip-path="url(#p3f75c5d62f)" d="M 103.330104 150.900491 
L 97.960994 156.269601 
z
" style="fill:#ffffff;stroke:#000000;stroke-linejoin:miter;stroke-width:0.478286;"/>
   </g>
   <g id="patch_28">
    <path clip-path="url(#p3f75c5d62f)" d="M 97.960994 150.900491 
L 103.330104 156.269601 
z
" style="fill:#ffffff;stroke:#000000;stroke-linejoin:miter;stroke-width:0.478286;"/>
   </g>
   <g id="patch_29">
    <path clip-path="url(#p3f75c5d62f)" d="M 64.851484 158.954156 
C 65.800753 158.954156 66.711271 158.577007 67.382506 157.905772 
C 68.053741 157.234537 68.43089 156.324019 68.43089 155.37475 
C 68.43089 154.42548 68.053741 153.514962 67.382506 152.843727 
C 66.711271 152.172492 65.800753 151.795343 64.851484 151.795343 
C 63.902214 151.795343 62.991696 152.172492 62.320461 152.843727 
C 61.649226 153.514962 61.272077 154.42548 61.272077 155.37475 
C 61.272077 156.324019 61.649226 157.234537 62.320461 157.905772 
C 62.991696 158.577007 63.902214 158.954156 64.851484 158.954156 
z
" style="fill:#00a651;stroke:#000000;stroke-linejoin:miter;stroke-width:0.478286;"/>
   </g>
   <g id="patch_30">
    <path clip-path="url(#p3f75c5d62f)" d="M 64.851484 133.89831 
C 65.800753 133.89831 66.711271 133.521161 67.382506 132.849926 
C 68.053741 132.178691 68.43089 131.268173 68.43089 130.318904 
C 68.43089 129.369634 68.053741 128.459116 67.382506 127.787881 
C 66.711271 127.116646 65.800753 126.739497 64.851484 126.739497 
C 63.902214 126.739497 62.991696 127.116646 62.320461 127.787881 
C 61.649226 128.459116 61.272077 129.369634 61.272077 130.318904 
C 61.272077 131.268173 61.649226 132.178691 62.320461 132.849926 
C 62.991696 133.521161 63.902214 133.89831 64.851484 133.89831 
z
" style="fill:#00a651;stroke:#000000;stroke-linejoin:miter;stroke-width:0.478286;"/>
   </g>
   <g id="patch_31">
    <path clip-path="url(#p3f75c5d62f)" d="M 85.433071 150.900491 
L 80.063961 156.269601 
z
" style="fill:#ffffff;stroke:#000000;stroke-linejoin:miter;stroke-width:0.478286;"/>
   </g>
   <g id="patch_32">
    <path clip-path="url(#p3f75c5d62f)" d="M 80.063961 150.900491 
L 85.433071 156.269601 
z
" style="fill:#ffffff;stroke:#000000;stroke-linejoin:miter;stroke-width:0.478286;"/>
   </g>
   <g id="patch_33">
    <path clip-path="url(#p3f75c5d62f)" d="M 67.536039 163.428414 
L 62.166929 168.797524 
z
" style="fill:#ffffff;stroke:#000000;stroke-linejoin:miter;stroke-width:0.478286;"/>
   </g>
   <g id="patch_34">
    <path clip-path="url(#p3f75c5d62f)" d="M 62.166929 163.428414 
L 67.536039 168.797524 
z
" style="fill:#ffffff;stroke:#000000;stroke-linejoin:miter;stroke-width:0.478286;"/>
   </g>
   <g id="patch_35">
    <path clip-path="url(#p3f75c5d62f)" d="M 50.533857 151.795343 
L 50.533857 158.954156 
L 43.375044 158.954156 
L 43.375044 151.795343 
L 50.533857 151.795343 
z
" style="fill:#0090bc;stroke:#000000;stroke-linejoin:miter;stroke-width:0.478286;"/>
   </g>
   <g id="patch_36">
    <path clip-path="url(#p3f75c5d62f)" d="M 29.057418 158.954156 
C 30.006688 158.954156 30.917206 158.577007 31.588441 157.905772 
C 32.259676 157.234537 32.636825 156.324019 32.636825 155.37475 
C 32.636825 154.42548 32.259676 153.514962 31.588441 152.843727 
C 30.917206 152.172492 30.006688 151.795343 29.057418 151.795343 
C 28.108148 151.795343 27.19763 152.172492 26.526395 152.843727 
C 25.85516 153.514962 25.478011 154.42548 25.478011 155.37475 
C 25.478011 156.324019 25.85516 157.234537 26.526395 157.905772 
C 27.19763 158.577007 28.108148 158.954156 29.057418 158.954156 
z
" style="fill:#ffd400;stroke:#000000;stroke-linejoin:miter;stroke-width:0.478286;"/>
   </g>
   <g id="patch_37">
    <path clip-path="url(#p3f75c5d62f)" d="M 49.639006 163.428414 
L 44.269896 168.797524 
z
" style="fill:#ffffff;stroke:#000000;stroke-linejoin:miter;stroke-width:0.478286;"/>
   </g>
   <g id="patch_38">
    <path clip-path="url(#p3f75c5d62f)" d="M 44.269896 163.428414 
L 49.639006 168.797524 
z
" style="fill:#ffffff;stroke:#000000;stroke-linejoin:miter;stroke-width:0.478286;"/>
   </g>
   <g id="patch_39">
    <path clip-path="url(#p3f75c5d62f)" d="M 31.741973 163.428414 
L 26.372863 168.797524 
z
" style="fill:#ffffff;stroke:#000000;stroke-linejoin:miter;stroke-width:0.478286;"/>
   </g>
   <g id="patch_40">
    <path clip-path="url(#p3f75c5d62f)" d="M 26.372863 163.428414 
L 31.741973 168.797524 
z
" style="fill:#ffffff;stroke:#000000;stroke-linejoin:miter;stroke-width:0.478286;"/>
   </g>
  </g>
  <g id="axes_3">
   <g id="line2d_14">
    <path clip-path="url(#pca2dad2447)" d="M 54.524125 191.110414 
L 54.524125 217.673379 
" style="fill:none;stroke:#000000;stroke-linecap:square;stroke-width:1.116;"/>
   </g>
   <g id="line2d_15">
    <path clip-path="url(#pca2dad2447)" d="M 98.795732 191.110414 
L 54.524125 191.110414 
" style="fill:none;stroke:#000000;stroke-linecap:square;stroke-width:1.116;"/>
   </g>
   <g id="patch_41">
    <path clip-path="url(#pca2dad2447)" d="M 57.090495 209.995022 
L 60.900274 209.995022 
L 60.900274 210.913312 
L 55.777911 210.913312 
L 55.777911 209.995022 
Q 56.398751 209.3517 57.470954 208.269121 
Q 58.544886 207.184812 58.819854 206.870069 
Q 59.34385 206.282087 59.551373 205.873958 
Q 59.760626 205.465829 59.760626 205.071535 
Q 59.760626 204.428213 59.309263 204.023543 
Q 58.8579 203.617143 58.133298 203.617143 
Q 57.619679 203.617143 57.04899 203.795267 
Q 56.480031 203.973392 55.831521 204.336557 
L 55.831521 203.233226 
Q 56.490407 202.968634 57.062825 202.833744 
Q 57.636972 202.698853 58.112546 202.698853 
Q 59.366332 202.698853 60.111686 203.326611 
Q 60.85704 203.952639 60.85704 205.000631 
Q 60.85704 205.498687 60.670269 205.944862 
Q 60.485228 206.389307 59.99236 206.994583 
Q 59.85747 207.151955 59.132868 207.900767 
Q 58.409996 208.64958 57.090495 209.995022 
z
M 63.305597 209.5402 
L 64.445245 209.5402 
L 64.445245 210.470596 
L 63.559813 212.199955 
L 62.862881 212.199955 
L 63.305597 210.470596 
z
M 69.710064 203.795267 
L 66.953465 208.103102 
L 69.710064 208.103102 
z
M 69.422991 202.84412 
L 70.796102 202.84412 
L 70.796102 208.103102 
L 71.947856 208.103102 
L 71.947856 209.011016 
L 70.796102 209.011016 
L 70.796102 210.913312 
L 69.710064 210.913312 
L 69.710064 209.011016 
L 66.068033 209.011016 
L 66.068033 207.957836 
z
M 73.865499 209.5402 
L 75.005148 209.5402 
L 75.005148 210.470596 
L 74.119715 212.199955 
L 73.422783 212.199955 
L 73.865499 210.470596 
z
M 79.740783 206.444646 
Q 79.005805 206.444646 78.575194 206.94789 
Q 78.146313 207.449404 78.146313 208.32446 
Q 78.146313 209.194328 78.575194 209.701031 
Q 79.005805 210.206004 79.740783 210.206004 
Q 80.475761 210.206004 80.904642 209.701031 
Q 81.333523 209.194328 81.333523 208.32446 
Q 81.333523 207.449404 80.904642 206.94789 
Q 80.475761 206.444646 79.740783 206.444646 
z
M 81.90767 203.022244 
L 81.90767 204.016626 
Q 81.496083 203.822937 81.077578 203.720905 
Q 80.659073 203.617143 80.247485 203.617143 
Q 79.166635 203.617143 78.595947 204.346933 
Q 78.026987 205.076723 77.945707 206.551867 
Q 78.26391 206.081481 78.744672 205.830724 
Q 79.227163 205.579967 79.804769 205.579967 
Q 81.020509 205.579967 81.726088 206.318403 
Q 82.431666 207.05511 82.431666 208.32446 
Q 82.431666 209.56787 81.696689 210.320142 
Q 80.961711 211.070684 79.740783 211.070684 
Q 78.340001 211.070684 77.599836 209.998481 
Q 76.85967 208.924548 76.85967 206.887363 
Q 76.85967 204.974691 77.767583 203.836772 
Q 78.675497 202.698853 80.204251 202.698853 
Q 80.615839 202.698853 81.034344 202.780133 
Q 81.452849 202.861413 81.90767 203.022244 
z
"/>
   </g>
   <g id="patch_42">
    <path clip-path="url(#pca2dad2447)" d="M 97.698454 196.127287 
L 97.698454 198.802606 
L 96.698884 198.802606 
L 96.698884 190.486115 
Q 96.698884 188.021778 99.000661 188.021778 
Q 101.347402 188.021778 101.347402 190.102198 
Q 101.347402 191.58253 100.417007 192.123819 
Q 101.930197 192.609769 101.930197 194.052055 
Q 101.930197 196.614966 99.325781 196.614966 
Q 98.179216 196.614966 97.698454 196.127287 
z
M 97.698454 194.830267 
Q 98.298541 195.765851 99.363827 195.765851 
Q 100.920251 195.765851 100.920251 194.069349 
Q 100.920251 192.544053 98.412679 192.663379 
L 98.412679 191.745089 
Q 100.373773 191.745089 100.373773 190.01573 
Q 100.373773 188.832848 99.109611 188.832848 
Q 97.698454 188.832848 97.698454 190.518973 
z
"/>
   </g>
   <g id="patch_43">
    <path clip-path="url(#pca2dad2447)" d="M 54.524125 199.964736 
C 56.872318 199.964736 59.124652 199.031789 60.785076 197.371365 
C 62.445499 195.710942 63.378446 193.458608 63.378446 191.110414 
C 63.378446 188.762221 62.445499 186.509887 60.785076 184.849464 
C 59.124652 183.18904 56.872318 182.256093 54.524125 182.256093 
C 52.175931 182.256093 49.923598 183.18904 48.263174 184.849464 
C 46.602751 186.509887 45.669803 188.762221 45.669803 191.110414 
C 45.669803 193.458608 46.602751 195.710942 48.263174 197.371365 
C 49.923598 199.031789 52.175931 199.964736 54.524125 199.964736 
z
" style="fill:#ffd400;stroke:#000000;stroke-linejoin:miter;stroke-width:1.116;"/>
   </g>
   <g id="patch_44">
    <path clip-path="url(#pca2dad2447)" d="M 61.164866 211.032638 
L 47.883384 224.31412 
z
" style="fill:#ffffff;stroke:#000000;stroke-linejoin:miter;stroke-width:1.116;"/>
   </g>
   <g id="patch_45">
    <path clip-path="url(#pca2dad2447)" d="M 47.883384 211.032638 
L 61.164866 224.31412 
z
" style="fill:#ffffff;stroke:#000000;stroke-linejoin:miter;stroke-width:1.116;"/>
   </g>
  </g>
  <g id="axes_4">
   <g id="line2d_16">
    <path clip-path="url(#p72a0583399)" d="M 73.8 246.62701 
L 73.8 273.189975 
" style="fill:none;stroke:#000000;stroke-linecap:square;stroke-width:1.674;"/>
   </g>
   <g id="patch_46">
    <path clip-path="url(#p72a0583399)" d="M 78.733863 261.514203 
Q 79.517263 261.681951 79.95652 262.212864 
Q 80.397507 262.742048 80.397507 263.52026 
Q 80.397507 264.713518 79.576061 265.368945 
Q 78.754615 266.022643 77.241426 266.022643 
Q 76.734723 266.022643 76.196892 265.922341 
Q 75.659062 265.822038 75.086644 265.621432 
L 75.086644 264.568252 
Q 75.539736 264.832844 76.079296 264.967734 
Q 76.620586 265.102624 77.210297 265.102624 
Q 78.235808 265.102624 78.773638 264.697954 
Q 79.311469 264.293284 79.311469 263.52026 
Q 79.311469 262.806034 78.811684 262.404823 
Q 78.311899 262.001882 77.421279 262.001882 
L 76.480507 262.001882 
L 76.480507 261.104345 
L 77.464513 261.104345 
Q 78.268665 261.104345 78.695817 260.782684 
Q 79.122969 260.461023 79.122969 259.855747 
Q 79.122969 259.234907 78.681982 258.90287 
Q 78.242725 258.569103 77.421279 258.569103 
Q 76.971646 258.569103 76.458026 258.667677 
Q 75.944406 258.764521 75.328754 258.968585 
L 75.328754 257.996685 
Q 75.951323 257.823749 76.494342 257.737281 
Q 77.037361 257.650813 77.518123 257.650813 
Q 78.761533 257.650813 79.484405 258.216314 
Q 80.209007 258.780085 80.209007 259.741609 
Q 80.209007 260.412601 79.825089 260.87434 
Q 79.441171 261.336079 78.733863 261.514203 
z
"/>
   </g>
   <g id="patch_47">
    <path clip-path="url(#p72a0583399)" d="M 82.654321 237.772689 
L 82.654321 255.481332 
L 64.945679 255.481332 
L 64.945679 237.772689 
L 82.654321 237.772689 
z
" style="fill:#0090bc;stroke:#000000;stroke-linejoin:miter;stroke-width:1.674;"/>
   </g>
   <g id="patch_48">
    <path clip-path="url(#p72a0583399)" d="M 80.440741 266.549233 
L 67.159259 279.830716 
z
" style="fill:#ffffff;stroke:#000000;stroke-linejoin:miter;stroke-width:1.674;"/>
   </g>
   <g id="patch_49">
    <path clip-path="url(#p72a0583399)" d="M 67.159259 266.549233 
L 80.440741 279.830716 
z
" style="fill:#ffffff;stroke:#000000;stroke-linejoin:miter;stroke-width:1.674;"/>
   </g>
  </g>
  <g id="axes_5">
   <g id="line2d_17">
    <path clip-path="url(#pe6a18cec5d)" d="M 109.407721 303.929612 
L 70.822249 303.929612 
" style="fill:none;stroke:#000000;stroke-linecap:square;stroke-width:0.837;"/>
   </g>
   <g id="line2d_18">
    <path clip-path="url(#pe6a18cec5d)" d="M 109.407721 303.929612 
L 109.407721 327.080895 
" style="fill:none;stroke:#000000;stroke-linecap:square;stroke-width:0.837;"/>
   </g>
   <g id="line2d_19">
    <path clip-path="url(#pe6a18cec5d)" d="M 70.822249 303.929612 
L 32.236777 303.929612 
" style="fill:none;stroke:#000000;stroke-linecap:square;stroke-width:0.837;"/>
   </g>
   <g id="patch_50">
    <path clip-path="url(#pe6a18cec5d)" d="M 83.787571 302.832337 
L 83.787571 305.164045 
L 82.916383 305.164045 
L 82.916383 297.915704 
Q 82.916383 295.76788 84.922526 295.76788 
Q 86.967858 295.76788 86.967858 297.581096 
Q 86.967858 298.871297 86.15696 299.343065 
Q 87.475799 299.766601 87.475799 301.023643 
Q 87.475799 303.25738 85.205888 303.25738 
Q 84.206585 303.25738 83.787571 302.832337 
z
M 83.787571 301.701904 
Q 84.310585 302.517323 85.239048 302.517323 
Q 86.595568 302.517323 86.595568 301.038716 
Q 86.595568 299.709326 84.410063 299.813326 
L 84.410063 299.012978 
Q 86.119279 299.012978 86.119279 297.505733 
Q 86.119279 296.474778 85.017483 296.474778 
Q 83.787571 296.474778 83.787571 297.944342 
z
"/>
   </g>
   <g id="patch_51">
    <path clip-path="url(#pe6a18cec5d)" d="M 97.233703 296.954082 
L 94.831155 300.708629 
L 97.233703 300.708629 
z
M 96.983501 296.125097 
L 98.180253 296.125097 
L 98.180253 300.708629 
L 99.184078 300.708629 
L 99.184078 301.499933 
L 98.180253 301.499933 
L 98.180253 303.157902 
L 97.233703 303.157902 
L 97.233703 301.499933 
L 94.059445 301.499933 
L 94.059445 300.582021 
z
"/>
   </g>
   <g id="patch_52">
    <path clip-path="url(#pe6a18cec5d)" d="M 113.707891 317.396846 
Q 114.390673 317.543049 114.773513 318.005773 
Q 115.157861 318.46699 115.157861 319.14525 
Q 115.157861 320.185249 114.44192 320.756495 
Q 113.725978 321.326234 112.407139 321.326234 
Q 111.965516 321.326234 111.496763 321.238813 
Q 111.02801 321.151393 110.529112 320.976553 
L 110.529112 320.05864 
Q 110.92401 320.289249 111.39427 320.406814 
Q 111.866038 320.524379 112.380008 320.524379 
Q 113.273805 320.524379 113.742558 320.171684 
Q 114.211311 319.818989 114.211311 319.14525 
Q 114.211311 318.522758 113.775717 318.173077 
Q 113.340123 317.821889 112.563892 317.821889 
L 111.743951 317.821889 
L 111.743951 317.039629 
L 112.601573 317.039629 
Q 113.302442 317.039629 113.674732 316.759281 
Q 114.047021 316.478934 114.047021 315.951398 
Q 114.047021 315.410297 113.662674 315.120906 
Q 113.279834 314.830008 112.563892 314.830008 
Q 112.172009 314.830008 111.724357 314.915921 
Q 111.276705 315.000326 110.740126 315.178181 
L 110.740126 314.331109 
Q 111.282734 314.180385 111.756009 314.105023 
Q 112.229284 314.02966 112.648298 314.02966 
Q 113.732007 314.02966 114.362036 314.52253 
Q 114.993571 315.013891 114.993571 315.85192 
Q 114.993571 316.436731 114.658963 316.839165 
Q 114.324354 317.2416 113.707891 317.396846 
z
M 117.061323 319.992322 
L 118.054597 319.992322 
L 118.054597 320.80322 
L 117.282888 322.310465 
L 116.675468 322.310465 
L 117.061323 320.80322 
z
M 122.181999 317.294353 
Q 121.54142 317.294353 121.166116 317.732961 
Q 120.79232 318.170062 120.79232 318.932728 
Q 120.79232 319.690873 121.166116 320.132495 
Q 121.54142 320.572611 122.181999 320.572611 
Q 122.822579 320.572611 123.196375 320.132495 
Q 123.570172 319.690873 123.570172 318.932728 
Q 123.570172 318.170062 123.196375 317.732961 
Q 122.822579 317.294353 122.181999 317.294353 
z
M 124.070577 314.311515 
L 124.070577 315.178181 
Q 123.711853 315.00937 123.3471 314.920442 
Q 122.982347 314.830008 122.623622 314.830008 
Q 121.681594 314.830008 121.184203 315.466065 
Q 120.68832 316.102122 120.617479 317.387802 
Q 120.894812 316.977832 121.313826 316.759281 
Q 121.734348 316.540731 122.237768 316.540731 
Q 123.297361 316.540731 123.912317 317.184324 
Q 124.527273 317.826411 124.527273 318.932728 
Q 124.527273 320.016438 123.886694 320.672089 
Q 123.246114 321.326234 122.181999 321.326234 
Q 120.961131 321.326234 120.31603 320.391742 
Q 119.670929 319.455742 119.670929 317.680208 
Q 119.670929 316.013195 120.462233 315.021428 
Q 121.253537 314.02966 122.585941 314.02966 
Q 122.944665 314.02966 123.309419 314.100501 
Q 123.674172 314.171341 124.070577 314.311515 
z
"/>
   </g>
   <g id="patch_53">
    <path clip-path="url(#pe6a18cec5d)" d="M 47.41172 300.704107 
L 47.20372 299.615876 
Q 46.992706 298.499008 46.15317 298.499008 
Q 45.523142 298.499008 45.235258 299.0175 
Q 44.872012 299.667123 44.872012 300.524745 
Q 44.872012 301.56173 45.226214 302.056106 
Q 45.583431 302.559526 46.15317 302.559526 
Q 46.784706 302.559526 47.123836 301.555701 
z
M 47.897053 299.263181 
L 48.362791 297.882545 
L 49.136008 297.882545 
L 48.169864 300.741788 
L 48.35827 301.772744 
Q 48.400472 302.003353 48.564762 302.19628 
Q 48.759197 302.422367 48.909921 302.422367 
L 49.324414 302.422367 
L 49.324414 303.157902 
L 48.805921 303.157902 
Q 48.362791 303.157902 47.967893 302.761497 
Q 47.773458 302.564048 47.693574 302.149555 
Q 47.478038 302.672569 47.034908 303.08254 
Q 46.826909 303.275467 46.15317 303.275467 
Q 45.046852 303.275467 44.510273 302.559526 
Q 43.958621 301.819469 43.958621 300.524745 
Q 43.958621 299.139587 44.556998 298.489964 
Q 45.221693 297.76498 46.15317 297.76498 
Q 47.618212 297.76498 47.897053 299.263181 
z
"/>
   </g>
   <g id="patch_54">
    <path clip-path="url(#pe6a18cec5d)" d="M 56.853102 302.357555 
L 60.173563 302.357555 
L 60.173563 303.157902 
L 55.709103 303.157902 
L 55.709103 302.357555 
Q 56.250204 301.79686 57.184696 300.853325 
Q 58.120695 299.908282 58.360347 299.633963 
Q 58.817043 299.1215 58.997912 298.76579 
Q 59.180289 298.41008 59.180289 298.066429 
Q 59.180289 297.505733 58.786898 297.153038 
Q 58.393507 296.798836 57.761971 296.798836 
Q 57.314319 296.798836 56.816928 296.954082 
Q 56.321045 297.109328 55.755828 297.425849 
L 55.755828 296.464227 
Q 56.330088 296.233619 56.828986 296.116054 
Q 57.329392 295.998488 57.743884 295.998488 
Q 58.836637 295.998488 59.486259 296.545618 
Q 60.135882 297.091241 60.135882 298.004632 
Q 60.135882 298.438718 59.9731 298.827587 
Q 59.811824 299.214949 59.382259 299.742485 
Q 59.264694 299.879644 58.633159 300.532281 
Q 58.00313 301.184919 56.853102 302.357555 
z
"/>
   </g>
   <g id="patch_55">
    <path clip-path="url(#pe6a18cec5d)" d="M 117.124816 296.212517 
L 117.124816 311.646706 
L 101.690627 311.646706 
L 101.690627 296.212517 
L 117.124816 296.212517 
z
" style="fill:#0090bc;stroke:#000000;stroke-linejoin:miter;stroke-width:0.837;"/>
   </g>
   <g id="patch_56">
    <path clip-path="url(#pe6a18cec5d)" d="M 70.822249 311.646706 
C 72.868846 311.646706 74.831896 310.833584 76.279059 309.386421 
C 77.726222 307.939259 78.539344 305.976209 78.539344 303.929612 
C 78.539344 301.883014 77.726222 299.919965 76.279059 298.472802 
C 74.831896 297.025639 72.868846 296.212517 70.822249 296.212517 
C 68.775652 296.212517 66.812602 297.025639 65.365439 298.472802 
C 63.918276 299.919965 63.105155 301.883014 63.105155 303.929612 
C 63.105155 305.976209 63.918276 307.939259 65.365439 309.386421 
C 66.812602 310.833584 68.775652 311.646706 70.822249 311.646706 
z
" style="fill:#ffd400;stroke:#000000;stroke-linejoin:miter;stroke-width:0.837;"/>
   </g>
   <g id="patch_57">
    <path clip-path="url(#pe6a18cec5d)" d="M 115.195542 321.293074 
L 103.6199 332.868716 
z
" style="fill:#ffffff;stroke:#000000;stroke-linejoin:miter;stroke-width:0.837;"/>
   </g>
   <g id="patch_58">
    <path clip-path="url(#pe6a18cec5d)" d="M 103.6199 321.293074 
L 115.195542 332.868716 
z
" style="fill:#ffffff;stroke:#000000;stroke-linejoin:miter;stroke-width:0.837;"/>
   </g>
   <g id="patch_59">
    <path clip-path="url(#pe6a18cec5d)" d="M 32.236777 296.598372 
L 41.400827 311.260851 
L 23.072727 311.260851 
L 32.236777 296.598372 
z
" style="fill:#ed1c24;stroke:#000000;stroke-linejoin:miter;stroke-width:0.837;"/>
   </g>
  </g>
  <g id="axes_6">
   <g id="line2d_20">
    <path clip-path="url(#p731d4d1584)" d="M 64.27339 357.660202 
L 64.27339 384.223166 
" style="fill:none;stroke:#000000;stroke-linecap:square;stroke-width:1.674;"/>
   </g>
   <g id="patch_60">
    <path clip-path="url(#p731d4d1584)" d="M 66.83976 376.544809 
L 70.649539 376.544809 
L 70.649539 377.463099 
L 65.527176 377.463099 
L 65.527176 376.544809 
Q 66.148016 375.901487 67.220219 374.818908 
Q 68.294151 373.7346 68.569119 373.419856 
Q 69.093115 372.831874 69.300638 372.423745 
Q 69.509891 372.015616 69.509891 371.621322 
Q 69.509891 370.978 69.058528 370.57333 
Q 68.607165 370.166931 67.882564 370.166931 
Q 67.368944 370.166931 66.798255 370.345055 
Q 66.229296 370.523179 65.580786 370.886344 
L 65.580786 369.783013 
Q 66.239672 369.518421 66.81209 369.383531 
Q 67.386237 369.248641 67.861811 369.248641 
Q 69.115597 369.248641 69.860951 369.876398 
Q 70.606305 370.502426 70.606305 371.550418 
Q 70.606305 372.048474 70.419534 372.494649 
Q 70.234493 372.939094 69.741625 373.54437 
Q 69.606735 373.701742 68.882133 374.450555 
Q 68.159261 375.199367 66.83976 376.544809 
z
M 73.054862 376.089988 
L 74.19451 376.089988 
L 74.19451 377.020383 
L 73.309078 378.749743 
L 72.612146 378.749743 
L 73.054862 377.020383 
z
M 79.767156 373.11203 
Q 80.550555 373.279778 80.989813 373.810691 
Q 81.4308 374.339876 81.4308 375.118087 
Q 81.4308 376.311346 80.609354 376.966773 
Q 79.787908 377.620471 78.274718 377.620471 
Q 77.768016 377.620471 77.230185 377.520168 
Q 76.692354 377.419865 76.119936 377.219259 
L 76.119936 376.166079 
Q 76.573028 376.430671 77.112588 376.565561 
Q 77.653878 376.700451 78.24359 376.700451 
Q 79.2691 376.700451 79.806931 376.295781 
Q 80.344762 375.891111 80.344762 375.118087 
Q 80.344762 374.403862 79.844977 374.00265 
Q 79.345192 373.59971 78.454572 373.59971 
L 77.5138 373.59971 
L 77.5138 372.702172 
L 78.497806 372.702172 
Q 79.301958 372.702172 79.72911 372.380511 
Q 80.156261 372.05885 80.156261 371.453574 
Q 80.156261 370.832734 79.715275 370.500697 
Q 79.276017 370.166931 78.454572 370.166931 
Q 78.004938 370.166931 77.491318 370.265504 
Q 76.977698 370.362348 76.362046 370.566413 
L 76.362046 369.594513 
Q 76.984616 369.421577 77.527635 369.335109 
Q 78.070654 369.248641 78.551416 369.248641 
Q 79.794825 369.248641 80.517698 369.814141 
Q 81.242299 370.377913 81.242299 371.339437 
Q 81.242299 372.010428 80.858381 372.472167 
Q 80.474464 372.933906 79.767156 373.11203 
z
M 83.614765 376.089988 
L 84.754413 376.089988 
L 84.754413 377.020383 
L 83.86898 378.749743 
L 83.172049 378.749743 
L 83.614765 377.020383 
z
M 89.490048 372.994434 
Q 88.75507 372.994434 88.324459 373.497677 
Q 87.895578 373.999192 87.895578 374.874248 
Q 87.895578 375.744116 88.324459 376.250818 
Q 88.75507 376.755791 89.490048 376.755791 
Q 90.225026 376.755791 90.653907 376.250818 
Q 91.082788 375.744116 91.082788 374.874248 
Q 91.082788 373.999192 90.653907 373.497677 
Q 90.225026 372.994434 89.490048 372.994434 
z
M 91.656936 369.572031 
L 91.656936 370.566413 
Q 91.245348 370.372724 90.826843 370.270692 
Q 90.408338 370.166931 89.99675 370.166931 
Q 88.915901 370.166931 88.345212 370.89672 
Q 87.776252 371.62651 87.694973 373.101654 
Q 88.013175 372.631268 88.493937 372.380511 
Q 88.976428 372.129754 89.554034 372.129754 
Q 90.769774 372.129754 91.475353 372.86819 
Q 92.180932 373.604898 92.180932 374.874248 
Q 92.180932 376.117657 91.445954 376.869929 
Q 90.710976 377.620471 89.490048 377.620471 
Q 88.089267 377.620471 87.349101 376.548268 
Q 86.608935 375.474335 86.608935 373.43715 
Q 86.608935 371.524478 87.516849 370.386559 
Q 88.424762 369.248641 89.953516 369.248641 
Q 90.365104 369.248641 90.783609 369.329921 
Q 91.202114 369.4112 91.656936 369.572031 
z
"/>
   </g>
   <g id="patch_61">
    <path clip-path="url(#p731d4d1584)" d="M 64.27339 366.514523 
C 66.621583 366.514523 68.873917 365.581576 70.534341 363.921152 
C 72.194764 362.260729 73.127711 360.008395 73.127711 357.660202 
C 73.127711 355.312008 72.194764 353.059674 70.534341 351.399251 
C 68.873917 349.738827 66.621583 348.80588 64.27339 348.80588 
C 61.925196 348.80588 59.672863 349.738827 58.012439 351.399251 
C 56.352016 353.059674 55.419068 355.312008 55.419068 357.660202 
C 55.419068 360.008395 56.352016 362.260729 58.012439 363.921152 
C 59.672863 365.581576 61.925196 366.514523 64.27339 366.514523 
z
" style="fill:#ffd400;stroke:#000000;stroke-linejoin:miter;stroke-width:1.674;"/>
   </g>
   <g id="patch_62">
    <path clip-path="url(#p731d4d1584)" d="M 70.914131 377.582425 
L 57.632649 390.863907 
z
" style="fill:#ffffff;stroke:#000000;stroke-linejoin:miter;stroke-width:1.674;"/>
   </g>
   <g id="patch_63">
    <path clip-path="url(#p731d4d1584)" d="M 57.632649 377.582425 
L 70.914131 390.863907 
z
" style="fill:#ffffff;stroke:#000000;stroke-linejoin:miter;stroke-width:1.674;"/>
   </g>
  </g>
  <g id="axes_7">
   <g id="line2d_21">
    <path clip-path="url(#pe7d8ec9540)" d="M 87.161272 413.369542 
L 87.161272 439.778311 
" style="fill:none;stroke:#000000;stroke-linecap:square;stroke-width:1.116;"/>
   </g>
   <g id="line2d_22">
    <path clip-path="url(#pe7d8ec9540)" d="M 87.161272 413.369542 
L 43.146658 413.369542 
" style="fill:none;stroke:#000000;stroke-linecap:square;stroke-width:1.116;"/>
   </g>
   <g id="line2d_23">
    <path clip-path="url(#pe7d8ec9540)" d="M 43.146658 413.369542 
L 43.146658 439.778311 
" style="fill:none;stroke:#000000;stroke-linecap:square;stroke-width:1.116;"/>
   </g>
   <g id="patch_64">
    <path clip-path="url(#pe7d8ec9540)" d="M 92.066495 428.731674 
Q 92.845347 428.898448 93.282055 429.42628 
Q 93.720481 429.952392 93.720481 430.726086 
Q 93.720481 431.912418 92.903804 432.56404 
Q 92.087127 433.213944 90.582721 433.213944 
Q 90.07896 433.213944 89.544251 433.114223 
Q 89.009542 433.014502 88.440447 432.815061 
L 88.440447 431.767995 
Q 88.890909 432.031051 89.427337 432.165158 
Q 89.965485 432.299265 90.551773 432.299265 
Q 91.57133 432.299265 92.106039 431.896944 
Q 92.640748 431.494623 92.640748 430.726086 
Q 92.640748 430.016007 92.143864 429.617124 
Q 91.64698 429.216523 90.76153 429.216523 
L 89.82622 429.216523 
L 89.82622 428.324195 
L 90.804513 428.324195 
Q 91.603997 428.324195 92.02867 428.004401 
Q 92.453342 427.684608 92.453342 427.082845 
Q 92.453342 426.465609 92.014915 426.1355 
Q 91.578208 425.803671 90.76153 425.803671 
Q 90.314507 425.803671 89.803868 425.901672 
Q 89.29323 425.997954 88.681152 426.200834 
L 88.681152 425.234576 
Q 89.300107 425.062643 89.839974 424.976677 
Q 90.379841 424.890711 90.857812 424.890711 
Q 92.094004 424.890711 92.81268 425.452929 
Q 93.533075 426.013428 93.533075 426.96937 
Q 93.533075 427.636467 93.151386 428.095525 
Q 92.769697 428.554584 92.066495 428.731674 
z
M 95.891769 431.692345 
L 97.024801 431.692345 
L 97.024801 432.617339 
L 96.144509 434.33666 
L 95.451623 434.33666 
L 95.891769 432.617339 
z
M 102.259059 425.980761 
L 99.518461 430.263589 
L 102.259059 430.263589 
z
M 101.973651 425.035134 
L 103.338792 425.035134 
L 103.338792 430.263589 
L 104.48386 430.263589 
L 104.48386 431.166233 
L 103.338792 431.166233 
L 103.338792 433.057485 
L 102.259059 433.057485 
L 102.259059 431.166233 
L 98.638169 431.166233 
L 98.638169 430.119166 
z
M 106.390372 431.692345 
L 107.523404 431.692345 
L 107.523404 432.617339 
L 106.643112 434.33666 
L 105.950226 434.33666 
L 106.390372 432.617339 
z
M 112.23155 428.61476 
Q 111.500838 428.61476 111.072727 429.115083 
Q 110.646336 429.613686 110.646336 430.483662 
Q 110.646336 431.348481 111.072727 431.852242 
Q 111.500838 432.354283 112.23155 432.354283 
Q 112.962261 432.354283 113.388652 431.852242 
Q 113.815044 431.348481 113.815044 430.483662 
Q 113.815044 429.613686 113.388652 429.115083 
Q 112.962261 428.61476 112.23155 428.61476 
z
M 114.385859 425.212224 
L 114.385859 426.200834 
Q 113.97666 426.00827 113.560585 425.90683 
Q 113.144509 425.803671 112.735311 425.803671 
Q 111.660735 425.803671 111.093359 426.529224 
Q 110.527703 427.254778 110.446894 428.721358 
Q 110.76325 428.253703 111.241221 428.004401 
Q 111.720911 427.7551 112.295164 427.7551 
Q 113.503847 427.7551 114.20533 428.48925 
Q 114.906813 429.221681 114.906813 430.483662 
Q 114.906813 431.719854 114.176101 432.467758 
Q 113.44539 433.213944 112.23155 433.213944 
Q 110.8389 433.213944 110.10303 432.147965 
Q 109.367161 431.080266 109.367161 429.054907 
Q 109.367161 427.153338 110.269804 426.022025 
Q 111.172448 424.890711 112.692328 424.890711 
Q 113.101526 424.890711 113.517602 424.971519 
Q 113.933677 425.052328 114.385859 425.212224 
z
"/>
   </g>
   <g id="patch_65">
    <path clip-path="url(#pe7d8ec9540)" d="M 60.456781 409.690196 
L 60.219514 408.448846 
Q 59.978809 407.174829 59.021148 407.174829 
Q 58.302472 407.174829 57.974081 407.766276 
Q 57.559725 408.507303 57.559725 409.485596 
Q 57.559725 410.668489 57.963765 411.232426 
Q 58.371244 411.80668 59.021148 411.80668 
Q 59.741543 411.80668 60.12839 410.661612 
z
M 61.010402 408.046525 
L 61.541672 406.471627 
L 62.423684 406.471627 
L 61.321599 409.733179 
L 61.536514 410.909194 
Q 61.584655 411.17225 61.772061 411.392323 
Q 61.993853 411.650221 62.165786 411.650221 
L 62.638599 411.650221 
L 62.638599 412.48925 
L 62.047152 412.48925 
Q 61.541672 412.48925 61.09121 412.037069 
Q 60.869418 411.811838 60.778294 411.339024 
Q 60.532431 411.935629 60.02695 412.403284 
Q 59.789684 412.623357 59.021148 412.623357 
Q 57.759166 412.623357 57.147088 411.80668 
Q 56.517816 410.962493 56.517816 409.485596 
Q 56.517816 407.905541 57.200387 407.164513 
Q 57.958607 406.33752 59.021148 406.33752 
Q 60.692328 406.33752 61.010402 408.046525 
z
"/>
   </g>
   <g id="patch_66">
    <path clip-path="url(#pe7d8ec9540)" d="M 71.226606 411.576291 
L 75.01427 411.576291 
L 75.01427 412.48925 
L 69.921642 412.48925 
L 69.921642 411.576291 
Q 70.538878 410.936703 71.604857 409.860408 
Q 72.672555 408.782394 72.945927 408.469478 
Q 73.466882 407.884909 73.6732 407.479149 
Q 73.881238 407.073389 73.881238 406.681384 
Q 73.881238 406.041797 73.432495 405.639476 
Q 72.983752 405.235435 72.263357 405.235435 
Q 71.752719 405.235435 71.185343 405.412525 
Q 70.619686 405.589615 69.974941 405.950673 
L 69.974941 404.853746 
Q 70.630002 404.59069 71.199097 404.456583 
Q 71.769912 404.322476 72.242725 404.322476 
Q 73.489233 404.322476 74.23026 404.946589 
Q 74.971287 405.568983 74.971287 406.610892 
Q 74.971287 407.106056 74.785601 407.549641 
Q 74.601633 407.991507 74.111627 408.593269 
Q 73.97752 408.749727 73.257124 409.494193 
Q 72.538448 410.238659 71.226606 411.576291 
z
"/>
   </g>
   <g id="patch_67">
    <path clip-path="url(#pe7d8ec9540)" d="M 48.051881 428.170316 
Q 48.830733 428.33709 49.26744 428.864922 
Q 49.705867 429.391034 49.705867 430.164728 
Q 49.705867 431.35106 48.88919 432.002682 
Q 48.072512 432.652585 46.568107 432.652585 
Q 46.064346 432.652585 45.529637 432.552865 
Q 44.994928 432.453144 44.425833 432.253703 
L 44.425833 431.206637 
Q 44.876295 431.469693 45.412723 431.6038 
Q 45.95087 431.737907 46.537159 431.737907 
Q 47.556716 431.737907 48.091425 431.335586 
Q 48.626134 430.933265 48.626134 430.164728 
Q 48.626134 429.454649 48.12925 429.055766 
Q 47.632366 428.655164 46.746916 428.655164 
L 45.811605 428.655164 
L 45.811605 427.762837 
L 46.789899 427.762837 
Q 47.589383 427.762837 48.014055 427.443043 
Q 48.438728 427.12325 48.438728 426.521487 
Q 48.438728 425.904251 48.000301 425.574141 
Q 47.563593 425.242312 46.746916 425.242312 
Q 46.299893 425.242312 45.789254 425.340314 
Q 45.278616 425.436596 44.666538 425.639476 
L 44.666538 424.673217 
Q 45.285493 424.501285 45.82536 424.415319 
Q 46.365227 424.329353 46.843198 424.329353 
Q 48.07939 424.329353 48.798066 424.891571 
Q 49.518461 425.45207 49.518461 426.408012 
Q 49.518461 427.075109 49.136772 427.534167 
Q 48.755083 427.993226 48.051881 428.170316 
z
"/>
   </g>
   <g id="patch_68">
    <path clip-path="url(#pe7d8ec9540)" d="M 87.161272 422.172465 
C 89.495835 422.172465 91.735094 421.244934 93.385879 419.594149 
C 95.036664 417.943364 95.964195 415.704105 95.964195 413.369542 
C 95.964195 411.03498 95.036664 408.795721 93.385879 407.144936 
C 91.735094 405.494151 89.495835 404.566619 87.161272 404.566619 
C 84.82671 404.566619 82.587451 405.494151 80.936666 407.144936 
C 79.285881 408.795721 78.358349 411.03498 78.358349 413.369542 
C 78.358349 415.704105 79.285881 417.943364 80.936666 419.594149 
C 82.587451 421.244934 84.82671 422.172465 87.161272 422.172465 
z
" style="fill:#ffd400;stroke:#000000;stroke-linejoin:miter;stroke-width:1.116;"/>
   </g>
   <g id="patch_69">
    <path clip-path="url(#pe7d8ec9540)" d="M 93.763464 433.176119 
L 80.55908 446.380503 
z
" style="fill:#ffffff;stroke:#000000;stroke-linejoin:miter;stroke-width:1.116;"/>
   </g>
   <g id="patch_70">
    <path clip-path="url(#pe7d8ec9540)" d="M 80.55908 433.176119 
L 93.763464 446.380503 
z
" style="fill:#ffffff;stroke:#000000;stroke-linejoin:miter;stroke-width:1.116;"/>
   </g>
   <g id="patch_71">
    <path clip-path="url(#pe7d8ec9540)" d="M 43.146658 405.006766 
L 53.600129 421.732319 
L 32.693187 421.732319 
L 43.146658 405.006766 
z
" style="fill:#ed1c24;stroke:#000000;stroke-linejoin:miter;stroke-width:1.116;"/>
   </g>
   <g id="patch_72">
    <path clip-path="url(#pe7d8ec9540)" d="M 49.74885 433.176119 
L 36.544466 446.380503 
z
" style="fill:#ffffff;stroke:#000000;stroke-linejoin:miter;stroke-width:1.116;"/>
   </g>
   <g id="patch_73">
    <path clip-path="url(#pe7d8ec9540)" d="M 36.544466 433.176119 
L 49.74885 446.380503 
z
" style="fill:#ffffff;stroke:#000000;stroke-linejoin:miter;stroke-width:1.116;"/>
   </g>
  </g>
  <g id="axes_8">
   <g id="line2d_24">
    <path clip-path="url(#p786425e3a2)" d="M 51.929484 469.091325 
L 51.929484 495.335944 
" style="fill:none;stroke:#000000;stroke-linecap:square;stroke-width:1.116;"/>
   </g>
   <g id="line2d_25">
    <path clip-path="url(#p786425e3a2)" d="M 95.670516 469.091325 
L 51.929484 469.091325 
" style="fill:none;stroke:#000000;stroke-linecap:square;stroke-width:1.116;"/>
   </g>
   <g id="patch_74">
    <path clip-path="url(#p786425e3a2)" d="M 54.465097 487.749609 
L 58.229218 487.749609 
L 58.229218 488.656893 
L 53.168244 488.656893 
L 53.168244 487.749609 
Q 53.781643 487.113997 54.840997 486.044392 
Q 55.902058 484.973078 56.173731 484.662107 
Q 56.691447 484.081171 56.896483 483.677934 
Q 57.103228 483.274696 57.103228 482.885128 
Q 57.103228 482.249516 56.657275 481.849695 
Q 56.211321 481.448166 55.495403 481.448166 
Q 54.987939 481.448166 54.42409 481.624156 
Q 53.861949 481.800145 53.221212 482.158958 
L 53.221212 481.06885 
Q 53.872201 480.807429 54.437759 480.674155 
Q 55.005025 480.540882 55.4749 480.540882 
Q 56.71366 480.540882 57.450081 481.161116 
Q 58.186502 481.779641 58.186502 482.815074 
Q 58.186502 483.30716 58.00197 483.747988 
Q 57.819146 484.187107 57.332185 484.785129 
Q 57.198912 484.940614 56.482994 485.680453 
Q 55.768785 486.420291 54.465097 487.749609 
z
M 60.605714 487.300238 
L 61.731704 487.300238 
L 61.731704 488.219483 
L 60.856884 489.928117 
L 60.168304 489.928117 
L 60.605714 488.219483 
z
M 67.237564 484.35797 
Q 68.011575 484.523708 68.445568 485.048258 
Q 68.88127 485.5711 68.88127 486.339986 
Q 68.88127 487.518943 68.069669 488.166515 
Q 67.258067 488.812379 65.763013 488.812379 
Q 65.262383 488.812379 64.730998 488.713278 
Q 64.199612 488.614178 63.634055 488.415976 
L 63.634055 487.375418 
Q 64.081717 487.636839 64.614811 487.770112 
Q 65.149613 487.903386 65.732257 487.903386 
Q 66.745477 487.903386 67.276862 487.503565 
Q 67.808248 487.103745 67.808248 486.339986 
Q 67.808248 485.63432 67.314452 485.237917 
Q 66.820657 484.839805 65.940711 484.839805 
L 65.011214 484.839805 
L 65.011214 483.953024 
L 65.983426 483.953024 
Q 66.777941 483.953024 67.199974 483.635218 
Q 67.622006 483.317412 67.622006 482.71939 
Q 67.622006 482.10599 67.186305 481.777933 
Q 66.752312 481.448166 65.940711 481.448166 
Q 65.496466 481.448166 64.989001 481.545559 
Q 64.481537 481.641242 63.873263 481.842861 
L 63.873263 480.882608 
Q 64.488372 480.711745 65.024883 480.626313 
Q 65.561394 480.540882 66.036394 480.540882 
Q 67.264902 480.540882 67.979111 481.099605 
Q 68.695029 481.65662 68.695029 482.60662 
Q 68.695029 483.26957 68.315712 483.725776 
Q 67.936395 484.181981 67.237564 484.35797 
z
M 71.039061 487.300238 
L 72.165051 487.300238 
L 72.165051 488.219483 
L 71.29023 489.928117 
L 70.601651 489.928117 
L 71.039061 488.219483 
z
M 77.366774 481.624156 
L 74.643211 485.880363 
L 77.366774 485.880363 
z
M 77.08314 480.684407 
L 78.439796 480.684407 
L 78.439796 485.880363 
L 79.577746 485.880363 
L 79.577746 486.777396 
L 78.439796 486.777396 
L 78.439796 488.656893 
L 77.366774 488.656893 
L 77.366774 486.777396 
L 73.76839 486.777396 
L 73.76839 485.736838 
z
M 81.472408 487.300238 
L 82.598397 487.300238 
L 82.598397 488.219483 
L 81.723577 489.928117 
L 81.034997 489.928117 
L 81.472408 488.219483 
z
M 87.277278 484.241783 
Q 86.551109 484.241783 86.125659 484.738996 
Q 85.701918 485.234499 85.701918 486.099068 
Q 85.701918 486.958511 86.125659 487.459141 
Q 86.551109 487.958062 87.277278 487.958062 
Q 88.003448 487.958062 88.427189 487.459141 
Q 88.85093 486.958511 88.85093 486.099068 
Q 88.85093 485.234499 88.427189 484.738996 
Q 88.003448 484.241783 87.277278 484.241783 
z
M 89.418197 480.860396 
L 89.418197 481.842861 
Q 89.011542 481.651494 88.598052 481.550684 
Q 88.184563 481.448166 87.777908 481.448166 
Q 86.710012 481.448166 86.146162 482.16921 
Q 85.584022 482.890254 85.503716 484.347718 
Q 85.818105 483.88297 86.293105 483.635218 
Q 86.769814 483.387466 87.340498 483.387466 
Q 88.541667 483.387466 89.23879 484.117053 
Q 89.935913 484.844931 89.935913 486.099068 
Q 89.935913 487.327576 89.209743 488.070832 
Q 88.483574 488.812379 87.277278 488.812379 
Q 85.893285 488.812379 85.161989 487.753026 
Q 84.430694 486.691964 84.430694 484.679193 
Q 84.430694 482.789444 85.327727 481.665163 
Q 86.22476 480.540882 87.735192 480.540882 
Q 88.141847 480.540882 88.555336 480.621187 
Q 88.968826 480.701493 89.418197 480.860396 
z
"/>
   </g>
   <g id="patch_75">
    <path clip-path="url(#p786425e3a2)" d="M 66.627154 467.847439 
L 66.627154 470.490696 
L 65.639564 470.490696 
L 65.639564 462.273875 
Q 65.639564 459.839072 67.913756 459.839072 
Q 70.232372 459.839072 70.232372 461.894558 
Q 70.232372 463.357149 69.313127 463.891952 
Q 70.808182 464.372078 70.808182 465.797078 
Q 70.808182 468.329274 68.234979 468.329274 
Q 67.102155 468.329274 66.627154 467.847439 
z
M 66.627154 466.565964 
Q 67.22005 467.490335 68.272569 467.490335 
Q 69.810339 467.490335 69.810339 465.814165 
Q 69.810339 464.30715 67.33282 464.425045 
L 67.33282 463.517761 
Q 69.270411 463.517761 69.270411 461.809127 
Q 69.270411 460.640421 68.0214 460.640421 
Q 66.627154 460.640421 66.627154 462.306339 
z
"/>
   </g>
   <g id="patch_76">
    <path clip-path="url(#p786425e3a2)" d="M 82.174015 463.917581 
Q 82.948027 464.083319 83.38202 464.607869 
Q 83.817721 465.130711 83.817721 465.899597 
Q 83.817721 467.078554 83.00612 467.726126 
Q 82.194519 468.37199 80.699464 468.37199 
Q 80.198835 468.37199 79.667449 468.272889 
Q 79.136064 468.173788 78.570506 467.975587 
L 78.570506 466.935029 
Q 79.018168 467.19645 79.551262 467.329723 
Q 80.086065 467.462997 80.668709 467.462997 
Q 81.681929 467.462997 82.213314 467.063176 
Q 82.744699 466.663356 82.744699 465.899597 
Q 82.744699 465.193931 82.250904 464.797528 
Q 81.757109 464.399416 80.877162 464.399416 
L 79.947665 464.399416 
L 79.947665 463.512635 
L 80.919878 463.512635 
Q 81.714393 463.512635 82.136426 463.194829 
Q 82.558458 462.877023 82.558458 462.279001 
Q 82.558458 461.665601 82.122756 461.337544 
Q 81.688763 461.007777 80.877162 461.007777 
Q 80.432917 461.007777 79.925453 461.105169 
Q 79.417989 461.200853 78.809715 461.402472 
L 78.809715 460.442219 
Q 79.424823 460.271356 79.961334 460.185924 
Q 80.497845 460.100493 80.972846 460.100493 
Q 82.201354 460.100493 82.915563 460.659216 
Q 83.63148 461.216231 83.63148 462.166231 
Q 83.63148 462.829181 83.252164 463.285386 
Q 82.872847 463.741592 82.174015 463.917581 
z
"/>
   </g>
   <g id="patch_77">
    <path clip-path="url(#p786425e3a2)" d="M 104.418722 460.343119 
L 104.418722 477.839531 
L 86.922309 477.839531 
L 86.922309 460.343119 
L 104.418722 460.343119 
z
" style="fill:#0090bc;stroke:#000000;stroke-linejoin:miter;stroke-width:1.116;"/>
   </g>
   <g id="patch_78">
    <path clip-path="url(#p786425e3a2)" d="M 51.929484 477.839531 
C 54.249536 477.839531 56.474876 476.917765 58.1154 475.277241 
C 59.755924 473.636717 60.677691 471.411376 60.677691 469.091325 
C 60.677691 466.771273 59.755924 464.545933 58.1154 462.905409 
C 56.474876 461.264885 54.249536 460.343119 51.929484 460.343119 
C 49.609433 460.343119 47.384092 461.264885 45.743568 462.905409 
C 44.103044 464.545933 43.181278 466.771273 43.181278 469.091325 
C 43.181278 471.411376 44.103044 473.636717 45.743568 475.277241 
C 47.384092 476.917765 49.609433 477.839531 51.929484 477.839531 
z
" style="fill:#ffd400;stroke:#000000;stroke-linejoin:miter;stroke-width:1.116;"/>
   </g>
   <g id="patch_79">
    <path clip-path="url(#p786425e3a2)" d="M 58.490639 488.774789 
L 45.368329 501.897099 
z
" style="fill:#ffffff;stroke:#000000;stroke-linejoin:miter;stroke-width:1.116;"/>
   </g>
   <g id="patch_80">
    <path clip-path="url(#p786425e3a2)" d="M 45.368329 488.774789 
L 58.490639 501.897099 
z
" style="fill:#ffffff;stroke:#000000;stroke-linejoin:miter;stroke-width:1.116;"/>
   </g>
  </g>
 </g>
 <defs>
  <clipPath id="pe32e3cb27e">
   <rect height="20.174616" width="111.6" x="18" y="82.164607"/>
  </clipPath>
  <clipPath id="p3f75c5d62f">
   <rect height="46.26383" width="106.308375" x="20.645813" y="124.636596"/>
  </clipPath>
  <clipPath id="pca2dad2447">
   <rect height="46.26383" width="61.886433" x="42.856784" y="180.153191"/>
  </clipPath>
  <clipPath id="p72a0583399">
   <rect height="46.26383" width="19.479507" x="64.060246" y="235.669787"/>
  </clipPath>
  <clipPath id="pe6a18cec5d">
   <rect height="40.810919" width="111.6" x="18" y="293.912838"/>
  </clipPath>
  <clipPath id="p731d4d1584">
   <rect height="46.26383" width="40.438049" x="53.580975" y="346.702979"/>
  </clipPath>
  <clipPath id="pe7d8ec9540">
   <rect height="46.26383" width="90.434988" x="28.582506" y="402.219574"/>
  </clipPath>
  <clipPath id="p786425e3a2">
   <rect height="46.26383" width="67.361189" x="40.119406" y="457.73617"/>
  </clipPath>
 </defs>
</svg>
