<?xml version="1.0" encoding="utf-8" standalone="no"?>
<!DOCTYPE svg PUBLIC "-//W3C//DTD SVG 1.1//EN"
  "http://www.w3.org/Graphics/SVG/1.1/DTD/svg11.dtd">
<!-- Created with matplotlib (http://matplotlib.org/) -->
<svg height="504pt" version="1.1" viewBox="0 0 144 504" width="144pt" xmlns="http://www.w3.org/2000/svg" xmlns:xlink="http://www.w3.org/1999/xlink">
 <defs>
  <style type="text/css">
*{stroke-linecap:butt;stroke-linejoin:round;}
  </style>
 </defs>
 <g id="figure_1">
  <g id="patch_1">
   <path d="M 0 504 
L 144 504 
L 144 0 
L 0 0 
z
" style="fill:#ffffff;"/>
  </g>
  <g id="axes_1">
   <g id="line2d_1">
    <path clip-path="url(#p0713bbc64f)" d="M 64.824202 91.311868 
L 46.872605 91.311868 
" style="fill:none;stroke:#000000;stroke-linecap:square;stroke-width:0.6696;"/>
   </g>
   <g id="line2d_2">
    <path clip-path="url(#p0713bbc64f)" d="M 64.824202 91.311868 
L 64.824202 102.082826 
" style="fill:none;stroke:#000000;stroke-linecap:square;stroke-width:0.6696;"/>
   </g>
   <g id="line2d_3">
    <path clip-path="url(#p0713bbc64f)" d="M 82.775798 91.311868 
L 64.824202 91.311868 
" style="fill:none;stroke:#000000;stroke-linecap:square;stroke-width:0.6696;"/>
   </g>
   <g id="line2d_4">
    <path clip-path="url(#p0713bbc64f)" d="M 100.727395 78.74575 
L 82.775798 91.311868 
" style="fill:none;stroke:#000000;stroke-linecap:square;stroke-width:0.6696;"/>
   </g>
   <g id="line2d_5">
    <path clip-path="url(#p0713bbc64f)" d="M 100.727395 78.74575 
L 82.775798 66.179632 
" style="fill:none;stroke:#000000;stroke-linecap:square;stroke-width:0.6696;"/>
   </g>
   <g id="line2d_6">
    <path clip-path="url(#p0713bbc64f)" d="M 46.872605 91.311868 
L 46.872605 102.082826 
" style="fill:none;stroke:#000000;stroke-linecap:square;stroke-width:0.6696;"/>
   </g>
   <g id="patch_2">
    <path clip-path="url(#p0713bbc64f)" d="M 52.904622 90.801369 
L 52.904622 91.886179 
L 52.499308 91.886179 
L 52.499308 88.513943 
Q 52.499308 87.514684 53.432651 87.514684 
Q 54.384226 87.514684 54.384226 88.358269 
Q 54.384226 88.958526 54.006962 89.178012 
Q 54.620542 89.375059 54.620542 89.959888 
Q 54.620542 90.999117 53.564483 90.999117 
Q 53.099565 90.999117 52.904622 90.801369 
z
M 52.904622 90.275443 
Q 53.14795 90.654811 53.57991 90.654811 
Q 54.211021 90.654811 54.211021 89.9669 
Q 54.211021 89.348412 53.194231 89.396797 
L 53.194231 89.024442 
Q 53.989431 89.024442 53.989431 88.323207 
Q 53.989431 87.843563 53.476829 87.843563 
Q 52.904622 87.843563 52.904622 88.527266 
z
"/>
   </g>
   <g id="patch_3">
    <path clip-path="url(#p0713bbc64f)" d="M 59.160332 88.066556 
L 58.042565 89.81333 
L 59.160332 89.81333 
z
M 59.043928 87.680877 
L 59.600708 87.680877 
L 59.600708 89.81333 
L 60.06773 89.81333 
L 60.06773 90.181478 
L 59.600708 90.181478 
L 59.600708 90.952836 
L 59.160332 90.952836 
L 59.160332 90.181478 
L 57.683533 90.181478 
L 57.683533 89.754426 
z
"/>
   </g>
   <g id="patch_4">
    <path clip-path="url(#p0713bbc64f)" d="M 66.824823 97.577396 
Q 67.142482 97.645416 67.320595 97.860694 
Q 67.49941 98.075272 67.49941 98.390828 
Q 67.49941 98.874679 67.166324 99.140447 
Q 66.833238 99.405513 66.219658 99.405513 
Q 66.014196 99.405513 65.796112 99.364842 
Q 65.578028 99.32417 65.34592 99.242827 
L 65.34592 98.815775 
Q 65.529643 98.923064 65.748428 98.977761 
Q 65.967915 99.032457 66.207035 99.032457 
Q 66.622867 99.032457 66.840951 98.868368 
Q 67.059035 98.704279 67.059035 98.390828 
Q 67.059035 98.101218 66.856378 97.938531 
Q 66.653722 97.775144 66.292586 97.775144 
L 65.911115 97.775144 
L 65.911115 97.411203 
L 66.310117 97.411203 
Q 66.636191 97.411203 66.809396 97.280774 
Q 66.982601 97.150344 66.982601 96.904912 
Q 66.982601 96.653169 66.803786 96.518532 
Q 66.625672 96.383194 66.292586 96.383194 
Q 66.110265 96.383194 65.901999 96.423164 
Q 65.693732 96.462433 65.444093 96.545179 
L 65.444093 96.151085 
Q 65.696537 96.080962 65.916725 96.0459 
Q 66.136912 96.010838 66.331855 96.010838 
Q 66.836043 96.010838 67.129159 96.240142 
Q 67.422976 96.468744 67.422976 96.858631 
Q 67.422976 97.13071 67.267302 97.317939 
Q 67.111628 97.505169 66.824823 97.577396 
z
M 68.384981 98.784921 
L 68.847095 98.784921 
L 68.847095 99.162185 
L 68.488063 99.863419 
L 68.205465 99.863419 
L 68.384981 99.162185 
z
M 70.767337 97.529712 
Q 70.469313 97.529712 70.294705 97.733771 
Q 70.120799 97.937129 70.120799 98.291953 
Q 70.120799 98.644674 70.294705 98.850136 
Q 70.469313 99.054896 70.767337 99.054896 
Q 71.065362 99.054896 71.239268 98.850136 
Q 71.413174 98.644674 71.413174 98.291953 
Q 71.413174 97.937129 71.239268 97.733771 
Q 71.065362 97.529712 70.767337 97.529712 
z
M 71.645984 96.141969 
L 71.645984 96.545179 
Q 71.47909 96.466641 71.309391 96.425268 
Q 71.139693 96.383194 70.972799 96.383194 
Q 70.534527 96.383194 70.30312 96.679115 
Q 70.072414 96.975036 70.039456 97.573188 
Q 70.168483 97.382453 70.363426 97.280774 
Q 70.559071 97.179095 70.793283 97.179095 
Q 71.286251 97.179095 71.572354 97.478522 
Q 71.858458 97.777248 71.858458 98.291953 
Q 71.858458 98.796141 71.560433 99.101178 
Q 71.262409 99.405513 70.767337 99.405513 
Q 70.199337 99.405513 69.899209 98.970748 
Q 69.599081 98.535282 69.599081 97.709228 
Q 69.599081 96.933663 69.967229 96.472251 
Q 70.335377 96.010838 70.955268 96.010838 
Q 71.122162 96.010838 71.29186 96.043796 
Q 71.461559 96.076754 71.645984 96.141969 
z
"/>
   </g>
   <g id="patch_5">
    <path clip-path="url(#p0713bbc64f)" d="M 70.856219 90.801369 
L 70.856219 91.886179 
L 70.450905 91.886179 
L 70.450905 88.513943 
Q 70.450905 87.514684 71.384248 87.514684 
Q 72.335823 87.514684 72.335823 88.358269 
Q 72.335823 88.958526 71.958559 89.178012 
Q 72.572139 89.375059 72.572139 89.959888 
Q 72.572139 90.999117 71.51608 90.999117 
Q 71.051162 90.999117 70.856219 90.801369 
z
M 70.856219 90.275443 
Q 71.099547 90.654811 71.531507 90.654811 
Q 72.162618 90.654811 72.162618 89.9669 
Q 72.162618 89.348412 71.145828 89.396797 
L 71.145828 89.024442 
Q 71.941028 89.024442 71.941028 88.323207 
Q 71.941028 87.843563 71.428426 87.843563 
Q 70.856219 87.843563 70.856219 88.527266 
z
"/>
   </g>
   <g id="patch_6">
    <path clip-path="url(#p0713bbc64f)" d="M 76.276759 90.58048 
L 77.821578 90.58048 
L 77.821578 90.952836 
L 75.744523 90.952836 
L 75.744523 90.58048 
Q 75.996266 90.319621 76.431031 89.880649 
Q 76.866497 89.440975 76.977994 89.31335 
Q 77.190468 89.07493 77.274616 88.909439 
Q 77.359465 88.743948 77.359465 88.584066 
Q 77.359465 88.323207 77.176443 88.159119 
Q 76.993421 87.994328 76.699604 87.994328 
Q 76.491337 87.994328 76.25993 88.066556 
Q 76.029224 88.138783 75.766261 88.286042 
L 75.766261 87.838654 
Q 76.033431 87.731366 76.26554 87.676669 
Q 76.498349 87.621973 76.691189 87.621973 
Q 77.199584 87.621973 77.501816 87.876521 
Q 77.804048 88.130368 77.804048 88.555316 
Q 77.804048 88.757271 77.728314 88.93819 
Q 77.653282 89.118407 77.45343 89.363839 
Q 77.398734 89.427651 77.104917 89.731286 
Q 76.811801 90.03492 76.276759 90.58048 
z
"/>
   </g>
   <g id="patch_7">
    <path clip-path="url(#p0713bbc64f)" d="M 87.271411 86.041391 
L 87.174641 85.5351 
Q 87.076468 85.015485 86.685881 85.015485 
Q 86.392765 85.015485 86.258829 85.25671 
Q 86.089832 85.558942 86.089832 85.957944 
Q 86.089832 86.440393 86.254622 86.670398 
Q 86.420814 86.90461 86.685881 86.90461 
Q 86.979698 86.90461 87.137476 86.437588 
z
M 87.497209 85.371011 
L 87.71389 84.728681 
L 88.073623 84.728681 
L 87.624132 86.058922 
L 87.711786 86.538566 
Q 87.731421 86.645855 87.807855 86.735613 
Q 87.898315 86.840798 87.968438 86.840798 
L 88.161278 86.840798 
L 88.161278 87.183 
L 87.920053 87.183 
Q 87.71389 87.183 87.530167 86.998576 
Q 87.439707 86.906714 87.402542 86.713875 
Q 87.302266 86.957203 87.096103 87.147939 
Q 86.999332 87.237697 86.685881 87.237697 
Q 86.171175 87.237697 85.921535 86.90461 
Q 85.664884 86.560304 85.664884 85.957944 
Q 85.664884 85.31351 85.943274 85.011278 
Q 86.252518 84.673984 86.685881 84.673984 
Q 87.36748 84.673984 87.497209 85.371011 
z
"/>
   </g>
   <g id="patch_8">
    <path clip-path="url(#p0713bbc64f)" d="M 92.872169 81.64886 
Q 93.189828 81.716879 93.367942 81.932158 
Q 93.546757 82.146736 93.546757 82.462291 
Q 93.546757 82.946143 93.21367 83.211911 
Q 92.880584 83.476977 92.267004 83.476977 
Q 92.061542 83.476977 91.843459 83.436306 
Q 91.625375 83.395634 91.393266 83.314291 
L 91.393266 82.887239 
Q 91.57699 82.994528 91.795775 83.049224 
Q 92.015261 83.103921 92.254382 83.103921 
Q 92.670214 83.103921 92.888298 82.939832 
Q 93.106382 82.775743 93.106382 82.462291 
Q 93.106382 82.172682 92.903725 82.009995 
Q 92.701068 81.846608 92.339932 81.846608 
L 91.958461 81.846608 
L 91.958461 81.482667 
L 92.357463 81.482667 
Q 92.683537 81.482667 92.856742 81.352238 
Q 93.029947 81.221808 93.029947 80.976376 
Q 93.029947 80.724633 92.851132 80.589996 
Q 92.673019 80.454658 92.339932 80.454658 
Q 92.157612 80.454658 91.949345 80.494628 
Q 91.741078 80.533897 91.491439 80.616643 
L 91.491439 80.222549 
Q 91.743883 80.152426 91.964071 80.117364 
Q 92.184258 80.082302 92.379202 80.082302 
Q 92.883389 80.082302 93.176505 80.311606 
Q 93.470322 80.540208 93.470322 80.930095 
Q 93.470322 81.202173 93.314648 81.389403 
Q 93.158974 81.576633 92.872169 81.64886 
z
"/>
   </g>
   <g id="patch_9">
    <path clip-path="url(#p0713bbc64f)" d="M 89.835825 68.448826 
L 89.739055 67.942535 
Q 89.640882 67.42292 89.250294 67.42292 
Q 88.957178 67.42292 88.823243 67.664145 
Q 88.654245 67.966377 88.654245 68.365379 
Q 88.654245 68.847828 88.819035 69.077833 
Q 88.985228 69.312045 89.250294 69.312045 
Q 89.544111 69.312045 89.701889 68.845023 
z
M 90.061622 67.778446 
L 90.278304 67.136116 
L 90.638037 67.136116 
L 90.188546 68.466357 
L 90.2762 68.946001 
Q 90.295835 69.05329 90.372269 69.143048 
Q 90.462728 69.248233 90.532852 69.248233 
L 90.725691 69.248233 
L 90.725691 69.590435 
L 90.484467 69.590435 
Q 90.278304 69.590435 90.09458 69.406011 
Q 90.004121 69.314149 89.966956 69.12131 
Q 89.866679 69.364638 89.660516 69.555374 
Q 89.563746 69.645132 89.250294 69.645132 
Q 88.735588 69.645132 88.485949 69.312045 
Q 88.229297 68.967739 88.229297 68.365379 
Q 88.229297 67.720945 88.507687 67.418713 
Q 88.816932 67.081419 89.250294 67.081419 
Q 89.931894 67.081419 90.061622 67.778446 
z
"/>
   </g>
   <g id="patch_10">
    <path clip-path="url(#p0713bbc64f)" d="M 94.848949 71.548281 
Q 94.550924 71.548281 94.376317 71.752341 
Q 94.202411 71.955699 94.202411 72.310523 
Q 94.202411 72.663244 94.376317 72.868706 
Q 94.550924 73.073466 94.848949 73.073466 
Q 95.146973 73.073466 95.320879 72.868706 
Q 95.494785 72.663244 95.494785 72.310523 
Q 95.494785 71.955699 95.320879 71.752341 
Q 95.146973 71.548281 94.848949 71.548281 
z
M 95.727595 70.160539 
L 95.727595 70.563749 
Q 95.560701 70.48521 95.391003 70.443838 
Q 95.221304 70.401763 95.05441 70.401763 
Q 94.616139 70.401763 94.384732 70.697684 
Q 94.154025 70.993605 94.121067 71.591758 
Q 94.250095 71.401022 94.445038 71.299343 
Q 94.640682 71.197664 94.874894 71.197664 
Q 95.367862 71.197664 95.653966 71.497091 
Q 95.940069 71.795817 95.940069 72.310523 
Q 95.940069 72.814711 95.642045 73.119747 
Q 95.34402 73.424083 94.848949 73.424083 
Q 94.280949 73.424083 93.980821 72.989318 
Q 93.680692 72.553851 93.680692 71.727797 
Q 93.680692 70.952232 94.04884 70.49082 
Q 94.416988 70.029408 95.036879 70.029408 
Q 95.203773 70.029408 95.373472 70.062366 
Q 95.543171 70.095324 95.727595 70.160539 
z
"/>
   </g>
   <g id="patch_11">
    <path clip-path="url(#p0713bbc64f)" d="M 47.913236 98.969346 
L 49.458055 98.969346 
L 49.458055 99.341701 
L 47.380999 99.341701 
L 47.380999 98.969346 
Q 47.632743 98.708487 48.067508 98.269514 
Q 48.502974 97.82984 48.614471 97.702215 
Q 48.826944 97.463796 48.911093 97.298305 
Q 48.995942 97.132813 48.995942 96.972932 
Q 48.995942 96.712073 48.81292 96.547984 
Q 48.629898 96.383194 48.336081 96.383194 
Q 48.127814 96.383194 47.896407 96.455421 
Q 47.665701 96.527648 47.402738 96.674907 
L 47.402738 96.22752 
Q 47.669908 96.120231 47.902016 96.065535 
Q 48.134826 96.010838 48.327666 96.010838 
Q 48.836061 96.010838 49.138292 96.265386 
Q 49.440524 96.519233 49.440524 96.944181 
Q 49.440524 97.146137 49.364791 97.327055 
Q 49.289759 97.507272 49.089907 97.752704 
Q 49.035211 97.816517 48.741394 98.120151 
Q 48.448278 98.423786 47.913236 98.969346 
z
M 50.433385 98.784921 
L 50.895498 98.784921 
L 50.895498 99.162185 
L 50.536466 99.863419 
L 50.253869 99.863419 
L 50.433385 99.162185 
z
M 53.030318 96.455421 
L 51.912551 98.202196 
L 53.030318 98.202196 
z
M 52.913913 96.069742 
L 53.470693 96.069742 
L 53.470693 98.202196 
L 53.937715 98.202196 
L 53.937715 98.570343 
L 53.470693 98.570343 
L 53.470693 99.341701 
L 53.030318 99.341701 
L 53.030318 98.570343 
L 51.553519 98.570343 
L 51.553519 98.143292 
z
M 54.715296 98.784921 
L 55.17741 98.784921 
L 55.17741 99.162185 
L 54.818378 99.863419 
L 54.53578 99.863419 
L 54.715296 99.162185 
z
M 57.097652 97.529712 
Q 56.799627 97.529712 56.62502 97.733771 
Q 56.451114 97.937129 56.451114 98.291953 
Q 56.451114 98.644674 56.62502 98.850136 
Q 56.799627 99.054896 57.097652 99.054896 
Q 57.395676 99.054896 57.569583 98.850136 
Q 57.743489 98.644674 57.743489 98.291953 
Q 57.743489 97.937129 57.569583 97.733771 
Q 57.395676 97.529712 57.097652 97.529712 
z
M 57.976298 96.141969 
L 57.976298 96.545179 
Q 57.809405 96.466641 57.639706 96.425268 
Q 57.470007 96.383194 57.303114 96.383194 
Q 56.864842 96.383194 56.633435 96.679115 
Q 56.402729 96.975036 56.369771 97.573188 
Q 56.498798 97.382453 56.693741 97.280774 
Q 56.889385 97.179095 57.123598 97.179095 
Q 57.616565 97.179095 57.902669 97.478522 
Q 58.188772 97.777248 58.188772 98.291953 
Q 58.188772 98.796141 57.890748 99.101178 
Q 57.592723 99.405513 57.097652 99.405513 
Q 56.529652 99.405513 56.229524 98.970748 
Q 55.929396 98.535282 55.929396 97.709228 
Q 55.929396 96.933663 56.297544 96.472251 
Q 56.665692 96.010838 57.285583 96.010838 
Q 57.452476 96.010838 57.622175 96.043796 
Q 57.791874 96.076754 57.976298 96.141969 
z
"/>
   </g>
   <g id="patch_12">
    <path clip-path="url(#p0713bbc64f)" d="M 100.727395 82.336069 
C 101.679559 82.336069 102.592853 81.957771 103.266135 81.284489 
C 103.939416 80.611208 104.317715 79.697914 104.317715 78.74575 
C 104.317715 77.793586 103.939416 76.880292 103.266135 76.207011 
C 102.592853 75.533729 101.679559 75.15543 100.727395 75.15543 
C 99.775232 75.15543 98.861938 75.533729 98.188656 76.207011 
C 97.515375 76.880292 97.137076 77.793586 97.137076 78.74575 
C 97.137076 79.697914 97.515375 80.611208 98.188656 81.284489 
C 98.861938 81.957771 99.775232 82.336069 100.727395 82.336069 
z
" style="fill:#00a651;stroke:#000000;stroke-linejoin:miter;stroke-width:0.6696;"/>
   </g>
   <g id="patch_13">
    <path clip-path="url(#p0713bbc64f)" d="M 82.775798 94.902187 
C 83.727962 94.902187 84.641256 94.523888 85.314538 93.850607 
C 85.987819 93.177325 86.366118 92.264032 86.366118 91.311868 
C 86.366118 90.359704 85.987819 89.44641 85.314538 88.773129 
C 84.641256 88.099847 83.727962 87.721548 82.775798 87.721548 
C 81.823635 87.721548 80.910341 88.099847 80.237059 88.773129 
C 79.563778 89.44641 79.185479 90.359704 79.185479 91.311868 
C 79.185479 92.264032 79.563778 93.177325 80.237059 93.850607 
C 80.910341 94.523888 81.823635 94.902187 82.775798 94.902187 
z
" style="fill:#00a651;stroke:#000000;stroke-linejoin:miter;stroke-width:0.6696;"/>
   </g>
   <g id="patch_14">
    <path clip-path="url(#p0713bbc64f)" d="M 82.775798 69.769951 
C 83.727962 69.769951 84.641256 69.391653 85.314538 68.718371 
C 85.987819 68.04509 86.366118 67.131796 86.366118 66.179632 
C 86.366118 65.227468 85.987819 64.314174 85.314538 63.640893 
C 84.641256 62.967611 83.727962 62.589313 82.775798 62.589313 
C 81.823635 62.589313 80.910341 62.967611 80.237059 63.640893 
C 79.563778 64.314174 79.185479 65.227468 79.185479 66.179632 
C 79.185479 67.131796 79.563778 68.04509 80.237059 68.718371 
C 80.910341 69.391653 81.823635 69.769951 82.775798 69.769951 
z
" style="fill:#00a651;stroke:#000000;stroke-linejoin:miter;stroke-width:0.6696;"/>
   </g>
   <g id="patch_15">
    <path clip-path="url(#p0713bbc64f)" d="M 68.414521 87.721548 
L 68.414521 94.902187 
L 61.233882 94.902187 
L 61.233882 87.721548 
L 68.414521 87.721548 
z
" style="fill:#0090bc;stroke:#000000;stroke-linejoin:miter;stroke-width:0.6696;"/>
   </g>
   <g id="patch_16">
    <path clip-path="url(#p0713bbc64f)" d="M 46.872605 94.902187 
C 47.824768 94.902187 48.738062 94.523888 49.411344 93.850607 
C 50.084625 93.177325 50.462924 92.264032 50.462924 91.311868 
C 50.462924 90.359704 50.084625 89.44641 49.411344 88.773129 
C 48.738062 88.099847 47.824768 87.721548 46.872605 87.721548 
C 45.920441 87.721548 45.007147 88.099847 44.333865 88.773129 
C 43.660584 89.44641 43.282285 90.359704 43.282285 91.311868 
C 43.282285 92.264032 43.660584 93.177325 44.333865 93.850607 
C 45.007147 94.523888 45.920441 94.902187 46.872605 94.902187 
z
" style="fill:#ffd400;stroke:#000000;stroke-linejoin:miter;stroke-width:0.6696;"/>
   </g>
   <g id="patch_17">
    <path clip-path="url(#p0713bbc64f)" d="M 67.516941 99.390086 
L 62.131462 104.775565 
z
" style="fill:#ffffff;stroke:#000000;stroke-linejoin:miter;stroke-width:0.6696;"/>
   </g>
   <g id="patch_18">
    <path clip-path="url(#p0713bbc64f)" d="M 62.131462 99.390086 
L 67.516941 104.775565 
z
" style="fill:#ffffff;stroke:#000000;stroke-linejoin:miter;stroke-width:0.6696;"/>
   </g>
   <g id="patch_19">
    <path clip-path="url(#p0713bbc64f)" d="M 49.565344 99.390086 
L 44.179865 104.775565 
z
" style="fill:#ffffff;stroke:#000000;stroke-linejoin:miter;stroke-width:0.6696;"/>
   </g>
   <g id="patch_20">
    <path clip-path="url(#p0713bbc64f)" d="M 44.179865 99.390086 
L 49.565344 104.775565 
z
" style="fill:#ffffff;stroke:#000000;stroke-linejoin:miter;stroke-width:0.6696;"/>
   </g>
  </g>
  <g id="axes_2">
   <g id="line2d_7">
    <path clip-path="url(#pbfa5ea5814)" d="M 76.553695 139.625078 
L 31.986222 139.625078 
" style="fill:none;stroke:#000000;stroke-linecap:square;stroke-width:0.837;"/>
   </g>
   <g id="line2d_8">
    <path clip-path="url(#pbfa5ea5814)" d="M 121.121169 139.625078 
L 76.553695 139.625078 
" style="fill:none;stroke:#000000;stroke-linecap:square;stroke-width:0.837;"/>
   </g>
   <g id="patch_21">
    <path clip-path="url(#pbfa5ea5814)" d="M 46.961589 138.35769 
L 46.961589 141.050889 
L 45.955339 141.050889 
L 45.955339 132.678819 
Q 45.955339 130.198013 48.2725 130.198013 
Q 50.634924 130.198013 50.634924 132.292336 
Q 50.634924 133.782561 49.698311 134.327468 
Q 51.221613 134.816665 51.221613 136.26859 
Q 51.221613 138.848629 48.599792 138.848629 
Q 47.445564 138.848629 46.961589 138.35769 
z
M 46.961589 137.052003 
Q 47.565688 137.993839 48.638092 137.993839 
Q 50.204918 137.993839 50.204918 136.285999 
Q 50.204918 134.750511 47.680588 134.870634 
L 47.680588 133.946207 
Q 49.654788 133.946207 49.654788 132.20529 
Q 49.654788 131.014503 48.382178 131.014503 
Q 46.961589 131.014503 46.961589 132.711897 
z
"/>
   </g>
   <g id="patch_22">
    <path clip-path="url(#pbfa5ea5814)" d="M 60.418877 137.809302 
L 64.254117 137.809302 
L 64.254117 138.733728 
L 59.097521 138.733728 
L 59.097521 137.809302 
Q 59.72251 137.16168 60.801879 136.071866 
Q 61.882988 134.980312 62.159794 134.663465 
Q 62.687292 134.071553 62.896202 133.660697 
Q 63.106853 133.24984 63.106853 132.852911 
Q 63.106853 132.20529 62.652474 131.797915 
Q 62.198094 131.3888 61.46865 131.3888 
Q 60.951598 131.3888 60.377095 131.568114 
Q 59.804334 131.747429 59.15149 132.113021 
L 59.15149 131.002316 
Q 59.814779 130.735956 60.391023 130.600165 
Q 60.969007 130.464373 61.447759 130.464373 
Q 62.709924 130.464373 63.460259 131.096326 
Q 64.210594 131.726538 64.210594 132.781533 
Q 64.210594 133.282918 64.022575 133.732074 
Q 63.836297 134.17949 63.340136 134.788811 
Q 63.204344 134.947234 62.4749 135.701051 
Q 61.747197 136.454868 60.418877 137.809302 
z
"/>
   </g>
   <g id="patch_23">
    <path clip-path="url(#pbfa5ea5814)" d="M 122.318049 139.973261 
L 122.077803 138.716319 
Q 121.834074 137.4263 120.864384 137.4263 
Q 120.13668 137.4263 119.804165 138.025175 
Q 119.384604 138.77551 119.384604 139.766092 
Q 119.384604 140.963843 119.79372 141.534864 
Q 120.206317 142.11633 120.864384 142.11633 
Q 121.593828 142.11633 121.985534 140.956879 
z
M 122.878624 138.308945 
L 123.416568 136.714265 
L 124.309658 136.714265 
L 123.19373 140.016784 
L 123.411345 141.207571 
Q 123.460091 141.473932 123.649851 141.696769 
Q 123.874429 141.957907 124.048521 141.957907 
L 124.527273 141.957907 
L 124.527273 142.807474 
L 123.928397 142.807474 
Q 123.416568 142.807474 122.960447 142.349613 
Q 122.735869 142.121553 122.643601 141.642801 
Q 122.394649 142.246899 121.88282 142.720428 
Q 121.642573 142.943266 120.864384 142.943266 
Q 119.58655 142.943266 118.966784 142.11633 
Q 118.329608 141.26154 118.329608 139.766092 
Q 118.329608 138.16619 119.020752 137.415854 
Q 119.788497 136.578473 120.864384 136.578473 
Q 122.556555 136.578473 122.878624 138.308945 
z
"/>
   </g>
   <g id="patch_24">
    <path clip-path="url(#pbfa5ea5814)" d="M 76.553695 148.538573 
C 78.917582 148.538573 81.184968 147.599391 82.856488 145.92787 
C 84.528008 144.25635 85.46719 141.988964 85.46719 139.625078 
C 85.46719 137.261192 84.528008 134.993806 82.856488 133.322285 
C 81.184968 131.650765 78.917582 130.711583 76.553695 130.711583 
C 74.189809 130.711583 71.922423 131.650765 70.250903 133.322285 
C 68.579383 134.993806 67.640201 137.261192 67.640201 139.625078 
C 67.640201 141.988964 68.579383 144.25635 70.250903 145.92787 
C 71.922423 147.599391 74.189809 148.538573 76.553695 148.538573 
z
" style="fill:#00a651;stroke:#000000;stroke-linejoin:miter;stroke-width:0.837;"/>
   </g>
   <g id="patch_25">
    <path clip-path="url(#pbfa5ea5814)" d="M 40.899717 130.711583 
L 40.899717 148.538573 
L 23.072727 148.538573 
L 23.072727 130.711583 
L 40.899717 130.711583 
z
" style="fill:#0090bc;stroke:#000000;stroke-linejoin:miter;stroke-width:0.837;"/>
   </g>
  </g>
  <g id="axes_3">
   <g id="line2d_9">
    <path clip-path="url(#p532d3845c4)" d="M 91.528638 183.241481 
L 47.654249 183.241481 
" style="fill:none;stroke:#000000;stroke-linecap:square;stroke-width:1.116;"/>
   </g>
   <g id="line2d_10">
    <path clip-path="url(#p532d3845c4)" d="M 91.528638 183.241481 
L 91.528638 209.566114 
" style="fill:none;stroke:#000000;stroke-linecap:square;stroke-width:1.116;"/>
   </g>
   <g id="line2d_11">
    <path clip-path="url(#p532d3845c4)" d="M 47.654249 183.241481 
L 47.654249 209.566114 
" style="fill:none;stroke:#000000;stroke-linecap:square;stroke-width:1.116;"/>
   </g>
   <g id="patch_26">
    <path clip-path="url(#p532d3845c4)" d="M 62.396729 181.993803 
L 62.396729 184.645119 
L 61.406128 184.645119 
L 61.406128 176.403247 
Q 61.406128 173.96102 63.687253 173.96102 
Q 66.012939 173.96102 66.012939 176.022773 
Q 66.012939 177.489823 65.090891 178.026256 
Q 66.590504 178.507846 66.590504 179.937192 
Q 66.590504 182.477107 64.009456 182.477107 
Q 62.873178 182.477107 62.396729 181.993803 
z
M 62.396729 180.708421 
Q 62.991433 181.63561 64.04716 181.63561 
Q 65.589619 181.63561 65.589619 179.95433 
Q 65.589619 178.44272 63.104547 178.560975 
L 63.104547 177.650925 
Q 65.048045 177.650925 65.048045 175.937081 
Q 65.048045 174.764812 63.795226 174.764812 
Q 62.396729 174.764812 62.396729 176.43581 
z
"/>
   </g>
   <g id="patch_27">
    <path clip-path="url(#p532d3845c4)" d="M 77.685925 175.309815 
L 74.954059 179.578998 
L 77.685925 179.578998 
z
M 77.401427 174.367201 
L 78.762219 174.367201 
L 78.762219 179.578998 
L 79.903639 179.578998 
L 79.903639 180.478766 
L 78.762219 180.478766 
L 78.762219 182.363994 
L 77.685925 182.363994 
L 77.685925 180.478766 
L 74.076571 180.478766 
L 74.076571 179.435035 
z
"/>
   </g>
   <g id="patch_28">
    <path clip-path="url(#p532d3845c4)" d="M 96.418233 198.554671 
Q 97.194604 198.720914 97.62992 199.247064 
Q 98.06695 199.7715 98.06695 200.54273 
Q 98.06695 201.725281 97.252874 202.374828 
Q 96.438799 203.022661 94.939186 203.022661 
Q 94.43703 203.022661 93.904025 202.923258 
Q 93.371019 202.823855 92.803737 202.625049 
L 92.803737 201.581319 
Q 93.252764 201.843537 93.787483 201.977216 
Q 94.323916 202.110896 94.908337 202.110896 
Q 95.924646 202.110896 96.457651 201.709857 
Q 96.990656 201.308817 96.990656 200.54273 
Q 96.990656 199.834912 96.495356 199.437301 
Q 96.000055 199.037975 95.117426 199.037975 
L 94.185095 199.037975 
L 94.185095 198.14849 
L 95.160272 198.14849 
Q 95.957209 198.14849 96.380528 197.829716 
Q 96.803847 197.510941 96.803847 196.911096 
Q 96.803847 196.295826 96.366817 195.966768 
Q 95.931501 195.635996 95.117426 195.635996 
Q 94.671826 195.635996 94.162815 195.733685 
Q 93.653803 195.82966 93.043675 196.031894 
L 93.043675 195.068714 
Q 93.660659 194.89733 94.198806 194.811638 
Q 94.736952 194.725945 95.213401 194.725945 
Q 96.445654 194.725945 97.162041 195.286372 
Q 97.880141 195.845085 97.880141 196.797982 
Q 97.880141 197.462953 97.499668 197.920549 
Q 97.119195 198.378145 96.418233 198.554671 
z
M 100.23132 201.505909 
L 101.360743 201.505909 
L 101.360743 202.427957 
L 100.483255 204.1418 
L 99.792576 204.1418 
L 100.23132 202.427957 
z
M 106.053888 198.43813 
Q 105.325505 198.43813 104.898758 198.936858 
Q 104.473725 199.433873 104.473725 200.301078 
Q 104.473725 201.163141 104.898758 201.665297 
Q 105.325505 202.165739 106.053888 202.165739 
Q 106.782272 202.165739 107.207305 201.665297 
Q 107.632338 201.163141 107.632338 200.301078 
Q 107.632338 199.433873 107.207305 198.936858 
Q 106.782272 198.43813 106.053888 198.43813 
z
M 108.201334 195.046434 
L 108.201334 196.031894 
Q 107.793439 195.839943 107.378689 195.738827 
Q 106.963939 195.635996 106.556044 195.635996 
Q 105.484892 195.635996 104.919324 196.359238 
Q 104.355469 197.08248 104.274919 198.544388 
Q 104.590266 198.078223 105.066714 197.829716 
Q 105.544877 197.581208 106.1173 197.581208 
Q 107.322132 197.581208 108.02138 198.313019 
Q 108.720628 199.043117 108.720628 200.301078 
Q 108.720628 201.533331 107.992245 202.278853 
Q 107.263862 203.022661 106.053888 203.022661 
Q 104.665675 203.022661 103.93215 201.960078 
Q 103.198625 200.895781 103.198625 198.876874 
Q 103.198625 196.981363 104.098393 195.853654 
Q 104.998161 194.725945 106.513198 194.725945 
Q 106.921093 194.725945 107.335843 194.806496 
Q 107.750593 194.887047 108.201334 195.046434 
z
"/>
   </g>
   <g id="patch_29">
    <path clip-path="url(#p532d3845c4)" d="M 50.197593 201.95665 
L 53.97319 201.95665 
L 53.97319 202.866701 
L 48.896786 202.866701 
L 48.896786 201.95665 
Q 49.512055 201.319101 50.574638 200.246235 
Q 51.638935 199.171655 51.911436 198.859735 
Q 52.430731 198.277029 52.636392 197.872562 
Q 52.843767 197.468095 52.843767 197.077338 
Q 52.843767 196.439789 52.396454 196.038749 
Q 51.949141 195.635996 51.23104 195.635996 
Q 50.722029 195.635996 50.156461 195.812522 
Q 49.592606 195.989048 48.949915 196.348955 
L 48.949915 195.255523 
Q 49.602889 194.993305 50.170171 194.859625 
Q 50.739167 194.725945 51.210474 194.725945 
Q 52.453011 194.725945 53.191677 195.34807 
Q 53.930343 195.968482 53.930343 197.007071 
Q 53.930343 197.500658 53.745248 197.942829 
Q 53.561867 198.383287 53.073422 198.983132 
Q 52.939742 199.139092 52.221642 199.881186 
Q 51.505255 200.62328 50.197593 201.95665 
z
M 56.356931 201.505909 
L 57.486354 201.505909 
L 57.486354 202.427957 
L 56.608866 204.1418 
L 55.918187 204.1418 
L 56.356931 202.427957 
z
M 63.009 198.554671 
Q 63.785371 198.720914 64.220687 199.247064 
Q 64.657717 199.7715 64.657717 200.54273 
Q 64.657717 201.725281 63.843642 202.374828 
Q 63.029566 203.022661 61.529953 203.022661 
Q 61.027797 203.022661 60.494792 202.923258 
Q 59.961787 202.823855 59.394504 202.625049 
L 59.394504 201.581319 
Q 59.843531 201.843537 60.37825 201.977216 
Q 60.914683 202.110896 61.499104 202.110896 
Q 62.515413 202.110896 63.048418 201.709857 
Q 63.581424 201.308817 63.581424 200.54273 
Q 63.581424 199.834912 63.086123 199.437301 
Q 62.590822 199.037975 61.708193 199.037975 
L 60.775862 199.037975 
L 60.775862 198.14849 
L 61.751039 198.14849 
Q 62.547976 198.14849 62.971295 197.829716 
Q 63.394615 197.510941 63.394615 196.911096 
Q 63.394615 196.295826 62.957585 195.966768 
Q 62.522268 195.635996 61.708193 195.635996 
Q 61.262594 195.635996 60.753582 195.733685 
Q 60.244571 195.82966 59.634442 196.031894 
L 59.634442 195.068714 
Q 60.251426 194.89733 60.789573 194.811638 
Q 61.32772 194.725945 61.804168 194.725945 
Q 63.036421 194.725945 63.752808 195.286372 
Q 64.470908 195.845085 64.470908 196.797982 
Q 64.470908 197.462953 64.090435 197.920549 
Q 63.709962 198.378145 63.009 198.554671 
z
M 66.822087 201.505909 
L 67.95151 201.505909 
L 67.95151 202.427957 
L 67.074022 204.1418 
L 66.383343 204.1418 
L 66.822087 202.427957 
z
M 73.169091 195.812522 
L 70.437225 200.081706 
L 73.169091 200.081706 
z
M 72.884593 194.869908 
L 74.245385 194.869908 
L 74.245385 200.081706 
L 75.386805 200.081706 
L 75.386805 200.981473 
L 74.245385 200.981473 
L 74.245385 202.866701 
L 73.169091 202.866701 
L 73.169091 200.981473 
L 69.559737 200.981473 
L 69.559737 199.937743 
z
M 77.287243 201.505909 
L 78.416665 201.505909 
L 78.416665 202.427957 
L 77.539178 204.1418 
L 76.848499 204.1418 
L 77.287243 202.427957 
z
M 83.109811 198.43813 
Q 82.381428 198.43813 81.954681 198.936858 
Q 81.529648 199.433873 81.529648 200.301078 
Q 81.529648 201.163141 81.954681 201.665297 
Q 82.381428 202.165739 83.109811 202.165739 
Q 83.838194 202.165739 84.263228 201.665297 
Q 84.688261 201.163141 84.688261 200.301078 
Q 84.688261 199.433873 84.263228 198.936858 
Q 83.838194 198.43813 83.109811 198.43813 
z
M 85.257257 195.046434 
L 85.257257 196.031894 
Q 84.849362 195.839943 84.434612 195.738827 
Q 84.019862 195.635996 83.611967 195.635996 
Q 82.540815 195.635996 81.975247 196.359238 
Q 81.411392 197.08248 81.330842 198.544388 
Q 81.646189 198.078223 82.122637 197.829716 
Q 82.6008 197.581208 83.173223 197.581208 
Q 84.378055 197.581208 85.077303 198.313019 
Q 85.776551 199.043117 85.776551 200.301078 
Q 85.776551 201.533331 85.048168 202.278853 
Q 84.319784 203.022661 83.109811 203.022661 
Q 81.721598 203.022661 80.988073 201.960078 
Q 80.254548 200.895781 80.254548 198.876874 
Q 80.254548 196.981363 81.154316 195.853654 
Q 82.054084 194.725945 83.569121 194.725945 
Q 83.977016 194.725945 84.391766 194.806496 
Q 84.806516 194.887047 85.257257 195.046434 
z
"/>
   </g>
   <g id="patch_30">
    <path clip-path="url(#p532d3845c4)" d="M 100.303515 174.466604 
L 100.303515 192.016359 
L 82.75376 192.016359 
L 82.75376 174.466604 
L 100.303515 174.466604 
z
" style="fill:#0090bc;stroke:#000000;stroke-linejoin:miter;stroke-width:1.116;"/>
   </g>
   <g id="patch_31">
    <path clip-path="url(#p532d3845c4)" d="M 47.654249 192.016359 
C 49.981374 192.016359 52.213499 191.091783 53.859025 189.446257 
C 55.504551 187.800731 56.429127 185.568606 56.429127 183.241481 
C 56.429127 180.914357 55.504551 178.682232 53.859025 177.036706 
C 52.213499 175.39118 49.981374 174.466604 47.654249 174.466604 
C 45.327125 174.466604 43.095 175.39118 41.449474 177.036706 
C 39.803948 178.682232 38.879372 180.914357 38.879372 183.241481 
C 38.879372 185.568606 39.803948 187.800731 41.449474 189.446257 
C 43.095 191.091783 45.327125 192.016359 47.654249 192.016359 
z
" style="fill:#ffd400;stroke:#000000;stroke-linejoin:miter;stroke-width:1.116;"/>
   </g>
   <g id="patch_32">
    <path clip-path="url(#p532d3845c4)" d="M 98.109796 202.984956 
L 84.947479 216.147273 
z
" style="fill:#ffffff;stroke:#000000;stroke-linejoin:miter;stroke-width:1.116;"/>
   </g>
   <g id="patch_33">
    <path clip-path="url(#p532d3845c4)" d="M 84.947479 202.984956 
L 98.109796 216.147273 
z
" style="fill:#ffffff;stroke:#000000;stroke-linejoin:miter;stroke-width:1.116;"/>
   </g>
   <g id="patch_34">
    <path clip-path="url(#p532d3845c4)" d="M 54.235408 202.984956 
L 41.073091 216.147273 
z
" style="fill:#ffffff;stroke:#000000;stroke-linejoin:miter;stroke-width:1.116;"/>
   </g>
   <g id="patch_35">
    <path clip-path="url(#p532d3845c4)" d="M 41.073091 202.984956 
L 54.235408 216.147273 
z
" style="fill:#ffffff;stroke:#000000;stroke-linejoin:miter;stroke-width:1.116;"/>
   </g>
  </g>
  <g id="axes_4">
   <g id="line2d_12">
    <path clip-path="url(#p7230d13e37)" d="M 81.003082 258.435127 
L 81.003082 269.153527 
" style="fill:none;stroke:#000000;stroke-linecap:square;stroke-width:0.6696;"/>
   </g>
   <g id="line2d_13">
    <path clip-path="url(#p7230d13e37)" d="M 81.003082 258.435127 
L 63.139083 258.435127 
" style="fill:none;stroke:#000000;stroke-linecap:square;stroke-width:0.6696;"/>
   </g>
   <g id="line2d_14">
    <path clip-path="url(#p7230d13e37)" d="M 63.139083 258.435127 
L 63.139083 269.153527 
" style="fill:none;stroke:#000000;stroke-linecap:square;stroke-width:0.6696;"/>
   </g>
   <g id="line2d_15">
    <path clip-path="url(#p7230d13e37)" d="M 98.867081 245.930328 
L 81.003082 258.435127 
" style="fill:none;stroke:#000000;stroke-linecap:square;stroke-width:0.6696;"/>
   </g>
   <g id="line2d_16">
    <path clip-path="url(#p7230d13e37)" d="M 98.867081 245.930328 
L 81.003082 233.425528 
" style="fill:none;stroke:#000000;stroke-linecap:square;stroke-width:0.6696;"/>
   </g>
   <g id="line2d_17">
    <path clip-path="url(#p7230d13e37)" d="M 98.867081 245.930328 
L 98.867081 256.648727 
" style="fill:none;stroke:#000000;stroke-linecap:square;stroke-width:0.6696;"/>
   </g>
   <g id="line2d_18">
    <path clip-path="url(#p7230d13e37)" d="M 81.003082 233.425528 
L 63.139083 233.425528 
" style="fill:none;stroke:#000000;stroke-linecap:square;stroke-width:0.6696;"/>
   </g>
   <g id="line2d_19">
    <path clip-path="url(#p7230d13e37)" d="M 63.139083 233.425528 
L 45.275084 233.425528 
" style="fill:none;stroke:#000000;stroke-linecap:square;stroke-width:0.6696;"/>
   </g>
   <g id="line2d_20">
    <path clip-path="url(#p7230d13e37)" d="M 63.139083 233.425528 
L 63.139083 244.143928 
" style="fill:none;stroke:#000000;stroke-linecap:square;stroke-width:0.6696;"/>
   </g>
   <g id="patch_36">
    <path clip-path="url(#p7230d13e37)" d="M 82.993941 264.670081 
Q 83.31005 264.737769 83.487294 264.951998 
Q 83.665237 265.165528 83.665237 265.479544 
Q 83.665237 265.961034 83.333776 266.225505 
Q 83.002315 266.489279 82.391729 266.489279 
Q 82.18727 266.489279 81.97025 266.448805 
Q 81.75323 266.408332 81.522254 266.327386 
L 81.522254 265.902418 
Q 81.705081 266.009184 81.922799 266.063613 
Q 82.141214 266.118042 82.379168 266.118042 
Q 82.792971 266.118042 83.009991 265.954754 
Q 83.22701 265.791466 83.22701 265.479544 
Q 83.22701 265.191347 83.025343 265.029455 
Q 82.823675 264.866865 82.464301 264.866865 
L 82.084691 264.866865 
L 82.084691 264.5047 
L 82.481747 264.5047 
Q 82.806229 264.5047 82.978589 264.374907 
Q 83.150949 264.245114 83.150949 264.000879 
Q 83.150949 263.750365 82.973007 263.616385 
Q 82.795762 263.481707 82.464301 263.481707 
Q 82.28287 263.481707 82.07562 263.521482 
Q 81.868369 263.56056 81.619948 263.642901 
L 81.619948 263.250731 
Q 81.871161 263.18095 82.090274 263.146059 
Q 82.309387 263.111168 82.503379 263.111168 
Q 83.005106 263.111168 83.296792 263.339353 
Q 83.589175 263.56684 83.589175 263.954824 
Q 83.589175 264.225575 83.434261 264.411891 
Q 83.279346 264.598207 82.993941 264.670081 
z
M 84.546486 265.871714 
L 85.006345 265.871714 
L 85.006345 266.247138 
L 84.649065 266.94495 
L 84.367846 266.94495 
L 84.546486 266.247138 
z
M 87.130748 263.553581 
L 86.018435 265.291832 
L 87.130748 265.291832 
z
M 87.014911 263.169785 
L 87.568974 263.169785 
L 87.568974 265.291832 
L 88.033717 265.291832 
L 88.033717 265.658184 
L 87.568974 265.658184 
L 87.568974 266.425778 
L 87.130748 266.425778 
L 87.130748 265.658184 
L 85.661155 265.658184 
L 85.661155 265.233216 
z
M 88.807504 265.871714 
L 89.267362 265.871714 
L 89.267362 266.247138 
L 88.910082 266.94495 
L 88.628864 266.94495 
L 88.807504 266.247138 
z
M 91.178234 264.62263 
Q 90.881664 264.62263 90.707909 264.825694 
Q 90.534851 265.028059 90.534851 265.381152 
Q 90.534851 265.732152 90.707909 265.936611 
Q 90.881664 266.140372 91.178234 266.140372 
Q 91.474805 266.140372 91.647862 265.936611 
Q 91.82092 265.732152 91.82092 265.381152 
Q 91.82092 265.028059 91.647862 264.825694 
Q 91.474805 264.62263 91.178234 264.62263 
z
M 92.052594 263.241659 
L 92.052594 263.642901 
Q 91.886514 263.564746 91.717644 263.523576 
Q 91.548773 263.481707 91.382694 263.481707 
Q 90.946561 263.481707 90.716283 263.776184 
Q 90.486702 264.07066 90.453905 264.665895 
Q 90.582303 264.47609 90.776295 264.374907 
Q 90.970984 264.273724 91.204054 264.273724 
Q 91.694616 264.273724 91.979323 264.57169 
Q 92.264031 264.868958 92.264031 265.381152 
Q 92.264031 265.882879 91.96746 266.186428 
Q 91.67089 266.489279 91.178234 266.489279 
Q 90.613006 266.489279 90.314343 266.056635 
Q 90.015679 265.623293 90.015679 264.80127 
Q 90.015679 264.02949 90.38203 263.570329 
Q 90.748382 263.111168 91.365248 263.111168 
Q 91.531328 263.111168 91.700198 263.143966 
Q 91.869069 263.176763 92.052594 263.241659 
z
"/>
   </g>
   <g id="patch_37">
    <path clip-path="url(#p7230d13e37)" d="M 69.141666 257.92712 
L 69.141666 259.006635 
L 68.73833 259.006635 
L 68.73833 255.650855 
Q 68.73833 254.656472 69.667118 254.656472 
Q 70.61405 254.656472 70.61405 255.495941 
Q 70.61405 256.093268 70.238627 256.311684 
Q 70.849213 256.507769 70.849213 257.089745 
Q 70.849213 258.123903 69.798307 258.123903 
Q 69.335658 258.123903 69.141666 257.92712 
z
M 69.141666 257.40376 
Q 69.383807 257.781277 69.813659 257.781277 
Q 70.44169 257.781277 70.44169 257.096723 
Q 70.44169 256.481252 69.429862 256.529401 
L 69.429862 256.158863 
Q 70.221182 256.158863 70.221182 255.46105 
Q 70.221182 254.983747 69.711081 254.983747 
Q 69.141666 254.983747 69.141666 255.664114 
z
"/>
   </g>
   <g id="patch_38">
    <path clip-path="url(#p7230d13e37)" d="M 74.535756 257.707309 
L 76.073037 257.707309 
L 76.073037 258.077847 
L 74.006116 258.077847 
L 74.006116 257.707309 
Q 74.256631 257.447722 74.689275 257.010892 
Q 75.122616 256.573363 75.233568 256.446361 
Q 75.445006 256.209105 75.528743 256.044421 
Q 75.613178 255.879738 75.613178 255.720636 
Q 75.613178 255.46105 75.431049 255.297762 
Q 75.24892 255.133776 74.956537 255.133776 
Q 74.749287 255.133776 74.519009 255.205651 
Q 74.289428 255.277526 74.027749 255.424066 
L 74.027749 254.978862 
Q 74.293615 254.872097 74.524591 254.817667 
Q 74.756265 254.763238 74.948163 254.763238 
Q 75.454077 254.763238 75.754834 255.016544 
Q 76.055592 255.269152 76.055592 255.692026 
Q 76.055592 255.892996 75.980228 256.073032 
Q 75.905562 256.25237 75.706685 256.496604 
Q 75.652256 256.560105 75.359873 256.862258 
Q 75.068187 257.16441 74.535756 257.707309 
z
"/>
   </g>
   <g id="patch_39">
    <path clip-path="url(#p7230d13e37)" d="M 65.129942 264.670081 
Q 65.446051 264.737769 65.623295 264.951998 
Q 65.801237 265.165528 65.801237 265.479544 
Q 65.801237 265.961034 65.469776 266.225505 
Q 65.138316 266.489279 64.52773 266.489279 
Q 64.323271 266.489279 64.106251 266.448805 
Q 63.889231 266.408332 63.658255 266.327386 
L 63.658255 265.902418 
Q 63.841082 266.009184 64.0588 266.063613 
Q 64.277215 266.118042 64.515169 266.118042 
Q 64.928972 266.118042 65.145991 265.954754 
Q 65.363011 265.791466 65.363011 265.479544 
Q 65.363011 265.191347 65.161343 265.029455 
Q 64.959676 264.866865 64.600302 264.866865 
L 64.220692 264.866865 
L 64.220692 264.5047 
L 64.617747 264.5047 
Q 64.94223 264.5047 65.11459 264.374907 
Q 65.28695 264.245114 65.28695 264.000879 
Q 65.28695 263.750365 65.109007 263.616385 
Q 64.931763 263.481707 64.600302 263.481707 
Q 64.418871 263.481707 64.211621 263.521482 
Q 64.00437 263.56056 63.755949 263.642901 
L 63.755949 263.250731 
Q 64.007161 263.18095 64.226275 263.146059 
Q 64.445388 263.111168 64.63938 263.111168 
Q 65.141107 263.111168 65.432792 263.339353 
Q 65.725176 263.56684 65.725176 263.954824 
Q 65.725176 264.225575 65.570261 264.411891 
Q 65.415347 264.598207 65.129942 264.670081 
z
M 66.682487 265.871714 
L 67.142346 265.871714 
L 67.142346 266.247138 
L 66.785066 266.94495 
L 66.503847 266.94495 
L 66.682487 266.247138 
z
M 69.053218 264.62263 
Q 68.756648 264.62263 68.582892 264.825694 
Q 68.409835 265.028059 68.409835 265.381152 
Q 68.409835 265.732152 68.582892 265.936611 
Q 68.756648 266.140372 69.053218 266.140372 
Q 69.349788 266.140372 69.522846 265.936611 
Q 69.695903 265.732152 69.695903 265.381152 
Q 69.695903 265.028059 69.522846 264.825694 
Q 69.349788 264.62263 69.053218 264.62263 
z
M 69.927577 263.241659 
L 69.927577 263.642901 
Q 69.761498 263.564746 69.592627 263.523576 
Q 69.423756 263.481707 69.257677 263.481707 
Q 68.821544 263.481707 68.591266 263.776184 
Q 68.361686 264.07066 68.328889 264.665895 
Q 68.457286 264.47609 68.651278 264.374907 
Q 68.845968 264.273724 69.079037 264.273724 
Q 69.569599 264.273724 69.854307 264.57169 
Q 70.139014 264.868958 70.139014 265.381152 
Q 70.139014 265.882879 69.842444 266.186428 
Q 69.545874 266.489279 69.053218 266.489279 
Q 68.48799 266.489279 68.189326 266.056635 
Q 67.890662 265.623293 67.890662 264.80127 
Q 67.890662 264.02949 68.257014 263.570329 
Q 68.623365 263.111168 69.240232 263.111168 
Q 69.406311 263.111168 69.575182 263.143966 
Q 69.744052 263.176763 69.927577 263.241659 
z
"/>
   </g>
   <g id="patch_40">
    <path clip-path="url(#p7230d13e37)" d="M 85.476758 253.190368 
L 85.38046 252.686548 
Q 85.282766 252.169469 84.894084 252.169469 
Q 84.602399 252.169469 84.469117 252.409516 
Q 84.300944 252.710274 84.300944 253.107329 
Q 84.300944 253.587424 84.46493 253.816306 
Q 84.630311 254.049376 84.894084 254.049376 
Q 85.186468 254.049376 85.343476 253.584633 
z
M 85.701453 252.52326 
L 85.917077 251.884064 
L 86.275055 251.884064 
L 85.827757 253.207814 
L 85.914984 253.685118 
Q 85.934523 253.791883 86.010584 253.881203 
Q 86.100602 253.985875 86.170383 253.985875 
L 86.362282 253.985875 
L 86.362282 254.326407 
L 86.122234 254.326407 
Q 85.917077 254.326407 85.734251 254.142883 
Q 85.644233 254.051469 85.607249 253.859571 
Q 85.507461 254.101712 85.302305 254.291517 
Q 85.206006 254.380837 84.894084 254.380837 
Q 84.38189 254.380837 84.133469 254.049376 
Q 83.878069 253.70675 83.878069 253.107329 
Q 83.878069 252.466039 84.155101 252.165282 
Q 84.462836 251.829634 84.894084 251.829634 
Q 85.572358 251.829634 85.701453 252.52326 
z
"/>
   </g>
   <g id="patch_41">
    <path clip-path="url(#p7230d13e37)" d="M 91.050186 248.819271 
Q 91.366295 248.886959 91.543539 249.101187 
Q 91.721481 249.314718 91.721481 249.628734 
Q 91.721481 250.110224 91.390021 250.374695 
Q 91.05856 250.638468 90.447974 250.638468 
Q 90.243515 250.638468 90.026495 250.597995 
Q 89.809475 250.557522 89.578499 250.476576 
L 89.578499 250.051608 
Q 89.761326 250.158373 89.979044 250.212803 
Q 90.197459 250.267232 90.435413 250.267232 
Q 90.849216 250.267232 91.066236 250.103944 
Q 91.283255 249.940656 91.283255 249.628734 
Q 91.283255 249.340537 91.081587 249.178645 
Q 90.87992 249.016054 90.520546 249.016054 
L 90.140936 249.016054 
L 90.140936 248.65389 
L 90.537992 248.65389 
Q 90.862474 248.65389 91.034834 248.524097 
Q 91.207194 248.394303 91.207194 248.150069 
Q 91.207194 247.899554 91.029252 247.765574 
Q 90.852007 247.630897 90.520546 247.630897 
Q 90.339115 247.630897 90.131865 247.670672 
Q 89.924614 247.709749 89.676193 247.792091 
L 89.676193 247.399921 
Q 89.927406 247.330139 90.146519 247.295249 
Q 90.365632 247.260358 90.559624 247.260358 
Q 91.061351 247.260358 91.353037 247.488543 
Q 91.64542 247.71603 91.64542 248.104013 
Q 91.64542 248.374765 91.490506 248.561081 
Q 91.335591 248.747396 91.050186 248.819271 
z
"/>
   </g>
   <g id="patch_42">
    <path clip-path="url(#p7230d13e37)" d="M 88.028658 235.683649 
L 87.93236 235.179829 
Q 87.834666 234.66275 87.445984 234.66275 
Q 87.154299 234.66275 87.021017 234.902797 
Q 86.852844 235.203554 86.852844 235.60061 
Q 86.852844 236.080705 87.01683 236.309587 
Q 87.182211 236.542656 87.445984 236.542656 
Q 87.738368 236.542656 87.895376 236.077913 
z
M 88.253354 235.016541 
L 88.468978 234.377344 
L 88.826955 234.377344 
L 88.379658 235.701095 
L 88.466884 236.178398 
Q 88.486423 236.285164 88.562484 236.374484 
Q 88.652502 236.479155 88.722284 236.479155 
L 88.914182 236.479155 
L 88.914182 236.819688 
L 88.674134 236.819688 
Q 88.468978 236.819688 88.286151 236.636163 
Q 88.196133 236.54475 88.159149 236.352851 
Q 88.059362 236.594992 87.854205 236.784797 
Q 87.757907 236.874117 87.445984 236.874117 
Q 86.93379 236.874117 86.685369 236.542656 
Q 86.42997 236.200031 86.42997 235.60061 
Q 86.42997 234.95932 86.707001 234.658563 
Q 87.014736 234.322915 87.445984 234.322915 
Q 88.124258 234.322915 88.253354 235.016541 
z
"/>
   </g>
   <g id="patch_43">
    <path clip-path="url(#p7230d13e37)" d="M 93.017319 238.76798 
Q 92.720749 238.76798 92.546994 238.971044 
Q 92.373936 239.173409 92.373936 239.526503 
Q 92.373936 239.877502 92.546994 240.081961 
Q 92.720749 240.285723 93.017319 240.285723 
Q 93.31389 240.285723 93.486947 240.081961 
Q 93.660005 239.877502 93.660005 239.526503 
Q 93.660005 239.173409 93.486947 238.971044 
Q 93.31389 238.76798 93.017319 238.76798 
z
M 93.891678 237.38701 
L 93.891678 237.788252 
Q 93.725599 237.710097 93.556728 237.668926 
Q 93.387858 237.627057 93.221778 237.627057 
Q 92.785646 237.627057 92.555367 237.921534 
Q 92.325787 238.216011 92.29299 238.811245 
Q 92.421387 238.62144 92.615379 238.520257 
Q 92.810069 238.419074 93.043138 238.419074 
Q 93.5337 238.419074 93.818408 238.71704 
Q 94.103115 239.014308 94.103115 239.526503 
Q 94.103115 240.02823 93.806545 240.331778 
Q 93.509975 240.634629 93.017319 240.634629 
Q 92.452091 240.634629 92.153427 240.201985 
Q 91.854764 239.768643 91.854764 238.94662 
Q 91.854764 238.17484 92.221115 237.715679 
Q 92.587467 237.256519 93.204333 237.256519 
Q 93.370412 237.256519 93.539283 237.289316 
Q 93.708154 237.322113 93.891678 237.38701 
z
"/>
   </g>
   <g id="patch_44">
    <path clip-path="url(#p7230d13e37)" d="M 99.902635 253.55044 
L 101.439916 253.55044 
L 101.439916 253.920978 
L 99.372995 253.920978 
L 99.372995 253.55044 
Q 99.62351 253.290853 100.056154 252.854023 
Q 100.489495 252.416494 100.600447 252.289493 
Q 100.811885 252.052236 100.895622 251.887553 
Q 100.980057 251.722869 100.980057 251.563768 
Q 100.980057 251.304181 100.797928 251.140893 
Q 100.615799 250.976907 100.323416 250.976907 
Q 100.116165 250.976907 99.885887 251.048782 
Q 99.656307 251.120657 99.394627 251.267197 
L 99.394627 250.821993 
Q 99.660494 250.715228 99.89147 250.660798 
Q 100.123144 250.606369 100.315042 250.606369 
Q 100.820956 250.606369 101.121713 250.859675 
Q 101.42247 251.112283 101.42247 251.535157 
Q 101.42247 251.736127 101.347107 251.916163 
Q 101.272441 252.095501 101.073564 252.339735 
Q 101.019135 252.403236 100.726751 252.705389 
Q 100.435066 253.007542 99.902635 253.55044 
z
M 102.410486 253.366915 
L 102.870344 253.366915 
L 102.870344 253.742338 
L 102.513064 254.440151 
L 102.231846 254.440151 
L 102.410486 253.742338 
z
M 104.994747 251.048782 
L 103.882434 252.787033 
L 104.994747 252.787033 
z
M 104.87891 250.664985 
L 105.432973 250.664985 
L 105.432973 252.787033 
L 105.897716 252.787033 
L 105.897716 253.153384 
L 105.432973 253.153384 
L 105.432973 253.920978 
L 104.994747 253.920978 
L 104.994747 253.153384 
L 103.525154 253.153384 
L 103.525154 252.728417 
z
"/>
   </g>
   <g id="patch_45">
    <path clip-path="url(#p7230d13e37)" d="M 69.141666 232.917521 
L 69.141666 233.997037 
L 68.73833 233.997037 
L 68.73833 230.641256 
Q 68.73833 229.646874 69.667118 229.646874 
Q 70.61405 229.646874 70.61405 230.486342 
Q 70.61405 231.083669 70.238627 231.302085 
Q 70.849213 231.49817 70.849213 232.080146 
Q 70.849213 233.114304 69.798307 233.114304 
Q 69.335658 233.114304 69.141666 232.917521 
z
M 69.141666 232.394161 
Q 69.383807 232.771678 69.813659 232.771678 
Q 70.44169 232.771678 70.44169 232.087124 
Q 70.44169 231.471653 69.429862 231.519802 
L 69.429862 231.149264 
Q 70.221182 231.149264 70.221182 230.451451 
Q 70.221182 229.974148 69.711081 229.974148 
Q 69.141666 229.974148 69.141666 230.654515 
z
"/>
   </g>
   <g id="patch_46">
    <path clip-path="url(#p7230d13e37)" d="M 74.535756 232.69771 
L 76.073037 232.69771 
L 76.073037 233.068248 
L 74.006116 233.068248 
L 74.006116 232.69771 
Q 74.256631 232.438123 74.689275 232.001293 
Q 75.122616 231.563764 75.233568 231.436763 
Q 75.445006 231.199506 75.528743 231.034823 
Q 75.613178 230.870139 75.613178 230.711038 
Q 75.613178 230.451451 75.431049 230.288163 
Q 75.24892 230.124177 74.956537 230.124177 
Q 74.749287 230.124177 74.519009 230.196052 
Q 74.289428 230.267927 74.027749 230.414467 
L 74.027749 229.969263 
Q 74.293615 229.862498 74.524591 229.808068 
Q 74.756265 229.753639 74.948163 229.753639 
Q 75.454077 229.753639 75.754834 230.006945 
Q 76.055592 230.259553 76.055592 230.682427 
Q 76.055592 230.883397 75.980228 231.063433 
Q 75.905562 231.242771 75.706685 231.487005 
Q 75.652256 231.550506 75.359873 231.852659 
Q 75.068187 232.154812 74.535756 232.69771 
z
"/>
   </g>
   <g id="patch_47">
    <path clip-path="url(#p7230d13e37)" d="M 51.277666 232.917521 
L 51.277666 233.997037 
L 50.874331 233.997037 
L 50.874331 230.641256 
Q 50.874331 229.646874 51.803119 229.646874 
Q 52.750051 229.646874 52.750051 230.486342 
Q 52.750051 231.083669 52.374628 231.302085 
Q 52.985214 231.49817 52.985214 232.080146 
Q 52.985214 233.114304 51.934308 233.114304 
Q 51.471658 233.114304 51.277666 232.917521 
z
M 51.277666 232.394161 
Q 51.519807 232.771678 51.94966 232.771678 
Q 52.577691 232.771678 52.577691 232.087124 
Q 52.577691 231.471653 51.565863 231.519802 
L 51.565863 231.149264 
Q 52.357182 231.149264 52.357182 230.451451 
Q 52.357182 229.974148 51.847081 229.974148 
Q 51.277666 229.974148 51.277666 230.654515 
z
"/>
   </g>
   <g id="patch_48">
    <path clip-path="url(#p7230d13e37)" d="M 57.502851 230.196052 
L 56.390538 231.934303 
L 57.502851 231.934303 
z
M 57.387015 229.812255 
L 57.941078 229.812255 
L 57.941078 231.934303 
L 58.405821 231.934303 
L 58.405821 232.300654 
L 57.941078 232.300654 
L 57.941078 233.068248 
L 57.502851 233.068248 
L 57.502851 232.300654 
L 56.033258 232.300654 
L 56.033258 231.875687 
z
"/>
   </g>
   <g id="patch_49">
    <path clip-path="url(#p7230d13e37)" d="M 65.129942 239.660483 
Q 65.446051 239.72817 65.623295 239.942399 
Q 65.801237 240.155929 65.801237 240.469945 
Q 65.801237 240.951436 65.469776 241.215907 
Q 65.138316 241.47968 64.52773 241.47968 
Q 64.323271 241.47968 64.106251 241.439207 
Q 63.889231 241.398733 63.658255 241.317787 
L 63.658255 240.892819 
Q 63.841082 240.999585 64.0588 241.054014 
Q 64.277215 241.108443 64.515169 241.108443 
Q 64.928972 241.108443 65.145991 240.945155 
Q 65.363011 240.781867 65.363011 240.469945 
Q 65.363011 240.181748 65.161343 240.019856 
Q 64.959676 239.857266 64.600302 239.857266 
L 64.220692 239.857266 
L 64.220692 239.495101 
L 64.617747 239.495101 
Q 64.94223 239.495101 65.11459 239.365308 
Q 65.28695 239.235515 65.28695 238.99128 
Q 65.28695 238.740766 65.109007 238.606786 
Q 64.931763 238.472108 64.600302 238.472108 
Q 64.418871 238.472108 64.211621 238.511883 
Q 64.00437 238.550961 63.755949 238.633303 
L 63.755949 238.241132 
Q 64.007161 238.171351 64.226275 238.13646 
Q 64.445388 238.101569 64.63938 238.101569 
Q 65.141107 238.101569 65.432792 238.329754 
Q 65.725176 238.557241 65.725176 238.945225 
Q 65.725176 239.215976 65.570261 239.402292 
Q 65.415347 239.588608 65.129942 239.660483 
z
M 66.682487 240.862116 
L 67.142346 240.862116 
L 67.142346 241.237539 
L 66.785066 241.935351 
L 66.503847 241.935351 
L 66.682487 241.237539 
z
M 69.053218 239.613031 
Q 68.756648 239.613031 68.582892 239.816095 
Q 68.409835 240.01846 68.409835 240.371553 
Q 68.409835 240.722553 68.582892 240.927012 
Q 68.756648 241.130773 69.053218 241.130773 
Q 69.349788 241.130773 69.522846 240.927012 
Q 69.695903 240.722553 69.695903 240.371553 
Q 69.695903 240.01846 69.522846 239.816095 
Q 69.349788 239.613031 69.053218 239.613031 
z
M 69.927577 238.23206 
L 69.927577 238.633303 
Q 69.761498 238.555148 69.592627 238.513977 
Q 69.423756 238.472108 69.257677 238.472108 
Q 68.821544 238.472108 68.591266 238.766585 
Q 68.361686 239.061062 68.328889 239.656296 
Q 68.457286 239.466491 68.651278 239.365308 
Q 68.845968 239.264125 69.079037 239.264125 
Q 69.569599 239.264125 69.854307 239.562091 
Q 70.139014 239.859359 70.139014 240.371553 
Q 70.139014 240.873281 69.842444 241.176829 
Q 69.545874 241.47968 69.053218 241.47968 
Q 68.48799 241.47968 68.189326 241.047036 
Q 67.890662 240.613694 67.890662 239.791671 
Q 67.890662 239.019891 68.257014 238.56073 
Q 68.623365 238.101569 69.240232 238.101569 
Q 69.406311 238.101569 69.575182 238.134367 
Q 69.744052 238.167164 69.927577 238.23206 
z
"/>
   </g>
   <g id="patch_50">
    <path clip-path="url(#p7230d13e37)" d="M 98.867081 249.503127 
C 99.814599 249.503127 100.723436 249.126675 101.393432 248.456679 
C 102.063428 247.786682 102.439881 246.877845 102.439881 245.930328 
C 102.439881 244.98281 102.063428 244.073973 101.393432 243.403977 
C 100.723436 242.73398 99.814599 242.357528 98.867081 242.357528 
C 97.919564 242.357528 97.010726 242.73398 96.34073 243.403977 
C 95.670734 244.073973 95.294281 244.98281 95.294281 245.930328 
C 95.294281 246.877845 95.670734 247.786682 96.34073 248.456679 
C 97.010726 249.126675 97.919564 249.503127 98.867081 249.503127 
z
" style="fill:#00a651;stroke:#000000;stroke-linejoin:miter;stroke-width:0.6696;"/>
   </g>
   <g id="patch_51">
    <path clip-path="url(#p7230d13e37)" d="M 81.003082 262.007927 
C 81.9506 262.007927 82.859437 261.631474 83.529433 260.961478 
C 84.199429 260.291482 84.575882 259.382645 84.575882 258.435127 
C 84.575882 257.487609 84.199429 256.578772 83.529433 255.908776 
C 82.859437 255.23878 81.9506 254.862327 81.003082 254.862327 
C 80.055564 254.862327 79.146727 255.23878 78.476731 255.908776 
C 77.806735 256.578772 77.430282 257.487609 77.430282 258.435127 
C 77.430282 259.382645 77.806735 260.291482 78.476731 260.961478 
C 79.146727 261.631474 80.055564 262.007927 81.003082 262.007927 
z
" style="fill:#00a651;stroke:#000000;stroke-linejoin:miter;stroke-width:0.6696;"/>
   </g>
   <g id="patch_52">
    <path clip-path="url(#p7230d13e37)" d="M 81.003082 236.998328 
C 81.9506 236.998328 82.859437 236.621875 83.529433 235.951879 
C 84.199429 235.281883 84.575882 234.373046 84.575882 233.425528 
C 84.575882 232.478011 84.199429 231.569173 83.529433 230.899177 
C 82.859437 230.229181 81.9506 229.852728 81.003082 229.852728 
C 80.055564 229.852728 79.146727 230.229181 78.476731 230.899177 
C 77.806735 231.569173 77.430282 232.478011 77.430282 233.425528 
C 77.430282 234.373046 77.806735 235.281883 78.476731 235.951879 
C 79.146727 236.621875 80.055564 236.998328 81.003082 236.998328 
z
" style="fill:#00a651;stroke:#000000;stroke-linejoin:miter;stroke-width:0.6696;"/>
   </g>
   <g id="patch_53">
    <path clip-path="url(#p7230d13e37)" d="M 101.546681 253.969127 
L 96.187481 259.328327 
z
" style="fill:#ffffff;stroke:#000000;stroke-linejoin:miter;stroke-width:0.6696;"/>
   </g>
   <g id="patch_54">
    <path clip-path="url(#p7230d13e37)" d="M 96.187481 253.969127 
L 101.546681 259.328327 
z
" style="fill:#ffffff;stroke:#000000;stroke-linejoin:miter;stroke-width:0.6696;"/>
   </g>
   <g id="patch_55">
    <path clip-path="url(#p7230d13e37)" d="M 83.682682 266.473927 
L 78.323482 271.833126 
z
" style="fill:#ffffff;stroke:#000000;stroke-linejoin:miter;stroke-width:0.6696;"/>
   </g>
   <g id="patch_56">
    <path clip-path="url(#p7230d13e37)" d="M 78.323482 266.473927 
L 83.682682 271.833126 
z
" style="fill:#ffffff;stroke:#000000;stroke-linejoin:miter;stroke-width:0.6696;"/>
   </g>
   <g id="patch_57">
    <path clip-path="url(#p7230d13e37)" d="M 66.711883 254.862327 
L 66.711883 262.007927 
L 59.566283 262.007927 
L 59.566283 254.862327 
L 66.711883 254.862327 
z
" style="fill:#0090bc;stroke:#000000;stroke-linejoin:miter;stroke-width:0.6696;"/>
   </g>
   <g id="patch_58">
    <path clip-path="url(#p7230d13e37)" d="M 66.711883 229.852728 
L 66.711883 236.998328 
L 59.566283 236.998328 
L 59.566283 229.852728 
L 66.711883 229.852728 
z
" style="fill:#0090bc;stroke:#000000;stroke-linejoin:miter;stroke-width:0.6696;"/>
   </g>
   <g id="patch_59">
    <path clip-path="url(#p7230d13e37)" d="M 65.818683 266.473927 
L 60.459483 271.833126 
z
" style="fill:#ffffff;stroke:#000000;stroke-linejoin:miter;stroke-width:0.6696;"/>
   </g>
   <g id="patch_60">
    <path clip-path="url(#p7230d13e37)" d="M 60.459483 266.473927 
L 65.818683 271.833126 
z
" style="fill:#ffffff;stroke:#000000;stroke-linejoin:miter;stroke-width:0.6696;"/>
   </g>
   <g id="patch_61">
    <path clip-path="url(#p7230d13e37)" d="M 45.275084 236.998328 
C 46.222601 236.998328 47.131438 236.621875 47.801435 235.951879 
C 48.471431 235.281883 48.847883 234.373046 48.847883 233.425528 
C 48.847883 232.478011 48.471431 231.569173 47.801435 230.899177 
C 47.131438 230.229181 46.222601 229.852728 45.275084 229.852728 
C 44.327566 229.852728 43.418729 230.229181 42.748733 230.899177 
C 42.078736 231.569173 41.702284 232.478011 41.702284 233.425528 
C 41.702284 234.373046 42.078736 235.281883 42.748733 235.951879 
C 43.418729 236.621875 44.327566 236.998328 45.275084 236.998328 
z
" style="fill:#ffd400;stroke:#000000;stroke-linejoin:miter;stroke-width:0.6696;"/>
   </g>
   <g id="patch_62">
    <path clip-path="url(#p7230d13e37)" d="M 65.818683 241.464328 
L 60.459483 246.823528 
z
" style="fill:#ffffff;stroke:#000000;stroke-linejoin:miter;stroke-width:0.6696;"/>
   </g>
   <g id="patch_63">
    <path clip-path="url(#p7230d13e37)" d="M 60.459483 241.464328 
L 65.818683 246.823528 
z
" style="fill:#ffffff;stroke:#000000;stroke-linejoin:miter;stroke-width:0.6696;"/>
   </g>
  </g>
  <g id="axes_5">
   <g id="line2d_21">
    <path clip-path="url(#pa9fadec2cd)" d="M 91.663999 301.616181 
L 73.8 314.120981 
" style="fill:none;stroke:#000000;stroke-linecap:square;stroke-width:0.837;"/>
   </g>
   <g id="line2d_22">
    <path clip-path="url(#pa9fadec2cd)" d="M 91.663999 301.616181 
L 73.8 289.111382 
" style="fill:none;stroke:#000000;stroke-linecap:square;stroke-width:0.837;"/>
   </g>
   <g id="line2d_23">
    <path clip-path="url(#pa9fadec2cd)" d="M 73.8 289.111382 
L 55.936001 289.111382 
" style="fill:none;stroke:#000000;stroke-linecap:square;stroke-width:0.837;"/>
   </g>
   <g id="line2d_24">
    <path clip-path="url(#pa9fadec2cd)" d="M 73.8 314.120981 
L 73.8 324.83938 
" style="fill:none;stroke:#000000;stroke-linecap:square;stroke-width:0.837;"/>
   </g>
   <g id="patch_64">
    <path clip-path="url(#pa9fadec2cd)" d="M 78.273676 308.876222 
L 78.177378 308.372402 
Q 78.079684 307.855322 77.691002 307.855322 
Q 77.399317 307.855322 77.266035 308.09537 
Q 77.097862 308.396127 77.097862 308.793182 
Q 77.097862 309.273277 77.261848 309.50216 
Q 77.427229 309.735229 77.691002 309.735229 
Q 77.983386 309.735229 78.140394 309.270486 
z
M 78.498371 308.209113 
L 78.713995 307.569917 
L 79.071973 307.569917 
L 78.624675 308.893667 
L 78.711902 309.370971 
Q 78.731441 309.477736 78.807502 309.567056 
Q 78.89752 309.671728 78.967301 309.671728 
L 79.1592 309.671728 
L 79.1592 310.012261 
L 78.919152 310.012261 
Q 78.713995 310.012261 78.531169 309.828736 
Q 78.441151 309.737323 78.404167 309.545424 
Q 78.304379 309.787565 78.099223 309.97737 
Q 78.002924 310.06669 77.691002 310.06669 
Q 77.178808 310.06669 76.930387 309.735229 
Q 76.674987 309.392603 76.674987 308.793182 
Q 76.674987 308.151893 76.952019 307.851136 
Q 77.259754 307.515488 77.691002 307.515488 
Q 78.369276 307.515488 78.498371 308.209113 
z
"/>
   </g>
   <g id="patch_65">
    <path clip-path="url(#pa9fadec2cd)" d="M 83.432603 304.457674 
Q 83.136033 304.457674 82.962278 304.660737 
Q 82.78922 304.863103 82.78922 305.216196 
Q 82.78922 305.567195 82.962278 305.771654 
Q 83.136033 305.975416 83.432603 305.975416 
Q 83.729174 305.975416 83.902231 305.771654 
Q 84.075289 305.567195 84.075289 305.216196 
Q 84.075289 304.863103 83.902231 304.660737 
Q 83.729174 304.457674 83.432603 304.457674 
z
M 84.306962 303.076703 
L 84.306962 303.477945 
Q 84.140883 303.39979 83.972012 303.358619 
Q 83.803142 303.31675 83.637062 303.31675 
Q 83.20093 303.31675 82.970651 303.611227 
Q 82.741071 303.905704 82.708274 304.500938 
Q 82.836671 304.311133 83.030663 304.20995 
Q 83.225353 304.108767 83.458422 304.108767 
Q 83.948985 304.108767 84.233692 304.406733 
Q 84.5184 304.704001 84.5184 305.216196 
Q 84.5184 305.717923 84.221829 306.021471 
Q 83.925259 306.324322 83.432603 306.324322 
Q 82.867375 306.324322 82.568711 305.891678 
Q 82.270048 305.458337 82.270048 304.636314 
Q 82.270048 303.864533 82.636399 303.405372 
Q 83.002751 302.946212 83.619617 302.946212 
Q 83.785696 302.946212 83.954567 302.979009 
Q 84.123438 303.011806 84.306962 303.076703 
z
"/>
   </g>
   <g id="patch_66">
    <path clip-path="url(#pa9fadec2cd)" d="M 80.825576 291.369503 
L 80.729278 290.865682 
Q 80.631584 290.348603 80.242903 290.348603 
Q 79.951217 290.348603 79.817935 290.588651 
Q 79.649762 290.889408 79.649762 291.286463 
Q 79.649762 291.766558 79.813748 291.995441 
Q 79.979129 292.22851 80.242903 292.22851 
Q 80.535286 292.22851 80.692294 291.763767 
z
M 81.050272 290.702394 
L 81.265896 290.063198 
L 81.623873 290.063198 
L 81.176576 291.386948 
L 81.263802 291.864252 
Q 81.283341 291.971017 81.359402 292.060337 
Q 81.44942 292.165009 81.519202 292.165009 
L 81.7111 292.165009 
L 81.7111 292.505542 
L 81.471052 292.505542 
Q 81.265896 292.505542 81.083069 292.322017 
Q 80.993051 292.230604 80.956067 292.038705 
Q 80.85628 292.280846 80.651123 292.470651 
Q 80.554825 292.559971 80.242903 292.559971 
Q 79.730708 292.559971 79.482287 292.22851 
Q 79.226888 291.885884 79.226888 291.286463 
Q 79.226888 290.645174 79.503919 290.344416 
Q 79.811654 290.008769 80.242903 290.008769 
Q 80.921176 290.008769 81.050272 290.702394 
z
"/>
   </g>
   <g id="patch_67">
    <path clip-path="url(#pa9fadec2cd)" d="M 86.151979 294.501285 
Q 86.468088 294.568973 86.645332 294.783202 
Q 86.823274 294.996732 86.823274 295.310748 
Q 86.823274 295.792238 86.491813 296.056709 
Q 86.160352 296.320482 85.549766 296.320482 
Q 85.345307 296.320482 85.128288 296.280009 
Q 84.911268 296.239536 84.680292 296.15859 
L 84.680292 295.733622 
Q 84.863119 295.840387 85.080836 295.894817 
Q 85.299252 295.949246 85.537206 295.949246 
Q 85.951009 295.949246 86.168028 295.785958 
Q 86.385048 295.62267 86.385048 295.310748 
Q 86.385048 295.022551 86.18338 294.860659 
Q 85.981712 294.698068 85.622339 294.698068 
L 85.242729 294.698068 
L 85.242729 294.335904 
L 85.639784 294.335904 
Q 85.964267 294.335904 86.136627 294.206111 
Q 86.308986 294.076318 86.308986 293.832083 
Q 86.308986 293.581568 86.131044 293.447588 
Q 85.9538 293.312911 85.622339 293.312911 
Q 85.440908 293.312911 85.233657 293.352686 
Q 85.026407 293.391763 84.777986 293.474105 
L 84.777986 293.081935 
Q 85.029198 293.012153 85.248311 292.977263 
Q 85.467424 292.942372 85.661416 292.942372 
Q 86.163144 292.942372 86.454829 293.170557 
Q 86.747213 293.398044 86.747213 293.786028 
Q 86.747213 294.056779 86.592298 294.243095 
Q 86.437384 294.429411 86.151979 294.501285 
z
"/>
   </g>
   <g id="patch_68">
    <path clip-path="url(#pa9fadec2cd)" d="M 61.938584 288.603374 
L 61.938584 289.68289 
L 61.535248 289.68289 
L 61.535248 286.32711 
Q 61.535248 285.332727 62.464036 285.332727 
Q 63.410968 285.332727 63.410968 286.172196 
Q 63.410968 286.769523 63.035545 286.987938 
Q 63.646131 287.184024 63.646131 287.765999 
Q 63.646131 288.800157 62.595225 288.800157 
Q 62.132576 288.800157 61.938584 288.603374 
z
M 61.938584 288.080015 
Q 62.180725 288.457532 62.610577 288.457532 
Q 63.238608 288.457532 63.238608 287.772977 
Q 63.238608 287.157507 62.22678 287.205656 
L 62.22678 286.835118 
Q 63.0181 286.835118 63.0181 286.137305 
Q 63.0181 285.660001 62.507999 285.660001 
Q 61.938584 285.660001 61.938584 286.340368 
z
"/>
   </g>
   <g id="patch_69">
    <path clip-path="url(#pa9fadec2cd)" d="M 67.332674 288.383563 
L 68.869955 288.383563 
L 68.869955 288.754102 
L 66.803034 288.754102 
L 66.803034 288.383563 
Q 67.053549 288.123977 67.486193 287.687147 
Q 67.919534 287.249618 68.030487 287.122616 
Q 68.241924 286.88536 68.325661 286.720676 
Q 68.410096 286.555993 68.410096 286.396891 
Q 68.410096 286.137305 68.227967 285.974017 
Q 68.045838 285.810031 67.753455 285.810031 
Q 67.546205 285.810031 67.315927 285.881906 
Q 67.086346 285.95378 66.824667 286.100321 
L 66.824667 285.655117 
Q 67.090533 285.548351 67.321509 285.493922 
Q 67.553183 285.439493 67.745081 285.439493 
Q 68.250995 285.439493 68.551752 285.692799 
Q 68.85251 285.945407 68.85251 286.368281 
Q 68.85251 286.569251 68.777146 286.749287 
Q 68.70248 286.928624 68.503603 287.172859 
Q 68.449174 287.23636 68.156791 287.538512 
Q 67.865105 287.840665 67.332674 288.383563 
z
"/>
   </g>
   <g id="patch_70">
    <path clip-path="url(#pa9fadec2cd)" d="M 75.790859 320.355935 
Q 76.106968 320.423623 76.284212 320.637851 
Q 76.462155 320.851382 76.462155 321.165398 
Q 76.462155 321.646888 76.130694 321.911359 
Q 75.799233 322.175132 75.188647 322.175132 
Q 74.984188 322.175132 74.767168 322.134659 
Q 74.550148 322.094186 74.319172 322.01324 
L 74.319172 321.588272 
Q 74.501999 321.695037 74.719717 321.749467 
Q 74.938132 321.803896 75.176086 321.803896 
Q 75.589889 321.803896 75.806909 321.640608 
Q 76.023928 321.47732 76.023928 321.165398 
Q 76.023928 320.877201 75.822261 320.715308 
Q 75.620593 320.552718 75.261219 320.552718 
L 74.881609 320.552718 
L 74.881609 320.190554 
L 75.278665 320.190554 
Q 75.603147 320.190554 75.775507 320.06076 
Q 75.947867 319.930967 75.947867 319.686733 
Q 75.947867 319.436218 75.769925 319.302238 
Q 75.59268 319.16756 75.261219 319.16756 
Q 75.079788 319.16756 74.872538 319.207336 
Q 74.665287 319.246413 74.416866 319.328755 
L 74.416866 318.936584 
Q 74.668079 318.866803 74.887192 318.831913 
Q 75.106305 318.797022 75.300297 318.797022 
Q 75.802024 318.797022 76.09371 319.025207 
Q 76.386093 319.252694 76.386093 319.640677 
Q 76.386093 319.911429 76.231179 320.097744 
Q 76.076264 320.28406 75.790859 320.355935 
z
M 77.343404 321.557568 
L 77.803263 321.557568 
L 77.803263 321.932991 
L 77.445983 322.630804 
L 77.164764 322.630804 
L 77.343404 321.932991 
z
M 79.927666 319.239435 
L 78.815353 320.977686 
L 79.927666 320.977686 
z
M 79.811829 318.855638 
L 80.365892 318.855638 
L 80.365892 320.977686 
L 80.830635 320.977686 
L 80.830635 321.344038 
L 80.365892 321.344038 
L 80.365892 322.111631 
L 79.927666 322.111631 
L 79.927666 321.344038 
L 78.458073 321.344038 
L 78.458073 320.91907 
z
"/>
   </g>
   <g id="patch_71">
    <path clip-path="url(#pa9fadec2cd)" d="M 91.663999 305.188981 
C 92.611517 305.188981 93.520354 304.812528 94.19035 304.142532 
C 94.860346 303.472536 95.236799 302.563699 95.236799 301.616181 
C 95.236799 300.668664 94.860346 299.759826 94.19035 299.08983 
C 93.520354 298.419834 92.611517 298.043381 91.663999 298.043381 
C 90.716482 298.043381 89.807644 298.419834 89.137648 299.08983 
C 88.467652 299.759826 88.091199 300.668664 88.091199 301.616181 
C 88.091199 302.563699 88.467652 303.472536 89.137648 304.142532 
C 89.807644 304.812528 90.716482 305.188981 91.663999 305.188981 
z
" style="fill:#00a651;stroke:#000000;stroke-linejoin:miter;stroke-width:0.837;"/>
   </g>
   <g id="patch_72">
    <path clip-path="url(#pa9fadec2cd)" d="M 73.8 317.69378 
C 74.747518 317.69378 75.656355 317.317328 76.326351 316.647332 
C 76.996347 315.977336 77.3728 315.068498 77.3728 314.120981 
C 77.3728 313.173463 76.996347 312.264626 76.326351 311.59463 
C 75.656355 310.924634 74.747518 310.548181 73.8 310.548181 
C 72.852482 310.548181 71.943645 310.924634 71.273649 311.59463 
C 70.603653 312.264626 70.2272 313.173463 70.2272 314.120981 
C 70.2272 315.068498 70.603653 315.977336 71.273649 316.647332 
C 71.943645 317.317328 72.852482 317.69378 73.8 317.69378 
z
" style="fill:#00a651;stroke:#000000;stroke-linejoin:miter;stroke-width:0.837;"/>
   </g>
   <g id="patch_73">
    <path clip-path="url(#pa9fadec2cd)" d="M 73.8 292.684182 
C 74.747518 292.684182 75.656355 292.307729 76.326351 291.637733 
C 76.996347 290.967737 77.3728 290.058899 77.3728 289.111382 
C 77.3728 288.163864 76.996347 287.255027 76.326351 286.585031 
C 75.656355 285.915035 74.747518 285.538582 73.8 285.538582 
C 72.852482 285.538582 71.943645 285.915035 71.273649 286.585031 
C 70.603653 287.255027 70.2272 288.163864 70.2272 289.111382 
C 70.2272 290.058899 70.603653 290.967737 71.273649 291.637733 
C 71.943645 292.307729 72.852482 292.684182 73.8 292.684182 
z
" style="fill:#00a651;stroke:#000000;stroke-linejoin:miter;stroke-width:0.837;"/>
   </g>
   <g id="patch_74">
    <path clip-path="url(#pa9fadec2cd)" d="M 76.4796 322.15978 
L 71.1204 327.51898 
z
" style="fill:#ffffff;stroke:#000000;stroke-linejoin:miter;stroke-width:0.837;"/>
   </g>
   <g id="patch_75">
    <path clip-path="url(#pa9fadec2cd)" d="M 71.1204 322.15978 
L 76.4796 327.51898 
z
" style="fill:#ffffff;stroke:#000000;stroke-linejoin:miter;stroke-width:0.837;"/>
   </g>
   <g id="patch_76">
    <path clip-path="url(#pa9fadec2cd)" d="M 59.508801 285.538582 
L 59.508801 292.684182 
L 52.363201 292.684182 
L 52.363201 285.538582 
L 59.508801 285.538582 
z
" style="fill:#0090bc;stroke:#000000;stroke-linejoin:miter;stroke-width:0.837;"/>
   </g>
  </g>
  <g id="axes_6">
   <g id="line2d_25">
    <path clip-path="url(#pb67c7ced97)" d="M 101.931645 352.460871 
L 101.931645 373.967849 
" style="fill:none;stroke:#000000;stroke-linecap:square;stroke-width:0.837;"/>
   </g>
   <g id="line2d_26">
    <path clip-path="url(#pb67c7ced97)" d="M 101.931645 352.460871 
L 66.086682 352.460871 
" style="fill:none;stroke:#000000;stroke-linecap:square;stroke-width:0.837;"/>
   </g>
   <g id="line2d_27">
    <path clip-path="url(#pb67c7ced97)" d="M 66.086682 352.460871 
L 30.24172 352.460871 
" style="fill:none;stroke:#000000;stroke-linecap:square;stroke-width:0.837;"/>
   </g>
   <g id="patch_77">
    <path clip-path="url(#pb67c7ced97)" d="M 105.926398 364.971603 
Q 106.560685 365.107422 106.916335 365.537282 
Q 107.273384 365.965741 107.273384 366.595828 
Q 107.273384 367.561962 106.608292 368.092635 
Q 105.9432 368.621909 104.71803 368.621909 
Q 104.307774 368.621909 103.872313 368.540697 
Q 103.436853 368.459486 102.973389 368.297064 
L 102.973389 367.444346 
Q 103.34024 367.658575 103.7771 367.76779 
Q 104.215361 367.877005 104.692827 367.877005 
Q 105.523142 367.877005 105.958602 367.54936 
Q 106.394062 367.221715 106.394062 366.595828 
Q 106.394062 366.017548 105.989406 365.692703 
Q 105.58475 365.366458 104.86365 365.366458 
L 104.101945 365.366458 
L 104.101945 364.639757 
L 104.898655 364.639757 
Q 105.549745 364.639757 105.895593 364.379321 
Q 106.241441 364.118885 106.241441 363.628817 
Q 106.241441 363.126148 105.884392 362.857311 
Q 105.528743 362.587073 104.86365 362.587073 
Q 104.4996 362.587073 104.083743 362.666884 
Q 103.667885 362.745295 103.169416 362.910518 
L 103.169416 362.123609 
Q 103.673486 361.98359 104.113147 361.91358 
Q 104.552807 361.84357 104.942061 361.84357 
Q 105.948801 361.84357 106.534082 362.301434 
Q 107.120763 362.757897 107.120763 363.536405 
Q 107.120763 364.07968 106.80992 364.453532 
Q 106.499077 364.827383 105.926398 364.971603 
z
M 109.041654 367.382737 
L 109.964382 367.382737 
L 109.964382 368.136041 
L 109.247482 369.536235 
L 108.683204 369.536235 
L 109.041654 368.136041 
z
M 114.227097 362.731293 
L 111.995188 366.219176 
L 114.227097 366.219176 
z
M 113.994665 361.961186 
L 115.106418 361.961186 
L 115.106418 366.219176 
L 116.038948 366.219176 
L 116.038948 366.954278 
L 115.106418 366.954278 
L 115.106418 368.494491 
L 114.227097 368.494491 
L 114.227097 366.954278 
L 111.278289 366.954278 
L 111.278289 366.10156 
z
M 117.591588 367.382737 
L 118.514315 367.382737 
L 118.514315 368.136041 
L 117.797416 369.536235 
L 117.233138 369.536235 
L 117.591588 368.136041 
z
M 122.348571 364.87639 
Q 121.753489 364.87639 121.40484 365.283846 
Q 121.057592 365.689903 121.057592 366.398401 
Q 121.057592 367.102698 121.40484 367.512955 
Q 121.753489 367.921812 122.348571 367.921812 
Q 122.943653 367.921812 123.290902 367.512955 
Q 123.63815 367.102698 123.63815 366.398401 
Q 123.63815 365.689903 123.290902 365.283846 
Q 122.943653 364.87639 122.348571 364.87639 
z
M 124.103014 362.105406 
L 124.103014 362.910518 
Q 123.769768 362.753696 123.430921 362.671085 
Q 123.092074 362.587073 122.758828 362.587073 
Q 121.883707 362.587073 121.421643 363.177955 
Q 120.960979 363.768837 120.89517 364.963202 
Q 121.152806 364.582349 121.542059 364.379321 
Q 121.932714 364.176293 122.400378 364.176293 
Q 123.384715 364.176293 123.955994 364.774176 
Q 124.527273 365.370658 124.527273 366.398401 
Q 124.527273 367.40514 123.93219 368.014224 
Q 123.337108 368.621909 122.348571 368.621909 
Q 121.214414 368.621909 120.615131 367.753788 
Q 120.015848 366.884268 120.015848 365.23484 
Q 120.015848 363.686225 120.75095 362.764898 
Q 121.486052 361.84357 122.723823 361.84357 
Q 123.057069 361.84357 123.395916 361.909379 
Q 123.734763 361.975188 124.103014 362.105406 
z
"/>
   </g>
   <g id="patch_78">
    <path clip-path="url(#pb67c7ced97)" d="M 78.13115 351.44153 
L 78.13115 353.60763 
L 77.321838 353.60763 
L 77.321838 346.874098 
Q 77.321838 344.878822 79.185496 344.878822 
Q 81.085559 344.878822 81.085559 346.563255 
Q 81.085559 347.761821 80.332254 348.200081 
Q 81.557424 348.593536 81.557424 349.761298 
Q 81.557424 351.836385 79.448732 351.836385 
Q 78.520403 351.836385 78.13115 351.44153 
z
M 78.13115 350.391385 
Q 78.617017 351.14889 79.479536 351.14889 
Q 80.739711 351.14889 80.739711 349.775299 
Q 80.739711 348.540328 78.70943 348.636942 
L 78.70943 347.893439 
Q 80.297249 347.893439 80.297249 346.493245 
Q 80.297249 345.535512 79.273708 345.535512 
Q 78.13115 345.535512 78.13115 346.900701 
z
"/>
   </g>
   <g id="patch_79">
    <path clip-path="url(#pb67c7ced97)" d="M 88.954648 351.000469 
L 92.039275 351.000469 
L 92.039275 351.743972 
L 87.891901 351.743972 
L 87.891901 351.000469 
Q 88.39457 350.479597 89.262691 349.603076 
Q 90.132211 348.725154 90.354842 348.470319 
Q 90.779101 347.994253 90.947124 347.663807 
Q 91.116547 347.333361 91.116547 347.014117 
Q 91.116547 346.493245 90.751097 346.1656 
Q 90.385646 345.836554 89.798965 345.836554 
Q 89.383107 345.836554 88.921043 345.980774 
Q 88.46038 346.124994 87.935307 346.419035 
L 87.935307 345.525711 
Q 88.468781 345.311481 88.932245 345.202266 
Q 89.397109 345.093051 89.782163 345.093051 
Q 90.797303 345.093051 91.400787 345.601322 
Q 92.00427 346.108192 92.00427 346.956709 
Q 92.00427 347.359965 91.853049 347.721215 
Q 91.703229 348.081065 91.304173 348.571133 
Q 91.194958 348.69855 90.608277 349.304834 
Q 90.022996 349.911118 88.954648 351.000469 
z
"/>
   </g>
   <g id="patch_80">
    <path clip-path="url(#pb67c7ced97)" d="M 42.286187 351.44153 
L 42.286187 353.60763 
L 41.476875 353.60763 
L 41.476875 346.874098 
Q 41.476875 344.878822 43.340533 344.878822 
Q 45.240596 344.878822 45.240596 346.563255 
Q 45.240596 347.761821 44.487292 348.200081 
Q 45.712462 348.593536 45.712462 349.761298 
Q 45.712462 351.836385 43.60377 351.836385 
Q 42.675441 351.836385 42.286187 351.44153 
z
M 42.286187 350.391385 
Q 42.772054 351.14889 43.634574 351.14889 
Q 44.894748 351.14889 44.894748 349.775299 
Q 44.894748 348.540328 42.864467 348.636942 
L 42.864467 347.893439 
Q 44.452287 347.893439 44.452287 346.493245 
Q 44.452287 345.535512 43.428745 345.535512 
Q 42.286187 345.535512 42.286187 346.900701 
z
"/>
   </g>
   <g id="patch_81">
    <path clip-path="url(#pb67c7ced97)" d="M 54.777316 345.980774 
L 52.545407 349.468657 
L 54.777316 349.468657 
z
M 54.544884 345.210668 
L 55.656638 345.210668 
L 55.656638 349.468657 
L 56.589167 349.468657 
L 56.589167 350.203759 
L 55.656638 350.203759 
L 55.656638 351.743972 
L 54.777316 351.743972 
L 54.777316 350.203759 
L 51.828508 350.203759 
L 51.828508 349.351041 
z
"/>
   </g>
   <g id="patch_82">
    <path clip-path="url(#pb67c7ced97)" d="M 101.931645 359.629864 
C 103.832884 359.629864 105.656509 358.874493 107.000888 357.530114 
C 108.345267 356.185735 109.100637 354.36211 109.100637 352.460871 
C 109.100637 350.559632 108.345267 348.736007 107.000888 347.391628 
C 105.656509 346.047249 103.832884 345.291879 101.931645 345.291879 
C 100.030406 345.291879 98.20678 346.047249 96.862401 347.391628 
C 95.518022 348.736007 94.762652 350.559632 94.762652 352.460871 
C 94.762652 354.36211 95.518022 356.185735 96.862401 357.530114 
C 98.20678 358.874493 100.030406 359.629864 101.931645 359.629864 
z
" style="fill:#00a651;stroke:#000000;stroke-linejoin:miter;stroke-width:0.837;"/>
   </g>
   <g id="patch_83">
    <path clip-path="url(#pb67c7ced97)" d="M 107.308389 368.591104 
L 96.5549 379.344593 
z
" style="fill:#ffffff;stroke:#000000;stroke-linejoin:miter;stroke-width:0.837;"/>
   </g>
   <g id="patch_84">
    <path clip-path="url(#pb67c7ced97)" d="M 96.5549 368.591104 
L 107.308389 379.344593 
z
" style="fill:#ffffff;stroke:#000000;stroke-linejoin:miter;stroke-width:0.837;"/>
   </g>
   <g id="patch_85">
    <path clip-path="url(#pb67c7ced97)" d="M 73.255675 345.291879 
L 73.255675 359.629864 
L 58.91769 359.629864 
L 58.91769 345.291879 
L 73.255675 345.291879 
z
" style="fill:#0090bc;stroke:#000000;stroke-linejoin:miter;stroke-width:0.837;"/>
   </g>
   <g id="patch_86">
    <path clip-path="url(#pb67c7ced97)" d="M 30.24172 359.629864 
C 32.142959 359.629864 33.966584 358.874493 35.310963 357.530114 
C 36.655342 356.185735 37.410712 354.36211 37.410712 352.460871 
C 37.410712 350.559632 36.655342 348.736007 35.310963 347.391628 
C 33.966584 346.047249 32.142959 345.291879 30.24172 345.291879 
C 28.340481 345.291879 26.516856 346.047249 25.172477 347.391628 
C 23.828098 348.736007 23.072727 350.559632 23.072727 352.460871 
C 23.072727 354.36211 23.828098 356.185735 25.172477 357.530114 
C 26.516856 358.874493 28.340481 359.629864 30.24172 359.629864 
z
" style="fill:#ffd400;stroke:#000000;stroke-linejoin:miter;stroke-width:0.837;"/>
   </g>
  </g>
  <g id="axes_7">
   <g id="line2d_28">
    <path clip-path="url(#p491e1f2932)" d="M 95.737194 405.984896 
L 51.862806 405.984896 
" style="fill:none;stroke:#000000;stroke-linecap:square;stroke-width:1.116;"/>
   </g>
   <g id="line2d_29">
    <path clip-path="url(#p491e1f2932)" d="M 51.862806 405.984896 
L 51.862806 432.309529 
" style="fill:none;stroke:#000000;stroke-linecap:square;stroke-width:1.116;"/>
   </g>
   <g id="patch_87">
    <path clip-path="url(#p491e1f2932)" d="M 66.605286 404.737218 
L 66.605286 407.388534 
L 65.614684 407.388534 
L 65.614684 399.146661 
Q 65.614684 396.704435 67.89581 396.704435 
Q 70.221495 396.704435 70.221495 398.766188 
Q 70.221495 400.233238 69.299448 400.769671 
Q 70.79906 401.251261 70.79906 402.680606 
Q 70.79906 405.220522 68.218012 405.220522 
Q 67.081734 405.220522 66.605286 404.737218 
z
M 66.605286 403.451836 
Q 67.199989 404.379025 68.255717 404.379025 
Q 69.798176 404.379025 69.798176 402.697745 
Q 69.798176 401.186135 67.313103 401.30439 
L 67.313103 400.394339 
Q 69.256601 400.394339 69.256601 398.680496 
Q 69.256601 397.508227 68.003782 397.508227 
Q 66.605286 397.508227 66.605286 399.179224 
z
"/>
   </g>
   <g id="patch_88">
    <path clip-path="url(#p491e1f2932)" d="M 81.894482 398.053229 
L 79.162616 402.322413 
L 81.894482 402.322413 
z
M 81.609984 397.110615 
L 82.970775 397.110615 
L 82.970775 402.322413 
L 84.112195 402.322413 
L 84.112195 403.222181 
L 82.970775 403.222181 
L 82.970775 405.107408 
L 81.894482 405.107408 
L 81.894482 403.222181 
L 78.285128 403.222181 
L 78.285128 402.17845 
z
"/>
   </g>
   <g id="patch_89">
    <path clip-path="url(#p491e1f2932)" d="M 56.752401 421.298086 
Q 57.528772 421.464329 57.964088 421.990479 
Q 58.401118 422.514915 58.401118 423.286144 
Q 58.401118 424.468696 57.587042 425.118243 
Q 56.772967 425.766075 55.273354 425.766075 
Q 54.771198 425.766075 54.238193 425.666672 
Q 53.705187 425.56727 53.137905 425.368464 
L 53.137905 424.324733 
Q 53.586932 424.586951 54.121651 424.720631 
Q 54.658084 424.854311 55.242505 424.854311 
Q 56.258814 424.854311 56.791819 424.453271 
Q 57.324824 424.052232 57.324824 423.286144 
Q 57.324824 422.578327 56.829524 422.180715 
Q 56.334223 421.78139 55.451594 421.78139 
L 54.519263 421.78139 
L 54.519263 420.891905 
L 55.49444 420.891905 
Q 56.291377 420.891905 56.714696 420.57313 
Q 57.138015 420.254355 57.138015 419.65451 
Q 57.138015 419.03924 56.700985 418.710183 
Q 56.265669 418.379411 55.451594 418.379411 
Q 55.005994 418.379411 54.496983 418.4771 
Q 53.987971 418.573075 53.377843 418.775309 
L 53.377843 417.812129 
Q 53.994827 417.640744 54.532974 417.555052 
Q 55.07112 417.46936 55.547569 417.46936 
Q 56.779822 417.46936 57.496209 418.029787 
Q 58.214309 418.5885 58.214309 419.541397 
Q 58.214309 420.206368 57.833836 420.663964 
Q 57.453363 421.12156 56.752401 421.298086 
z
M 60.565488 424.249324 
L 61.694911 424.249324 
L 61.694911 425.171372 
L 60.817423 426.885215 
L 60.126744 426.885215 
L 60.565488 425.171372 
z
M 66.388056 421.181545 
Q 65.659673 421.181545 65.232926 421.680273 
Q 64.807893 422.177288 64.807893 423.044492 
Q 64.807893 423.906555 65.232926 424.408711 
Q 65.659673 424.909154 66.388056 424.909154 
Q 67.11644 424.909154 67.541473 424.408711 
Q 67.966506 423.906555 67.966506 423.044492 
Q 67.966506 422.177288 67.541473 421.680273 
Q 67.11644 421.181545 66.388056 421.181545 
z
M 68.535502 417.789849 
L 68.535502 418.775309 
Q 68.127607 418.583358 67.712857 418.482241 
Q 67.298107 418.379411 66.890212 418.379411 
Q 65.81906 418.379411 65.253492 419.102653 
Q 64.689637 419.825895 64.609087 421.287803 
Q 64.924434 420.821637 65.400882 420.57313 
Q 65.879045 420.324623 66.451468 420.324623 
Q 67.6563 420.324623 68.355548 421.056434 
Q 69.054796 421.786531 69.054796 423.044492 
Q 69.054796 424.276746 68.326413 425.022267 
Q 67.59803 425.766075 66.388056 425.766075 
Q 64.999843 425.766075 64.266318 424.703493 
Q 63.532793 423.639196 63.532793 421.620288 
Q 63.532793 419.724778 64.432561 418.597069 
Q 65.332329 417.46936 66.847366 417.46936 
Q 67.255261 417.46936 67.670011 417.549911 
Q 68.084761 417.630461 68.535502 417.789849 
z
"/>
   </g>
   <g id="patch_90">
    <path clip-path="url(#p491e1f2932)" d="M 104.512072 397.210018 
L 104.512072 414.759774 
L 86.962317 414.759774 
L 86.962317 397.210018 
L 104.512072 397.210018 
z
" style="fill:#0090bc;stroke:#000000;stroke-linejoin:miter;stroke-width:1.116;"/>
   </g>
   <g id="patch_91">
    <path clip-path="url(#p491e1f2932)" d="M 60.637683 397.210018 
L 60.637683 414.759774 
L 43.087928 414.759774 
L 43.087928 397.210018 
L 60.637683 397.210018 
z
" style="fill:#0090bc;stroke:#000000;stroke-linejoin:miter;stroke-width:1.116;"/>
   </g>
   <g id="patch_92">
    <path clip-path="url(#p491e1f2932)" d="M 58.443964 425.728371 
L 45.281648 438.890687 
z
" style="fill:#ffffff;stroke:#000000;stroke-linejoin:miter;stroke-width:1.116;"/>
   </g>
   <g id="patch_93">
    <path clip-path="url(#p491e1f2932)" d="M 45.281648 425.728371 
L 58.443964 438.890687 
z
" style="fill:#ffffff;stroke:#000000;stroke-linejoin:miter;stroke-width:1.116;"/>
   </g>
  </g>
 </g>
 <defs>
  <clipPath id="p0713bbc64f">
   <rect height="46.404878" width="67.138972" x="40.230514" y="60.48"/>
  </clipPath>
  <clipPath id="pbfa5ea5814">
   <rect height="20.174616" width="111.6" x="18" y="129.280985"/>
  </clipPath>
  <clipPath id="p532d3845c4">
   <rect height="46.404878" width="76.825382" x="35.387309" y="171.851707"/>
  </clipPath>
  <clipPath id="p7230d13e37">
   <rect height="46.404878" width="70.614976" x="38.492512" y="227.537561"/>
  </clipPath>
  <clipPath id="pa9fadec2cd">
   <rect height="46.404878" width="47.160958" x="50.219521" y="283.223415"/>
  </clipPath>
  <clipPath id="pb67c7ced97">
   <rect height="37.912349" width="111.6" x="18" y="343.155533"/>
  </clipPath>
  <clipPath id="p491e1f2932">
   <rect height="46.404878" width="67.566558" x="40.016721" y="394.595122"/>
  </clipPath>
 </defs>
</svg>
