<?xml version="1.0" encoding="utf-8" standalone="no"?>
<!DOCTYPE svg PUBLIC "-//W3C//DTD SVG 1.1//EN"
  "http://www.w3.org/Graphics/SVG/1.1/DTD/svg11.dtd">
<!-- Created with matplotlib (http://matplotlib.org/) -->
<svg height="216pt" version="1.1" viewBox="0 0 144 216" width="144pt" xmlns="http://www.w3.org/2000/svg" xmlns:xlink="http://www.w3.org/1999/xlink">
 <defs>
  <style type="text/css">
*{stroke-linecap:butt;stroke-linejoin:round;}
  </style>
 </defs>
 <g id="figure_1">
  <g id="patch_1">
   <path d="M 0 216 
L 144 216 
L 144 0 
L 0 0 
z
" style="fill:#ffffff;"/>
  </g>
  <g id="axes_1">
   <g id="line2d_1">
    <path clip-path="url(#p56d06fcd5b)" d="M 92.085586 37.692624 
L 92.085586 64.902118 
" style="fill:none;stroke:#000000;stroke-linecap:square;stroke-width:1.116;"/>
   </g>
   <g id="line2d_2">
    <path clip-path="url(#p56d06fcd5b)" d="M 92.085586 37.692624 
L 46.736429 37.692624 
" style="fill:none;stroke:#000000;stroke-linecap:square;stroke-width:1.116;"/>
   </g>
   <g id="patch_2">
    <path clip-path="url(#p56d06fcd5b)" d="M 97.139537 53.520543 
Q 97.942005 53.692373 98.391954 54.236209 
Q 98.843674 54.778273 98.843674 55.575426 
Q 98.843674 56.797728 98.002234 57.469108 
Q 97.160795 58.138717 95.610775 58.138717 
Q 95.09174 58.138717 94.540818 58.035972 
Q 93.989897 57.933228 93.403546 57.72774 
L 93.403546 56.648926 
Q 93.867667 56.919958 94.420359 57.058131 
Q 94.974824 57.196304 95.578889 57.196304 
Q 96.629359 57.196304 97.180281 56.781785 
Q 97.731202 56.367265 97.731202 55.575426 
Q 97.731202 54.843817 97.219253 54.43284 
Q 96.707303 54.020092 95.795006 54.020092 
L 94.831336 54.020092 
L 94.831336 53.100709 
L 95.839292 53.100709 
Q 96.663017 53.100709 97.100566 52.771219 
Q 97.538114 52.441729 97.538114 51.821721 
Q 97.538114 51.18577 97.086394 50.845651 
Q 96.636445 50.503761 95.795006 50.503761 
Q 95.334428 50.503761 94.808307 50.604733 
Q 94.282186 50.703935 93.65155 50.912966 
L 93.65155 49.91741 
Q 94.289272 49.740265 94.845508 49.651693 
Q 95.401744 49.56312 95.894207 49.56312 
Q 97.167881 49.56312 97.908347 50.142385 
Q 98.650586 50.719878 98.650586 51.704805 
Q 98.650586 52.392128 98.257323 52.865106 
Q 97.864061 53.338083 97.139537 53.520543 
z
M 101.080796 56.570982 
L 102.248182 56.570982 
L 102.248182 57.524023 
L 101.341199 59.295474 
L 100.627304 59.295474 
L 101.080796 57.524023 
z
M 107.641145 50.68622 
L 104.817451 55.098906 
L 107.641145 55.098906 
z
M 107.347084 49.711922 
L 108.753616 49.711922 
L 108.753616 55.098906 
L 109.933403 55.098906 
L 109.933403 56.028918 
L 108.753616 56.028918 
L 108.753616 57.977514 
L 107.641145 57.977514 
L 107.641145 56.028918 
L 103.910468 56.028918 
L 103.910468 54.950104 
z
"/>
   </g>
   <g id="patch_3">
    <path clip-path="url(#p56d06fcd5b)" d="M 61.974454 36.403007 
L 61.974454 39.143442 
L 60.950555 39.143442 
L 60.950555 30.624532 
Q 60.950555 28.100214 63.308357 28.100214 
Q 65.712217 28.100214 65.712217 30.23127 
Q 65.712217 31.747632 64.759176 32.302097 
Q 66.309196 32.799875 66.309196 34.277265 
Q 66.309196 36.902556 63.64139 36.902556 
Q 62.466918 36.902556 61.974454 36.403007 
z
M 61.974454 35.074418 
Q 62.589148 36.032774 63.680362 36.032774 
Q 65.274668 36.032774 65.274668 34.29498 
Q 65.274668 32.73256 62.706064 32.85479 
L 62.706064 31.914149 
Q 64.71489 31.914149 64.71489 30.142697 
Q 64.71489 28.931025 63.419959 28.931025 
Q 61.974454 28.931025 61.974454 30.65819 
z
"/>
   </g>
   <g id="patch_4">
    <path clip-path="url(#p56d06fcd5b)" d="M 77.235509 32.20821 
Q 76.482642 32.20821 76.04155 32.723702 
Q 75.60223 33.237423 75.60223 34.133778 
Q 75.60223 35.024818 76.04155 35.543853 
Q 76.482642 36.061117 77.235509 36.061117 
Q 77.988376 36.061117 78.427696 35.543853 
Q 78.867016 35.024818 78.867016 34.133778 
Q 78.867016 33.237423 78.427696 32.723702 
Q 77.988376 32.20821 77.235509 32.20821 
z
M 79.455137 28.702507 
L 79.455137 29.721092 
Q 79.033532 29.522689 78.604841 29.418174 
Q 78.176149 29.311887 77.754544 29.311887 
Q 76.647387 29.311887 76.062808 30.059439 
Q 75.48 30.806992 75.396742 32.31804 
Q 75.722689 31.836205 76.215153 31.579345 
Q 76.709388 31.322484 77.301052 31.322484 
Q 78.546383 31.322484 79.269135 32.078894 
Q 79.991887 32.833532 79.991887 34.133778 
Q 79.991887 35.407451 79.23902 36.178033 
Q 78.486153 36.946843 77.235509 36.946843 
Q 75.800633 36.946843 75.042452 35.848543 
Q 74.284271 34.748471 74.284271 32.661701 
Q 74.284271 30.702476 75.214283 29.536861 
Q 76.144295 28.371246 77.710258 28.371246 
Q 78.131863 28.371246 78.560554 28.454504 
Q 78.989246 28.537762 79.455137 28.702507 
z
"/>
   </g>
   <g id="patch_5">
    <path clip-path="url(#p56d06fcd5b)" d="M 92.085586 46.762455 
C 94.490934 46.762455 96.798088 45.806801 98.498926 44.105963 
C 100.199763 42.405126 101.155418 40.097971 101.155418 37.692624 
C 101.155418 35.287276 100.199763 32.980122 98.498926 31.279284 
C 96.798088 29.578447 94.490934 28.622792 92.085586 28.622792 
C 89.680239 28.622792 87.373085 29.578447 85.672247 31.279284 
C 83.97141 32.980122 83.015755 35.287276 83.015755 37.692624 
C 83.015755 40.097971 83.97141 42.405126 85.672247 44.105963 
C 87.373085 45.806801 89.680239 46.762455 92.085586 46.762455 
z
" style="fill:#00a651;stroke:#000000;stroke-linejoin:miter;stroke-width:1.116;"/>
   </g>
   <g id="patch_6">
    <path clip-path="url(#p56d06fcd5b)" d="M 98.88796 58.099745 
L 85.283213 71.704492 
z
" style="fill:#ffffff;stroke:#000000;stroke-linejoin:miter;stroke-width:1.116;"/>
   </g>
   <g id="patch_7">
    <path clip-path="url(#p56d06fcd5b)" d="M 85.283213 58.099745 
L 98.88796 71.704492 
z
" style="fill:#ffffff;stroke:#000000;stroke-linejoin:miter;stroke-width:1.116;"/>
   </g>
   <g id="patch_8">
    <path clip-path="url(#p56d06fcd5b)" d="M 55.80626 28.622792 
L 55.80626 46.762455 
L 37.666597 46.762455 
L 37.666597 28.622792 
L 55.80626 28.622792 
z
" style="fill:#0090bc;stroke:#000000;stroke-linejoin:miter;stroke-width:1.116;"/>
   </g>
  </g>
  <g id="axes_2">
   <g id="line2d_3">
    <path clip-path="url(#p98fa76023c)" d="M 56.967684 99.85515 
L 28.721887 99.85515 
" style="fill:none;stroke:#000000;stroke-linecap:square;stroke-width:0.6696;"/>
   </g>
   <g id="line2d_4">
    <path clip-path="url(#p98fa76023c)" d="M 56.967684 99.85515 
L 56.967684 116.802628 
" style="fill:none;stroke:#000000;stroke-linecap:square;stroke-width:0.6696;"/>
   </g>
   <g id="line2d_5">
    <path clip-path="url(#p98fa76023c)" d="M 85.213481 99.85515 
L 56.967684 99.85515 
" style="fill:none;stroke:#000000;stroke-linecap:square;stroke-width:0.6696;"/>
   </g>
   <g id="line2d_6">
    <path clip-path="url(#p98fa76023c)" d="M 85.213481 99.85515 
L 85.213481 116.802628 
" style="fill:none;stroke:#000000;stroke-linecap:square;stroke-width:0.6696;"/>
   </g>
   <g id="line2d_7">
    <path clip-path="url(#p98fa76023c)" d="M 113.459278 99.85515 
L 85.213481 99.85515 
" style="fill:none;stroke:#000000;stroke-linecap:square;stroke-width:0.6696;"/>
   </g>
   <g id="line2d_8">
    <path clip-path="url(#p98fa76023c)" d="M 113.459278 99.85515 
L 113.459278 116.802628 
" style="fill:none;stroke:#000000;stroke-linecap:square;stroke-width:0.6696;"/>
   </g>
   <g id="patch_9">
    <path clip-path="url(#p98fa76023c)" d="M 38.212916 99.05191 
L 38.212916 100.758795 
L 37.575179 100.758795 
L 37.575179 95.452778 
Q 37.575179 93.880502 39.04374 93.880502 
Q 40.540988 93.880502 40.540988 95.207834 
Q 40.540988 96.152303 39.947384 96.497652 
Q 40.912817 96.807693 40.912817 97.727888 
Q 40.912817 99.363055 39.25117 99.363055 
Q 38.519648 99.363055 38.212916 99.05191 
z
M 38.212916 98.224397 
Q 38.595779 98.82131 39.275443 98.82131 
Q 40.26846 98.82131 40.26846 97.738922 
Q 40.26846 96.765766 38.6686 96.841897 
L 38.6686 96.256018 
Q 39.919801 96.256018 39.919801 95.152666 
Q 39.919801 94.397974 39.113251 94.397974 
Q 38.212916 94.397974 38.212916 95.473741 
z
"/>
   </g>
   <g id="patch_10">
    <path clip-path="url(#p98fa76023c)" d="M 48.055914 94.74884 
L 46.297172 97.497288 
L 48.055914 97.497288 
z
M 47.872758 94.141996 
L 48.748819 94.141996 
L 48.748819 97.497288 
L 49.483651 97.497288 
L 49.483651 98.076548 
L 48.748819 98.076548 
L 48.748819 99.290234 
L 48.055914 99.290234 
L 48.055914 98.076548 
L 45.732256 98.076548 
L 45.732256 97.404607 
z
"/>
   </g>
   <g id="patch_11">
    <path clip-path="url(#p98fa76023c)" d="M 60.115546 109.713595 
Q 60.615364 109.82062 60.895615 110.159349 
Q 61.17697 110.496975 61.17697 110.993483 
Q 61.17697 111.754796 60.652878 112.172966 
Q 60.128786 112.590033 59.163353 112.590033 
Q 58.840071 112.590033 58.496929 112.526038 
Q 58.153787 112.462044 57.788577 112.334055 
L 57.788577 111.662114 
Q 58.077656 111.830927 58.421901 111.916988 
Q 58.76725 112.00305 59.143493 112.00305 
Q 59.79778 112.00305 60.140923 111.744865 
Q 60.484065 111.486681 60.484065 110.993483 
Q 60.484065 110.537799 60.165196 110.281821 
Q 59.846328 110.02474 59.278102 110.02474 
L 58.677879 110.02474 
L 58.677879 109.452101 
L 59.305686 109.452101 
Q 59.818744 109.452101 60.091272 109.246878 
Q 60.3638 109.041654 60.3638 108.655481 
Q 60.3638 108.259378 60.082445 108.047535 
Q 59.802194 107.834588 59.278102 107.834588 
Q 58.991231 107.834588 58.663535 107.897479 
Q 58.33584 107.959267 57.943047 108.089462 
L 57.943047 107.469378 
Q 58.340253 107.359043 58.686706 107.303876 
Q 59.033158 107.248708 59.33989 107.248708 
Q 60.133199 107.248708 60.5944 107.609504 
Q 61.056704 107.969197 61.056704 108.58266 
Q 61.056704 109.01076 60.81176 109.305355 
Q 60.566816 109.59995 60.115546 109.713595 
z
M 62.570365 111.613567 
L 63.297473 111.613567 
L 63.297473 112.20717 
L 62.732557 113.310521 
L 62.287907 113.310521 
L 62.570365 112.20717 
z
M 66.318863 109.638567 
Q 65.849939 109.638567 65.575204 109.959643 
Q 65.301573 110.279615 65.301573 110.83791 
Q 65.301573 111.392896 65.575204 111.716178 
Q 65.849939 112.038357 66.318863 112.038357 
Q 66.787788 112.038357 67.061419 111.716178 
Q 67.33505 111.392896 67.33505 110.83791 
Q 67.33505 110.279615 67.061419 109.959643 
Q 66.787788 109.638567 66.318863 109.638567 
z
M 67.701363 107.455035 
L 67.701363 108.089462 
Q 67.438765 107.965887 67.171754 107.900789 
Q 66.904743 107.834588 66.642145 107.834588 
Q 65.952551 107.834588 65.588445 108.300202 
Q 65.225442 108.765816 65.173585 109.706975 
Q 65.376601 109.406864 65.683333 109.246878 
Q 65.991168 109.086892 66.359687 109.086892 
Q 67.135343 109.086892 67.585511 109.558023 
Q 68.035678 110.028051 68.035678 110.83791 
Q 68.035678 111.63122 67.566754 112.111178 
Q 67.09783 112.590033 66.318863 112.590033 
Q 65.425149 112.590033 64.952914 111.905955 
Q 64.48068 111.220773 64.48068 109.921025 
Q 64.48068 108.700719 65.059939 107.974713 
Q 65.639199 107.248708 66.614562 107.248708 
Q 66.877159 107.248708 67.14417 107.300566 
Q 67.411181 107.352423 67.701363 107.455035 
z
"/>
   </g>
   <g id="patch_12">
    <path clip-path="url(#p98fa76023c)" d="M 66.458713 99.05191 
L 66.458713 100.758795 
L 65.820976 100.758795 
L 65.820976 95.452778 
Q 65.820976 93.880502 67.289537 93.880502 
Q 68.786785 93.880502 68.786785 95.207834 
Q 68.786785 96.152303 68.193182 96.497652 
Q 69.158614 96.807693 69.158614 97.727888 
Q 69.158614 99.363055 67.496967 99.363055 
Q 66.765445 99.363055 66.458713 99.05191 
z
M 66.458713 98.224397 
Q 66.841576 98.82131 67.521241 98.82131 
Q 68.514257 98.82131 68.514257 97.738922 
Q 68.514257 96.765766 66.914397 96.841897 
L 66.914397 96.256018 
Q 68.165598 96.256018 68.165598 95.152666 
Q 68.165598 94.397974 67.359048 94.397974 
Q 66.458713 94.397974 66.458713 95.473741 
z
"/>
   </g>
   <g id="patch_13">
    <path clip-path="url(#p98fa76023c)" d="M 76.498108 96.514202 
Q 76.997926 96.621227 77.278178 96.959956 
Q 77.559532 97.297581 77.559532 97.79409 
Q 77.559532 98.555402 77.03544 98.973572 
Q 76.511348 99.390639 75.545916 99.390639 
Q 75.222634 99.390639 74.879491 99.326645 
Q 74.536349 99.26265 74.17114 99.134662 
L 74.17114 98.462721 
Q 74.460218 98.631533 74.804464 98.717595 
Q 75.149813 98.803656 75.526055 98.803656 
Q 76.180343 98.803656 76.523485 98.545472 
Q 76.866627 98.287288 76.866627 97.79409 
Q 76.866627 97.338405 76.547759 97.082428 
Q 76.22889 96.825347 75.660664 96.825347 
L 75.060441 96.825347 
L 75.060441 96.252708 
L 75.688248 96.252708 
Q 76.201307 96.252708 76.473834 96.047484 
Q 76.746362 95.842261 76.746362 95.456088 
Q 76.746362 95.059985 76.465008 94.848141 
Q 76.184756 94.635194 75.660664 94.635194 
Q 75.373793 94.635194 75.046098 94.698085 
Q 74.718402 94.759873 74.325609 94.890069 
L 74.325609 94.269985 
Q 74.722816 94.15965 75.069268 94.104482 
Q 75.41572 94.049315 75.722452 94.049315 
Q 76.515762 94.049315 76.976963 94.410111 
Q 77.439267 94.769803 77.439267 95.383267 
Q 77.439267 95.811367 77.194323 96.105962 
Q 76.949379 96.400557 76.498108 96.514202 
z
"/>
   </g>
   <g id="patch_14">
    <path clip-path="url(#p98fa76023c)" d="M 86.850855 111.903748 
L 89.281538 111.903748 
L 89.281538 112.489628 
L 86.013411 112.489628 
L 86.013411 111.903748 
Q 86.409514 111.493301 87.093592 110.802603 
Q 87.778773 110.110802 87.954206 109.909992 
Q 88.288522 109.534852 88.420924 109.274461 
Q 88.554429 109.014071 88.554429 108.762506 
Q 88.554429 108.35206 88.266455 108.093875 
Q 87.97848 107.834588 87.516176 107.834588 
Q 87.18848 107.834588 86.824374 107.948233 
Q 86.461372 108.061878 86.047615 108.293582 
L 86.047615 107.589644 
Q 86.467992 107.420831 86.833201 107.33477 
Q 87.199514 107.248708 87.502935 107.248708 
Q 88.302865 107.248708 88.77841 107.649225 
Q 89.253954 108.048638 89.253954 108.717269 
Q 89.253954 109.035034 89.134792 109.319699 
Q 89.016734 109.60326 88.702279 109.989433 
Q 88.616217 110.089838 88.153913 110.567589 
Q 87.692712 111.045341 86.850855 111.903748 
z
M 90.816162 111.613567 
L 91.543271 111.613567 
L 91.543271 112.20717 
L 90.978355 113.310521 
L 90.533704 113.310521 
L 90.816162 112.20717 
z
M 94.902286 107.948233 
L 93.143544 110.696681 
L 94.902286 110.696681 
z
M 94.71913 107.34139 
L 95.595191 107.34139 
L 95.595191 110.696681 
L 96.330023 110.696681 
L 96.330023 111.275941 
L 95.595191 111.275941 
L 95.595191 112.489628 
L 94.902286 112.489628 
L 94.902286 111.275941 
L 92.578628 111.275941 
L 92.578628 110.604 
z
M 97.553502 111.613567 
L 98.28061 111.613567 
L 98.28061 112.20717 
L 97.715694 113.310521 
L 97.271044 113.310521 
L 97.553502 112.20717 
z
M 101.302 109.638567 
Q 100.833076 109.638567 100.558342 109.959643 
Q 100.28471 110.279615 100.28471 110.83791 
Q 100.28471 111.392896 100.558342 111.716178 
Q 100.833076 112.038357 101.302 112.038357 
Q 101.770925 112.038357 102.044556 111.716178 
Q 102.318187 111.392896 102.318187 110.83791 
Q 102.318187 110.279615 102.044556 109.959643 
Q 101.770925 109.638567 101.302 109.638567 
z
M 102.6845 107.455035 
L 102.6845 108.089462 
Q 102.421902 107.965887 102.154891 107.900789 
Q 101.88788 107.834588 101.625282 107.834588 
Q 100.935688 107.834588 100.571582 108.300202 
Q 100.208579 108.765816 100.156722 109.706975 
Q 100.359738 109.406864 100.66647 109.246878 
Q 100.974305 109.086892 101.342824 109.086892 
Q 102.118481 109.086892 102.568648 109.558023 
Q 103.018815 110.028051 103.018815 110.83791 
Q 103.018815 111.63122 102.549891 112.111178 
Q 102.080967 112.590033 101.302 112.590033 
Q 100.408286 112.590033 99.936051 111.905955 
Q 99.463817 111.220773 99.463817 109.921025 
Q 99.463817 108.700719 100.043076 107.974713 
Q 100.622336 107.248708 101.597699 107.248708 
Q 101.860296 107.248708 102.127307 107.300566 
Q 102.394318 107.352423 102.6845 107.455035 
z
"/>
   </g>
   <g id="patch_15">
    <path clip-path="url(#p98fa76023c)" d="M 94.70451 99.05191 
L 94.70451 100.758795 
L 94.066773 100.758795 
L 94.066773 95.452778 
Q 94.066773 93.880502 95.535334 93.880502 
Q 97.032582 93.880502 97.032582 95.207834 
Q 97.032582 96.152303 96.438979 96.497652 
Q 97.404411 96.807693 97.404411 97.727888 
Q 97.404411 99.363055 95.742764 99.363055 
Q 95.011242 99.363055 94.70451 99.05191 
z
M 94.70451 98.224397 
Q 95.087373 98.82131 95.767038 98.82131 
Q 96.760054 98.82131 96.760054 97.738922 
Q 96.760054 96.765766 95.160195 96.841897 
L 95.160195 96.256018 
Q 96.411395 96.256018 96.411395 95.152666 
Q 96.411395 94.397974 95.604845 94.397974 
Q 94.70451 94.397974 94.70451 95.473741 
z
"/>
   </g>
   <g id="patch_16">
    <path clip-path="url(#p98fa76023c)" d="M 104.547509 94.74884 
L 102.788767 97.497288 
L 104.547509 97.497288 
z
M 104.364352 94.141996 
L 105.240413 94.141996 
L 105.240413 97.497288 
L 105.975246 97.497288 
L 105.975246 98.076548 
L 105.240413 98.076548 
L 105.240413 99.290234 
L 104.547509 99.290234 
L 104.547509 98.076548 
L 102.223851 98.076548 
L 102.223851 97.404607 
z
"/>
   </g>
   <g id="patch_17">
    <path clip-path="url(#p98fa76023c)" d="M 116.60714 109.713595 
Q 117.106958 109.82062 117.38721 110.159349 
Q 117.668564 110.496975 117.668564 110.993483 
Q 117.668564 111.754796 117.144472 112.172966 
Q 116.62038 112.590033 115.654948 112.590033 
Q 115.331666 112.590033 114.988524 112.526038 
Q 114.645381 112.462044 114.280172 112.334055 
L 114.280172 111.662114 
Q 114.56925 111.830927 114.913496 111.916988 
Q 115.258845 112.00305 115.635088 112.00305 
Q 116.289375 112.00305 116.632517 111.744865 
Q 116.97566 111.486681 116.97566 110.993483 
Q 116.97566 110.537799 116.656791 110.281821 
Q 116.337922 110.02474 115.769696 110.02474 
L 115.169473 110.02474 
L 115.169473 109.452101 
L 115.79728 109.452101 
Q 116.310339 109.452101 116.582866 109.246878 
Q 116.855394 109.041654 116.855394 108.655481 
Q 116.855394 108.259378 116.57404 108.047535 
Q 116.293788 107.834588 115.769696 107.834588 
Q 115.482825 107.834588 115.15513 107.897479 
Q 114.827434 107.959267 114.434641 108.089462 
L 114.434641 107.469378 
Q 114.831848 107.359043 115.1783 107.303876 
Q 115.524752 107.248708 115.831484 107.248708 
Q 116.624794 107.248708 117.085995 107.609504 
Q 117.548299 107.969197 117.548299 108.58266 
Q 117.548299 109.01076 117.303355 109.305355 
Q 117.058411 109.59995 116.60714 109.713595 
z
M 119.061959 111.613567 
L 119.789068 111.613567 
L 119.789068 112.20717 
L 119.224152 113.310521 
L 118.779501 113.310521 
L 119.061959 112.20717 
z
M 122.810458 109.638567 
Q 122.341533 109.638567 122.066799 109.959643 
Q 121.793168 110.279615 121.793168 110.83791 
Q 121.793168 111.392896 122.066799 111.716178 
Q 122.341533 112.038357 122.810458 112.038357 
Q 123.279382 112.038357 123.553013 111.716178 
Q 123.826645 111.392896 123.826645 110.83791 
Q 123.826645 110.279615 123.553013 109.959643 
Q 123.279382 109.638567 122.810458 109.638567 
z
M 124.192957 107.455035 
L 124.192957 108.089462 
Q 123.93036 107.965887 123.663349 107.900789 
Q 123.396337 107.834588 123.13374 107.834588 
Q 122.444145 107.834588 122.080039 108.300202 
Q 121.717037 108.765816 121.665179 109.706975 
Q 121.868196 109.406864 122.174927 109.246878 
Q 122.482762 109.086892 122.851282 109.086892 
Q 123.626938 109.086892 124.077105 109.558023 
Q 124.527273 110.028051 124.527273 110.83791 
Q 124.527273 111.63122 124.058348 112.111178 
Q 123.589424 112.590033 122.810458 112.590033 
Q 121.916743 112.590033 121.444509 111.905955 
Q 120.972274 111.220773 120.972274 109.921025 
Q 120.972274 108.700719 121.551534 107.974713 
Q 122.130793 107.248708 123.106156 107.248708 
Q 123.368754 107.248708 123.635765 107.300566 
Q 123.902776 107.352423 124.192957 107.455035 
z
"/>
   </g>
   <g id="patch_18">
    <path clip-path="url(#p98fa76023c)" d="M 119.108438 94.205991 
L 119.108438 105.50431 
L 107.810119 105.50431 
L 107.810119 94.205991 
L 119.108438 94.205991 
z
" style="fill:#0090bc;stroke:#000000;stroke-linejoin:miter;stroke-width:0.6696;"/>
   </g>
   <g id="patch_19">
    <path clip-path="url(#p98fa76023c)" d="M 85.213481 105.50431 
C 86.711656 105.50431 88.148671 104.909078 89.20804 103.849709 
C 90.26741 102.79034 90.862641 101.353325 90.862641 99.85515 
C 90.862641 98.356975 90.26741 96.919961 89.20804 95.860591 
C 88.148671 94.801222 86.711656 94.205991 85.213481 94.205991 
C 83.715307 94.205991 82.278292 94.801222 81.218922 95.860591 
C 80.159553 96.919961 79.564322 98.356975 79.564322 99.85515 
C 79.564322 101.353325 80.159553 102.79034 81.218922 103.849709 
C 82.278292 104.909078 83.715307 105.50431 85.213481 105.50431 
z
" style="fill:#ffd400;stroke:#000000;stroke-linejoin:miter;stroke-width:0.6696;"/>
   </g>
   <g id="patch_20">
    <path clip-path="url(#p98fa76023c)" d="M 117.696148 112.565759 
L 109.222409 121.039498 
z
" style="fill:#ffffff;stroke:#000000;stroke-linejoin:miter;stroke-width:0.6696;"/>
   </g>
   <g id="patch_21">
    <path clip-path="url(#p98fa76023c)" d="M 109.222409 112.565759 
L 117.696148 121.039498 
z
" style="fill:#ffffff;stroke:#000000;stroke-linejoin:miter;stroke-width:0.6696;"/>
   </g>
   <g id="patch_22">
    <path clip-path="url(#p98fa76023c)" d="M 62.616843 94.205991 
L 62.616843 105.50431 
L 51.318525 105.50431 
L 51.318525 94.205991 
L 62.616843 94.205991 
z
" style="fill:#0090bc;stroke:#000000;stroke-linejoin:miter;stroke-width:0.6696;"/>
   </g>
   <g id="patch_23">
    <path clip-path="url(#p98fa76023c)" d="M 89.450351 112.565759 
L 80.976612 121.039498 
z
" style="fill:#ffffff;stroke:#000000;stroke-linejoin:miter;stroke-width:0.6696;"/>
   </g>
   <g id="patch_24">
    <path clip-path="url(#p98fa76023c)" d="M 80.976612 112.565759 
L 89.450351 121.039498 
z
" style="fill:#ffffff;stroke:#000000;stroke-linejoin:miter;stroke-width:0.6696;"/>
   </g>
   <g id="patch_25">
    <path clip-path="url(#p98fa76023c)" d="M 28.721887 105.50431 
C 30.220061 105.50431 31.657076 104.909078 32.716446 103.849709 
C 33.775815 102.79034 34.371046 101.353325 34.371046 99.85515 
C 34.371046 98.356975 33.775815 96.919961 32.716446 95.860591 
C 31.657076 94.801222 30.220061 94.205991 28.721887 94.205991 
C 27.223712 94.205991 25.786697 94.801222 24.727328 95.860591 
C 23.667958 96.919961 23.072727 98.356975 23.072727 99.85515 
C 23.072727 101.353325 23.667958 102.79034 24.727328 103.849709 
C 25.786697 104.909078 27.223712 105.50431 28.721887 105.50431 
z
" style="fill:#ffd400;stroke:#000000;stroke-linejoin:miter;stroke-width:0.6696;"/>
   </g>
   <g id="patch_26">
    <path clip-path="url(#p98fa76023c)" d="M 61.204554 112.565759 
L 52.730814 121.039498 
z
" style="fill:#ffffff;stroke:#000000;stroke-linejoin:miter;stroke-width:0.6696;"/>
   </g>
   <g id="patch_27">
    <path clip-path="url(#p98fa76023c)" d="M 52.730814 112.565759 
L 61.204554 121.039498 
z
" style="fill:#ffffff;stroke:#000000;stroke-linejoin:miter;stroke-width:0.6696;"/>
   </g>
  </g>
  <g id="axes_3">
   <g id="line2d_9">
    <path clip-path="url(#p9d22259cd7)" d="M 97.870502 165.156335 
L 73.8 182.005686 
" style="fill:none;stroke:#000000;stroke-linecap:square;stroke-width:0.837;"/>
   </g>
   <g id="line2d_10">
    <path clip-path="url(#p9d22259cd7)" d="M 97.870502 165.156335 
L 73.8 148.306983 
" style="fill:none;stroke:#000000;stroke-linecap:square;stroke-width:0.837;"/>
   </g>
   <g id="line2d_11">
    <path clip-path="url(#p9d22259cd7)" d="M 73.8 148.306983 
L 49.729498 148.306983 
" style="fill:none;stroke:#000000;stroke-linecap:square;stroke-width:0.837;"/>
   </g>
   <g id="patch_28">
    <path clip-path="url(#p9d22259cd7)" d="M 79.827968 174.938737 
L 79.698213 174.259874 
Q 79.566578 173.563145 79.042856 173.563145 
Q 78.64983 173.563145 78.470241 173.886593 
Q 78.24364 174.291842 78.24364 174.826847 
Q 78.24364 175.473741 78.4646 175.782145 
Q 78.68744 176.09619 79.042856 176.09619 
Q 79.436823 176.09619 79.64838 175.46998 
z
M 80.13073 174.039854 
L 80.421268 173.178581 
L 80.903619 173.178581 
L 80.300916 174.962243 
L 80.418448 175.605377 
Q 80.444775 175.749236 80.547263 175.869588 
Q 80.668555 176.010626 80.762581 176.010626 
L 81.021151 176.010626 
L 81.021151 176.46947 
L 80.697703 176.46947 
Q 80.421268 176.46947 80.174922 176.222184 
Q 80.053629 176.09901 80.003796 175.84044 
Q 79.869339 176.166709 79.592905 176.422458 
Q 79.46315 176.54281 79.042856 176.54281 
Q 78.35271 176.54281 78.017979 176.09619 
Q 77.673846 175.634525 77.673846 174.826847 
Q 77.673846 173.962753 78.047127 173.557504 
Q 78.461779 173.105242 79.042856 173.105242 
Q 79.956783 173.105242 80.13073 174.039854 
z
"/>
   </g>
   <g id="patch_29">
    <path clip-path="url(#p9d22259cd7)" d="M 86.779266 168.985049 
Q 86.379658 168.985049 86.145535 169.258663 
Q 85.912352 169.531336 85.912352 170.007105 
Q 85.912352 170.480053 86.145535 170.755547 
Q 86.379658 171.030101 86.779266 171.030101 
Q 87.178874 171.030101 87.412057 170.755547 
Q 87.64524 170.480053 87.64524 170.007105 
Q 87.64524 169.531336 87.412057 169.258663 
Q 87.178874 168.985049 86.779266 168.985049 
z
M 87.957404 167.124286 
L 87.957404 167.664932 
Q 87.733624 167.559624 87.506082 167.504149 
Q 87.278541 167.447733 87.05476 167.447733 
Q 86.467102 167.447733 86.156818 167.844521 
Q 85.847474 168.241308 85.803282 169.043344 
Q 85.976289 168.787595 86.23768 168.651259 
Q 86.50001 168.514922 86.814055 168.514922 
Q 87.475054 168.514922 87.858677 168.91641 
Q 88.242301 169.316958 88.242301 170.007105 
Q 88.242301 170.683147 87.842693 171.092158 
Q 87.443085 171.500228 86.779266 171.500228 
Q 86.01766 171.500228 85.615231 170.917271 
Q 85.212803 170.333373 85.212803 169.225754 
Q 85.212803 168.185833 85.706436 167.567146 
Q 86.200069 166.948459 87.031254 166.948459 
Q 87.255034 166.948459 87.482576 166.992651 
Q 87.710117 167.036842 87.957404 167.124286 
z
"/>
   </g>
   <g id="patch_30">
    <path clip-path="url(#p9d22259cd7)" d="M 83.266477 151.349645 
L 83.136722 150.670782 
Q 83.005086 149.974054 82.481365 149.974054 
Q 82.088339 149.974054 81.90875 150.297501 
Q 81.682149 150.70275 81.682149 151.237755 
Q 81.682149 151.88465 81.903109 152.193053 
Q 82.125949 152.507098 82.481365 152.507098 
Q 82.875331 152.507098 83.086889 151.880889 
z
M 83.569239 150.450762 
L 83.859777 149.58949 
L 84.342128 149.58949 
L 83.739425 151.373152 
L 83.856957 152.016285 
Q 83.883284 152.160144 83.985771 152.280497 
Q 84.107064 152.421535 84.201089 152.421535 
L 84.459659 152.421535 
L 84.459659 152.880379 
L 84.136212 152.880379 
Q 83.859777 152.880379 83.613431 152.633092 
Q 83.492138 152.509919 83.442305 152.251349 
Q 83.307848 152.577617 83.031414 152.833366 
Q 82.901658 152.953718 82.481365 152.953718 
Q 81.791219 152.953718 81.456488 152.507098 
Q 81.112355 152.045433 81.112355 151.237755 
Q 81.112355 150.373662 81.485636 149.968412 
Q 81.900288 149.51615 82.481365 149.51615 
Q 83.395292 149.51615 83.569239 150.450762 
z
"/>
   </g>
   <g id="patch_31">
    <path clip-path="url(#p9d22259cd7)" d="M 90.443436 155.569505 
Q 90.869371 155.66071 91.108195 155.949368 
Q 91.34796 156.237085 91.34796 156.6602 
Q 91.34796 157.308975 90.901339 157.665331 
Q 90.454719 158.020747 89.631996 158.020747 
Q 89.356502 158.020747 89.064083 157.966212 
Q 88.771664 157.911678 88.46044 157.802608 
L 88.46044 157.229994 
Q 88.706787 157.373852 89.000146 157.447192 
Q 89.294445 157.520532 89.615072 157.520532 
Q 90.172642 157.520532 90.465061 157.300513 
Q 90.75748 157.080493 90.75748 156.6602 
Q 90.75748 156.271875 90.485747 156.053736 
Q 90.214014 155.834657 89.729783 155.834657 
L 89.218285 155.834657 
L 89.218285 155.346665 
L 89.753289 155.346665 
Q 90.190507 155.346665 90.42275 155.171778 
Q 90.654993 154.99689 90.654993 154.667801 
Q 90.654993 154.33025 90.415228 154.149721 
Q 90.176403 153.968252 89.729783 153.968252 
Q 89.485317 153.968252 89.206061 154.021847 
Q 88.926806 154.074501 88.592076 154.185451 
L 88.592076 153.657028 
Q 88.930567 153.563003 89.225807 153.51599 
Q 89.521046 153.468978 89.782437 153.468978 
Q 90.45848 153.468978 90.851506 153.776441 
Q 91.245472 154.082963 91.245472 154.605745 
Q 91.245472 154.970563 91.036736 155.221611 
Q 90.827999 155.472659 90.443436 155.569505 
z
"/>
   </g>
   <g id="patch_32">
    <path clip-path="url(#p9d22259cd7)" d="M 57.817563 147.622478 
L 57.817563 149.077051 
L 57.274096 149.077051 
L 57.274096 144.55537 
Q 57.274096 143.215508 58.525574 143.215508 
Q 59.801499 143.215508 59.801499 144.346634 
Q 59.801499 145.151491 59.295642 145.44579 
Q 60.118364 145.710002 60.118364 146.494174 
Q 60.118364 147.88763 58.702342 147.88763 
Q 58.078954 147.88763 57.817563 147.622478 
z
M 57.817563 146.917288 
Q 58.143831 147.425965 58.723028 147.425965 
Q 59.569256 147.425965 59.569256 146.503576 
Q 59.569256 145.674272 58.205888 145.73915 
L 58.205888 145.239875 
Q 59.272136 145.239875 59.272136 144.299621 
Q 59.272136 143.656487 58.58481 143.656487 
Q 57.817563 143.656487 57.817563 144.573235 
z
"/>
   </g>
   <g id="patch_33">
    <path clip-path="url(#p9d22259cd7)" d="M 65.085726 147.326298 
L 67.157106 147.326298 
L 67.157106 147.825573 
L 64.372073 147.825573 
L 64.372073 147.326298 
Q 64.709625 146.976524 65.292582 146.387925 
Q 65.87648 145.798386 66.02598 145.627259 
Q 66.310877 145.307573 66.423708 145.085673 
Q 66.537478 144.863773 66.537478 144.649395 
Q 66.537478 144.299621 66.292072 144.079601 
Q 66.046666 143.858642 65.652699 143.858642 
Q 65.373444 143.858642 65.06316 143.955488 
Q 64.753817 144.052334 64.401221 144.249787 
L 64.401221 143.649905 
Q 64.759458 143.506046 65.070682 143.432707 
Q 65.382846 143.359367 65.641416 143.359367 
Q 66.3231 143.359367 66.72835 143.700679 
Q 67.133599 144.041051 67.133599 144.610845 
Q 67.133599 144.881638 67.032052 145.124224 
Q 66.931445 145.365869 66.663472 145.694958 
Q 66.590133 145.780521 66.196166 146.187651 
Q 65.80314 146.594781 65.085726 147.326298 
z
"/>
   </g>
   <g id="patch_34">
    <path clip-path="url(#p9d22259cd7)" d="M 97.870502 169.970435 
C 99.147216 169.970435 100.371811 169.463191 101.274585 168.560418 
C 102.177358 167.657644 102.684602 166.433049 102.684602 165.156335 
C 102.684602 163.87962 102.177358 162.655025 101.274585 161.752252 
C 100.371811 160.849478 99.147216 160.342234 97.870502 160.342234 
C 96.593787 160.342234 95.369192 160.849478 94.466419 161.752252 
C 93.563645 162.655025 93.056401 163.87962 93.056401 165.156335 
C 93.056401 166.433049 93.563645 167.657644 94.466419 168.560418 
C 95.369192 169.463191 96.593787 169.970435 97.870502 169.970435 
z
" style="fill:#00a651;stroke:#000000;stroke-linejoin:miter;stroke-width:0.837;"/>
   </g>
   <g id="patch_35">
    <path clip-path="url(#p9d22259cd7)" d="M 73.8 186.819786 
C 75.076714 186.819786 76.30131 186.312542 77.204083 185.409769 
C 78.106856 184.506995 78.6141 183.2824 78.6141 182.005686 
C 78.6141 180.728971 78.106856 179.504376 77.204083 178.601603 
C 76.30131 177.698829 75.076714 177.191585 73.8 177.191585 
C 72.523286 177.191585 71.29869 177.698829 70.395917 178.601603 
C 69.493144 179.504376 68.9859 180.728971 68.9859 182.005686 
C 68.9859 183.2824 69.493144 184.506995 70.395917 185.409769 
C 71.29869 186.312542 72.523286 186.819786 73.8 186.819786 
z
" style="fill:#00a651;stroke:#000000;stroke-linejoin:miter;stroke-width:0.837;"/>
   </g>
   <g id="patch_36">
    <path clip-path="url(#p9d22259cd7)" d="M 73.8 153.121084 
C 75.076714 153.121084 76.30131 152.61384 77.204083 151.711066 
C 78.106856 150.808293 78.6141 149.583698 78.6141 148.306983 
C 78.6141 147.030269 78.106856 145.805674 77.204083 144.9029 
C 76.30131 144.000127 75.076714 143.492883 73.8 143.492883 
C 72.523286 143.492883 71.29869 144.000127 70.395917 144.9029 
C 69.493144 145.805674 68.9859 147.030269 68.9859 148.306983 
C 68.9859 149.583698 69.493144 150.808293 70.395917 151.711066 
C 71.29869 152.61384 72.523286 153.121084 73.8 153.121084 
z
" style="fill:#00a651;stroke:#000000;stroke-linejoin:miter;stroke-width:0.837;"/>
   </g>
   <g id="patch_37">
    <path clip-path="url(#p9d22259cd7)" d="M 54.543599 143.492883 
L 54.543599 153.121084 
L 44.915398 153.121084 
L 44.915398 143.492883 
L 54.543599 143.492883 
z
" style="fill:#0090bc;stroke:#000000;stroke-linejoin:miter;stroke-width:0.837;"/>
   </g>
  </g>
 </g>
 <defs>
  <clipPath id="p56d06fcd5b">
   <rect height="47.964706" width="79.493486" x="34.053257" y="25.92"/>
  </clipPath>
  <clipPath id="p98fa76023c">
   <rect height="29.874896" width="111.6" x="18" y="92.522552"/>
  </clipPath>
  <clipPath id="p9d22259cd7">
   <rect height="47.964706" width="63.546125" x="42.026938" y="141.035294"/>
  </clipPath>
 </defs>
</svg>
