<?xml version="1.0" encoding="utf-8" standalone="no"?>
<!DOCTYPE svg PUBLIC "-//W3C//DTD SVG 1.1//EN"
  "http://www.w3.org/Graphics/SVG/1.1/DTD/svg11.dtd">
<!-- Created with matplotlib (http://matplotlib.org/) -->
<svg height="144pt" version="1.1" viewBox="0 0 144 144" width="144pt" xmlns="http://www.w3.org/2000/svg" xmlns:xlink="http://www.w3.org/1999/xlink">
 <defs>
  <style type="text/css">
*{stroke-linecap:butt;stroke-linejoin:round;}
  </style>
 </defs>
 <g id="figure_1">
  <g id="patch_1">
   <path d="M 0 144 
L 144 144 
L 144 0 
L 0 0 
z
" style="fill:#ffffff;"/>
  </g>
  <g id="axes_1">
   <g id="line2d_1">
    <path clip-path="url(#p5530ee03e5)" d="M 97.161687 29.40937 
L 50.438313 29.40937 
" style="fill:none;stroke:#000000;stroke-linecap:square;stroke-width:1.116;"/>
   </g>
   <g id="line2d_2">
    <path clip-path="url(#p5530ee03e5)" d="M 50.438313 29.40937 
L 50.438313 57.443395 
" style="fill:none;stroke:#000000;stroke-linecap:square;stroke-width:1.116;"/>
   </g>
   <g id="patch_2">
    <path clip-path="url(#p5530ee03e5)" d="M 66.138097 28.080674 
L 66.138097 30.904153 
L 65.08317 30.904153 
L 65.08317 22.127094 
Q 65.08317 19.526281 67.512421 19.526281 
Q 69.989125 19.526281 69.989125 21.721915 
Q 69.989125 23.284227 69.007204 23.855494 
Q 70.604194 24.368356 70.604194 25.890516 
Q 70.604194 28.595361 67.855546 28.595361 
Q 66.645483 28.595361 66.138097 28.080674 
z
M 66.138097 26.711825 
Q 66.771417 27.699221 67.895699 27.699221 
Q 69.538317 27.699221 69.538317 25.908767 
Q 69.538317 24.299001 66.891876 24.424935 
L 66.891876 23.45579 
Q 68.961576 23.45579 68.961576 21.630658 
Q 68.961576 20.382268 67.627404 20.382268 
Q 66.138097 20.382268 66.138097 22.161771 
z
"/>
   </g>
   <g id="patch_3">
    <path clip-path="url(#p5530ee03e5)" d="M 82.744971 23.882871 
Q 83.571756 24.059908 84.035339 24.620224 
Q 84.500748 25.178714 84.500748 26.000024 
Q 84.500748 27.259365 83.63381 27.951089 
Q 82.766873 28.640989 81.169882 28.640989 
Q 80.635119 28.640989 80.067503 28.535132 
Q 79.499887 28.429274 78.895768 28.217559 
L 78.895768 27.106053 
Q 79.373953 27.385299 79.943394 27.527659 
Q 80.51466 27.670019 81.13703 27.670019 
Q 82.219333 27.670019 82.786949 27.242938 
Q 83.354565 26.815857 83.354565 26.000024 
Q 83.354565 25.246244 82.827102 24.822814 
Q 82.299639 24.397558 81.359696 24.397558 
L 80.366824 24.397558 
L 80.366824 23.450314 
L 81.405324 23.450314 
Q 82.254011 23.450314 82.704818 23.11084 
Q 83.155626 22.771365 83.155626 22.132569 
Q 83.155626 21.477347 82.690217 21.126922 
Q 82.226634 20.774671 81.359696 20.774671 
Q 80.885162 20.774671 80.343098 20.878704 
Q 79.801033 20.980911 79.151287 21.196277 
L 79.151287 20.170553 
Q 79.808334 19.988039 80.381425 19.896783 
Q 80.954517 19.805526 81.461903 19.805526 
Q 82.774173 19.805526 83.537078 20.402344 
Q 84.301809 20.997337 84.301809 22.012111 
Q 84.301809 22.720262 83.896629 23.207572 
Q 83.49145 23.694882 82.744971 23.882871 
z
"/>
   </g>
   <g id="patch_4">
    <path clip-path="url(#p5530ee03e5)" d="M 53.146808 49.339809 
L 57.167574 49.339809 
L 57.167574 50.308954 
L 51.761533 50.308954 
L 51.761533 49.339809 
Q 52.416756 48.66086 53.548337 47.518328 
Q 54.681744 46.37397 54.97194 46.041796 
Q 55.524955 45.421251 55.743971 44.99052 
Q 55.964812 44.559789 55.964812 44.143659 
Q 55.964812 43.46471 55.488452 43.037629 
Q 55.012093 42.608723 54.247363 42.608723 
Q 53.705299 42.608723 53.103005 42.796712 
Q 52.502537 42.9847 51.818112 43.367978 
L 51.818112 42.203544 
Q 52.513488 41.924299 53.117606 41.781938 
Q 53.72355 41.639578 54.225461 41.639578 
Q 55.548682 41.639578 56.335314 42.302101 
Q 57.121945 42.962799 57.121945 44.068829 
Q 57.121945 44.594467 56.924831 45.065351 
Q 56.729542 45.534409 56.209379 46.173206 
Q 56.067019 46.339293 55.302289 47.129575 
Q 54.539384 47.919857 53.146808 49.339809 
z
M 59.706104 48.8598 
L 60.908866 48.8598 
L 60.908866 49.841721 
L 59.974398 51.666852 
L 59.23887 51.666852 
L 59.706104 49.841721 
z
M 66.790125 45.716923 
Q 67.61691 45.89396 68.080493 46.454276 
Q 68.545902 47.012766 68.545902 47.834076 
Q 68.545902 49.093417 67.678964 49.785141 
Q 66.812027 50.475041 65.215036 50.475041 
Q 64.680273 50.475041 64.112657 50.369184 
Q 63.545041 50.263326 62.940922 50.051611 
L 62.940922 48.940105 
Q 63.419106 49.219351 63.988548 49.361711 
Q 64.559814 49.504071 65.182184 49.504071 
Q 66.264487 49.504071 66.832103 49.07699 
Q 67.399719 48.649909 67.399719 47.834076 
Q 67.399719 47.080296 66.872256 46.656866 
Q 66.344793 46.23161 65.40485 46.23161 
L 64.411978 46.23161 
L 64.411978 45.284366 
L 65.450478 45.284366 
Q 66.299164 45.284366 66.749972 44.944892 
Q 67.20078 44.605417 67.20078 43.966621 
Q 67.20078 43.311399 66.735371 42.960974 
Q 66.271788 42.608723 65.40485 42.608723 
Q 64.930316 42.608723 64.388251 42.712756 
Q 63.846187 42.814963 63.19644 43.030329 
L 63.19644 42.004605 
Q 63.853488 41.822091 64.426579 41.730835 
Q 64.999671 41.639578 65.507057 41.639578 
Q 66.819327 41.639578 67.582232 42.236396 
Q 68.346962 42.831389 68.346962 43.846163 
Q 68.346962 44.554314 67.941783 45.041624 
Q 67.536604 45.528934 66.790125 45.716923 
z
M 70.850815 48.8598 
L 72.053577 48.8598 
L 72.053577 49.841721 
L 71.119109 51.666852 
L 70.383581 51.666852 
L 70.850815 49.841721 
z
M 77.609963 42.796712 
L 74.700703 47.343115 
L 77.609963 47.343115 
z
M 77.306991 41.792889 
L 78.756145 41.792889 
L 78.756145 47.343115 
L 79.971683 47.343115 
L 79.971683 48.301309 
L 78.756145 48.301309 
L 78.756145 50.308954 
L 77.609963 50.308954 
L 77.609963 48.301309 
L 73.766235 48.301309 
L 73.766235 47.189804 
z
M 81.995526 48.8598 
L 83.198288 48.8598 
L 83.198288 49.841721 
L 82.263821 51.666852 
L 81.528293 51.666852 
L 81.995526 49.841721 
z
M 88.196184 45.592814 
Q 87.420503 45.592814 86.966045 46.123927 
Q 86.513412 46.653215 86.513412 47.576732 
Q 86.513412 48.494773 86.966045 49.029537 
Q 87.420503 49.562475 88.196184 49.562475 
Q 88.971865 49.562475 89.424497 49.029537 
Q 89.87713 48.494773 89.87713 47.576732 
Q 89.87713 46.653215 89.424497 46.123927 
Q 88.971865 45.592814 88.196184 45.592814 
z
M 90.483074 41.980878 
L 90.483074 43.030329 
Q 90.048692 42.825914 89.60701 42.718231 
Q 89.165329 42.608723 88.730947 42.608723 
Q 87.59024 42.608723 86.987946 43.378929 
Q 86.387478 44.149134 86.301697 45.705972 
Q 86.637521 45.209536 87.144908 44.944892 
Q 87.654119 44.680248 88.263713 44.680248 
Q 89.546781 44.680248 90.291435 45.459579 
Q 91.036089 46.237085 91.036089 47.576732 
Q 91.036089 48.889002 90.260408 49.682934 
Q 89.484727 50.475041 88.196184 50.475041 
Q 86.717827 50.475041 85.93667 49.34346 
Q 85.155514 48.210053 85.155514 46.060047 
Q 85.155514 44.041452 86.113708 42.840515 
Q 87.071902 41.639578 88.685319 41.639578 
Q 89.1197 41.639578 89.561382 41.725359 
Q 90.003064 41.811141 90.483074 41.980878 
z
"/>
   </g>
   <g id="patch_5">
    <path clip-path="url(#p5530ee03e5)" d="M 106.506362 20.064695 
L 106.506362 38.754045 
L 87.817012 38.754045 
L 87.817012 20.064695 
L 106.506362 20.064695 
z
" style="fill:#ffd400;stroke:#000000;stroke-linejoin:miter;stroke-width:1.116;"/>
   </g>
   <g id="patch_6">
    <path clip-path="url(#p5530ee03e5)" d="M 50.438313 38.754045 
C 52.916549 38.754045 55.293618 37.769431 57.045996 36.017053 
C 58.798374 34.264675 59.782988 31.887607 59.782988 29.40937 
C 59.782988 26.931133 58.798374 24.554065 57.045996 22.801687 
C 55.293618 21.049309 52.916549 20.064695 50.438313 20.064695 
C 47.960076 20.064695 45.583008 21.049309 43.83063 22.801687 
C 42.078252 24.554065 41.093638 26.931133 41.093638 29.40937 
C 41.093638 31.887607 42.078252 34.264675 43.83063 36.017053 
C 45.583008 37.769431 47.960076 38.754045 50.438313 38.754045 
z
" style="fill:#ffd400;stroke:#000000;stroke-linejoin:miter;stroke-width:1.116;"/>
   </g>
   <g id="patch_7">
    <path clip-path="url(#p5530ee03e5)" d="M 57.446819 50.434888 
L 43.429806 64.451901 
z
" style="fill:#ffffff;stroke:#000000;stroke-linejoin:miter;stroke-width:1.116;"/>
   </g>
   <g id="patch_8">
    <path clip-path="url(#p5530ee03e5)" d="M 43.429806 50.434888 
L 57.446819 64.451901 
z
" style="fill:#ffffff;stroke:#000000;stroke-linejoin:miter;stroke-width:1.116;"/>
   </g>
  </g>
  <g id="axes_2">
   <g id="line2d_3">
    <path clip-path="url(#p6a1234f9b4)" d="M 109.188965 90.751915 
L 70.04522 90.751915 
" style="fill:none;stroke:#000000;stroke-linecap:square;stroke-width:0.837;"/>
   </g>
   <g id="line2d_4">
    <path clip-path="url(#p6a1234f9b4)" d="M 109.188965 90.751915 
L 109.188965 114.238161 
" style="fill:none;stroke:#000000;stroke-linecap:square;stroke-width:0.837;"/>
   </g>
   <g id="line2d_5">
    <path clip-path="url(#p6a1234f9b4)" d="M 70.04522 90.751915 
L 30.901476 90.751915 
" style="fill:none;stroke:#000000;stroke-linecap:square;stroke-width:0.837;"/>
   </g>
   <g id="line2d_6">
    <path clip-path="url(#p6a1234f9b4)" d="M 70.04522 90.751915 
L 70.04522 114.238161 
" style="fill:none;stroke:#000000;stroke-linecap:square;stroke-width:0.837;"/>
   </g>
   <g id="patch_9">
    <path clip-path="url(#p6a1234f9b4)" d="M 83.19813 89.638764 
L 83.19813 92.004209 
L 82.314338 92.004209 
L 82.314338 84.650995 
Q 82.314338 82.472095 84.349507 82.472095 
Q 86.424431 82.472095 86.424431 84.311545 
Q 86.424431 85.620414 85.601801 86.099008 
Q 86.939722 86.528672 86.939722 87.803901 
Q 86.939722 90.069957 84.636969 90.069957 
Q 83.623207 90.069957 83.19813 89.638764 
z
M 83.19813 88.491975 
Q 83.728711 89.319192 84.670608 89.319192 
Q 86.046755 89.319192 86.046755 87.819192 
Q 86.046755 86.470568 83.829629 86.576072 
L 83.829629 85.764145 
Q 85.563574 85.764145 85.563574 84.235093 
Q 85.563574 83.189221 84.445837 83.189221 
Q 83.19813 83.189221 83.19813 84.680047 
z
"/>
   </g>
   <g id="patch_10">
    <path clip-path="url(#p6a1234f9b4)" d="M 96.838808 83.67546 
L 94.401498 87.484329 
L 96.838808 87.484329 
z
M 96.584985 82.834481 
L 97.799053 82.834481 
L 97.799053 87.484329 
L 98.817402 87.484329 
L 98.817402 88.287082 
L 97.799053 88.287082 
L 97.799053 89.96904 
L 96.838808 89.96904 
L 96.838808 88.287082 
L 93.618623 88.287082 
L 93.618623 87.355889 
z
"/>
   </g>
   <g id="patch_11">
    <path clip-path="url(#p6a1234f9b4)" d="M 113.551352 104.413999 
Q 114.244012 104.562317 114.632392 105.031736 
Q 115.0223 105.499626 115.0223 106.1877 
Q 115.0223 107.242746 114.296 107.822257 
Q 113.5697 108.400239 112.231779 108.400239 
Q 111.783767 108.400239 111.308232 108.311554 
Q 110.832696 108.222869 110.32658 108.045499 
L 110.32658 107.114306 
Q 110.727192 107.348251 111.204256 107.467517 
Q 111.682849 107.586783 112.204256 107.586783 
Q 113.110984 107.586783 113.58652 107.228985 
Q 114.062055 106.871186 114.062055 106.1877 
Q 114.062055 105.556201 113.620159 105.201461 
Q 113.178263 104.845192 112.390801 104.845192 
L 111.558996 104.845192 
L 111.558996 104.051613 
L 112.429027 104.051613 
Q 113.140036 104.051613 113.517712 103.76721 
Q 113.895388 103.482806 113.895388 102.947637 
Q 113.895388 102.398708 113.50548 102.10513 
Q 113.117101 101.810022 112.390801 101.810022 
Q 111.993247 101.810022 111.539118 101.897178 
Q 111.08499 101.982805 110.540647 102.163234 
L 110.540647 101.303906 
Q 111.091106 101.151001 111.571229 101.074548 
Q 112.051351 100.998096 112.476428 100.998096 
Q 113.575816 100.998096 114.21496 101.498096 
Q 114.855633 101.996567 114.855633 102.84672 
Q 114.855633 103.439992 114.516184 103.848249 
Q 114.176734 104.256506 113.551352 104.413999 
z
M 116.953302 107.047027 
L 117.960948 107.047027 
L 117.960948 107.869658 
L 117.178073 109.39871 
L 116.561865 109.39871 
L 116.953302 107.869658 
z
M 122.148067 104.310023 
Q 121.49822 104.310023 121.117486 104.754978 
Q 120.738281 105.198403 120.738281 105.972103 
Q 120.738281 106.741217 121.117486 107.189229 
Q 121.49822 107.635712 122.148067 107.635712 
Q 122.797914 107.635712 123.177119 107.189229 
Q 123.556324 106.741217 123.556324 105.972103 
Q 123.556324 105.198403 123.177119 104.754978 
Q 122.797914 104.310023 122.148067 104.310023 
z
M 124.06397 101.284028 
L 124.06397 102.163234 
Q 123.700055 101.99198 123.330025 101.901766 
Q 122.959994 101.810022 122.596079 101.810022 
Q 121.640422 101.810022 121.135834 102.455283 
Q 120.632776 103.100543 120.560911 104.404825 
Q 120.842256 103.988922 121.267333 103.76721 
Q 121.693938 103.545497 122.204642 103.545497 
Q 123.279566 103.545497 123.903419 104.198402 
Q 124.527273 104.849779 124.527273 105.972103 
Q 124.527273 107.071492 123.877425 107.73663 
Q 123.227578 108.400239 122.148067 108.400239 
Q 120.909534 108.400239 120.2551 107.452226 
Q 119.600666 106.502685 119.600666 104.701461 
Q 119.600666 103.010329 120.403418 102.004212 
Q 121.206171 100.998096 122.557853 100.998096 
Q 122.921768 100.998096 123.291798 101.069961 
Q 123.661829 101.141826 124.06397 101.284028 
z
"/>
   </g>
   <g id="patch_12">
    <path clip-path="url(#p6a1234f9b4)" d="M 44.054386 89.638764 
L 44.054386 92.004209 
L 43.170593 92.004209 
L 43.170593 84.650995 
Q 43.170593 82.472095 45.205762 82.472095 
Q 47.280687 82.472095 47.280687 84.311545 
Q 47.280687 85.620414 46.458056 86.099008 
Q 47.795977 86.528672 47.795977 87.803901 
Q 47.795977 90.069957 45.493224 90.069957 
Q 44.479462 90.069957 44.054386 89.638764 
z
M 44.054386 88.491975 
Q 44.584967 89.319192 45.526863 89.319192 
Q 46.903011 89.319192 46.903011 87.819192 
Q 46.903011 86.470568 44.685885 86.576072 
L 44.685885 85.764145 
Q 46.41983 85.764145 46.41983 84.235093 
Q 46.41983 83.189221 45.302093 83.189221 
Q 44.054386 83.189221 44.054386 84.680047 
z
"/>
   </g>
   <g id="patch_13">
    <path clip-path="url(#p6a1234f9b4)" d="M 57.967235 86.121944 
Q 58.659895 86.270262 59.048275 86.739681 
Q 59.438183 87.207571 59.438183 87.895645 
Q 59.438183 88.950691 58.711883 89.530202 
Q 57.985583 90.108184 56.647662 90.108184 
Q 56.19965 90.108184 55.724115 90.019499 
Q 55.248579 89.930813 54.742463 89.753443 
L 54.742463 88.82225 
Q 55.143075 89.056195 55.620139 89.175462 
Q 56.098732 89.294728 56.620139 89.294728 
Q 57.526868 89.294728 58.002403 88.936929 
Q 58.477938 88.579131 58.477938 87.895645 
Q 58.477938 87.264146 58.036042 86.909406 
Q 57.594146 86.553136 56.806684 86.553136 
L 55.974879 86.553136 
L 55.974879 85.759558 
L 56.84491 85.759558 
Q 57.55592 85.759558 57.933595 85.475154 
Q 58.311271 85.190751 58.311271 84.655582 
Q 58.311271 84.106652 57.921363 83.813074 
Q 57.532984 83.517967 56.806684 83.517967 
Q 56.40913 83.517967 55.955002 83.605123 
Q 55.500873 83.69075 54.95653 83.871178 
L 54.95653 83.011851 
Q 55.506989 82.858946 55.987112 82.782493 
Q 56.467234 82.70604 56.892311 82.70604 
Q 57.991699 82.70604 58.630843 83.206041 
Q 59.271516 83.704512 59.271516 84.554665 
Q 59.271516 85.147937 58.932067 85.556194 
Q 58.592617 85.964451 57.967235 86.121944 
z
"/>
   </g>
   <g id="patch_14">
    <path clip-path="url(#p6a1234f9b4)" d="M 72.314334 107.449168 
L 75.682837 107.449168 
L 75.682837 108.261095 
L 71.153783 108.261095 
L 71.153783 107.449168 
Q 71.702713 106.880361 72.650726 105.923174 
Q 73.600268 104.964458 73.843387 104.68617 
Q 74.30669 104.166292 74.490176 103.805436 
Q 74.675191 103.44458 74.675191 103.095956 
Q 74.675191 102.527148 74.276109 102.16935 
Q 73.877026 101.810022 73.236353 101.810022 
Q 72.782224 101.810022 72.277637 101.967515 
Q 71.774579 102.125007 71.201184 102.446108 
L 71.201184 101.470573 
Q 71.783753 101.236628 72.28987 101.117362 
Q 72.797515 100.998096 73.218004 100.998096 
Q 74.326567 100.998096 74.985589 101.553142 
Q 75.644611 102.106659 75.644611 103.033264 
Q 75.644611 103.473632 75.479473 103.868127 
Q 75.315864 104.261094 74.880084 104.796262 
Q 74.760818 104.935406 74.120145 105.597485 
Q 73.481001 106.259565 72.314334 107.449168 
z
M 77.809558 107.047027 
L 78.817204 107.047027 
L 78.817204 107.869658 
L 78.034329 109.39871 
L 77.418121 109.39871 
L 77.809558 107.869658 
z
M 83.472213 101.967515 
L 81.034903 105.776385 
L 83.472213 105.776385 
z
M 83.21839 101.126536 
L 84.432458 101.126536 
L 84.432458 105.776385 
L 85.450807 105.776385 
L 85.450807 106.579137 
L 84.432458 106.579137 
L 84.432458 108.261095 
L 83.472213 108.261095 
L 83.472213 106.579137 
L 80.252028 106.579137 
L 80.252028 105.647944 
z
M 87.146335 107.047027 
L 88.15398 107.047027 
L 88.15398 107.869658 
L 87.371106 109.39871 
L 86.754897 109.39871 
L 87.146335 107.869658 
z
M 92.3411 104.310023 
Q 91.691252 104.310023 91.310518 104.754978 
Q 90.931313 105.198403 90.931313 105.972103 
Q 90.931313 106.741217 91.310518 107.189229 
Q 91.691252 107.635712 92.3411 107.635712 
Q 92.990947 107.635712 93.370152 107.189229 
Q 93.749357 106.741217 93.749357 105.972103 
Q 93.749357 105.198403 93.370152 104.754978 
Q 92.990947 104.310023 92.3411 104.310023 
z
M 94.257002 101.284028 
L 94.257002 102.163234 
Q 93.893088 101.99198 93.523057 101.901766 
Q 93.153027 101.810022 92.789112 101.810022 
Q 91.833454 101.810022 91.328867 102.455283 
Q 90.825809 103.100543 90.753943 104.404825 
Q 91.035289 103.988922 91.460365 103.76721 
Q 91.886971 103.545497 92.397675 103.545497 
Q 93.472598 103.545497 94.096452 104.198402 
Q 94.720305 104.849779 94.720305 105.972103 
Q 94.720305 107.071492 94.070458 107.73663 
Q 93.420611 108.400239 92.3411 108.400239 
Q 91.102567 108.400239 90.448133 107.452226 
Q 89.793698 106.502685 89.793698 104.701461 
Q 89.793698 103.010329 90.596451 102.004212 
Q 91.399203 100.998096 92.750886 100.998096 
Q 93.1148 100.998096 93.484831 101.069961 
Q 93.854862 101.141826 94.257002 101.284028 
z
"/>
   </g>
   <g id="patch_15">
    <path clip-path="url(#p6a1234f9b4)" d="M 117.017714 82.923166 
L 117.017714 98.580664 
L 101.360216 98.580664 
L 101.360216 82.923166 
L 117.017714 82.923166 
z
" style="fill:#0090bc;stroke:#000000;stroke-linejoin:miter;stroke-width:0.837;"/>
   </g>
   <g id="patch_16">
    <path clip-path="url(#p6a1234f9b4)" d="M 70.04522 98.580664 
C 72.121429 98.580664 74.112881 97.755777 75.580982 96.287676 
C 77.049083 94.819575 77.873969 92.828123 77.873969 90.751915 
C 77.873969 88.675706 77.049083 86.684254 75.580982 85.216153 
C 74.112881 83.748052 72.121429 82.923166 70.04522 82.923166 
C 67.969012 82.923166 65.97756 83.748052 64.509459 85.216153 
C 63.041358 86.684254 62.216472 88.675706 62.216472 90.751915 
C 62.216472 92.828123 63.041358 94.819575 64.509459 96.287676 
C 65.97756 97.755777 67.969012 98.580664 70.04522 98.580664 
z
" style="fill:#ffd400;stroke:#000000;stroke-linejoin:miter;stroke-width:0.837;"/>
   </g>
   <g id="patch_17">
    <path clip-path="url(#p6a1234f9b4)" d="M 115.060526 108.3666 
L 103.317403 120.109723 
z
" style="fill:#ffffff;stroke:#000000;stroke-linejoin:miter;stroke-width:0.837;"/>
   </g>
   <g id="patch_18">
    <path clip-path="url(#p6a1234f9b4)" d="M 103.317403 108.3666 
L 115.060526 120.109723 
z
" style="fill:#ffffff;stroke:#000000;stroke-linejoin:miter;stroke-width:0.837;"/>
   </g>
   <g id="patch_19">
    <path clip-path="url(#p6a1234f9b4)" d="M 38.730225 82.923166 
L 38.730225 98.580664 
L 23.072727 98.580664 
L 23.072727 82.923166 
L 38.730225 82.923166 
z
" style="fill:#0090bc;stroke:#000000;stroke-linejoin:miter;stroke-width:0.837;"/>
   </g>
   <g id="patch_20">
    <path clip-path="url(#p6a1234f9b4)" d="M 75.916782 108.3666 
L 64.173659 120.109723 
z
" style="fill:#ffffff;stroke:#000000;stroke-linejoin:miter;stroke-width:0.837;"/>
   </g>
   <g id="patch_21">
    <path clip-path="url(#p6a1234f9b4)" d="M 64.173659 108.3666 
L 75.916782 120.109723 
z
" style="fill:#ffffff;stroke:#000000;stroke-linejoin:miter;stroke-width:0.837;"/>
   </g>
  </g>
 </g>
 <defs>
  <clipPath id="p5530ee03e5">
   <rect height="49.418182" width="71.953997" x="37.823001" y="17.28"/>
  </clipPath>
  <clipPath id="p6a1234f9b4">
   <rect height="41.40139" width="111.6" x="18" y="80.590214"/>
  </clipPath>
 </defs>
</svg>
