<?xml version="1.0" encoding="utf-8" standalone="no"?>
<!DOCTYPE svg PUBLIC "-//W3C//DTD SVG 1.1//EN"
  "http://www.w3.org/Graphics/SVG/1.1/DTD/svg11.dtd">
<!-- Created with matplotlib (http://matplotlib.org/) -->
<svg height="72pt" version="1.1" viewBox="0 0 144 72" width="144pt" xmlns="http://www.w3.org/2000/svg" xmlns:xlink="http://www.w3.org/1999/xlink">
 <defs>
  <style type="text/css">
*{stroke-linecap:butt;stroke-linejoin:round;}
  </style>
 </defs>
 <g id="figure_1">
  <g id="patch_1">
   <path d="M 0 72 
L 144 72 
L 144 0 
L 0 0 
z
" style="fill:#ffffff;"/>
  </g>
  <g id="axes_1">
   <g id="line2d_1">
    <path clip-path="url(#p744f1cda7f)" d="M 94.653283 21.741212 
L 94.653283 52.771515 
" style="fill:none;stroke:#000000;stroke-linecap:square;stroke-width:1.116;"/>
   </g>
   <g id="line2d_2">
    <path clip-path="url(#p744f1cda7f)" d="M 94.653283 21.741212 
L 42.936111 21.741212 
" style="fill:none;stroke:#000000;stroke-linecap:square;stroke-width:1.116;"/>
   </g>
   <g id="patch_2">
    <path clip-path="url(#p744f1cda7f)" d="M 97.651263 43.801818 
L 102.101768 43.801818 
L 102.101768 44.874545 
L 96.117929 44.874545 
L 96.117929 43.801818 
Q 96.843182 43.050303 98.095707 41.785657 
Q 99.350253 40.51899 99.671465 40.151313 
Q 100.283586 39.464444 100.52601 38.987677 
Q 100.770455 38.510909 100.770455 38.050303 
Q 100.770455 37.298788 100.243182 36.826061 
Q 99.715909 36.351313 98.869444 36.351313 
Q 98.269444 36.351313 97.602778 36.559394 
Q 96.938131 36.767475 96.180556 37.191717 
L 96.180556 35.902828 
Q 96.950253 35.593737 97.618939 35.436162 
Q 98.289646 35.278586 98.845202 35.278586 
Q 100.309848 35.278586 101.180556 36.011919 
Q 102.051263 36.743232 102.051263 37.967475 
Q 102.051263 38.549293 101.833081 39.070505 
Q 101.616919 39.589697 101.041162 40.296768 
Q 100.883586 40.480606 100.037121 41.355354 
Q 99.192677 42.230101 97.651263 43.801818 
z
M 104.911616 43.270505 
L 106.242929 43.270505 
L 106.242929 44.357374 
L 105.208586 46.377576 
L 104.394444 46.377576 
L 104.911616 44.357374 
z
M 112.393182 36.559394 
L 109.17298 41.591717 
L 112.393182 41.591717 
z
M 112.057828 35.448283 
L 113.661869 35.448283 
L 113.661869 41.591717 
L 115.007323 41.591717 
L 115.007323 42.652323 
L 113.661869 42.652323 
L 113.661869 44.874545 
L 112.393182 44.874545 
L 112.393182 42.652323 
L 108.138636 42.652323 
L 108.138636 41.42202 
z
"/>
   </g>
   <g id="patch_3">
    <path clip-path="url(#p744f1cda7f)" d="M 63.275505 17.41798 
L 62.996717 15.959394 
Q 62.713889 14.462424 61.588636 14.462424 
Q 60.744192 14.462424 60.358333 15.157374 
Q 59.871465 16.028081 59.871465 17.177576 
Q 59.871465 18.567475 60.346212 19.230101 
Q 60.825 19.904848 61.588636 19.904848 
Q 62.435101 19.904848 62.889646 18.559394 
z
M 63.92601 15.486667 
L 64.550253 13.636162 
L 65.586616 13.636162 
L 64.291667 17.468485 
L 64.544192 18.850303 
Q 64.600758 19.159394 64.82096 19.41798 
Q 65.081566 19.72101 65.283586 19.72101 
L 65.839141 19.72101 
L 65.839141 20.706869 
L 65.144192 20.706869 
Q 64.550253 20.706869 64.02096 20.175556 
Q 63.760354 19.910909 63.653283 19.355354 
Q 63.364394 20.056364 62.770455 20.605859 
Q 62.491667 20.864444 61.588636 20.864444 
Q 60.105808 20.864444 59.386616 19.904848 
Q 58.647222 18.912929 58.647222 17.177576 
Q 58.647222 15.32101 59.449242 14.450303 
Q 60.340152 13.478586 61.588636 13.478586 
Q 63.552273 13.478586 63.92601 15.486667 
z
"/>
   </g>
   <g id="patch_4">
    <path clip-path="url(#p744f1cda7f)" d="M 78.695707 15.62404 
Q 79.610859 15.82 80.12399 16.440202 
Q 80.639141 17.058384 80.639141 17.967475 
Q 80.639141 19.361414 79.679545 20.127071 
Q 78.719949 20.890707 76.952273 20.890707 
Q 76.360354 20.890707 75.732071 20.773535 
Q 75.103788 20.656364 74.435101 20.42202 
L 74.435101 19.191717 
Q 74.964394 19.500808 75.594697 19.658384 
Q 76.22702 19.81596 76.915909 19.81596 
Q 78.113889 19.81596 78.742172 19.343232 
Q 79.370455 18.870505 79.370455 17.967475 
Q 79.370455 17.133131 78.786616 16.664444 
Q 78.202778 16.193737 77.162374 16.193737 
L 76.063384 16.193737 
L 76.063384 15.145253 
L 77.212879 15.145253 
Q 78.152273 15.145253 78.651263 14.769495 
Q 79.150253 14.393737 79.150253 13.686667 
Q 79.150253 12.961414 78.635101 12.573535 
Q 78.12197 12.183636 77.162374 12.183636 
Q 76.637121 12.183636 76.037121 12.298788 
Q 75.437121 12.411919 74.717929 12.650303 
L 74.717929 11.514949 
Q 75.445202 11.312929 76.079545 11.211919 
Q 76.713889 11.110909 77.275505 11.110909 
Q 78.72803 11.110909 79.572475 11.771515 
Q 80.418939 12.430101 80.418939 13.553333 
Q 80.418939 14.337172 79.970455 14.876566 
Q 79.52197 15.41596 78.695707 15.62404 
z
"/>
   </g>
   <g id="patch_5">
    <path clip-path="url(#p744f1cda7f)" d="M 94.653283 32.084646 
C 97.396394 32.084646 100.027523 30.994797 101.967195 29.055125 
C 103.906868 27.115452 104.996717 24.484323 104.996717 21.741212 
C 104.996717 18.998101 103.906868 16.366972 101.967195 14.4273 
C 100.027523 12.487627 97.396394 11.397778 94.653283 11.397778 
C 91.910172 11.397778 89.279043 12.487627 87.33937 14.4273 
C 85.399698 16.366972 84.309848 18.998101 84.309848 21.741212 
C 84.309848 24.484323 85.399698 27.115452 87.33937 29.055125 
C 89.279043 30.994797 91.910172 32.084646 94.653283 32.084646 
z
" style="fill:#00a651;stroke:#000000;stroke-linejoin:miter;stroke-width:1.116;"/>
   </g>
   <g id="patch_6">
    <path clip-path="url(#p744f1cda7f)" d="M 102.410859 45.013939 
L 86.895707 60.529091 
z
" style="fill:#ffffff;stroke:#000000;stroke-linejoin:miter;stroke-width:1.116;"/>
   </g>
   <g id="patch_7">
    <path clip-path="url(#p744f1cda7f)" d="M 86.895707 45.013939 
L 102.410859 60.529091 
z
" style="fill:#ffffff;stroke:#000000;stroke-linejoin:miter;stroke-width:1.116;"/>
   </g>
   <g id="patch_8">
    <path clip-path="url(#p744f1cda7f)" d="M 42.936111 32.084646 
C 45.679222 32.084646 48.310351 30.994797 50.250024 29.055125 
C 52.189696 27.115452 53.279545 24.484323 53.279545 21.741212 
C 53.279545 18.998101 52.189696 16.366972 50.250024 14.4273 
C 48.310351 12.487627 45.679222 11.397778 42.936111 11.397778 
C 40.193 11.397778 37.561871 12.487627 35.622199 14.4273 
C 33.682526 16.366972 32.592677 18.998101 32.592677 21.741212 
C 32.592677 24.484323 33.682526 27.115452 35.622199 29.055125 
C 37.561871 30.994797 40.193 32.084646 42.936111 32.084646 
z
" style="fill:#00a651;stroke:#000000;stroke-linejoin:miter;stroke-width:1.116;"/>
   </g>
  </g>
 </g>
 <defs>
  <clipPath id="p744f1cda7f">
   <rect height="54.36" width="90.656111" x="28.471944" y="8.64"/>
  </clipPath>
 </defs>
</svg>
