<?xml version="1.0" encoding="utf-8" standalone="no"?>
<!DOCTYPE svg PUBLIC "-//W3C//DTD SVG 1.1//EN"
  "http://www.w3.org/Graphics/SVG/1.1/DTD/svg11.dtd">
<!-- Created with matplotlib (http://matplotlib.org/) -->
<svg height="144pt" version="1.1" viewBox="0 0 144 144" width="144pt" xmlns="http://www.w3.org/2000/svg" xmlns:xlink="http://www.w3.org/1999/xlink">
 <defs>
  <style type="text/css">
*{stroke-linecap:butt;stroke-linejoin:round;}
  </style>
 </defs>
 <g id="figure_1">
  <g id="patch_1">
   <path d="M 0 144 
L 144 144 
L 144 0 
L 0 0 
z
" style="fill:#ffffff;"/>
  </g>
  <g id="axes_1">
   <g id="line2d_1">
    <path clip-path="url(#p29ba6d24c6)" d="M 92.679848 29.40937 
L 45.956473 29.40937 
" style="fill:none;stroke:#000000;stroke-linecap:square;stroke-width:1.116;"/>
   </g>
   <g id="line2d_2">
    <path clip-path="url(#p29ba6d24c6)" d="M 92.679848 29.40937 
L 92.679848 57.443395 
" style="fill:none;stroke:#000000;stroke-linecap:square;stroke-width:1.116;"/>
   </g>
   <g id="line2d_3">
    <path clip-path="url(#p29ba6d24c6)" d="M 45.956473 29.40937 
L 45.956473 57.443395 
" style="fill:none;stroke:#000000;stroke-linecap:square;stroke-width:1.116;"/>
   </g>
   <g id="patch_2">
    <path clip-path="url(#p29ba6d24c6)" d="M 61.656257 28.080674 
L 61.656257 30.904153 
L 60.601331 30.904153 
L 60.601331 22.127094 
Q 60.601331 19.526281 63.030582 19.526281 
Q 65.507285 19.526281 65.507285 21.721915 
Q 65.507285 23.284227 64.525364 23.855494 
Q 66.122355 24.368356 66.122355 25.890516 
Q 66.122355 28.595361 63.373706 28.595361 
Q 62.163644 28.595361 61.656257 28.080674 
z
M 61.656257 26.711825 
Q 62.289578 27.699221 63.413859 27.699221 
Q 65.056478 27.699221 65.056478 25.908767 
Q 65.056478 24.299001 62.410037 24.424935 
L 62.410037 23.45579 
Q 64.479736 23.45579 64.479736 21.630658 
Q 64.479736 20.382268 63.145565 20.382268 
Q 61.656257 20.382268 61.656257 22.161771 
z
"/>
   </g>
   <g id="patch_3">
    <path clip-path="url(#p29ba6d24c6)" d="M 77.938258 20.96266 
L 75.028998 25.509063 
L 77.938258 25.509063 
z
M 77.635286 19.958837 
L 79.084441 19.958837 
L 79.084441 25.509063 
L 80.299979 25.509063 
L 80.299979 26.467257 
L 79.084441 26.467257 
L 79.084441 28.474902 
L 77.938258 28.474902 
L 77.938258 26.467257 
L 74.094531 26.467257 
L 74.094531 25.355752 
z
"/>
   </g>
   <g id="patch_4">
    <path clip-path="url(#p29ba6d24c6)" d="M 97.886949 45.716923 
Q 98.713734 45.89396 99.177317 46.454276 
Q 99.642726 47.012766 99.642726 47.834076 
Q 99.642726 49.093417 98.775788 49.785141 
Q 97.908851 50.475041 96.31186 50.475041 
Q 95.777097 50.475041 95.209481 50.369184 
Q 94.641865 50.263326 94.037746 50.051611 
L 94.037746 48.940105 
Q 94.515931 49.219351 95.085372 49.361711 
Q 95.656638 49.504071 96.279008 49.504071 
Q 97.361311 49.504071 97.928927 49.07699 
Q 98.496543 48.649909 98.496543 47.834076 
Q 98.496543 47.080296 97.96908 46.656866 
Q 97.441617 46.23161 96.501674 46.23161 
L 95.508802 46.23161 
L 95.508802 45.284366 
L 96.547302 45.284366 
Q 97.395989 45.284366 97.846796 44.944892 
Q 98.297604 44.605417 98.297604 43.966621 
Q 98.297604 43.311399 97.832195 42.960974 
Q 97.368612 42.608723 96.501674 42.608723 
Q 96.02714 42.608723 95.485076 42.712756 
Q 94.943011 42.814963 94.293265 43.030329 
L 94.293265 42.004605 
Q 94.950312 41.822091 95.523403 41.730835 
Q 96.096495 41.639578 96.603881 41.639578 
Q 97.916151 41.639578 98.679056 42.236396 
Q 99.443787 42.831389 99.443787 43.846163 
Q 99.443787 44.554314 99.038607 45.041624 
Q 98.633428 45.528934 97.886949 45.716923 
z
M 101.947639 48.8598 
L 103.150401 48.8598 
L 103.150401 49.841721 
L 102.215934 51.666852 
L 101.480406 51.666852 
L 101.947639 49.841721 
z
M 108.148296 45.592814 
Q 107.372615 45.592814 106.918158 46.123927 
Q 106.465525 46.653215 106.465525 47.576732 
Q 106.465525 48.494773 106.918158 49.029537 
Q 107.372615 49.562475 108.148296 49.562475 
Q 108.923978 49.562475 109.37661 49.029537 
Q 109.829243 48.494773 109.829243 47.576732 
Q 109.829243 46.653215 109.37661 46.123927 
Q 108.923978 45.592814 108.148296 45.592814 
z
M 110.435187 41.980878 
L 110.435187 43.030329 
Q 110.000805 42.825914 109.559123 42.718231 
Q 109.117441 42.608723 108.68306 42.608723 
Q 107.542353 42.608723 106.940059 43.378929 
Q 106.339591 44.149134 106.25381 45.705972 
Q 106.589634 45.209536 107.097021 44.944892 
Q 107.606232 44.680248 108.215826 44.680248 
Q 109.498894 44.680248 110.243548 45.459579 
Q 110.988202 46.237085 110.988202 47.576732 
Q 110.988202 48.889002 110.212521 49.682934 
Q 109.43684 50.475041 108.148296 50.475041 
Q 106.66994 50.475041 105.888783 49.34346 
Q 105.107627 48.210053 105.107627 46.060047 
Q 105.107627 44.041452 106.065821 42.840515 
Q 107.024015 41.639578 108.637432 41.639578 
Q 109.071813 41.639578 109.513495 41.725359 
Q 109.955177 41.811141 110.435187 41.980878 
z
"/>
   </g>
   <g id="patch_5">
    <path clip-path="url(#p29ba6d24c6)" d="M 48.664969 49.339809 
L 52.685734 49.339809 
L 52.685734 50.308954 
L 47.279694 50.308954 
L 47.279694 49.339809 
Q 47.934916 48.66086 49.066498 47.518328 
Q 50.199905 46.37397 50.490101 46.041796 
Q 51.043116 45.421251 51.262132 44.99052 
Q 51.482972 44.559789 51.482972 44.143659 
Q 51.482972 43.46471 51.006613 43.037629 
Q 50.530254 42.608723 49.765523 42.608723 
Q 49.223459 42.608723 48.621166 42.796712 
Q 48.020697 42.9847 47.336273 43.367978 
L 47.336273 42.203544 
Q 48.031648 41.924299 48.635767 41.781938 
Q 49.241711 41.639578 49.743622 41.639578 
Q 51.066842 41.639578 51.853474 42.302101 
Q 52.640106 42.962799 52.640106 44.068829 
Q 52.640106 44.594467 52.442992 45.065351 
Q 52.247703 45.534409 51.72754 46.173206 
Q 51.58518 46.339293 50.82045 47.129575 
Q 50.057545 47.919857 48.664969 49.339809 
z
M 55.224265 48.8598 
L 56.427026 48.8598 
L 56.427026 49.841721 
L 55.492559 51.666852 
L 54.757031 51.666852 
L 55.224265 49.841721 
z
M 62.308286 45.716923 
Q 63.13507 45.89396 63.598654 46.454276 
Q 64.064062 47.012766 64.064062 47.834076 
Q 64.064062 49.093417 63.197125 49.785141 
Q 62.330187 50.475041 60.733197 50.475041 
Q 60.198433 50.475041 59.630817 50.369184 
Q 59.063201 50.263326 58.459083 50.051611 
L 58.459083 48.940105 
Q 58.937267 49.219351 59.506708 49.361711 
Q 60.077975 49.504071 60.700344 49.504071 
Q 61.782648 49.504071 62.350264 49.07699 
Q 62.91788 48.649909 62.91788 47.834076 
Q 62.91788 47.080296 62.390417 46.656866 
Q 61.862953 46.23161 60.923011 46.23161 
L 59.930139 46.23161 
L 59.930139 45.284366 
L 60.968639 45.284366 
Q 61.817325 45.284366 62.268133 44.944892 
Q 62.71894 44.605417 62.71894 43.966621 
Q 62.71894 43.311399 62.253532 42.960974 
Q 61.789948 42.608723 60.923011 42.608723 
Q 60.448476 42.608723 59.906412 42.712756 
Q 59.364348 42.814963 58.714601 43.030329 
L 58.714601 42.004605 
Q 59.371649 41.822091 59.94474 41.730835 
Q 60.517831 41.639578 61.025218 41.639578 
Q 62.337488 41.639578 63.100393 42.236396 
Q 63.865123 42.831389 63.865123 43.846163 
Q 63.865123 44.554314 63.459944 45.041624 
Q 63.054765 45.528934 62.308286 45.716923 
z
M 66.368976 48.8598 
L 67.571738 48.8598 
L 67.571738 49.841721 
L 66.63727 51.666852 
L 65.901742 51.666852 
L 66.368976 49.841721 
z
M 73.128123 42.796712 
L 70.218863 47.343115 
L 73.128123 47.343115 
z
M 72.825151 41.792889 
L 74.274306 41.792889 
L 74.274306 47.343115 
L 75.489844 47.343115 
L 75.489844 48.301309 
L 74.274306 48.301309 
L 74.274306 50.308954 
L 73.128123 50.308954 
L 73.128123 48.301309 
L 69.284396 48.301309 
L 69.284396 47.189804 
z
M 77.513687 48.8598 
L 78.716449 48.8598 
L 78.716449 49.841721 
L 77.781981 51.666852 
L 77.046453 51.666852 
L 77.513687 49.841721 
z
M 83.714344 45.592814 
Q 82.938663 45.592814 82.484205 46.123927 
Q 82.031573 46.653215 82.031573 47.576732 
Q 82.031573 48.494773 82.484205 49.029537 
Q 82.938663 49.562475 83.714344 49.562475 
Q 84.490025 49.562475 84.942658 49.029537 
Q 85.395291 48.494773 85.395291 47.576732 
Q 85.395291 46.653215 84.942658 46.123927 
Q 84.490025 45.592814 83.714344 45.592814 
z
M 86.001234 41.980878 
L 86.001234 43.030329 
Q 85.566853 42.825914 85.125171 42.718231 
Q 84.683489 42.608723 84.249108 42.608723 
Q 83.1084 42.608723 82.506107 43.378929 
Q 81.905639 44.149134 81.819857 45.705972 
Q 82.155682 45.209536 82.663068 44.944892 
Q 83.17228 44.680248 83.781874 44.680248 
Q 85.064942 44.680248 85.809596 45.459579 
Q 86.554249 46.237085 86.554249 47.576732 
Q 86.554249 48.889002 85.778568 49.682934 
Q 85.002887 50.475041 83.714344 50.475041 
Q 82.235987 50.475041 81.454831 49.34346 
Q 80.673675 48.210053 80.673675 46.060047 
Q 80.673675 44.041452 81.631869 42.840515 
Q 82.590063 41.639578 84.20348 41.639578 
Q 84.637861 41.639578 85.079543 41.725359 
Q 85.521225 41.811141 86.001234 41.980878 
z
"/>
   </g>
   <g id="patch_6">
    <path clip-path="url(#p29ba6d24c6)" d="M 102.024523 20.064695 
L 102.024523 38.754045 
L 83.335173 38.754045 
L 83.335173 20.064695 
L 102.024523 20.064695 
z
" style="fill:#0090bc;stroke:#000000;stroke-linejoin:miter;stroke-width:1.116;"/>
   </g>
   <g id="patch_7">
    <path clip-path="url(#p29ba6d24c6)" d="M 45.956473 38.754045 
C 48.43471 38.754045 50.811778 37.769431 52.564156 36.017053 
C 54.316534 34.264675 55.301148 31.887607 55.301148 29.40937 
C 55.301148 26.931133 54.316534 24.554065 52.564156 22.801687 
C 50.811778 21.049309 48.43471 20.064695 45.956473 20.064695 
C 43.478237 20.064695 41.101168 21.049309 39.34879 22.801687 
C 37.596412 24.554065 36.611798 26.931133 36.611798 29.40937 
C 36.611798 31.887607 37.596412 34.264675 39.34879 36.017053 
C 41.101168 37.769431 43.478237 38.754045 45.956473 38.754045 
z
" style="fill:#ffd400;stroke:#000000;stroke-linejoin:miter;stroke-width:1.116;"/>
   </g>
   <g id="patch_8">
    <path clip-path="url(#p29ba6d24c6)" d="M 99.688354 50.434888 
L 85.671342 64.451901 
z
" style="fill:#ffffff;stroke:#000000;stroke-linejoin:miter;stroke-width:1.116;"/>
   </g>
   <g id="patch_9">
    <path clip-path="url(#p29ba6d24c6)" d="M 85.671342 50.434888 
L 99.688354 64.451901 
z
" style="fill:#ffffff;stroke:#000000;stroke-linejoin:miter;stroke-width:1.116;"/>
   </g>
   <g id="patch_10">
    <path clip-path="url(#p29ba6d24c6)" d="M 52.96498 50.434888 
L 38.947967 64.451901 
z
" style="fill:#ffffff;stroke:#000000;stroke-linejoin:miter;stroke-width:1.116;"/>
   </g>
   <g id="patch_11">
    <path clip-path="url(#p29ba6d24c6)" d="M 38.947967 50.434888 
L 52.96498 64.451901 
z
" style="fill:#ffffff;stroke:#000000;stroke-linejoin:miter;stroke-width:1.116;"/>
   </g>
  </g>
  <g id="axes_2">
   <g id="line2d_4">
    <path clip-path="url(#pada37f74ed)" d="M 63.583208 88.286124 
L 63.583208 116.6602 
" style="fill:none;stroke:#000000;stroke-linecap:square;stroke-width:1.674;"/>
   </g>
   <g id="patch_12">
    <path clip-path="url(#pada37f74ed)" d="M 66.324558 108.458319 
L 70.394095 108.458319 
L 70.394095 109.439219 
L 64.92248 109.439219 
L 64.92248 108.458319 
Q 65.58565 107.771134 66.730957 106.614743 
Q 67.878112 105.456504 68.171828 105.120301 
Q 68.731551 104.492229 68.953224 104.056273 
Q 69.176744 103.620317 69.176744 103.19914 
Q 69.176744 102.511955 68.694606 102.079694 
Q 68.212468 101.645585 67.438462 101.645585 
Q 66.889823 101.645585 66.280223 101.835854 
Q 65.672471 102.026123 64.979745 102.41405 
L 64.979745 101.235491 
Q 65.683555 100.952859 66.295002 100.808771 
Q 66.908295 100.664684 67.416295 100.664684 
Q 68.755566 100.664684 69.55174 101.335244 
Q 70.347913 102.003956 70.347913 103.123401 
Q 70.347913 103.655415 70.148408 104.132011 
Q 69.95075 104.60676 69.424278 105.253304 
Q 69.280191 105.421406 68.506184 106.221274 
Q 67.734025 107.021142 66.324558 108.458319 
z
M 72.963417 107.972487 
L 74.180769 107.972487 
L 74.180769 108.966318 
L 73.234966 110.813589 
L 72.490516 110.813589 
L 72.963417 108.966318 
z
M 80.133367 104.791487 
Q 80.970181 104.970672 81.439387 105.537784 
Q 81.910441 106.103049 81.910441 106.934321 
Q 81.910441 108.208937 81.032988 108.909053 
Q 80.155534 109.607321 78.539173 109.607321 
Q 77.997922 109.607321 77.423421 109.500179 
Q 76.84892 109.393038 76.237473 109.178754 
L 76.237473 108.053767 
Q 76.721458 108.336399 77.297807 108.480486 
Q 77.876002 108.624573 78.505922 108.624573 
Q 79.601353 108.624573 80.175854 108.192312 
Q 80.750355 107.760051 80.750355 106.934321 
Q 80.750355 106.171398 80.216494 105.742831 
Q 79.682633 105.312417 78.731289 105.312417 
L 77.726374 105.312417 
L 77.726374 104.353684 
L 78.777471 104.353684 
Q 79.636451 104.353684 80.092727 104.010091 
Q 80.549003 103.666499 80.549003 103.019954 
Q 80.549003 102.356784 80.077949 102.002108 
Q 79.608742 101.645585 78.731289 101.645585 
Q 78.250998 101.645585 77.702359 101.750879 
Q 77.15372 101.854327 76.496091 102.072305 
L 76.496091 101.034138 
Q 77.161109 100.849411 77.741152 100.757048 
Q 78.321195 100.664684 78.834736 100.664684 
Q 80.162923 100.664684 80.935083 101.268742 
Q 81.709089 101.870952 81.709089 102.898034 
Q 81.709089 103.614775 81.298995 104.107997 
Q 80.888901 104.601218 80.133367 104.791487 
z
M 84.243313 107.972487 
L 85.460664 107.972487 
L 85.460664 108.966318 
L 84.514862 110.813589 
L 83.770412 110.813589 
L 84.243313 108.966318 
z
M 91.084449 101.835854 
L 88.139899 106.437405 
L 91.084449 106.437405 
z
M 90.777802 100.819855 
L 92.244535 100.819855 
L 92.244535 106.437405 
L 93.474817 106.437405 
L 93.474817 107.407222 
L 92.244535 107.407222 
L 92.244535 109.439219 
L 91.084449 109.439219 
L 91.084449 107.407222 
L 87.194097 107.407222 
L 87.194097 106.282234 
z
"/>
   </g>
   <g id="patch_13">
    <path clip-path="url(#pada37f74ed)" d="M 63.583208 97.74415 
C 66.091506 97.74415 68.497408 96.747592 70.271042 94.973958 
C 72.044676 93.200324 73.041234 90.794422 73.041234 88.286124 
C 73.041234 85.777827 72.044676 83.371925 70.271042 81.598291 
C 68.497408 79.824656 66.091506 78.828099 63.583208 78.828099 
C 61.074911 78.828099 58.669009 79.824656 56.895375 81.598291 
C 55.12174 83.371925 54.125183 85.777827 54.125183 88.286124 
C 54.125183 90.794422 55.12174 93.200324 56.895375 94.973958 
C 58.669009 96.747592 61.074911 97.74415 63.583208 97.74415 
z
" style="fill:#ffd400;stroke:#000000;stroke-linejoin:miter;stroke-width:1.674;"/>
   </g>
   <g id="patch_14">
    <path clip-path="url(#pada37f74ed)" d="M 70.676727 109.566681 
L 56.489689 123.753719 
z
" style="fill:#ffffff;stroke:#000000;stroke-linejoin:miter;stroke-width:1.674;"/>
   </g>
   <g id="patch_15">
    <path clip-path="url(#pada37f74ed)" d="M 56.489689 109.566681 
L 70.676727 123.753719 
z
" style="fill:#ffffff;stroke:#000000;stroke-linejoin:miter;stroke-width:1.674;"/>
   </g>
  </g>
 </g>
 <defs>
  <clipPath id="p29ba6d24c6">
   <rect height="49.418182" width="81.814044" x="32.892978" y="17.28"/>
  </clipPath>
  <clipPath id="pada37f74ed">
   <rect height="49.418182" width="43.284597" x="52.157701" y="76.581818"/>
  </clipPath>
 </defs>
</svg>
