<?xml version="1.0" encoding="utf-8" standalone="no"?>
<!DOCTYPE svg PUBLIC "-//W3C//DTD SVG 1.1//EN"
  "http://www.w3.org/Graphics/SVG/1.1/DTD/svg11.dtd">
<!-- Created with matplotlib (http://matplotlib.org/) -->
<svg height="216pt" version="1.1" viewBox="0 0 144 216" width="144pt" xmlns="http://www.w3.org/2000/svg" xmlns:xlink="http://www.w3.org/1999/xlink">
 <defs>
  <style type="text/css">
*{stroke-linecap:butt;stroke-linejoin:round;}
  </style>
 </defs>
 <g id="figure_1">
  <g id="patch_1">
   <path d="M 0 216 
L 144 216 
L 144 0 
L 0 0 
z
" style="fill:#ffffff;"/>
  </g>
  <g id="axes_1">
   <g id="line2d_1">
    <path clip-path="url(#pb78e1732a2)" d="M 116.354822 49.902353 
L 75.49257 49.902353 
" style="fill:none;stroke:#000000;stroke-linecap:square;stroke-width:0.837;"/>
   </g>
   <g id="line2d_2">
    <path clip-path="url(#pb78e1732a2)" d="M 75.49257 49.902353 
L 34.630318 49.902353 
" style="fill:none;stroke:#000000;stroke-linecap:square;stroke-width:0.837;"/>
   </g>
   <g id="patch_2">
    <path clip-path="url(#pb78e1732a2)" d="M 89.222925 48.740333 
L 89.222925 51.209626 
L 88.300332 51.209626 
L 88.300332 43.533588 
Q 88.300332 41.259029 90.42485 41.259029 
Q 92.590869 41.259029 92.590869 43.179235 
Q 92.590869 44.545567 91.732123 45.045172 
Q 93.128782 45.493699 93.128782 46.824915 
Q 93.128782 49.190456 90.724932 49.190456 
Q 89.666664 49.190456 89.222925 48.740333 
z
M 89.222925 47.543196 
Q 89.7768 48.406731 90.760048 48.406731 
Q 92.196612 48.406731 92.196612 46.840876 
Q 92.196612 45.433044 89.882148 45.543181 
L 89.882148 44.695608 
Q 91.692218 44.695608 91.692218 43.099426 
Q 91.692218 42.007638 90.525409 42.007638 
Q 89.222925 42.007638 89.222925 43.563915 
z
"/>
   </g>
   <g id="patch_3">
    <path clip-path="url(#pb78e1732a2)" d="M 103.462462 42.515224 
L 100.918149 46.491313 
L 103.462462 46.491313 
z
M 103.197496 41.637324 
L 104.464865 41.637324 
L 104.464865 46.491313 
L 105.527922 46.491313 
L 105.527922 47.329308 
L 104.464865 47.329308 
L 104.464865 49.085108 
L 103.462462 49.085108 
L 103.462462 47.329308 
L 100.100904 47.329308 
L 100.100904 46.357233 
z
"/>
   </g>
   <g id="patch_4">
    <path clip-path="url(#pb78e1732a2)" d="M 50.700675 46.486524 
L 50.480402 45.334081 
Q 50.256937 44.15131 49.367863 44.15131 
Q 48.70066 44.15131 48.395789 44.700397 
Q 48.011109 45.388351 48.011109 46.296578 
Q 48.011109 47.394751 48.386212 47.918299 
Q 48.764507 48.451424 49.367863 48.451424 
Q 50.036664 48.451424 50.395805 47.388367 
z
M 51.214646 44.960574 
L 51.707866 43.498472 
L 52.526707 43.498472 
L 51.503555 46.526429 
L 51.703077 47.618217 
Q 51.74777 47.862433 51.921754 48.066744 
Q 52.127662 48.306171 52.28728 48.306171 
L 52.72623 48.306171 
L 52.72623 49.085108 
L 52.177143 49.085108 
Q 51.707866 49.085108 51.289666 48.665312 
Q 51.083759 48.456212 50.999161 48.017262 
Q 50.770907 48.571137 50.30163 49.005299 
Q 50.081357 49.20961 49.367863 49.20961 
Q 48.196266 49.20961 47.628025 48.451424 
Q 47.043823 47.667699 47.043823 46.296578 
Q 47.043823 44.829687 47.677507 44.141733 
Q 48.381423 43.37397 49.367863 43.37397 
Q 50.919352 43.37397 51.214646 44.960574 
z
"/>
   </g>
   <g id="patch_5">
    <path clip-path="url(#pb78e1732a2)" d="M 62.111778 44.960574 
Q 61.433401 44.960574 61.035952 45.425063 
Q 60.640099 45.887956 60.640099 46.695624 
Q 60.640099 47.498503 61.035952 47.966184 
Q 61.433401 48.43227 62.111778 48.43227 
Q 62.790156 48.43227 63.186009 47.966184 
Q 63.581862 47.498503 63.581862 46.695624 
Q 63.581862 45.887956 63.186009 45.425063 
Q 62.790156 44.960574 62.111778 44.960574 
z
M 64.111794 41.801731 
L 64.111794 42.719535 
Q 63.731903 42.540763 63.345627 42.446588 
Q 62.959351 42.350817 62.57946 42.350817 
Q 61.581846 42.350817 61.055106 43.024406 
Q 60.529962 43.697995 60.454942 45.059538 
Q 60.748639 44.625376 61.192378 44.39393 
Q 61.637712 44.162483 62.170837 44.162483 
Q 63.292953 44.162483 63.944195 44.844053 
Q 64.595437 45.524026 64.595437 46.695624 
Q 64.595437 47.843279 63.91706 48.537618 
Q 63.238683 49.23036 62.111778 49.23036 
Q 60.818871 49.23036 60.135705 48.240728 
Q 59.45254 47.249499 59.45254 45.369197 
Q 59.45254 43.60382 60.290535 42.553532 
Q 61.128531 41.503245 62.539555 41.503245 
Q 62.919446 41.503245 63.305722 41.578265 
Q 63.691998 41.653286 64.111794 41.801731 
z
"/>
   </g>
   <g id="patch_6">
    <path clip-path="url(#pb78e1732a2)" d="M 124.527273 41.729902 
L 124.527273 58.074803 
L 108.182372 58.074803 
L 108.182372 41.729902 
L 124.527273 41.729902 
z
" style="fill:#0090bc;stroke:#000000;stroke-linejoin:miter;stroke-width:0.837;"/>
   </g>
   <g id="patch_7">
    <path clip-path="url(#pb78e1732a2)" d="M 75.49257 58.074803 
C 77.659929 58.074803 79.738811 57.213702 81.271365 55.681148 
C 82.803919 54.148594 83.66502 52.069712 83.66502 49.902353 
C 83.66502 47.734994 82.803919 45.656112 81.271365 44.123558 
C 79.738811 42.591003 77.659929 41.729902 75.49257 41.729902 
C 73.325211 41.729902 71.246329 42.591003 69.713775 44.123558 
C 68.18122 45.656112 67.320119 47.734994 67.320119 49.902353 
C 67.320119 52.069712 68.18122 54.148594 69.713775 55.681148 
C 71.246329 57.213702 73.325211 58.074803 75.49257 58.074803 
z
" style="fill:#ffd400;stroke:#000000;stroke-linejoin:miter;stroke-width:0.837;"/>
   </g>
   <g id="patch_8">
    <path clip-path="url(#pb78e1732a2)" d="M 34.630318 38.344763 
L 46.187908 49.902353 
L 34.630318 61.459943 
L 23.072727 49.902353 
L 34.630318 38.344763 
z
" style="fill:#a54399;stroke:#000000;stroke-linejoin:miter;stroke-width:0.837;"/>
   </g>
  </g>
  <g id="axes_2">
   <g id="line2d_3">
    <path clip-path="url(#p6e1b8df70b)" d="M 73.899271 96.056291 
L 31.543818 96.056291 
" style="fill:none;stroke:#000000;stroke-linecap:square;stroke-width:0.837;"/>
   </g>
   <g id="line2d_4">
    <path clip-path="url(#p6e1b8df70b)" d="M 31.543818 96.056291 
L 31.543818 121.469562 
" style="fill:none;stroke:#000000;stroke-linecap:square;stroke-width:0.837;"/>
   </g>
   <g id="line2d_5">
    <path clip-path="url(#p6e1b8df70b)" d="M 116.254723 96.056291 
L 73.899271 96.056291 
" style="fill:none;stroke:#000000;stroke-linecap:square;stroke-width:0.837;"/>
   </g>
   <g id="patch_9">
    <path clip-path="url(#p6e1b8df70b)" d="M 45.775912 94.851808 
L 45.775912 97.411334 
L 44.819605 97.411334 
L 44.819605 89.454796 
Q 44.819605 87.09712 47.021758 87.09712 
Q 49.266928 87.09712 49.266928 89.087495 
Q 49.266928 90.503756 48.376801 91.021617 
Q 49.824497 91.486534 49.824497 92.866396 
Q 49.824497 95.318379 47.332806 95.318379 
Q 46.235866 95.318379 45.775912 94.851808 
z
M 45.775912 93.610925 
Q 46.350027 94.506015 47.369205 94.506015 
Q 48.858264 94.506015 48.858264 92.882941 
Q 48.858264 91.423663 46.459224 91.537824 
L 46.459224 90.659279 
Q 48.335439 90.659279 48.335439 89.00477 
Q 48.335439 87.873085 47.125992 87.873085 
Q 45.775912 87.873085 45.775912 89.486232 
z
"/>
   </g>
   <g id="patch_10">
    <path clip-path="url(#p6e1b8df70b)" d="M 60.535794 88.399219 
L 57.898506 92.520603 
L 60.535794 92.520603 
z
M 60.261146 87.489239 
L 61.574827 87.489239 
L 61.574827 92.520603 
L 62.67673 92.520603 
L 62.67673 93.389221 
L 61.574827 93.389221 
L 61.574827 95.209182 
L 60.535794 95.209182 
L 60.535794 93.389221 
L 57.051397 93.389221 
L 57.051397 92.381624 
z
"/>
   </g>
   <g id="patch_11">
    <path clip-path="url(#p6e1b8df70b)" d="M 33.99911 114.123539 
L 37.643996 114.123539 
L 37.643996 115.002083 
L 32.743337 115.002083 
L 32.743337 114.123539 
Q 33.337307 113.508061 34.363103 112.472338 
Q 35.390553 111.43496 35.65362 111.133839 
Q 36.154937 110.571306 36.353478 110.180841 
Q 36.553674 109.790377 36.553674 109.413149 
Q 36.553674 108.797671 36.121847 108.410516 
Q 35.69002 108.021706 34.99678 108.021706 
Q 34.50539 108.021706 33.959402 108.192121 
Q 33.415068 108.362535 32.794627 108.709982 
L 32.794627 107.654405 
Q 33.424996 107.401265 33.972638 107.272213 
Q 34.521936 107.143161 34.976926 107.143161 
Q 36.176445 107.143161 36.889539 107.743748 
Q 37.602633 108.342681 37.602633 109.345314 
Q 37.602633 109.821813 37.423946 110.248676 
Q 37.246913 110.673885 36.775378 111.252964 
Q 36.646326 111.403524 35.953087 112.119927 
Q 35.261502 112.83633 33.99911 114.123539 
z
M 39.945212 113.688402 
L 41.035534 113.688402 
L 41.035534 114.578529 
L 40.188425 116.233039 
L 39.521658 116.233039 
L 39.945212 114.578529 
z
M 46.366985 110.839336 
Q 47.116478 110.999824 47.536724 111.507758 
Q 47.958624 112.014038 47.958624 112.758568 
Q 47.958624 113.90018 47.172732 114.527239 
Q 46.38684 115.152644 44.939143 115.152644 
Q 44.454372 115.152644 43.939819 115.056682 
Q 43.425267 114.960721 42.877624 114.768797 
L 42.877624 113.761201 
Q 43.311106 114.014341 43.827313 114.143393 
Q 44.345174 114.272444 44.909362 114.272444 
Q 45.890487 114.272444 46.405039 113.885289 
Q 46.919592 113.498134 46.919592 112.758568 
Q 46.919592 112.075255 46.441438 111.691409 
Q 45.963285 111.305908 45.111212 111.305908 
L 44.211159 111.305908 
L 44.211159 110.447218 
L 45.152575 110.447218 
Q 45.921922 110.447218 46.330586 110.139479 
Q 46.73925 109.83174 46.73925 109.252661 
Q 46.73925 108.658692 46.31735 108.341027 
Q 45.897105 108.021706 45.111212 108.021706 
Q 44.68104 108.021706 44.18965 108.116013 
Q 43.698261 108.208666 43.109255 108.403898 
L 43.109255 107.474063 
Q 43.704879 107.308612 44.224395 107.225887 
Q 44.743911 107.143161 45.203865 107.143161 
Q 46.393458 107.143161 47.085043 107.684186 
Q 47.778282 108.223556 47.778282 109.143464 
Q 47.778282 109.785414 47.410981 110.227168 
Q 47.04368 110.668922 46.366985 110.839336 
z
M 50.048063 113.688402 
L 51.138385 113.688402 
L 51.138385 114.578529 
L 50.291276 116.233039 
L 49.624509 116.233039 
L 50.048063 114.578529 
z
M 56.175334 108.192121 
L 53.538045 112.313505 
L 56.175334 112.313505 
z
M 55.900685 107.28214 
L 57.214366 107.28214 
L 57.214366 112.313505 
L 58.316269 112.313505 
L 58.316269 113.182122 
L 57.214366 113.182122 
L 57.214366 115.002083 
L 56.175334 115.002083 
L 56.175334 113.182122 
L 52.690936 113.182122 
L 52.690936 112.174526 
z
"/>
   </g>
   <g id="patch_12">
    <path clip-path="url(#p6e1b8df70b)" d="M 112.356698 98.519856 
L 112.128376 97.3253 
Q 111.896744 96.099308 110.975182 96.099308 
Q 110.283597 96.099308 109.967586 96.668459 
Q 109.568849 97.381553 109.568849 98.322969 
Q 109.568849 99.461272 109.957659 100.003951 
Q 110.349778 100.556558 110.975182 100.556558 
Q 111.668422 100.556558 112.040687 99.454654 
z
M 112.88945 96.938144 
L 113.400694 95.422613 
L 114.249457 95.422613 
L 113.188917 98.561219 
L 113.39573 99.692903 
Q 113.442057 99.946043 113.622398 100.157821 
Q 113.83583 100.405997 114.001281 100.405997 
L 114.456271 100.405997 
L 114.456271 101.213398 
L 113.88712 101.213398 
Q 113.400694 101.213398 112.967212 100.778262 
Q 112.75378 100.561521 112.666091 100.106531 
Q 112.429497 100.680646 111.943071 101.130672 
Q 111.714748 101.34245 110.975182 101.34245 
Q 109.760772 101.34245 109.171767 100.556558 
Q 108.566216 99.744193 108.566216 98.322969 
Q 108.566216 96.802475 109.223056 96.089381 
Q 109.952695 95.293562 110.975182 95.293562 
Q 112.583366 95.293562 112.88945 96.938144 
z
M 117.650716 93.493455 
L 118.529261 93.493455 
L 115.840682 102.196177 
L 114.962138 102.196177 
z
M 120.478687 100.856024 
L 120.478687 103.415551 
L 119.52238 103.415551 
L 119.52238 95.459013 
Q 119.52238 93.101336 121.724533 93.101336 
Q 123.969703 93.101336 123.969703 95.091711 
Q 123.969703 96.507972 123.079577 97.025833 
Q 124.527273 97.490751 124.527273 98.870612 
Q 124.527273 101.322596 122.035581 101.322596 
Q 120.938641 101.322596 120.478687 100.856024 
z
M 120.478687 99.615141 
Q 121.052802 100.510231 122.07198 100.510231 
Q 123.561039 100.510231 123.561039 98.887157 
Q 123.561039 97.427879 121.162 97.542041 
L 121.162 96.663496 
Q 123.038214 96.663496 123.038214 95.008986 
Q 123.038214 93.877301 121.828767 93.877301 
Q 120.478687 93.877301 120.478687 95.490448 
z
"/>
   </g>
   <g id="patch_13">
    <path clip-path="url(#p6e1b8df70b)" d="M 82.370361 87.5852 
L 82.370361 104.527381 
L 65.42818 104.527381 
L 65.42818 87.5852 
L 82.370361 87.5852 
z
" style="fill:#0090bc;stroke:#000000;stroke-linejoin:miter;stroke-width:0.837;"/>
   </g>
   <g id="patch_14">
    <path clip-path="url(#p6e1b8df70b)" d="M 31.543818 104.527381 
C 33.790377 104.527381 35.945226 103.634814 37.533783 102.046256 
C 39.122341 100.457699 40.014908 98.30285 40.014908 96.056291 
C 40.014908 93.809731 39.122341 91.654883 37.533783 90.066325 
C 35.945226 88.477768 33.790377 87.5852 31.543818 87.5852 
C 29.297258 87.5852 27.14241 88.477768 25.553852 90.066325 
C 23.965295 91.654883 23.072727 93.809731 23.072727 96.056291 
C 23.072727 98.30285 23.965295 100.457699 25.553852 102.046256 
C 27.14241 103.634814 29.297258 104.527381 31.543818 104.527381 
z
" style="fill:#ffd400;stroke:#000000;stroke-linejoin:miter;stroke-width:0.837;"/>
   </g>
   <g id="patch_15">
    <path clip-path="url(#p6e1b8df70b)" d="M 37.897136 115.116244 
L 25.1905 127.82288 
z
" style="fill:#ffffff;stroke:#000000;stroke-linejoin:miter;stroke-width:0.837;"/>
   </g>
   <g id="patch_16">
    <path clip-path="url(#p6e1b8df70b)" d="M 25.1905 115.116244 
L 37.897136 127.82288 
z
" style="fill:#ffffff;stroke:#000000;stroke-linejoin:miter;stroke-width:0.837;"/>
   </g>
  </g>
  <g id="axes_3">
   <g id="line2d_6">
    <path clip-path="url(#p2be3201d26)" d="M 96.474579 152.807918 
L 51.125421 152.807918 
" style="fill:none;stroke:#000000;stroke-linecap:square;stroke-width:1.116;"/>
   </g>
   <g id="line2d_7">
    <path clip-path="url(#p2be3201d26)" d="M 51.125421 152.807918 
L 51.125421 180.017412 
" style="fill:none;stroke:#000000;stroke-linecap:square;stroke-width:1.116;"/>
   </g>
   <g id="patch_17">
    <path clip-path="url(#p2be3201d26)" d="M 66.363447 151.518301 
L 66.363447 154.258737 
L 65.339548 154.258737 
L 65.339548 145.739826 
Q 65.339548 143.215508 67.69735 143.215508 
Q 70.101209 143.215508 70.101209 145.346564 
Q 70.101209 146.862927 69.148168 147.417391 
Q 70.698188 147.915169 70.698188 149.392559 
Q 70.698188 152.01785 68.030383 152.01785 
Q 66.85591 152.01785 66.363447 151.518301 
z
M 66.363447 150.189712 
Q 66.97814 151.148068 68.069354 151.148068 
Q 69.663661 151.148068 69.663661 149.410274 
Q 69.663661 147.847854 67.095056 147.970084 
L 67.095056 147.029443 
Q 69.103882 147.029443 69.103882 145.257992 
Q 69.103882 144.046319 67.808951 144.046319 
Q 66.363447 144.046319 66.363447 145.773484 
z
"/>
   </g>
   <g id="patch_18">
    <path clip-path="url(#p2be3201d26)" d="M 82.166565 144.60964 
L 79.342872 149.022326 
L 82.166565 149.022326 
z
M 81.872504 143.635342 
L 83.279037 143.635342 
L 83.279037 149.022326 
L 84.458824 149.022326 
L 84.458824 149.952338 
L 83.279037 149.952338 
L 83.279037 151.900935 
L 82.166565 151.900935 
L 82.166565 149.952338 
L 78.435889 149.952338 
L 78.435889 148.873524 
z
"/>
   </g>
   <g id="patch_19">
    <path clip-path="url(#p2be3201d26)" d="M 53.754255 172.152168 
L 57.656763 172.152168 
L 57.656763 173.092809 
L 52.409723 173.092809 
L 52.409723 172.152168 
Q 53.045675 171.493188 54.143974 170.384259 
Q 55.244046 169.273559 55.525707 168.951155 
Q 56.062456 168.348862 56.275031 167.930799 
Q 56.489376 167.512736 56.489376 167.108846 
Q 56.489376 166.449866 56.027027 166.035346 
Q 55.564679 165.619055 54.82244 165.619055 
Q 54.296319 165.619055 53.71174 165.801514 
Q 53.128933 165.983974 52.464638 166.355979 
L 52.464638 165.225793 
Q 53.139561 164.954761 53.725912 164.816587 
Q 54.314034 164.678414 54.801183 164.678414 
Q 56.085485 164.678414 56.848981 165.321451 
Q 57.612476 165.962716 57.612476 167.036216 
Q 57.612476 167.546394 57.42116 168.003429 
Q 57.231614 168.458692 56.726751 169.0787 
Q 56.588577 169.239902 55.846339 170.00694 
Q 55.105873 170.773979 53.754255 172.152168 
z
M 60.12063 171.686276 
L 61.288017 171.686276 
L 61.288017 172.639317 
L 60.381034 174.410769 
L 59.667139 174.410769 
L 60.12063 172.639317 
z
M 66.996298 168.635837 
Q 67.798765 168.807667 68.248714 169.351503 
Q 68.700434 169.893567 68.700434 170.69072 
Q 68.700434 171.913022 67.858995 172.584402 
Q 67.017555 173.254011 65.467535 173.254011 
Q 64.9485 173.254011 64.397578 173.151267 
Q 63.846657 173.048522 63.260307 172.843034 
L 63.260307 171.76422 
Q 63.724427 172.035252 64.27712 172.173425 
Q 64.831584 172.311599 65.435649 172.311599 
Q 66.48612 172.311599 67.037041 171.897079 
Q 67.587963 171.482559 67.587963 170.69072 
Q 67.587963 169.959111 67.076013 169.548134 
Q 66.564064 169.135386 65.651766 169.135386 
L 64.688096 169.135386 
L 64.688096 168.216003 
L 65.696052 168.216003 
Q 66.519777 168.216003 66.957326 167.886513 
Q 67.394874 167.557023 67.394874 166.937015 
Q 67.394874 166.301064 66.943154 165.960945 
Q 66.493206 165.619055 65.651766 165.619055 
Q 65.191189 165.619055 64.665068 165.720028 
Q 64.138947 165.819229 63.50831 166.02826 
L 63.50831 165.032704 
Q 64.146032 164.855559 64.702268 164.766987 
Q 65.258504 164.678414 65.750967 164.678414 
Q 67.024641 164.678414 67.765108 165.257679 
Q 68.507346 165.835172 68.507346 166.820099 
Q 68.507346 167.507422 68.114084 167.9804 
Q 67.720821 168.453377 66.996298 168.635837 
z
M 70.937556 171.686276 
L 72.104942 171.686276 
L 72.104942 172.639317 
L 71.197959 174.410769 
L 70.484064 174.410769 
L 70.937556 172.639317 
z
M 77.497905 165.801514 
L 74.674211 170.2142 
L 77.497905 170.2142 
z
M 77.203844 164.827216 
L 78.610376 164.827216 
L 78.610376 170.2142 
L 79.790163 170.2142 
L 79.790163 171.144212 
L 78.610376 171.144212 
L 78.610376 173.092809 
L 77.497905 173.092809 
L 77.497905 171.144212 
L 73.767228 171.144212 
L 73.767228 170.065398 
z
"/>
   </g>
   <g id="patch_20">
    <path clip-path="url(#p2be3201d26)" d="M 105.54441 143.738086 
L 105.54441 161.877749 
L 87.404747 161.877749 
L 87.404747 143.738086 
L 105.54441 143.738086 
z
" style="fill:#0090bc;stroke:#000000;stroke-linejoin:miter;stroke-width:1.116;"/>
   </g>
   <g id="patch_21">
    <path clip-path="url(#p2be3201d26)" d="M 51.125421 161.877749 
C 53.530769 161.877749 55.837923 160.922095 57.538761 159.221257 
C 59.239598 157.52042 60.195253 155.213265 60.195253 152.807918 
C 60.195253 150.40257 59.239598 148.095416 57.538761 146.394578 
C 55.837923 144.693741 53.530769 143.738086 51.125421 143.738086 
C 48.720074 143.738086 46.412919 144.693741 44.712082 146.394578 
C 43.011244 148.095416 42.05559 150.40257 42.05559 152.807918 
C 42.05559 155.213265 43.011244 157.52042 44.712082 159.221257 
C 46.412919 160.922095 48.720074 161.877749 51.125421 161.877749 
z
" style="fill:#ffd400;stroke:#000000;stroke-linejoin:miter;stroke-width:1.116;"/>
   </g>
   <g id="patch_22">
    <path clip-path="url(#p2be3201d26)" d="M 57.927795 173.215039 
L 44.323047 186.819786 
z
" style="fill:#ffffff;stroke:#000000;stroke-linejoin:miter;stroke-width:1.116;"/>
   </g>
   <g id="patch_23">
    <path clip-path="url(#p2be3201d26)" d="M 44.323047 173.215039 
L 57.927795 186.819786 
z
" style="fill:#ffffff;stroke:#000000;stroke-linejoin:miter;stroke-width:1.116;"/>
   </g>
  </g>
 </g>
 <defs>
  <clipPath id="pb78e1732a2">
   <rect height="25.426699" width="111.6" x="18" y="37.189004"/>
  </clipPath>
  <clipPath id="p6e1b8df70b">
   <rect height="44.798337" width="111.6" x="18" y="85.060832"/>
  </clipPath>
  <clipPath id="p2be3201d26">
   <rect height="47.964706" width="69.837703" x="38.881149" y="141.035294"/>
  </clipPath>
 </defs>
</svg>
