<?xml version="1.0" encoding="utf-8" standalone="no"?>
<!DOCTYPE svg PUBLIC "-//W3C//DTD SVG 1.1//EN"
  "http://www.w3.org/Graphics/SVG/1.1/DTD/svg11.dtd">
<!-- Created with matplotlib (http://matplotlib.org/) -->
<svg height="648pt" version="1.1" viewBox="0 0 144 648" width="144pt" xmlns="http://www.w3.org/2000/svg" xmlns:xlink="http://www.w3.org/1999/xlink">
 <defs>
  <style type="text/css">
*{stroke-linecap:butt;stroke-linejoin:round;}
  </style>
 </defs>
 <g id="figure_1">
  <g id="patch_1">
   <path d="M 0 648 
L 144 648 
L 144 0 
L 0 0 
z
" style="fill:#ffffff;"/>
  </g>
  <g id="axes_1">
   <g id="line2d_1">
    <path clip-path="url(#pbbe26bf16c)" d="M 73.8 88.338983 
L 73.8 115.121217 
" style="fill:none;stroke:#000000;stroke-linecap:square;stroke-width:1.674;"/>
   </g>
   <g id="patch_2">
    <path clip-path="url(#pbbe26bf16c)" d="M 78.774591 103.349065 
Q 79.564457 103.518197 80.007341 104.053493 
Q 80.451968 104.587046 80.451968 105.371681 
Q 80.451968 106.57479 79.623741 107.235627 
Q 78.795514 107.894721 77.269834 107.894721 
Q 76.758949 107.894721 76.216678 107.79359 
Q 75.674408 107.69246 75.097264 107.490198 
L 75.097264 106.428324 
Q 75.554097 106.6951 76.098111 106.831104 
Q 76.643869 106.967107 77.238448 106.967107 
Q 78.272424 106.967107 78.814694 106.559097 
Q 79.356965 106.151086 79.356965 105.371681 
Q 79.356965 104.65156 78.853054 104.247037 
Q 78.349144 103.84077 77.451172 103.84077 
L 76.502634 103.84077 
L 76.502634 102.935823 
L 77.494763 102.935823 
Q 78.305553 102.935823 78.736231 102.611507 
Q 79.166909 102.287191 79.166909 101.676919 
Q 79.166909 101.050954 78.722282 100.716176 
Q 78.279398 100.379654 77.451172 100.379654 
Q 76.997827 100.379654 76.479967 100.479041 
Q 75.962107 100.576685 75.341373 100.782434 
L 75.341373 99.802511 
Q 75.969082 99.628148 76.516583 99.540966 
Q 77.064085 99.453784 77.548815 99.453784 
Q 78.802489 99.453784 79.531328 100.023953 
Q 80.261911 100.592378 80.261911 101.561839 
Q 80.261911 102.238369 79.874824 102.70392 
Q 79.487738 103.16947 78.774591 103.349065 
z
"/>
   </g>
   <g id="patch_3">
    <path clip-path="url(#pbbe26bf16c)" d="M 73.8 79.857942 
L 84.401301 96.820023 
L 63.198699 96.820023 
L 73.8 79.857942 
z
" style="fill:#ed1c24;stroke:#000000;stroke-linejoin:miter;stroke-width:1.674;"/>
   </g>
   <g id="patch_4">
    <path clip-path="url(#pbbe26bf16c)" d="M 80.495559 108.425658 
L 67.104441 121.816775 
z
" style="fill:#ffffff;stroke:#000000;stroke-linejoin:miter;stroke-width:1.674;"/>
   </g>
   <g id="patch_5">
    <path clip-path="url(#pbbe26bf16c)" d="M 67.104441 108.425658 
L 80.495559 121.816775 
z
" style="fill:#ffffff;stroke:#000000;stroke-linejoin:miter;stroke-width:1.674;"/>
   </g>
  </g>
  <g id="axes_2">
   <g id="line2d_2">
    <path clip-path="url(#p64c76531a3)" d="M 87.12976 144.269331 
L 87.12976 170.615815 
" style="fill:none;stroke:#000000;stroke-linecap:square;stroke-width:1.116;"/>
   </g>
   <g id="line2d_3">
    <path clip-path="url(#p64c76531a3)" d="M 87.12976 144.269331 
L 43.218954 144.269331 
" style="fill:none;stroke:#000000;stroke-linecap:square;stroke-width:1.116;"/>
   </g>
   <g id="line2d_4">
    <path clip-path="url(#p64c76531a3)" d="M 43.218954 144.269331 
L 43.218954 170.615815 
" style="fill:none;stroke:#000000;stroke-linecap:square;stroke-width:1.116;"/>
   </g>
   <g id="patch_6">
    <path clip-path="url(#p64c76531a3)" d="M 92.023413 159.595232 
Q 92.800429 159.761612 93.236106 160.288199 
Q 93.673499 160.81307 93.673499 161.58494 
Q 93.673499 162.768473 92.858748 163.418559 
Q 92.043997 164.06693 90.543139 164.06693 
Q 90.040566 164.06693 89.507118 163.967444 
Q 88.973671 163.867959 88.405918 163.668988 
L 88.405918 162.624391 
Q 88.855317 162.886827 89.39048 163.020617 
Q 89.927358 163.154408 90.512264 163.154408 
Q 91.529417 163.154408 92.062864 162.753036 
Q 92.596312 162.351664 92.596312 161.58494 
Q 92.596312 160.876535 92.1006 160.478593 
Q 91.604889 160.078937 90.721527 160.078937 
L 89.788422 160.078937 
L 89.788422 159.188714 
L 90.764408 159.188714 
Q 91.562007 159.188714 91.985678 158.869674 
Q 92.409348 158.550635 92.409348 157.950292 
Q 92.409348 157.334511 91.971955 157.00518 
Q 91.536278 156.674134 90.721527 156.674134 
Q 90.275557 156.674134 89.766123 156.771904 
Q 89.25669 156.867959 88.646055 157.07036 
L 88.646055 156.106381 
Q 89.263551 155.934854 89.802144 155.849091 
Q 90.340738 155.763328 90.817581 155.763328 
Q 92.050858 155.763328 92.767839 156.32422 
Q 93.486535 156.883396 93.486535 157.837084 
Q 93.486535 158.502607 93.105746 158.960583 
Q 92.724957 159.418559 92.023413 159.595232 
z
M 95.839666 162.548919 
L 96.970026 162.548919 
L 96.970026 163.471732 
L 96.09181 165.186998 
L 95.400557 165.186998 
L 95.839666 163.471732 
z
M 102.191938 156.850806 
L 99.457804 161.123533 
L 102.191938 161.123533 
z
M 101.907204 155.90741 
L 103.269125 155.90741 
L 103.269125 161.123533 
L 104.411492 161.123533 
L 104.411492 162.024048 
L 103.269125 162.024048 
L 103.269125 163.91084 
L 102.191938 163.91084 
L 102.191938 162.024048 
L 98.579588 162.024048 
L 98.579588 160.979451 
z
M 106.313508 162.548919 
L 107.443868 162.548919 
L 107.443868 163.471732 
L 106.565652 165.186998 
L 105.8744 165.186998 
L 106.313508 163.471732 
z
M 112.140909 159.478593 
Q 111.411921 159.478593 110.98482 159.977736 
Q 110.559434 160.475163 110.559434 161.343087 
Q 110.559434 162.205866 110.98482 162.708439 
Q 111.411921 163.209297 112.140909 163.209297 
Q 112.869897 163.209297 113.295283 162.708439 
Q 113.720669 162.205866 113.720669 161.343087 
Q 113.720669 160.475163 113.295283 159.977736 
Q 112.869897 159.478593 112.140909 159.478593 
z
M 114.290137 156.084082 
L 114.290137 157.07036 
Q 113.881904 156.87825 113.46681 156.77705 
Q 113.051715 156.674134 112.643482 156.674134 
Q 111.571441 156.674134 111.005403 157.397976 
Q 110.441081 158.121818 110.360463 159.58494 
Q 110.676072 159.118388 111.152916 158.869674 
Q 111.631475 158.620961 112.204374 158.620961 
Q 113.410206 158.620961 114.110034 159.353379 
Q 114.809863 160.084082 114.809863 161.343087 
Q 114.809863 162.576364 114.080875 163.322504 
Q 113.351887 164.06693 112.140909 164.06693 
Q 110.751544 164.06693 110.01741 163.003465 
Q 109.283276 161.938285 109.283276 159.917702 
Q 109.283276 158.020617 110.183791 156.891973 
Q 111.084305 155.763328 112.6006 155.763328 
Q 113.008834 155.763328 113.423928 155.843945 
Q 113.839022 155.924563 114.290137 156.084082 
z
"/>
   </g>
   <g id="patch_7">
    <path clip-path="url(#p64c76531a3)" d="M 60.48825 140.598662 
L 60.251544 139.36024 
Q 60.011407 138.089228 59.056003 138.089228 
Q 58.339022 138.089228 58.011407 138.67928 
Q 57.598027 139.418559 57.598027 140.394545 
Q 57.598027 141.574648 58.001115 142.137256 
Q 58.407633 142.710154 59.056003 142.710154 
Q 59.7747 142.710154 60.160635 141.567787 
z
M 61.040566 138.958868 
L 61.570583 137.387684 
L 62.450515 137.387684 
L 61.351029 140.641544 
L 61.565437 141.814786 
Q 61.613465 142.077221 61.800429 142.296775 
Q 62.021698 142.554065 62.193225 142.554065 
L 62.664923 142.554065 
L 62.664923 143.391115 
L 62.074871 143.391115 
Q 61.570583 143.391115 61.121184 142.94 
Q 60.899914 142.7153 60.809005 142.243602 
Q 60.563722 142.838799 60.059434 143.305352 
Q 59.822727 143.524906 59.056003 143.524906 
Q 57.796998 143.524906 57.186364 142.710154 
Q 56.558576 141.867959 56.558576 140.394545 
Q 56.558576 138.818216 57.239537 138.078937 
Q 57.995969 137.253894 59.056003 137.253894 
Q 60.723242 137.253894 61.040566 138.958868 
z
"/>
   </g>
   <g id="patch_8">
    <path clip-path="url(#p64c76531a3)" d="M 71.232676 142.480309 
L 75.011407 142.480309 
L 75.011407 143.391115 
L 69.930789 143.391115 
L 69.930789 142.480309 
Q 70.546569 141.84223 71.610034 140.768473 
Q 72.675214 139.693002 72.947942 139.380823 
Q 73.467667 138.797633 73.673499 138.39283 
Q 73.881046 137.988027 73.881046 137.596947 
Q 73.881046 136.958868 73.433362 136.557496 
Q 72.985678 136.154408 72.266981 136.154408 
Q 71.757547 136.154408 71.191509 136.331081 
Q 70.627187 136.507753 69.983962 136.867959 
L 69.983962 135.773619 
Q 70.637479 135.511184 71.205232 135.377393 
Q 71.7747 135.243602 72.246398 135.243602 
Q 73.489966 135.243602 74.229245 135.866244 
Q 74.968525 136.48717 74.968525 137.526621 
Q 74.968525 138.020617 74.783276 138.463156 
Q 74.599743 138.903979 74.110892 139.504322 
Q 73.977101 139.660412 73.258405 140.403122 
Q 72.541424 141.145832 71.232676 142.480309 
z
"/>
   </g>
   <g id="patch_9">
    <path clip-path="url(#p64c76531a3)" d="M 48.112607 159.035197 
Q 48.889623 159.201578 49.3253 159.728165 
Q 49.762693 160.253036 49.762693 161.024906 
Q 49.762693 162.208439 48.947942 162.858525 
Q 48.13319 163.506895 46.632333 163.506895 
Q 46.12976 163.506895 45.596312 163.40741 
Q 45.062864 163.307925 44.495111 163.108954 
L 44.495111 162.064357 
Q 44.944511 162.326792 45.479674 162.460583 
Q 46.016552 162.594374 46.601458 162.594374 
Q 47.618611 162.594374 48.152058 162.193002 
Q 48.685506 161.79163 48.685506 161.024906 
Q 48.685506 160.316501 48.189794 159.918559 
Q 47.694082 159.518902 46.81072 159.518902 
L 45.877616 159.518902 
L 45.877616 158.628679 
L 46.853602 158.628679 
Q 47.651201 158.628679 48.074871 158.30964 
Q 48.498542 157.9906 48.498542 157.390257 
Q 48.498542 156.774477 48.061149 156.445146 
Q 47.625472 156.114099 46.81072 156.114099 
Q 46.364751 156.114099 45.855317 156.21187 
Q 45.345883 156.307925 44.735249 156.510326 
L 44.735249 155.546346 
Q 45.352744 155.37482 45.891338 155.289057 
Q 46.429931 155.203293 46.906775 155.203293 
Q 48.140051 155.203293 48.857033 155.764185 
Q 49.575729 156.323362 49.575729 157.27705 
Q 49.575729 157.942573 49.19494 158.400549 
Q 48.814151 158.858525 48.112607 159.035197 
z
"/>
   </g>
   <g id="patch_10">
    <path clip-path="url(#p64c76531a3)" d="M 87.12976 153.051492 
C 89.458816 153.051492 91.692794 152.126148 93.339686 150.479257 
C 94.986577 148.832365 95.911921 146.598387 95.911921 144.269331 
C 95.911921 141.940275 94.986577 139.706297 93.339686 138.059405 
C 91.692794 136.412514 89.458816 135.48717 87.12976 135.48717 
C 84.800703 135.48717 82.566726 136.412514 80.919834 138.059405 
C 79.272943 139.706297 78.347599 141.940275 78.347599 144.269331 
C 78.347599 146.598387 79.272943 148.832365 80.919834 150.479257 
C 82.566726 152.126148 84.800703 153.051492 87.12976 153.051492 
z
" style="fill:#ffd400;stroke:#000000;stroke-linejoin:miter;stroke-width:1.116;"/>
   </g>
   <g id="patch_11">
    <path clip-path="url(#p64c76531a3)" d="M 93.716381 164.029194 
L 80.543139 177.202436 
z
" style="fill:#ffffff;stroke:#000000;stroke-linejoin:miter;stroke-width:1.116;"/>
   </g>
   <g id="patch_12">
    <path clip-path="url(#p64c76531a3)" d="M 80.543139 164.029194 
L 93.716381 177.202436 
z
" style="fill:#ffffff;stroke:#000000;stroke-linejoin:miter;stroke-width:1.116;"/>
   </g>
   <g id="patch_13">
    <path clip-path="url(#p64c76531a3)" d="M 43.218954 135.926278 
L 53.64777 152.612384 
L 32.790137 152.612384 
L 43.218954 135.926278 
z
" style="fill:#ed1c24;stroke:#000000;stroke-linejoin:miter;stroke-width:1.116;"/>
   </g>
   <g id="patch_14">
    <path clip-path="url(#p64c76531a3)" d="M 49.805575 164.029194 
L 36.632333 177.202436 
z
" style="fill:#ffffff;stroke:#000000;stroke-linejoin:miter;stroke-width:1.116;"/>
   </g>
   <g id="patch_15">
    <path clip-path="url(#p64c76531a3)" d="M 36.632333 164.029194 
L 49.805575 177.202436 
z
" style="fill:#ffffff;stroke:#000000;stroke-linejoin:miter;stroke-width:1.116;"/>
   </g>
  </g>
  <g id="axes_3">
   <g id="line2d_5">
    <path clip-path="url(#pab49ff9ac8)" d="M 51.579197 205.212818 
L 27.823806 205.212818 
" style="fill:none;stroke:#000000;stroke-linecap:square;stroke-width:0.558;"/>
   </g>
   <g id="line2d_6">
    <path clip-path="url(#pab49ff9ac8)" d="M 75.334589 205.212818 
L 51.579197 205.212818 
" style="fill:none;stroke:#000000;stroke-linecap:square;stroke-width:0.558;"/>
   </g>
   <g id="line2d_7">
    <path clip-path="url(#pab49ff9ac8)" d="M 75.334589 205.212818 
L 75.334589 219.466053 
" style="fill:none;stroke:#000000;stroke-linecap:square;stroke-width:0.558;"/>
   </g>
   <g id="line2d_8">
    <path clip-path="url(#pab49ff9ac8)" d="M 99.089981 205.212818 
L 75.334589 205.212818 
" style="fill:none;stroke:#000000;stroke-linecap:square;stroke-width:0.558;"/>
   </g>
   <g id="line2d_9">
    <path clip-path="url(#pab49ff9ac8)" d="M 122.845372 205.212818 
L 99.089981 205.212818 
" style="fill:none;stroke:#000000;stroke-linecap:square;stroke-width:0.558;"/>
   </g>
   <g id="patch_16">
    <path clip-path="url(#pab49ff9ac8)" d="M 35.805988 204.537274 
L 35.805988 205.972805 
L 35.269636 205.972805 
L 35.269636 201.510318 
Q 35.269636 200.187996 36.504731 200.187996 
Q 37.763952 200.187996 37.763952 201.304314 
Q 37.763952 202.098635 37.264718 202.389082 
Q 38.07667 202.649834 38.07667 203.42374 
Q 38.07667 204.798955 36.679185 204.798955 
Q 36.063957 204.798955 35.805988 204.537274 
z
M 35.805988 203.841316 
Q 36.127985 204.343334 36.699599 204.343334 
Q 37.53475 204.343334 37.53475 203.43302 
Q 37.53475 202.614572 36.18923 202.678601 
L 36.18923 202.185862 
Q 37.241519 202.185862 37.241519 201.257917 
Q 37.241519 200.623202 36.563192 200.623202 
Q 35.805988 200.623202 35.805988 201.527949 
z
"/>
   </g>
   <g id="patch_17">
    <path clip-path="url(#pab49ff9ac8)" d="M 44.084186 200.918289 
L 42.605041 203.2298 
L 44.084186 203.2298 
z
M 43.930147 200.407919 
L 44.666935 200.407919 
L 44.666935 203.2298 
L 45.284946 203.2298 
L 45.284946 203.716971 
L 44.666935 203.716971 
L 44.666935 204.737711 
L 44.084186 204.737711 
L 44.084186 203.716971 
L 42.129934 203.716971 
L 42.129934 203.151853 
z
"/>
   </g>
   <g id="patch_18">
    <path clip-path="url(#pab49ff9ac8)" d="M 59.56138 204.537274 
L 59.56138 205.972805 
L 59.025028 205.972805 
L 59.025028 201.510318 
Q 59.025028 200.187996 60.260123 200.187996 
Q 61.519344 200.187996 61.519344 201.304314 
Q 61.519344 202.098635 61.02011 202.389082 
Q 61.832061 202.649834 61.832061 203.42374 
Q 61.832061 204.798955 60.434576 204.798955 
Q 59.819349 204.798955 59.56138 204.537274 
z
M 59.56138 203.841316 
Q 59.883377 204.343334 60.454991 204.343334 
Q 61.290142 204.343334 61.290142 203.43302 
Q 61.290142 202.614572 59.944621 202.678601 
L 59.944621 202.185862 
Q 60.996911 202.185862 60.996911 201.257917 
Q 60.996911 200.623202 60.318583 200.623202 
Q 59.56138 200.623202 59.56138 201.527949 
z
"/>
   </g>
   <g id="patch_19">
    <path clip-path="url(#pab49ff9ac8)" d="M 68.004752 202.403001 
Q 68.425111 202.493012 68.660809 202.777891 
Q 68.897435 203.061842 68.897435 203.479417 
Q 68.897435 204.119699 68.456661 204.47139 
Q 68.015887 204.822154 67.203935 204.822154 
Q 66.932047 204.822154 66.643456 204.768333 
Q 66.354865 204.714512 66.047716 204.60687 
L 66.047716 204.041752 
Q 66.290837 204.183727 66.580356 204.256107 
Q 66.870803 204.328487 67.187232 204.328487 
Q 67.737503 204.328487 68.026094 204.111348 
Q 68.314685 203.894209 68.314685 203.479417 
Q 68.314685 203.096176 68.046509 202.880893 
Q 67.778333 202.664681 67.300441 202.664681 
L 66.795639 202.664681 
L 66.795639 202.183078 
L 67.32364 202.183078 
Q 67.755134 202.183078 67.984337 202.01048 
Q 68.213539 201.837882 68.213539 201.513102 
Q 68.213539 201.179969 67.976913 201.001804 
Q 67.741215 200.822711 67.300441 200.822711 
Q 67.059176 200.822711 66.783576 200.875604 
Q 66.507976 200.927568 66.177628 201.037066 
L 66.177628 200.515561 
Q 66.511688 200.422766 66.803063 200.376369 
Q 67.094438 200.329972 67.352406 200.329972 
Q 68.019599 200.329972 68.40748 200.63341 
Q 68.796289 200.93592 68.796289 201.451857 
Q 68.796289 201.8119 68.590285 202.059661 
Q 68.384281 202.307423 68.004752 202.403001 
z
"/>
   </g>
   <g id="patch_20">
    <path clip-path="url(#pab49ff9ac8)" d="M 76.711659 215.345978 
L 78.755922 215.345978 
L 78.755922 215.838716 
L 76.007349 215.838716 
L 76.007349 215.345978 
Q 76.340481 215.000782 76.915807 214.419889 
Q 77.492061 213.838067 77.639604 213.669181 
Q 77.920772 213.35368 78.032125 213.134685 
Q 78.144406 212.91569 78.144406 212.704118 
Q 78.144406 212.358923 77.902213 212.141784 
Q 77.660019 211.923717 77.27121 211.923717 
Q 76.995611 211.923717 76.689389 212.019295 
Q 76.384095 212.114873 76.036115 212.309742 
L 76.036115 211.717713 
Q 76.389662 211.575737 76.696812 211.503357 
Q 77.00489 211.430978 77.260075 211.430978 
Q 77.932835 211.430978 78.332779 211.767822 
Q 78.732724 212.103738 78.732724 212.666073 
Q 78.732724 212.933321 78.632506 213.172731 
Q 78.533215 213.411212 78.268751 213.735993 
Q 78.196371 213.820436 77.807562 214.222236 
Q 77.419681 214.624036 76.711659 215.345978 
z
M 80.046578 215.101928 
L 80.658093 215.101928 
L 80.658093 215.601163 
L 80.182986 216.529108 
L 79.809024 216.529108 
L 80.046578 215.601163 
z
M 83.483106 212.019295 
L 82.003962 214.330806 
L 83.483106 214.330806 
z
M 83.329067 211.508925 
L 84.065855 211.508925 
L 84.065855 214.330806 
L 84.683867 214.330806 
L 84.683867 214.817977 
L 84.065855 214.817977 
L 84.065855 215.838716 
L 83.483106 215.838716 
L 83.483106 214.817977 
L 81.528854 214.817977 
L 81.528854 214.252858 
z
M 85.712842 215.101928 
L 86.324358 215.101928 
L 86.324358 215.601163 
L 85.84925 216.529108 
L 85.475288 216.529108 
L 85.712842 215.601163 
z
M 88.865419 213.440907 
Q 88.471042 213.440907 88.239984 213.710939 
Q 88.009854 213.980043 88.009854 214.449583 
Q 88.009854 214.916339 88.239984 215.188227 
Q 88.471042 215.459187 88.865419 215.459187 
Q 89.259795 215.459187 89.489926 215.188227 
Q 89.720056 214.916339 89.720056 214.449583 
Q 89.720056 213.980043 89.489926 213.710939 
Q 89.259795 213.440907 88.865419 213.440907 
z
M 90.028134 211.604503 
L 90.028134 212.138072 
Q 89.807283 212.034142 89.58272 211.979393 
Q 89.358158 211.923717 89.137307 211.923717 
Q 88.557341 211.923717 88.251119 212.315309 
Q 87.945825 212.706902 87.902212 213.498439 
Q 88.072954 213.246038 88.330923 213.111486 
Q 88.589819 212.976934 88.899753 212.976934 
Q 89.552098 212.976934 89.9307 213.373167 
Q 90.309301 213.768471 90.309301 214.449583 
Q 90.309301 215.116775 89.914925 215.520431 
Q 89.520548 215.923159 88.865419 215.923159 
Q 88.113783 215.923159 87.716623 215.347834 
Q 87.319463 214.77158 87.319463 213.678461 
Q 87.319463 212.652153 87.806634 212.041566 
Q 88.293805 211.430978 89.114108 211.430978 
Q 89.334959 211.430978 89.559522 211.474591 
Q 89.784084 211.518205 90.028134 211.604503 
z
"/>
   </g>
   <g id="patch_21">
    <path clip-path="url(#pab49ff9ac8)" d="M 83.316772 204.537274 
L 83.316772 205.972805 
L 82.78042 205.972805 
L 82.78042 201.510318 
Q 82.78042 200.187996 84.015514 200.187996 
Q 85.274736 200.187996 85.274736 201.304314 
Q 85.274736 202.098635 84.775501 202.389082 
Q 85.587453 202.649834 85.587453 203.42374 
Q 85.587453 204.798955 84.189968 204.798955 
Q 83.574741 204.798955 83.316772 204.537274 
z
M 83.316772 203.841316 
Q 83.638769 204.343334 84.210383 204.343334 
Q 85.045533 204.343334 85.045533 203.43302 
Q 85.045533 202.614572 83.700013 202.678601 
L 83.700013 202.185862 
Q 84.752303 202.185862 84.752303 201.257917 
Q 84.752303 200.623202 84.073975 200.623202 
Q 83.316772 200.623202 83.316772 201.527949 
z
"/>
   </g>
   <g id="patch_22">
    <path clip-path="url(#pab49ff9ac8)" d="M 91.594969 200.918289 
L 90.115825 203.2298 
L 91.594969 203.2298 
z
M 91.44093 200.407919 
L 92.177719 200.407919 
L 92.177719 203.2298 
L 92.79573 203.2298 
L 92.79573 203.716971 
L 92.177719 203.716971 
L 92.177719 204.737711 
L 91.594969 204.737711 
L 91.594969 203.716971 
L 89.640717 203.716971 
L 89.640717 203.151853 
z
"/>
   </g>
   <g id="patch_23">
    <path clip-path="url(#pab49ff9ac8)" d="M 122.256591 207.904787 
L 122.256591 209.340318 
L 121.720239 209.340318 
L 121.720239 204.87783 
Q 121.720239 203.555509 122.955334 203.555509 
Q 124.214555 203.555509 124.214555 204.671826 
Q 124.214555 205.466147 123.715321 205.756594 
Q 124.527273 206.017347 124.527273 206.791253 
Q 124.527273 208.166467 123.129788 208.166467 
Q 122.51456 208.166467 122.256591 207.904787 
z
M 122.256591 207.208828 
Q 122.578588 207.710846 123.150202 207.710846 
Q 123.985353 207.710846 123.985353 206.800532 
Q 123.985353 205.982085 122.639833 206.046113 
L 122.639833 205.553374 
Q 123.692122 205.553374 123.692122 204.625429 
Q 123.692122 203.990715 123.013794 203.990715 
Q 122.256591 203.990715 122.256591 204.895461 
z
"/>
   </g>
   <g id="patch_24">
    <path clip-path="url(#pab49ff9ac8)" d="M 103.841059 200.46174 
L 103.841059 209.963897 
L 94.338902 209.963897 
L 94.338902 200.46174 
L 103.841059 200.46174 
z
" style="fill:#0090bc;stroke:#000000;stroke-linejoin:miter;stroke-width:0.558;"/>
   </g>
   <g id="patch_25">
    <path clip-path="url(#pab49ff9ac8)" d="M 75.334589 209.963897 
C 76.59459 209.963897 77.803154 209.463293 78.694109 208.572338 
C 79.585064 207.681383 80.085667 206.472819 80.085667 205.212818 
C 80.085667 203.952818 79.585064 202.744254 78.694109 201.853299 
C 77.803154 200.962344 76.59459 200.46174 75.334589 200.46174 
C 74.074588 200.46174 72.866024 200.962344 71.975069 201.853299 
C 71.084114 202.744254 70.583511 203.952818 70.583511 205.212818 
C 70.583511 206.472819 71.084114 207.681383 71.975069 208.572338 
C 72.866024 209.463293 74.074588 209.963897 75.334589 209.963897 
z
" style="fill:#ffd400;stroke:#000000;stroke-linejoin:miter;stroke-width:0.558;"/>
   </g>
   <g id="patch_26">
    <path clip-path="url(#pab49ff9ac8)" d="M 56.330276 200.46174 
L 56.330276 209.963897 
L 46.828119 209.963897 
L 46.828119 200.46174 
L 56.330276 200.46174 
z
" style="fill:#0090bc;stroke:#000000;stroke-linejoin:miter;stroke-width:0.558;"/>
   </g>
   <g id="patch_27">
    <path clip-path="url(#pab49ff9ac8)" d="M 78.897898 215.902745 
L 71.77128 223.029362 
z
" style="fill:#ffffff;stroke:#000000;stroke-linejoin:miter;stroke-width:0.558;"/>
   </g>
   <g id="patch_28">
    <path clip-path="url(#pab49ff9ac8)" d="M 71.77128 215.902745 
L 78.897898 223.029362 
z
" style="fill:#ffffff;stroke:#000000;stroke-linejoin:miter;stroke-width:0.558;"/>
   </g>
   <g id="patch_29">
    <path clip-path="url(#pab49ff9ac8)" d="M 27.823806 209.963897 
C 29.083806 209.963897 30.29237 209.463293 31.183325 208.572338 
C 32.07428 207.681383 32.574884 206.472819 32.574884 205.212818 
C 32.574884 203.952818 32.07428 202.744254 31.183325 201.853299 
C 30.29237 200.962344 29.083806 200.46174 27.823806 200.46174 
C 26.563805 200.46174 25.355241 200.962344 24.464286 201.853299 
C 23.573331 202.744254 23.072727 203.952818 23.072727 205.212818 
C 23.072727 206.472819 23.573331 207.681383 24.464286 208.572338 
C 25.355241 209.463293 26.563805 209.963897 27.823806 209.963897 
z
" style="fill:#ffd400;stroke:#000000;stroke-linejoin:miter;stroke-width:0.558;"/>
   </g>
  </g>
  <g id="axes_4">
   <g id="line2d_10">
    <path clip-path="url(#p84347b19a3)" d="M 110.033766 267.411877 
L 37.566234 267.411877 
" style="fill:none;stroke:#000000;stroke-linecap:square;stroke-width:1.116;"/>
   </g>
   <g id="patch_30">
    <path clip-path="url(#p84347b19a3)" d="M 61.916457 265.351082 
L 61.916457 269.730272 
L 60.280276 269.730272 
L 60.280276 256.117133 
Q 60.280276 252.083296 64.048022 252.083296 
Q 67.889367 252.083296 67.889367 255.488703 
Q 67.889367 257.911837 66.366416 258.797865 
Q 68.843334 259.59331 68.843334 261.954166 
Q 68.843334 266.149357 64.580205 266.149357 
Q 62.703409 266.149357 61.916457 265.351082 
z
M 61.916457 263.228009 
Q 62.898732 264.759452 64.642482 264.759452 
Q 67.190168 264.759452 67.190168 261.982474 
Q 67.190168 259.485741 63.085562 259.681063 
L 63.085562 258.177928 
Q 66.295647 258.177928 66.295647 255.347165 
Q 66.295647 253.410923 64.22636 253.410923 
Q 61.916457 253.410923 61.916457 256.170917 
z
"/>
   </g>
   <g id="patch_31">
    <path clip-path="url(#p84347b19a3)" d="M 87.673569 258.840327 
Q 88.955905 259.114911 89.674919 259.983955 
Q 90.396763 260.850169 90.396763 262.124012 
Q 90.396763 264.077238 89.052151 265.150098 
Q 87.707539 266.220126 85.230621 266.220126 
Q 84.401207 266.220126 83.52084 266.055942 
Q 82.640473 265.891757 81.70349 265.563389 
L 81.70349 263.839454 
Q 82.44515 264.272561 83.328348 264.493361 
Q 84.214377 264.71416 85.179667 264.71416 
Q 86.85831 264.71416 87.738677 264.051761 
Q 88.619044 263.389363 88.619044 262.124012 
Q 88.619044 260.954907 87.800954 260.29817 
Q 86.982863 259.638602 85.52502 259.638602 
L 83.985085 259.638602 
L 83.985085 258.169436 
L 85.595789 258.169436 
Q 86.912094 258.169436 87.611293 257.642914 
Q 88.310491 257.116392 88.310491 256.125625 
Q 88.310491 255.109381 87.588647 254.565875 
Q 86.869633 254.019537 85.52502 254.019537 
Q 84.789022 254.019537 83.948285 254.180891 
Q 83.107549 254.339414 82.099797 254.673444 
L 82.099797 253.082555 
Q 83.118872 252.799479 84.007731 252.65794 
Q 84.896591 252.516402 85.683543 252.516402 
Q 87.718862 252.516402 88.902121 253.442062 
Q 90.08821 254.364891 90.08821 255.938795 
Q 90.08821 257.037131 89.459781 257.792945 
Q 88.831351 258.548758 87.673569 258.840327 
z
"/>
   </g>
   <g id="patch_32">
    <path clip-path="url(#p84347b19a3)" d="M 124.527273 252.918371 
L 124.527273 281.905384 
L 95.54026 281.905384 
L 95.54026 252.918371 
L 124.527273 252.918371 
z
" style="fill:#ffd400;stroke:#000000;stroke-linejoin:miter;stroke-width:1.116;"/>
   </g>
   <g id="patch_33">
    <path clip-path="url(#p84347b19a3)" d="M 52.05974 252.918371 
L 52.05974 281.905384 
L 23.072727 281.905384 
L 23.072727 252.918371 
L 52.05974 252.918371 
z
" style="fill:#0090bc;stroke:#000000;stroke-linejoin:miter;stroke-width:1.116;"/>
   </g>
  </g>
  <g id="axes_5">
   <g id="line2d_11">
    <path clip-path="url(#p9dc9920a98)" d="M 91.689386 314.12336 
L 61.022723 314.12336 
" style="fill:none;stroke:#000000;stroke-linecap:square;stroke-width:0.6696;"/>
   </g>
   <g id="line2d_12">
    <path clip-path="url(#p9dc9920a98)" d="M 61.022723 314.12336 
L 30.35606 314.12336 
" style="fill:none;stroke:#000000;stroke-linecap:square;stroke-width:0.6696;"/>
   </g>
   <g id="line2d_13">
    <path clip-path="url(#p9dc9920a98)" d="M 30.35606 314.12336 
L 30.35606 332.523358 
" style="fill:none;stroke:#000000;stroke-linecap:square;stroke-width:0.6696;"/>
   </g>
   <g id="line2d_14">
    <path clip-path="url(#p9dc9920a98)" d="M 122.356049 314.12336 
L 91.689386 314.12336 
" style="fill:none;stroke:#000000;stroke-linecap:square;stroke-width:0.6696;"/>
   </g>
   <g id="patch_34">
    <path clip-path="url(#p9dc9920a98)" d="M 71.327201 313.251277 
L 71.327201 315.104454 
L 70.634805 315.104454 
L 70.634805 309.343673 
Q 70.634805 307.636642 72.229232 307.636642 
Q 73.854805 307.636642 73.854805 309.077736 
Q 73.854805 310.103152 73.210326 310.4781 
Q 74.258503 310.814715 74.258503 311.813777 
Q 74.258503 313.58909 72.45444 313.58909 
Q 71.660222 313.58909 71.327201 313.251277 
z
M 71.327201 312.35284 
Q 71.742878 313.000913 72.480794 313.000913 
Q 73.558919 313.000913 73.558919 311.825756 
Q 73.558919 310.769194 71.82194 310.85185 
L 71.82194 310.215757 
Q 73.180378 310.215757 73.180378 309.01784 
Q 73.180378 308.198465 72.304701 308.198465 
Q 71.327201 308.198465 71.327201 309.366434 
z
"/>
   </g>
   <g id="patch_35">
    <path clip-path="url(#p9dc9920a98)" d="M 82.013814 308.579403 
L 80.104335 311.563413 
L 82.013814 311.563413 
z
M 81.81496 307.920549 
L 82.766106 307.920549 
L 82.766106 311.563413 
L 83.563918 311.563413 
L 83.563918 312.192319 
L 82.766106 312.192319 
L 82.766106 313.510027 
L 82.013814 313.510027 
L 82.013814 312.192319 
L 79.491002 312.192319 
L 79.491002 311.462788 
z
"/>
   </g>
   <g id="patch_36">
    <path clip-path="url(#p9dc9920a98)" d="M 42.416683 311.559819 
L 42.251371 310.694923 
Q 42.083663 309.807267 41.416423 309.807267 
Q 40.915694 309.807267 40.686892 310.21935 
Q 40.398194 310.735652 40.398194 311.417267 
Q 40.398194 312.241433 40.679704 312.63435 
Q 40.963611 313.034454 41.416423 313.034454 
Q 41.91835 313.034454 42.187881 312.236642 
z
M 42.802412 310.414611 
L 43.172569 309.317319 
L 43.7871 309.317319 
L 43.019235 311.589767 
L 43.168975 312.409142 
Q 43.202517 312.592423 43.333089 312.745756 
Q 43.487621 312.925444 43.607412 312.925444 
L 43.936839 312.925444 
L 43.936839 313.510027 
L 43.524756 313.510027 
Q 43.172569 313.510027 42.858715 313.194975 
Q 42.704183 313.038048 42.640694 312.708621 
Q 42.469392 313.124298 42.117204 313.450131 
Q 41.951892 313.603465 41.416423 313.603465 
Q 40.537152 313.603465 40.110694 313.034454 
Q 39.672257 312.446277 39.672257 311.417267 
Q 39.672257 310.316382 40.147829 309.80008 
Q 40.676111 309.223882 41.416423 309.223882 
Q 42.580798 309.223882 42.802412 310.414611 
z
"/>
   </g>
   <g id="patch_37">
    <path clip-path="url(#p9dc9920a98)" d="M 49.920432 312.873933 
L 52.559443 312.873933 
L 52.559443 313.510027 
L 49.011214 313.510027 
L 49.011214 312.873933 
Q 49.441266 312.428308 50.183974 311.678413 
Q 50.92788 310.927319 51.118349 310.709298 
Q 51.481318 310.302007 51.625068 310.019298 
Q 51.770016 309.73659 51.770016 309.463465 
Q 51.770016 309.01784 51.457359 308.737528 
Q 51.144703 308.456017 50.642776 308.456017 
Q 50.286995 308.456017 49.891682 308.579403 
Q 49.497568 308.702788 49.048349 308.954351 
L 49.048349 308.19008 
Q 49.504755 308.006799 49.901266 307.913361 
Q 50.298974 307.819924 50.628401 307.819924 
Q 51.496891 307.819924 52.013193 308.254767 
Q 52.529495 308.688413 52.529495 309.41435 
Q 52.529495 309.75935 52.40012 310.068413 
Q 52.271943 310.376277 51.930536 310.795548 
Q 51.837099 310.904559 51.335172 311.423256 
Q 50.834443 311.941954 49.920432 312.873933 
z
"/>
   </g>
   <g id="patch_38">
    <path clip-path="url(#p9dc9920a98)" d="M 33.773716 324.435625 
Q 34.316372 324.551823 34.620643 324.919583 
Q 34.926111 325.286145 34.926111 325.825208 
Q 34.926111 326.65177 34.357101 327.105781 
Q 33.788091 327.558593 32.739914 327.558593 
Q 32.388924 327.558593 32.016372 327.489114 
Q 31.64382 327.419635 31.24731 327.280677 
L 31.24731 326.551145 
Q 31.561164 326.734427 31.934914 326.827864 
Q 32.309862 326.921302 32.718351 326.921302 
Q 33.428716 326.921302 33.801268 326.640989 
Q 34.17382 326.360677 34.17382 325.825208 
Q 34.17382 325.330468 33.827622 325.052552 
Q 33.481424 324.773437 32.864497 324.773437 
L 32.21283 324.773437 
L 32.21283 324.151719 
L 32.894445 324.151719 
Q 33.451476 324.151719 33.747361 323.928906 
Q 34.043247 323.706094 34.043247 323.286823 
Q 34.043247 322.856771 33.737778 322.626771 
Q 33.433507 322.395573 32.864497 322.395573 
Q 32.553039 322.395573 32.197257 322.463854 
Q 31.841476 322.530937 31.415018 322.672292 
L 31.415018 321.999063 
Q 31.846268 321.879271 32.222414 321.819375 
Q 32.598559 321.759479 32.93158 321.759479 
Q 33.792882 321.759479 34.293611 322.151198 
Q 34.795538 322.541719 34.795538 323.20776 
Q 34.795538 323.672552 34.529601 323.992396 
Q 34.263663 324.312239 33.773716 324.435625 
z
"/>
   </g>
   <g id="patch_39">
    <path clip-path="url(#p9dc9920a98)" d="M 121.595971 317.598516 
L 121.595971 319.451693 
L 120.903575 319.451693 
L 120.903575 313.690912 
Q 120.903575 311.983881 122.498002 311.983881 
Q 124.123575 311.983881 124.123575 313.424975 
Q 124.123575 314.450392 123.479096 314.825339 
Q 124.527273 315.161954 124.527273 316.161016 
Q 124.527273 317.936329 122.72321 317.936329 
Q 121.928992 317.936329 121.595971 317.598516 
z
M 121.595971 316.700079 
Q 122.011648 317.348152 122.749565 317.348152 
Q 123.827689 317.348152 123.827689 316.172996 
Q 123.827689 315.116433 122.090711 315.199089 
L 122.090711 314.562996 
Q 123.449148 314.562996 123.449148 313.365079 
Q 123.449148 312.545704 122.573471 312.545704 
Q 121.595971 312.545704 121.595971 313.713673 
z
"/>
   </g>
   <g id="patch_40">
    <path clip-path="url(#p9dc9920a98)" d="M 97.822719 307.990028 
L 97.822719 320.256693 
L 85.556053 320.256693 
L 85.556053 307.990028 
L 97.822719 307.990028 
z
" style="fill:#0090bc;stroke:#000000;stroke-linejoin:miter;stroke-width:0.6696;"/>
   </g>
   <g id="patch_41">
    <path clip-path="url(#p9dc9920a98)" d="M 61.022723 320.256693 
C 62.649302 320.256693 64.209479 319.610446 65.359644 318.460281 
C 66.509809 317.310117 67.156055 315.749939 67.156055 314.12336 
C 67.156055 312.496782 66.509809 310.936604 65.359644 309.786439 
C 64.209479 308.636274 62.649302 307.990028 61.022723 307.990028 
C 59.396144 307.990028 57.835967 308.636274 56.685802 309.786439 
C 55.535637 310.936604 54.88939 312.496782 54.88939 314.12336 
C 54.88939 315.749939 55.535637 317.310117 56.685802 318.460281 
C 57.835967 319.610446 59.396144 320.256693 61.022723 320.256693 
z
" style="fill:#ffd400;stroke:#000000;stroke-linejoin:miter;stroke-width:0.6696;"/>
   </g>
   <g id="patch_42">
    <path clip-path="url(#p9dc9920a98)" d="M 30.35606 308.296694 
L 37.639392 319.950026 
L 23.072727 319.950026 
L 30.35606 308.296694 
z
" style="fill:#ed1c24;stroke:#000000;stroke-linejoin:miter;stroke-width:0.6696;"/>
   </g>
   <g id="patch_43">
    <path clip-path="url(#p9dc9920a98)" d="M 34.956059 327.923359 
L 25.75606 337.123358 
z
" style="fill:#ffffff;stroke:#000000;stroke-linejoin:miter;stroke-width:0.6696;"/>
   </g>
   <g id="patch_44">
    <path clip-path="url(#p9dc9920a98)" d="M 25.75606 327.923359 
L 34.956059 337.123358 
z
" style="fill:#ffffff;stroke:#000000;stroke-linejoin:miter;stroke-width:0.6696;"/>
   </g>
  </g>
  <g id="axes_6">
   <g id="line2d_15">
    <path clip-path="url(#pc4c9c2a2b9)" d="M 71.62319 368.276619 
L 71.62319 392.651386 
" style="fill:none;stroke:#000000;stroke-linecap:square;stroke-width:1.674;"/>
   </g>
   <g id="patch_45">
    <path clip-path="url(#pc4c9c2a2b9)" d="M 75.257188 382.93163 
Q 74.543084 382.93163 74.133664 383.314073 
Q 73.725831 383.696515 73.725831 384.3646 
Q 73.725831 385.034271 74.133664 385.416714 
Q 74.543084 385.799156 75.257188 385.799156 
Q 75.971293 385.799156 76.3823 385.415127 
Q 76.794893 385.02951 76.794893 384.3646 
Q 76.794893 383.696515 76.385474 383.314073 
Q 75.977641 382.93163 75.257188 382.93163 
z
M 74.255855 382.506341 
Q 73.611574 382.347651 73.251348 381.906493 
Q 72.892709 381.463748 72.892709 380.828989 
Q 72.892709 379.941912 73.524295 379.42617 
Q 74.157468 378.910428 75.257188 378.910428 
Q 76.363257 378.910428 76.993256 379.42617 
Q 77.623255 379.941912 77.623255 380.828989 
Q 77.623255 381.463748 77.263029 381.906493 
Q 76.90439 382.347651 76.264869 382.506341 
Q 76.988495 382.674552 77.391567 383.166491 
Q 77.796227 383.656843 77.796227 384.3646 
Q 77.796227 385.442104 77.139251 386.018148 
Q 76.482274 386.592606 75.257188 386.592606 
Q 74.033689 386.592606 73.375126 386.018148 
Q 72.71815 385.442104 72.71815 384.3646 
Q 72.71815 383.656843 73.124396 383.166491 
Q 73.532229 382.674552 74.255855 382.506341 
z
M 73.889282 380.924203 
Q 73.889282 381.49866 74.247921 381.820801 
Q 74.608147 382.142941 75.257188 382.142941 
Q 75.903056 382.142941 76.266456 381.820801 
Q 76.631443 381.49866 76.631443 380.924203 
Q 76.631443 380.348159 76.266456 380.026018 
Q 75.903056 379.703878 75.257188 379.703878 
Q 74.608147 379.703878 74.247921 380.026018 
Q 73.889282 380.348159 73.889282 380.924203 
z
M 79.681264 385.1882 
L 80.727031 385.1882 
L 80.727031 386.041952 
L 79.914538 387.628851 
L 79.275018 387.628851 
L 79.681264 386.041952 
z
M 82.835027 386.294269 
L 82.835027 385.381802 
Q 83.212709 385.561121 83.598326 385.654748 
Q 83.985529 385.748375 84.35845 385.748375 
Q 85.350262 385.748375 85.872352 385.081878 
Q 86.396028 384.41538 86.470613 383.055408 
Q 86.183384 383.482284 85.740639 383.710797 
Q 85.299481 383.939311 84.764696 383.939311 
Q 83.653867 383.939311 83.006412 383.268052 
Q 82.358958 382.595207 82.358958 381.428837 
Q 82.358958 380.289443 83.03339 379.600729 
Q 83.707822 378.910428 84.828172 378.910428 
Q 86.11356 378.910428 86.789579 379.895892 
Q 87.467185 380.87977 87.467185 382.753897 
Q 87.467185 384.504247 86.63565 385.548426 
Q 85.805702 386.592606 84.402883 386.592606 
Q 84.025201 386.592606 83.637998 386.518021 
Q 83.252382 386.443437 82.835027 386.294269 
z
M 84.828172 383.155383 
Q 85.502604 383.155383 85.896155 382.695182 
Q 86.291293 382.233394 86.291293 381.428837 
Q 86.291293 380.630627 85.896155 380.167252 
Q 85.502604 379.703878 84.828172 379.703878 
Q 84.15374 379.703878 83.760189 380.167252 
Q 83.366638 380.630627 83.366638 381.428837 
Q 83.366638 382.233394 83.760189 382.695182 
Q 84.15374 383.155383 84.828172 383.155383 
z
"/>
   </g>
   <g id="patch_46">
    <path clip-path="url(#pc4c9c2a2b9)" d="M 71.62319 356.786244 
L 83.113565 368.276619 
L 71.62319 379.766994 
L 60.132815 368.276619 
L 71.62319 356.786244 
z
" style="fill:#a54399;stroke:#000000;stroke-linejoin:miter;stroke-width:1.674;"/>
   </g>
   <g id="patch_47">
    <path clip-path="url(#pc4c9c2a2b9)" d="M 77.716882 386.557694 
L 65.529498 398.745077 
z
" style="fill:#ffffff;stroke:#000000;stroke-linejoin:miter;stroke-width:1.674;"/>
   </g>
   <g id="patch_48">
    <path clip-path="url(#pc4c9c2a2b9)" d="M 65.529498 386.557694 
L 77.716882 398.745077 
z
" style="fill:#ffffff;stroke:#000000;stroke-linejoin:miter;stroke-width:1.674;"/>
   </g>
  </g>
  <g id="axes_7">
   <g id="line2d_16">
    <path clip-path="url(#p743a700d58)" d="M 64.295858 421.005343 
L 64.295858 447.505659 
" style="fill:none;stroke:#000000;stroke-linecap:square;stroke-width:1.674;"/>
   </g>
   <g id="patch_49">
    <path clip-path="url(#p743a700d58)" d="M 69.218085 436.420728 
Q 69.999637 436.58808 70.437859 437.117742 
Q 70.877805 437.645678 70.877805 438.422054 
Q 70.877805 439.612498 70.058297 440.26638 
Q 69.238788 440.918536 67.729168 440.918536 
Q 67.22366 440.918536 66.687098 440.818469 
Q 66.150535 440.718403 65.579467 440.518271 
L 65.579467 439.467574 
Q 66.031491 439.731542 66.569779 439.866114 
Q 67.109792 440.000686 67.698112 440.000686 
Q 68.721204 440.000686 69.257766 439.596971 
Q 69.794329 439.193255 69.794329 438.422054 
Q 69.794329 437.709513 69.295723 437.309248 
Q 68.797116 436.907257 67.908597 436.907257 
L 66.970044 436.907257 
L 66.970044 436.011837 
L 67.951729 436.011837 
Q 68.753984 436.011837 69.180129 435.690934 
Q 69.606273 435.370032 69.606273 434.766184 
Q 69.606273 434.146808 69.166327 433.815554 
Q 68.728105 433.482575 67.908597 433.482575 
Q 67.460024 433.482575 66.947615 433.580916 
Q 66.435207 433.677531 65.821007 433.881115 
L 65.821007 432.911507 
Q 66.442108 432.738979 66.983846 432.652715 
Q 67.525584 432.56645 68.005212 432.56645 
Q 69.24569 432.56645 69.966857 433.130617 
Q 70.68975 433.693059 70.68975 434.652315 
Q 70.68975 435.321724 70.306737 435.782374 
Q 69.923725 436.243024 69.218085 436.420728 
z
M 73.05662 439.391662 
L 74.19358 439.391662 
L 74.19358 440.319863 
L 73.310236 442.045144 
L 72.614948 442.045144 
L 73.05662 440.319863 
z
M 79.445982 433.660279 
L 76.695884 437.957954 
L 79.445982 437.957954 
z
M 79.159585 432.711374 
L 80.529458 432.711374 
L 80.529458 437.957954 
L 81.678496 437.957954 
L 81.678496 438.863726 
L 80.529458 438.863726 
L 80.529458 440.761535 
L 79.445982 440.761535 
L 79.445982 438.863726 
L 75.81254 438.863726 
L 75.81254 437.81303 
z
M 83.591617 439.391662 
L 84.728577 439.391662 
L 84.728577 440.319863 
L 83.845233 442.045144 
L 83.149945 442.045144 
L 83.591617 440.319863 
z
M 89.453043 436.303409 
Q 88.719799 436.303409 88.290204 436.805466 
Q 87.862334 437.305797 87.862334 438.17879 
Q 87.862334 439.046606 88.290204 439.552113 
Q 88.719799 440.055895 89.453043 440.055895 
Q 90.186288 440.055895 90.614157 439.552113 
Q 91.042027 439.046606 91.042027 438.17879 
Q 91.042027 437.305797 90.614157 436.805466 
Q 90.186288 436.303409 89.453043 436.303409 
z
M 91.61482 432.889078 
L 91.61482 433.881115 
Q 91.204203 433.687883 90.786685 433.586092 
Q 90.369167 433.482575 89.95855 433.482575 
Q 88.88025 433.482575 88.310907 434.210643 
Q 87.74329 434.938712 87.662201 436.410377 
Q 87.979653 435.9411 88.459281 435.690934 
Q 88.940635 435.440769 89.516878 435.440769 
Q 90.729751 435.440769 91.433666 436.177464 
Q 92.13758 436.912433 92.13758 438.17879 
Q 92.13758 439.419267 91.404336 440.169764 
Q 90.671091 440.918536 89.453043 440.918536 
Q 88.055565 440.918536 87.317145 439.848862 
Q 86.578725 438.777462 86.578725 436.745081 
Q 86.578725 434.83692 87.484497 433.701685 
Q 88.39027 432.56645 89.915418 432.56645 
Q 90.326035 432.56645 90.743553 432.647539 
Q 91.161071 432.728627 91.61482 432.889078 
z
"/>
   </g>
   <g id="patch_50">
    <path clip-path="url(#p743a700d58)" d="M 73.129297 412.171904 
L 73.129297 429.838781 
L 55.46242 429.838781 
L 55.46242 412.171904 
L 73.129297 412.171904 
z
" style="fill:#0090bc;stroke:#000000;stroke-linejoin:miter;stroke-width:1.674;"/>
   </g>
   <g id="patch_51">
    <path clip-path="url(#p743a700d58)" d="M 70.920937 440.88058 
L 57.670779 454.130738 
z
" style="fill:#ffffff;stroke:#000000;stroke-linejoin:miter;stroke-width:1.674;"/>
   </g>
   <g id="patch_52">
    <path clip-path="url(#p743a700d58)" d="M 57.670779 440.88058 
L 70.920937 454.130738 
z
" style="fill:#ffffff;stroke:#000000;stroke-linejoin:miter;stroke-width:1.674;"/>
   </g>
  </g>
  <g id="axes_8">
   <g id="line2d_17">
    <path clip-path="url(#p0e1087dcbf)" d="M 64.295858 476.391003 
L 64.295858 502.891319 
" style="fill:none;stroke:#000000;stroke-linecap:square;stroke-width:1.674;"/>
   </g>
   <g id="patch_53">
    <path clip-path="url(#p0e1087dcbf)" d="M 66.856175 495.231071 
L 70.656969 495.231071 
L 70.656969 496.147196 
L 65.546687 496.147196 
L 65.546687 495.231071 
Q 66.166063 494.589267 67.235737 493.509241 
Q 68.307137 492.42749 68.581456 492.113489 
Q 69.104216 491.526893 69.31125 491.119727 
Q 69.520009 490.71256 69.520009 490.319196 
Q 69.520009 489.677392 69.069711 489.273676 
Q 68.619413 488.868235 67.89652 488.868235 
Q 67.384111 488.868235 66.814769 489.045939 
Q 66.247151 489.223643 65.600171 489.585952 
L 65.600171 488.485223 
Q 66.257503 488.221255 66.828571 488.086683 
Q 67.401364 487.952111 67.875816 487.952111 
Q 69.126645 487.952111 69.870241 488.578388 
Q 70.613837 489.20294 70.613837 490.24846 
Q 70.613837 490.745341 70.427507 491.190463 
Q 70.242902 491.633861 69.751197 492.237709 
Q 69.616625 492.394709 68.893732 493.141756 
Q 68.172565 493.888803 66.856175 495.231071 
z
M 73.05662 494.777322 
L 74.19358 494.777322 
L 74.19358 495.705524 
L 73.310236 497.430805 
L 72.614948 497.430805 
L 73.05662 495.705524 
z
M 79.753082 491.806389 
Q 80.534634 491.973741 80.972856 492.503402 
Q 81.412802 493.031338 81.412802 493.807715 
Q 81.412802 494.998158 80.593294 495.65204 
Q 79.773785 496.304196 78.264165 496.304196 
Q 77.758657 496.304196 77.222095 496.20413 
Q 76.685532 496.104064 76.114464 495.903931 
L 76.114464 494.853235 
Q 76.566488 495.117203 77.104776 495.251775 
Q 77.644789 495.386347 78.233109 495.386347 
Q 79.256201 495.386347 79.792764 494.982631 
Q 80.329326 494.578915 80.329326 493.807715 
Q 80.329326 493.095174 79.83072 492.694908 
Q 79.332113 492.292918 78.443594 492.292918 
L 77.505041 492.292918 
L 77.505041 491.397497 
L 78.486726 491.397497 
Q 79.288981 491.397497 79.715126 491.076595 
Q 80.14127 490.755692 80.14127 490.151844 
Q 80.14127 489.532468 79.701324 489.201214 
Q 79.263102 488.868235 78.443594 488.868235 
Q 77.995021 488.868235 77.482612 488.966576 
Q 76.970204 489.063192 76.356004 489.266775 
L 76.356004 488.297167 
Q 76.977105 488.124639 77.518843 488.038375 
Q 78.060581 487.952111 78.54021 487.952111 
Q 79.780687 487.952111 80.501854 488.516278 
Q 81.224747 489.078719 81.224747 490.037976 
Q 81.224747 490.707385 80.841734 491.168035 
Q 80.458722 491.628685 79.753082 491.806389 
z
M 83.591617 494.777322 
L 84.728577 494.777322 
L 84.728577 495.705524 
L 83.845233 497.430805 
L 83.149945 497.430805 
L 83.591617 495.705524 
z
M 89.453043 491.689069 
Q 88.719799 491.689069 88.290204 492.191126 
Q 87.862334 492.691458 87.862334 493.56445 
Q 87.862334 494.432266 88.290204 494.937774 
Q 88.719799 495.441556 89.453043 495.441556 
Q 90.186288 495.441556 90.614157 494.937774 
Q 91.042027 494.432266 91.042027 493.56445 
Q 91.042027 492.691458 90.614157 492.191126 
Q 90.186288 491.689069 89.453043 491.689069 
z
M 91.61482 488.274738 
L 91.61482 489.266775 
Q 91.204203 489.073544 90.786685 488.971752 
Q 90.369167 488.868235 89.95855 488.868235 
Q 88.88025 488.868235 88.310907 489.596304 
Q 87.74329 490.324372 87.662201 491.796037 
Q 87.979653 491.32676 88.459281 491.076595 
Q 88.940635 490.826429 89.516878 490.826429 
Q 90.729751 490.826429 91.433666 491.563124 
Q 92.13758 492.298094 92.13758 493.56445 
Q 92.13758 494.804927 91.404336 495.555424 
Q 90.671091 496.304196 89.453043 496.304196 
Q 88.055565 496.304196 87.317145 495.234522 
Q 86.578725 494.163122 86.578725 492.130741 
Q 86.578725 490.222581 87.484497 489.087346 
Q 88.39027 487.952111 89.915418 487.952111 
Q 90.326035 487.952111 90.743553 488.033199 
Q 91.161071 488.114287 91.61482 488.274738 
z
"/>
   </g>
   <g id="patch_54">
    <path clip-path="url(#p0e1087dcbf)" d="M 64.295858 485.224442 
C 66.638514 485.224442 68.885535 484.293695 70.542043 482.637187 
C 72.19855 480.98068 73.129297 478.733658 73.129297 476.391003 
C 73.129297 474.048348 72.19855 471.801326 70.542043 470.144819 
C 68.885535 468.488311 66.638514 467.557564 64.295858 467.557564 
C 61.953203 467.557564 59.706181 468.488311 58.049674 470.144819 
C 56.393167 471.801326 55.46242 474.048348 55.46242 476.391003 
C 55.46242 478.733658 56.393167 480.98068 58.049674 482.637187 
C 59.706181 484.293695 61.953203 485.224442 64.295858 485.224442 
z
" style="fill:#ffd400;stroke:#000000;stroke-linejoin:miter;stroke-width:1.674;"/>
   </g>
   <g id="patch_55">
    <path clip-path="url(#p0e1087dcbf)" d="M 70.920937 496.26624 
L 57.670779 509.516398 
z
" style="fill:#ffffff;stroke:#000000;stroke-linejoin:miter;stroke-width:1.674;"/>
   </g>
   <g id="patch_56">
    <path clip-path="url(#p0e1087dcbf)" d="M 57.670779 496.26624 
L 70.920937 509.516398 
z
" style="fill:#ffffff;stroke:#000000;stroke-linejoin:miter;stroke-width:1.674;"/>
   </g>
  </g>
  <g id="axes_9">
   <g id="line2d_18">
    <path clip-path="url(#p03f725d2ca)" d="M 110.033766 544.340179 
L 37.566234 544.340179 
" style="fill:none;stroke:#000000;stroke-linecap:square;stroke-width:1.116;"/>
   </g>
   <g id="patch_57">
    <path clip-path="url(#p03f725d2ca)" d="M 61.916457 542.279384 
L 61.916457 546.658574 
L 60.280276 546.658574 
L 60.280276 533.045435 
Q 60.280276 529.011597 64.048022 529.011597 
Q 67.889367 529.011597 67.889367 532.417005 
Q 67.889367 534.840138 66.366416 535.726167 
Q 68.843334 536.521612 68.843334 538.882468 
Q 68.843334 543.077659 64.580205 543.077659 
Q 62.703409 543.077659 61.916457 542.279384 
z
M 61.916457 540.156311 
Q 62.898732 541.687754 64.642482 541.687754 
Q 67.190168 541.687754 67.190168 538.910776 
Q 67.190168 536.414043 63.085562 536.609365 
L 63.085562 535.10623 
Q 66.295647 535.10623 66.295647 532.275467 
Q 66.295647 530.339225 64.22636 530.339225 
Q 61.916457 530.339225 61.916457 533.099219 
z
"/>
   </g>
   <g id="patch_58">
    <path clip-path="url(#p03f725d2ca)" d="M 87.673569 535.768629 
Q 88.955905 536.043213 89.674919 536.912257 
Q 90.396763 537.77847 90.396763 539.052314 
Q 90.396763 541.00554 89.052151 542.078399 
Q 87.707539 543.148428 85.230621 543.148428 
Q 84.401207 543.148428 83.52084 542.984244 
Q 82.640473 542.820059 81.70349 542.491691 
L 81.70349 540.767756 
Q 82.44515 541.200863 83.328348 541.421662 
Q 84.214377 541.642462 85.179667 541.642462 
Q 86.85831 541.642462 87.738677 540.980063 
Q 88.619044 540.317665 88.619044 539.052314 
Q 88.619044 537.883209 87.800954 537.226472 
Q 86.982863 536.566904 85.52502 536.566904 
L 83.985085 536.566904 
L 83.985085 535.097738 
L 85.595789 535.097738 
Q 86.912094 535.097738 87.611293 534.571216 
Q 88.310491 534.044694 88.310491 533.053927 
Q 88.310491 532.037683 87.588647 531.494177 
Q 86.869633 530.947839 85.52502 530.947839 
Q 84.789022 530.947839 83.948285 531.109193 
Q 83.107549 531.267716 82.099797 531.601746 
L 82.099797 530.010857 
Q 83.118872 529.727781 84.007731 529.586242 
Q 84.896591 529.444704 85.683543 529.444704 
Q 87.718862 529.444704 88.902121 530.370364 
Q 90.08821 531.293192 90.08821 532.867097 
Q 90.08821 533.965433 89.459781 534.721246 
Q 88.831351 535.47706 87.673569 535.768629 
z
"/>
   </g>
   <g id="patch_59">
    <path clip-path="url(#p03f725d2ca)" d="M 124.527273 529.846673 
L 124.527273 558.833686 
L 95.54026 558.833686 
L 95.54026 529.846673 
L 124.527273 529.846673 
z
" style="fill:#ffd400;stroke:#000000;stroke-linejoin:miter;stroke-width:1.116;"/>
   </g>
   <g id="patch_60">
    <path clip-path="url(#p03f725d2ca)" d="M 37.566234 558.833686 
C 41.409957 558.833686 45.096768 557.306558 47.81469 554.588636 
C 50.532613 551.870713 52.05974 548.183902 52.05974 544.340179 
C 52.05974 540.496456 50.532613 536.809645 47.81469 534.091722 
C 45.096768 531.3738 41.409957 529.846673 37.566234 529.846673 
C 33.722511 529.846673 30.0357 531.3738 27.317777 534.091722 
C 24.599855 536.809645 23.072727 540.496456 23.072727 544.340179 
C 23.072727 548.183902 24.599855 551.870713 27.317777 554.588636 
C 30.0357 557.306558 33.722511 558.833686 37.566234 558.833686 
z
" style="fill:#ffd400;stroke:#000000;stroke-linejoin:miter;stroke-width:1.116;"/>
   </g>
  </g>
 </g>
 <defs>
  <clipPath id="pbbe26bf16c">
   <rect height="46.154717" width="23.322862" x="62.138569" y="77.76"/>
  </clipPath>
  <clipPath id="p64c76531a3">
   <rect height="46.154717" width="90.221698" x="28.689151" y="133.14566"/>
  </clipPath>
  <clipPath id="pab49ff9ac8">
   <rect height="25.125502" width="111.6" x="18" y="199.045928"/>
  </clipPath>
  <clipPath id="p84347b19a3">
   <rect height="32.804297" width="111.6" x="18" y="250.592191"/>
  </clipPath>
  <clipPath id="p9dc9920a98">
   <rect height="32.435387" width="111.6" x="18" y="306.162307"/>
  </clipPath>
  <clipPath id="pc4c9c2a2b9">
   <rect height="46.154717" width="30.067807" x="58.766096" y="354.688302"/>
  </clipPath>
  <clipPath id="p743a700d58">
   <rect height="46.154717" width="40.342677" x="53.628662" y="410.073962"/>
  </clipPath>
  <clipPath id="p0e1087dcbf">
   <rect height="46.154717" width="40.342677" x="53.628662" y="465.459623"/>
  </clipPath>
  <clipPath id="p03f725d2ca">
   <rect height="32.804297" width="111.6" x="18" y="527.520493"/>
  </clipPath>
 </defs>
</svg>
