<?xml version="1.0" encoding="utf-8" standalone="no"?>
<!DOCTYPE svg PUBLIC "-//W3C//DTD SVG 1.1//EN"
  "http://www.w3.org/Graphics/SVG/1.1/DTD/svg11.dtd">
<!-- Created with matplotlib (http://matplotlib.org/) -->
<svg height="576pt" version="1.1" viewBox="0 0 144 576" width="144pt" xmlns="http://www.w3.org/2000/svg" xmlns:xlink="http://www.w3.org/1999/xlink">
 <defs>
  <style type="text/css">
*{stroke-linecap:butt;stroke-linejoin:round;}
  </style>
 </defs>
 <g id="figure_1">
  <g id="patch_1">
   <path d="M 0 576 
L 144 576 
L 144 0 
L 0 0 
z
" style="fill:#ffffff;"/>
  </g>
  <g id="axes_1">
   <g id="line2d_1">
    <path clip-path="url(#pae6433f85c)" d="M 71.680632 86.303229 
L 49.58613 86.303229 
" style="fill:none;stroke:#000000;stroke-linecap:square;stroke-width:0.558;"/>
   </g>
   <g id="line2d_2">
    <path clip-path="url(#pae6433f85c)" d="M 71.680632 86.303229 
L 71.680632 99.55993 
" style="fill:none;stroke:#000000;stroke-linecap:square;stroke-width:0.558;"/>
   </g>
   <g id="line2d_3">
    <path clip-path="url(#pae6433f85c)" d="M 93.775135 86.303229 
L 71.680632 86.303229 
" style="fill:none;stroke:#000000;stroke-linecap:square;stroke-width:0.558;"/>
   </g>
   <g id="line2d_4">
    <path clip-path="url(#pae6433f85c)" d="M 93.775135 86.303229 
L 93.775135 99.55993 
" style="fill:none;stroke:#000000;stroke-linecap:square;stroke-width:0.558;"/>
   </g>
   <g id="line2d_5">
    <path clip-path="url(#pae6433f85c)" d="M 115.869637 86.303229 
L 93.775135 86.303229 
" style="fill:none;stroke:#000000;stroke-linecap:square;stroke-width:0.558;"/>
   </g>
   <g id="line2d_6">
    <path clip-path="url(#pae6433f85c)" d="M 115.869637 86.303229 
L 115.869637 99.55993 
" style="fill:none;stroke:#000000;stroke-linecap:square;stroke-width:0.558;"/>
   </g>
   <g id="line2d_7">
    <path clip-path="url(#pae6433f85c)" d="M 49.58613 86.303229 
L 27.491628 86.303229 
" style="fill:none;stroke:#000000;stroke-linecap:square;stroke-width:0.558;"/>
   </g>
   <g id="patch_2">
    <path clip-path="url(#pae6433f85c)" d="M 57.010228 85.674917 
L 57.010228 87.010081 
L 56.511376 87.010081 
L 56.511376 82.859594 
Q 56.511376 81.629724 57.660117 81.629724 
Q 58.831298 81.629724 58.831298 82.667993 
Q 58.831298 83.406778 58.366969 83.676918 
Q 59.122152 83.919439 59.122152 84.639237 
Q 59.122152 85.918301 57.822374 85.918301 
Q 57.250161 85.918301 57.010228 85.674917 
z
M 57.010228 85.027617 
Q 57.309712 85.494536 57.841361 85.494536 
Q 58.618121 85.494536 58.618121 84.647868 
Q 58.618121 83.886643 57.366674 83.946194 
L 57.366674 83.487906 
Q 58.345392 83.487906 58.345392 82.62484 
Q 58.345392 82.034502 57.71449 82.034502 
Q 57.010228 82.034502 57.010228 82.875992 
z
"/>
   </g>
   <g id="patch_3">
    <path clip-path="url(#pae6433f85c)" d="M 64.709644 82.308957 
L 63.333916 84.458856 
L 64.709644 84.458856 
z
M 64.566375 81.834271 
L 65.25165 81.834271 
L 65.25165 84.458856 
L 65.826452 84.458856 
L 65.826452 84.911966 
L 65.25165 84.911966 
L 65.25165 85.861339 
L 64.709644 85.861339 
L 64.709644 84.911966 
L 62.892026 84.911966 
L 62.892026 84.386358 
z
"/>
   </g>
   <g id="patch_4">
    <path clip-path="url(#pae6433f85c)" d="M 74.142961 94.014728 
Q 74.53393 94.098446 74.753149 94.363407 
Q 74.973231 94.627505 74.973231 95.015885 
Q 74.973231 95.611401 74.563274 95.938503 
Q 74.153318 96.264743 73.398135 96.264743 
Q 73.145256 96.264743 72.876842 96.214685 
Q 72.608429 96.164627 72.322754 96.064511 
L 72.322754 95.538904 
Q 72.548877 95.670953 72.818154 95.738272 
Q 73.088294 95.805591 73.382599 95.805591 
Q 73.894398 95.805591 74.162812 95.603634 
Q 74.431225 95.401676 74.431225 95.015885 
Q 74.431225 94.659439 74.181799 94.459207 
Q 73.932373 94.258113 73.487894 94.258113 
L 73.018385 94.258113 
L 73.018385 93.810181 
L 73.50947 93.810181 
Q 73.910796 93.810181 74.123974 93.649651 
Q 74.337151 93.489121 74.337151 93.187047 
Q 74.337151 92.877207 74.117069 92.711498 
Q 73.89785 92.544926 73.487894 92.544926 
Q 73.263496 92.544926 73.007166 92.594121 
Q 72.750835 92.642452 72.443583 92.744294 
L 72.443583 92.259251 
Q 72.754287 92.172944 73.02529 92.129791 
Q 73.296293 92.086638 73.536225 92.086638 
Q 74.15677 92.086638 74.517532 92.36886 
Q 74.879157 92.65022 74.879157 93.130085 
Q 74.879157 93.464955 74.687556 93.695394 
Q 74.495955 93.925832 74.142961 94.014728 
z
M 76.063176 95.500929 
L 76.631937 95.500929 
L 76.631937 95.965258 
L 76.190047 96.828325 
L 75.842231 96.828325 
L 76.063176 95.965258 
z
M 78.995337 93.95604 
Q 78.628533 93.95604 78.41363 94.207192 
Q 78.199589 94.457481 78.199589 94.894193 
Q 78.199589 95.328315 78.41363 95.581194 
Q 78.628533 95.833209 78.995337 95.833209 
Q 79.36214 95.833209 79.57618 95.581194 
Q 79.790221 95.328315 79.790221 94.894193 
Q 79.790221 94.457481 79.57618 94.207192 
Q 79.36214 93.95604 78.995337 93.95604 
z
M 80.076759 92.248031 
L 80.076759 92.744294 
Q 79.871349 92.647631 79.662487 92.59671 
Q 79.453625 92.544926 79.248215 92.544926 
Q 78.708799 92.544926 78.423987 92.90914 
Q 78.140038 93.273354 78.099474 94.00955 
Q 78.258278 93.774796 78.49821 93.649651 
Q 78.739006 93.524506 79.02727 93.524506 
Q 79.634006 93.524506 79.986137 93.893036 
Q 80.338268 94.260702 80.338268 94.894193 
Q 80.338268 95.514738 79.971465 95.890172 
Q 79.604662 96.264743 78.995337 96.264743 
Q 78.296253 96.264743 77.92686 95.729641 
Q 77.557468 95.193677 77.557468 94.176985 
Q 77.557468 93.222433 78.010578 92.654535 
Q 78.463688 92.086638 79.226638 92.086638 
Q 79.432048 92.086638 79.64091 92.127202 
Q 79.849772 92.167766 80.076759 92.248031 
z
"/>
   </g>
   <g id="patch_5">
    <path clip-path="url(#pae6433f85c)" d="M 79.10473 85.674917 
L 79.10473 87.010081 
L 78.605878 87.010081 
L 78.605878 82.859594 
Q 78.605878 81.629724 79.754619 81.629724 
Q 80.925801 81.629724 80.925801 82.667993 
Q 80.925801 83.406778 80.461471 83.676918 
Q 81.216654 83.919439 81.216654 84.639237 
Q 81.216654 85.918301 79.916876 85.918301 
Q 79.344663 85.918301 79.10473 85.674917 
z
M 79.10473 85.027617 
Q 79.404214 85.494536 79.935863 85.494536 
Q 80.712623 85.494536 80.712623 84.647868 
Q 80.712623 83.886643 79.461177 83.946194 
L 79.461177 83.487906 
Q 80.439894 83.487906 80.439894 82.62484 
Q 80.439894 82.034502 79.808993 82.034502 
Q 79.10473 82.034502 79.10473 82.875992 
z
"/>
   </g>
   <g id="patch_6">
    <path clip-path="url(#pae6433f85c)" d="M 86.957772 83.689864 
Q 87.348742 83.773581 87.56796 84.038543 
Q 87.788042 84.302641 87.788042 84.691021 
Q 87.788042 85.286537 87.378086 85.613639 
Q 86.968129 85.939878 86.212946 85.939878 
Q 85.960068 85.939878 85.691654 85.88982 
Q 85.42324 85.839762 85.137565 85.739647 
L 85.137565 85.214039 
Q 85.363689 85.346088 85.632965 85.413408 
Q 85.903105 85.480727 86.197411 85.480727 
Q 86.709209 85.480727 86.977623 85.278769 
Q 87.246037 85.076812 87.246037 84.691021 
Q 87.246037 84.334574 86.99661 84.134343 
Q 86.747184 83.933248 86.302705 83.933248 
L 85.833197 83.933248 
L 85.833197 83.485317 
L 86.324282 83.485317 
Q 86.725607 83.485317 86.938785 83.324787 
Q 87.151962 83.164256 87.151962 82.862183 
Q 87.151962 82.552342 86.93188 82.386633 
Q 86.712661 82.220061 86.302705 82.220061 
Q 86.078308 82.220061 85.821977 82.269256 
Q 85.565646 82.317588 85.258394 82.41943 
L 85.258394 81.934386 
Q 85.569098 81.84808 85.840101 81.804926 
Q 86.111104 81.761773 86.351037 81.761773 
Q 86.971581 81.761773 87.332343 82.043996 
Q 87.693968 82.325356 87.693968 82.805221 
Q 87.693968 83.14009 87.502367 83.370529 
Q 87.310767 83.600968 86.957772 83.689864 
z
"/>
   </g>
   <g id="patch_7">
    <path clip-path="url(#pae6433f85c)" d="M 95.055925 95.727915 
L 96.957261 95.727915 
L 96.957261 96.186204 
L 94.400858 96.186204 
L 94.400858 95.727915 
Q 94.710699 95.406854 95.2458 94.866575 
Q 95.781764 94.325432 95.918992 94.168354 
Q 96.180501 93.874911 96.284069 93.671228 
Q 96.3885 93.467544 96.3885 93.270765 
Q 96.3885 92.949704 96.16324 92.747747 
Q 95.937979 92.544926 95.576354 92.544926 
Q 95.320024 92.544926 95.035212 92.633822 
Q 94.751263 92.722718 94.427613 92.903962 
L 94.427613 92.353325 
Q 94.756441 92.221276 95.042116 92.153957 
Q 95.328654 92.086638 95.565998 92.086638 
Q 96.191721 92.086638 96.563702 92.399931 
Q 96.935684 92.712361 96.935684 93.235379 
Q 96.935684 93.483942 96.842473 93.706613 
Q 96.750125 93.928422 96.504151 94.230495 
Q 96.436832 94.309034 96.075207 94.682742 
Q 95.714445 95.056449 95.055925 95.727915 
z
M 98.157678 95.500929 
L 98.726439 95.500929 
L 98.726439 95.965258 
L 98.284549 96.828325 
L 97.936733 96.828325 
L 98.157678 95.965258 
z
M 101.353937 92.633822 
L 99.978209 94.78372 
L 101.353937 94.78372 
z
M 101.210668 92.159135 
L 101.895943 92.159135 
L 101.895943 94.78372 
L 102.470745 94.78372 
L 102.470745 95.23683 
L 101.895943 95.23683 
L 101.895943 96.186204 
L 101.353937 96.186204 
L 101.353937 95.23683 
L 99.536319 95.23683 
L 99.536319 94.711223 
z
M 103.427778 95.500929 
L 103.996539 95.500929 
L 103.996539 95.965258 
L 103.554649 96.828325 
L 103.206833 96.828325 
L 103.427778 95.965258 
z
M 106.359939 93.95604 
Q 105.993135 93.95604 105.778232 94.207192 
Q 105.564191 94.457481 105.564191 94.894193 
Q 105.564191 95.328315 105.778232 95.581194 
Q 105.993135 95.833209 106.359939 95.833209 
Q 106.726742 95.833209 106.940783 95.581194 
Q 107.154823 95.328315 107.154823 94.894193 
Q 107.154823 94.457481 106.940783 94.207192 
Q 106.726742 93.95604 106.359939 93.95604 
z
M 107.441361 92.248031 
L 107.441361 92.744294 
Q 107.235951 92.647631 107.027089 92.59671 
Q 106.818227 92.544926 106.612817 92.544926 
Q 106.073401 92.544926 105.788589 92.90914 
Q 105.50464 93.273354 105.464076 94.00955 
Q 105.62288 93.774796 105.862812 93.649651 
Q 106.103608 93.524506 106.391872 93.524506 
Q 106.998608 93.524506 107.350739 93.893036 
Q 107.70287 94.260702 107.70287 94.894193 
Q 107.70287 95.514738 107.336067 95.890172 
Q 106.969264 96.264743 106.359939 96.264743 
Q 105.660855 96.264743 105.291462 95.729641 
Q 104.92207 95.193677 104.92207 94.176985 
Q 104.92207 93.222433 105.37518 92.654535 
Q 105.82829 92.086638 106.591241 92.086638 
Q 106.79665 92.086638 107.005512 92.127202 
Q 107.214375 92.167766 107.441361 92.248031 
z
"/>
   </g>
   <g id="patch_8">
    <path clip-path="url(#pae6433f85c)" d="M 101.199233 85.674917 
L 101.199233 87.010081 
L 100.70038 87.010081 
L 100.70038 82.859594 
Q 100.70038 81.629724 101.849122 81.629724 
Q 103.020303 81.629724 103.020303 82.667993 
Q 103.020303 83.406778 102.555973 83.676918 
Q 103.311156 83.919439 103.311156 84.639237 
Q 103.311156 85.918301 102.011378 85.918301 
Q 101.439165 85.918301 101.199233 85.674917 
z
M 101.199233 85.027617 
Q 101.498717 85.494536 102.030366 85.494536 
Q 102.807126 85.494536 102.807126 84.647868 
Q 102.807126 83.886643 101.555679 83.946194 
L 101.555679 83.487906 
Q 102.534397 83.487906 102.534397 82.62484 
Q 102.534397 82.034502 101.903495 82.034502 
Q 101.199233 82.034502 101.199233 82.875992 
z
"/>
   </g>
   <g id="patch_9">
    <path clip-path="url(#pae6433f85c)" d="M 108.898649 82.308957 
L 107.522921 84.458856 
L 108.898649 84.458856 
z
M 108.75538 81.834271 
L 109.440655 81.834271 
L 109.440655 84.458856 
L 110.015457 84.458856 
L 110.015457 84.911966 
L 109.440655 84.911966 
L 109.440655 85.861339 
L 108.898649 85.861339 
L 108.898649 84.911966 
L 107.081031 84.911966 
L 107.081031 84.386358 
z
"/>
   </g>
   <g id="patch_10">
    <path clip-path="url(#pae6433f85c)" d="M 118.331966 94.014728 
Q 118.722935 94.098446 118.942154 94.363407 
Q 119.162236 94.627505 119.162236 95.015885 
Q 119.162236 95.611401 118.752279 95.938503 
Q 118.342322 96.264743 117.587139 96.264743 
Q 117.334261 96.264743 117.065847 96.214685 
Q 116.797433 96.164627 116.511758 96.064511 
L 116.511758 95.538904 
Q 116.737882 95.670953 117.007159 95.738272 
Q 117.277298 95.805591 117.571604 95.805591 
Q 118.083403 95.805591 118.351816 95.603634 
Q 118.62023 95.401676 118.62023 95.015885 
Q 118.62023 94.659439 118.370804 94.459207 
Q 118.121377 94.258113 117.676898 94.258113 
L 117.20739 94.258113 
L 117.20739 93.810181 
L 117.698475 93.810181 
Q 118.099801 93.810181 118.312978 93.649651 
Q 118.526156 93.489121 118.526156 93.187047 
Q 118.526156 92.877207 118.306074 92.711498 
Q 118.086855 92.544926 117.676898 92.544926 
Q 117.452501 92.544926 117.19617 92.594121 
Q 116.939839 92.642452 116.632588 92.744294 
L 116.632588 92.259251 
Q 116.943292 92.172944 117.214295 92.129791 
Q 117.485297 92.086638 117.72523 92.086638 
Q 118.345775 92.086638 118.706537 92.36886 
Q 119.068161 92.65022 119.068161 93.130085 
Q 119.068161 93.464955 118.876561 93.695394 
Q 118.68496 93.925832 118.331966 94.014728 
z
M 120.252181 95.500929 
L 120.820942 95.500929 
L 120.820942 95.965258 
L 120.379051 96.828325 
L 120.031236 96.828325 
L 120.252181 95.965258 
z
M 123.184341 93.95604 
Q 122.817538 93.95604 122.602634 94.207192 
Q 122.388594 94.457481 122.388594 94.894193 
Q 122.388594 95.328315 122.602634 95.581194 
Q 122.817538 95.833209 123.184341 95.833209 
Q 123.551145 95.833209 123.765185 95.581194 
Q 123.979226 95.328315 123.979226 94.894193 
Q 123.979226 94.457481 123.765185 94.207192 
Q 123.551145 93.95604 123.184341 93.95604 
z
M 124.265764 92.248031 
L 124.265764 92.744294 
Q 124.060354 92.647631 123.851492 92.59671 
Q 123.64263 92.544926 123.43722 92.544926 
Q 122.897803 92.544926 122.612991 92.90914 
Q 122.329042 93.273354 122.288478 94.00955 
Q 122.447282 93.774796 122.687215 93.649651 
Q 122.928011 93.524506 123.216275 93.524506 
Q 123.82301 93.524506 124.175142 93.893036 
Q 124.527273 94.260702 124.527273 94.894193 
Q 124.527273 95.514738 124.160469 95.890172 
Q 123.793666 96.264743 123.184341 96.264743 
Q 122.485257 96.264743 122.115865 95.729641 
Q 121.746472 95.193677 121.746472 94.176985 
Q 121.746472 93.222433 122.199582 92.654535 
Q 122.652692 92.086638 123.415643 92.086638 
Q 123.621053 92.086638 123.829915 92.127202 
Q 124.038777 92.167766 124.265764 92.248031 
z
"/>
   </g>
   <g id="patch_11">
    <path clip-path="url(#pae6433f85c)" d="M 34.915726 85.674917 
L 34.915726 87.010081 
L 34.416873 87.010081 
L 34.416873 82.859594 
Q 34.416873 81.629724 35.565615 81.629724 
Q 36.736796 81.629724 36.736796 82.667993 
Q 36.736796 83.406778 36.272466 83.676918 
Q 37.027649 83.919439 37.027649 84.639237 
Q 37.027649 85.918301 35.727871 85.918301 
Q 35.155658 85.918301 34.915726 85.674917 
z
M 34.915726 85.027617 
Q 35.21521 85.494536 35.746859 85.494536 
Q 36.523619 85.494536 36.523619 84.647868 
Q 36.523619 83.886643 35.272172 83.946194 
L 35.272172 83.487906 
Q 36.25089 83.487906 36.25089 82.62484 
Q 36.25089 82.034502 35.619988 82.034502 
Q 34.915726 82.034502 34.915726 82.875992 
z
"/>
   </g>
   <g id="patch_12">
    <path clip-path="url(#pae6433f85c)" d="M 42.768768 83.689864 
Q 43.159737 83.773581 43.378956 84.038543 
Q 43.599038 84.302641 43.599038 84.691021 
Q 43.599038 85.286537 43.189081 85.613639 
Q 42.779125 85.939878 42.023941 85.939878 
Q 41.771063 85.939878 41.502649 85.88982 
Q 41.234236 85.839762 40.948561 85.739647 
L 40.948561 85.214039 
Q 41.174684 85.346088 41.443961 85.413408 
Q 41.714101 85.480727 42.008406 85.480727 
Q 42.520205 85.480727 42.788618 85.278769 
Q 43.057032 85.076812 43.057032 84.691021 
Q 43.057032 84.334574 42.807606 84.134343 
Q 42.55818 83.933248 42.1137 83.933248 
L 41.644192 83.933248 
L 41.644192 83.485317 
L 42.135277 83.485317 
Q 42.536603 83.485317 42.74978 83.324787 
Q 42.962958 83.164256 42.962958 82.862183 
Q 42.962958 82.552342 42.742876 82.386633 
Q 42.523657 82.220061 42.1137 82.220061 
Q 41.889303 82.220061 41.632972 82.269256 
Q 41.376642 82.317588 41.06939 82.41943 
L 41.06939 81.934386 
Q 41.380094 81.84808 41.651097 81.804926 
Q 41.9221 81.761773 42.162032 81.761773 
Q 42.782577 81.761773 43.143339 82.043996 
Q 43.504964 82.325356 43.504964 82.805221 
Q 43.504964 83.14009 43.313363 83.370529 
Q 43.121762 83.600968 42.768768 83.689864 
z
"/>
   </g>
   <g id="patch_13">
    <path clip-path="url(#pae6433f85c)" d="M 120.288537 81.884329 
L 120.288537 90.72213 
L 111.450736 90.72213 
L 111.450736 81.884329 
L 120.288537 81.884329 
z
" style="fill:#0090bc;stroke:#000000;stroke-linejoin:miter;stroke-width:0.558;"/>
   </g>
   <g id="patch_14">
    <path clip-path="url(#pae6433f85c)" d="M 93.775135 90.72213 
C 94.947041 90.72213 96.071106 90.256526 96.899769 89.427864 
C 97.728432 88.599201 98.194035 87.475135 98.194035 86.303229 
C 98.194035 85.131323 97.728432 84.007257 96.899769 83.178595 
C 96.071106 82.349932 94.947041 81.884329 93.775135 81.884329 
C 92.603229 81.884329 91.479163 82.349932 90.6505 83.178595 
C 89.821837 84.007257 89.356234 85.131323 89.356234 86.303229 
C 89.356234 87.475135 89.821837 88.599201 90.6505 89.427864 
C 91.479163 90.256526 92.603229 90.72213 93.775135 90.72213 
z
" style="fill:#ffd400;stroke:#000000;stroke-linejoin:miter;stroke-width:0.558;"/>
   </g>
   <g id="patch_15">
    <path clip-path="url(#pae6433f85c)" d="M 119.183812 96.245755 
L 112.555462 102.874106 
z
" style="fill:#ffffff;stroke:#000000;stroke-linejoin:miter;stroke-width:0.558;"/>
   </g>
   <g id="patch_16">
    <path clip-path="url(#pae6433f85c)" d="M 112.555462 96.245755 
L 119.183812 102.874106 
z
" style="fill:#ffffff;stroke:#000000;stroke-linejoin:miter;stroke-width:0.558;"/>
   </g>
   <g id="patch_17">
    <path clip-path="url(#pae6433f85c)" d="M 76.099533 81.884329 
L 76.099533 90.72213 
L 67.261732 90.72213 
L 67.261732 81.884329 
L 76.099533 81.884329 
z
" style="fill:#0090bc;stroke:#000000;stroke-linejoin:miter;stroke-width:0.558;"/>
   </g>
   <g id="patch_18">
    <path clip-path="url(#pae6433f85c)" d="M 97.08931 96.245755 
L 90.460959 102.874106 
z
" style="fill:#ffffff;stroke:#000000;stroke-linejoin:miter;stroke-width:0.558;"/>
   </g>
   <g id="patch_19">
    <path clip-path="url(#pae6433f85c)" d="M 90.460959 96.245755 
L 97.08931 102.874106 
z
" style="fill:#ffffff;stroke:#000000;stroke-linejoin:miter;stroke-width:0.558;"/>
   </g>
   <g id="patch_20">
    <path clip-path="url(#pae6433f85c)" d="M 49.58613 90.72213 
C 50.758036 90.72213 51.882102 90.256526 52.710765 89.427864 
C 53.539427 88.599201 54.00503 87.475135 54.00503 86.303229 
C 54.00503 85.131323 53.539427 84.007257 52.710765 83.178595 
C 51.882102 82.349932 50.758036 81.884329 49.58613 81.884329 
C 48.414224 81.884329 47.290158 82.349932 46.461496 83.178595 
C 45.632833 84.007257 45.16723 85.131323 45.16723 86.303229 
C 45.16723 87.475135 45.632833 88.599201 46.461496 89.427864 
C 47.290158 90.256526 48.414224 90.72213 49.58613 90.72213 
z
" style="fill:#ffd400;stroke:#000000;stroke-linejoin:miter;stroke-width:0.558;"/>
   </g>
   <g id="patch_21">
    <path clip-path="url(#pae6433f85c)" d="M 74.994808 96.245755 
L 68.366457 102.874106 
z
" style="fill:#ffffff;stroke:#000000;stroke-linejoin:miter;stroke-width:0.558;"/>
   </g>
   <g id="patch_22">
    <path clip-path="url(#pae6433f85c)" d="M 68.366457 96.245755 
L 74.994808 102.874106 
z
" style="fill:#ffffff;stroke:#000000;stroke-linejoin:miter;stroke-width:0.558;"/>
   </g>
   <g id="patch_23">
    <path clip-path="url(#pae6433f85c)" d="M 31.910528 81.884329 
L 31.910528 90.72213 
L 23.072727 90.72213 
L 23.072727 81.884329 
L 31.910528 81.884329 
z
" style="fill:#0090bc;stroke:#000000;stroke-linejoin:miter;stroke-width:0.558;"/>
   </g>
  </g>
  <g id="axes_2">
   <g id="line2d_8">
    <path clip-path="url(#pec706a39b6)" d="M 64.27339 135.593819 
L 64.27339 162.156783 
" style="fill:none;stroke:#000000;stroke-linecap:square;stroke-width:1.674;"/>
   </g>
   <g id="patch_24">
    <path clip-path="url(#pec706a39b6)" d="M 69.207253 151.045647 
Q 69.990653 151.213395 70.42991 151.744309 
Q 70.870897 152.273493 70.870897 153.051704 
Q 70.870897 154.244963 70.049451 154.90039 
Q 69.228005 155.554088 67.714816 155.554088 
Q 67.208113 155.554088 66.670282 155.453785 
Q 66.132452 155.353482 65.560034 155.152876 
L 65.560034 154.099696 
Q 66.013126 154.364288 66.552686 154.499178 
Q 67.093976 154.634069 67.683687 154.634069 
Q 68.709197 154.634069 69.247028 154.229398 
Q 69.784859 153.824728 69.784859 153.051704 
Q 69.784859 152.337479 69.285074 151.936267 
Q 68.785289 151.533327 67.894669 151.533327 
L 66.953897 151.533327 
L 66.953897 150.635789 
L 67.937903 150.635789 
Q 68.742055 150.635789 69.169207 150.314128 
Q 69.596359 149.992467 69.596359 149.387191 
Q 69.596359 148.766351 69.155372 148.434314 
Q 68.716115 148.100548 67.894669 148.100548 
Q 67.445036 148.100548 66.931416 148.199121 
Q 66.417796 148.295965 65.802144 148.50003 
L 65.802144 147.52813 
Q 66.424713 147.355194 66.967732 147.268726 
Q 67.510751 147.182258 67.991513 147.182258 
Q 69.234923 147.182258 69.957795 147.747758 
Q 70.682397 148.31153 70.682397 149.273054 
Q 70.682397 149.944045 70.298479 150.405784 
Q 69.914561 150.867523 69.207253 151.045647 
z
M 73.054862 154.023605 
L 74.19451 154.023605 
L 74.19451 154.954 
L 73.309078 156.68336 
L 72.612146 156.68336 
L 73.054862 154.954 
z
M 79.45933 148.278672 
L 76.70273 152.586507 
L 79.45933 152.586507 
z
M 79.172256 147.327524 
L 80.545367 147.327524 
L 80.545367 152.586507 
L 81.697121 152.586507 
L 81.697121 153.49442 
L 80.545367 153.49442 
L 80.545367 155.396716 
L 79.45933 155.396716 
L 79.45933 153.49442 
L 75.817298 153.49442 
L 75.817298 152.44124 
z
M 83.614765 154.023605 
L 84.754413 154.023605 
L 84.754413 154.954 
L 83.86898 156.68336 
L 83.172049 156.68336 
L 83.614765 154.954 
z
M 89.490048 150.928051 
Q 88.75507 150.928051 88.324459 151.431294 
Q 87.895578 151.932809 87.895578 152.807865 
Q 87.895578 153.677733 88.324459 154.184435 
Q 88.75507 154.689408 89.490048 154.689408 
Q 90.225026 154.689408 90.653907 154.184435 
Q 91.082788 153.677733 91.082788 152.807865 
Q 91.082788 151.932809 90.653907 151.431294 
Q 90.225026 150.928051 89.490048 150.928051 
z
M 91.656936 147.505648 
L 91.656936 148.50003 
Q 91.245348 148.306341 90.826843 148.204309 
Q 90.408338 148.100548 89.99675 148.100548 
Q 88.915901 148.100548 88.345212 148.830337 
Q 87.776252 149.560127 87.694973 151.035271 
Q 88.013175 150.564885 88.493937 150.314128 
Q 88.976428 150.063371 89.554034 150.063371 
Q 90.769774 150.063371 91.475353 150.801807 
Q 92.180932 151.538515 92.180932 152.807865 
Q 92.180932 154.051274 91.445954 154.803546 
Q 90.710976 155.554088 89.490048 155.554088 
Q 88.089267 155.554088 87.349101 154.481885 
Q 86.608935 153.407953 86.608935 151.370767 
Q 86.608935 149.458095 87.516849 148.320176 
Q 88.424762 147.182258 89.953516 147.182258 
Q 90.365104 147.182258 90.783609 147.263538 
Q 91.202114 147.344818 91.656936 147.505648 
z
"/>
   </g>
   <g id="patch_25">
    <path clip-path="url(#pec706a39b6)" d="M 73.127711 126.739497 
L 73.127711 144.44814 
L 55.419068 144.44814 
L 55.419068 126.739497 
L 73.127711 126.739497 
z
" style="fill:#0090bc;stroke:#000000;stroke-linejoin:miter;stroke-width:1.674;"/>
   </g>
   <g id="patch_26">
    <path clip-path="url(#pec706a39b6)" d="M 70.914131 155.516042 
L 57.632649 168.797524 
z
" style="fill:#ffffff;stroke:#000000;stroke-linejoin:miter;stroke-width:1.674;"/>
   </g>
   <g id="patch_27">
    <path clip-path="url(#pec706a39b6)" d="M 57.632649 155.516042 
L 70.914131 168.797524 
z
" style="fill:#ffffff;stroke:#000000;stroke-linejoin:miter;stroke-width:1.674;"/>
   </g>
  </g>
  <g id="axes_3">
   <g id="line2d_9">
    <path clip-path="url(#p254a0a9da9)" d="M 69.553341 191.110414 
L 69.553341 217.673379 
" style="fill:none;stroke:#000000;stroke-linecap:square;stroke-width:1.674;"/>
   </g>
   <g id="patch_28">
    <path clip-path="url(#p254a0a9da9)" d="M 74.487204 206.562243 
Q 75.270604 206.729991 75.709862 207.260904 
Q 76.150848 207.790088 76.150848 208.5683 
Q 76.150848 209.761558 75.329402 210.416986 
Q 74.507957 211.070684 72.994767 211.070684 
Q 72.488065 211.070684 71.950234 210.970381 
Q 71.412403 210.870078 70.839985 210.669472 
L 70.839985 209.616292 
Q 71.293077 209.880884 71.832637 210.015774 
Q 72.373927 210.150664 72.963638 210.150664 
Q 73.989149 210.150664 74.52698 209.745994 
Q 75.06481 209.341324 75.06481 208.5683 
Q 75.06481 207.854075 74.565025 207.452863 
Q 74.065241 207.049922 73.17462 207.049922 
L 72.233849 207.049922 
L 72.233849 206.152385 
L 73.217854 206.152385 
Q 74.022007 206.152385 74.449158 205.830724 
Q 74.87631 205.509063 74.87631 204.903787 
Q 74.87631 204.282947 74.435324 203.95091 
Q 73.996066 203.617143 73.17462 203.617143 
Q 72.724987 203.617143 72.211367 203.715717 
Q 71.697747 203.812561 71.082095 204.016626 
L 71.082095 203.044725 
Q 71.704665 202.871789 72.247684 202.785321 
Q 72.790702 202.698853 73.271464 202.698853 
Q 74.514874 202.698853 75.237746 203.264354 
Q 75.962348 203.828125 75.962348 204.789649 
Q 75.962348 205.460641 75.57843 205.92238 
Q 75.194512 206.384119 74.487204 206.562243 
z
M 78.334813 209.5402 
L 79.474461 209.5402 
L 79.474461 210.470596 
L 78.589029 212.199955 
L 77.892097 212.199955 
L 78.334813 210.470596 
z
M 84.210097 206.444646 
Q 83.475119 206.444646 83.044508 206.94789 
Q 82.615627 207.449404 82.615627 208.32446 
Q 82.615627 209.194328 83.044508 209.701031 
Q 83.475119 210.206004 84.210097 210.206004 
Q 84.945075 210.206004 85.373956 209.701031 
Q 85.802837 209.194328 85.802837 208.32446 
Q 85.802837 207.449404 85.373956 206.94789 
Q 84.945075 206.444646 84.210097 206.444646 
z
M 86.376984 203.022244 
L 86.376984 204.016626 
Q 85.965397 203.822937 85.546892 203.720905 
Q 85.128387 203.617143 84.716799 203.617143 
Q 83.635949 203.617143 83.065261 204.346933 
Q 82.496301 205.076723 82.415021 206.551867 
Q 82.733224 206.081481 83.213986 205.830724 
Q 83.696477 205.579967 84.274083 205.579967 
Q 85.489823 205.579967 86.195402 206.318403 
Q 86.90098 207.05511 86.90098 208.32446 
Q 86.90098 209.56787 86.166002 210.320142 
Q 85.431025 211.070684 84.210097 211.070684 
Q 82.809315 211.070684 82.069149 209.998481 
Q 81.328983 208.924548 81.328983 206.887363 
Q 81.328983 204.974691 82.236897 203.836772 
Q 83.144811 202.698853 84.673565 202.698853 
Q 85.085153 202.698853 85.503658 202.780133 
Q 85.922163 202.861413 86.376984 203.022244 
z
"/>
   </g>
   <g id="patch_29">
    <path clip-path="url(#p254a0a9da9)" d="M 78.407663 182.256093 
L 78.407663 199.964736 
L 60.69902 199.964736 
L 60.69902 182.256093 
L 78.407663 182.256093 
z
" style="fill:#0090bc;stroke:#000000;stroke-linejoin:miter;stroke-width:1.674;"/>
   </g>
   <g id="patch_30">
    <path clip-path="url(#p254a0a9da9)" d="M 76.194082 211.032638 
L 62.9126 224.31412 
z
" style="fill:#ffffff;stroke:#000000;stroke-linejoin:miter;stroke-width:1.674;"/>
   </g>
   <g id="patch_31">
    <path clip-path="url(#p254a0a9da9)" d="M 62.9126 211.032638 
L 76.194082 224.31412 
z
" style="fill:#ffffff;stroke:#000000;stroke-linejoin:miter;stroke-width:1.674;"/>
   </g>
  </g>
  <g id="axes_4">
   <g id="line2d_10">
    <path clip-path="url(#p7e3f75ea69)" d="M 101.981818 258.909953 
L 83.193939 258.909953 
" style="fill:none;stroke:#000000;stroke-linecap:square;stroke-width:0.478286;"/>
   </g>
   <g id="line2d_11">
    <path clip-path="url(#p7e3f75ea69)" d="M 101.981818 258.909953 
L 101.981818 270.18268 
" style="fill:none;stroke:#000000;stroke-linecap:square;stroke-width:0.478286;"/>
   </g>
   <g id="line2d_12">
    <path clip-path="url(#p7e3f75ea69)" d="M 120.769697 258.909953 
L 101.981818 258.909953 
" style="fill:none;stroke:#000000;stroke-linecap:square;stroke-width:0.478286;"/>
   </g>
   <g id="line2d_13">
    <path clip-path="url(#p7e3f75ea69)" d="M 83.193939 258.909953 
L 64.406061 272.061468 
" style="fill:none;stroke:#000000;stroke-linecap:square;stroke-width:0.478286;"/>
   </g>
   <g id="line2d_14">
    <path clip-path="url(#p7e3f75ea69)" d="M 83.193939 258.909953 
L 64.406061 245.758437 
" style="fill:none;stroke:#000000;stroke-linecap:square;stroke-width:0.478286;"/>
   </g>
   <g id="line2d_15">
    <path clip-path="url(#p7e3f75ea69)" d="M 64.406061 245.758437 
L 45.618182 245.758437 
" style="fill:none;stroke:#000000;stroke-linecap:square;stroke-width:0.478286;"/>
   </g>
   <g id="line2d_16">
    <path clip-path="url(#p7e3f75ea69)" d="M 45.618182 245.758437 
L 26.830303 245.758437 
" style="fill:none;stroke:#000000;stroke-linecap:square;stroke-width:0.478286;"/>
   </g>
   <g id="line2d_17">
    <path clip-path="url(#p7e3f75ea69)" d="M 45.618182 245.758437 
L 45.618182 257.031165 
" style="fill:none;stroke:#000000;stroke-linecap:square;stroke-width:0.478286;"/>
   </g>
   <g id="line2d_18">
    <path clip-path="url(#p7e3f75ea69)" d="M 26.830303 245.758437 
L 26.830303 257.031165 
" style="fill:none;stroke:#000000;stroke-linecap:square;stroke-width:0.478286;"/>
   </g>
   <g id="patch_32">
    <path clip-path="url(#p7e3f75ea69)" d="M 89.50696 258.375672 
L 89.50696 259.511018 
L 89.082765 259.511018 
L 89.082765 255.981686 
Q 89.082765 254.935876 90.059588 254.935876 
Q 91.055492 254.935876 91.055492 255.818759 
Q 91.055492 256.446979 90.660653 256.67669 
Q 91.302817 256.882917 91.302817 257.49499 
Q 91.302817 258.582633 90.197562 258.582633 
Q 89.710985 258.582633 89.50696 258.375672 
z
M 89.50696 257.825246 
Q 89.761624 258.222287 90.213707 258.222287 
Q 90.874219 258.222287 90.874219 257.502329 
Q 90.874219 256.855028 89.810062 256.905668 
L 89.810062 256.515966 
Q 90.642306 256.515966 90.642306 255.782064 
Q 90.642306 255.280076 90.105824 255.280076 
Q 89.50696 255.280076 89.50696 255.99563 
z
"/>
   </g>
   <g id="patch_33">
    <path clip-path="url(#p7e3f75ea69)" d="M 96.054096 255.513456 
L 94.884257 257.341605 
L 96.054096 257.341605 
z
M 95.932268 255.109811 
L 96.514986 255.109811 
L 96.514986 257.341605 
L 97.003764 257.341605 
L 97.003764 257.726903 
L 96.514986 257.726903 
L 96.514986 258.534195 
L 96.054096 258.534195 
L 96.054096 257.726903 
L 94.508499 257.726903 
L 94.508499 257.279957 
z
"/>
   </g>
   <g id="patch_34">
    <path clip-path="url(#p7e3f75ea69)" d="M 104.075639 265.467363 
Q 104.408097 265.538551 104.594508 265.763859 
Q 104.781652 265.988433 104.781652 266.318688 
Q 104.781652 266.82508 104.433049 267.103229 
Q 104.084446 267.380644 103.442282 267.380644 
Q 103.227249 267.380644 102.999006 267.338078 
Q 102.770762 267.295511 102.527841 267.210379 
L 102.527841 266.763433 
Q 102.720123 266.87572 102.9491 266.932964 
Q 103.178812 266.990208 103.429072 266.990208 
Q 103.864276 266.990208 104.092519 266.818475 
Q 104.320762 266.646742 104.320762 266.318688 
Q 104.320762 266.015587 104.108665 265.845322 
Q 103.896567 265.674323 103.518608 265.674323 
L 103.119366 265.674323 
L 103.119366 265.293428 
L 103.536955 265.293428 
Q 103.87822 265.293428 104.059493 265.156922 
Q 104.240767 265.020417 104.240767 264.763551 
Q 104.240767 264.50008 104.053622 264.359171 
Q 103.867211 264.217528 103.518608 264.217528 
Q 103.327794 264.217528 103.109825 264.259361 
Q 102.891856 264.300459 102.630587 264.38706 
L 102.630587 263.974607 
Q 102.894792 263.901217 103.125237 263.864522 
Q 103.355682 263.827827 103.559706 263.827827 
Q 104.087382 263.827827 104.394152 264.067812 
Q 104.701657 264.307064 104.701657 264.715114 
Q 104.701657 264.999867 104.538731 265.195819 
Q 104.375805 265.391771 104.075639 265.467363 
z
M 105.708478 266.731141 
L 106.192119 266.731141 
L 106.192119 267.12598 
L 105.816362 267.859882 
L 105.5206 267.859882 
L 105.708478 267.12598 
z
M 108.201817 265.417457 
Q 107.889909 265.417457 107.707167 265.631023 
Q 107.52516 265.843854 107.52516 266.215208 
Q 107.52516 266.584361 107.707167 266.799394 
Q 107.889909 267.013693 108.201817 267.013693 
Q 108.513725 267.013693 108.695733 266.799394 
Q 108.87774 266.584361 108.87774 266.215208 
Q 108.87774 265.843854 108.695733 265.631023 
Q 108.513725 265.417457 108.201817 265.417457 
z
M 109.121396 263.965066 
L 109.121396 264.38706 
Q 108.946727 264.304863 108.769123 264.261562 
Q 108.591519 264.217528 108.41685 264.217528 
Q 107.958162 264.217528 107.715974 264.527235 
Q 107.474521 264.836941 107.440027 265.462959 
Q 107.575065 265.263338 107.77909 265.156922 
Q 107.983848 265.050507 108.228971 265.050507 
Q 108.744904 265.050507 109.044336 265.363883 
Q 109.343768 265.676525 109.343768 266.215208 
Q 109.343768 266.742883 109.03186 267.062131 
Q 108.719951 267.380644 108.201817 267.380644 
Q 107.607357 267.380644 107.293247 266.925625 
Q 106.979137 266.469872 106.979137 265.605336 
Q 106.979137 264.793641 107.364435 264.310734 
Q 107.749734 263.827827 108.398503 263.827827 
Q 108.573171 263.827827 108.750775 263.86232 
Q 108.928379 263.896813 109.121396 263.965066 
z
"/>
   </g>
   <g id="patch_35">
    <path clip-path="url(#p7e3f75ea69)" d="M 108.294839 258.375672 
L 108.294839 259.511018 
L 107.870644 259.511018 
L 107.870644 255.981686 
Q 107.870644 254.935876 108.847467 254.935876 
Q 109.843371 254.935876 109.843371 255.818759 
Q 109.843371 256.446979 109.448532 256.67669 
Q 110.090696 256.882917 110.090696 257.49499 
Q 110.090696 258.582633 108.98544 258.582633 
Q 108.498864 258.582633 108.294839 258.375672 
z
M 108.294839 257.825246 
Q 108.549503 258.222287 109.001586 258.222287 
Q 109.662098 258.222287 109.662098 257.502329 
Q 109.662098 256.855028 108.59794 256.905668 
L 108.59794 256.515966 
Q 109.430185 256.515966 109.430185 255.782064 
Q 109.430185 255.280076 108.893703 255.280076 
Q 108.294839 255.280076 108.294839 255.99563 
z
"/>
   </g>
   <g id="patch_36">
    <path clip-path="url(#p7e3f75ea69)" d="M 114.841974 255.513456 
L 113.672135 257.341605 
L 114.841974 257.341605 
z
M 114.720147 255.109811 
L 115.302865 255.109811 
L 115.302865 257.341605 
L 115.791643 257.341605 
L 115.791643 257.726903 
L 115.302865 257.726903 
L 115.302865 258.534195 
L 114.841974 258.534195 
L 114.841974 257.726903 
L 113.296378 257.726903 
L 113.296378 257.279957 
z
"/>
   </g>
   <g id="patch_37">
    <path clip-path="url(#p7e3f75ea69)" d="M 69.111103 266.545464 
L 69.009825 266.015587 
Q 68.907079 265.471766 68.498295 265.471766 
Q 68.191525 265.471766 68.051349 265.724228 
Q 67.874479 266.04054 67.874479 266.45813 
Q 67.874479 266.963054 68.046946 267.203774 
Q 68.220881 267.448897 68.498295 267.448897 
Q 68.8058 267.448897 68.970928 266.960118 
z
M 69.34742 265.843854 
L 69.574195 265.1716 
L 69.950687 265.1716 
L 69.480256 266.563812 
L 69.571993 267.0658 
Q 69.592543 267.178087 69.672538 267.272026 
Q 69.767211 267.382112 69.840601 267.382112 
L 70.042424 267.382112 
L 70.042424 267.740256 
L 69.789962 267.740256 
Q 69.574195 267.740256 69.381913 267.54724 
Q 69.28724 267.451098 69.248343 267.249276 
Q 69.143395 267.503939 68.927628 267.703561 
Q 68.826349 267.7975 68.498295 267.7975 
Q 67.959612 267.7975 67.698343 267.448897 
Q 67.429735 267.088551 67.429735 266.45813 
Q 67.429735 265.783674 67.721094 265.467363 
Q 68.044744 265.114356 68.498295 265.114356 
Q 69.211648 265.114356 69.34742 265.843854 
z
"/>
   </g>
   <g id="patch_38">
    <path clip-path="url(#p7e3f75ea69)" d="M 74.536837 261.8984 
Q 74.224929 261.8984 74.042188 262.111965 
Q 73.86018 262.324796 73.86018 262.696151 
Q 73.86018 263.065303 74.042188 263.280336 
Q 74.224929 263.494635 74.536837 263.494635 
Q 74.848745 263.494635 75.030753 263.280336 
Q 75.21276 263.065303 75.21276 262.696151 
Q 75.21276 262.324796 75.030753 262.111965 
Q 74.848745 261.8984 74.536837 261.8984 
z
M 75.456416 260.446008 
L 75.456416 260.868002 
Q 75.281747 260.785805 75.104143 260.742505 
Q 74.926539 260.698471 74.75187 260.698471 
Q 74.293182 260.698471 74.050994 261.008177 
Q 73.809541 261.317883 73.775047 261.943901 
Q 73.910085 261.74428 74.11411 261.637865 
Q 74.318868 261.531449 74.563991 261.531449 
Q 75.079924 261.531449 75.379356 261.844825 
Q 75.678788 262.157467 75.678788 262.696151 
Q 75.678788 263.223826 75.36688 263.543073 
Q 75.054972 263.861586 74.536837 263.861586 
Q 73.942377 263.861586 73.628267 263.406567 
Q 73.314157 262.950814 73.314157 262.086278 
Q 73.314157 261.274583 73.699455 260.791676 
Q 74.084754 260.308769 74.733523 260.308769 
Q 74.908191 260.308769 75.085795 260.343262 
Q 75.2634 260.377756 75.456416 260.446008 
z
"/>
   </g>
   <g id="patch_39">
    <path clip-path="url(#p7e3f75ea69)" d="M 71.794981 248.133343 
L 71.693703 247.603466 
Q 71.590956 247.059645 71.182173 247.059645 
Q 70.875402 247.059645 70.735227 247.312107 
Q 70.558357 247.628419 70.558357 248.046008 
Q 70.558357 248.550933 70.730824 248.791652 
Q 70.904759 249.036776 71.182173 249.036776 
Q 71.489678 249.036776 71.654806 248.547997 
z
M 72.031297 247.431733 
L 72.258073 246.759479 
L 72.634564 246.759479 
L 72.164134 248.15169 
L 72.255871 248.653679 
Q 72.27642 248.765966 72.356416 248.859905 
Q 72.451089 248.96999 72.524479 248.96999 
L 72.726302 248.96999 
L 72.726302 249.328134 
L 72.47384 249.328134 
Q 72.258073 249.328134 72.065791 249.135118 
Q 71.971117 249.038977 71.932221 248.837154 
Q 71.827273 249.091818 71.611506 249.291439 
Q 71.510227 249.385379 71.182173 249.385379 
Q 70.64349 249.385379 70.382221 249.036776 
Q 70.113613 248.67643 70.113613 248.046008 
Q 70.113613 247.371553 70.404972 247.055241 
Q 70.728622 246.702235 71.182173 246.702235 
Q 71.895526 246.702235 72.031297 247.431733 
z
"/>
   </g>
   <g id="patch_40">
    <path clip-path="url(#p7e3f75ea69)" d="M 77.396851 251.427093 
Q 77.729309 251.498281 77.91572 251.723589 
Q 78.102865 251.948163 78.102865 252.278419 
Q 78.102865 252.784811 77.754261 253.062959 
Q 77.405658 253.340374 76.763494 253.340374 
Q 76.548461 253.340374 76.320218 253.297808 
Q 76.091974 253.255241 75.849053 253.170109 
L 75.849053 252.723163 
Q 76.041335 252.83545 76.270313 252.892694 
Q 76.500024 252.949938 76.750284 252.949938 
Q 77.185488 252.949938 77.413731 252.778205 
Q 77.641974 252.606472 77.641974 252.278419 
Q 77.641974 251.975317 77.429877 251.805052 
Q 77.217779 251.634053 76.83982 251.634053 
L 76.440578 251.634053 
L 76.440578 251.253158 
L 76.858168 251.253158 
Q 77.199432 251.253158 77.380705 251.116652 
Q 77.561979 250.980147 77.561979 250.723281 
Q 77.561979 250.459811 77.374834 250.318901 
Q 77.188423 250.177258 76.83982 250.177258 
Q 76.649006 250.177258 76.431037 250.219091 
Q 76.213068 250.260189 75.951799 250.34679 
L 75.951799 249.934337 
Q 76.216004 249.860947 76.446449 249.824252 
Q 76.676894 249.787557 76.880919 249.787557 
Q 77.408594 249.787557 77.715365 250.027543 
Q 78.022869 250.266794 78.022869 250.674844 
Q 78.022869 250.959597 77.859943 251.155549 
Q 77.697017 251.351501 77.396851 251.427093 
z
"/>
   </g>
   <g id="patch_41">
    <path clip-path="url(#p7e3f75ea69)" d="M 51.931203 245.224157 
L 51.931203 246.359503 
L 51.507008 246.359503 
L 51.507008 242.83017 
Q 51.507008 241.784361 52.48383 241.784361 
Q 53.479735 241.784361 53.479735 242.667244 
Q 53.479735 243.295464 53.084896 243.525175 
Q 53.72706 243.731401 53.72706 244.343475 
Q 53.72706 245.431117 52.621804 245.431117 
Q 52.135227 245.431117 51.931203 245.224157 
z
M 51.931203 244.673731 
Q 52.185866 245.070772 52.63795 245.070772 
Q 53.298461 245.070772 53.298461 244.350814 
Q 53.298461 243.703513 52.234304 243.754152 
L 52.234304 243.364451 
Q 53.066548 243.364451 53.066548 242.630549 
Q 53.066548 242.128561 52.530066 242.128561 
Q 51.931203 242.128561 51.931203 242.844115 
z
"/>
   </g>
   <g id="patch_42">
    <path clip-path="url(#p7e3f75ea69)" d="M 57.604261 244.992978 
L 59.221046 244.992978 
L 59.221046 245.38268 
L 57.04723 245.38268 
L 57.04723 244.992978 
Q 57.310701 244.719967 57.76572 244.260544 
Q 58.221473 243.800388 58.338163 243.666818 
Q 58.560535 243.417292 58.648603 243.244091 
Q 58.737405 243.07089 58.737405 242.903561 
Q 58.737405 242.630549 58.545857 242.458816 
Q 58.354309 242.286349 58.046804 242.286349 
Q 57.828835 242.286349 57.586648 242.361941 
Q 57.345194 242.437533 57.069981 242.591652 
L 57.069981 242.123423 
Q 57.349598 242.011136 57.592519 241.953892 
Q 57.836174 241.896648 58.037997 241.896648 
Q 58.570076 241.896648 58.886387 242.163054 
Q 59.202699 242.428726 59.202699 242.873471 
Q 59.202699 243.084834 59.123438 243.274181 
Q 59.04491 243.462794 58.835748 243.719659 
Q 58.778504 243.786444 58.470999 244.104223 
Q 58.164228 244.422003 57.604261 244.992978 
z
"/>
   </g>
   <g id="patch_43">
    <path clip-path="url(#p7e3f75ea69)" d="M 33.143324 245.224157 
L 33.143324 246.359503 
L 32.719129 246.359503 
L 32.719129 242.83017 
Q 32.719129 241.784361 33.695952 241.784361 
Q 34.691856 241.784361 34.691856 242.667244 
Q 34.691856 243.295464 34.297017 243.525175 
Q 34.939181 243.731401 34.939181 244.343475 
Q 34.939181 245.431117 33.833925 245.431117 
Q 33.347348 245.431117 33.143324 245.224157 
z
M 33.143324 244.673731 
Q 33.397988 245.070772 33.850071 245.070772 
Q 34.510582 245.070772 34.510582 244.350814 
Q 34.510582 243.703513 33.446425 243.754152 
L 33.446425 243.364451 
Q 34.27867 243.364451 34.27867 242.630549 
Q 34.27867 242.128561 33.742188 242.128561 
Q 33.143324 242.128561 33.143324 242.844115 
z
"/>
   </g>
   <g id="patch_44">
    <path clip-path="url(#p7e3f75ea69)" d="M 39.690459 242.361941 
L 38.52062 244.19009 
L 39.690459 244.19009 
z
M 39.568632 241.958295 
L 40.151349 241.958295 
L 40.151349 244.19009 
L 40.640128 244.19009 
L 40.640128 244.575388 
L 40.151349 244.575388 
L 40.151349 245.38268 
L 39.690459 245.38268 
L 39.690459 244.575388 
L 38.144863 244.575388 
L 38.144863 244.128442 
z
"/>
   </g>
   <g id="patch_45">
    <path clip-path="url(#p7e3f75ea69)" d="M 47.712003 252.315847 
Q 48.04446 252.387036 48.230871 252.612344 
Q 48.418016 252.836918 48.418016 253.167173 
Q 48.418016 253.673565 48.069413 253.951714 
Q 47.72081 254.229129 47.078646 254.229129 
Q 46.863613 254.229129 46.635369 254.186562 
Q 46.407126 254.143996 46.164205 254.058864 
L 46.164205 253.611918 
Q 46.356487 253.724204 46.585464 253.781449 
Q 46.815175 253.838693 47.065436 253.838693 
Q 47.500639 253.838693 47.728883 253.66696 
Q 47.957126 253.495227 47.957126 253.167173 
Q 47.957126 252.864072 47.745028 252.693807 
Q 47.532931 252.522808 47.154972 252.522808 
L 46.755729 252.522808 
L 46.755729 252.141913 
L 47.173319 252.141913 
Q 47.514583 252.141913 47.695857 252.005407 
Q 47.877131 251.868901 47.877131 251.612036 
Q 47.877131 251.348565 47.689986 251.207656 
Q 47.503575 251.066013 47.154972 251.066013 
Q 46.964157 251.066013 46.746188 251.107846 
Q 46.52822 251.148944 46.266951 251.235544 
L 46.266951 250.823092 
Q 46.531155 250.749702 46.7616 250.713007 
Q 46.992045 250.676312 47.19607 250.676312 
Q 47.723745 250.676312 48.030516 250.916297 
Q 48.338021 251.155549 48.338021 251.563598 
Q 48.338021 251.848352 48.175095 252.044304 
Q 48.012169 252.240256 47.712003 252.315847 
z
M 49.344842 253.579626 
L 49.828483 253.579626 
L 49.828483 253.974465 
L 49.452725 254.708366 
L 49.156963 254.708366 
L 49.344842 253.974465 
z
M 51.838181 252.265942 
Q 51.526272 252.265942 51.343531 252.479508 
Q 51.161523 252.692339 51.161523 253.063693 
Q 51.161523 253.432846 51.343531 253.647879 
Q 51.526272 253.862178 51.838181 253.862178 
Q 52.150089 253.862178 52.332096 253.647879 
Q 52.514104 253.432846 52.514104 253.063693 
Q 52.514104 252.692339 52.332096 252.479508 
Q 52.150089 252.265942 51.838181 252.265942 
z
M 52.757759 250.813551 
L 52.757759 251.235544 
Q 52.583091 251.153347 52.405487 251.110047 
Q 52.227882 251.066013 52.053214 251.066013 
Q 51.594525 251.066013 51.352338 251.37572 
Q 51.110884 251.685426 51.076391 252.311444 
Q 51.211429 252.111823 51.415453 252.005407 
Q 51.620212 251.898991 51.865335 251.898991 
Q 52.381268 251.898991 52.6807 252.212367 
Q 52.980131 252.525009 52.980131 253.063693 
Q 52.980131 253.591368 52.668223 253.910615 
Q 52.356315 254.229129 51.838181 254.229129 
Q 51.24372 254.229129 50.929611 253.77411 
Q 50.615501 253.318357 50.615501 252.453821 
Q 50.615501 251.642126 51.000799 251.159219 
Q 51.386097 250.676312 52.034866 250.676312 
Q 52.209535 250.676312 52.387139 250.710805 
Q 52.564743 250.745298 52.757759 250.813551 
z
"/>
   </g>
   <g id="patch_46">
    <path clip-path="url(#p7e3f75ea69)" d="M 27.919413 253.772642 
L 29.536198 253.772642 
L 29.536198 254.162344 
L 27.362382 254.162344 
L 27.362382 253.772642 
Q 27.625852 253.499631 28.080871 253.040208 
Q 28.536624 252.580052 28.653314 252.446482 
Q 28.875687 252.196955 28.963755 252.023755 
Q 29.052557 251.850554 29.052557 251.683224 
Q 29.052557 251.410213 28.861009 251.23848 
Q 28.66946 251.066013 28.361955 251.066013 
Q 28.143987 251.066013 27.901799 251.141605 
Q 27.660346 251.217197 27.385133 251.371316 
L 27.385133 250.903087 
Q 27.664749 250.7908 27.90767 250.733556 
Q 28.151326 250.676312 28.353149 250.676312 
Q 28.885227 250.676312 29.201539 250.942718 
Q 29.51785 251.20839 29.51785 251.653134 
Q 29.51785 251.864498 29.438589 252.053845 
Q 29.360062 252.242457 29.1509 252.499323 
Q 29.093655 252.566108 28.786151 252.883887 
Q 28.47938 253.201667 27.919413 253.772642 
z
M 30.556963 253.579626 
L 31.040604 253.579626 
L 31.040604 253.974465 
L 30.664847 254.708366 
L 30.369084 254.708366 
L 30.556963 253.974465 
z
M 33.274876 251.141605 
L 32.105037 252.969754 
L 33.274876 252.969754 
z
M 33.153048 250.737959 
L 33.735766 250.737959 
L 33.735766 252.969754 
L 34.224544 252.969754 
L 34.224544 253.355052 
L 33.735766 253.355052 
L 33.735766 254.162344 
L 33.274876 254.162344 
L 33.274876 253.355052 
L 31.729279 253.355052 
L 31.729279 252.908106 
z
M 35.038349 253.579626 
L 35.52199 253.579626 
L 35.52199 253.974465 
L 35.146233 254.708366 
L 34.850471 254.708366 
L 35.038349 253.974465 
z
M 37.531688 252.265942 
Q 37.21978 252.265942 37.037038 252.479508 
Q 36.855031 252.692339 36.855031 253.063693 
Q 36.855031 253.432846 37.037038 253.647879 
Q 37.21978 253.862178 37.531688 253.862178 
Q 37.843596 253.862178 38.025604 253.647879 
Q 38.207611 253.432846 38.207611 253.063693 
Q 38.207611 252.692339 38.025604 252.479508 
Q 37.843596 252.265942 37.531688 252.265942 
z
M 38.451267 250.813551 
L 38.451267 251.235544 
Q 38.276598 251.153347 38.098994 251.110047 
Q 37.92139 251.066013 37.746721 251.066013 
Q 37.288033 251.066013 37.045845 251.37572 
Q 36.804392 251.685426 36.769898 252.311444 
Q 36.904936 252.111823 37.108961 252.005407 
Q 37.313719 251.898991 37.558842 251.898991 
Q 38.074775 251.898991 38.374207 252.212367 
Q 38.673639 252.525009 38.673639 253.063693 
Q 38.673639 253.591368 38.361731 253.910615 
Q 38.049822 254.229129 37.531688 254.229129 
Q 36.937228 254.229129 36.623118 253.77411 
Q 36.309008 253.318357 36.309008 252.453821 
Q 36.309008 251.642126 36.694306 251.159219 
Q 37.079605 250.676312 37.728374 250.676312 
Q 37.903042 250.676312 38.080646 250.710805 
Q 38.25825 250.745298 38.451267 250.813551 
z
"/>
   </g>
   <g id="patch_47">
    <path clip-path="url(#p7e3f75ea69)" d="M 124.527273 255.152377 
L 124.527273 262.667528 
L 117.012121 262.667528 
L 117.012121 255.152377 
L 124.527273 255.152377 
z
" style="fill:#0090bc;stroke:#000000;stroke-linejoin:miter;stroke-width:0.478286;"/>
   </g>
   <g id="patch_48">
    <path clip-path="url(#p7e3f75ea69)" d="M 105.739394 255.152377 
L 105.739394 262.667528 
L 98.224242 262.667528 
L 98.224242 255.152377 
L 105.739394 255.152377 
z
" style="fill:#0090bc;stroke:#000000;stroke-linejoin:miter;stroke-width:0.478286;"/>
   </g>
   <g id="patch_49">
    <path clip-path="url(#p7e3f75ea69)" d="M 83.193939 262.667528 
C 84.19046 262.667528 85.1463 262.271606 85.850947 261.56696 
C 86.555593 260.862313 86.951515 259.906473 86.951515 258.909953 
C 86.951515 257.913432 86.555593 256.957592 85.850947 256.252945 
C 85.1463 255.548299 84.19046 255.152377 83.193939 255.152377 
C 82.197419 255.152377 81.241579 255.548299 80.536932 256.252945 
C 79.832286 256.957592 79.436364 257.913432 79.436364 258.909953 
C 79.436364 259.906473 79.832286 260.862313 80.536932 261.56696 
C 81.241579 262.271606 82.197419 262.667528 83.193939 262.667528 
z
" style="fill:#00a651;stroke:#000000;stroke-linejoin:miter;stroke-width:0.478286;"/>
   </g>
   <g id="patch_50">
    <path clip-path="url(#p7e3f75ea69)" d="M 104.8 267.364498 
L 99.163636 273.000862 
z
" style="fill:#ffffff;stroke:#000000;stroke-linejoin:miter;stroke-width:0.478286;"/>
   </g>
   <g id="patch_51">
    <path clip-path="url(#p7e3f75ea69)" d="M 99.163636 267.364498 
L 104.8 273.000862 
z
" style="fill:#ffffff;stroke:#000000;stroke-linejoin:miter;stroke-width:0.478286;"/>
   </g>
   <g id="patch_52">
    <path clip-path="url(#p7e3f75ea69)" d="M 64.406061 275.819044 
C 65.402581 275.819044 66.358421 275.423122 67.063068 274.718475 
C 67.767714 274.013828 68.163636 273.057988 68.163636 272.061468 
C 68.163636 271.064947 67.767714 270.109107 67.063068 269.40446 
C 66.358421 268.699814 65.402581 268.303892 64.406061 268.303892 
C 63.40954 268.303892 62.4537 268.699814 61.749053 269.40446 
C 61.044407 270.109107 60.648485 271.064947 60.648485 272.061468 
C 60.648485 273.057988 61.044407 274.013828 61.749053 274.718475 
C 62.4537 275.423122 63.40954 275.819044 64.406061 275.819044 
z
" style="fill:#00a651;stroke:#000000;stroke-linejoin:miter;stroke-width:0.478286;"/>
   </g>
   <g id="patch_53">
    <path clip-path="url(#p7e3f75ea69)" d="M 64.406061 249.516013 
C 65.402581 249.516013 66.358421 249.120091 67.063068 248.415445 
C 67.767714 247.710798 68.163636 246.754958 68.163636 245.758437 
C 68.163636 244.761917 67.767714 243.806077 67.063068 243.10143 
C 66.358421 242.396784 65.402581 242.000862 64.406061 242.000862 
C 63.40954 242.000862 62.4537 242.396784 61.749053 243.10143 
C 61.044407 243.806077 60.648485 244.761917 60.648485 245.758437 
C 60.648485 246.754958 61.044407 247.710798 61.749053 248.415445 
C 62.4537 249.120091 63.40954 249.516013 64.406061 249.516013 
z
" style="fill:#00a651;stroke:#000000;stroke-linejoin:miter;stroke-width:0.478286;"/>
   </g>
   <g id="patch_54">
    <path clip-path="url(#p7e3f75ea69)" d="M 49.375758 242.000862 
L 49.375758 249.516013 
L 41.860606 249.516013 
L 41.860606 242.000862 
L 49.375758 242.000862 
z
" style="fill:#0090bc;stroke:#000000;stroke-linejoin:miter;stroke-width:0.478286;"/>
   </g>
   <g id="patch_55">
    <path clip-path="url(#p7e3f75ea69)" d="M 26.830303 249.516013 
C 27.826824 249.516013 28.782664 249.120091 29.48731 248.415445 
C 30.191957 247.710798 30.587879 246.754958 30.587879 245.758437 
C 30.587879 244.761917 30.191957 243.806077 29.48731 243.10143 
C 28.782664 242.396784 27.826824 242.000862 26.830303 242.000862 
C 25.833782 242.000862 24.877942 242.396784 24.173296 243.10143 
C 23.468649 243.806077 23.072727 244.761917 23.072727 245.758437 
C 23.072727 246.754958 23.468649 247.710798 24.173296 248.415445 
C 24.877942 249.120091 25.833782 249.516013 26.830303 249.516013 
z
" style="fill:#ffd400;stroke:#000000;stroke-linejoin:miter;stroke-width:0.478286;"/>
   </g>
   <g id="patch_56">
    <path clip-path="url(#p7e3f75ea69)" d="M 48.436364 254.212983 
L 42.8 259.849347 
z
" style="fill:#ffffff;stroke:#000000;stroke-linejoin:miter;stroke-width:0.478286;"/>
   </g>
   <g id="patch_57">
    <path clip-path="url(#p7e3f75ea69)" d="M 42.8 254.212983 
L 48.436364 259.849347 
z
" style="fill:#ffffff;stroke:#000000;stroke-linejoin:miter;stroke-width:0.478286;"/>
   </g>
   <g id="patch_58">
    <path clip-path="url(#p7e3f75ea69)" d="M 29.648485 254.212983 
L 24.012121 259.849347 
z
" style="fill:#ffffff;stroke:#000000;stroke-linejoin:miter;stroke-width:0.478286;"/>
   </g>
   <g id="patch_59">
    <path clip-path="url(#p7e3f75ea69)" d="M 24.012121 254.212983 
L 29.648485 259.849347 
z
" style="fill:#ffffff;stroke:#000000;stroke-linejoin:miter;stroke-width:0.478286;"/>
   </g>
  </g>
  <g id="axes_5">
   <g id="line2d_19">
    <path clip-path="url(#p09bc7de49a)" d="M 91.312897 305.966995 
L 60.294638 305.966995 
" style="fill:none;stroke:#000000;stroke-linecap:square;stroke-width:0.6696;"/>
   </g>
   <g id="line2d_20">
    <path clip-path="url(#p09bc7de49a)" d="M 91.312897 305.966995 
L 91.312897 324.57795 
" style="fill:none;stroke:#000000;stroke-linecap:square;stroke-width:0.6696;"/>
   </g>
   <g id="line2d_21">
    <path clip-path="url(#p09bc7de49a)" d="M 60.294638 305.966995 
L 29.276379 305.966995 
" style="fill:none;stroke:#000000;stroke-linecap:square;stroke-width:0.6696;"/>
   </g>
   <g id="line2d_22">
    <path clip-path="url(#p09bc7de49a)" d="M 122.331156 305.966995 
L 91.312897 305.966995 
" style="fill:none;stroke:#000000;stroke-linecap:square;stroke-width:0.6696;"/>
   </g>
   <g id="patch_60">
    <path clip-path="url(#p09bc7de49a)" d="M 70.717258 305.084913 
L 70.717258 306.959337 
L 70.016923 306.959337 
L 70.016923 301.132509 
Q 70.016923 299.405906 71.629631 299.405906 
Q 73.273841 299.405906 73.273841 300.863522 
Q 73.273841 301.900695 72.621973 302.279942 
Q 73.682167 302.620416 73.682167 303.630933 
Q 73.682167 305.426599 71.857421 305.426599 
Q 71.054097 305.426599 70.717258 305.084913 
z
M 70.717258 304.176175 
Q 71.1377 304.831678 71.884077 304.831678 
Q 72.974563 304.831678 72.974563 303.643049 
Q 72.974563 302.574373 71.217669 302.657977 
L 71.217669 302.01459 
Q 72.591681 302.01459 72.591681 300.80294 
Q 72.591681 299.974171 71.705965 299.974171 
Q 70.717258 299.974171 70.717258 301.15553 
z
"/>
   </g>
   <g id="patch_61">
    <path clip-path="url(#p09bc7de49a)" d="M 81.526394 300.359476 
L 79.595023 303.377698 
L 81.526394 303.377698 
z
M 81.32526 299.693068 
L 82.287311 299.693068 
L 82.287311 303.377698 
L 83.09427 303.377698 
L 83.09427 304.013814 
L 82.287311 304.013814 
L 82.287311 305.34663 
L 81.526394 305.34663 
L 81.526394 304.013814 
L 78.974657 304.013814 
L 78.974657 303.275919 
z
"/>
   </g>
   <g id="patch_62">
    <path clip-path="url(#p09bc7de49a)" d="M 94.769736 316.793095 
Q 95.318614 316.910625 95.626373 317.282601 
Q 95.935344 317.653367 95.935344 318.198609 
Q 95.935344 319.034648 95.35981 319.493864 
Q 94.784276 319.951868 93.724082 319.951868 
Q 93.369068 319.951868 92.992245 319.881592 
Q 92.615421 319.811316 92.214365 319.670765 
L 92.214365 318.93287 
Q 92.531818 319.118252 92.909853 319.212761 
Q 93.289099 319.30727 93.702272 319.30727 
Q 94.420781 319.30727 94.797604 319.023744 
Q 95.174428 318.740217 95.174428 318.198609 
Q 95.174428 317.698198 94.824261 317.417095 
Q 94.474094 317.13478 93.850094 317.13478 
L 93.190956 317.13478 
L 93.190956 316.505933 
L 93.880385 316.505933 
Q 94.443802 316.505933 94.74308 316.280566 
Q 95.042358 316.055199 95.042358 315.631121 
Q 95.042358 315.196139 94.733387 314.963502 
Q 94.425628 314.729653 93.850094 314.729653 
Q 93.535064 314.729653 93.175204 314.798717 
Q 92.815344 314.86657 92.383996 315.009545 
L 92.383996 314.328597 
Q 92.82019 314.207432 93.200649 314.146849 
Q 93.581107 314.086267 93.917946 314.086267 
Q 94.789123 314.086267 95.295593 314.482477 
Q 95.803274 314.877475 95.803274 315.551152 
Q 95.803274 316.021273 95.534288 316.344784 
Q 95.265302 316.668294 94.769736 316.793095 
z
M 97.465508 318.879557 
L 98.263986 318.879557 
L 98.263986 319.531425 
L 97.643621 320.743076 
L 97.155325 320.743076 
L 97.465508 319.531425 
z
M 101.58194 316.710702 
Q 101.066988 316.710702 100.765287 317.063293 
Q 100.464798 317.414671 100.464798 318.027767 
Q 100.464798 318.637227 100.765287 318.992241 
Q 101.066988 319.346043 101.58194 319.346043 
Q 102.096891 319.346043 102.397381 318.992241 
Q 102.69787 318.637227 102.69787 318.027767 
Q 102.69787 317.414671 102.397381 317.063293 
Q 102.096891 316.710702 101.58194 316.710702 
z
M 103.100138 314.312845 
L 103.100138 315.009545 
Q 102.811765 314.87384 102.518546 314.802352 
Q 102.225326 314.729653 101.936953 314.729653 
Q 101.179672 314.729653 100.779827 315.24097 
Q 100.381194 315.752287 100.324246 316.785825 
Q 100.54719 316.456256 100.884029 316.280566 
Q 101.22208 316.104877 101.626771 316.104877 
Q 102.478561 316.104877 102.972915 316.622252 
Q 103.467268 317.138415 103.467268 318.027767 
Q 103.467268 318.898943 102.952317 319.426012 
Q 102.437365 319.951868 101.58194 319.951868 
Q 100.600503 319.951868 100.081916 319.200645 
Q 99.56333 318.448209 99.56333 317.020885 
Q 99.56333 315.680799 100.199446 314.883533 
Q 100.835563 314.086267 101.906662 314.086267 
Q 102.195035 314.086267 102.488255 314.143214 
Q 102.781474 314.200162 103.100138 314.312845 
z
"/>
   </g>
   <g id="patch_63">
    <path clip-path="url(#p09bc7de49a)" d="M 39.698999 305.084913 
L 39.698999 306.959337 
L 38.998665 306.959337 
L 38.998665 301.132509 
Q 38.998665 299.405906 40.611372 299.405906 
Q 42.255582 299.405906 42.255582 300.863522 
Q 42.255582 301.900695 41.603714 302.279942 
Q 42.663908 302.620416 42.663908 303.630933 
Q 42.663908 305.426599 40.839162 305.426599 
Q 40.035838 305.426599 39.698999 305.084913 
z
M 39.698999 304.176175 
Q 40.119442 304.831678 40.865818 304.831678 
Q 41.956304 304.831678 41.956304 303.643049 
Q 41.956304 302.574373 40.19941 302.657977 
L 40.19941 302.01459 
Q 41.573422 302.01459 41.573422 300.80294 
Q 41.573422 299.974171 40.687706 299.974171 
Q 39.698999 299.974171 39.698999 301.15553 
z
"/>
   </g>
   <g id="patch_64">
    <path clip-path="url(#p09bc7de49a)" d="M 50.723809 302.298117 
Q 51.272687 302.415647 51.580446 302.787624 
Q 51.889417 303.158389 51.889417 303.703632 
Q 51.889417 304.539671 51.313883 304.998886 
Q 50.738349 305.45689 49.678154 305.45689 
Q 49.323141 305.45689 48.946317 305.386614 
Q 48.569494 305.316339 48.168437 305.175787 
L 48.168437 304.437892 
Q 48.48589 304.623274 48.863925 304.717783 
Q 49.243172 304.812292 49.656344 304.812292 
Q 50.374853 304.812292 50.751677 304.528766 
Q 51.1285 304.245239 51.1285 303.703632 
Q 51.1285 303.20322 50.778333 302.922117 
Q 50.428166 302.639802 49.804166 302.639802 
L 49.145028 302.639802 
L 49.145028 302.010955 
L 49.834457 302.010955 
Q 50.397875 302.010955 50.697152 301.785588 
Q 50.99643 301.560221 50.99643 301.136144 
Q 50.99643 300.701161 50.687459 300.468524 
Q 50.3797 300.234676 49.804166 300.234676 
Q 49.489137 300.234676 49.129276 300.30374 
Q 48.769416 300.371592 48.338068 300.514567 
L 48.338068 299.833619 
Q 48.774263 299.712454 49.154721 299.651872 
Q 49.535179 299.591289 49.872018 299.591289 
Q 50.743195 299.591289 51.249665 299.987499 
Q 51.757347 300.382497 51.757347 301.056175 
Q 51.757347 301.526295 51.48836 301.849806 
Q 51.219374 302.173317 50.723809 302.298117 
z
"/>
   </g>
   <g id="patch_65">
    <path clip-path="url(#p09bc7de49a)" d="M 121.562363 309.481994 
L 121.562363 311.356418 
L 120.862029 311.356418 
L 120.862029 305.529589 
Q 120.862029 303.802987 122.474736 303.802987 
Q 124.118946 303.802987 124.118946 305.260603 
Q 124.118946 306.297776 123.467078 306.677022 
Q 124.527273 307.017496 124.527273 308.028013 
Q 124.527273 309.823679 122.702527 309.823679 
Q 121.899202 309.823679 121.562363 309.481994 
z
M 121.562363 308.573256 
Q 121.982806 309.228759 122.729183 309.228759 
Q 123.819669 309.228759 123.819669 308.04013 
Q 123.819669 306.971454 122.062775 307.055058 
L 122.062775 306.411671 
Q 123.436787 306.411671 123.436787 305.20002 
Q 123.436787 304.371251 122.55107 304.371251 
Q 121.562363 304.371251 121.562363 305.552611 
z
"/>
   </g>
   <g id="patch_66">
    <path clip-path="url(#p09bc7de49a)" d="M 97.516549 299.763343 
L 97.516549 312.170647 
L 85.109245 312.170647 
L 85.109245 299.763343 
L 97.516549 299.763343 
z
" style="fill:#0090bc;stroke:#000000;stroke-linejoin:miter;stroke-width:0.6696;"/>
   </g>
   <g id="patch_67">
    <path clip-path="url(#p09bc7de49a)" d="M 60.294638 312.170647 
C 61.939866 312.170647 63.517931 311.516991 64.681282 310.353639 
C 65.844634 309.190288 66.49829 307.612223 66.49829 305.966995 
C 66.49829 304.321767 65.844634 302.743703 64.681282 301.580351 
C 63.517931 300.416999 61.939866 299.763343 60.294638 299.763343 
C 58.64941 299.763343 57.071345 300.416999 55.907994 301.580351 
C 54.744642 302.743703 54.090986 304.321767 54.090986 305.966995 
C 54.090986 307.612223 54.744642 309.190288 55.907994 310.353639 
C 57.071345 311.516991 58.64941 312.170647 60.294638 312.170647 
z
" style="fill:#ffd400;stroke:#000000;stroke-linejoin:miter;stroke-width:0.6696;"/>
   </g>
   <g id="patch_68">
    <path clip-path="url(#p09bc7de49a)" d="M 95.965636 319.925212 
L 86.660158 329.230689 
z
" style="fill:#ffffff;stroke:#000000;stroke-linejoin:miter;stroke-width:0.6696;"/>
   </g>
   <g id="patch_69">
    <path clip-path="url(#p09bc7de49a)" d="M 86.660158 319.925212 
L 95.965636 329.230689 
z
" style="fill:#ffffff;stroke:#000000;stroke-linejoin:miter;stroke-width:0.6696;"/>
   </g>
   <g id="patch_70">
    <path clip-path="url(#p09bc7de49a)" d="M 35.480031 299.763343 
L 35.480031 312.170647 
L 23.072727 312.170647 
L 23.072727 299.763343 
L 35.480031 299.763343 
z
" style="fill:#0090bc;stroke:#000000;stroke-linejoin:miter;stroke-width:0.6696;"/>
   </g>
  </g>
  <g id="axes_6">
   <g id="line2d_23">
    <path clip-path="url(#pdbbb49e078)" d="M 110.033766 370.252431 
L 37.566234 370.252431 
" style="fill:none;stroke:#000000;stroke-linecap:square;stroke-width:1.116;"/>
   </g>
   <g id="patch_71">
    <path clip-path="url(#pdbbb49e078)" d="M 61.916457 368.191636 
L 61.916457 372.570826 
L 60.280276 372.570826 
L 60.280276 358.957687 
Q 60.280276 354.92385 64.048022 354.92385 
Q 67.889367 354.92385 67.889367 358.329257 
Q 67.889367 360.752391 66.366416 361.638419 
Q 68.843334 362.433864 68.843334 364.79472 
Q 68.843334 368.989911 64.580205 368.989911 
Q 62.703409 368.989911 61.916457 368.191636 
z
M 61.916457 366.068563 
Q 62.898732 367.600006 64.642482 367.600006 
Q 67.190168 367.600006 67.190168 364.823028 
Q 67.190168 362.326295 63.085562 362.521617 
L 63.085562 361.018482 
Q 66.295647 361.018482 66.295647 358.187719 
Q 66.295647 356.251477 64.22636 356.251477 
Q 61.916457 356.251477 61.916457 359.011471 
z
"/>
   </g>
   <g id="patch_72">
    <path clip-path="url(#pdbbb49e078)" d="M 87.673569 361.680881 
Q 88.955905 361.955465 89.674919 362.824509 
Q 90.396763 363.690723 90.396763 364.964566 
Q 90.396763 366.917792 89.052151 367.990652 
Q 87.707539 369.06068 85.230621 369.06068 
Q 84.401207 369.06068 83.52084 368.896496 
Q 82.640473 368.732311 81.70349 368.403943 
L 81.70349 366.680008 
Q 82.44515 367.113115 83.328348 367.333915 
Q 84.214377 367.554714 85.179667 367.554714 
Q 86.85831 367.554714 87.738677 366.892315 
Q 88.619044 366.229917 88.619044 364.964566 
Q 88.619044 363.795461 87.800954 363.138724 
Q 86.982863 362.479156 85.52502 362.479156 
L 83.985085 362.479156 
L 83.985085 361.00999 
L 85.595789 361.00999 
Q 86.912094 361.00999 87.611293 360.483468 
Q 88.310491 359.956946 88.310491 358.966179 
Q 88.310491 357.949935 87.588647 357.406429 
Q 86.869633 356.860091 85.52502 356.860091 
Q 84.789022 356.860091 83.948285 357.021445 
Q 83.107549 357.179968 82.099797 357.513998 
L 82.099797 355.923109 
Q 83.118872 355.640033 84.007731 355.498494 
Q 84.896591 355.356956 85.683543 355.356956 
Q 87.718862 355.356956 88.902121 356.282616 
Q 90.08821 357.205445 90.08821 358.779349 
Q 90.08821 359.877685 89.459781 360.633499 
Q 88.831351 361.389312 87.673569 361.680881 
z
"/>
   </g>
   <g id="patch_73">
    <path clip-path="url(#pdbbb49e078)" d="M 124.527273 355.758925 
L 124.527273 384.745938 
L 95.54026 384.745938 
L 95.54026 355.758925 
L 124.527273 355.758925 
z
" style="fill:#0090bc;stroke:#000000;stroke-linejoin:miter;stroke-width:1.116;"/>
   </g>
   <g id="patch_74">
    <path clip-path="url(#pdbbb49e078)" d="M 37.566234 384.745938 
C 41.409957 384.745938 45.096768 383.21881 47.81469 380.500888 
C 50.532613 377.782965 52.05974 374.096154 52.05974 370.252431 
C 52.05974 366.408708 50.532613 362.721897 47.81469 360.003974 
C 45.096768 357.286052 41.409957 355.758925 37.566234 355.758925 
C 33.722511 355.758925 30.0357 357.286052 27.317777 360.003974 
C 24.599855 362.721897 23.072727 366.408708 23.072727 370.252431 
C 23.072727 374.096154 24.599855 377.782965 27.317777 380.500888 
C 30.0357 383.21881 33.722511 384.745938 37.566234 384.745938 
z
" style="fill:#ffd400;stroke:#000000;stroke-linejoin:miter;stroke-width:1.116;"/>
   </g>
  </g>
  <g id="axes_7">
   <g id="line2d_24">
    <path clip-path="url(#p7c3ee3231e)" d="M 73.8 413.176797 
L 73.8 439.739762 
" style="fill:none;stroke:#000000;stroke-linecap:square;stroke-width:1.674;"/>
   </g>
   <g id="patch_75">
    <path clip-path="url(#p7c3ee3231e)" d="M 77.896853 427.946394 
Q 77.161875 427.946394 76.731265 428.449637 
Q 76.302383 428.951152 76.302383 429.826207 
Q 76.302383 430.696075 76.731265 431.202778 
Q 77.161875 431.707751 77.896853 431.707751 
Q 78.631831 431.707751 79.060712 431.202778 
Q 79.489593 430.696075 79.489593 429.826207 
Q 79.489593 428.951152 79.060712 428.449637 
Q 78.631831 427.946394 77.896853 427.946394 
z
M 80.063741 424.523991 
L 80.063741 425.518373 
Q 79.652153 425.324684 79.233648 425.222652 
Q 78.815143 425.11889 78.403555 425.11889 
Q 77.322706 425.11889 76.752017 425.84868 
Q 76.183058 426.57847 76.101778 428.053614 
Q 76.41998 427.583228 76.900742 427.332471 
Q 77.383233 427.081714 77.960839 427.081714 
Q 79.176579 427.081714 79.882158 427.82015 
Q 80.587737 428.556858 80.587737 429.826207 
Q 80.587737 431.069617 79.852759 431.821889 
Q 79.117781 432.572431 77.896853 432.572431 
Q 76.496072 432.572431 75.755906 431.500228 
Q 75.01574 430.426295 75.01574 428.38911 
Q 75.01574 426.476438 75.923654 425.338519 
Q 76.831567 424.200601 78.360321 424.200601 
Q 78.771909 424.200601 79.190414 424.28188 
Q 79.608919 424.36316 80.063741 424.523991 
z
"/>
   </g>
   <g id="patch_76">
    <path clip-path="url(#p7c3ee3231e)" d="M 82.654321 404.322476 
L 82.654321 422.031119 
L 64.945679 422.031119 
L 64.945679 404.322476 
L 82.654321 404.322476 
z
" style="fill:#0090bc;stroke:#000000;stroke-linejoin:miter;stroke-width:1.674;"/>
   </g>
   <g id="patch_77">
    <path clip-path="url(#p7c3ee3231e)" d="M 80.440741 433.099021 
L 67.159259 446.380503 
z
" style="fill:#ffffff;stroke:#000000;stroke-linejoin:miter;stroke-width:1.674;"/>
   </g>
   <g id="patch_78">
    <path clip-path="url(#p7c3ee3231e)" d="M 67.159259 433.099021 
L 80.440741 446.380503 
z
" style="fill:#ffffff;stroke:#000000;stroke-linejoin:miter;stroke-width:1.674;"/>
   </g>
  </g>
  <g id="axes_8">
   <g id="line2d_25">
    <path clip-path="url(#p5b84384766)" d="M 110.033766 481.285623 
L 37.566234 481.285623 
" style="fill:none;stroke:#000000;stroke-linecap:square;stroke-width:1.116;"/>
   </g>
   <g id="patch_79">
    <path clip-path="url(#p5b84384766)" d="M 61.916457 479.224827 
L 61.916457 483.604018 
L 60.280276 483.604018 
L 60.280276 469.990878 
Q 60.280276 465.957041 64.048022 465.957041 
Q 67.889367 465.957041 67.889367 469.362449 
Q 67.889367 471.785582 66.366416 472.671611 
Q 68.843334 473.467055 68.843334 475.827912 
Q 68.843334 480.023102 64.580205 480.023102 
Q 62.703409 480.023102 61.916457 479.224827 
z
M 61.916457 477.101755 
Q 62.898732 478.633198 64.642482 478.633198 
Q 67.190168 478.633198 67.190168 475.856219 
Q 67.190168 473.359486 63.085562 473.554809 
L 63.085562 472.051674 
Q 66.295647 472.051674 66.295647 469.220911 
Q 66.295647 467.284669 64.22636 467.284669 
Q 61.916457 467.284669 61.916457 470.044663 
z
"/>
   </g>
   <g id="patch_80">
    <path clip-path="url(#p5b84384766)" d="M 87.169694 468.184852 
L 82.657457 475.236282 
L 87.169694 475.236282 
z
M 86.699787 466.627932 
L 88.947413 466.627932 
L 88.947413 475.236282 
L 90.832701 475.236282 
L 90.832701 476.722433 
L 88.947413 476.722433 
L 88.947413 479.836272 
L 87.169694 479.836272 
L 87.169694 476.722433 
L 81.208107 476.722433 
L 81.208107 474.998498 
z
"/>
   </g>
   <g id="patch_81">
    <path clip-path="url(#p5b84384766)" d="M 110.033766 495.779129 
C 113.877489 495.779129 117.5643 494.252002 120.282223 491.534079 
C 123.000145 488.816157 124.527273 485.129345 124.527273 481.285623 
C 124.527273 477.4419 123.000145 473.755088 120.282223 471.037166 
C 117.5643 468.319243 113.877489 466.792116 110.033766 466.792116 
C 106.190043 466.792116 102.503232 468.319243 99.78531 471.037166 
C 97.067387 473.755088 95.54026 477.4419 95.54026 481.285623 
C 95.54026 485.129345 97.067387 488.816157 99.78531 491.534079 
C 102.503232 494.252002 106.190043 495.779129 110.033766 495.779129 
z
" style="fill:#0090bc;stroke:#000000;stroke-linejoin:miter;stroke-width:1.116;"/>
   </g>
   <g id="patch_82">
    <path clip-path="url(#p5b84384766)" d="M 37.566234 495.779129 
C 41.409957 495.779129 45.096768 494.252002 47.81469 491.534079 
C 50.532613 488.816157 52.05974 485.129345 52.05974 481.285623 
C 52.05974 477.4419 50.532613 473.755088 47.81469 471.037166 
C 45.096768 468.319243 41.409957 466.792116 37.566234 466.792116 
C 33.722511 466.792116 30.0357 468.319243 27.317777 471.037166 
C 24.599855 473.755088 23.072727 477.4419 23.072727 481.285623 
C 23.072727 485.129345 24.599855 488.816157 27.317777 491.534079 
C 30.0357 494.252002 33.722511 495.779129 37.566234 495.779129 
z
" style="fill:#ffd400;stroke:#000000;stroke-linejoin:miter;stroke-width:1.116;"/>
   </g>
  </g>
 </g>
 <defs>
  <clipPath id="pae6433f85c">
   <rect height="23.36882" width="111.6" x="18" y="80.567505"/>
  </clipPath>
  <clipPath id="pec706a39b6">
   <rect height="46.26383" width="40.438049" x="53.580975" y="124.636596"/>
  </clipPath>
  <clipPath id="p254a0a9da9">
   <rect height="46.26383" width="28.822157" x="59.388922" y="180.153191"/>
  </clipPath>
  <clipPath id="p7e3f75ea69">
   <rect height="37.438151" width="111.6" x="18" y="240.082627"/>
  </clipPath>
  <clipPath id="p09bc7de49a">
   <rect height="32.807261" width="111.6" x="18" y="297.914667"/>
  </clipPath>
  <clipPath id="pdbbb49e078">
   <rect height="32.804297" width="111.6" x="18" y="353.432745"/>
  </clipPath>
  <clipPath id="p7c3ee3231e">
   <rect height="46.26383" width="19.479507" x="64.060246" y="402.219574"/>
  </clipPath>
  <clipPath id="p5b84384766">
   <rect height="32.804297" width="111.6" x="18" y="464.465937"/>
  </clipPath>
 </defs>
</svg>
