<?xml version="1.0" encoding="utf-8" standalone="no"?>
<!DOCTYPE svg PUBLIC "-//W3C//DTD SVG 1.1//EN"
  "http://www.w3.org/Graphics/SVG/1.1/DTD/svg11.dtd">
<!-- Created with matplotlib (https://matplotlib.org/) -->
<svg height="475.2pt" version="1.1" viewBox="0 0 576 475.2" width="576pt" xmlns="http://www.w3.org/2000/svg" xmlns:xlink="http://www.w3.org/1999/xlink">
 <defs>
  <style type="text/css">
*{stroke-linecap:butt;stroke-linejoin:round;}
  </style>
 </defs>
 <g id="figure_1">
  <g id="patch_1">
   <path d="M 0 475.2 
L 576 475.2 
L 576 0 
L 0 0 
z
" style="fill:#ffffff;"/>
  </g>
  <g id="axes_1">
   <g id="patch_2">
    <path d="M 36.403365 200.723885 
L 331.929285 200.723885 
L 331.929285 73.964442 
L 36.403365 73.964442 
z
" style="fill:#ffffff;"/>
   </g>
   <g id="patch_3">
    <path clip-path="url(#p5f0984d0eb)" d="M 49.836361 200.723885 
L 52.763446 200.723885 
L 52.763446 196.699776 
L 49.836361 196.699776 
z
" style="fill:#1f77b4;"/>
   </g>
   <g id="patch_4">
    <path clip-path="url(#p5f0984d0eb)" d="M 52.763446 200.723885 
L 55.690532 200.723885 
L 55.690532 200.723885 
L 52.763446 200.723885 
z
" style="fill:#1f77b4;"/>
   </g>
   <g id="patch_5">
    <path clip-path="url(#p5f0984d0eb)" d="M 55.690532 200.723885 
L 58.617617 200.723885 
L 58.617617 200.723885 
L 55.690532 200.723885 
z
" style="fill:#1f77b4;"/>
   </g>
   <g id="patch_6">
    <path clip-path="url(#p5f0984d0eb)" d="M 58.617617 200.723885 
L 61.544702 200.723885 
L 61.544702 196.699776 
L 58.617617 196.699776 
z
" style="fill:#1f77b4;"/>
   </g>
   <g id="patch_7">
    <path clip-path="url(#p5f0984d0eb)" d="M 61.544702 200.723885 
L 64.471787 200.723885 
L 64.471787 200.723885 
L 61.544702 200.723885 
z
" style="fill:#1f77b4;"/>
   </g>
   <g id="patch_8">
    <path clip-path="url(#p5f0984d0eb)" d="M 64.471787 200.723885 
L 67.398872 200.723885 
L 67.398872 192.675666 
L 64.471787 192.675666 
z
" style="fill:#1f77b4;"/>
   </g>
   <g id="patch_9">
    <path clip-path="url(#p5f0984d0eb)" d="M 67.398872 200.723885 
L 70.325957 200.723885 
L 70.325957 192.675666 
L 67.398872 192.675666 
z
" style="fill:#1f77b4;"/>
   </g>
   <g id="patch_10">
    <path clip-path="url(#p5f0984d0eb)" d="M 70.325957 200.723885 
L 73.253042 200.723885 
L 73.253042 192.675666 
L 70.325957 192.675666 
z
" style="fill:#1f77b4;"/>
   </g>
   <g id="patch_11">
    <path clip-path="url(#p5f0984d0eb)" d="M 73.253042 200.723885 
L 76.180127 200.723885 
L 76.180127 192.675666 
L 73.253042 192.675666 
z
" style="fill:#1f77b4;"/>
   </g>
   <g id="patch_12">
    <path clip-path="url(#p5f0984d0eb)" d="M 76.180127 200.723885 
L 79.107213 200.723885 
L 79.107213 192.675666 
L 76.180127 192.675666 
z
" style="fill:#1f77b4;"/>
   </g>
   <g id="patch_13">
    <path clip-path="url(#p5f0984d0eb)" d="M 79.107213 200.723885 
L 82.034298 200.723885 
L 82.034298 196.699776 
L 79.107213 196.699776 
z
" style="fill:#1f77b4;"/>
   </g>
   <g id="patch_14">
    <path clip-path="url(#p5f0984d0eb)" d="M 82.034298 200.723885 
L 84.961383 200.723885 
L 84.961383 200.723885 
L 82.034298 200.723885 
z
" style="fill:#1f77b4;"/>
   </g>
   <g id="patch_15">
    <path clip-path="url(#p5f0984d0eb)" d="M 84.961383 200.723885 
L 87.888468 200.723885 
L 87.888468 188.651557 
L 84.961383 188.651557 
z
" style="fill:#1f77b4;"/>
   </g>
   <g id="patch_16">
    <path clip-path="url(#p5f0984d0eb)" d="M 87.888468 200.723885 
L 90.815553 200.723885 
L 90.815553 184.627448 
L 87.888468 184.627448 
z
" style="fill:#1f77b4;"/>
   </g>
   <g id="patch_17">
    <path clip-path="url(#p5f0984d0eb)" d="M 90.815553 200.723885 
L 93.742638 200.723885 
L 93.742638 180.603338 
L 90.815553 180.603338 
z
" style="fill:#1f77b4;"/>
   </g>
   <g id="patch_18">
    <path clip-path="url(#p5f0984d0eb)" d="M 93.742638 200.723885 
L 96.669723 200.723885 
L 96.669723 152.434573 
L 93.742638 152.434573 
z
" style="fill:#1f77b4;"/>
   </g>
   <g id="patch_19">
    <path clip-path="url(#p5f0984d0eb)" d="M 96.669723 200.723885 
L 99.596808 200.723885 
L 99.596808 140.362245 
L 96.669723 140.362245 
z
" style="fill:#1f77b4;"/>
   </g>
   <g id="patch_20">
    <path clip-path="url(#p5f0984d0eb)" d="M 99.596808 200.723885 
L 102.523894 200.723885 
L 102.523894 160.482792 
L 99.596808 160.482792 
z
" style="fill:#1f77b4;"/>
   </g>
   <g id="patch_21">
    <path clip-path="url(#p5f0984d0eb)" d="M 102.523894 200.723885 
L 105.450979 200.723885 
L 105.450979 148.410464 
L 102.523894 148.410464 
z
" style="fill:#1f77b4;"/>
   </g>
   <g id="patch_22">
    <path clip-path="url(#p5f0984d0eb)" d="M 105.450979 200.723885 
L 108.378064 200.723885 
L 108.378064 120.241699 
L 105.450979 120.241699 
z
" style="fill:#1f77b4;"/>
   </g>
   <g id="patch_23">
    <path clip-path="url(#p5f0984d0eb)" d="M 108.378064 200.723885 
L 111.305149 200.723885 
L 111.305149 84.024715 
L 108.378064 84.024715 
z
" style="fill:#1f77b4;"/>
   </g>
   <g id="patch_24">
    <path clip-path="url(#p5f0984d0eb)" d="M 111.305149 200.723885 
L 114.232234 200.723885 
L 114.232234 120.241699 
L 111.305149 120.241699 
z
" style="fill:#1f77b4;"/>
   </g>
   <g id="patch_25">
    <path clip-path="url(#p5f0984d0eb)" d="M 114.232234 200.723885 
L 117.159319 200.723885 
L 117.159319 100.121152 
L 114.232234 100.121152 
z
" style="fill:#1f77b4;"/>
   </g>
   <g id="patch_26">
    <path clip-path="url(#p5f0984d0eb)" d="M 117.159319 200.723885 
L 120.086404 200.723885 
L 120.086404 80.000606 
L 117.159319 80.000606 
z
" style="fill:#1f77b4;"/>
   </g>
   <g id="patch_27">
    <path clip-path="url(#p5f0984d0eb)" d="M 120.086404 200.723885 
L 123.013489 200.723885 
L 123.013489 88.048824 
L 120.086404 88.048824 
z
" style="fill:#1f77b4;"/>
   </g>
   <g id="patch_28">
    <path clip-path="url(#p5f0984d0eb)" d="M 123.013489 200.723885 
L 125.940575 200.723885 
L 125.940575 112.19348 
L 123.013489 112.19348 
z
" style="fill:#1f77b4;"/>
   </g>
   <g id="patch_29">
    <path clip-path="url(#p5f0984d0eb)" d="M 125.940575 200.723885 
L 128.86766 200.723885 
L 128.86766 108.169371 
L 125.940575 108.169371 
z
" style="fill:#1f77b4;"/>
   </g>
   <g id="patch_30">
    <path clip-path="url(#p5f0984d0eb)" d="M 128.86766 200.723885 
L 131.794745 200.723885 
L 131.794745 80.000606 
L 128.86766 80.000606 
z
" style="fill:#1f77b4;"/>
   </g>
   <g id="patch_31">
    <path clip-path="url(#p5f0984d0eb)" d="M 131.794745 200.723885 
L 134.72183 200.723885 
L 134.72183 96.097043 
L 131.794745 96.097043 
z
" style="fill:#1f77b4;"/>
   </g>
   <g id="patch_32">
    <path clip-path="url(#p5f0984d0eb)" d="M 134.72183 200.723885 
L 137.648915 200.723885 
L 137.648915 112.19348 
L 134.72183 112.19348 
z
" style="fill:#1f77b4;"/>
   </g>
   <g id="patch_33">
    <path clip-path="url(#p5f0984d0eb)" d="M 137.648915 200.723885 
L 140.576 200.723885 
L 140.576 144.386355 
L 137.648915 144.386355 
z
" style="fill:#1f77b4;"/>
   </g>
   <g id="patch_34">
    <path clip-path="url(#p5f0984d0eb)" d="M 140.576 200.723885 
L 143.503085 200.723885 
L 143.503085 156.458683 
L 140.576 156.458683 
z
" style="fill:#1f77b4;"/>
   </g>
   <g id="patch_35">
    <path clip-path="url(#p5f0984d0eb)" d="M 143.503085 200.723885 
L 146.43017 200.723885 
L 146.43017 144.386355 
L 143.503085 144.386355 
z
" style="fill:#1f77b4;"/>
   </g>
   <g id="patch_36">
    <path clip-path="url(#p5f0984d0eb)" d="M 146.43017 200.723885 
L 149.357256 200.723885 
L 149.357256 152.434573 
L 146.43017 152.434573 
z
" style="fill:#1f77b4;"/>
   </g>
   <g id="patch_37">
    <path clip-path="url(#p5f0984d0eb)" d="M 149.357256 200.723885 
L 152.284341 200.723885 
L 152.284341 160.482792 
L 149.357256 160.482792 
z
" style="fill:#1f77b4;"/>
   </g>
   <g id="patch_38">
    <path clip-path="url(#p5f0984d0eb)" d="M 152.284341 200.723885 
L 155.211426 200.723885 
L 155.211426 168.531011 
L 152.284341 168.531011 
z
" style="fill:#1f77b4;"/>
   </g>
   <g id="patch_39">
    <path clip-path="url(#p5f0984d0eb)" d="M 155.211426 200.723885 
L 158.138511 200.723885 
L 158.138511 176.579229 
L 155.211426 176.579229 
z
" style="fill:#1f77b4;"/>
   </g>
   <g id="patch_40">
    <path clip-path="url(#p5f0984d0eb)" d="M 158.138511 200.723885 
L 161.065596 200.723885 
L 161.065596 184.627448 
L 158.138511 184.627448 
z
" style="fill:#1f77b4;"/>
   </g>
   <g id="patch_41">
    <path clip-path="url(#p5f0984d0eb)" d="M 161.065596 200.723885 
L 163.992681 200.723885 
L 163.992681 176.579229 
L 161.065596 176.579229 
z
" style="fill:#1f77b4;"/>
   </g>
   <g id="patch_42">
    <path clip-path="url(#p5f0984d0eb)" d="M 163.992681 200.723885 
L 166.919766 200.723885 
L 166.919766 188.651557 
L 163.992681 188.651557 
z
" style="fill:#1f77b4;"/>
   </g>
   <g id="patch_43">
    <path clip-path="url(#p5f0984d0eb)" d="M 166.919766 200.723885 
L 169.846851 200.723885 
L 169.846851 188.651557 
L 166.919766 188.651557 
z
" style="fill:#1f77b4;"/>
   </g>
   <g id="patch_44">
    <path clip-path="url(#p5f0984d0eb)" d="M 169.846851 200.723885 
L 172.773937 200.723885 
L 172.773937 188.651557 
L 169.846851 188.651557 
z
" style="fill:#1f77b4;"/>
   </g>
   <g id="patch_45">
    <path clip-path="url(#p5f0984d0eb)" d="M 172.773937 200.723885 
L 175.701022 200.723885 
L 175.701022 188.651557 
L 172.773937 188.651557 
z
" style="fill:#1f77b4;"/>
   </g>
   <g id="patch_46">
    <path clip-path="url(#p5f0984d0eb)" d="M 175.701022 200.723885 
L 178.628107 200.723885 
L 178.628107 188.651557 
L 175.701022 188.651557 
z
" style="fill:#1f77b4;"/>
   </g>
   <g id="patch_47">
    <path clip-path="url(#p5f0984d0eb)" d="M 178.628107 200.723885 
L 181.555192 200.723885 
L 181.555192 188.651557 
L 178.628107 188.651557 
z
" style="fill:#1f77b4;"/>
   </g>
   <g id="patch_48">
    <path clip-path="url(#p5f0984d0eb)" d="M 248.246246 200.723885 
L 251.173331 200.723885 
L 251.173331 180.603338 
L 248.246246 180.603338 
z
" style="fill:#ff0000;"/>
   </g>
   <g id="patch_49">
    <path clip-path="url(#p5f0984d0eb)" d="M 251.173331 200.723885 
L 254.100416 200.723885 
L 254.100416 200.723885 
L 251.173331 200.723885 
z
" style="fill:#ff0000;"/>
   </g>
   <g id="patch_50">
    <path clip-path="url(#p5f0984d0eb)" d="M 254.100416 200.723885 
L 257.027501 200.723885 
L 257.027501 200.723885 
L 254.100416 200.723885 
z
" style="fill:#ff0000;"/>
   </g>
   <g id="patch_51">
    <path clip-path="url(#p5f0984d0eb)" d="M 257.027501 200.723885 
L 259.954586 200.723885 
L 259.954586 192.675666 
L 257.027501 192.675666 
z
" style="fill:#ff0000;"/>
   </g>
   <g id="patch_52">
    <path clip-path="url(#p5f0984d0eb)" d="M 259.954586 200.723885 
L 262.881671 200.723885 
L 262.881671 196.699776 
L 259.954586 196.699776 
z
" style="fill:#ff0000;"/>
   </g>
   <g id="patch_53">
    <path clip-path="url(#p5f0984d0eb)" d="M 262.881671 200.723885 
L 265.808756 200.723885 
L 265.808756 176.579229 
L 262.881671 176.579229 
z
" style="fill:#ff0000;"/>
   </g>
   <g id="patch_54">
    <path clip-path="url(#p5f0984d0eb)" d="M 265.808756 200.723885 
L 268.735842 200.723885 
L 268.735842 196.699776 
L 265.808756 196.699776 
z
" style="fill:#ff0000;"/>
   </g>
   <g id="patch_55">
    <path clip-path="url(#p5f0984d0eb)" d="M 268.735842 200.723885 
L 271.662927 200.723885 
L 271.662927 196.699776 
L 268.735842 196.699776 
z
" style="fill:#ff0000;"/>
   </g>
   <g id="patch_56">
    <path clip-path="url(#p5f0984d0eb)" d="M 271.662927 200.723885 
L 274.590012 200.723885 
L 274.590012 168.531011 
L 271.662927 168.531011 
z
" style="fill:#ff0000;"/>
   </g>
   <g id="patch_57">
    <path clip-path="url(#p5f0984d0eb)" d="M 274.590012 200.723885 
L 277.517097 200.723885 
L 277.517097 184.627448 
L 274.590012 184.627448 
z
" style="fill:#ff0000;"/>
   </g>
   <g id="patch_58">
    <path clip-path="url(#p5f0984d0eb)" d="M 277.517097 200.723885 
L 280.444182 200.723885 
L 280.444182 192.675666 
L 277.517097 192.675666 
z
" style="fill:#ff0000;"/>
   </g>
   <g id="patch_59">
    <path clip-path="url(#p5f0984d0eb)" d="M 280.444182 200.723885 
L 283.371267 200.723885 
L 283.371267 188.651557 
L 280.444182 188.651557 
z
" style="fill:#ff0000;"/>
   </g>
   <g id="patch_60">
    <path clip-path="url(#p5f0984d0eb)" d="M 283.371267 200.723885 
L 286.298352 200.723885 
L 286.298352 196.699776 
L 283.371267 196.699776 
z
" style="fill:#ff0000;"/>
   </g>
   <g id="patch_61">
    <path clip-path="url(#p5f0984d0eb)" d="M 286.298352 200.723885 
L 289.225437 200.723885 
L 289.225437 196.699776 
L 286.298352 196.699776 
z
" style="fill:#ff0000;"/>
   </g>
   <g id="patch_62">
    <path clip-path="url(#p5f0984d0eb)" d="M 289.225437 200.723885 
L 292.152523 200.723885 
L 292.152523 188.651557 
L 289.225437 188.651557 
z
" style="fill:#ff0000;"/>
   </g>
   <g id="patch_63">
    <path clip-path="url(#p5f0984d0eb)" d="M 292.152523 200.723885 
L 295.079608 200.723885 
L 295.079608 184.627448 
L 292.152523 184.627448 
z
" style="fill:#ff0000;"/>
   </g>
   <g id="patch_64">
    <path clip-path="url(#p5f0984d0eb)" d="M 295.079608 200.723885 
L 298.006693 200.723885 
L 298.006693 180.603338 
L 295.079608 180.603338 
z
" style="fill:#ff0000;"/>
   </g>
   <g id="patch_65">
    <path clip-path="url(#p5f0984d0eb)" d="M 298.006693 200.723885 
L 300.933778 200.723885 
L 300.933778 164.506901 
L 298.006693 164.506901 
z
" style="fill:#ff0000;"/>
   </g>
   <g id="patch_66">
    <path clip-path="url(#p5f0984d0eb)" d="M 300.933778 200.723885 
L 303.860863 200.723885 
L 303.860863 156.458683 
L 300.933778 156.458683 
z
" style="fill:#ff0000;"/>
   </g>
   <g id="patch_67">
    <path clip-path="url(#p5f0984d0eb)" d="M 303.860863 200.723885 
L 306.787948 200.723885 
L 306.787948 148.410464 
L 303.860863 148.410464 
z
" style="fill:#ff0000;"/>
   </g>
   <g id="patch_68">
    <path clip-path="url(#p5f0984d0eb)" d="M 306.787948 200.723885 
L 309.715033 200.723885 
L 309.715033 160.482792 
L 306.787948 160.482792 
z
" style="fill:#ff0000;"/>
   </g>
   <g id="patch_69">
    <path clip-path="url(#p5f0984d0eb)" d="M 309.715033 200.723885 
L 312.642118 200.723885 
L 312.642118 164.506901 
L 309.715033 164.506901 
z
" style="fill:#ff0000;"/>
   </g>
   <g id="patch_70">
    <path clip-path="url(#p5f0984d0eb)" d="M 312.642118 200.723885 
L 315.569204 200.723885 
L 315.569204 168.531011 
L 312.642118 168.531011 
z
" style="fill:#ff0000;"/>
   </g>
   <g id="patch_71">
    <path clip-path="url(#p5f0984d0eb)" d="M 315.569204 200.723885 
L 318.496289 200.723885 
L 318.496289 192.675666 
L 315.569204 192.675666 
z
" style="fill:#ff0000;"/>
   </g>
   <g id="patch_72">
    <path clip-path="url(#p5f0984d0eb)" d="M 183.274059 200.723885 
L 186.201144 200.723885 
L 186.201144 184.627448 
L 183.274059 184.627448 
z
" style="fill:#ffa500;"/>
   </g>
   <g id="patch_73">
    <path clip-path="url(#p5f0984d0eb)" d="M 186.201144 200.723885 
L 189.12823 200.723885 
L 189.12823 192.675666 
L 186.201144 192.675666 
z
" style="fill:#ffa500;"/>
   </g>
   <g id="patch_74">
    <path clip-path="url(#p5f0984d0eb)" d="M 189.12823 200.723885 
L 192.055315 200.723885 
L 192.055315 184.627448 
L 189.12823 184.627448 
z
" style="fill:#ffa500;"/>
   </g>
   <g id="patch_75">
    <path clip-path="url(#p5f0984d0eb)" d="M 192.055315 200.723885 
L 194.9824 200.723885 
L 194.9824 184.627448 
L 192.055315 184.627448 
z
" style="fill:#ffa500;"/>
   </g>
   <g id="patch_76">
    <path clip-path="url(#p5f0984d0eb)" d="M 194.9824 200.723885 
L 197.909485 200.723885 
L 197.909485 184.627448 
L 194.9824 184.627448 
z
" style="fill:#ffa500;"/>
   </g>
   <g id="patch_77">
    <path clip-path="url(#p5f0984d0eb)" d="M 197.909485 200.723885 
L 200.83657 200.723885 
L 200.83657 180.603338 
L 197.909485 180.603338 
z
" style="fill:#ffa500;"/>
   </g>
   <g id="patch_78">
    <path clip-path="url(#p5f0984d0eb)" d="M 200.83657 200.723885 
L 203.763655 200.723885 
L 203.763655 200.723885 
L 200.83657 200.723885 
z
" style="fill:#ffa500;"/>
   </g>
   <g id="patch_79">
    <path clip-path="url(#p5f0984d0eb)" d="M 203.763655 200.723885 
L 206.69074 200.723885 
L 206.69074 192.675666 
L 203.763655 192.675666 
z
" style="fill:#ffa500;"/>
   </g>
   <g id="patch_80">
    <path clip-path="url(#p5f0984d0eb)" d="M 206.69074 200.723885 
L 209.617825 200.723885 
L 209.617825 188.651557 
L 206.69074 188.651557 
z
" style="fill:#ffa500;"/>
   </g>
   <g id="patch_81">
    <path clip-path="url(#p5f0984d0eb)" d="M 209.617825 200.723885 
L 212.544911 200.723885 
L 212.544911 196.699776 
L 209.617825 196.699776 
z
" style="fill:#ffa500;"/>
   </g>
   <g id="patch_82">
    <path clip-path="url(#p5f0984d0eb)" d="M 212.544911 200.723885 
L 215.471996 200.723885 
L 215.471996 196.699776 
L 212.544911 196.699776 
z
" style="fill:#ffa500;"/>
   </g>
   <g id="patch_83">
    <path clip-path="url(#p5f0984d0eb)" d="M 215.471996 200.723885 
L 218.399081 200.723885 
L 218.399081 188.651557 
L 215.471996 188.651557 
z
" style="fill:#ffa500;"/>
   </g>
   <g id="patch_84">
    <path clip-path="url(#p5f0984d0eb)" d="M 218.399081 200.723885 
L 221.326166 200.723885 
L 221.326166 192.675666 
L 218.399081 192.675666 
z
" style="fill:#ffa500;"/>
   </g>
   <g id="patch_85">
    <path clip-path="url(#p5f0984d0eb)" d="M 221.326166 200.723885 
L 224.253251 200.723885 
L 224.253251 200.723885 
L 221.326166 200.723885 
z
" style="fill:#ffa500;"/>
   </g>
   <g id="patch_86">
    <path clip-path="url(#p5f0984d0eb)" d="M 224.253251 200.723885 
L 227.180336 200.723885 
L 227.180336 192.675666 
L 224.253251 192.675666 
z
" style="fill:#ffa500;"/>
   </g>
   <g id="patch_87">
    <path clip-path="url(#p5f0984d0eb)" d="M 227.180336 200.723885 
L 230.107421 200.723885 
L 230.107421 196.699776 
L 227.180336 196.699776 
z
" style="fill:#ffa500;"/>
   </g>
   <g id="patch_88">
    <path clip-path="url(#p5f0984d0eb)" d="M 230.107421 200.723885 
L 233.034506 200.723885 
L 233.034506 184.627448 
L 230.107421 184.627448 
z
" style="fill:#ffa500;"/>
   </g>
   <g id="patch_89">
    <path clip-path="url(#p5f0984d0eb)" d="M 233.034506 200.723885 
L 235.961592 200.723885 
L 235.961592 200.723885 
L 233.034506 200.723885 
z
" style="fill:#ffa500;"/>
   </g>
   <g id="patch_90">
    <path clip-path="url(#p5f0984d0eb)" d="M 235.961592 200.723885 
L 238.888677 200.723885 
L 238.888677 192.675666 
L 235.961592 192.675666 
z
" style="fill:#ffa500;"/>
   </g>
   <g id="patch_91">
    <path clip-path="url(#p5f0984d0eb)" d="M 238.888677 200.723885 
L 241.815762 200.723885 
L 241.815762 196.699776 
L 238.888677 196.699776 
z
" style="fill:#ffa500;"/>
   </g>
   <g id="patch_92">
    <path clip-path="url(#p5f0984d0eb)" d="M 241.815762 200.723885 
L 244.742847 200.723885 
L 244.742847 192.675666 
L 241.815762 192.675666 
z
" style="fill:#ffa500;"/>
   </g>
   <g id="patch_93">
    <path clip-path="url(#p5f0984d0eb)" d="M 244.742847 200.723885 
L 247.669932 200.723885 
L 247.669932 192.675666 
L 244.742847 192.675666 
z
" style="fill:#ffa500;"/>
   </g>
   <g id="matplotlib.axis_1">
    <g id="xtick_1">
     <g id="line2d_1">
      <defs>
       <path d="M 0 0 
L 0 3.5 
" id="me050fc7f35" style="stroke:#000000;stroke-width:0.8;"/>
      </defs>
      <g>
       <use style="stroke:#000000;stroke-width:0.8;" x="49.836361" xlink:href="#me050fc7f35" y="200.723885"/>
      </g>
     </g>
     <g id="text_1">
      <!-- 0 -->
      <defs>
       <path d="M 31.78125 66.40625 
Q 24.171875 66.40625 20.328125 58.90625 
Q 16.5 51.421875 16.5 36.375 
Q 16.5 21.390625 20.328125 13.890625 
Q 24.171875 6.390625 31.78125 6.390625 
Q 39.453125 6.390625 43.28125 13.890625 
Q 47.125 21.390625 47.125 36.375 
Q 47.125 51.421875 43.28125 58.90625 
Q 39.453125 66.40625 31.78125 66.40625 
z
M 31.78125 74.21875 
Q 44.046875 74.21875 50.515625 64.515625 
Q 56.984375 54.828125 56.984375 36.375 
Q 56.984375 17.96875 50.515625 8.265625 
Q 44.046875 -1.421875 31.78125 -1.421875 
Q 19.53125 -1.421875 13.0625 8.265625 
Q 6.59375 17.96875 6.59375 36.375 
Q 6.59375 54.828125 13.0625 64.515625 
Q 19.53125 74.21875 31.78125 74.21875 
z
" id="DejaVuSans-48"/>
      </defs>
      <g transform="translate(46.655111 215.322322)scale(0.1 -0.1)">
       <use xlink:href="#DejaVuSans-48"/>
      </g>
     </g>
    </g>
    <g id="xtick_2">
     <g id="line2d_2">
      <g>
       <use style="stroke:#000000;stroke-width:0.8;" x="108.378064" xlink:href="#me050fc7f35" y="200.723885"/>
      </g>
     </g>
     <g id="text_2">
      <!-- 1 -->
      <defs>
       <path d="M 12.40625 8.296875 
L 28.515625 8.296875 
L 28.515625 63.921875 
L 10.984375 60.40625 
L 10.984375 69.390625 
L 28.421875 72.90625 
L 38.28125 72.90625 
L 38.28125 8.296875 
L 54.390625 8.296875 
L 54.390625 0 
L 12.40625 0 
z
" id="DejaVuSans-49"/>
      </defs>
      <g transform="translate(105.196814 215.322322)scale(0.1 -0.1)">
       <use xlink:href="#DejaVuSans-49"/>
      </g>
     </g>
    </g>
    <g id="xtick_3">
     <g id="line2d_3">
      <g>
       <use style="stroke:#000000;stroke-width:0.8;" x="166.919766" xlink:href="#me050fc7f35" y="200.723885"/>
      </g>
     </g>
     <g id="text_3">
      <!-- 2 -->
      <defs>
       <path d="M 19.1875 8.296875 
L 53.609375 8.296875 
L 53.609375 0 
L 7.328125 0 
L 7.328125 8.296875 
Q 12.9375 14.109375 22.625 23.890625 
Q 32.328125 33.6875 34.8125 36.53125 
Q 39.546875 41.84375 41.421875 45.53125 
Q 43.3125 49.21875 43.3125 52.78125 
Q 43.3125 58.59375 39.234375 62.25 
Q 35.15625 65.921875 28.609375 65.921875 
Q 23.96875 65.921875 18.8125 64.3125 
Q 13.671875 62.703125 7.8125 59.421875 
L 7.8125 69.390625 
Q 13.765625 71.78125 18.9375 73 
Q 24.125 74.21875 28.421875 74.21875 
Q 39.75 74.21875 46.484375 68.546875 
Q 53.21875 62.890625 53.21875 53.421875 
Q 53.21875 48.921875 51.53125 44.890625 
Q 49.859375 40.875 45.40625 35.40625 
Q 44.1875 33.984375 37.640625 27.21875 
Q 31.109375 20.453125 19.1875 8.296875 
z
" id="DejaVuSans-50"/>
      </defs>
      <g transform="translate(163.738516 215.322322)scale(0.1 -0.1)">
       <use xlink:href="#DejaVuSans-50"/>
      </g>
     </g>
    </g>
    <g id="xtick_4">
     <g id="line2d_4">
      <g>
       <use style="stroke:#000000;stroke-width:0.8;" x="225.461469" xlink:href="#me050fc7f35" y="200.723885"/>
      </g>
     </g>
     <g id="text_4">
      <!-- 3 -->
      <defs>
       <path d="M 40.578125 39.3125 
Q 47.65625 37.796875 51.625 33 
Q 55.609375 28.21875 55.609375 21.1875 
Q 55.609375 10.40625 48.1875 4.484375 
Q 40.765625 -1.421875 27.09375 -1.421875 
Q 22.515625 -1.421875 17.65625 -0.515625 
Q 12.796875 0.390625 7.625 2.203125 
L 7.625 11.71875 
Q 11.71875 9.328125 16.59375 8.109375 
Q 21.484375 6.890625 26.8125 6.890625 
Q 36.078125 6.890625 40.9375 10.546875 
Q 45.796875 14.203125 45.796875 21.1875 
Q 45.796875 27.640625 41.28125 31.265625 
Q 36.765625 34.90625 28.71875 34.90625 
L 20.21875 34.90625 
L 20.21875 43.015625 
L 29.109375 43.015625 
Q 36.375 43.015625 40.234375 45.921875 
Q 44.09375 48.828125 44.09375 54.296875 
Q 44.09375 59.90625 40.109375 62.90625 
Q 36.140625 65.921875 28.71875 65.921875 
Q 24.65625 65.921875 20.015625 65.03125 
Q 15.375 64.15625 9.8125 62.3125 
L 9.8125 71.09375 
Q 15.4375 72.65625 20.34375 73.4375 
Q 25.25 74.21875 29.59375 74.21875 
Q 40.828125 74.21875 47.359375 69.109375 
Q 53.90625 64.015625 53.90625 55.328125 
Q 53.90625 49.265625 50.4375 45.09375 
Q 46.96875 40.921875 40.578125 39.3125 
z
" id="DejaVuSans-51"/>
      </defs>
      <g transform="translate(222.280219 215.322322)scale(0.1 -0.1)">
       <use xlink:href="#DejaVuSans-51"/>
      </g>
     </g>
    </g>
    <g id="xtick_5">
     <g id="line2d_5">
      <g>
       <use style="stroke:#000000;stroke-width:0.8;" x="284.003171" xlink:href="#me050fc7f35" y="200.723885"/>
      </g>
     </g>
     <g id="text_5">
      <!-- 4 -->
      <defs>
       <path d="M 37.796875 64.3125 
L 12.890625 25.390625 
L 37.796875 25.390625 
z
M 35.203125 72.90625 
L 47.609375 72.90625 
L 47.609375 25.390625 
L 58.015625 25.390625 
L 58.015625 17.1875 
L 47.609375 17.1875 
L 47.609375 0 
L 37.796875 0 
L 37.796875 17.1875 
L 4.890625 17.1875 
L 4.890625 26.703125 
z
" id="DejaVuSans-52"/>
      </defs>
      <g transform="translate(280.821921 215.322322)scale(0.1 -0.1)">
       <use xlink:href="#DejaVuSans-52"/>
      </g>
     </g>
    </g>
    <g id="text_6">
     <!-- log(RFU) -->
     <defs>
      <path d="M 9.421875 75.984375 
L 18.40625 75.984375 
L 18.40625 0 
L 9.421875 0 
z
" id="DejaVuSans-108"/>
      <path d="M 30.609375 48.390625 
Q 23.390625 48.390625 19.1875 42.75 
Q 14.984375 37.109375 14.984375 27.296875 
Q 14.984375 17.484375 19.15625 11.84375 
Q 23.34375 6.203125 30.609375 6.203125 
Q 37.796875 6.203125 41.984375 11.859375 
Q 46.1875 17.53125 46.1875 27.296875 
Q 46.1875 37.015625 41.984375 42.703125 
Q 37.796875 48.390625 30.609375 48.390625 
z
M 30.609375 56 
Q 42.328125 56 49.015625 48.375 
Q 55.71875 40.765625 55.71875 27.296875 
Q 55.71875 13.875 49.015625 6.21875 
Q 42.328125 -1.421875 30.609375 -1.421875 
Q 18.84375 -1.421875 12.171875 6.21875 
Q 5.515625 13.875 5.515625 27.296875 
Q 5.515625 40.765625 12.171875 48.375 
Q 18.84375 56 30.609375 56 
z
" id="DejaVuSans-111"/>
      <path d="M 45.40625 27.984375 
Q 45.40625 37.75 41.375 43.109375 
Q 37.359375 48.484375 30.078125 48.484375 
Q 22.859375 48.484375 18.828125 43.109375 
Q 14.796875 37.75 14.796875 27.984375 
Q 14.796875 18.265625 18.828125 12.890625 
Q 22.859375 7.515625 30.078125 7.515625 
Q 37.359375 7.515625 41.375 12.890625 
Q 45.40625 18.265625 45.40625 27.984375 
z
M 54.390625 6.78125 
Q 54.390625 -7.171875 48.1875 -13.984375 
Q 42 -20.796875 29.203125 -20.796875 
Q 24.46875 -20.796875 20.265625 -20.09375 
Q 16.0625 -19.390625 12.109375 -17.921875 
L 12.109375 -9.1875 
Q 16.0625 -11.328125 19.921875 -12.34375 
Q 23.78125 -13.375 27.78125 -13.375 
Q 36.625 -13.375 41.015625 -8.765625 
Q 45.40625 -4.15625 45.40625 5.171875 
L 45.40625 9.625 
Q 42.625 4.78125 38.28125 2.390625 
Q 33.9375 0 27.875 0 
Q 17.828125 0 11.671875 7.65625 
Q 5.515625 15.328125 5.515625 27.984375 
Q 5.515625 40.671875 11.671875 48.328125 
Q 17.828125 56 27.875 56 
Q 33.9375 56 38.28125 53.609375 
Q 42.625 51.21875 45.40625 46.390625 
L 45.40625 54.6875 
L 54.390625 54.6875 
z
" id="DejaVuSans-103"/>
      <path d="M 31 75.875 
Q 24.46875 64.65625 21.28125 53.65625 
Q 18.109375 42.671875 18.109375 31.390625 
Q 18.109375 20.125 21.3125 9.0625 
Q 24.515625 -2 31 -13.1875 
L 23.1875 -13.1875 
Q 15.875 -1.703125 12.234375 9.375 
Q 8.59375 20.453125 8.59375 31.390625 
Q 8.59375 42.28125 12.203125 53.3125 
Q 15.828125 64.359375 23.1875 75.875 
z
" id="DejaVuSans-40"/>
      <path d="M 44.390625 34.1875 
Q 47.5625 33.109375 50.5625 29.59375 
Q 53.5625 26.078125 56.59375 19.921875 
L 66.609375 0 
L 56 0 
L 46.6875 18.703125 
Q 43.0625 26.03125 39.671875 28.421875 
Q 36.28125 30.8125 30.421875 30.8125 
L 19.671875 30.8125 
L 19.671875 0 
L 9.8125 0 
L 9.8125 72.90625 
L 32.078125 72.90625 
Q 44.578125 72.90625 50.734375 67.671875 
Q 56.890625 62.453125 56.890625 51.90625 
Q 56.890625 45.015625 53.6875 40.46875 
Q 50.484375 35.9375 44.390625 34.1875 
z
M 19.671875 64.796875 
L 19.671875 38.921875 
L 32.078125 38.921875 
Q 39.203125 38.921875 42.84375 42.21875 
Q 46.484375 45.515625 46.484375 51.90625 
Q 46.484375 58.296875 42.84375 61.546875 
Q 39.203125 64.796875 32.078125 64.796875 
z
" id="DejaVuSans-82"/>
      <path d="M 9.8125 72.90625 
L 51.703125 72.90625 
L 51.703125 64.59375 
L 19.671875 64.59375 
L 19.671875 43.109375 
L 48.578125 43.109375 
L 48.578125 34.8125 
L 19.671875 34.8125 
L 19.671875 0 
L 9.8125 0 
z
" id="DejaVuSans-70"/>
      <path d="M 8.6875 72.90625 
L 18.609375 72.90625 
L 18.609375 28.609375 
Q 18.609375 16.890625 22.84375 11.734375 
Q 27.09375 6.59375 36.625 6.59375 
Q 46.09375 6.59375 50.34375 11.734375 
Q 54.59375 16.890625 54.59375 28.609375 
L 54.59375 72.90625 
L 64.5 72.90625 
L 64.5 27.390625 
Q 64.5 13.140625 57.4375 5.859375 
Q 50.390625 -1.421875 36.625 -1.421875 
Q 22.796875 -1.421875 15.734375 5.859375 
Q 8.6875 13.140625 8.6875 27.390625 
z
" id="DejaVuSans-85"/>
      <path d="M 8.015625 75.875 
L 15.828125 75.875 
Q 23.140625 64.359375 26.78125 53.3125 
Q 30.421875 42.28125 30.421875 31.390625 
Q 30.421875 20.453125 26.78125 9.375 
Q 23.140625 -1.703125 15.828125 -13.1875 
L 8.015625 -13.1875 
Q 14.5 -2 17.703125 9.0625 
Q 20.90625 20.125 20.90625 31.390625 
Q 20.90625 42.671875 17.703125 53.65625 
Q 14.5 64.65625 8.015625 75.875 
z
" id="DejaVuSans-41"/>
     </defs>
     <g transform="translate(162.632731 229.000447)scale(0.1 -0.1)">
      <use xlink:href="#DejaVuSans-108"/>
      <use x="27.783203" xlink:href="#DejaVuSans-111"/>
      <use x="88.964844" xlink:href="#DejaVuSans-103"/>
      <use x="152.441406" xlink:href="#DejaVuSans-40"/>
      <use x="191.455078" xlink:href="#DejaVuSans-82"/>
      <use x="260.9375" xlink:href="#DejaVuSans-70"/>
      <use x="318.457031" xlink:href="#DejaVuSans-85"/>
      <use x="391.650391" xlink:href="#DejaVuSans-41"/>
     </g>
    </g>
   </g>
   <g id="matplotlib.axis_2">
    <g id="ytick_1">
     <g id="line2d_6">
      <defs>
       <path d="M 0 0 
L -3.5 0 
" id="m1b62c82e3c" style="stroke:#000000;stroke-width:0.8;"/>
      </defs>
      <g>
       <use style="stroke:#000000;stroke-width:0.8;" x="36.403365" xlink:href="#m1b62c82e3c" y="200.723885"/>
      </g>
     </g>
     <g id="text_7">
      <!-- 0 -->
      <g transform="translate(23.040865 204.523104)scale(0.1 -0.1)">
       <use xlink:href="#DejaVuSans-48"/>
      </g>
     </g>
    </g>
    <g id="ytick_2">
     <g id="line2d_7">
      <g>
       <use style="stroke:#000000;stroke-width:0.8;" x="36.403365" xlink:href="#m1b62c82e3c" y="160.482792"/>
      </g>
     </g>
     <g id="text_8">
      <!-- 10 -->
      <g transform="translate(16.678365 164.282011)scale(0.1 -0.1)">
       <use xlink:href="#DejaVuSans-49"/>
       <use x="63.623047" xlink:href="#DejaVuSans-48"/>
      </g>
     </g>
    </g>
    <g id="ytick_3">
     <g id="line2d_8">
      <g>
       <use style="stroke:#000000;stroke-width:0.8;" x="36.403365" xlink:href="#m1b62c82e3c" y="120.241699"/>
      </g>
     </g>
     <g id="text_9">
      <!-- 20 -->
      <g transform="translate(16.678365 124.040918)scale(0.1 -0.1)">
       <use xlink:href="#DejaVuSans-50"/>
       <use x="63.623047" xlink:href="#DejaVuSans-48"/>
      </g>
     </g>
    </g>
    <g id="ytick_4">
     <g id="line2d_9">
      <g>
       <use style="stroke:#000000;stroke-width:0.8;" x="36.403365" xlink:href="#m1b62c82e3c" y="80.000606"/>
      </g>
     </g>
     <g id="text_10">
      <!-- 30 -->
      <g transform="translate(16.678365 83.799824)scale(0.1 -0.1)">
       <use xlink:href="#DejaVuSans-51"/>
       <use x="63.623047" xlink:href="#DejaVuSans-48"/>
      </g>
     </g>
    </g>
    <g id="text_11">
     <!-- Counts -->
     <defs>
      <path d="M 64.40625 67.28125 
L 64.40625 56.890625 
Q 59.421875 61.53125 53.78125 63.8125 
Q 48.140625 66.109375 41.796875 66.109375 
Q 29.296875 66.109375 22.65625 58.46875 
Q 16.015625 50.828125 16.015625 36.375 
Q 16.015625 21.96875 22.65625 14.328125 
Q 29.296875 6.6875 41.796875 6.6875 
Q 48.140625 6.6875 53.78125 8.984375 
Q 59.421875 11.28125 64.40625 15.921875 
L 64.40625 5.609375 
Q 59.234375 2.09375 53.4375 0.328125 
Q 47.65625 -1.421875 41.21875 -1.421875 
Q 24.65625 -1.421875 15.125 8.703125 
Q 5.609375 18.84375 5.609375 36.375 
Q 5.609375 53.953125 15.125 64.078125 
Q 24.65625 74.21875 41.21875 74.21875 
Q 47.75 74.21875 53.53125 72.484375 
Q 59.328125 70.75 64.40625 67.28125 
z
" id="DejaVuSans-67"/>
      <path d="M 8.5 21.578125 
L 8.5 54.6875 
L 17.484375 54.6875 
L 17.484375 21.921875 
Q 17.484375 14.15625 20.5 10.265625 
Q 23.53125 6.390625 29.59375 6.390625 
Q 36.859375 6.390625 41.078125 11.03125 
Q 45.3125 15.671875 45.3125 23.6875 
L 45.3125 54.6875 
L 54.296875 54.6875 
L 54.296875 0 
L 45.3125 0 
L 45.3125 8.40625 
Q 42.046875 3.421875 37.71875 1 
Q 33.40625 -1.421875 27.6875 -1.421875 
Q 18.265625 -1.421875 13.375 4.4375 
Q 8.5 10.296875 8.5 21.578125 
z
M 31.109375 56 
z
" id="DejaVuSans-117"/>
      <path d="M 54.890625 33.015625 
L 54.890625 0 
L 45.90625 0 
L 45.90625 32.71875 
Q 45.90625 40.484375 42.875 44.328125 
Q 39.84375 48.1875 33.796875 48.1875 
Q 26.515625 48.1875 22.3125 43.546875 
Q 18.109375 38.921875 18.109375 30.90625 
L 18.109375 0 
L 9.078125 0 
L 9.078125 54.6875 
L 18.109375 54.6875 
L 18.109375 46.1875 
Q 21.34375 51.125 25.703125 53.5625 
Q 30.078125 56 35.796875 56 
Q 45.21875 56 50.046875 50.171875 
Q 54.890625 44.34375 54.890625 33.015625 
z
" id="DejaVuSans-110"/>
      <path d="M 18.3125 70.21875 
L 18.3125 54.6875 
L 36.8125 54.6875 
L 36.8125 47.703125 
L 18.3125 47.703125 
L 18.3125 18.015625 
Q 18.3125 11.328125 20.140625 9.421875 
Q 21.96875 7.515625 27.59375 7.515625 
L 36.8125 7.515625 
L 36.8125 0 
L 27.59375 0 
Q 17.1875 0 13.234375 3.875 
Q 9.28125 7.765625 9.28125 18.015625 
L 9.28125 47.703125 
L 2.6875 47.703125 
L 2.6875 54.6875 
L 9.28125 54.6875 
L 9.28125 70.21875 
z
" id="DejaVuSans-116"/>
      <path d="M 44.28125 53.078125 
L 44.28125 44.578125 
Q 40.484375 46.53125 36.375 47.5 
Q 32.28125 48.484375 27.875 48.484375 
Q 21.1875 48.484375 17.84375 46.4375 
Q 14.5 44.390625 14.5 40.28125 
Q 14.5 37.15625 16.890625 35.375 
Q 19.28125 33.59375 26.515625 31.984375 
L 29.59375 31.296875 
Q 39.15625 29.25 43.1875 25.515625 
Q 47.21875 21.78125 47.21875 15.09375 
Q 47.21875 7.46875 41.1875 3.015625 
Q 35.15625 -1.421875 24.609375 -1.421875 
Q 20.21875 -1.421875 15.453125 -0.5625 
Q 10.6875 0.296875 5.421875 2 
L 5.421875 11.28125 
Q 10.40625 8.6875 15.234375 7.390625 
Q 20.0625 6.109375 24.8125 6.109375 
Q 31.15625 6.109375 34.5625 8.28125 
Q 37.984375 10.453125 37.984375 14.40625 
Q 37.984375 18.0625 35.515625 20.015625 
Q 33.0625 21.96875 24.703125 23.78125 
L 21.578125 24.515625 
Q 13.234375 26.265625 9.515625 29.90625 
Q 5.8125 33.546875 5.8125 39.890625 
Q 5.8125 47.609375 11.28125 51.796875 
Q 16.75 56 26.8125 56 
Q 31.78125 56 36.171875 55.265625 
Q 40.578125 54.546875 44.28125 53.078125 
z
" id="DejaVuSans-115"/>
     </defs>
     <g transform="translate(10.598678 154.797288)rotate(-90)scale(0.1 -0.1)">
      <use xlink:href="#DejaVuSans-67"/>
      <use x="69.824219" xlink:href="#DejaVuSans-111"/>
      <use x="131.005859" xlink:href="#DejaVuSans-117"/>
      <use x="194.384766" xlink:href="#DejaVuSans-110"/>
      <use x="257.763672" xlink:href="#DejaVuSans-116"/>
      <use x="296.972656" xlink:href="#DejaVuSans-115"/>
     </g>
    </g>
   </g>
   <g id="patch_94">
    <path d="M 36.403365 200.723885 
L 36.403365 73.964442 
" style="fill:none;stroke:#000000;stroke-linecap:square;stroke-linejoin:miter;stroke-width:0.8;"/>
   </g>
   <g id="patch_95">
    <path d="M 331.929285 200.723885 
L 331.929285 73.964442 
" style="fill:none;stroke:#000000;stroke-linecap:square;stroke-linejoin:miter;stroke-width:0.8;"/>
   </g>
   <g id="patch_96">
    <path d="M 36.403365 200.723885 
L 331.929285 200.723885 
" style="fill:none;stroke:#000000;stroke-linecap:square;stroke-linejoin:miter;stroke-width:0.8;"/>
   </g>
   <g id="patch_97">
    <path d="M 36.403365 73.964442 
L 331.929285 73.964442 
" style="fill:none;stroke:#000000;stroke-linecap:square;stroke-linejoin:miter;stroke-width:0.8;"/>
   </g>
  </g>
  <g id="axes_2">
   <g id="patch_98">
    <path d="M 36.403365 439.907885 
L 230.652485 439.907885 
L 230.652485 240.60024 
L 36.403365 240.60024 
z
" style="fill:#ffffff;"/>
   </g>
   <g id="patch_99">
    <path clip-path="url(#pd09fce6aef)" d="M 36.403365 430.848447 
L 136.544897 430.848447 
L 136.544897 379.080227 
L 36.403365 379.080227 
z
" style="fill:#1f77b4;"/>
   </g>
   <g id="patch_100">
    <path clip-path="url(#pd09fce6aef)" d="M 36.403365 366.138172 
L 181.165477 366.138172 
L 181.165477 314.369953 
L 36.403365 314.369953 
z
" style="fill:#1f77b4;"/>
   </g>
   <g id="patch_101">
    <path clip-path="url(#pd09fce6aef)" d="M 36.403365 301.427898 
L 221.402527 301.427898 
L 221.402527 249.659678 
L 36.403365 249.659678 
z
" style="fill:#1f77b4;"/>
   </g>
   <g id="matplotlib.axis_3">
    <g id="xtick_6">
     <g id="line2d_10">
      <g>
       <use style="stroke:#000000;stroke-width:0.8;" x="36.403365" xlink:href="#me050fc7f35" y="439.907885"/>
      </g>
     </g>
     <g id="text_12">
      <!-- 0 -->
      <g transform="translate(33.222115 454.506323)scale(0.1 -0.1)">
       <use xlink:href="#DejaVuSans-48"/>
      </g>
     </g>
    </g>
    <g id="xtick_7">
     <g id="line2d_11">
      <g>
       <use style="stroke:#000000;stroke-width:0.8;" x="79.582487" xlink:href="#me050fc7f35" y="439.907885"/>
      </g>
     </g>
     <g id="text_13">
      <!-- 1 -->
      <g transform="translate(76.401237 454.506323)scale(0.1 -0.1)">
       <use xlink:href="#DejaVuSans-49"/>
      </g>
     </g>
    </g>
    <g id="xtick_8">
     <g id="line2d_12">
      <g>
       <use style="stroke:#000000;stroke-width:0.8;" x="122.76161" xlink:href="#me050fc7f35" y="439.907885"/>
      </g>
     </g>
     <g id="text_14">
      <!-- 2 -->
      <g transform="translate(119.58036 454.506323)scale(0.1 -0.1)">
       <use xlink:href="#DejaVuSans-50"/>
      </g>
     </g>
    </g>
    <g id="xtick_9">
     <g id="line2d_13">
      <g>
       <use style="stroke:#000000;stroke-width:0.8;" x="165.940732" xlink:href="#me050fc7f35" y="439.907885"/>
      </g>
     </g>
     <g id="text_15">
      <!-- 3 -->
      <g transform="translate(162.759482 454.506323)scale(0.1 -0.1)">
       <use xlink:href="#DejaVuSans-51"/>
      </g>
     </g>
    </g>
    <g id="xtick_10">
     <g id="line2d_14">
      <g>
       <use style="stroke:#000000;stroke-width:0.8;" x="209.119855" xlink:href="#me050fc7f35" y="439.907885"/>
      </g>
     </g>
     <g id="text_16">
      <!-- 4 -->
      <g transform="translate(205.938605 454.506323)scale(0.1 -0.1)">
       <use xlink:href="#DejaVuSans-52"/>
      </g>
     </g>
    </g>
    <g id="text_17">
     <!-- Model Coefficient -->
     <defs>
      <path d="M 9.8125 72.90625 
L 24.515625 72.90625 
L 43.109375 23.296875 
L 61.8125 72.90625 
L 76.515625 72.90625 
L 76.515625 0 
L 66.890625 0 
L 66.890625 64.015625 
L 48.09375 14.015625 
L 38.1875 14.015625 
L 19.390625 64.015625 
L 19.390625 0 
L 9.8125 0 
z
" id="DejaVuSans-77"/>
      <path d="M 45.40625 46.390625 
L 45.40625 75.984375 
L 54.390625 75.984375 
L 54.390625 0 
L 45.40625 0 
L 45.40625 8.203125 
Q 42.578125 3.328125 38.25 0.953125 
Q 33.9375 -1.421875 27.875 -1.421875 
Q 17.96875 -1.421875 11.734375 6.484375 
Q 5.515625 14.40625 5.515625 27.296875 
Q 5.515625 40.1875 11.734375 48.09375 
Q 17.96875 56 27.875 56 
Q 33.9375 56 38.25 53.625 
Q 42.578125 51.265625 45.40625 46.390625 
z
M 14.796875 27.296875 
Q 14.796875 17.390625 18.875 11.75 
Q 22.953125 6.109375 30.078125 6.109375 
Q 37.203125 6.109375 41.296875 11.75 
Q 45.40625 17.390625 45.40625 27.296875 
Q 45.40625 37.203125 41.296875 42.84375 
Q 37.203125 48.484375 30.078125 48.484375 
Q 22.953125 48.484375 18.875 42.84375 
Q 14.796875 37.203125 14.796875 27.296875 
z
" id="DejaVuSans-100"/>
      <path d="M 56.203125 29.59375 
L 56.203125 25.203125 
L 14.890625 25.203125 
Q 15.484375 15.921875 20.484375 11.0625 
Q 25.484375 6.203125 34.421875 6.203125 
Q 39.59375 6.203125 44.453125 7.46875 
Q 49.3125 8.734375 54.109375 11.28125 
L 54.109375 2.78125 
Q 49.265625 0.734375 44.1875 -0.34375 
Q 39.109375 -1.421875 33.890625 -1.421875 
Q 20.796875 -1.421875 13.15625 6.1875 
Q 5.515625 13.8125 5.515625 26.8125 
Q 5.515625 40.234375 12.765625 48.109375 
Q 20.015625 56 32.328125 56 
Q 43.359375 56 49.78125 48.890625 
Q 56.203125 41.796875 56.203125 29.59375 
z
M 47.21875 32.234375 
Q 47.125 39.59375 43.09375 43.984375 
Q 39.0625 48.390625 32.421875 48.390625 
Q 24.90625 48.390625 20.390625 44.140625 
Q 15.875 39.890625 15.1875 32.171875 
z
" id="DejaVuSans-101"/>
      <path id="DejaVuSans-32"/>
      <path d="M 37.109375 75.984375 
L 37.109375 68.5 
L 28.515625 68.5 
Q 23.6875 68.5 21.796875 66.546875 
Q 19.921875 64.59375 19.921875 59.515625 
L 19.921875 54.6875 
L 34.71875 54.6875 
L 34.71875 47.703125 
L 19.921875 47.703125 
L 19.921875 0 
L 10.890625 0 
L 10.890625 47.703125 
L 2.296875 47.703125 
L 2.296875 54.6875 
L 10.890625 54.6875 
L 10.890625 58.5 
Q 10.890625 67.625 15.140625 71.796875 
Q 19.390625 75.984375 28.609375 75.984375 
z
" id="DejaVuSans-102"/>
      <path d="M 9.421875 54.6875 
L 18.40625 54.6875 
L 18.40625 0 
L 9.421875 0 
z
M 9.421875 75.984375 
L 18.40625 75.984375 
L 18.40625 64.59375 
L 9.421875 64.59375 
z
" id="DejaVuSans-105"/>
      <path d="M 48.78125 52.59375 
L 48.78125 44.1875 
Q 44.96875 46.296875 41.140625 47.34375 
Q 37.3125 48.390625 33.40625 48.390625 
Q 24.65625 48.390625 19.8125 42.84375 
Q 14.984375 37.3125 14.984375 27.296875 
Q 14.984375 17.28125 19.8125 11.734375 
Q 24.65625 6.203125 33.40625 6.203125 
Q 37.3125 6.203125 41.140625 7.25 
Q 44.96875 8.296875 48.78125 10.40625 
L 48.78125 2.09375 
Q 45.015625 0.34375 40.984375 -0.53125 
Q 36.96875 -1.421875 32.421875 -1.421875 
Q 20.0625 -1.421875 12.78125 6.34375 
Q 5.515625 14.109375 5.515625 27.296875 
Q 5.515625 40.671875 12.859375 48.328125 
Q 20.21875 56 33.015625 56 
Q 37.15625 56 41.109375 55.140625 
Q 45.0625 54.296875 48.78125 52.59375 
z
" id="DejaVuSans-99"/>
     </defs>
     <g transform="translate(81.34855 469.704135)scale(0.12 -0.12)">
      <use xlink:href="#DejaVuSans-77"/>
      <use x="86.279297" xlink:href="#DejaVuSans-111"/>
      <use x="147.460938" xlink:href="#DejaVuSans-100"/>
      <use x="210.9375" xlink:href="#DejaVuSans-101"/>
      <use x="272.460938" xlink:href="#DejaVuSans-108"/>
      <use x="300.244141" xlink:href="#DejaVuSans-32"/>
      <use x="332.03125" xlink:href="#DejaVuSans-67"/>
      <use x="401.855469" xlink:href="#DejaVuSans-111"/>
      <use x="463.037109" xlink:href="#DejaVuSans-101"/>
      <use x="524.560547" xlink:href="#DejaVuSans-102"/>
      <use x="559.765625" xlink:href="#DejaVuSans-102"/>
      <use x="594.970703" xlink:href="#DejaVuSans-105"/>
      <use x="622.753906" xlink:href="#DejaVuSans-99"/>
      <use x="677.734375" xlink:href="#DejaVuSans-105"/>
      <use x="705.517578" xlink:href="#DejaVuSans-101"/>
      <use x="767.041016" xlink:href="#DejaVuSans-110"/>
      <use x="830.419922" xlink:href="#DejaVuSans-116"/>
     </g>
    </g>
   </g>
   <g id="matplotlib.axis_4">
    <g id="ytick_5"/>
    <g id="ytick_6"/>
    <g id="ytick_7"/>
    <g id="ytick_8"/>
    <g id="ytick_9"/>
    <g id="ytick_10"/>
    <g id="ytick_11"/>
    <g id="text_18">
     <!-- Motif -->
     <g transform="translate(22.90774 355.233437)rotate(-90)scale(0.12 -0.12)">
      <use xlink:href="#DejaVuSans-77"/>
      <use x="86.279297" xlink:href="#DejaVuSans-111"/>
      <use x="147.460938" xlink:href="#DejaVuSans-116"/>
      <use x="186.669922" xlink:href="#DejaVuSans-105"/>
      <use x="214.453125" xlink:href="#DejaVuSans-102"/>
     </g>
    </g>
   </g>
   <g id="patch_102">
    <path d="M 36.403365 439.907885 
L 36.403365 240.60024 
" style="fill:none;stroke:#000000;stroke-linecap:square;stroke-linejoin:miter;stroke-width:0.8;"/>
   </g>
   <g id="patch_103">
    <path d="M 230.652485 439.907885 
L 230.652485 240.60024 
" style="fill:none;stroke:#000000;stroke-linecap:square;stroke-linejoin:miter;stroke-width:0.8;"/>
   </g>
   <g id="patch_104">
    <path d="M 36.403365 439.907885 
L 230.652485 439.907885 
" style="fill:none;stroke:#000000;stroke-linecap:square;stroke-linejoin:miter;stroke-width:0.8;"/>
   </g>
   <g id="patch_105">
    <path d="M 36.403365 240.60024 
L 230.652485 240.60024 
" style="fill:none;stroke:#000000;stroke-linecap:square;stroke-linejoin:miter;stroke-width:0.8;"/>
   </g>
  </g>
  <g id="axes_3">
   <g id="patch_106">
    <path d="M 378.75064 439.907885 
L 572.99976 439.907885 
L 572.99976 240.60024 
L 378.75064 240.60024 
z
" style="fill:#ffffff;"/>
   </g>
   <g id="patch_107">
    <path clip-path="url(#p82efc9eba9)" d="M 378.75064 433.264297 
L 563.749802 433.264297 
L 563.749802 380.115591 
L 378.75064 380.115591 
z
" style="fill:#808080;"/>
   </g>
   <g id="patch_108">
    <path clip-path="url(#p82efc9eba9)" d="M 378.75064 366.828415 
L 487.404208 366.828415 
L 487.404208 313.67971 
L 378.75064 313.67971 
z
" style="fill:#808080;"/>
   </g>
   <g id="patch_109">
    <path clip-path="url(#p82efc9eba9)" d="M 378.75064 300.392534 
L 515.246685 300.392534 
L 515.246685 247.243828 
L 378.75064 247.243828 
z
" style="fill:#808080;"/>
   </g>
   <g id="matplotlib.axis_5">
    <g id="xtick_11">
     <g id="line2d_15">
      <g>
       <use style="stroke:#000000;stroke-width:0.8;" x="378.75064" xlink:href="#me050fc7f35" y="439.907885"/>
      </g>
     </g>
     <g id="text_19">
      <!-- 0 -->
      <g transform="translate(375.56939 454.506323)scale(0.1 -0.1)">
       <use xlink:href="#DejaVuSans-48"/>
      </g>
     </g>
    </g>
    <g id="xtick_12">
     <g id="line2d_16">
      <g>
       <use style="stroke:#000000;stroke-width:0.8;" x="424.14643" xlink:href="#me050fc7f35" y="439.907885"/>
      </g>
     </g>
     <g id="text_20">
      <!-- 2 -->
      <g transform="translate(420.96518 454.506323)scale(0.1 -0.1)">
       <use xlink:href="#DejaVuSans-50"/>
      </g>
     </g>
    </g>
    <g id="xtick_13">
     <g id="line2d_17">
      <g>
       <use style="stroke:#000000;stroke-width:0.8;" x="469.54222" xlink:href="#me050fc7f35" y="439.907885"/>
      </g>
     </g>
     <g id="text_21">
      <!-- 4 -->
      <g transform="translate(466.36097 454.506323)scale(0.1 -0.1)">
       <use xlink:href="#DejaVuSans-52"/>
      </g>
     </g>
    </g>
    <g id="xtick_14">
     <g id="line2d_18">
      <g>
       <use style="stroke:#000000;stroke-width:0.8;" x="514.93801" xlink:href="#me050fc7f35" y="439.907885"/>
      </g>
     </g>
     <g id="text_22">
      <!-- 6 -->
      <defs>
       <path d="M 33.015625 40.375 
Q 26.375 40.375 22.484375 35.828125 
Q 18.609375 31.296875 18.609375 23.390625 
Q 18.609375 15.53125 22.484375 10.953125 
Q 26.375 6.390625 33.015625 6.390625 
Q 39.65625 6.390625 43.53125 10.953125 
Q 47.40625 15.53125 47.40625 23.390625 
Q 47.40625 31.296875 43.53125 35.828125 
Q 39.65625 40.375 33.015625 40.375 
z
M 52.59375 71.296875 
L 52.59375 62.3125 
Q 48.875 64.0625 45.09375 64.984375 
Q 41.3125 65.921875 37.59375 65.921875 
Q 27.828125 65.921875 22.671875 59.328125 
Q 17.53125 52.734375 16.796875 39.40625 
Q 19.671875 43.65625 24.015625 45.921875 
Q 28.375 48.1875 33.59375 48.1875 
Q 44.578125 48.1875 50.953125 41.515625 
Q 57.328125 34.859375 57.328125 23.390625 
Q 57.328125 12.15625 50.6875 5.359375 
Q 44.046875 -1.421875 33.015625 -1.421875 
Q 20.359375 -1.421875 13.671875 8.265625 
Q 6.984375 17.96875 6.984375 36.375 
Q 6.984375 53.65625 15.1875 63.9375 
Q 23.390625 74.21875 37.203125 74.21875 
Q 40.921875 74.21875 44.703125 73.484375 
Q 48.484375 72.75 52.59375 71.296875 
z
" id="DejaVuSans-54"/>
      </defs>
      <g transform="translate(511.75676 454.506323)scale(0.1 -0.1)">
       <use xlink:href="#DejaVuSans-54"/>
      </g>
     </g>
    </g>
    <g id="xtick_15">
     <g id="line2d_19">
      <g>
       <use style="stroke:#000000;stroke-width:0.8;" x="560.3338" xlink:href="#me050fc7f35" y="439.907885"/>
      </g>
     </g>
     <g id="text_23">
      <!-- 8 -->
      <defs>
       <path d="M 31.78125 34.625 
Q 24.75 34.625 20.71875 30.859375 
Q 16.703125 27.09375 16.703125 20.515625 
Q 16.703125 13.921875 20.71875 10.15625 
Q 24.75 6.390625 31.78125 6.390625 
Q 38.8125 6.390625 42.859375 10.171875 
Q 46.921875 13.96875 46.921875 20.515625 
Q 46.921875 27.09375 42.890625 30.859375 
Q 38.875 34.625 31.78125 34.625 
z
M 21.921875 38.8125 
Q 15.578125 40.375 12.03125 44.71875 
Q 8.5 49.078125 8.5 55.328125 
Q 8.5 64.0625 14.71875 69.140625 
Q 20.953125 74.21875 31.78125 74.21875 
Q 42.671875 74.21875 48.875 69.140625 
Q 55.078125 64.0625 55.078125 55.328125 
Q 55.078125 49.078125 51.53125 44.71875 
Q 48 40.375 41.703125 38.8125 
Q 48.828125 37.15625 52.796875 32.3125 
Q 56.78125 27.484375 56.78125 20.515625 
Q 56.78125 9.90625 50.3125 4.234375 
Q 43.84375 -1.421875 31.78125 -1.421875 
Q 19.734375 -1.421875 13.25 4.234375 
Q 6.78125 9.90625 6.78125 20.515625 
Q 6.78125 27.484375 10.78125 32.3125 
Q 14.796875 37.15625 21.921875 38.8125 
z
M 18.3125 54.390625 
Q 18.3125 48.734375 21.84375 45.5625 
Q 25.390625 42.390625 31.78125 42.390625 
Q 38.140625 42.390625 41.71875 45.5625 
Q 45.3125 48.734375 45.3125 54.390625 
Q 45.3125 60.0625 41.71875 63.234375 
Q 38.140625 66.40625 31.78125 66.40625 
Q 25.390625 66.40625 21.84375 63.234375 
Q 18.3125 60.0625 18.3125 54.390625 
z
" id="DejaVuSans-56"/>
      </defs>
      <g transform="translate(557.15255 454.506323)scale(0.1 -0.1)">
       <use xlink:href="#DejaVuSans-56"/>
      </g>
     </g>
    </g>
    <g id="text_24">
     <!-- Variance Inflation Factor -->
     <defs>
      <path d="M 28.609375 0 
L 0.78125 72.90625 
L 11.078125 72.90625 
L 34.1875 11.53125 
L 57.328125 72.90625 
L 67.578125 72.90625 
L 39.796875 0 
z
" id="DejaVuSans-86"/>
      <path d="M 34.28125 27.484375 
Q 23.390625 27.484375 19.1875 25 
Q 14.984375 22.515625 14.984375 16.5 
Q 14.984375 11.71875 18.140625 8.90625 
Q 21.296875 6.109375 26.703125 6.109375 
Q 34.1875 6.109375 38.703125 11.40625 
Q 43.21875 16.703125 43.21875 25.484375 
L 43.21875 27.484375 
z
M 52.203125 31.203125 
L 52.203125 0 
L 43.21875 0 
L 43.21875 8.296875 
Q 40.140625 3.328125 35.546875 0.953125 
Q 30.953125 -1.421875 24.3125 -1.421875 
Q 15.921875 -1.421875 10.953125 3.296875 
Q 6 8.015625 6 15.921875 
Q 6 25.140625 12.171875 29.828125 
Q 18.359375 34.515625 30.609375 34.515625 
L 43.21875 34.515625 
L 43.21875 35.40625 
Q 43.21875 41.609375 39.140625 45 
Q 35.0625 48.390625 27.6875 48.390625 
Q 23 48.390625 18.546875 47.265625 
Q 14.109375 46.140625 10.015625 43.890625 
L 10.015625 52.203125 
Q 14.9375 54.109375 19.578125 55.046875 
Q 24.21875 56 28.609375 56 
Q 40.484375 56 46.34375 49.84375 
Q 52.203125 43.703125 52.203125 31.203125 
z
" id="DejaVuSans-97"/>
      <path d="M 41.109375 46.296875 
Q 39.59375 47.171875 37.8125 47.578125 
Q 36.03125 48 33.890625 48 
Q 26.265625 48 22.1875 43.046875 
Q 18.109375 38.09375 18.109375 28.8125 
L 18.109375 0 
L 9.078125 0 
L 9.078125 54.6875 
L 18.109375 54.6875 
L 18.109375 46.1875 
Q 20.953125 51.171875 25.484375 53.578125 
Q 30.03125 56 36.53125 56 
Q 37.453125 56 38.578125 55.875 
Q 39.703125 55.765625 41.0625 55.515625 
z
" id="DejaVuSans-114"/>
      <path d="M 9.8125 72.90625 
L 19.671875 72.90625 
L 19.671875 0 
L 9.8125 0 
z
" id="DejaVuSans-73"/>
     </defs>
     <g transform="translate(402.253325 469.704135)scale(0.12 -0.12)">
      <use xlink:href="#DejaVuSans-86"/>
      <use x="68.298828" xlink:href="#DejaVuSans-97"/>
      <use x="129.578125" xlink:href="#DejaVuSans-114"/>
      <use x="170.691406" xlink:href="#DejaVuSans-105"/>
      <use x="198.474609" xlink:href="#DejaVuSans-97"/>
      <use x="259.753906" xlink:href="#DejaVuSans-110"/>
      <use x="323.132812" xlink:href="#DejaVuSans-99"/>
      <use x="378.113281" xlink:href="#DejaVuSans-101"/>
      <use x="439.636719" xlink:href="#DejaVuSans-32"/>
      <use x="471.423828" xlink:href="#DejaVuSans-73"/>
      <use x="500.916016" xlink:href="#DejaVuSans-110"/>
      <use x="564.294922" xlink:href="#DejaVuSans-102"/>
      <use x="599.5" xlink:href="#DejaVuSans-108"/>
      <use x="627.283203" xlink:href="#DejaVuSans-97"/>
      <use x="688.5625" xlink:href="#DejaVuSans-116"/>
      <use x="727.771484" xlink:href="#DejaVuSans-105"/>
      <use x="755.554688" xlink:href="#DejaVuSans-111"/>
      <use x="816.736328" xlink:href="#DejaVuSans-110"/>
      <use x="880.115234" xlink:href="#DejaVuSans-32"/>
      <use x="911.902344" xlink:href="#DejaVuSans-70"/>
      <use x="969.28125" xlink:href="#DejaVuSans-97"/>
      <use x="1030.560547" xlink:href="#DejaVuSans-99"/>
      <use x="1085.541016" xlink:href="#DejaVuSans-116"/>
      <use x="1124.75" xlink:href="#DejaVuSans-111"/>
      <use x="1185.931641" xlink:href="#DejaVuSans-114"/>
     </g>
    </g>
   </g>
   <g id="matplotlib.axis_6">
    <g id="ytick_12">
     <g id="line2d_20">
      <g>
       <use style="stroke:#000000;stroke-width:0.8;" x="378.75064" xlink:href="#m1b62c82e3c" y="439.907885"/>
      </g>
     </g>
    </g>
    <g id="ytick_13">
     <g id="line2d_21">
      <g>
       <use style="stroke:#000000;stroke-width:0.8;" x="378.75064" xlink:href="#m1b62c82e3c" y="406.689944"/>
      </g>
     </g>
    </g>
    <g id="ytick_14">
     <g id="line2d_22">
      <g>
       <use style="stroke:#000000;stroke-width:0.8;" x="378.75064" xlink:href="#m1b62c82e3c" y="373.472003"/>
      </g>
     </g>
    </g>
    <g id="ytick_15">
     <g id="line2d_23">
      <g>
       <use style="stroke:#000000;stroke-width:0.8;" x="378.75064" xlink:href="#m1b62c82e3c" y="340.254062"/>
      </g>
     </g>
    </g>
    <g id="ytick_16">
     <g id="line2d_24">
      <g>
       <use style="stroke:#000000;stroke-width:0.8;" x="378.75064" xlink:href="#m1b62c82e3c" y="307.036122"/>
      </g>
     </g>
    </g>
    <g id="ytick_17">
     <g id="line2d_25">
      <g>
       <use style="stroke:#000000;stroke-width:0.8;" x="378.75064" xlink:href="#m1b62c82e3c" y="273.818181"/>
      </g>
     </g>
    </g>
    <g id="ytick_18">
     <g id="line2d_26">
      <g>
       <use style="stroke:#000000;stroke-width:0.8;" x="378.75064" xlink:href="#m1b62c82e3c" y="240.60024"/>
      </g>
     </g>
    </g>
    <g id="text_25">
     <!-- Motif -->
     <g transform="translate(365.255015 355.233438)rotate(-90)scale(0.12 -0.12)">
      <use xlink:href="#DejaVuSans-77"/>
      <use x="86.279297" xlink:href="#DejaVuSans-111"/>
      <use x="147.460938" xlink:href="#DejaVuSans-116"/>
      <use x="186.669922" xlink:href="#DejaVuSans-105"/>
      <use x="214.453125" xlink:href="#DejaVuSans-102"/>
     </g>
    </g>
   </g>
   <g id="patch_110">
    <path d="M 378.75064 439.907885 
L 378.75064 240.60024 
" style="fill:none;stroke:#000000;stroke-linecap:square;stroke-linejoin:miter;stroke-width:0.8;"/>
   </g>
   <g id="patch_111">
    <path d="M 572.99976 439.907885 
L 572.99976 240.60024 
" style="fill:none;stroke:#000000;stroke-linecap:square;stroke-linejoin:miter;stroke-width:0.8;"/>
   </g>
   <g id="patch_112">
    <path d="M 378.75064 439.907885 
L 572.99976 439.907885 
" style="fill:none;stroke:#000000;stroke-linecap:square;stroke-linejoin:miter;stroke-width:0.8;"/>
   </g>
   <g id="patch_113">
    <path d="M 378.75064 240.60024 
L 572.99976 240.60024 
" style="fill:none;stroke:#000000;stroke-linecap:square;stroke-linejoin:miter;stroke-width:0.8;"/>
   </g>
  </g>
  <g id="axes_4">
   <g id="patch_114">
    <path d="M 378.75064 200.723885 
L 572.99976 200.723885 
L 572.99976 73.964442 
L 378.75064 73.964442 
z
" style="fill:#ffffff;"/>
   </g>
   <g id="matplotlib.axis_7">
    <g id="xtick_16">
     <g id="line2d_27">
      <g>
       <use style="stroke:#000000;stroke-width:0.8;" x="387.580145" xlink:href="#me050fc7f35" y="200.723885"/>
      </g>
     </g>
     <g id="text_26">
      <!-- 0.0 -->
      <defs>
       <path d="M 10.6875 12.40625 
L 21 12.40625 
L 21 0 
L 10.6875 0 
z
" id="DejaVuSans-46"/>
      </defs>
      <g transform="translate(379.628583 215.322322)scale(0.1 -0.1)">
       <use xlink:href="#DejaVuSans-48"/>
       <use x="63.623047" xlink:href="#DejaVuSans-46"/>
       <use x="95.410156" xlink:href="#DejaVuSans-48"/>
      </g>
     </g>
    </g>
    <g id="xtick_17">
     <g id="line2d_28">
      <g>
       <use style="stroke:#000000;stroke-width:0.8;" x="422.898167" xlink:href="#me050fc7f35" y="200.723885"/>
      </g>
     </g>
     <g id="text_27">
      <!-- 0.2 -->
      <g transform="translate(414.946605 215.322322)scale(0.1 -0.1)">
       <use xlink:href="#DejaVuSans-48"/>
       <use x="63.623047" xlink:href="#DejaVuSans-46"/>
       <use x="95.410156" xlink:href="#DejaVuSans-50"/>
      </g>
     </g>
    </g>
    <g id="xtick_18">
     <g id="line2d_29">
      <g>
       <use style="stroke:#000000;stroke-width:0.8;" x="458.216189" xlink:href="#me050fc7f35" y="200.723885"/>
      </g>
     </g>
     <g id="text_28">
      <!-- 0.4 -->
      <g transform="translate(450.264627 215.322322)scale(0.1 -0.1)">
       <use xlink:href="#DejaVuSans-48"/>
       <use x="63.623047" xlink:href="#DejaVuSans-46"/>
       <use x="95.410156" xlink:href="#DejaVuSans-52"/>
      </g>
     </g>
    </g>
    <g id="xtick_19">
     <g id="line2d_30">
      <g>
       <use style="stroke:#000000;stroke-width:0.8;" x="493.534211" xlink:href="#me050fc7f35" y="200.723885"/>
      </g>
     </g>
     <g id="text_29">
      <!-- 0.6 -->
      <g transform="translate(485.582648 215.322322)scale(0.1 -0.1)">
       <use xlink:href="#DejaVuSans-48"/>
       <use x="63.623047" xlink:href="#DejaVuSans-46"/>
       <use x="95.410156" xlink:href="#DejaVuSans-54"/>
      </g>
     </g>
    </g>
    <g id="xtick_20">
     <g id="line2d_31">
      <g>
       <use style="stroke:#000000;stroke-width:0.8;" x="528.852233" xlink:href="#me050fc7f35" y="200.723885"/>
      </g>
     </g>
     <g id="text_30">
      <!-- 0.8 -->
      <g transform="translate(520.90067 215.322322)scale(0.1 -0.1)">
       <use xlink:href="#DejaVuSans-48"/>
       <use x="63.623047" xlink:href="#DejaVuSans-46"/>
       <use x="95.410156" xlink:href="#DejaVuSans-56"/>
      </g>
     </g>
    </g>
    <g id="xtick_21">
     <g id="line2d_32">
      <g>
       <use style="stroke:#000000;stroke-width:0.8;" x="564.170255" xlink:href="#me050fc7f35" y="200.723885"/>
      </g>
     </g>
     <g id="text_31">
      <!-- 1.0 -->
      <g transform="translate(556.218692 215.322322)scale(0.1 -0.1)">
       <use xlink:href="#DejaVuSans-49"/>
       <use x="63.623047" xlink:href="#DejaVuSans-46"/>
       <use x="95.410156" xlink:href="#DejaVuSans-48"/>
      </g>
     </g>
    </g>
    <g id="text_32">
     <!-- False Positive Rate -->
     <defs>
      <path d="M 19.671875 64.796875 
L 19.671875 37.40625 
L 32.078125 37.40625 
Q 38.96875 37.40625 42.71875 40.96875 
Q 46.484375 44.53125 46.484375 51.125 
Q 46.484375 57.671875 42.71875 61.234375 
Q 38.96875 64.796875 32.078125 64.796875 
z
M 9.8125 72.90625 
L 32.078125 72.90625 
Q 44.34375 72.90625 50.609375 67.359375 
Q 56.890625 61.8125 56.890625 51.125 
Q 56.890625 40.328125 50.609375 34.8125 
Q 44.34375 29.296875 32.078125 29.296875 
L 19.671875 29.296875 
L 19.671875 0 
L 9.8125 0 
z
" id="DejaVuSans-80"/>
      <path d="M 2.984375 54.6875 
L 12.5 54.6875 
L 29.59375 8.796875 
L 46.6875 54.6875 
L 56.203125 54.6875 
L 35.6875 0 
L 23.484375 0 
z
" id="DejaVuSans-118"/>
     </defs>
     <g transform="translate(419.228637 230.520135)scale(0.12 -0.12)">
      <use xlink:href="#DejaVuSans-70"/>
      <use x="57.378906" xlink:href="#DejaVuSans-97"/>
      <use x="118.658203" xlink:href="#DejaVuSans-108"/>
      <use x="146.441406" xlink:href="#DejaVuSans-115"/>
      <use x="198.541016" xlink:href="#DejaVuSans-101"/>
      <use x="260.064453" xlink:href="#DejaVuSans-32"/>
      <use x="291.851562" xlink:href="#DejaVuSans-80"/>
      <use x="352.107422" xlink:href="#DejaVuSans-111"/>
      <use x="413.289062" xlink:href="#DejaVuSans-115"/>
      <use x="465.388672" xlink:href="#DejaVuSans-105"/>
      <use x="493.171875" xlink:href="#DejaVuSans-116"/>
      <use x="532.380859" xlink:href="#DejaVuSans-105"/>
      <use x="560.164062" xlink:href="#DejaVuSans-118"/>
      <use x="619.34375" xlink:href="#DejaVuSans-101"/>
      <use x="680.867188" xlink:href="#DejaVuSans-32"/>
      <use x="712.654297" xlink:href="#DejaVuSans-82"/>
      <use x="782.105469" xlink:href="#DejaVuSans-97"/>
      <use x="843.384766" xlink:href="#DejaVuSans-116"/>
      <use x="882.59375" xlink:href="#DejaVuSans-101"/>
     </g>
    </g>
   </g>
   <g id="matplotlib.axis_8">
    <g id="ytick_19">
     <g id="line2d_33">
      <g>
       <use style="stroke:#000000;stroke-width:0.8;" x="378.75064" xlink:href="#m1b62c82e3c" y="194.962092"/>
      </g>
     </g>
     <g id="text_33">
      <!-- 0.0 -->
      <g transform="translate(355.847515 198.761311)scale(0.1 -0.1)">
       <use xlink:href="#DejaVuSans-48"/>
       <use x="63.623047" xlink:href="#DejaVuSans-46"/>
       <use x="95.410156" xlink:href="#DejaVuSans-48"/>
      </g>
     </g>
    </g>
    <g id="ytick_20">
     <g id="line2d_34">
      <g>
       <use style="stroke:#000000;stroke-width:0.8;" x="378.75064" xlink:href="#m1b62c82e3c" y="171.914921"/>
      </g>
     </g>
     <g id="text_34">
      <!-- 0.2 -->
      <g transform="translate(355.847515 175.714139)scale(0.1 -0.1)">
       <use xlink:href="#DejaVuSans-48"/>
       <use x="63.623047" xlink:href="#DejaVuSans-46"/>
       <use x="95.410156" xlink:href="#DejaVuSans-50"/>
      </g>
     </g>
    </g>
    <g id="ytick_21">
     <g id="line2d_35">
      <g>
       <use style="stroke:#000000;stroke-width:0.8;" x="378.75064" xlink:href="#m1b62c82e3c" y="148.867749"/>
      </g>
     </g>
     <g id="text_35">
      <!-- 0.4 -->
      <g transform="translate(355.847515 152.666968)scale(0.1 -0.1)">
       <use xlink:href="#DejaVuSans-48"/>
       <use x="63.623047" xlink:href="#DejaVuSans-46"/>
       <use x="95.410156" xlink:href="#DejaVuSans-52"/>
      </g>
     </g>
    </g>
    <g id="ytick_22">
     <g id="line2d_36">
      <g>
       <use style="stroke:#000000;stroke-width:0.8;" x="378.75064" xlink:href="#m1b62c82e3c" y="125.820578"/>
      </g>
     </g>
     <g id="text_36">
      <!-- 0.6 -->
      <g transform="translate(355.847515 129.619796)scale(0.1 -0.1)">
       <use xlink:href="#DejaVuSans-48"/>
       <use x="63.623047" xlink:href="#DejaVuSans-46"/>
       <use x="95.410156" xlink:href="#DejaVuSans-54"/>
      </g>
     </g>
    </g>
    <g id="ytick_23">
     <g id="line2d_37">
      <g>
       <use style="stroke:#000000;stroke-width:0.8;" x="378.75064" xlink:href="#m1b62c82e3c" y="102.773406"/>
      </g>
     </g>
     <g id="text_37">
      <!-- 0.8 -->
      <g transform="translate(355.847515 106.572625)scale(0.1 -0.1)">
       <use xlink:href="#DejaVuSans-48"/>
       <use x="63.623047" xlink:href="#DejaVuSans-46"/>
       <use x="95.410156" xlink:href="#DejaVuSans-56"/>
      </g>
     </g>
    </g>
    <g id="ytick_24">
     <g id="line2d_38">
      <g>
       <use style="stroke:#000000;stroke-width:0.8;" x="378.75064" xlink:href="#m1b62c82e3c" y="79.726235"/>
      </g>
     </g>
     <g id="text_38">
      <!-- 1.0 -->
      <g transform="translate(355.847515 83.525453)scale(0.1 -0.1)">
       <use xlink:href="#DejaVuSans-49"/>
       <use x="63.623047" xlink:href="#DejaVuSans-46"/>
       <use x="95.410156" xlink:href="#DejaVuSans-48"/>
      </g>
     </g>
    </g>
    <g id="text_39">
     <!-- True Positive Rate -->
     <defs>
      <path d="M -0.296875 72.90625 
L 61.375 72.90625 
L 61.375 64.59375 
L 35.5 64.59375 
L 35.5 0 
L 25.59375 0 
L 25.59375 64.59375 
L -0.296875 64.59375 
z
" id="DejaVuSans-84"/>
     </defs>
     <g transform="translate(349.35189 191.999476)rotate(-90)scale(0.12 -0.12)">
      <use xlink:href="#DejaVuSans-84"/>
      <use x="60.865234" xlink:href="#DejaVuSans-114"/>
      <use x="101.978516" xlink:href="#DejaVuSans-117"/>
      <use x="165.357422" xlink:href="#DejaVuSans-101"/>
      <use x="226.880859" xlink:href="#DejaVuSans-32"/>
      <use x="258.667969" xlink:href="#DejaVuSans-80"/>
      <use x="318.923828" xlink:href="#DejaVuSans-111"/>
      <use x="380.105469" xlink:href="#DejaVuSans-115"/>
      <use x="432.205078" xlink:href="#DejaVuSans-105"/>
      <use x="459.988281" xlink:href="#DejaVuSans-116"/>
      <use x="499.197266" xlink:href="#DejaVuSans-105"/>
      <use x="526.980469" xlink:href="#DejaVuSans-118"/>
      <use x="586.160156" xlink:href="#DejaVuSans-101"/>
      <use x="647.683594" xlink:href="#DejaVuSans-32"/>
      <use x="679.470703" xlink:href="#DejaVuSans-82"/>
      <use x="748.921875" xlink:href="#DejaVuSans-97"/>
      <use x="810.201172" xlink:href="#DejaVuSans-116"/>
      <use x="849.410156" xlink:href="#DejaVuSans-101"/>
     </g>
    </g>
   </g>
   <g id="line2d_39">
    <path clip-path="url(#p15a27fdcef)" d="M 387.580145 194.962092 
L 390.678218 92.530219 
L 390.678218 88.262224 
L 396.874362 88.262224 
L 401.52147 79.726235 
L 404.619542 79.726235 
L 564.170255 79.726235 
" style="fill:none;stroke:#0073b2;stroke-linecap:square;stroke-width:1.5;"/>
   </g>
   <g id="line2d_40">
    <path clip-path="url(#p15a27fdcef)" d="M 387.580145 194.962092 
L 388.621975 99.400649 
L 389.14289 90.968757 
L 391.747464 82.536865 
L 395.914782 81.13155 
L 398.519356 81.13155 
L 564.170255 79.726235 
" style="fill:none;stroke:#cc6600;stroke-linecap:square;stroke-width:1.5;"/>
   </g>
   <g id="line2d_41">
    <path clip-path="url(#p15a27fdcef)" d="M 387.580145 194.962092 
L 564.170255 79.726235 
" style="fill:none;stroke:#808080;stroke-dasharray:4,8;stroke-dashoffset:0;stroke-width:0.8;"/>
   </g>
   <g id="patch_115">
    <path d="M 378.75064 200.723885 
L 378.75064 73.964442 
" style="fill:none;stroke:#000000;stroke-linecap:square;stroke-linejoin:miter;stroke-width:0.8;"/>
   </g>
   <g id="patch_116">
    <path d="M 572.99976 200.723885 
L 572.99976 73.964442 
" style="fill:none;stroke:#000000;stroke-linecap:square;stroke-linejoin:miter;stroke-width:0.8;"/>
   </g>
   <g id="patch_117">
    <path d="M 378.75064 200.723885 
L 572.99976 200.723885 
" style="fill:none;stroke:#000000;stroke-linecap:square;stroke-linejoin:miter;stroke-width:0.8;"/>
   </g>
   <g id="patch_118">
    <path d="M 378.75064 73.964442 
L 572.99976 73.964442 
" style="fill:none;stroke:#000000;stroke-linecap:square;stroke-linejoin:miter;stroke-width:0.8;"/>
   </g>
   <g id="legend_1">
    <g id="patch_119">
     <path d="M 436.784135 195.723885 
L 565.99976 195.723885 
Q 567.99976 195.723885 567.99976 193.723885 
L 567.99976 165.367635 
Q 567.99976 163.367635 565.99976 163.367635 
L 436.784135 163.367635 
Q 434.784135 163.367635 434.784135 165.367635 
L 434.784135 193.723885 
Q 434.784135 195.723885 436.784135 195.723885 
z
" style="fill:#ffffff;opacity:0.8;stroke:#cccccc;stroke-linejoin:miter;"/>
    </g>
    <g id="line2d_42">
     <path d="M 438.784135 171.466072 
L 458.784135 171.466072 
" style="fill:none;stroke:#0073b2;stroke-linecap:square;stroke-width:1.5;"/>
    </g>
    <g id="line2d_43"/>
    <g id="text_40">
     <!-- Test, AUC: 0.99 -->
     <defs>
      <path d="M 11.71875 12.40625 
L 22.015625 12.40625 
L 22.015625 4 
L 14.015625 -11.625 
L 7.71875 -11.625 
L 11.71875 4 
z
" id="DejaVuSans-44"/>
      <path d="M 34.1875 63.1875 
L 20.796875 26.90625 
L 47.609375 26.90625 
z
M 28.609375 72.90625 
L 39.796875 72.90625 
L 67.578125 0 
L 57.328125 0 
L 50.6875 18.703125 
L 17.828125 18.703125 
L 11.1875 0 
L 0.78125 0 
z
" id="DejaVuSans-65"/>
      <path d="M 11.71875 12.40625 
L 22.015625 12.40625 
L 22.015625 0 
L 11.71875 0 
z
M 11.71875 51.703125 
L 22.015625 51.703125 
L 22.015625 39.3125 
L 11.71875 39.3125 
z
" id="DejaVuSans-58"/>
      <path d="M 10.984375 1.515625 
L 10.984375 10.5 
Q 14.703125 8.734375 18.5 7.8125 
Q 22.3125 6.890625 25.984375 6.890625 
Q 35.75 6.890625 40.890625 13.453125 
Q 46.046875 20.015625 46.78125 33.40625 
Q 43.953125 29.203125 39.59375 26.953125 
Q 35.25 24.703125 29.984375 24.703125 
Q 19.046875 24.703125 12.671875 31.3125 
Q 6.296875 37.9375 6.296875 49.421875 
Q 6.296875 60.640625 12.9375 67.421875 
Q 19.578125 74.21875 30.609375 74.21875 
Q 43.265625 74.21875 49.921875 64.515625 
Q 56.59375 54.828125 56.59375 36.375 
Q 56.59375 19.140625 48.40625 8.859375 
Q 40.234375 -1.421875 26.421875 -1.421875 
Q 22.703125 -1.421875 18.890625 -0.6875 
Q 15.09375 0.046875 10.984375 1.515625 
z
M 30.609375 32.421875 
Q 37.25 32.421875 41.125 36.953125 
Q 45.015625 41.5 45.015625 49.421875 
Q 45.015625 57.28125 41.125 61.84375 
Q 37.25 66.40625 30.609375 66.40625 
Q 23.96875 66.40625 20.09375 61.84375 
Q 16.21875 57.28125 16.21875 49.421875 
Q 16.21875 41.5 20.09375 36.953125 
Q 23.96875 32.421875 30.609375 32.421875 
z
" id="DejaVuSans-57"/>
     </defs>
     <g transform="translate(466.784135 174.966072)scale(0.1 -0.1)">
      <use xlink:href="#DejaVuSans-84"/>
      <use x="60.818359" xlink:href="#DejaVuSans-101"/>
      <use x="122.341797" xlink:href="#DejaVuSans-115"/>
      <use x="174.441406" xlink:href="#DejaVuSans-116"/>
      <use x="213.650391" xlink:href="#DejaVuSans-44"/>
      <use x="245.4375" xlink:href="#DejaVuSans-32"/>
      <use x="277.224609" xlink:href="#DejaVuSans-65"/>
      <use x="345.632812" xlink:href="#DejaVuSans-85"/>
      <use x="418.826172" xlink:href="#DejaVuSans-67"/>
      <use x="488.650391" xlink:href="#DejaVuSans-58"/>
      <use x="522.341797" xlink:href="#DejaVuSans-32"/>
      <use x="554.128906" xlink:href="#DejaVuSans-48"/>
      <use x="617.751953" xlink:href="#DejaVuSans-46"/>
      <use x="649.539062" xlink:href="#DejaVuSans-57"/>
      <use x="713.162109" xlink:href="#DejaVuSans-57"/>
     </g>
    </g>
    <g id="line2d_44">
     <path d="M 438.784135 186.144197 
L 458.784135 186.144197 
" style="fill:none;stroke:#cc6600;stroke-linecap:square;stroke-width:1.5;"/>
    </g>
    <g id="line2d_45"/>
    <g id="text_41">
     <!-- Training, AUC: 0.99 -->
     <g transform="translate(466.784135 189.644197)scale(0.1 -0.1)">
      <use xlink:href="#DejaVuSans-84"/>
      <use x="60.865234" xlink:href="#DejaVuSans-114"/>
      <use x="101.978516" xlink:href="#DejaVuSans-97"/>
      <use x="163.257812" xlink:href="#DejaVuSans-105"/>
      <use x="191.041016" xlink:href="#DejaVuSans-110"/>
      <use x="254.419922" xlink:href="#DejaVuSans-105"/>
      <use x="282.203125" xlink:href="#DejaVuSans-110"/>
      <use x="345.582031" xlink:href="#DejaVuSans-103"/>
      <use x="409.058594" xlink:href="#DejaVuSans-44"/>
      <use x="440.845703" xlink:href="#DejaVuSans-32"/>
      <use x="472.632812" xlink:href="#DejaVuSans-65"/>
      <use x="541.041016" xlink:href="#DejaVuSans-85"/>
      <use x="614.234375" xlink:href="#DejaVuSans-67"/>
      <use x="684.058594" xlink:href="#DejaVuSans-58"/>
      <use x="717.75" xlink:href="#DejaVuSans-32"/>
      <use x="749.537109" xlink:href="#DejaVuSans-48"/>
      <use x="813.160156" xlink:href="#DejaVuSans-46"/>
      <use x="844.947266" xlink:href="#DejaVuSans-57"/>
      <use x="908.570312" xlink:href="#DejaVuSans-57"/>
     </g>
    </g>
   </g>
  </g>
  <g id="axes_5">
   <g id="line2d_46">
    <path clip-path="url(#pe754502ba4)" d="M 306.829197 257.851608 
L 253.790682 257.851608 
" style="fill:none;stroke:#000000;stroke-linecap:square;stroke-width:0.591389;"/>
   </g>
   <g id="line2d_47">
    <path clip-path="url(#pe754502ba4)" d="M 306.829197 257.851608 
L 306.829197 289.674717 
" style="fill:none;stroke:#000000;stroke-linecap:square;stroke-width:0.591389;"/>
   </g>
   <g id="patch_120">
    <path clip-path="url(#pe754502ba4)" d="M 274.649736 253.41792 
L 274.363825 251.922068 
Q 274.07377 250.386852 272.919768 250.386852 
Q 272.053749 250.386852 271.658032 251.099557 
Q 271.158724 251.99251 271.158724 253.171374 
Q 271.158724 254.596784 271.645601 255.27634 
Q 272.136622 255.968327 272.919768 255.968327 
Q 273.78786 255.968327 274.254019 254.588497 
z
M 275.316861 251.437263 
L 275.957052 249.539479 
L 277.019894 249.539479 
L 275.691859 253.469716 
L 275.950837 254.886838 
Q 276.008847 255.203826 276.234676 255.469019 
Q 276.50194 255.779791 276.709122 255.779791 
L 277.278871 255.779791 
L 277.278871 256.790838 
L 276.566166 256.790838 
Q 275.957052 256.790838 275.414236 256.24595 
Q 275.146972 255.974542 275.037165 255.404793 
Q 274.740896 256.123713 274.131781 256.687247 
Q 273.845871 256.95244 272.919768 256.95244 
Q 271.399055 256.95244 270.661488 255.968327 
Q 269.903203 254.951065 269.903203 253.171374 
Q 269.903203 251.267374 270.725714 250.374421 
Q 271.639386 249.377877 272.919768 249.377877 
Q 274.933574 249.377877 275.316861 251.437263 
z
"/>
   </g>
   <g id="patch_121">
    <path clip-path="url(#pe754502ba4)" d="M 289.461155 251.437263 
Q 288.580633 251.437263 288.06475 252.040162 
Q 287.55094 252.640989 287.55094 253.689328 
Q 287.55094 254.731452 288.06475 255.338494 
Q 288.580633 255.943465 289.461155 255.943465 
Q 290.341677 255.943465 290.855488 255.338494 
Q 291.369298 254.731452 291.369298 253.689328 
Q 291.369298 252.640989 290.855488 252.040162 
Q 290.341677 251.437263 289.461155 251.437263 
z
M 292.057142 247.337137 
L 292.057142 248.528432 
Q 291.564049 248.296389 291.06267 248.174151 
Q 290.56129 248.049842 290.068197 248.049842 
Q 288.773312 248.049842 288.089612 248.924149 
Q 287.407984 249.798456 287.310609 251.565716 
Q 287.691823 251.002182 288.267788 250.701768 
Q 288.845825 250.401355 289.537812 250.401355 
Q 290.9943 250.401355 291.839601 251.28602 
Q 292.684902 252.168615 292.684902 253.689328 
Q 292.684902 255.178965 291.80438 256.080205 
Q 290.923858 256.979373 289.461155 256.979373 
Q 287.782983 256.979373 286.896246 255.694847 
Q 286.009508 254.408249 286.009508 251.967648 
Q 286.009508 249.676219 287.097212 248.312963 
Q 288.184916 246.949708 290.016402 246.949708 
Q 290.509494 246.949708 291.010874 247.047083 
Q 291.512254 247.144458 292.057142 247.337137 
z
"/>
   </g>
   <g id="patch_122">
    <path clip-path="url(#pe754502ba4)" d="M 309.903773 280.47585 
L 314.467986 280.47585 
L 314.467986 281.575984 
L 308.331264 281.575984 
L 308.331264 280.47585 
Q 309.075046 279.705134 310.359573 278.408176 
Q 311.646171 277.109147 311.97559 276.732076 
Q 312.60335 276.027659 312.851969 275.53871 
Q 313.102658 275.049761 313.102658 274.577387 
Q 313.102658 273.806671 312.561914 273.321866 
Q 312.02117 272.834989 311.153079 272.834989 
Q 310.537749 272.834989 309.854049 273.048386 
Q 309.172422 273.261783 308.39549 273.696865 
L 308.39549 272.375045 
Q 309.184852 272.058057 309.870624 271.896456 
Q 310.558467 271.734854 311.128217 271.734854 
Q 312.630284 271.734854 313.523237 272.486923 
Q 314.41619 273.236921 314.41619 274.492442 
Q 314.41619 275.089126 314.192434 275.623654 
Q 313.97075 276.156111 313.380282 276.881247 
Q 313.21868 277.069783 312.350589 277.966879 
Q 311.484569 278.863976 309.903773 280.47585 
z
M 317.349624 279.930962 
L 318.714952 279.930962 
L 318.714952 281.045599 
L 317.654181 283.117416 
L 316.819239 283.117416 
L 317.349624 281.045599 
z
M 325.022339 273.048386 
L 321.719863 278.209282 
L 325.022339 278.209282 
z
M 324.678418 271.908887 
L 326.32344 271.908887 
L 326.32344 278.209282 
L 327.70327 278.209282 
L 327.70327 279.296986 
L 326.32344 279.296986 
L 326.32344 281.575984 
L 325.022339 281.575984 
L 325.022339 279.296986 
L 320.659093 279.296986 
L 320.659093 278.035249 
z
"/>
   </g>
   <g id="patch_123">
    <path clip-path="url(#pe754502ba4)" d="M 306.829197 268.459311 
C 309.642392 268.459311 312.340745 267.341617 314.329975 265.352387 
C 316.319205 263.363157 317.436899 260.664804 317.436899 257.851608 
C 317.436899 255.038413 316.319205 252.34006 314.329975 250.35083 
C 312.340745 248.3616 309.642392 247.243906 306.829197 247.243906 
C 304.016001 247.243906 301.317648 248.3616 299.328418 250.35083 
C 297.339188 252.34006 296.221494 255.038413 296.221494 257.851608 
C 296.221494 260.664804 297.339188 263.363157 299.328418 265.352387 
C 301.317648 267.341617 304.016001 268.459311 306.829197 268.459311 
z
" style="fill:#00a651;stroke:#000000;stroke-linejoin:miter;stroke-width:0.591389;"/>
   </g>
   <g id="patch_124">
    <path clip-path="url(#pe754502ba4)" d="M 253.790682 268.459311 
C 256.603878 268.459311 259.302231 267.341617 261.291461 265.352387 
C 263.280691 263.363157 264.398385 260.664804 264.398385 257.851608 
C 264.398385 255.038413 263.280691 252.34006 261.291461 250.35083 
C 259.302231 248.3616 256.603878 247.243906 253.790682 247.243906 
C 250.977487 247.243906 248.279134 248.3616 246.289904 250.35083 
C 244.300674 252.34006 243.18298 255.038413 243.18298 257.851608 
C 243.18298 260.664804 244.300674 263.363157 246.289904 265.352387 
C 248.279134 267.341617 250.977487 268.459311 253.790682 268.459311 
z
" style="fill:#00a651;stroke:#000000;stroke-linejoin:miter;stroke-width:0.591389;"/>
   </g>
   <g id="patch_125">
    <path clip-path="url(#pe754502ba4)" d="M 314.784974 281.71894 
L 298.873419 297.630494 
z
" style="fill:#ffffff;stroke:#000000;stroke-linejoin:miter;stroke-width:0.591389;"/>
   </g>
   <g id="patch_126">
    <path clip-path="url(#pe754502ba4)" d="M 298.873419 281.71894 
L 314.784974 297.630494 
z
" style="fill:#ffffff;stroke:#000000;stroke-linejoin:miter;stroke-width:0.591389;"/>
   </g>
  </g>
  <g id="axes_6">
   <g id="line2d_48">
    <path clip-path="url(#pcb558fac53)" d="M 258.865315 323.575188 
L 258.865315 359.965459 
" style="fill:none;stroke:#000000;stroke-linecap:square;stroke-width:0.591389;"/>
   </g>
   <g id="line2d_49">
    <path clip-path="url(#pcb558fac53)" d="M 319.515767 323.575188 
L 258.865315 323.575188 
" style="fill:none;stroke:#000000;stroke-linecap:square;stroke-width:0.591389;"/>
   </g>
   <g id="patch_127">
    <path clip-path="url(#pcb558fac53)" d="M 265.624524 344.743617 
Q 266.697753 344.973426 267.299519 345.700757 
Q 267.903654 346.42572 267.903654 347.491841 
Q 267.903654 349.12656 266.778304 350.024471 
Q 265.652954 350.920013 263.57994 350.920013 
Q 262.885777 350.920013 262.148969 350.782602 
Q 261.412161 350.645191 260.627969 350.370368 
L 260.627969 348.927551 
Q 261.248689 349.290032 261.987866 349.474826 
Q 262.729413 349.659621 263.537295 349.659621 
Q 264.942206 349.659621 265.679015 349.105238 
Q 266.415823 348.550855 266.415823 347.491841 
Q 266.415823 346.513379 265.731136 345.963734 
Q 265.046449 345.41172 263.826333 345.41172 
L 262.537511 345.41172 
L 262.537511 344.182127 
L 263.885562 344.182127 
Q 264.98722 344.182127 265.572402 343.741463 
Q 266.157585 343.3008 266.157585 342.471595 
Q 266.157585 341.621067 265.553449 341.166188 
Q 264.951683 340.708941 263.826333 340.708941 
Q 263.210352 340.708941 262.506712 340.843983 
Q 261.803072 340.976656 260.959651 341.256216 
L 260.959651 339.92475 
Q 261.812548 339.687834 262.556464 339.569376 
Q 263.30038 339.450918 263.959006 339.450918 
Q 265.66243 339.450918 266.652739 340.225633 
Q 267.645416 340.997978 267.645416 342.31523 
Q 267.645416 343.234464 267.119463 343.867029 
Q 266.59351 344.499594 265.624524 344.743617 
z
M 270.895605 348.823308 
L 272.45688 348.823308 
L 272.45688 350.097915 
L 271.243871 352.467073 
L 270.2891 352.467073 
L 270.895605 350.097915 
z
M 279.669486 340.952964 
L 275.893048 346.854537 
L 279.669486 346.854537 
z
M 279.276206 339.649927 
L 281.157318 339.649927 
L 281.157318 346.854537 
L 282.735177 346.854537 
L 282.735177 348.098345 
L 281.157318 348.098345 
L 281.157318 350.70442 
L 279.669486 350.70442 
L 279.669486 348.098345 
L 274.680039 348.098345 
L 274.680039 346.655528 
z
M 285.362277 348.823308 
L 286.923553 348.823308 
L 286.923553 350.097915 
L 285.710544 352.467073 
L 284.755773 352.467073 
L 285.362277 350.097915 
z
M 293.411197 344.582515 
Q 292.404304 344.582515 291.814384 345.27194 
Q 291.226833 345.958996 291.226833 347.15779 
Q 291.226833 348.349476 291.814384 349.04364 
Q 292.404304 349.735434 293.411197 349.735434 
Q 294.418089 349.735434 295.00564 349.04364 
Q 295.593191 348.349476 295.593191 347.15779 
Q 295.593191 345.958996 295.00564 345.27194 
Q 294.418089 344.582515 293.411197 344.582515 
z
M 296.379752 339.89395 
L 296.379752 341.256216 
Q 295.815892 340.990871 295.242556 340.85109 
Q 294.66922 340.708941 294.10536 340.708941 
Q 292.624636 340.708941 291.842814 341.708726 
Q 291.063361 342.70851 290.95201 344.729402 
Q 291.387935 344.084991 292.046561 343.741463 
Q 292.707557 343.397936 293.498855 343.397936 
Q 295.164374 343.397936 296.13099 344.409566 
Q 297.097607 345.418827 297.097607 347.15779 
Q 297.097607 348.861214 296.090714 349.891798 
Q 295.083822 350.920013 293.411197 350.920013 
Q 291.492178 350.920013 290.478179 349.451135 
Q 289.464179 347.979888 289.464179 345.189019 
Q 289.464179 342.56873 290.707987 341.009824 
Q 291.951795 339.450918 294.046131 339.450918 
Q 294.609991 339.450918 295.183327 339.562268 
Q 295.756663 339.673619 296.379752 339.89395 
z
"/>
   </g>
   <g id="patch_128">
    <path clip-path="url(#pcb558fac53)" d="M 321.144563 324.04902 
L 320.817619 322.338488 
Q 320.485937 320.582941 319.166316 320.582941 
Q 318.176008 320.582941 317.723499 321.397932 
Q 317.152531 322.419039 317.152531 323.76709 
Q 317.152531 325.397071 317.709284 326.174155 
Q 318.270774 326.965454 319.166316 326.965454 
Q 320.158993 326.965454 320.692054 325.387594 
z
M 321.907432 321.784105 
L 322.639502 319.613956 
L 323.85488 319.613956 
L 322.33625 324.108249 
L 322.632394 325.728753 
Q 322.698731 326.091234 322.956969 326.394487 
Q 323.262591 326.74986 323.499506 326.74986 
L 324.151025 326.74986 
L 324.151025 327.90601 
L 323.336034 327.90601 
Q 322.639502 327.90601 322.018782 327.282921 
Q 321.713161 326.972561 321.587596 326.321043 
Q 321.248806 327.143141 320.552273 327.787552 
Q 320.22533 328.090804 319.166316 328.090804 
Q 317.427354 328.090804 316.583933 326.965454 
Q 315.716821 325.802197 315.716821 323.76709 
Q 315.716821 321.589834 316.657377 320.568727 
Q 317.702176 319.429161 319.166316 319.429161 
Q 321.469138 319.429161 321.907432 321.784105 
z
"/>
   </g>
   <g id="patch_129">
    <path clip-path="url(#pcb558fac53)" d="M 258.865315 335.705279 
C 262.082253 335.705279 265.167866 334.427176 267.442584 332.152457 
C 269.717303 329.877739 270.995406 326.792126 270.995406 323.575188 
C 270.995406 320.358251 269.717303 317.272638 267.442584 314.997919 
C 265.167866 312.723201 262.082253 311.445098 258.865315 311.445098 
C 255.648378 311.445098 252.562765 312.723201 250.288046 314.997919 
C 248.013328 317.272638 246.735225 320.358251 246.735225 323.575188 
C 246.735225 326.792126 248.013328 329.877739 250.288046 332.152457 
C 252.562765 334.427176 255.648378 335.705279 258.865315 335.705279 
z
" style="fill:#00a651;stroke:#000000;stroke-linejoin:miter;stroke-width:0.591389;"/>
   </g>
   <g id="patch_130">
    <path clip-path="url(#pcb558fac53)" d="M 267.962883 350.867891 
L 249.767748 369.063027 
z
" style="fill:#ffffff;stroke:#000000;stroke-linejoin:miter;stroke-width:0.591389;"/>
   </g>
   <g id="patch_131">
    <path clip-path="url(#pcb558fac53)" d="M 249.767748 350.867891 
L 267.962883 369.063027 
z
" style="fill:#ffffff;stroke:#000000;stroke-linejoin:miter;stroke-width:0.591389;"/>
   </g>
  </g>
  <g id="axes_7">
   <g id="line2d_50">
    <path clip-path="url(#p511e382e2c)" d="M 315.628943 408.385461 
L 255.257307 408.385461 
" style="fill:none;stroke:#000000;stroke-linecap:square;stroke-width:0.768806;"/>
   </g>
   <g id="patch_132">
    <path clip-path="url(#p511e382e2c)" d="M 279.000339 403.33877 
L 278.674899 401.636101 
Q 278.344741 399.888625 277.031186 399.888625 
Q 276.045431 399.888625 275.595002 400.699869 
Q 275.026659 401.716282 275.026659 403.058136 
Q 275.026659 404.680624 275.580852 405.454135 
Q 276.139762 406.241796 277.031186 406.241796 
Q 278.0193 406.241796 278.54991 404.671191 
z
M 279.759701 401.084266 
L 280.488406 398.924094 
L 281.698197 398.924094 
L 280.186548 403.397726 
L 280.481331 405.010781 
Q 280.547363 405.371596 280.804414 405.673454 
Q 281.10863 406.027194 281.344457 406.027194 
L 281.99298 406.027194 
L 281.99298 407.178028 
L 281.181736 407.178028 
Q 280.488406 407.178028 279.87054 406.557804 
Q 279.566324 406.248871 279.441335 405.600348 
Q 279.104103 406.418666 278.410773 407.060115 
Q 278.085332 407.361973 277.031186 407.361973 
Q 275.300218 407.361973 274.460675 406.241796 
Q 273.59755 405.083887 273.59755 403.058136 
Q 273.59755 400.890888 274.533782 399.874475 
Q 275.573777 398.740149 277.031186 398.740149 
Q 279.323422 398.740149 279.759701 401.084266 
z
"/>
   </g>
   <g id="patch_133">
    <path clip-path="url(#p511e382e2c)" d="M 297.000992 401.244629 
Q 298.069287 401.47338 298.668287 402.197368 
Q 299.269645 402.918998 299.269645 403.980218 
Q 299.269645 405.607423 298.149468 406.501206 
Q 297.029291 407.392631 294.965807 407.392631 
Q 294.274835 407.392631 293.541414 407.255851 
Q 292.807993 407.119072 292.027407 406.845513 
L 292.027407 405.409328 
Q 292.645273 405.770143 293.381052 405.954088 
Q 294.119189 406.138033 294.923359 406.138033 
Q 296.321811 406.138033 297.055232 405.586198 
Q 297.788653 405.034364 297.788653 403.980218 
Q 297.788653 403.006254 297.107114 402.459136 
Q 296.425575 401.90966 295.211067 401.90966 
L 293.92817 401.90966 
L 293.92817 400.685719 
L 295.270024 400.685719 
Q 296.366618 400.685719 296.94911 400.247082 
Q 297.531602 399.808444 297.531602 398.98305 
Q 297.531602 398.136433 296.930244 397.683645 
Q 296.331244 397.2285 295.211067 397.2285 
Q 294.597918 397.2285 293.897512 397.362921 
Q 293.197107 397.494984 292.357564 397.773259 
L 292.357564 396.447913 
Q 293.20654 396.212087 293.947036 396.094173 
Q 294.687532 395.97626 295.34313 395.97626 
Q 297.038724 395.97626 298.02448 396.747413 
Q 299.012594 397.516208 299.012594 398.827405 
Q 299.012594 399.742412 298.489058 400.37207 
Q 297.965523 401.001727 297.000992 401.244629 
z
"/>
   </g>
   <g id="patch_134">
    <path clip-path="url(#p511e382e2c)" d="M 315.628943 420.459788 
C 318.831092 420.459788 321.902521 419.187561 324.166782 416.9233 
C 326.431043 414.659039 327.70327 411.58761 327.70327 408.385461 
C 327.70327 405.183312 326.431043 402.111884 324.166782 399.847622 
C 321.902521 397.583361 318.831092 396.311134 315.628943 396.311134 
C 312.426794 396.311134 309.355366 397.583361 307.091104 399.847622 
C 304.826843 402.111884 303.554616 405.183312 303.554616 408.385461 
C 303.554616 411.58761 304.826843 414.659039 307.091104 416.9233 
C 309.355366 419.187561 312.426794 420.459788 315.628943 420.459788 
z
" style="fill:#00a651;stroke:#000000;stroke-linejoin:miter;stroke-width:0.768806;"/>
   </g>
   <g id="patch_135">
    <path clip-path="url(#p511e382e2c)" d="M 255.257307 420.459788 
C 258.459456 420.459788 261.530884 419.187561 263.795146 416.9233 
C 266.059407 414.659039 267.331634 411.58761 267.331634 408.385461 
C 267.331634 405.183312 266.059407 402.111884 263.795146 399.847622 
C 261.530884 397.583361 258.459456 396.311134 255.257307 396.311134 
C 252.055158 396.311134 248.983729 397.583361 246.719468 399.847622 
C 244.455207 402.111884 243.18298 405.183312 243.18298 408.385461 
C 243.18298 411.58761 244.455207 414.659039 246.719468 416.9233 
C 248.983729 419.187561 252.055158 420.459788 255.257307 420.459788 
z
" style="fill:#00a651;stroke:#000000;stroke-linejoin:miter;stroke-width:0.768806;"/>
   </g>
  </g>
  <g id="text_42">
   <!-- ConA_13799-10ug_V5.0_DATA.csv -->
   <defs>
    <path d="M 50.984375 -16.609375 
L 50.984375 -23.578125 
L -0.984375 -23.578125 
L -0.984375 -16.609375 
z
" id="DejaVuSans-95"/>
    <path d="M 8.203125 72.90625 
L 55.078125 72.90625 
L 55.078125 68.703125 
L 28.609375 0 
L 18.3125 0 
L 43.21875 64.59375 
L 8.203125 64.59375 
z
" id="DejaVuSans-55"/>
    <path d="M 4.890625 31.390625 
L 31.203125 31.390625 
L 31.203125 23.390625 
L 4.890625 23.390625 
z
" id="DejaVuSans-45"/>
    <path d="M 10.796875 72.90625 
L 49.515625 72.90625 
L 49.515625 64.59375 
L 19.828125 64.59375 
L 19.828125 46.734375 
Q 21.96875 47.46875 24.109375 47.828125 
Q 26.265625 48.1875 28.421875 48.1875 
Q 40.625 48.1875 47.75 41.5 
Q 54.890625 34.8125 54.890625 23.390625 
Q 54.890625 11.625 47.5625 5.09375 
Q 40.234375 -1.421875 26.90625 -1.421875 
Q 22.3125 -1.421875 17.546875 -0.640625 
Q 12.796875 0.140625 7.71875 1.703125 
L 7.71875 11.625 
Q 12.109375 9.234375 16.796875 8.0625 
Q 21.484375 6.890625 26.703125 6.890625 
Q 35.15625 6.890625 40.078125 11.328125 
Q 45.015625 15.765625 45.015625 23.390625 
Q 45.015625 31 40.078125 35.4375 
Q 35.15625 39.890625 26.703125 39.890625 
Q 22.75 39.890625 18.8125 39.015625 
Q 14.890625 38.140625 10.796875 36.28125 
z
" id="DejaVuSans-53"/>
    <path d="M 19.671875 64.796875 
L 19.671875 8.109375 
L 31.59375 8.109375 
Q 46.6875 8.109375 53.6875 14.9375 
Q 60.6875 21.78125 60.6875 36.53125 
Q 60.6875 51.171875 53.6875 57.984375 
Q 46.6875 64.796875 31.59375 64.796875 
z
M 9.8125 72.90625 
L 30.078125 72.90625 
Q 51.265625 72.90625 61.171875 64.09375 
Q 71.09375 55.28125 71.09375 36.53125 
Q 71.09375 17.671875 61.125 8.828125 
Q 51.171875 0 30.078125 0 
L 9.8125 0 
z
" id="DejaVuSans-68"/>
   </defs>
   <g transform="translate(184.725937 18.41025)scale(0.12 -0.12)">
    <use xlink:href="#DejaVuSans-67"/>
    <use x="69.824219" xlink:href="#DejaVuSans-111"/>
    <use x="131.005859" xlink:href="#DejaVuSans-110"/>
    <use x="194.384766" xlink:href="#DejaVuSans-65"/>
    <use x="262.792969" xlink:href="#DejaVuSans-95"/>
    <use x="312.792969" xlink:href="#DejaVuSans-49"/>
    <use x="376.416016" xlink:href="#DejaVuSans-51"/>
    <use x="440.039062" xlink:href="#DejaVuSans-55"/>
    <use x="503.662109" xlink:href="#DejaVuSans-57"/>
    <use x="567.285156" xlink:href="#DejaVuSans-57"/>
    <use x="630.908203" xlink:href="#DejaVuSans-45"/>
    <use x="666.992188" xlink:href="#DejaVuSans-49"/>
    <use x="730.615234" xlink:href="#DejaVuSans-48"/>
    <use x="794.238281" xlink:href="#DejaVuSans-117"/>
    <use x="857.617188" xlink:href="#DejaVuSans-103"/>
    <use x="921.09375" xlink:href="#DejaVuSans-95"/>
    <use x="971.09375" xlink:href="#DejaVuSans-86"/>
    <use x="1039.501953" xlink:href="#DejaVuSans-53"/>
    <use x="1103.125" xlink:href="#DejaVuSans-46"/>
    <use x="1134.912109" xlink:href="#DejaVuSans-48"/>
    <use x="1198.535156" xlink:href="#DejaVuSans-95"/>
    <use x="1248.535156" xlink:href="#DejaVuSans-68"/>
    <use x="1325.521484" xlink:href="#DejaVuSans-65"/>
    <use x="1393.820312" xlink:href="#DejaVuSans-84"/>
    <use x="1454.794922" xlink:href="#DejaVuSans-65"/>
    <use x="1523.1875" xlink:href="#DejaVuSans-46"/>
    <use x="1554.974609" xlink:href="#DejaVuSans-99"/>
    <use x="1609.955078" xlink:href="#DejaVuSans-115"/>
    <use x="1662.054688" xlink:href="#DejaVuSans-118"/>
   </g>
  </g>
 </g>
 <defs>
  <clipPath id="p5f0984d0eb">
   <rect height="126.759443" width="295.52592" x="36.403365" y="73.964442"/>
  </clipPath>
  <clipPath id="pd09fce6aef">
   <rect height="199.307645" width="194.24912" x="36.403365" y="240.60024"/>
  </clipPath>
  <clipPath id="p82efc9eba9">
   <rect height="199.307645" width="194.24912" x="378.75064" y="240.60024"/>
  </clipPath>
  <clipPath id="p15a27fdcef">
   <rect height="126.759443" width="194.24912" x="378.75064" y="73.964442"/>
  </clipPath>
  <clipPath id="pe754502ba4">
   <rect height="55.748865" width="92.97232" x="238.956965" y="244.415668"/>
  </clipPath>
  <clipPath id="pcb558fac53">
   <rect height="63.379722" width="85.15738" x="242.864435" y="308.564202"/>
  </clipPath>
  <clipPath id="p511e382e2c">
   <rect height="26.931881" width="92.97232" x="238.956965" y="394.752084"/>
  </clipPath>
 </defs>
</svg>
