<?xml version="1.0" encoding="utf-8" standalone="no"?>
<!DOCTYPE svg PUBLIC "-//W3C//DTD SVG 1.1//EN"
  "http://www.w3.org/Graphics/SVG/1.1/DTD/svg11.dtd">
<!-- Created with matplotlib (https://matplotlib.org/) -->
<svg height="475.2pt" version="1.1" viewBox="0 0 576 475.2" width="576pt" xmlns="http://www.w3.org/2000/svg" xmlns:xlink="http://www.w3.org/1999/xlink">
 <defs>
  <style type="text/css">
*{stroke-linecap:butt;stroke-linejoin:round;}
  </style>
 </defs>
 <g id="figure_1">
  <g id="patch_1">
   <path d="M 0 475.2 
L 576 475.2 
L 576 0 
L 0 0 
z
" style="fill:#ffffff;"/>
  </g>
  <g id="axes_1">
   <g id="patch_2">
    <path d="M 36.403365 186.04564 
L 335.618035 186.04564 
L 335.618035 76.071693 
L 36.403365 76.071693 
z
" style="fill:#ffffff;"/>
   </g>
   <g id="patch_3">
    <path clip-path="url(#p4b6da897f3)" d="M 50.004032 186.04564 
L 52.967653 186.04564 
L 52.967653 182.554404 
L 50.004032 182.554404 
z
" style="fill:#1f77b4;"/>
   </g>
   <g id="patch_4">
    <path clip-path="url(#p4b6da897f3)" d="M 52.967653 186.04564 
L 55.931274 186.04564 
L 55.931274 186.04564 
L 52.967653 186.04564 
z
" style="fill:#1f77b4;"/>
   </g>
   <g id="patch_5">
    <path clip-path="url(#p4b6da897f3)" d="M 55.931274 186.04564 
L 58.894895 186.04564 
L 58.894895 186.04564 
L 55.931274 186.04564 
z
" style="fill:#1f77b4;"/>
   </g>
   <g id="patch_6">
    <path clip-path="url(#p4b6da897f3)" d="M 58.894895 186.04564 
L 61.858516 186.04564 
L 61.858516 182.554404 
L 58.894895 182.554404 
z
" style="fill:#1f77b4;"/>
   </g>
   <g id="patch_7">
    <path clip-path="url(#p4b6da897f3)" d="M 61.858516 186.04564 
L 64.822137 186.04564 
L 64.822137 186.04564 
L 61.858516 186.04564 
z
" style="fill:#1f77b4;"/>
   </g>
   <g id="patch_8">
    <path clip-path="url(#p4b6da897f3)" d="M 64.822137 186.04564 
L 67.785758 186.04564 
L 67.785758 179.063167 
L 64.822137 179.063167 
z
" style="fill:#1f77b4;"/>
   </g>
   <g id="patch_9">
    <path clip-path="url(#p4b6da897f3)" d="M 67.785758 186.04564 
L 70.749379 186.04564 
L 70.749379 179.063167 
L 67.785758 179.063167 
z
" style="fill:#1f77b4;"/>
   </g>
   <g id="patch_10">
    <path clip-path="url(#p4b6da897f3)" d="M 70.749379 186.04564 
L 73.712999 186.04564 
L 73.712999 179.063167 
L 70.749379 179.063167 
z
" style="fill:#1f77b4;"/>
   </g>
   <g id="patch_11">
    <path clip-path="url(#p4b6da897f3)" d="M 73.712999 186.04564 
L 76.67662 186.04564 
L 76.67662 179.063167 
L 73.712999 179.063167 
z
" style="fill:#1f77b4;"/>
   </g>
   <g id="patch_12">
    <path clip-path="url(#p4b6da897f3)" d="M 76.67662 186.04564 
L 79.640241 186.04564 
L 79.640241 179.063167 
L 76.67662 179.063167 
z
" style="fill:#1f77b4;"/>
   </g>
   <g id="patch_13">
    <path clip-path="url(#p4b6da897f3)" d="M 79.640241 186.04564 
L 82.603862 186.04564 
L 82.603862 182.554404 
L 79.640241 182.554404 
z
" style="fill:#1f77b4;"/>
   </g>
   <g id="patch_14">
    <path clip-path="url(#p4b6da897f3)" d="M 82.603862 186.04564 
L 85.567483 186.04564 
L 85.567483 186.04564 
L 82.603862 186.04564 
z
" style="fill:#1f77b4;"/>
   </g>
   <g id="patch_15">
    <path clip-path="url(#p4b6da897f3)" d="M 85.567483 186.04564 
L 88.531104 186.04564 
L 88.531104 175.571931 
L 85.567483 175.571931 
z
" style="fill:#1f77b4;"/>
   </g>
   <g id="patch_16">
    <path clip-path="url(#p4b6da897f3)" d="M 88.531104 186.04564 
L 91.494725 186.04564 
L 91.494725 172.080694 
L 88.531104 172.080694 
z
" style="fill:#1f77b4;"/>
   </g>
   <g id="patch_17">
    <path clip-path="url(#p4b6da897f3)" d="M 91.494725 186.04564 
L 94.458346 186.04564 
L 94.458346 168.589458 
L 91.494725 168.589458 
z
" style="fill:#1f77b4;"/>
   </g>
   <g id="patch_18">
    <path clip-path="url(#p4b6da897f3)" d="M 94.458346 186.04564 
L 97.421967 186.04564 
L 97.421967 144.150803 
L 94.458346 144.150803 
z
" style="fill:#1f77b4;"/>
   </g>
   <g id="patch_19">
    <path clip-path="url(#p4b6da897f3)" d="M 97.421967 186.04564 
L 100.385588 186.04564 
L 100.385588 133.677094 
L 97.421967 133.677094 
z
" style="fill:#1f77b4;"/>
   </g>
   <g id="patch_20">
    <path clip-path="url(#p4b6da897f3)" d="M 100.385588 186.04564 
L 103.349209 186.04564 
L 103.349209 151.133276 
L 100.385588 151.133276 
z
" style="fill:#1f77b4;"/>
   </g>
   <g id="patch_21">
    <path clip-path="url(#p4b6da897f3)" d="M 103.349209 186.04564 
L 106.31283 186.04564 
L 106.31283 140.659567 
L 103.349209 140.659567 
z
" style="fill:#1f77b4;"/>
   </g>
   <g id="patch_22">
    <path clip-path="url(#p4b6da897f3)" d="M 106.31283 186.04564 
L 109.276451 186.04564 
L 109.276451 116.220912 
L 106.31283 116.220912 
z
" style="fill:#1f77b4;"/>
   </g>
   <g id="patch_23">
    <path clip-path="url(#p4b6da897f3)" d="M 109.276451 186.04564 
L 112.240072 186.04564 
L 112.240072 84.799784 
L 109.276451 84.799784 
z
" style="fill:#1f77b4;"/>
   </g>
   <g id="patch_24">
    <path clip-path="url(#p4b6da897f3)" d="M 112.240072 186.04564 
L 115.203693 186.04564 
L 115.203693 116.220912 
L 112.240072 116.220912 
z
" style="fill:#1f77b4;"/>
   </g>
   <g id="patch_25">
    <path clip-path="url(#p4b6da897f3)" d="M 115.203693 186.04564 
L 118.167314 186.04564 
L 118.167314 98.76473 
L 115.203693 98.76473 
z
" style="fill:#1f77b4;"/>
   </g>
   <g id="patch_26">
    <path clip-path="url(#p4b6da897f3)" d="M 118.167314 186.04564 
L 121.130935 186.04564 
L 121.130935 81.308548 
L 118.167314 81.308548 
z
" style="fill:#1f77b4;"/>
   </g>
   <g id="patch_27">
    <path clip-path="url(#p4b6da897f3)" d="M 121.130935 186.04564 
L 124.094556 186.04564 
L 124.094556 88.291021 
L 121.130935 88.291021 
z
" style="fill:#1f77b4;"/>
   </g>
   <g id="patch_28">
    <path clip-path="url(#p4b6da897f3)" d="M 124.094556 186.04564 
L 127.058177 186.04564 
L 127.058177 109.238439 
L 124.094556 109.238439 
z
" style="fill:#1f77b4;"/>
   </g>
   <g id="patch_29">
    <path clip-path="url(#p4b6da897f3)" d="M 127.058177 186.04564 
L 130.021798 186.04564 
L 130.021798 105.747203 
L 127.058177 105.747203 
z
" style="fill:#1f77b4;"/>
   </g>
   <g id="patch_30">
    <path clip-path="url(#p4b6da897f3)" d="M 130.021798 186.04564 
L 132.985419 186.04564 
L 132.985419 81.308548 
L 130.021798 81.308548 
z
" style="fill:#1f77b4;"/>
   </g>
   <g id="patch_31">
    <path clip-path="url(#p4b6da897f3)" d="M 132.985419 186.04564 
L 135.94904 186.04564 
L 135.94904 95.273494 
L 132.985419 95.273494 
z
" style="fill:#1f77b4;"/>
   </g>
   <g id="patch_32">
    <path clip-path="url(#p4b6da897f3)" d="M 135.94904 186.04564 
L 138.912661 186.04564 
L 138.912661 109.238439 
L 135.94904 109.238439 
z
" style="fill:#1f77b4;"/>
   </g>
   <g id="patch_33">
    <path clip-path="url(#p4b6da897f3)" d="M 138.912661 186.04564 
L 141.876281 186.04564 
L 141.876281 137.16833 
L 138.912661 137.16833 
z
" style="fill:#1f77b4;"/>
   </g>
   <g id="patch_34">
    <path clip-path="url(#p4b6da897f3)" d="M 141.876281 186.04564 
L 144.839902 186.04564 
L 144.839902 147.64204 
L 141.876281 147.64204 
z
" style="fill:#1f77b4;"/>
   </g>
   <g id="patch_35">
    <path clip-path="url(#p4b6da897f3)" d="M 144.839902 186.04564 
L 147.803523 186.04564 
L 147.803523 137.16833 
L 144.839902 137.16833 
z
" style="fill:#1f77b4;"/>
   </g>
   <g id="patch_36">
    <path clip-path="url(#p4b6da897f3)" d="M 147.803523 186.04564 
L 150.767144 186.04564 
L 150.767144 144.150803 
L 147.803523 144.150803 
z
" style="fill:#1f77b4;"/>
   </g>
   <g id="patch_37">
    <path clip-path="url(#p4b6da897f3)" d="M 150.767144 186.04564 
L 153.730765 186.04564 
L 153.730765 151.133276 
L 150.767144 151.133276 
z
" style="fill:#1f77b4;"/>
   </g>
   <g id="patch_38">
    <path clip-path="url(#p4b6da897f3)" d="M 153.730765 186.04564 
L 156.694386 186.04564 
L 156.694386 158.115749 
L 153.730765 158.115749 
z
" style="fill:#1f77b4;"/>
   </g>
   <g id="patch_39">
    <path clip-path="url(#p4b6da897f3)" d="M 156.694386 186.04564 
L 159.658007 186.04564 
L 159.658007 165.098222 
L 156.694386 165.098222 
z
" style="fill:#1f77b4;"/>
   </g>
   <g id="patch_40">
    <path clip-path="url(#p4b6da897f3)" d="M 159.658007 186.04564 
L 162.621628 186.04564 
L 162.621628 172.080694 
L 159.658007 172.080694 
z
" style="fill:#1f77b4;"/>
   </g>
   <g id="patch_41">
    <path clip-path="url(#p4b6da897f3)" d="M 162.621628 186.04564 
L 165.585249 186.04564 
L 165.585249 165.098222 
L 162.621628 165.098222 
z
" style="fill:#1f77b4;"/>
   </g>
   <g id="patch_42">
    <path clip-path="url(#p4b6da897f3)" d="M 165.585249 186.04564 
L 168.54887 186.04564 
L 168.54887 175.571931 
L 165.585249 175.571931 
z
" style="fill:#1f77b4;"/>
   </g>
   <g id="patch_43">
    <path clip-path="url(#p4b6da897f3)" d="M 168.54887 186.04564 
L 171.512491 186.04564 
L 171.512491 175.571931 
L 168.54887 175.571931 
z
" style="fill:#1f77b4;"/>
   </g>
   <g id="patch_44">
    <path clip-path="url(#p4b6da897f3)" d="M 171.512491 186.04564 
L 174.476112 186.04564 
L 174.476112 175.571931 
L 171.512491 175.571931 
z
" style="fill:#1f77b4;"/>
   </g>
   <g id="patch_45">
    <path clip-path="url(#p4b6da897f3)" d="M 174.476112 186.04564 
L 177.439733 186.04564 
L 177.439733 175.571931 
L 174.476112 175.571931 
z
" style="fill:#1f77b4;"/>
   </g>
   <g id="patch_46">
    <path clip-path="url(#p4b6da897f3)" d="M 177.439733 186.04564 
L 180.403354 186.04564 
L 180.403354 175.571931 
L 177.439733 175.571931 
z
" style="fill:#1f77b4;"/>
   </g>
   <g id="patch_47">
    <path clip-path="url(#p4b6da897f3)" d="M 180.403354 186.04564 
L 183.366975 186.04564 
L 183.366975 175.571931 
L 180.403354 175.571931 
z
" style="fill:#1f77b4;"/>
   </g>
   <g id="patch_48">
    <path clip-path="url(#p4b6da897f3)" d="M 250.890465 186.04564 
L 253.854086 186.04564 
L 253.854086 168.589458 
L 250.890465 168.589458 
z
" style="fill:#ff0000;"/>
   </g>
   <g id="patch_49">
    <path clip-path="url(#p4b6da897f3)" d="M 253.854086 186.04564 
L 256.817707 186.04564 
L 256.817707 186.04564 
L 253.854086 186.04564 
z
" style="fill:#ff0000;"/>
   </g>
   <g id="patch_50">
    <path clip-path="url(#p4b6da897f3)" d="M 256.817707 186.04564 
L 259.781328 186.04564 
L 259.781328 186.04564 
L 256.817707 186.04564 
z
" style="fill:#ff0000;"/>
   </g>
   <g id="patch_51">
    <path clip-path="url(#p4b6da897f3)" d="M 259.781328 186.04564 
L 262.744949 186.04564 
L 262.744949 179.063167 
L 259.781328 179.063167 
z
" style="fill:#ff0000;"/>
   </g>
   <g id="patch_52">
    <path clip-path="url(#p4b6da897f3)" d="M 262.744949 186.04564 
L 265.70857 186.04564 
L 265.70857 182.554404 
L 262.744949 182.554404 
z
" style="fill:#ff0000;"/>
   </g>
   <g id="patch_53">
    <path clip-path="url(#p4b6da897f3)" d="M 265.70857 186.04564 
L 268.672191 186.04564 
L 268.672191 165.098222 
L 265.70857 165.098222 
z
" style="fill:#ff0000;"/>
   </g>
   <g id="patch_54">
    <path clip-path="url(#p4b6da897f3)" d="M 268.672191 186.04564 
L 271.635812 186.04564 
L 271.635812 182.554404 
L 268.672191 182.554404 
z
" style="fill:#ff0000;"/>
   </g>
   <g id="patch_55">
    <path clip-path="url(#p4b6da897f3)" d="M 271.635812 186.04564 
L 274.599433 186.04564 
L 274.599433 182.554404 
L 271.635812 182.554404 
z
" style="fill:#ff0000;"/>
   </g>
   <g id="patch_56">
    <path clip-path="url(#p4b6da897f3)" d="M 274.599433 186.04564 
L 277.563054 186.04564 
L 277.563054 158.115749 
L 274.599433 158.115749 
z
" style="fill:#ff0000;"/>
   </g>
   <g id="patch_57">
    <path clip-path="url(#p4b6da897f3)" d="M 277.563054 186.04564 
L 280.526675 186.04564 
L 280.526675 172.080694 
L 277.563054 172.080694 
z
" style="fill:#ff0000;"/>
   </g>
   <g id="patch_58">
    <path clip-path="url(#p4b6da897f3)" d="M 280.526675 186.04564 
L 283.490296 186.04564 
L 283.490296 179.063167 
L 280.526675 179.063167 
z
" style="fill:#ff0000;"/>
   </g>
   <g id="patch_59">
    <path clip-path="url(#p4b6da897f3)" d="M 283.490296 186.04564 
L 286.453917 186.04564 
L 286.453917 175.571931 
L 283.490296 175.571931 
z
" style="fill:#ff0000;"/>
   </g>
   <g id="patch_60">
    <path clip-path="url(#p4b6da897f3)" d="M 286.453917 186.04564 
L 289.417538 186.04564 
L 289.417538 182.554404 
L 286.453917 182.554404 
z
" style="fill:#ff0000;"/>
   </g>
   <g id="patch_61">
    <path clip-path="url(#p4b6da897f3)" d="M 289.417538 186.04564 
L 292.381159 186.04564 
L 292.381159 182.554404 
L 289.417538 182.554404 
z
" style="fill:#ff0000;"/>
   </g>
   <g id="patch_62">
    <path clip-path="url(#p4b6da897f3)" d="M 292.381159 186.04564 
L 295.34478 186.04564 
L 295.34478 175.571931 
L 292.381159 175.571931 
z
" style="fill:#ff0000;"/>
   </g>
   <g id="patch_63">
    <path clip-path="url(#p4b6da897f3)" d="M 295.34478 186.04564 
L 298.308401 186.04564 
L 298.308401 172.080694 
L 295.34478 172.080694 
z
" style="fill:#ff0000;"/>
   </g>
   <g id="patch_64">
    <path clip-path="url(#p4b6da897f3)" d="M 298.308401 186.04564 
L 301.272021 186.04564 
L 301.272021 168.589458 
L 298.308401 168.589458 
z
" style="fill:#ff0000;"/>
   </g>
   <g id="patch_65">
    <path clip-path="url(#p4b6da897f3)" d="M 301.272021 186.04564 
L 304.235642 186.04564 
L 304.235642 154.624512 
L 301.272021 154.624512 
z
" style="fill:#ff0000;"/>
   </g>
   <g id="patch_66">
    <path clip-path="url(#p4b6da897f3)" d="M 304.235642 186.04564 
L 307.199263 186.04564 
L 307.199263 147.64204 
L 304.235642 147.64204 
z
" style="fill:#ff0000;"/>
   </g>
   <g id="patch_67">
    <path clip-path="url(#p4b6da897f3)" d="M 307.199263 186.04564 
L 310.162884 186.04564 
L 310.162884 140.659567 
L 307.199263 140.659567 
z
" style="fill:#ff0000;"/>
   </g>
   <g id="patch_68">
    <path clip-path="url(#p4b6da897f3)" d="M 310.162884 186.04564 
L 313.126505 186.04564 
L 313.126505 151.133276 
L 310.162884 151.133276 
z
" style="fill:#ff0000;"/>
   </g>
   <g id="patch_69">
    <path clip-path="url(#p4b6da897f3)" d="M 313.126505 186.04564 
L 316.090126 186.04564 
L 316.090126 154.624512 
L 313.126505 154.624512 
z
" style="fill:#ff0000;"/>
   </g>
   <g id="patch_70">
    <path clip-path="url(#p4b6da897f3)" d="M 316.090126 186.04564 
L 319.053747 186.04564 
L 319.053747 158.115749 
L 316.090126 158.115749 
z
" style="fill:#ff0000;"/>
   </g>
   <g id="patch_71">
    <path clip-path="url(#p4b6da897f3)" d="M 319.053747 186.04564 
L 322.017368 186.04564 
L 322.017368 179.063167 
L 319.053747 179.063167 
z
" style="fill:#ff0000;"/>
   </g>
   <g id="patch_72">
    <path clip-path="url(#p4b6da897f3)" d="M 185.107297 186.04564 
L 188.070918 186.04564 
L 188.070918 172.080694 
L 185.107297 172.080694 
z
" style="fill:#ffa500;"/>
   </g>
   <g id="patch_73">
    <path clip-path="url(#p4b6da897f3)" d="M 188.070918 186.04564 
L 191.034539 186.04564 
L 191.034539 179.063167 
L 188.070918 179.063167 
z
" style="fill:#ffa500;"/>
   </g>
   <g id="patch_74">
    <path clip-path="url(#p4b6da897f3)" d="M 191.034539 186.04564 
L 193.99816 186.04564 
L 193.99816 172.080694 
L 191.034539 172.080694 
z
" style="fill:#ffa500;"/>
   </g>
   <g id="patch_75">
    <path clip-path="url(#p4b6da897f3)" d="M 193.99816 186.04564 
L 196.961781 186.04564 
L 196.961781 172.080694 
L 193.99816 172.080694 
z
" style="fill:#ffa500;"/>
   </g>
   <g id="patch_76">
    <path clip-path="url(#p4b6da897f3)" d="M 196.961781 186.04564 
L 199.925402 186.04564 
L 199.925402 172.080694 
L 196.961781 172.080694 
z
" style="fill:#ffa500;"/>
   </g>
   <g id="patch_77">
    <path clip-path="url(#p4b6da897f3)" d="M 199.925402 186.04564 
L 202.889023 186.04564 
L 202.889023 168.589458 
L 199.925402 168.589458 
z
" style="fill:#ffa500;"/>
   </g>
   <g id="patch_78">
    <path clip-path="url(#p4b6da897f3)" d="M 202.889023 186.04564 
L 205.852644 186.04564 
L 205.852644 186.04564 
L 202.889023 186.04564 
z
" style="fill:#ffa500;"/>
   </g>
   <g id="patch_79">
    <path clip-path="url(#p4b6da897f3)" d="M 205.852644 186.04564 
L 208.816265 186.04564 
L 208.816265 179.063167 
L 205.852644 179.063167 
z
" style="fill:#ffa500;"/>
   </g>
   <g id="patch_80">
    <path clip-path="url(#p4b6da897f3)" d="M 208.816265 186.04564 
L 211.779886 186.04564 
L 211.779886 175.571931 
L 208.816265 175.571931 
z
" style="fill:#ffa500;"/>
   </g>
   <g id="patch_81">
    <path clip-path="url(#p4b6da897f3)" d="M 211.779886 186.04564 
L 214.743507 186.04564 
L 214.743507 182.554404 
L 211.779886 182.554404 
z
" style="fill:#ffa500;"/>
   </g>
   <g id="patch_82">
    <path clip-path="url(#p4b6da897f3)" d="M 214.743507 186.04564 
L 217.707128 186.04564 
L 217.707128 182.554404 
L 214.743507 182.554404 
z
" style="fill:#ffa500;"/>
   </g>
   <g id="patch_83">
    <path clip-path="url(#p4b6da897f3)" d="M 217.707128 186.04564 
L 220.670748 186.04564 
L 220.670748 175.571931 
L 217.707128 175.571931 
z
" style="fill:#ffa500;"/>
   </g>
   <g id="patch_84">
    <path clip-path="url(#p4b6da897f3)" d="M 220.670748 186.04564 
L 223.634369 186.04564 
L 223.634369 179.063167 
L 220.670748 179.063167 
z
" style="fill:#ffa500;"/>
   </g>
   <g id="patch_85">
    <path clip-path="url(#p4b6da897f3)" d="M 223.634369 186.04564 
L 226.59799 186.04564 
L 226.59799 186.04564 
L 223.634369 186.04564 
z
" style="fill:#ffa500;"/>
   </g>
   <g id="patch_86">
    <path clip-path="url(#p4b6da897f3)" d="M 226.59799 186.04564 
L 229.561611 186.04564 
L 229.561611 179.063167 
L 226.59799 179.063167 
z
" style="fill:#ffa500;"/>
   </g>
   <g id="patch_87">
    <path clip-path="url(#p4b6da897f3)" d="M 229.561611 186.04564 
L 232.525232 186.04564 
L 232.525232 182.554404 
L 229.561611 182.554404 
z
" style="fill:#ffa500;"/>
   </g>
   <g id="patch_88">
    <path clip-path="url(#p4b6da897f3)" d="M 232.525232 186.04564 
L 235.488853 186.04564 
L 235.488853 172.080694 
L 232.525232 172.080694 
z
" style="fill:#ffa500;"/>
   </g>
   <g id="patch_89">
    <path clip-path="url(#p4b6da897f3)" d="M 235.488853 186.04564 
L 238.452474 186.04564 
L 238.452474 186.04564 
L 235.488853 186.04564 
z
" style="fill:#ffa500;"/>
   </g>
   <g id="patch_90">
    <path clip-path="url(#p4b6da897f3)" d="M 238.452474 186.04564 
L 241.416095 186.04564 
L 241.416095 179.063167 
L 238.452474 179.063167 
z
" style="fill:#ffa500;"/>
   </g>
   <g id="patch_91">
    <path clip-path="url(#p4b6da897f3)" d="M 241.416095 186.04564 
L 244.379716 186.04564 
L 244.379716 182.554404 
L 241.416095 182.554404 
z
" style="fill:#ffa500;"/>
   </g>
   <g id="patch_92">
    <path clip-path="url(#p4b6da897f3)" d="M 244.379716 186.04564 
L 247.343337 186.04564 
L 247.343337 179.063167 
L 244.379716 179.063167 
z
" style="fill:#ffa500;"/>
   </g>
   <g id="patch_93">
    <path clip-path="url(#p4b6da897f3)" d="M 247.343337 186.04564 
L 250.306958 186.04564 
L 250.306958 179.063167 
L 247.343337 179.063167 
z
" style="fill:#ffa500;"/>
   </g>
   <g id="matplotlib.axis_1">
    <g id="xtick_1">
     <g id="line2d_1">
      <defs>
       <path d="M 0 0 
L 0 3.5 
" id="me1a445721d" style="stroke:#000000;stroke-width:0.8;"/>
      </defs>
      <g>
       <use style="stroke:#000000;stroke-width:0.8;" x="50.004032" xlink:href="#me1a445721d" y="186.04564"/>
      </g>
     </g>
     <g id="text_1">
      <!-- 0 -->
      <defs>
       <path d="M 31.78125 66.40625 
Q 24.171875 66.40625 20.328125 58.90625 
Q 16.5 51.421875 16.5 36.375 
Q 16.5 21.390625 20.328125 13.890625 
Q 24.171875 6.390625 31.78125 6.390625 
Q 39.453125 6.390625 43.28125 13.890625 
Q 47.125 21.390625 47.125 36.375 
Q 47.125 51.421875 43.28125 58.90625 
Q 39.453125 66.40625 31.78125 66.40625 
z
M 31.78125 74.21875 
Q 44.046875 74.21875 50.515625 64.515625 
Q 56.984375 54.828125 56.984375 36.375 
Q 56.984375 17.96875 50.515625 8.265625 
Q 44.046875 -1.421875 31.78125 -1.421875 
Q 19.53125 -1.421875 13.0625 8.265625 
Q 6.59375 17.96875 6.59375 36.375 
Q 6.59375 54.828125 13.0625 64.515625 
Q 19.53125 74.21875 31.78125 74.21875 
z
" id="DejaVuSans-48"/>
      </defs>
      <g transform="translate(46.822782 200.644078)scale(0.1 -0.1)">
       <use xlink:href="#DejaVuSans-48"/>
      </g>
     </g>
    </g>
    <g id="xtick_2">
     <g id="line2d_2">
      <g>
       <use style="stroke:#000000;stroke-width:0.8;" x="109.276451" xlink:href="#me1a445721d" y="186.04564"/>
      </g>
     </g>
     <g id="text_2">
      <!-- 1 -->
      <defs>
       <path d="M 12.40625 8.296875 
L 28.515625 8.296875 
L 28.515625 63.921875 
L 10.984375 60.40625 
L 10.984375 69.390625 
L 28.421875 72.90625 
L 38.28125 72.90625 
L 38.28125 8.296875 
L 54.390625 8.296875 
L 54.390625 0 
L 12.40625 0 
z
" id="DejaVuSans-49"/>
      </defs>
      <g transform="translate(106.095201 200.644078)scale(0.1 -0.1)">
       <use xlink:href="#DejaVuSans-49"/>
      </g>
     </g>
    </g>
    <g id="xtick_3">
     <g id="line2d_3">
      <g>
       <use style="stroke:#000000;stroke-width:0.8;" x="168.54887" xlink:href="#me1a445721d" y="186.04564"/>
      </g>
     </g>
     <g id="text_3">
      <!-- 2 -->
      <defs>
       <path d="M 19.1875 8.296875 
L 53.609375 8.296875 
L 53.609375 0 
L 7.328125 0 
L 7.328125 8.296875 
Q 12.9375 14.109375 22.625 23.890625 
Q 32.328125 33.6875 34.8125 36.53125 
Q 39.546875 41.84375 41.421875 45.53125 
Q 43.3125 49.21875 43.3125 52.78125 
Q 43.3125 58.59375 39.234375 62.25 
Q 35.15625 65.921875 28.609375 65.921875 
Q 23.96875 65.921875 18.8125 64.3125 
Q 13.671875 62.703125 7.8125 59.421875 
L 7.8125 69.390625 
Q 13.765625 71.78125 18.9375 73 
Q 24.125 74.21875 28.421875 74.21875 
Q 39.75 74.21875 46.484375 68.546875 
Q 53.21875 62.890625 53.21875 53.421875 
Q 53.21875 48.921875 51.53125 44.890625 
Q 49.859375 40.875 45.40625 35.40625 
Q 44.1875 33.984375 37.640625 27.21875 
Q 31.109375 20.453125 19.1875 8.296875 
z
" id="DejaVuSans-50"/>
      </defs>
      <g transform="translate(165.36762 200.644078)scale(0.1 -0.1)">
       <use xlink:href="#DejaVuSans-50"/>
      </g>
     </g>
    </g>
    <g id="xtick_4">
     <g id="line2d_4">
      <g>
       <use style="stroke:#000000;stroke-width:0.8;" x="227.821289" xlink:href="#me1a445721d" y="186.04564"/>
      </g>
     </g>
     <g id="text_4">
      <!-- 3 -->
      <defs>
       <path d="M 40.578125 39.3125 
Q 47.65625 37.796875 51.625 33 
Q 55.609375 28.21875 55.609375 21.1875 
Q 55.609375 10.40625 48.1875 4.484375 
Q 40.765625 -1.421875 27.09375 -1.421875 
Q 22.515625 -1.421875 17.65625 -0.515625 
Q 12.796875 0.390625 7.625 2.203125 
L 7.625 11.71875 
Q 11.71875 9.328125 16.59375 8.109375 
Q 21.484375 6.890625 26.8125 6.890625 
Q 36.078125 6.890625 40.9375 10.546875 
Q 45.796875 14.203125 45.796875 21.1875 
Q 45.796875 27.640625 41.28125 31.265625 
Q 36.765625 34.90625 28.71875 34.90625 
L 20.21875 34.90625 
L 20.21875 43.015625 
L 29.109375 43.015625 
Q 36.375 43.015625 40.234375 45.921875 
Q 44.09375 48.828125 44.09375 54.296875 
Q 44.09375 59.90625 40.109375 62.90625 
Q 36.140625 65.921875 28.71875 65.921875 
Q 24.65625 65.921875 20.015625 65.03125 
Q 15.375 64.15625 9.8125 62.3125 
L 9.8125 71.09375 
Q 15.4375 72.65625 20.34375 73.4375 
Q 25.25 74.21875 29.59375 74.21875 
Q 40.828125 74.21875 47.359375 69.109375 
Q 53.90625 64.015625 53.90625 55.328125 
Q 53.90625 49.265625 50.4375 45.09375 
Q 46.96875 40.921875 40.578125 39.3125 
z
" id="DejaVuSans-51"/>
      </defs>
      <g transform="translate(224.640039 200.644078)scale(0.1 -0.1)">
       <use xlink:href="#DejaVuSans-51"/>
      </g>
     </g>
    </g>
    <g id="xtick_5">
     <g id="line2d_5">
      <g>
       <use style="stroke:#000000;stroke-width:0.8;" x="287.093708" xlink:href="#me1a445721d" y="186.04564"/>
      </g>
     </g>
     <g id="text_5">
      <!-- 4 -->
      <defs>
       <path d="M 37.796875 64.3125 
L 12.890625 25.390625 
L 37.796875 25.390625 
z
M 35.203125 72.90625 
L 47.609375 72.90625 
L 47.609375 25.390625 
L 58.015625 25.390625 
L 58.015625 17.1875 
L 47.609375 17.1875 
L 47.609375 0 
L 37.796875 0 
L 37.796875 17.1875 
L 4.890625 17.1875 
L 4.890625 26.703125 
z
" id="DejaVuSans-52"/>
      </defs>
      <g transform="translate(283.912458 200.644078)scale(0.1 -0.1)">
       <use xlink:href="#DejaVuSans-52"/>
      </g>
     </g>
    </g>
    <g id="text_6">
     <!-- log(RFU) -->
     <defs>
      <path d="M 9.421875 75.984375 
L 18.40625 75.984375 
L 18.40625 0 
L 9.421875 0 
z
" id="DejaVuSans-108"/>
      <path d="M 30.609375 48.390625 
Q 23.390625 48.390625 19.1875 42.75 
Q 14.984375 37.109375 14.984375 27.296875 
Q 14.984375 17.484375 19.15625 11.84375 
Q 23.34375 6.203125 30.609375 6.203125 
Q 37.796875 6.203125 41.984375 11.859375 
Q 46.1875 17.53125 46.1875 27.296875 
Q 46.1875 37.015625 41.984375 42.703125 
Q 37.796875 48.390625 30.609375 48.390625 
z
M 30.609375 56 
Q 42.328125 56 49.015625 48.375 
Q 55.71875 40.765625 55.71875 27.296875 
Q 55.71875 13.875 49.015625 6.21875 
Q 42.328125 -1.421875 30.609375 -1.421875 
Q 18.84375 -1.421875 12.171875 6.21875 
Q 5.515625 13.875 5.515625 27.296875 
Q 5.515625 40.765625 12.171875 48.375 
Q 18.84375 56 30.609375 56 
z
" id="DejaVuSans-111"/>
      <path d="M 45.40625 27.984375 
Q 45.40625 37.75 41.375 43.109375 
Q 37.359375 48.484375 30.078125 48.484375 
Q 22.859375 48.484375 18.828125 43.109375 
Q 14.796875 37.75 14.796875 27.984375 
Q 14.796875 18.265625 18.828125 12.890625 
Q 22.859375 7.515625 30.078125 7.515625 
Q 37.359375 7.515625 41.375 12.890625 
Q 45.40625 18.265625 45.40625 27.984375 
z
M 54.390625 6.78125 
Q 54.390625 -7.171875 48.1875 -13.984375 
Q 42 -20.796875 29.203125 -20.796875 
Q 24.46875 -20.796875 20.265625 -20.09375 
Q 16.0625 -19.390625 12.109375 -17.921875 
L 12.109375 -9.1875 
Q 16.0625 -11.328125 19.921875 -12.34375 
Q 23.78125 -13.375 27.78125 -13.375 
Q 36.625 -13.375 41.015625 -8.765625 
Q 45.40625 -4.15625 45.40625 5.171875 
L 45.40625 9.625 
Q 42.625 4.78125 38.28125 2.390625 
Q 33.9375 0 27.875 0 
Q 17.828125 0 11.671875 7.65625 
Q 5.515625 15.328125 5.515625 27.984375 
Q 5.515625 40.671875 11.671875 48.328125 
Q 17.828125 56 27.875 56 
Q 33.9375 56 38.28125 53.609375 
Q 42.625 51.21875 45.40625 46.390625 
L 45.40625 54.6875 
L 54.390625 54.6875 
z
" id="DejaVuSans-103"/>
      <path d="M 31 75.875 
Q 24.46875 64.65625 21.28125 53.65625 
Q 18.109375 42.671875 18.109375 31.390625 
Q 18.109375 20.125 21.3125 9.0625 
Q 24.515625 -2 31 -13.1875 
L 23.1875 -13.1875 
Q 15.875 -1.703125 12.234375 9.375 
Q 8.59375 20.453125 8.59375 31.390625 
Q 8.59375 42.28125 12.203125 53.3125 
Q 15.828125 64.359375 23.1875 75.875 
z
" id="DejaVuSans-40"/>
      <path d="M 44.390625 34.1875 
Q 47.5625 33.109375 50.5625 29.59375 
Q 53.5625 26.078125 56.59375 19.921875 
L 66.609375 0 
L 56 0 
L 46.6875 18.703125 
Q 43.0625 26.03125 39.671875 28.421875 
Q 36.28125 30.8125 30.421875 30.8125 
L 19.671875 30.8125 
L 19.671875 0 
L 9.8125 0 
L 9.8125 72.90625 
L 32.078125 72.90625 
Q 44.578125 72.90625 50.734375 67.671875 
Q 56.890625 62.453125 56.890625 51.90625 
Q 56.890625 45.015625 53.6875 40.46875 
Q 50.484375 35.9375 44.390625 34.1875 
z
M 19.671875 64.796875 
L 19.671875 38.921875 
L 32.078125 38.921875 
Q 39.203125 38.921875 42.84375 42.21875 
Q 46.484375 45.515625 46.484375 51.90625 
Q 46.484375 58.296875 42.84375 61.546875 
Q 39.203125 64.796875 32.078125 64.796875 
z
" id="DejaVuSans-82"/>
      <path d="M 9.8125 72.90625 
L 51.703125 72.90625 
L 51.703125 64.59375 
L 19.671875 64.59375 
L 19.671875 43.109375 
L 48.578125 43.109375 
L 48.578125 34.8125 
L 19.671875 34.8125 
L 19.671875 0 
L 9.8125 0 
z
" id="DejaVuSans-70"/>
      <path d="M 8.6875 72.90625 
L 18.609375 72.90625 
L 18.609375 28.609375 
Q 18.609375 16.890625 22.84375 11.734375 
Q 27.09375 6.59375 36.625 6.59375 
Q 46.09375 6.59375 50.34375 11.734375 
Q 54.59375 16.890625 54.59375 28.609375 
L 54.59375 72.90625 
L 64.5 72.90625 
L 64.5 27.390625 
Q 64.5 13.140625 57.4375 5.859375 
Q 50.390625 -1.421875 36.625 -1.421875 
Q 22.796875 -1.421875 15.734375 5.859375 
Q 8.6875 13.140625 8.6875 27.390625 
z
" id="DejaVuSans-85"/>
      <path d="M 8.015625 75.875 
L 15.828125 75.875 
Q 23.140625 64.359375 26.78125 53.3125 
Q 30.421875 42.28125 30.421875 31.390625 
Q 30.421875 20.453125 26.78125 9.375 
Q 23.140625 -1.703125 15.828125 -13.1875 
L 8.015625 -13.1875 
Q 14.5 -2 17.703125 9.0625 
Q 20.90625 20.125 20.90625 31.390625 
Q 20.90625 42.671875 17.703125 53.65625 
Q 14.5 64.65625 8.015625 75.875 
z
" id="DejaVuSans-41"/>
     </defs>
     <g transform="translate(164.477106 214.322203)scale(0.1 -0.1)">
      <use xlink:href="#DejaVuSans-108"/>
      <use x="27.783203" xlink:href="#DejaVuSans-111"/>
      <use x="88.964844" xlink:href="#DejaVuSans-103"/>
      <use x="152.441406" xlink:href="#DejaVuSans-40"/>
      <use x="191.455078" xlink:href="#DejaVuSans-82"/>
      <use x="260.9375" xlink:href="#DejaVuSans-70"/>
      <use x="318.457031" xlink:href="#DejaVuSans-85"/>
      <use x="391.650391" xlink:href="#DejaVuSans-41"/>
     </g>
    </g>
   </g>
   <g id="matplotlib.axis_2">
    <g id="ytick_1">
     <g id="line2d_6">
      <defs>
       <path d="M 0 0 
L -3.5 0 
" id="ma2c31b74e9" style="stroke:#000000;stroke-width:0.8;"/>
      </defs>
      <g>
       <use style="stroke:#000000;stroke-width:0.8;" x="36.403365" xlink:href="#ma2c31b74e9" y="186.04564"/>
      </g>
     </g>
     <g id="text_7">
      <!-- 0 -->
      <g transform="translate(23.040865 189.844859)scale(0.1 -0.1)">
       <use xlink:href="#DejaVuSans-48"/>
      </g>
     </g>
    </g>
    <g id="ytick_2">
     <g id="line2d_7">
      <g>
       <use style="stroke:#000000;stroke-width:0.8;" x="36.403365" xlink:href="#ma2c31b74e9" y="151.133276"/>
      </g>
     </g>
     <g id="text_8">
      <!-- 10 -->
      <g transform="translate(16.678365 154.932495)scale(0.1 -0.1)">
       <use xlink:href="#DejaVuSans-49"/>
       <use x="63.623047" xlink:href="#DejaVuSans-48"/>
      </g>
     </g>
    </g>
    <g id="ytick_3">
     <g id="line2d_8">
      <g>
       <use style="stroke:#000000;stroke-width:0.8;" x="36.403365" xlink:href="#ma2c31b74e9" y="116.220912"/>
      </g>
     </g>
     <g id="text_9">
      <!-- 20 -->
      <g transform="translate(16.678365 120.020131)scale(0.1 -0.1)">
       <use xlink:href="#DejaVuSans-50"/>
       <use x="63.623047" xlink:href="#DejaVuSans-48"/>
      </g>
     </g>
    </g>
    <g id="ytick_4">
     <g id="line2d_9">
      <g>
       <use style="stroke:#000000;stroke-width:0.8;" x="36.403365" xlink:href="#ma2c31b74e9" y="81.308548"/>
      </g>
     </g>
     <g id="text_10">
      <!-- 30 -->
      <g transform="translate(16.678365 85.107767)scale(0.1 -0.1)">
       <use xlink:href="#DejaVuSans-51"/>
       <use x="63.623047" xlink:href="#DejaVuSans-48"/>
      </g>
     </g>
    </g>
    <g id="text_11">
     <!-- Counts -->
     <defs>
      <path d="M 64.40625 67.28125 
L 64.40625 56.890625 
Q 59.421875 61.53125 53.78125 63.8125 
Q 48.140625 66.109375 41.796875 66.109375 
Q 29.296875 66.109375 22.65625 58.46875 
Q 16.015625 50.828125 16.015625 36.375 
Q 16.015625 21.96875 22.65625 14.328125 
Q 29.296875 6.6875 41.796875 6.6875 
Q 48.140625 6.6875 53.78125 8.984375 
Q 59.421875 11.28125 64.40625 15.921875 
L 64.40625 5.609375 
Q 59.234375 2.09375 53.4375 0.328125 
Q 47.65625 -1.421875 41.21875 -1.421875 
Q 24.65625 -1.421875 15.125 8.703125 
Q 5.609375 18.84375 5.609375 36.375 
Q 5.609375 53.953125 15.125 64.078125 
Q 24.65625 74.21875 41.21875 74.21875 
Q 47.75 74.21875 53.53125 72.484375 
Q 59.328125 70.75 64.40625 67.28125 
z
" id="DejaVuSans-67"/>
      <path d="M 8.5 21.578125 
L 8.5 54.6875 
L 17.484375 54.6875 
L 17.484375 21.921875 
Q 17.484375 14.15625 20.5 10.265625 
Q 23.53125 6.390625 29.59375 6.390625 
Q 36.859375 6.390625 41.078125 11.03125 
Q 45.3125 15.671875 45.3125 23.6875 
L 45.3125 54.6875 
L 54.296875 54.6875 
L 54.296875 0 
L 45.3125 0 
L 45.3125 8.40625 
Q 42.046875 3.421875 37.71875 1 
Q 33.40625 -1.421875 27.6875 -1.421875 
Q 18.265625 -1.421875 13.375 4.4375 
Q 8.5 10.296875 8.5 21.578125 
z
M 31.109375 56 
z
" id="DejaVuSans-117"/>
      <path d="M 54.890625 33.015625 
L 54.890625 0 
L 45.90625 0 
L 45.90625 32.71875 
Q 45.90625 40.484375 42.875 44.328125 
Q 39.84375 48.1875 33.796875 48.1875 
Q 26.515625 48.1875 22.3125 43.546875 
Q 18.109375 38.921875 18.109375 30.90625 
L 18.109375 0 
L 9.078125 0 
L 9.078125 54.6875 
L 18.109375 54.6875 
L 18.109375 46.1875 
Q 21.34375 51.125 25.703125 53.5625 
Q 30.078125 56 35.796875 56 
Q 45.21875 56 50.046875 50.171875 
Q 54.890625 44.34375 54.890625 33.015625 
z
" id="DejaVuSans-110"/>
      <path d="M 18.3125 70.21875 
L 18.3125 54.6875 
L 36.8125 54.6875 
L 36.8125 47.703125 
L 18.3125 47.703125 
L 18.3125 18.015625 
Q 18.3125 11.328125 20.140625 9.421875 
Q 21.96875 7.515625 27.59375 7.515625 
L 36.8125 7.515625 
L 36.8125 0 
L 27.59375 0 
Q 17.1875 0 13.234375 3.875 
Q 9.28125 7.765625 9.28125 18.015625 
L 9.28125 47.703125 
L 2.6875 47.703125 
L 2.6875 54.6875 
L 9.28125 54.6875 
L 9.28125 70.21875 
z
" id="DejaVuSans-116"/>
      <path d="M 44.28125 53.078125 
L 44.28125 44.578125 
Q 40.484375 46.53125 36.375 47.5 
Q 32.28125 48.484375 27.875 48.484375 
Q 21.1875 48.484375 17.84375 46.4375 
Q 14.5 44.390625 14.5 40.28125 
Q 14.5 37.15625 16.890625 35.375 
Q 19.28125 33.59375 26.515625 31.984375 
L 29.59375 31.296875 
Q 39.15625 29.25 43.1875 25.515625 
Q 47.21875 21.78125 47.21875 15.09375 
Q 47.21875 7.46875 41.1875 3.015625 
Q 35.15625 -1.421875 24.609375 -1.421875 
Q 20.21875 -1.421875 15.453125 -0.5625 
Q 10.6875 0.296875 5.421875 2 
L 5.421875 11.28125 
Q 10.40625 8.6875 15.234375 7.390625 
Q 20.0625 6.109375 24.8125 6.109375 
Q 31.15625 6.109375 34.5625 8.28125 
Q 37.984375 10.453125 37.984375 14.40625 
Q 37.984375 18.0625 35.515625 20.015625 
Q 33.0625 21.96875 24.703125 23.78125 
L 21.578125 24.515625 
Q 13.234375 26.265625 9.515625 29.90625 
Q 5.8125 33.546875 5.8125 39.890625 
Q 5.8125 47.609375 11.28125 51.796875 
Q 16.75 56 26.8125 56 
Q 31.78125 56 36.171875 55.265625 
Q 40.578125 54.546875 44.28125 53.078125 
z
" id="DejaVuSans-115"/>
     </defs>
     <g transform="translate(10.598677 148.511792)rotate(-90)scale(0.1 -0.1)">
      <use xlink:href="#DejaVuSans-67"/>
      <use x="69.824219" xlink:href="#DejaVuSans-111"/>
      <use x="131.005859" xlink:href="#DejaVuSans-117"/>
      <use x="194.384766" xlink:href="#DejaVuSans-110"/>
      <use x="257.763672" xlink:href="#DejaVuSans-116"/>
      <use x="296.972656" xlink:href="#DejaVuSans-115"/>
     </g>
    </g>
   </g>
   <g id="patch_94">
    <path d="M 36.403365 186.04564 
L 36.403365 76.071693 
" style="fill:none;stroke:#000000;stroke-linecap:square;stroke-linejoin:miter;stroke-width:0.8;"/>
   </g>
   <g id="patch_95">
    <path d="M 335.618035 186.04564 
L 335.618035 76.071693 
" style="fill:none;stroke:#000000;stroke-linecap:square;stroke-linejoin:miter;stroke-width:0.8;"/>
   </g>
   <g id="patch_96">
    <path d="M 36.403365 186.04564 
L 335.618035 186.04564 
" style="fill:none;stroke:#000000;stroke-linecap:square;stroke-linejoin:miter;stroke-width:0.8;"/>
   </g>
   <g id="patch_97">
    <path d="M 36.403365 76.071693 
L 335.618035 76.071693 
" style="fill:none;stroke:#000000;stroke-linecap:square;stroke-linejoin:miter;stroke-width:0.8;"/>
   </g>
  </g>
  <g id="axes_2">
   <g id="patch_98">
    <path d="M 36.403365 439.907885 
L 213.601235 439.907885 
L 213.601235 229.421995 
L 36.403365 229.421995 
z
" style="fill:#ffffff;"/>
   </g>
   <g id="patch_99">
    <path clip-path="url(#p8eff6b5fbe)" d="M 36.403365 430.340345 
L 127.754442 430.340345 
L 127.754442 375.668685 
L 36.403365 375.668685 
z
" style="fill:#1f77b4;"/>
   </g>
   <g id="patch_100">
    <path clip-path="url(#p8eff6b5fbe)" d="M 36.403365 362.00077 
L 168.458213 362.00077 
L 168.458213 307.32911 
L 36.403365 307.32911 
z
" style="fill:#1f77b4;"/>
   </g>
   <g id="patch_101">
    <path clip-path="url(#p8eff6b5fbe)" d="M 36.403365 293.661195 
L 205.163241 293.661195 
L 205.163241 238.989535 
L 36.403365 238.989535 
z
" style="fill:#1f77b4;"/>
   </g>
   <g id="matplotlib.axis_3">
    <g id="xtick_6">
     <g id="line2d_10">
      <g>
       <use style="stroke:#000000;stroke-width:0.8;" x="36.403365" xlink:href="#me1a445721d" y="439.907885"/>
      </g>
     </g>
     <g id="text_12">
      <!-- 0 -->
      <g transform="translate(33.222115 454.506323)scale(0.1 -0.1)">
       <use xlink:href="#DejaVuSans-48"/>
      </g>
     </g>
    </g>
    <g id="xtick_7">
     <g id="line2d_11">
      <g>
       <use style="stroke:#000000;stroke-width:0.8;" x="75.79221" xlink:href="#me1a445721d" y="439.907885"/>
      </g>
     </g>
     <g id="text_13">
      <!-- 1 -->
      <g transform="translate(72.61096 454.506323)scale(0.1 -0.1)">
       <use xlink:href="#DejaVuSans-49"/>
      </g>
     </g>
    </g>
    <g id="xtick_8">
     <g id="line2d_12">
      <g>
       <use style="stroke:#000000;stroke-width:0.8;" x="115.181056" xlink:href="#me1a445721d" y="439.907885"/>
      </g>
     </g>
     <g id="text_14">
      <!-- 2 -->
      <g transform="translate(111.999806 454.506323)scale(0.1 -0.1)">
       <use xlink:href="#DejaVuSans-50"/>
      </g>
     </g>
    </g>
    <g id="xtick_9">
     <g id="line2d_13">
      <g>
       <use style="stroke:#000000;stroke-width:0.8;" x="154.569901" xlink:href="#me1a445721d" y="439.907885"/>
      </g>
     </g>
     <g id="text_15">
      <!-- 3 -->
      <g transform="translate(151.388651 454.506323)scale(0.1 -0.1)">
       <use xlink:href="#DejaVuSans-51"/>
      </g>
     </g>
    </g>
    <g id="xtick_10">
     <g id="line2d_14">
      <g>
       <use style="stroke:#000000;stroke-width:0.8;" x="193.958746" xlink:href="#me1a445721d" y="439.907885"/>
      </g>
     </g>
     <g id="text_16">
      <!-- 4 -->
      <g transform="translate(190.777496 454.506323)scale(0.1 -0.1)">
       <use xlink:href="#DejaVuSans-52"/>
      </g>
     </g>
    </g>
    <g id="text_17">
     <!-- Model Coefficient -->
     <defs>
      <path d="M 9.8125 72.90625 
L 24.515625 72.90625 
L 43.109375 23.296875 
L 61.8125 72.90625 
L 76.515625 72.90625 
L 76.515625 0 
L 66.890625 0 
L 66.890625 64.015625 
L 48.09375 14.015625 
L 38.1875 14.015625 
L 19.390625 64.015625 
L 19.390625 0 
L 9.8125 0 
z
" id="DejaVuSans-77"/>
      <path d="M 45.40625 46.390625 
L 45.40625 75.984375 
L 54.390625 75.984375 
L 54.390625 0 
L 45.40625 0 
L 45.40625 8.203125 
Q 42.578125 3.328125 38.25 0.953125 
Q 33.9375 -1.421875 27.875 -1.421875 
Q 17.96875 -1.421875 11.734375 6.484375 
Q 5.515625 14.40625 5.515625 27.296875 
Q 5.515625 40.1875 11.734375 48.09375 
Q 17.96875 56 27.875 56 
Q 33.9375 56 38.25 53.625 
Q 42.578125 51.265625 45.40625 46.390625 
z
M 14.796875 27.296875 
Q 14.796875 17.390625 18.875 11.75 
Q 22.953125 6.109375 30.078125 6.109375 
Q 37.203125 6.109375 41.296875 11.75 
Q 45.40625 17.390625 45.40625 27.296875 
Q 45.40625 37.203125 41.296875 42.84375 
Q 37.203125 48.484375 30.078125 48.484375 
Q 22.953125 48.484375 18.875 42.84375 
Q 14.796875 37.203125 14.796875 27.296875 
z
" id="DejaVuSans-100"/>
      <path d="M 56.203125 29.59375 
L 56.203125 25.203125 
L 14.890625 25.203125 
Q 15.484375 15.921875 20.484375 11.0625 
Q 25.484375 6.203125 34.421875 6.203125 
Q 39.59375 6.203125 44.453125 7.46875 
Q 49.3125 8.734375 54.109375 11.28125 
L 54.109375 2.78125 
Q 49.265625 0.734375 44.1875 -0.34375 
Q 39.109375 -1.421875 33.890625 -1.421875 
Q 20.796875 -1.421875 13.15625 6.1875 
Q 5.515625 13.8125 5.515625 26.8125 
Q 5.515625 40.234375 12.765625 48.109375 
Q 20.015625 56 32.328125 56 
Q 43.359375 56 49.78125 48.890625 
Q 56.203125 41.796875 56.203125 29.59375 
z
M 47.21875 32.234375 
Q 47.125 39.59375 43.09375 43.984375 
Q 39.0625 48.390625 32.421875 48.390625 
Q 24.90625 48.390625 20.390625 44.140625 
Q 15.875 39.890625 15.1875 32.171875 
z
" id="DejaVuSans-101"/>
      <path id="DejaVuSans-32"/>
      <path d="M 37.109375 75.984375 
L 37.109375 68.5 
L 28.515625 68.5 
Q 23.6875 68.5 21.796875 66.546875 
Q 19.921875 64.59375 19.921875 59.515625 
L 19.921875 54.6875 
L 34.71875 54.6875 
L 34.71875 47.703125 
L 19.921875 47.703125 
L 19.921875 0 
L 10.890625 0 
L 10.890625 47.703125 
L 2.296875 47.703125 
L 2.296875 54.6875 
L 10.890625 54.6875 
L 10.890625 58.5 
Q 10.890625 67.625 15.140625 71.796875 
Q 19.390625 75.984375 28.609375 75.984375 
z
" id="DejaVuSans-102"/>
      <path d="M 9.421875 54.6875 
L 18.40625 54.6875 
L 18.40625 0 
L 9.421875 0 
z
M 9.421875 75.984375 
L 18.40625 75.984375 
L 18.40625 64.59375 
L 9.421875 64.59375 
z
" id="DejaVuSans-105"/>
      <path d="M 48.78125 52.59375 
L 48.78125 44.1875 
Q 44.96875 46.296875 41.140625 47.34375 
Q 37.3125 48.390625 33.40625 48.390625 
Q 24.65625 48.390625 19.8125 42.84375 
Q 14.984375 37.3125 14.984375 27.296875 
Q 14.984375 17.28125 19.8125 11.734375 
Q 24.65625 6.203125 33.40625 6.203125 
Q 37.3125 6.203125 41.140625 7.25 
Q 44.96875 8.296875 48.78125 10.40625 
L 48.78125 2.09375 
Q 45.015625 0.34375 40.984375 -0.53125 
Q 36.96875 -1.421875 32.421875 -1.421875 
Q 20.0625 -1.421875 12.78125 6.34375 
Q 5.515625 14.109375 5.515625 27.296875 
Q 5.515625 40.671875 12.859375 48.328125 
Q 20.21875 56 33.015625 56 
Q 37.15625 56 41.109375 55.140625 
Q 45.0625 54.296875 48.78125 52.59375 
z
" id="DejaVuSans-99"/>
     </defs>
     <g transform="translate(72.822925 469.704135)scale(0.12 -0.12)">
      <use xlink:href="#DejaVuSans-77"/>
      <use x="86.279297" xlink:href="#DejaVuSans-111"/>
      <use x="147.460938" xlink:href="#DejaVuSans-100"/>
      <use x="210.9375" xlink:href="#DejaVuSans-101"/>
      <use x="272.460938" xlink:href="#DejaVuSans-108"/>
      <use x="300.244141" xlink:href="#DejaVuSans-32"/>
      <use x="332.03125" xlink:href="#DejaVuSans-67"/>
      <use x="401.855469" xlink:href="#DejaVuSans-111"/>
      <use x="463.037109" xlink:href="#DejaVuSans-101"/>
      <use x="524.560547" xlink:href="#DejaVuSans-102"/>
      <use x="559.765625" xlink:href="#DejaVuSans-102"/>
      <use x="594.970703" xlink:href="#DejaVuSans-105"/>
      <use x="622.753906" xlink:href="#DejaVuSans-99"/>
      <use x="677.734375" xlink:href="#DejaVuSans-105"/>
      <use x="705.517578" xlink:href="#DejaVuSans-101"/>
      <use x="767.041016" xlink:href="#DejaVuSans-110"/>
      <use x="830.419922" xlink:href="#DejaVuSans-116"/>
     </g>
    </g>
   </g>
   <g id="matplotlib.axis_4">
    <g id="ytick_5"/>
    <g id="ytick_6"/>
    <g id="ytick_7"/>
    <g id="ytick_8"/>
    <g id="ytick_9"/>
    <g id="ytick_10"/>
    <g id="ytick_11"/>
    <g id="text_18">
     <!-- Motif -->
     <g transform="translate(22.90774 349.644315)rotate(-90)scale(0.12 -0.12)">
      <use xlink:href="#DejaVuSans-77"/>
      <use x="86.279297" xlink:href="#DejaVuSans-111"/>
      <use x="147.460938" xlink:href="#DejaVuSans-116"/>
      <use x="186.669922" xlink:href="#DejaVuSans-105"/>
      <use x="214.453125" xlink:href="#DejaVuSans-102"/>
     </g>
    </g>
   </g>
   <g id="patch_102">
    <path d="M 36.403365 439.907885 
L 36.403365 229.421995 
" style="fill:none;stroke:#000000;stroke-linecap:square;stroke-linejoin:miter;stroke-width:0.8;"/>
   </g>
   <g id="patch_103">
    <path d="M 213.601235 439.907885 
L 213.601235 229.421995 
" style="fill:none;stroke:#000000;stroke-linecap:square;stroke-linejoin:miter;stroke-width:0.8;"/>
   </g>
   <g id="patch_104">
    <path d="M 36.403365 439.907885 
L 213.601235 439.907885 
" style="fill:none;stroke:#000000;stroke-linecap:square;stroke-linejoin:miter;stroke-width:0.8;"/>
   </g>
   <g id="patch_105">
    <path d="M 36.403365 229.421995 
L 213.601235 229.421995 
" style="fill:none;stroke:#000000;stroke-linecap:square;stroke-linejoin:miter;stroke-width:0.8;"/>
   </g>
  </g>
  <g id="axes_3">
   <g id="patch_106">
    <path d="M 392.30189 439.907885 
L 569.49976 439.907885 
L 569.49976 229.421995 
L 392.30189 229.421995 
z
" style="fill:#ffffff;"/>
   </g>
   <g id="patch_107">
    <path clip-path="url(#p7d18c337a6)" d="M 392.30189 432.891689 
L 561.061766 432.891689 
L 561.061766 376.762118 
L 392.30189 376.762118 
z
" style="fill:#808080;"/>
   </g>
   <g id="patch_108">
    <path clip-path="url(#p7d18c337a6)" d="M 392.30189 362.729725 
L 491.417813 362.729725 
L 491.417813 306.600155 
L 392.30189 306.600155 
z
" style="fill:#808080;"/>
   </g>
   <g id="patch_109">
    <path clip-path="url(#p7d18c337a6)" d="M 392.30189 292.567762 
L 516.816268 292.567762 
L 516.816268 236.438191 
L 392.30189 236.438191 
z
" style="fill:#808080;"/>
   </g>
   <g id="matplotlib.axis_5">
    <g id="xtick_11">
     <g id="line2d_15">
      <g>
       <use style="stroke:#000000;stroke-width:0.8;" x="392.30189" xlink:href="#me1a445721d" y="439.907885"/>
      </g>
     </g>
     <g id="text_19">
      <!-- 0 -->
      <g transform="translate(389.12064 454.506323)scale(0.1 -0.1)">
       <use xlink:href="#DejaVuSans-48"/>
      </g>
     </g>
    </g>
    <g id="xtick_12">
     <g id="line2d_16">
      <g>
       <use style="stroke:#000000;stroke-width:0.8;" x="433.712823" xlink:href="#me1a445721d" y="439.907885"/>
      </g>
     </g>
     <g id="text_20">
      <!-- 2 -->
      <g transform="translate(430.531573 454.506323)scale(0.1 -0.1)">
       <use xlink:href="#DejaVuSans-50"/>
      </g>
     </g>
    </g>
    <g id="xtick_13">
     <g id="line2d_17">
      <g>
       <use style="stroke:#000000;stroke-width:0.8;" x="475.123756" xlink:href="#me1a445721d" y="439.907885"/>
      </g>
     </g>
     <g id="text_21">
      <!-- 4 -->
      <g transform="translate(471.942506 454.506323)scale(0.1 -0.1)">
       <use xlink:href="#DejaVuSans-52"/>
      </g>
     </g>
    </g>
    <g id="xtick_14">
     <g id="line2d_18">
      <g>
       <use style="stroke:#000000;stroke-width:0.8;" x="516.534689" xlink:href="#me1a445721d" y="439.907885"/>
      </g>
     </g>
     <g id="text_22">
      <!-- 6 -->
      <defs>
       <path d="M 33.015625 40.375 
Q 26.375 40.375 22.484375 35.828125 
Q 18.609375 31.296875 18.609375 23.390625 
Q 18.609375 15.53125 22.484375 10.953125 
Q 26.375 6.390625 33.015625 6.390625 
Q 39.65625 6.390625 43.53125 10.953125 
Q 47.40625 15.53125 47.40625 23.390625 
Q 47.40625 31.296875 43.53125 35.828125 
Q 39.65625 40.375 33.015625 40.375 
z
M 52.59375 71.296875 
L 52.59375 62.3125 
Q 48.875 64.0625 45.09375 64.984375 
Q 41.3125 65.921875 37.59375 65.921875 
Q 27.828125 65.921875 22.671875 59.328125 
Q 17.53125 52.734375 16.796875 39.40625 
Q 19.671875 43.65625 24.015625 45.921875 
Q 28.375 48.1875 33.59375 48.1875 
Q 44.578125 48.1875 50.953125 41.515625 
Q 57.328125 34.859375 57.328125 23.390625 
Q 57.328125 12.15625 50.6875 5.359375 
Q 44.046875 -1.421875 33.015625 -1.421875 
Q 20.359375 -1.421875 13.671875 8.265625 
Q 6.984375 17.96875 6.984375 36.375 
Q 6.984375 53.65625 15.1875 63.9375 
Q 23.390625 74.21875 37.203125 74.21875 
Q 40.921875 74.21875 44.703125 73.484375 
Q 48.484375 72.75 52.59375 71.296875 
z
" id="DejaVuSans-54"/>
      </defs>
      <g transform="translate(513.353439 454.506323)scale(0.1 -0.1)">
       <use xlink:href="#DejaVuSans-54"/>
      </g>
     </g>
    </g>
    <g id="xtick_15">
     <g id="line2d_19">
      <g>
       <use style="stroke:#000000;stroke-width:0.8;" x="557.945622" xlink:href="#me1a445721d" y="439.907885"/>
      </g>
     </g>
     <g id="text_23">
      <!-- 8 -->
      <defs>
       <path d="M 31.78125 34.625 
Q 24.75 34.625 20.71875 30.859375 
Q 16.703125 27.09375 16.703125 20.515625 
Q 16.703125 13.921875 20.71875 10.15625 
Q 24.75 6.390625 31.78125 6.390625 
Q 38.8125 6.390625 42.859375 10.171875 
Q 46.921875 13.96875 46.921875 20.515625 
Q 46.921875 27.09375 42.890625 30.859375 
Q 38.875 34.625 31.78125 34.625 
z
M 21.921875 38.8125 
Q 15.578125 40.375 12.03125 44.71875 
Q 8.5 49.078125 8.5 55.328125 
Q 8.5 64.0625 14.71875 69.140625 
Q 20.953125 74.21875 31.78125 74.21875 
Q 42.671875 74.21875 48.875 69.140625 
Q 55.078125 64.0625 55.078125 55.328125 
Q 55.078125 49.078125 51.53125 44.71875 
Q 48 40.375 41.703125 38.8125 
Q 48.828125 37.15625 52.796875 32.3125 
Q 56.78125 27.484375 56.78125 20.515625 
Q 56.78125 9.90625 50.3125 4.234375 
Q 43.84375 -1.421875 31.78125 -1.421875 
Q 19.734375 -1.421875 13.25 4.234375 
Q 6.78125 9.90625 6.78125 20.515625 
Q 6.78125 27.484375 10.78125 32.3125 
Q 14.796875 37.15625 21.921875 38.8125 
z
M 18.3125 54.390625 
Q 18.3125 48.734375 21.84375 45.5625 
Q 25.390625 42.390625 31.78125 42.390625 
Q 38.140625 42.390625 41.71875 45.5625 
Q 45.3125 48.734375 45.3125 54.390625 
Q 45.3125 60.0625 41.71875 63.234375 
Q 38.140625 66.40625 31.78125 66.40625 
Q 25.390625 66.40625 21.84375 63.234375 
Q 18.3125 60.0625 18.3125 54.390625 
z
" id="DejaVuSans-56"/>
      </defs>
      <g transform="translate(554.764372 454.506323)scale(0.1 -0.1)">
       <use xlink:href="#DejaVuSans-56"/>
      </g>
     </g>
    </g>
    <g id="text_24">
     <!-- Variance Inflation Factor -->
     <defs>
      <path d="M 28.609375 0 
L 0.78125 72.90625 
L 11.078125 72.90625 
L 34.1875 11.53125 
L 57.328125 72.90625 
L 67.578125 72.90625 
L 39.796875 0 
z
" id="DejaVuSans-86"/>
      <path d="M 34.28125 27.484375 
Q 23.390625 27.484375 19.1875 25 
Q 14.984375 22.515625 14.984375 16.5 
Q 14.984375 11.71875 18.140625 8.90625 
Q 21.296875 6.109375 26.703125 6.109375 
Q 34.1875 6.109375 38.703125 11.40625 
Q 43.21875 16.703125 43.21875 25.484375 
L 43.21875 27.484375 
z
M 52.203125 31.203125 
L 52.203125 0 
L 43.21875 0 
L 43.21875 8.296875 
Q 40.140625 3.328125 35.546875 0.953125 
Q 30.953125 -1.421875 24.3125 -1.421875 
Q 15.921875 -1.421875 10.953125 3.296875 
Q 6 8.015625 6 15.921875 
Q 6 25.140625 12.171875 29.828125 
Q 18.359375 34.515625 30.609375 34.515625 
L 43.21875 34.515625 
L 43.21875 35.40625 
Q 43.21875 41.609375 39.140625 45 
Q 35.0625 48.390625 27.6875 48.390625 
Q 23 48.390625 18.546875 47.265625 
Q 14.109375 46.140625 10.015625 43.890625 
L 10.015625 52.203125 
Q 14.9375 54.109375 19.578125 55.046875 
Q 24.21875 56 28.609375 56 
Q 40.484375 56 46.34375 49.84375 
Q 52.203125 43.703125 52.203125 31.203125 
z
" id="DejaVuSans-97"/>
      <path d="M 41.109375 46.296875 
Q 39.59375 47.171875 37.8125 47.578125 
Q 36.03125 48 33.890625 48 
Q 26.265625 48 22.1875 43.046875 
Q 18.109375 38.09375 18.109375 28.8125 
L 18.109375 0 
L 9.078125 0 
L 9.078125 54.6875 
L 18.109375 54.6875 
L 18.109375 46.1875 
Q 20.953125 51.171875 25.484375 53.578125 
Q 30.03125 56 36.53125 56 
Q 37.453125 56 38.578125 55.875 
Q 39.703125 55.765625 41.0625 55.515625 
z
" id="DejaVuSans-114"/>
      <path d="M 9.8125 72.90625 
L 19.671875 72.90625 
L 19.671875 0 
L 9.8125 0 
z
" id="DejaVuSans-73"/>
     </defs>
     <g transform="translate(407.27895 469.704135)scale(0.12 -0.12)">
      <use xlink:href="#DejaVuSans-86"/>
      <use x="68.298828" xlink:href="#DejaVuSans-97"/>
      <use x="129.578125" xlink:href="#DejaVuSans-114"/>
      <use x="170.691406" xlink:href="#DejaVuSans-105"/>
      <use x="198.474609" xlink:href="#DejaVuSans-97"/>
      <use x="259.753906" xlink:href="#DejaVuSans-110"/>
      <use x="323.132812" xlink:href="#DejaVuSans-99"/>
      <use x="378.113281" xlink:href="#DejaVuSans-101"/>
      <use x="439.636719" xlink:href="#DejaVuSans-32"/>
      <use x="471.423828" xlink:href="#DejaVuSans-73"/>
      <use x="500.916016" xlink:href="#DejaVuSans-110"/>
      <use x="564.294922" xlink:href="#DejaVuSans-102"/>
      <use x="599.5" xlink:href="#DejaVuSans-108"/>
      <use x="627.283203" xlink:href="#DejaVuSans-97"/>
      <use x="688.5625" xlink:href="#DejaVuSans-116"/>
      <use x="727.771484" xlink:href="#DejaVuSans-105"/>
      <use x="755.554688" xlink:href="#DejaVuSans-111"/>
      <use x="816.736328" xlink:href="#DejaVuSans-110"/>
      <use x="880.115234" xlink:href="#DejaVuSans-32"/>
      <use x="911.902344" xlink:href="#DejaVuSans-70"/>
      <use x="969.28125" xlink:href="#DejaVuSans-97"/>
      <use x="1030.560547" xlink:href="#DejaVuSans-99"/>
      <use x="1085.541016" xlink:href="#DejaVuSans-116"/>
      <use x="1124.75" xlink:href="#DejaVuSans-111"/>
      <use x="1185.931641" xlink:href="#DejaVuSans-114"/>
     </g>
    </g>
   </g>
   <g id="matplotlib.axis_6">
    <g id="ytick_12">
     <g id="line2d_20">
      <g>
       <use style="stroke:#000000;stroke-width:0.8;" x="392.30189" xlink:href="#ma2c31b74e9" y="439.907885"/>
      </g>
     </g>
    </g>
    <g id="ytick_13">
     <g id="line2d_21">
      <g>
       <use style="stroke:#000000;stroke-width:0.8;" x="392.30189" xlink:href="#ma2c31b74e9" y="404.826903"/>
      </g>
     </g>
    </g>
    <g id="ytick_14">
     <g id="line2d_22">
      <g>
       <use style="stroke:#000000;stroke-width:0.8;" x="392.30189" xlink:href="#ma2c31b74e9" y="369.745922"/>
      </g>
     </g>
    </g>
    <g id="ytick_15">
     <g id="line2d_23">
      <g>
       <use style="stroke:#000000;stroke-width:0.8;" x="392.30189" xlink:href="#ma2c31b74e9" y="334.66494"/>
      </g>
     </g>
    </g>
    <g id="ytick_16">
     <g id="line2d_24">
      <g>
       <use style="stroke:#000000;stroke-width:0.8;" x="392.30189" xlink:href="#ma2c31b74e9" y="299.583958"/>
      </g>
     </g>
    </g>
    <g id="ytick_17">
     <g id="line2d_25">
      <g>
       <use style="stroke:#000000;stroke-width:0.8;" x="392.30189" xlink:href="#ma2c31b74e9" y="264.502977"/>
      </g>
     </g>
    </g>
    <g id="ytick_18">
     <g id="line2d_26">
      <g>
       <use style="stroke:#000000;stroke-width:0.8;" x="392.30189" xlink:href="#ma2c31b74e9" y="229.421995"/>
      </g>
     </g>
    </g>
    <g id="text_25">
     <!-- Motif -->
     <g transform="translate(378.806265 349.644315)rotate(-90)scale(0.12 -0.12)">
      <use xlink:href="#DejaVuSans-77"/>
      <use x="86.279297" xlink:href="#DejaVuSans-111"/>
      <use x="147.460938" xlink:href="#DejaVuSans-116"/>
      <use x="186.669922" xlink:href="#DejaVuSans-105"/>
      <use x="214.453125" xlink:href="#DejaVuSans-102"/>
     </g>
    </g>
   </g>
   <g id="patch_110">
    <path d="M 392.30189 439.907885 
L 392.30189 229.421995 
" style="fill:none;stroke:#000000;stroke-linecap:square;stroke-linejoin:miter;stroke-width:0.8;"/>
   </g>
   <g id="patch_111">
    <path d="M 569.49976 439.907885 
L 569.49976 229.421995 
" style="fill:none;stroke:#000000;stroke-linecap:square;stroke-linejoin:miter;stroke-width:0.8;"/>
   </g>
   <g id="patch_112">
    <path d="M 392.30189 439.907885 
L 569.49976 439.907885 
" style="fill:none;stroke:#000000;stroke-linecap:square;stroke-linejoin:miter;stroke-width:0.8;"/>
   </g>
   <g id="patch_113">
    <path d="M 392.30189 229.421995 
L 569.49976 229.421995 
" style="fill:none;stroke:#000000;stroke-linecap:square;stroke-linejoin:miter;stroke-width:0.8;"/>
   </g>
  </g>
  <g id="axes_4">
   <g id="patch_114">
    <path d="M 392.30189 186.04564 
L 569.49976 186.04564 
L 569.49976 76.071693 
L 392.30189 76.071693 
z
" style="fill:#ffffff;"/>
   </g>
   <g id="matplotlib.axis_7">
    <g id="xtick_16">
     <g id="line2d_27">
      <g>
       <use style="stroke:#000000;stroke-width:0.8;" x="400.356339" xlink:href="#me1a445721d" y="186.04564"/>
      </g>
     </g>
     <g id="text_26">
      <!-- 0.00 -->
      <defs>
       <path d="M 10.6875 12.40625 
L 21 12.40625 
L 21 0 
L 10.6875 0 
z
" id="DejaVuSans-46"/>
      </defs>
      <g transform="translate(389.223526 200.644078)scale(0.1 -0.1)">
       <use xlink:href="#DejaVuSans-48"/>
       <use x="63.623047" xlink:href="#DejaVuSans-46"/>
       <use x="95.410156" xlink:href="#DejaVuSans-48"/>
       <use x="159.033203" xlink:href="#DejaVuSans-48"/>
      </g>
     </g>
    </g>
    <g id="xtick_17">
     <g id="line2d_28">
      <g>
       <use style="stroke:#000000;stroke-width:0.8;" x="440.628582" xlink:href="#me1a445721d" y="186.04564"/>
      </g>
     </g>
     <g id="text_27">
      <!-- 0.25 -->
      <defs>
       <path d="M 10.796875 72.90625 
L 49.515625 72.90625 
L 49.515625 64.59375 
L 19.828125 64.59375 
L 19.828125 46.734375 
Q 21.96875 47.46875 24.109375 47.828125 
Q 26.265625 48.1875 28.421875 48.1875 
Q 40.625 48.1875 47.75 41.5 
Q 54.890625 34.8125 54.890625 23.390625 
Q 54.890625 11.625 47.5625 5.09375 
Q 40.234375 -1.421875 26.90625 -1.421875 
Q 22.3125 -1.421875 17.546875 -0.640625 
Q 12.796875 0.140625 7.71875 1.703125 
L 7.71875 11.625 
Q 12.109375 9.234375 16.796875 8.0625 
Q 21.484375 6.890625 26.703125 6.890625 
Q 35.15625 6.890625 40.078125 11.328125 
Q 45.015625 15.765625 45.015625 23.390625 
Q 45.015625 31 40.078125 35.4375 
Q 35.15625 39.890625 26.703125 39.890625 
Q 22.75 39.890625 18.8125 39.015625 
Q 14.890625 38.140625 10.796875 36.28125 
z
" id="DejaVuSans-53"/>
      </defs>
      <g transform="translate(429.495769 200.644078)scale(0.1 -0.1)">
       <use xlink:href="#DejaVuSans-48"/>
       <use x="63.623047" xlink:href="#DejaVuSans-46"/>
       <use x="95.410156" xlink:href="#DejaVuSans-50"/>
       <use x="159.033203" xlink:href="#DejaVuSans-53"/>
      </g>
     </g>
    </g>
    <g id="xtick_18">
     <g id="line2d_29">
      <g>
       <use style="stroke:#000000;stroke-width:0.8;" x="480.900825" xlink:href="#me1a445721d" y="186.04564"/>
      </g>
     </g>
     <g id="text_28">
      <!-- 0.50 -->
      <g transform="translate(469.768012 200.644078)scale(0.1 -0.1)">
       <use xlink:href="#DejaVuSans-48"/>
       <use x="63.623047" xlink:href="#DejaVuSans-46"/>
       <use x="95.410156" xlink:href="#DejaVuSans-53"/>
       <use x="159.033203" xlink:href="#DejaVuSans-48"/>
      </g>
     </g>
    </g>
    <g id="xtick_19">
     <g id="line2d_30">
      <g>
       <use style="stroke:#000000;stroke-width:0.8;" x="521.173068" xlink:href="#me1a445721d" y="186.04564"/>
      </g>
     </g>
     <g id="text_29">
      <!-- 0.75 -->
      <defs>
       <path d="M 8.203125 72.90625 
L 55.078125 72.90625 
L 55.078125 68.703125 
L 28.609375 0 
L 18.3125 0 
L 43.21875 64.59375 
L 8.203125 64.59375 
z
" id="DejaVuSans-55"/>
      </defs>
      <g transform="translate(510.040256 200.644078)scale(0.1 -0.1)">
       <use xlink:href="#DejaVuSans-48"/>
       <use x="63.623047" xlink:href="#DejaVuSans-46"/>
       <use x="95.410156" xlink:href="#DejaVuSans-55"/>
       <use x="159.033203" xlink:href="#DejaVuSans-53"/>
      </g>
     </g>
    </g>
    <g id="xtick_20">
     <g id="line2d_31">
      <g>
       <use style="stroke:#000000;stroke-width:0.8;" x="561.445311" xlink:href="#me1a445721d" y="186.04564"/>
      </g>
     </g>
     <g id="text_30">
      <!-- 1.00 -->
      <g transform="translate(550.312499 200.644078)scale(0.1 -0.1)">
       <use xlink:href="#DejaVuSans-49"/>
       <use x="63.623047" xlink:href="#DejaVuSans-46"/>
       <use x="95.410156" xlink:href="#DejaVuSans-48"/>
       <use x="159.033203" xlink:href="#DejaVuSans-48"/>
      </g>
     </g>
    </g>
    <g id="text_31">
     <!-- False Positive Rate -->
     <defs>
      <path d="M 19.671875 64.796875 
L 19.671875 37.40625 
L 32.078125 37.40625 
Q 38.96875 37.40625 42.71875 40.96875 
Q 46.484375 44.53125 46.484375 51.125 
Q 46.484375 57.671875 42.71875 61.234375 
Q 38.96875 64.796875 32.078125 64.796875 
z
M 9.8125 72.90625 
L 32.078125 72.90625 
Q 44.34375 72.90625 50.609375 67.359375 
Q 56.890625 61.8125 56.890625 51.125 
Q 56.890625 40.328125 50.609375 34.8125 
Q 44.34375 29.296875 32.078125 29.296875 
L 19.671875 29.296875 
L 19.671875 0 
L 9.8125 0 
z
" id="DejaVuSans-80"/>
      <path d="M 2.984375 54.6875 
L 12.5 54.6875 
L 29.59375 8.796875 
L 46.6875 54.6875 
L 56.203125 54.6875 
L 35.6875 0 
L 23.484375 0 
z
" id="DejaVuSans-118"/>
     </defs>
     <g transform="translate(424.254262 215.84189)scale(0.12 -0.12)">
      <use xlink:href="#DejaVuSans-70"/>
      <use x="57.378906" xlink:href="#DejaVuSans-97"/>
      <use x="118.658203" xlink:href="#DejaVuSans-108"/>
      <use x="146.441406" xlink:href="#DejaVuSans-115"/>
      <use x="198.541016" xlink:href="#DejaVuSans-101"/>
      <use x="260.064453" xlink:href="#DejaVuSans-32"/>
      <use x="291.851562" xlink:href="#DejaVuSans-80"/>
      <use x="352.107422" xlink:href="#DejaVuSans-111"/>
      <use x="413.289062" xlink:href="#DejaVuSans-115"/>
      <use x="465.388672" xlink:href="#DejaVuSans-105"/>
      <use x="493.171875" xlink:href="#DejaVuSans-116"/>
      <use x="532.380859" xlink:href="#DejaVuSans-105"/>
      <use x="560.164062" xlink:href="#DejaVuSans-118"/>
      <use x="619.34375" xlink:href="#DejaVuSans-101"/>
      <use x="680.867188" xlink:href="#DejaVuSans-32"/>
      <use x="712.654297" xlink:href="#DejaVuSans-82"/>
      <use x="782.105469" xlink:href="#DejaVuSans-97"/>
      <use x="843.384766" xlink:href="#DejaVuSans-116"/>
      <use x="882.59375" xlink:href="#DejaVuSans-101"/>
     </g>
    </g>
   </g>
   <g id="matplotlib.axis_8">
    <g id="ytick_19">
     <g id="line2d_32">
      <g>
       <use style="stroke:#000000;stroke-width:0.8;" x="392.30189" xlink:href="#ma2c31b74e9" y="181.046824"/>
      </g>
     </g>
     <g id="text_32">
      <!-- 0.00 -->
      <g transform="translate(363.036265 184.846043)scale(0.1 -0.1)">
       <use xlink:href="#DejaVuSans-48"/>
       <use x="63.623047" xlink:href="#DejaVuSans-46"/>
       <use x="95.410156" xlink:href="#DejaVuSans-48"/>
       <use x="159.033203" xlink:href="#DejaVuSans-48"/>
      </g>
     </g>
    </g>
    <g id="ytick_20">
     <g id="line2d_33">
      <g>
       <use style="stroke:#000000;stroke-width:0.8;" x="392.30189" xlink:href="#ma2c31b74e9" y="156.052745"/>
      </g>
     </g>
     <g id="text_33">
      <!-- 0.25 -->
      <g transform="translate(363.036265 159.851964)scale(0.1 -0.1)">
       <use xlink:href="#DejaVuSans-48"/>
       <use x="63.623047" xlink:href="#DejaVuSans-46"/>
       <use x="95.410156" xlink:href="#DejaVuSans-50"/>
       <use x="159.033203" xlink:href="#DejaVuSans-53"/>
      </g>
     </g>
    </g>
    <g id="ytick_21">
     <g id="line2d_34">
      <g>
       <use style="stroke:#000000;stroke-width:0.8;" x="392.30189" xlink:href="#ma2c31b74e9" y="131.058667"/>
      </g>
     </g>
     <g id="text_34">
      <!-- 0.50 -->
      <g transform="translate(363.036265 134.857885)scale(0.1 -0.1)">
       <use xlink:href="#DejaVuSans-48"/>
       <use x="63.623047" xlink:href="#DejaVuSans-46"/>
       <use x="95.410156" xlink:href="#DejaVuSans-53"/>
       <use x="159.033203" xlink:href="#DejaVuSans-48"/>
      </g>
     </g>
    </g>
    <g id="ytick_22">
     <g id="line2d_35">
      <g>
       <use style="stroke:#000000;stroke-width:0.8;" x="392.30189" xlink:href="#ma2c31b74e9" y="106.064588"/>
      </g>
     </g>
     <g id="text_35">
      <!-- 0.75 -->
      <g transform="translate(363.036265 109.863807)scale(0.1 -0.1)">
       <use xlink:href="#DejaVuSans-48"/>
       <use x="63.623047" xlink:href="#DejaVuSans-46"/>
       <use x="95.410156" xlink:href="#DejaVuSans-55"/>
       <use x="159.033203" xlink:href="#DejaVuSans-53"/>
      </g>
     </g>
    </g>
    <g id="ytick_23">
     <g id="line2d_36">
      <g>
       <use style="stroke:#000000;stroke-width:0.8;" x="392.30189" xlink:href="#ma2c31b74e9" y="81.070509"/>
      </g>
     </g>
     <g id="text_36">
      <!-- 1.00 -->
      <g transform="translate(363.036265 84.869728)scale(0.1 -0.1)">
       <use xlink:href="#DejaVuSans-49"/>
       <use x="63.623047" xlink:href="#DejaVuSans-46"/>
       <use x="95.410156" xlink:href="#DejaVuSans-48"/>
       <use x="159.033203" xlink:href="#DejaVuSans-48"/>
      </g>
     </g>
    </g>
    <g id="text_37">
     <!-- True Positive Rate -->
     <defs>
      <path d="M -0.296875 72.90625 
L 61.375 72.90625 
L 61.375 64.59375 
L 35.5 64.59375 
L 35.5 0 
L 25.59375 0 
L 25.59375 64.59375 
L -0.296875 64.59375 
z
" id="DejaVuSans-84"/>
     </defs>
     <g transform="translate(356.54064 185.713979)rotate(-90)scale(0.12 -0.12)">
      <use xlink:href="#DejaVuSans-84"/>
      <use x="60.865234" xlink:href="#DejaVuSans-114"/>
      <use x="101.978516" xlink:href="#DejaVuSans-117"/>
      <use x="165.357422" xlink:href="#DejaVuSans-101"/>
      <use x="226.880859" xlink:href="#DejaVuSans-32"/>
      <use x="258.667969" xlink:href="#DejaVuSans-80"/>
      <use x="318.923828" xlink:href="#DejaVuSans-111"/>
      <use x="380.105469" xlink:href="#DejaVuSans-115"/>
      <use x="432.205078" xlink:href="#DejaVuSans-105"/>
      <use x="459.988281" xlink:href="#DejaVuSans-116"/>
      <use x="499.197266" xlink:href="#DejaVuSans-105"/>
      <use x="526.980469" xlink:href="#DejaVuSans-118"/>
      <use x="586.160156" xlink:href="#DejaVuSans-101"/>
      <use x="647.683594" xlink:href="#DejaVuSans-32"/>
      <use x="679.470703" xlink:href="#DejaVuSans-82"/>
      <use x="748.921875" xlink:href="#DejaVuSans-97"/>
      <use x="810.201172" xlink:href="#DejaVuSans-116"/>
      <use x="849.410156" xlink:href="#DejaVuSans-101"/>
     </g>
    </g>
   </g>
   <g id="line2d_37">
    <path clip-path="url(#p4cdc650a7e)" d="M 400.356339 181.046824 
L 403.182461 92.178989 
L 403.182461 88.476162 
L 408.834706 88.476162 
L 413.073889 81.070509 
L 415.900011 81.070509 
L 561.445311 81.070509 
" style="fill:none;stroke:#0073b2;stroke-linecap:square;stroke-width:1.5;"/>
   </g>
   <g id="line2d_38">
    <path clip-path="url(#p4cdc650a7e)" d="M 400.356339 181.046824 
L 401.306716 98.139636 
L 401.781905 90.824296 
L 404.157848 83.508956 
L 407.959358 82.289732 
L 410.335302 82.289732 
L 561.445311 81.070509 
" style="fill:none;stroke:#cc6600;stroke-linecap:square;stroke-width:1.5;"/>
   </g>
   <g id="line2d_39">
    <path clip-path="url(#p4cdc650a7e)" d="M 400.356339 181.046824 
L 561.445311 81.070509 
" style="fill:none;stroke:#808080;stroke-dasharray:4,8;stroke-dashoffset:0;stroke-width:0.8;"/>
   </g>
   <g id="patch_115">
    <path d="M 392.30189 186.04564 
L 392.30189 76.071693 
" style="fill:none;stroke:#000000;stroke-linecap:square;stroke-linejoin:miter;stroke-width:0.8;"/>
   </g>
   <g id="patch_116">
    <path d="M 569.49976 186.04564 
L 569.49976 76.071693 
" style="fill:none;stroke:#000000;stroke-linecap:square;stroke-linejoin:miter;stroke-width:0.8;"/>
   </g>
   <g id="patch_117">
    <path d="M 392.30189 186.04564 
L 569.49976 186.04564 
" style="fill:none;stroke:#000000;stroke-linecap:square;stroke-linejoin:miter;stroke-width:0.8;"/>
   </g>
   <g id="patch_118">
    <path d="M 392.30189 76.071693 
L 569.49976 76.071693 
" style="fill:none;stroke:#000000;stroke-linecap:square;stroke-linejoin:miter;stroke-width:0.8;"/>
   </g>
   <g id="legend_1">
    <g id="patch_119">
     <path d="M 433.284135 181.04564 
L 562.49976 181.04564 
Q 564.49976 181.04564 564.49976 179.04564 
L 564.49976 150.68939 
Q 564.49976 148.68939 562.49976 148.68939 
L 433.284135 148.68939 
Q 431.284135 148.68939 431.284135 150.68939 
L 431.284135 179.04564 
Q 431.284135 181.04564 433.284135 181.04564 
z
" style="fill:#ffffff;opacity:0.8;stroke:#cccccc;stroke-linejoin:miter;"/>
    </g>
    <g id="line2d_40">
     <path d="M 435.284135 156.787828 
L 455.284135 156.787828 
" style="fill:none;stroke:#0073b2;stroke-linecap:square;stroke-width:1.5;"/>
    </g>
    <g id="line2d_41"/>
    <g id="text_38">
     <!-- Test, AUC: 0.99 -->
     <defs>
      <path d="M 11.71875 12.40625 
L 22.015625 12.40625 
L 22.015625 4 
L 14.015625 -11.625 
L 7.71875 -11.625 
L 11.71875 4 
z
" id="DejaVuSans-44"/>
      <path d="M 34.1875 63.1875 
L 20.796875 26.90625 
L 47.609375 26.90625 
z
M 28.609375 72.90625 
L 39.796875 72.90625 
L 67.578125 0 
L 57.328125 0 
L 50.6875 18.703125 
L 17.828125 18.703125 
L 11.1875 0 
L 0.78125 0 
z
" id="DejaVuSans-65"/>
      <path d="M 11.71875 12.40625 
L 22.015625 12.40625 
L 22.015625 0 
L 11.71875 0 
z
M 11.71875 51.703125 
L 22.015625 51.703125 
L 22.015625 39.3125 
L 11.71875 39.3125 
z
" id="DejaVuSans-58"/>
      <path d="M 10.984375 1.515625 
L 10.984375 10.5 
Q 14.703125 8.734375 18.5 7.8125 
Q 22.3125 6.890625 25.984375 6.890625 
Q 35.75 6.890625 40.890625 13.453125 
Q 46.046875 20.015625 46.78125 33.40625 
Q 43.953125 29.203125 39.59375 26.953125 
Q 35.25 24.703125 29.984375 24.703125 
Q 19.046875 24.703125 12.671875 31.3125 
Q 6.296875 37.9375 6.296875 49.421875 
Q 6.296875 60.640625 12.9375 67.421875 
Q 19.578125 74.21875 30.609375 74.21875 
Q 43.265625 74.21875 49.921875 64.515625 
Q 56.59375 54.828125 56.59375 36.375 
Q 56.59375 19.140625 48.40625 8.859375 
Q 40.234375 -1.421875 26.421875 -1.421875 
Q 22.703125 -1.421875 18.890625 -0.6875 
Q 15.09375 0.046875 10.984375 1.515625 
z
M 30.609375 32.421875 
Q 37.25 32.421875 41.125 36.953125 
Q 45.015625 41.5 45.015625 49.421875 
Q 45.015625 57.28125 41.125 61.84375 
Q 37.25 66.40625 30.609375 66.40625 
Q 23.96875 66.40625 20.09375 61.84375 
Q 16.21875 57.28125 16.21875 49.421875 
Q 16.21875 41.5 20.09375 36.953125 
Q 23.96875 32.421875 30.609375 32.421875 
z
" id="DejaVuSans-57"/>
     </defs>
     <g transform="translate(463.284135 160.287828)scale(0.1 -0.1)">
      <use xlink:href="#DejaVuSans-84"/>
      <use x="60.818359" xlink:href="#DejaVuSans-101"/>
      <use x="122.341797" xlink:href="#DejaVuSans-115"/>
      <use x="174.441406" xlink:href="#DejaVuSans-116"/>
      <use x="213.650391" xlink:href="#DejaVuSans-44"/>
      <use x="245.4375" xlink:href="#DejaVuSans-32"/>
      <use x="277.224609" xlink:href="#DejaVuSans-65"/>
      <use x="345.632812" xlink:href="#DejaVuSans-85"/>
      <use x="418.826172" xlink:href="#DejaVuSans-67"/>
      <use x="488.650391" xlink:href="#DejaVuSans-58"/>
      <use x="522.341797" xlink:href="#DejaVuSans-32"/>
      <use x="554.128906" xlink:href="#DejaVuSans-48"/>
      <use x="617.751953" xlink:href="#DejaVuSans-46"/>
      <use x="649.539062" xlink:href="#DejaVuSans-57"/>
      <use x="713.162109" xlink:href="#DejaVuSans-57"/>
     </g>
    </g>
    <g id="line2d_42">
     <path d="M 435.284135 171.465953 
L 455.284135 171.465953 
" style="fill:none;stroke:#cc6600;stroke-linecap:square;stroke-width:1.5;"/>
    </g>
    <g id="line2d_43"/>
    <g id="text_39">
     <!-- Training, AUC: 0.99 -->
     <g transform="translate(463.284135 174.965953)scale(0.1 -0.1)">
      <use xlink:href="#DejaVuSans-84"/>
      <use x="60.865234" xlink:href="#DejaVuSans-114"/>
      <use x="101.978516" xlink:href="#DejaVuSans-97"/>
      <use x="163.257812" xlink:href="#DejaVuSans-105"/>
      <use x="191.041016" xlink:href="#DejaVuSans-110"/>
      <use x="254.419922" xlink:href="#DejaVuSans-105"/>
      <use x="282.203125" xlink:href="#DejaVuSans-110"/>
      <use x="345.582031" xlink:href="#DejaVuSans-103"/>
      <use x="409.058594" xlink:href="#DejaVuSans-44"/>
      <use x="440.845703" xlink:href="#DejaVuSans-32"/>
      <use x="472.632812" xlink:href="#DejaVuSans-65"/>
      <use x="541.041016" xlink:href="#DejaVuSans-85"/>
      <use x="614.234375" xlink:href="#DejaVuSans-67"/>
      <use x="684.058594" xlink:href="#DejaVuSans-58"/>
      <use x="717.75" xlink:href="#DejaVuSans-32"/>
      <use x="749.537109" xlink:href="#DejaVuSans-48"/>
      <use x="813.160156" xlink:href="#DejaVuSans-46"/>
      <use x="844.947266" xlink:href="#DejaVuSans-57"/>
      <use x="908.570312" xlink:href="#DejaVuSans-57"/>
     </g>
    </g>
   </g>
  </g>
  <g id="axes_5">
   <g id="line2d_44">
    <path clip-path="url(#p4c00d158ff)" d="M 306.342528 256.915482 
L 306.342528 273.578201 
" style="fill:none;stroke:#000000;stroke-linecap:square;stroke-width:0.452239;"/>
   </g>
   <g id="line2d_45">
    <path clip-path="url(#p4c00d158ff)" d="M 306.342528 256.915482 
L 278.57133 276.355321 
" style="fill:none;stroke:#000000;stroke-linecap:square;stroke-width:0.452239;"/>
   </g>
   <g id="line2d_46">
    <path clip-path="url(#p4c00d158ff)" d="M 306.342528 256.915482 
L 278.57133 237.475643 
" style="fill:none;stroke:#000000;stroke-linecap:square;stroke-width:0.452239;"/>
   </g>
   <g id="patch_120">
    <path clip-path="url(#p4c00d158ff)" d="M 307.95239 268.761634 
L 310.342232 268.761634 
L 310.342232 269.337669 
L 307.129017 269.337669 
L 307.129017 268.761634 
Q 307.518465 268.358083 308.191049 267.678991 
Q 308.864717 266.998813 309.037203 266.801377 
Q 309.365901 266.432541 309.496078 266.176526 
Q 309.62734 265.92051 309.62734 265.673173 
Q 309.62734 265.269622 309.344204 265.015776 
Q 309.061068 264.760845 308.606532 264.760845 
Q 308.284343 264.760845 307.926355 264.872581 
Q 307.569451 264.984317 307.162647 265.212127 
L 307.162647 264.520017 
Q 307.57596 264.354041 307.935033 264.269425 
Q 308.295191 264.18481 308.593514 264.18481 
Q 309.380003 264.18481 309.847557 264.578597 
Q 310.315112 264.971299 310.315112 265.628695 
Q 310.315112 265.941121 310.197952 266.221003 
Q 310.081877 266.4998 309.772705 266.879484 
Q 309.68809 266.978202 309.233554 267.447926 
Q 308.780102 267.91765 307.95239 268.761634 
z
M 311.85107 268.476328 
L 312.565962 268.476328 
L 312.565962 269.059957 
L 312.010538 270.144769 
L 311.573358 270.144769 
L 311.85107 269.059957 
z
M 315.868538 264.872581 
L 314.139347 267.574849 
L 315.868538 267.574849 
z
M 315.688459 264.275934 
L 316.5498 264.275934 
L 316.5498 267.574849 
L 317.272285 267.574849 
L 317.272285 268.144375 
L 316.5498 268.144375 
L 316.5498 269.337669 
L 315.868538 269.337669 
L 315.868538 268.144375 
L 313.583923 268.144375 
L 313.583923 267.483725 
z
"/>
   </g>
   <g id="patch_121">
    <path clip-path="url(#p4c00d158ff)" d="M 285.526062 268.20187 
L 285.376358 267.418636 
Q 285.224484 266.61479 284.620244 266.61479 
Q 284.166792 266.61479 283.959593 266.987965 
Q 283.698153 267.455519 283.698153 268.072778 
Q 283.698153 268.819129 283.953084 269.174947 
Q 284.210185 269.537274 284.620244 269.537274 
Q 285.07478 269.537274 285.318863 268.814789 
z
M 285.875372 267.16479 
L 286.210579 266.171101 
L 286.767088 266.171101 
L 286.071723 268.228991 
L 286.207325 268.971002 
Q 286.237699 269.136979 286.355944 269.275835 
Q 286.495885 269.438557 286.604366 269.438557 
L 286.902689 269.438557 
L 286.902689 269.967945 
L 286.529514 269.967945 
Q 286.210579 269.967945 285.926358 269.682639 
Q 285.786417 269.540529 285.728922 269.242206 
Q 285.573794 269.618635 285.254859 269.913704 
Q 285.105155 270.05256 284.620244 270.05256 
Q 283.823992 270.05256 283.437798 269.537274 
Q 283.040757 269.004632 283.040757 268.072778 
Q 283.040757 267.075835 283.471428 266.608281 
Q 283.94983 266.086486 284.620244 266.086486 
Q 285.674682 266.086486 285.875372 267.16479 
z
"/>
   </g>
   <g id="patch_122">
    <path clip-path="url(#p4c00d158ff)" d="M 293.546081 261.332838 
Q 293.085035 261.332838 292.814917 261.648518 
Q 292.545884 261.963114 292.545884 262.512029 
Q 292.545884 263.05769 292.814917 263.37554 
Q 293.085035 263.692305 293.546081 263.692305 
Q 294.007126 263.692305 294.27616 263.37554 
Q 294.545193 263.05769 294.545193 262.512029 
Q 294.545193 261.963114 294.27616 261.648518 
Q 294.007126 261.332838 293.546081 261.332838 
z
M 294.905351 259.185994 
L 294.905351 259.809761 
Q 294.647165 259.688262 294.384641 259.624258 
Q 294.122116 259.55917 293.863931 259.55917 
Q 293.185923 259.55917 292.827935 260.01696 
Q 292.471032 260.474751 292.420045 261.400096 
Q 292.619651 261.105027 292.921229 260.94773 
Q 293.223891 260.790432 293.586219 260.790432 
Q 294.348842 260.790432 294.791445 261.253647 
Q 295.234049 261.715777 295.234049 262.512029 
Q 295.234049 263.292009 294.773004 263.763903 
Q 294.311958 264.234711 293.546081 264.234711 
Q 292.667383 264.234711 292.203083 263.562128 
Q 291.738783 262.888459 291.738783 261.61055 
Q 291.738783 260.410747 292.30831 259.696941 
Q 292.877836 258.983134 293.83681 258.983134 
Q 294.094996 258.983134 294.35752 259.03412 
Q 294.620045 259.085107 294.905351 259.185994 
z
"/>
   </g>
   <g id="patch_123">
    <path clip-path="url(#p4c00d158ff)" d="M 289.493221 240.986096 
L 289.343517 240.202861 
Q 289.191644 239.399015 288.587403 239.399015 
Q 288.133951 239.399015 287.926752 239.772191 
Q 287.665312 240.239745 287.665312 240.857003 
Q 287.665312 241.603354 287.920243 241.959172 
Q 288.177344 242.3215 288.587403 242.3215 
Q 289.041939 242.3215 289.286022 241.599015 
z
M 289.842531 239.949015 
L 290.177738 238.955327 
L 290.734247 238.955327 
L 290.038882 241.013216 
L 290.174484 241.755228 
Q 290.204858 241.921204 290.323103 242.06006 
Q 290.463044 242.222782 290.571525 242.222782 
L 290.869848 242.222782 
L 290.869848 242.75217 
L 290.496673 242.75217 
Q 290.177738 242.75217 289.893517 242.466865 
Q 289.753576 242.324754 289.696081 242.026431 
Q 289.540953 242.402861 289.222018 242.69793 
Q 289.072314 242.836786 288.587403 242.836786 
Q 287.791151 242.836786 287.404957 242.3215 
Q 287.007916 241.788857 287.007916 240.857003 
Q 287.007916 239.86006 287.438587 239.392506 
Q 287.916989 238.870711 288.587403 238.870711 
Q 289.641841 238.870711 289.842531 239.949015 
z
"/>
   </g>
   <g id="patch_124">
    <path clip-path="url(#p4c00d158ff)" d="M 297.773595 245.854734 
Q 298.265015 245.959961 298.540557 246.292998 
Q 298.817184 246.624951 298.817184 247.113116 
Q 298.817184 247.861637 298.301899 248.272781 
Q 297.786613 248.68284 296.837402 248.68284 
Q 296.519552 248.68284 296.182175 248.619921 
Q 295.844798 248.557002 295.485725 248.431164 
L 295.485725 247.770513 
Q 295.769946 247.936489 296.108408 248.021104 
Q 296.447954 248.10572 296.817875 248.10572 
Q 297.461169 248.10572 297.798546 247.851874 
Q 298.135922 247.598028 298.135922 247.113116 
Q 298.135922 246.665089 297.822411 246.413412 
Q 297.508901 246.160651 296.950222 246.160651 
L 296.360084 246.160651 
L 296.360084 245.597633 
L 296.977343 245.597633 
Q 297.48178 245.597633 297.749729 245.395858 
Q 298.017678 245.194083 298.017678 244.814399 
Q 298.017678 244.424951 297.74105 244.216667 
Q 297.465508 244.007298 296.950222 244.007298 
Q 296.668171 244.007298 296.345982 244.069133 
Q 296.023792 244.129882 295.637599 244.25789 
L 295.637599 243.648225 
Q 296.028132 243.539744 296.368763 243.485504 
Q 296.709394 243.431263 297.010972 243.431263 
Q 297.790952 243.431263 298.244403 243.785997 
Q 298.69894 244.139645 298.69894 244.742801 
Q 298.69894 245.163708 298.458112 245.453353 
Q 298.217283 245.742998 297.773595 245.854734 
z
"/>
   </g>
   <g id="patch_125">
    <path clip-path="url(#p4c00d158ff)" d="M 306.342528 262.469721 
C 307.81553 262.469721 309.2284 261.884492 310.269969 260.842922 
C 311.311538 259.801353 311.896768 258.388483 311.896768 256.915482 
C 311.896768 255.44248 311.311538 254.029611 310.269969 252.988041 
C 309.2284 251.946472 307.81553 251.361242 306.342528 251.361242 
C 304.869527 251.361242 303.456657 251.946472 302.415088 252.988041 
C 301.373518 254.029611 300.788289 255.44248 300.788289 256.915482 
C 300.788289 258.388483 301.373518 259.801353 302.415088 260.842922 
C 303.456657 261.884492 304.869527 262.469721 306.342528 262.469721 
z
" style="fill:#00a651;stroke:#000000;stroke-linejoin:miter;stroke-width:0.452239;"/>
   </g>
   <g id="patch_126">
    <path clip-path="url(#p4c00d158ff)" d="M 310.508208 269.412521 
L 302.176849 277.743881 
z
" style="fill:#ffffff;stroke:#000000;stroke-linejoin:miter;stroke-width:0.452239;"/>
   </g>
   <g id="patch_127">
    <path clip-path="url(#p4c00d158ff)" d="M 302.176849 269.412521 
L 310.508208 277.743881 
z
" style="fill:#ffffff;stroke:#000000;stroke-linejoin:miter;stroke-width:0.452239;"/>
   </g>
   <g id="patch_128">
    <path clip-path="url(#p4c00d158ff)" d="M 278.57133 281.90956 
C 280.044331 281.90956 281.457201 281.324331 282.49877 280.282761 
C 283.54034 279.241192 284.125569 277.828322 284.125569 276.355321 
C 284.125569 274.882319 283.54034 273.46945 282.49877 272.42788 
C 281.457201 271.386311 280.044331 270.801081 278.57133 270.801081 
C 277.098328 270.801081 275.685459 271.386311 274.643889 272.42788 
C 273.60232 273.46945 273.01709 274.882319 273.01709 276.355321 
C 273.01709 277.828322 273.60232 279.241192 274.643889 280.282761 
C 275.685459 281.324331 277.098328 281.90956 278.57133 281.90956 
z
" style="fill:#00a651;stroke:#000000;stroke-linejoin:miter;stroke-width:0.452239;"/>
   </g>
   <g id="patch_129">
    <path clip-path="url(#p4c00d158ff)" d="M 278.57133 243.029882 
C 280.044331 243.029882 281.457201 242.444653 282.49877 241.403083 
C 283.54034 240.361514 284.125569 238.948644 284.125569 237.475643 
C 284.125569 236.002641 283.54034 234.589771 282.49877 233.548202 
C 281.457201 232.506633 280.044331 231.921403 278.57133 231.921403 
C 277.098328 231.921403 275.685459 232.506633 274.643889 233.548202 
C 273.60232 234.589771 273.01709 236.002641 273.01709 237.475643 
C 273.01709 238.948644 273.60232 240.361514 274.643889 241.403083 
C 275.685459 242.444653 277.098328 243.029882 278.57133 243.029882 
z
" style="fill:#00a651;stroke:#000000;stroke-linejoin:miter;stroke-width:0.452239;"/>
   </g>
  </g>
  <g id="axes_6">
   <g id="line2d_47">
    <path clip-path="url(#p2f291ea6e9)" d="M 272.086314 321.694804 
L 272.086314 353.266272 
" style="fill:none;stroke:#000000;stroke-linecap:square;stroke-width:0.591389;"/>
   </g>
   <g id="line2d_48">
    <path clip-path="url(#p2f291ea6e9)" d="M 324.705427 321.694804 
L 272.086314 321.694804 
" style="fill:none;stroke:#000000;stroke-linecap:square;stroke-width:0.591389;"/>
   </g>
   <g id="patch_130">
    <path clip-path="url(#p2f291ea6e9)" d="M 277.950467 340.060108 
Q 278.881579 340.259485 279.403659 340.890503 
Q 279.927795 341.519466 279.927795 342.444411 
Q 279.927795 343.862661 278.951464 344.64167 
Q 277.975133 345.418624 276.176628 345.418624 
Q 275.574385 345.418624 274.935145 345.299409 
Q 274.295905 345.180194 273.615557 344.941764 
L 273.615557 343.690004 
Q 274.154081 344.004486 274.795376 344.16481 
Q 275.438727 344.325133 276.13963 344.325133 
Q 277.358502 344.325133 277.997742 343.844162 
Q 278.636982 343.36319 278.636982 342.444411 
Q 278.636982 341.595517 278.042962 341.118656 
Q 277.448941 340.63974 276.390393 340.63974 
L 275.272237 340.63974 
L 275.272237 339.57297 
L 276.441779 339.57297 
Q 277.397556 339.57297 277.905248 339.190659 
Q 278.41294 338.808348 278.41294 338.088946 
Q 278.41294 337.351045 277.888804 336.956402 
Q 277.366724 336.559703 276.390393 336.559703 
Q 275.85598 336.559703 275.245516 336.676863 
Q 274.635052 336.791967 273.903318 337.034509 
L 273.903318 335.879355 
Q 274.643274 335.673811 275.28868 335.57104 
Q 275.934086 335.468268 276.505497 335.468268 
Q 277.983354 335.468268 278.842526 336.140395 
Q 279.703753 336.810466 279.703753 337.953288 
Q 279.703753 338.750796 279.247446 339.299597 
Q 278.79114 339.848398 277.950467 340.060108 
z
M 282.523551 343.599565 
L 283.878082 343.599565 
L 283.878082 344.705389 
L 282.8257 346.760823 
L 281.99736 346.760823 
L 282.523551 344.705389 
z
M 290.135595 336.771413 
L 286.859233 341.891499 
L 290.135595 341.891499 
z
M 289.794393 335.640924 
L 291.426407 335.640924 
L 291.426407 341.891499 
L 292.795326 341.891499 
L 292.795326 342.970602 
L 291.426407 342.970602 
L 291.426407 345.23158 
L 290.135595 345.23158 
L 290.135595 342.970602 
L 285.80685 342.970602 
L 285.80685 341.718843 
z
M 295.074546 343.599565 
L 296.429077 343.599565 
L 296.429077 344.705389 
L 295.376695 346.760823 
L 294.548355 346.760823 
L 295.074546 344.705389 
z
M 302.057626 339.920338 
Q 301.184067 339.920338 300.672264 340.518469 
Q 300.162516 341.114545 300.162516 342.154595 
Q 300.162516 343.188478 300.672264 343.790721 
Q 301.184067 344.390907 302.057626 344.390907 
Q 302.931186 344.390907 303.440933 343.790721 
Q 303.950681 343.188478 303.950681 342.154595 
Q 303.950681 341.114545 303.440933 340.518469 
Q 302.931186 339.920338 302.057626 339.920338 
z
M 304.633085 335.852634 
L 304.633085 337.034509 
Q 304.143892 336.8043 303.646477 336.683029 
Q 303.149062 336.559703 302.659868 336.559703 
Q 301.375222 336.559703 300.696929 337.427097 
Q 300.020691 338.29449 299.924086 340.047775 
Q 300.302286 339.488697 300.873696 339.190659 
Q 301.447162 338.892621 302.133677 338.892621 
Q 303.578648 338.892621 304.417265 339.770291 
Q 305.255882 340.645906 305.255882 342.154595 
Q 305.255882 343.632452 304.382322 344.526566 
Q 303.508763 345.418624 302.057626 345.418624 
Q 300.392725 345.418624 299.512999 344.144255 
Q 298.633273 342.867831 298.633273 340.446529 
Q 298.633273 338.173219 299.712376 336.820743 
Q 300.791479 335.468268 302.608483 335.468268 
Q 303.097676 335.468268 303.595091 335.564873 
Q 304.092506 335.661479 304.633085 335.852634 
z
"/>
   </g>
   <g id="patch_131">
    <path clip-path="url(#p2f291ea6e9)" d="M 326.118538 322.105891 
L 325.834888 320.621867 
Q 325.547127 319.098791 324.40225 319.098791 
Q 323.543079 319.098791 323.150491 319.80586 
Q 322.655131 320.691752 322.655131 321.861294 
Q 322.655131 323.275433 323.138159 323.949615 
Q 323.625296 324.63613 324.40225 324.63613 
Q 325.263477 324.63613 325.72595 323.267211 
z
M 326.780388 320.140896 
L 327.415517 318.258118 
L 328.469955 318.258118 
L 327.152421 322.157277 
L 327.409351 323.563193 
Q 327.466903 323.877675 327.690945 324.14077 
Q 327.956096 324.449086 328.161639 324.449086 
L 328.726884 324.449086 
L 328.726884 325.452137 
L 328.019815 325.452137 
Q 327.415517 325.452137 326.876993 324.911558 
Q 326.611842 324.642296 326.502904 324.077052 
Q 326.208977 324.790288 325.604679 325.349366 
Q 325.32103 325.612461 324.40225 325.612461 
Q 322.893562 325.612461 322.161827 324.63613 
Q 321.409538 323.626912 321.409538 321.861294 
Q 321.409538 319.97235 322.225546 319.086458 
Q 323.131992 318.097794 324.40225 318.097794 
Q 326.400132 318.097794 326.780388 320.140896 
z
"/>
   </g>
   <g id="patch_132">
    <path clip-path="url(#p2f291ea6e9)" d="M 272.086314 332.218627 
C 274.877264 332.218627 277.55428 331.10977 279.52778 329.13627 
C 281.50128 327.16277 282.610136 324.485754 282.610136 321.694804 
C 282.610136 318.903853 281.50128 316.226837 279.52778 314.253338 
C 277.55428 312.279838 274.877264 311.170981 272.086314 311.170981 
C 269.295363 311.170981 266.618347 312.279838 264.644847 314.253338 
C 262.671347 316.226837 261.562491 318.903853 261.562491 321.694804 
C 261.562491 324.485754 262.671347 327.16277 264.644847 329.13627 
C 266.618347 331.10977 269.295363 332.218627 272.086314 332.218627 
z
" style="fill:#00a651;stroke:#000000;stroke-linejoin:miter;stroke-width:0.591389;"/>
   </g>
   <g id="patch_133">
    <path clip-path="url(#p2f291ea6e9)" d="M 279.979181 345.373405 
L 264.193447 361.159139 
z
" style="fill:#ffffff;stroke:#000000;stroke-linejoin:miter;stroke-width:0.591389;"/>
   </g>
   <g id="patch_134">
    <path clip-path="url(#p2f291ea6e9)" d="M 264.193447 345.373405 
L 279.979181 361.159139 
z
" style="fill:#ffffff;stroke:#000000;stroke-linejoin:miter;stroke-width:0.591389;"/>
   </g>
  </g>
  <g id="axes_7">
   <g id="line2d_49">
    <path clip-path="url(#pc74cb9e108)" d="M 321.426082 412.560178 
L 268.863293 412.560178 
" style="fill:none;stroke:#000000;stroke-linecap:square;stroke-width:0.768806;"/>
   </g>
   <g id="patch_135">
    <path clip-path="url(#pc74cb9e108)" d="M 289.535252 408.166257 
L 289.251906 406.683822 
Q 288.964453 405.162376 287.820802 405.162376 
Q 286.96255 405.162376 286.570383 405.868689 
Q 286.075553 406.753632 286.075553 407.921922 
Q 286.075553 409.334547 286.558063 410.008008 
Q 287.04468 410.693788 287.820802 410.693788 
Q 288.681107 410.693788 289.143085 409.326334 
z
M 290.196394 406.203366 
L 290.830843 404.322603 
L 291.884152 404.322603 
L 290.568029 408.217588 
L 290.824683 409.622 
Q 290.882174 409.936145 291.105976 410.198959 
Q 291.370844 410.506944 291.576167 410.506944 
L 292.140806 410.506944 
L 292.140806 411.508922 
L 291.434494 411.508922 
Q 290.830843 411.508922 290.292896 410.968922 
Q 290.028029 410.699948 289.919207 410.135309 
Q 289.625595 410.847781 289.021944 411.40626 
Q 288.738598 411.669074 287.820802 411.669074 
Q 286.313728 411.669074 285.582777 410.693788 
Q 284.831293 409.68565 284.831293 407.921922 
Q 284.831293 406.035 285.646427 405.150057 
Q 286.551903 404.162451 287.820802 404.162451 
Q 289.816545 404.162451 290.196394 406.203366 
z
"/>
   </g>
   <g id="patch_136">
    <path clip-path="url(#pc74cb9e108)" d="M 305.207587 406.342986 
Q 306.137702 406.542149 306.659223 407.172492 
Q 307.182798 407.800782 307.182798 408.724737 
Q 307.182798 410.141468 306.207512 410.919644 
Q 305.232226 411.695766 303.435646 411.695766 
Q 302.834049 411.695766 302.195493 411.576679 
Q 301.556937 411.457591 300.877317 411.219416 
L 300.877317 409.968997 
Q 301.415264 410.283141 302.055873 410.443294 
Q 302.698535 410.603446 303.398688 410.603446 
Q 304.616256 410.603446 305.254811 410.122989 
Q 305.893367 409.642533 305.893367 408.724737 
Q 305.893367 407.876751 305.299983 407.400401 
Q 304.706598 406.921998 303.649182 406.921998 
L 302.532223 406.921998 
L 302.532223 405.856369 
L 303.700513 405.856369 
Q 304.655267 405.856369 305.162416 405.474468 
Q 305.669565 405.092566 305.669565 404.373934 
Q 305.669565 403.636823 305.14599 403.242602 
Q 304.624469 402.846328 303.649182 402.846328 
Q 303.115342 402.846328 302.505531 402.963362 
Q 301.895721 403.078344 301.164769 403.320625 
L 301.164769 402.166708 
Q 301.903934 401.961384 302.548649 401.858723 
Q 303.193365 401.756061 303.764164 401.756061 
Q 305.240439 401.756061 306.098691 402.427468 
Q 306.958996 403.096823 306.958996 404.238421 
Q 306.958996 405.035076 306.503178 405.583289 
Q 306.04736 406.131502 305.207587 406.342986 
z
"/>
   </g>
   <g id="patch_137">
    <path clip-path="url(#pc74cb9e108)" d="M 321.426082 423.072736 
C 324.214045 423.072736 326.888195 421.965066 328.859583 419.993679 
C 330.83097 418.022291 331.93864 415.348141 331.93864 412.560178 
C 331.93864 409.772215 330.83097 407.098065 328.859583 405.126677 
C 326.888195 403.15529 324.214045 402.04762 321.426082 402.04762 
C 318.638119 402.04762 315.963969 403.15529 313.992581 405.126677 
C 312.021194 407.098065 310.913524 409.772215 310.913524 412.560178 
C 310.913524 415.348141 312.021194 418.022291 313.992581 419.993679 
C 315.963969 421.965066 318.638119 423.072736 321.426082 423.072736 
z
" style="fill:#00a651;stroke:#000000;stroke-linejoin:miter;stroke-width:0.768806;"/>
   </g>
   <g id="patch_138">
    <path clip-path="url(#pc74cb9e108)" d="M 268.863293 423.072736 
C 271.651256 423.072736 274.325406 421.965066 276.296794 419.993679 
C 278.268181 418.022291 279.375851 415.348141 279.375851 412.560178 
C 279.375851 409.772215 278.268181 407.098065 276.296794 405.126677 
C 274.325406 403.15529 271.651256 402.04762 268.863293 402.04762 
C 266.07533 402.04762 263.40118 403.15529 261.429792 405.126677 
C 259.458405 407.098065 258.350735 409.772215 258.350735 412.560178 
C 258.350735 415.348141 259.458405 418.022291 261.429792 419.993679 
C 263.40118 421.965066 266.07533 423.072736 268.863293 423.072736 
z
" style="fill:#00a651;stroke:#000000;stroke-linejoin:miter;stroke-width:0.768806;"/>
   </g>
  </g>
  <g id="text_40">
   <!-- ConA_13799-10ug_V5.0_DATA.csv -->
   <defs>
    <path d="M 50.984375 -16.609375 
L 50.984375 -23.578125 
L -0.984375 -23.578125 
L -0.984375 -16.609375 
z
" id="DejaVuSans-95"/>
    <path d="M 4.890625 31.390625 
L 31.203125 31.390625 
L 31.203125 23.390625 
L 4.890625 23.390625 
z
" id="DejaVuSans-45"/>
    <path d="M 19.671875 64.796875 
L 19.671875 8.109375 
L 31.59375 8.109375 
Q 46.6875 8.109375 53.6875 14.9375 
Q 60.6875 21.78125 60.6875 36.53125 
Q 60.6875 51.171875 53.6875 57.984375 
Q 46.6875 64.796875 31.59375 64.796875 
z
M 9.8125 72.90625 
L 30.078125 72.90625 
Q 51.265625 72.90625 61.171875 64.09375 
Q 71.09375 55.28125 71.09375 36.53125 
Q 71.09375 17.671875 61.125 8.828125 
Q 51.171875 0 30.078125 0 
L 9.8125 0 
z
" id="DejaVuSans-68"/>
   </defs>
   <g transform="translate(184.725937 18.41025)scale(0.12 -0.12)">
    <use xlink:href="#DejaVuSans-67"/>
    <use x="69.824219" xlink:href="#DejaVuSans-111"/>
    <use x="131.005859" xlink:href="#DejaVuSans-110"/>
    <use x="194.384766" xlink:href="#DejaVuSans-65"/>
    <use x="262.792969" xlink:href="#DejaVuSans-95"/>
    <use x="312.792969" xlink:href="#DejaVuSans-49"/>
    <use x="376.416016" xlink:href="#DejaVuSans-51"/>
    <use x="440.039062" xlink:href="#DejaVuSans-55"/>
    <use x="503.662109" xlink:href="#DejaVuSans-57"/>
    <use x="567.285156" xlink:href="#DejaVuSans-57"/>
    <use x="630.908203" xlink:href="#DejaVuSans-45"/>
    <use x="666.992188" xlink:href="#DejaVuSans-49"/>
    <use x="730.615234" xlink:href="#DejaVuSans-48"/>
    <use x="794.238281" xlink:href="#DejaVuSans-117"/>
    <use x="857.617188" xlink:href="#DejaVuSans-103"/>
    <use x="921.09375" xlink:href="#DejaVuSans-95"/>
    <use x="971.09375" xlink:href="#DejaVuSans-86"/>
    <use x="1039.501953" xlink:href="#DejaVuSans-53"/>
    <use x="1103.125" xlink:href="#DejaVuSans-46"/>
    <use x="1134.912109" xlink:href="#DejaVuSans-48"/>
    <use x="1198.535156" xlink:href="#DejaVuSans-95"/>
    <use x="1248.535156" xlink:href="#DejaVuSans-68"/>
    <use x="1325.521484" xlink:href="#DejaVuSans-65"/>
    <use x="1393.820312" xlink:href="#DejaVuSans-84"/>
    <use x="1454.794922" xlink:href="#DejaVuSans-65"/>
    <use x="1523.1875" xlink:href="#DejaVuSans-46"/>
    <use x="1554.974609" xlink:href="#DejaVuSans-99"/>
    <use x="1609.955078" xlink:href="#DejaVuSans-115"/>
    <use x="1662.054688" xlink:href="#DejaVuSans-118"/>
   </g>
  </g>
 </g>
 <defs>
  <clipPath id="p4b6da897f3">
   <rect height="109.973947" width="299.21467" x="36.403365" y="76.071693"/>
  </clipPath>
  <clipPath id="p8eff6b5fbe">
   <rect height="210.48589" width="177.19787" x="36.403365" y="229.421995"/>
  </clipPath>
  <clipPath id="p7d18c337a6">
   <rect height="210.48589" width="177.19787" x="392.30189" y="229.421995"/>
  </clipPath>
  <clipPath id="p4cdc650a7e">
   <rect height="109.973947" width="177.19787" x="392.30189" y="76.071693"/>
  </clipPath>
  <clipPath id="p4c00d158ff">
   <rect height="54.986973" width="48.680714" x="270.80433" y="229.421995"/>
  </clipPath>
  <clipPath id="p2f291ea6e9">
   <rect height="54.986973" width="73.880832" x="258.204272" y="308.671573"/>
  </clipPath>
  <clipPath id="pc74cb9e108">
   <rect height="23.448342" width="80.946695" x="254.67134" y="400.690227"/>
  </clipPath>
 </defs>
</svg>
