<?xml version="1.0" encoding="utf-8" standalone="no"?>
<!DOCTYPE svg PUBLIC "-//W3C//DTD SVG 1.1//EN"
  "http://www.w3.org/Graphics/SVG/1.1/DTD/svg11.dtd">
<!-- Created with matplotlib (https://matplotlib.org/) -->
<svg height="302.4pt" version="1.1" viewBox="0 0 576 302.4" width="576pt" xmlns="http://www.w3.org/2000/svg" xmlns:xlink="http://www.w3.org/1999/xlink">
 <defs>
  <style type="text/css">
*{stroke-linecap:butt;stroke-linejoin:round;}
  </style>
 </defs>
 <g id="figure_1">
  <g id="patch_1">
   <path d="M 0 302.4 
L 576 302.4 
L 576 0 
L 0 0 
z
" style="fill:#ffffff;"/>
  </g>
  <g id="axes_1">
   <g id="patch_2">
    <path d="M 42.765865 173.223915 
L 330.656785 173.223915 
L 330.656785 65.064686 
L 42.765865 65.064686 
z
" style="fill:#ffffff;"/>
   </g>
   <g id="patch_3">
    <path clip-path="url(#pdaefed0ce3)" d="M 55.851816 173.223915 
L 58.851579 173.223915 
L 58.851579 172.278881 
L 55.851816 172.278881 
z
" style="fill:#1f77b4;"/>
   </g>
   <g id="patch_4">
    <path clip-path="url(#pdaefed0ce3)" d="M 58.851579 173.223915 
L 61.851342 173.223915 
L 61.851342 173.223915 
L 58.851579 173.223915 
z
" style="fill:#1f77b4;"/>
   </g>
   <g id="patch_5">
    <path clip-path="url(#pdaefed0ce3)" d="M 61.851342 173.223915 
L 64.851105 173.223915 
L 64.851105 173.223915 
L 61.851342 173.223915 
z
" style="fill:#1f77b4;"/>
   </g>
   <g id="patch_6">
    <path clip-path="url(#pdaefed0ce3)" d="M 64.851105 173.223915 
L 67.850868 173.223915 
L 67.850868 173.223915 
L 64.851105 173.223915 
z
" style="fill:#1f77b4;"/>
   </g>
   <g id="patch_7">
    <path clip-path="url(#pdaefed0ce3)" d="M 67.850868 173.223915 
L 70.85063 173.223915 
L 70.85063 173.223915 
L 67.850868 173.223915 
z
" style="fill:#1f77b4;"/>
   </g>
   <g id="patch_8">
    <path clip-path="url(#pdaefed0ce3)" d="M 70.85063 173.223915 
L 73.850393 173.223915 
L 73.850393 173.223915 
L 70.85063 173.223915 
z
" style="fill:#1f77b4;"/>
   </g>
   <g id="patch_9">
    <path clip-path="url(#pdaefed0ce3)" d="M 73.850393 173.223915 
L 76.850156 173.223915 
L 76.850156 173.223915 
L 73.850393 173.223915 
z
" style="fill:#1f77b4;"/>
   </g>
   <g id="patch_10">
    <path clip-path="url(#pdaefed0ce3)" d="M 76.850156 173.223915 
L 79.849919 173.223915 
L 79.849919 173.223915 
L 76.850156 173.223915 
z
" style="fill:#1f77b4;"/>
   </g>
   <g id="patch_11">
    <path clip-path="url(#pdaefed0ce3)" d="M 79.849919 173.223915 
L 82.849682 173.223915 
L 82.849682 173.223915 
L 79.849919 173.223915 
z
" style="fill:#1f77b4;"/>
   </g>
   <g id="patch_12">
    <path clip-path="url(#pdaefed0ce3)" d="M 82.849682 173.223915 
L 85.849445 173.223915 
L 85.849445 173.223915 
L 82.849682 173.223915 
z
" style="fill:#1f77b4;"/>
   </g>
   <g id="patch_13">
    <path clip-path="url(#pdaefed0ce3)" d="M 85.849445 173.223915 
L 88.849208 173.223915 
L 88.849208 173.223915 
L 85.849445 173.223915 
z
" style="fill:#1f77b4;"/>
   </g>
   <g id="patch_14">
    <path clip-path="url(#pdaefed0ce3)" d="M 88.849208 173.223915 
L 91.848971 173.223915 
L 91.848971 173.223915 
L 88.849208 173.223915 
z
" style="fill:#1f77b4;"/>
   </g>
   <g id="patch_15">
    <path clip-path="url(#pdaefed0ce3)" d="M 91.848971 173.223915 
L 94.848734 173.223915 
L 94.848734 173.223915 
L 91.848971 173.223915 
z
" style="fill:#1f77b4;"/>
   </g>
   <g id="patch_16">
    <path clip-path="url(#pdaefed0ce3)" d="M 94.848734 173.223915 
L 97.848497 173.223915 
L 97.848497 173.223915 
L 94.848734 173.223915 
z
" style="fill:#1f77b4;"/>
   </g>
   <g id="patch_17">
    <path clip-path="url(#pdaefed0ce3)" d="M 97.848497 173.223915 
L 100.84826 173.223915 
L 100.84826 173.223915 
L 97.848497 173.223915 
z
" style="fill:#1f77b4;"/>
   </g>
   <g id="patch_18">
    <path clip-path="url(#pdaefed0ce3)" d="M 100.84826 173.223915 
L 103.848023 173.223915 
L 103.848023 173.223915 
L 100.84826 173.223915 
z
" style="fill:#1f77b4;"/>
   </g>
   <g id="patch_19">
    <path clip-path="url(#pdaefed0ce3)" d="M 103.848023 173.223915 
L 106.847785 173.223915 
L 106.847785 172.278881 
L 103.848023 172.278881 
z
" style="fill:#1f77b4;"/>
   </g>
   <g id="patch_20">
    <path clip-path="url(#pdaefed0ce3)" d="M 106.847785 173.223915 
L 109.847548 173.223915 
L 109.847548 172.278881 
L 106.847785 172.278881 
z
" style="fill:#1f77b4;"/>
   </g>
   <g id="patch_21">
    <path clip-path="url(#pdaefed0ce3)" d="M 109.847548 173.223915 
L 112.847311 173.223915 
L 112.847311 173.223915 
L 109.847548 173.223915 
z
" style="fill:#1f77b4;"/>
   </g>
   <g id="patch_22">
    <path clip-path="url(#pdaefed0ce3)" d="M 112.847311 173.223915 
L 115.847074 173.223915 
L 115.847074 173.223915 
L 112.847311 173.223915 
z
" style="fill:#1f77b4;"/>
   </g>
   <g id="patch_23">
    <path clip-path="url(#pdaefed0ce3)" d="M 115.847074 173.223915 
L 118.846837 173.223915 
L 118.846837 173.223915 
L 115.847074 173.223915 
z
" style="fill:#1f77b4;"/>
   </g>
   <g id="patch_24">
    <path clip-path="url(#pdaefed0ce3)" d="M 118.846837 173.223915 
L 121.8466 173.223915 
L 121.8466 173.223915 
L 118.846837 173.223915 
z
" style="fill:#1f77b4;"/>
   </g>
   <g id="patch_25">
    <path clip-path="url(#pdaefed0ce3)" d="M 121.8466 173.223915 
L 124.846363 173.223915 
L 124.846363 173.223915 
L 121.8466 173.223915 
z
" style="fill:#1f77b4;"/>
   </g>
   <g id="patch_26">
    <path clip-path="url(#pdaefed0ce3)" d="M 124.846363 173.223915 
L 127.846126 173.223915 
L 127.846126 172.278881 
L 124.846363 172.278881 
z
" style="fill:#1f77b4;"/>
   </g>
   <g id="patch_27">
    <path clip-path="url(#pdaefed0ce3)" d="M 127.846126 173.223915 
L 130.845889 173.223915 
L 130.845889 168.498741 
L 127.846126 168.498741 
z
" style="fill:#1f77b4;"/>
   </g>
   <g id="patch_28">
    <path clip-path="url(#pdaefed0ce3)" d="M 130.845889 173.223915 
L 133.845652 173.223915 
L 133.845652 172.278881 
L 130.845889 172.278881 
z
" style="fill:#1f77b4;"/>
   </g>
   <g id="patch_29">
    <path clip-path="url(#pdaefed0ce3)" d="M 133.845652 173.223915 
L 136.845415 173.223915 
L 136.845415 164.718602 
L 133.845652 164.718602 
z
" style="fill:#1f77b4;"/>
   </g>
   <g id="patch_30">
    <path clip-path="url(#pdaefed0ce3)" d="M 136.845415 173.223915 
L 139.845178 173.223915 
L 139.845178 161.883498 
L 136.845415 161.883498 
z
" style="fill:#1f77b4;"/>
   </g>
   <g id="patch_31">
    <path clip-path="url(#pdaefed0ce3)" d="M 139.845178 173.223915 
L 142.84494 173.223915 
L 142.84494 147.707977 
L 139.845178 147.707977 
z
" style="fill:#1f77b4;"/>
   </g>
   <g id="patch_32">
    <path clip-path="url(#pdaefed0ce3)" d="M 142.84494 173.223915 
L 145.844703 173.223915 
L 145.844703 109.906586 
L 142.84494 109.906586 
z
" style="fill:#1f77b4;"/>
   </g>
   <g id="patch_33">
    <path clip-path="url(#pdaefed0ce3)" d="M 145.844703 173.223915 
L 148.844466 173.223915 
L 148.844466 77.775404 
L 145.844703 77.775404 
z
" style="fill:#1f77b4;"/>
   </g>
   <g id="patch_34">
    <path clip-path="url(#pdaefed0ce3)" d="M 148.844466 173.223915 
L 151.844229 173.223915 
L 151.844229 70.215125 
L 148.844466 70.215125 
z
" style="fill:#1f77b4;"/>
   </g>
   <g id="patch_35">
    <path clip-path="url(#pdaefed0ce3)" d="M 151.844229 173.223915 
L 154.843992 173.223915 
L 154.843992 109.906586 
L 151.844229 109.906586 
z
" style="fill:#1f77b4;"/>
   </g>
   <g id="patch_36">
    <path clip-path="url(#pdaefed0ce3)" d="M 154.843992 173.223915 
L 157.843755 173.223915 
L 157.843755 128.807281 
L 154.843992 128.807281 
z
" style="fill:#1f77b4;"/>
   </g>
   <g id="patch_37">
    <path clip-path="url(#pdaefed0ce3)" d="M 157.843755 173.223915 
L 160.843518 173.223915 
L 160.843518 148.653011 
L 157.843755 148.653011 
z
" style="fill:#1f77b4;"/>
   </g>
   <g id="patch_38">
    <path clip-path="url(#pdaefed0ce3)" d="M 160.843518 173.223915 
L 163.843281 173.223915 
L 163.843281 156.213289 
L 160.843518 156.213289 
z
" style="fill:#1f77b4;"/>
   </g>
   <g id="patch_39">
    <path clip-path="url(#pdaefed0ce3)" d="M 179.58174 173.223915 
L 182.581503 173.223915 
L 182.581503 165.663637 
L 179.58174 165.663637 
z
" style="fill:#ff0000;"/>
   </g>
   <g id="patch_40">
    <path clip-path="url(#pdaefed0ce3)" d="M 182.581503 173.223915 
L 185.581266 173.223915 
L 185.581266 167.553707 
L 182.581503 167.553707 
z
" style="fill:#ff0000;"/>
   </g>
   <g id="patch_41">
    <path clip-path="url(#pdaefed0ce3)" d="M 185.581266 173.223915 
L 188.581029 173.223915 
L 188.581029 168.498741 
L 185.581266 168.498741 
z
" style="fill:#ff0000;"/>
   </g>
   <g id="patch_42">
    <path clip-path="url(#pdaefed0ce3)" d="M 188.581029 173.223915 
L 191.580792 173.223915 
L 191.580792 171.333846 
L 188.581029 171.333846 
z
" style="fill:#ff0000;"/>
   </g>
   <g id="patch_43">
    <path clip-path="url(#pdaefed0ce3)" d="M 191.580792 173.223915 
L 194.580555 173.223915 
L 194.580555 169.443776 
L 191.580792 169.443776 
z
" style="fill:#ff0000;"/>
   </g>
   <g id="patch_44">
    <path clip-path="url(#pdaefed0ce3)" d="M 194.580555 173.223915 
L 197.580317 173.223915 
L 197.580317 172.278881 
L 194.580555 172.278881 
z
" style="fill:#ff0000;"/>
   </g>
   <g id="patch_45">
    <path clip-path="url(#pdaefed0ce3)" d="M 197.580317 173.223915 
L 200.58008 173.223915 
L 200.58008 170.388811 
L 197.580317 170.388811 
z
" style="fill:#ff0000;"/>
   </g>
   <g id="patch_46">
    <path clip-path="url(#pdaefed0ce3)" d="M 200.58008 173.223915 
L 203.579843 173.223915 
L 203.579843 172.278881 
L 200.58008 172.278881 
z
" style="fill:#ff0000;"/>
   </g>
   <g id="patch_47">
    <path clip-path="url(#pdaefed0ce3)" d="M 203.579843 173.223915 
L 206.579606 173.223915 
L 206.579606 171.333846 
L 203.579843 171.333846 
z
" style="fill:#ff0000;"/>
   </g>
   <g id="patch_48">
    <path clip-path="url(#pdaefed0ce3)" d="M 206.579606 173.223915 
L 209.579369 173.223915 
L 209.579369 173.223915 
L 206.579606 173.223915 
z
" style="fill:#ff0000;"/>
   </g>
   <g id="patch_49">
    <path clip-path="url(#pdaefed0ce3)" d="M 209.579369 173.223915 
L 212.579132 173.223915 
L 212.579132 172.278881 
L 209.579369 172.278881 
z
" style="fill:#ff0000;"/>
   </g>
   <g id="patch_50">
    <path clip-path="url(#pdaefed0ce3)" d="M 212.579132 173.223915 
L 215.578895 173.223915 
L 215.578895 171.333846 
L 212.579132 171.333846 
z
" style="fill:#ff0000;"/>
   </g>
   <g id="patch_51">
    <path clip-path="url(#pdaefed0ce3)" d="M 215.578895 173.223915 
L 218.578658 173.223915 
L 218.578658 173.223915 
L 215.578895 173.223915 
z
" style="fill:#ff0000;"/>
   </g>
   <g id="patch_52">
    <path clip-path="url(#pdaefed0ce3)" d="M 218.578658 173.223915 
L 221.578421 173.223915 
L 221.578421 173.223915 
L 218.578658 173.223915 
z
" style="fill:#ff0000;"/>
   </g>
   <g id="patch_53">
    <path clip-path="url(#pdaefed0ce3)" d="M 221.578421 173.223915 
L 224.578184 173.223915 
L 224.578184 172.278881 
L 221.578421 172.278881 
z
" style="fill:#ff0000;"/>
   </g>
   <g id="patch_54">
    <path clip-path="url(#pdaefed0ce3)" d="M 224.578184 173.223915 
L 227.577947 173.223915 
L 227.577947 169.443776 
L 224.578184 169.443776 
z
" style="fill:#ff0000;"/>
   </g>
   <g id="patch_55">
    <path clip-path="url(#pdaefed0ce3)" d="M 227.577947 173.223915 
L 230.57771 173.223915 
L 230.57771 173.223915 
L 227.577947 173.223915 
z
" style="fill:#ff0000;"/>
   </g>
   <g id="patch_56">
    <path clip-path="url(#pdaefed0ce3)" d="M 230.57771 173.223915 
L 233.577472 173.223915 
L 233.577472 172.278881 
L 230.57771 172.278881 
z
" style="fill:#ff0000;"/>
   </g>
   <g id="patch_57">
    <path clip-path="url(#pdaefed0ce3)" d="M 233.577472 173.223915 
L 236.577235 173.223915 
L 236.577235 171.333846 
L 233.577472 171.333846 
z
" style="fill:#ff0000;"/>
   </g>
   <g id="patch_58">
    <path clip-path="url(#pdaefed0ce3)" d="M 236.577235 173.223915 
L 239.576998 173.223915 
L 239.576998 172.278881 
L 236.577235 172.278881 
z
" style="fill:#ff0000;"/>
   </g>
   <g id="patch_59">
    <path clip-path="url(#pdaefed0ce3)" d="M 239.576998 173.223915 
L 242.576761 173.223915 
L 242.576761 170.388811 
L 239.576998 170.388811 
z
" style="fill:#ff0000;"/>
   </g>
   <g id="patch_60">
    <path clip-path="url(#pdaefed0ce3)" d="M 242.576761 173.223915 
L 245.576524 173.223915 
L 245.576524 172.278881 
L 242.576761 172.278881 
z
" style="fill:#ff0000;"/>
   </g>
   <g id="patch_61">
    <path clip-path="url(#pdaefed0ce3)" d="M 245.576524 173.223915 
L 248.576287 173.223915 
L 248.576287 171.333846 
L 245.576524 171.333846 
z
" style="fill:#ff0000;"/>
   </g>
   <g id="patch_62">
    <path clip-path="url(#pdaefed0ce3)" d="M 248.576287 173.223915 
L 251.57605 173.223915 
L 251.57605 172.278881 
L 248.576287 172.278881 
z
" style="fill:#ff0000;"/>
   </g>
   <g id="patch_63">
    <path clip-path="url(#pdaefed0ce3)" d="M 251.57605 173.223915 
L 254.575813 173.223915 
L 254.575813 173.223915 
L 251.57605 173.223915 
z
" style="fill:#ff0000;"/>
   </g>
   <g id="patch_64">
    <path clip-path="url(#pdaefed0ce3)" d="M 254.575813 173.223915 
L 257.575576 173.223915 
L 257.575576 173.223915 
L 254.575813 173.223915 
z
" style="fill:#ff0000;"/>
   </g>
   <g id="patch_65">
    <path clip-path="url(#pdaefed0ce3)" d="M 257.575576 173.223915 
L 260.575339 173.223915 
L 260.575339 169.443776 
L 257.575576 169.443776 
z
" style="fill:#ff0000;"/>
   </g>
   <g id="patch_66">
    <path clip-path="url(#pdaefed0ce3)" d="M 260.575339 173.223915 
L 263.575102 173.223915 
L 263.575102 172.278881 
L 260.575339 172.278881 
z
" style="fill:#ff0000;"/>
   </g>
   <g id="patch_67">
    <path clip-path="url(#pdaefed0ce3)" d="M 263.575102 173.223915 
L 266.574865 173.223915 
L 266.574865 170.388811 
L 263.575102 170.388811 
z
" style="fill:#ff0000;"/>
   </g>
   <g id="patch_68">
    <path clip-path="url(#pdaefed0ce3)" d="M 266.574865 173.223915 
L 269.574627 173.223915 
L 269.574627 173.223915 
L 266.574865 173.223915 
z
" style="fill:#ff0000;"/>
   </g>
   <g id="patch_69">
    <path clip-path="url(#pdaefed0ce3)" d="M 269.574627 173.223915 
L 272.57439 173.223915 
L 272.57439 173.223915 
L 269.574627 173.223915 
z
" style="fill:#ff0000;"/>
   </g>
   <g id="patch_70">
    <path clip-path="url(#pdaefed0ce3)" d="M 272.57439 173.223915 
L 275.574153 173.223915 
L 275.574153 169.443776 
L 272.57439 169.443776 
z
" style="fill:#ff0000;"/>
   </g>
   <g id="patch_71">
    <path clip-path="url(#pdaefed0ce3)" d="M 275.574153 173.223915 
L 278.573916 173.223915 
L 278.573916 171.333846 
L 275.574153 171.333846 
z
" style="fill:#ff0000;"/>
   </g>
   <g id="patch_72">
    <path clip-path="url(#pdaefed0ce3)" d="M 278.573916 173.223915 
L 281.573679 173.223915 
L 281.573679 171.333846 
L 278.573916 171.333846 
z
" style="fill:#ff0000;"/>
   </g>
   <g id="patch_73">
    <path clip-path="url(#pdaefed0ce3)" d="M 281.573679 173.223915 
L 284.573442 173.223915 
L 284.573442 172.278881 
L 281.573679 172.278881 
z
" style="fill:#ff0000;"/>
   </g>
   <g id="patch_74">
    <path clip-path="url(#pdaefed0ce3)" d="M 284.573442 173.223915 
L 287.573205 173.223915 
L 287.573205 173.223915 
L 284.573442 173.223915 
z
" style="fill:#ff0000;"/>
   </g>
   <g id="patch_75">
    <path clip-path="url(#pdaefed0ce3)" d="M 287.573205 173.223915 
L 290.572968 173.223915 
L 290.572968 173.223915 
L 287.573205 173.223915 
z
" style="fill:#ff0000;"/>
   </g>
   <g id="patch_76">
    <path clip-path="url(#pdaefed0ce3)" d="M 290.572968 173.223915 
L 293.572731 173.223915 
L 293.572731 172.278881 
L 290.572968 172.278881 
z
" style="fill:#ff0000;"/>
   </g>
   <g id="patch_77">
    <path clip-path="url(#pdaefed0ce3)" d="M 293.572731 173.223915 
L 296.572494 173.223915 
L 296.572494 173.223915 
L 293.572731 173.223915 
z
" style="fill:#ff0000;"/>
   </g>
   <g id="patch_78">
    <path clip-path="url(#pdaefed0ce3)" d="M 296.572494 173.223915 
L 299.572257 173.223915 
L 299.572257 171.333846 
L 296.572494 171.333846 
z
" style="fill:#ff0000;"/>
   </g>
   <g id="patch_79">
    <path clip-path="url(#pdaefed0ce3)" d="M 299.572257 173.223915 
L 302.57202 173.223915 
L 302.57202 173.223915 
L 299.572257 173.223915 
z
" style="fill:#ff0000;"/>
   </g>
   <g id="patch_80">
    <path clip-path="url(#pdaefed0ce3)" d="M 302.57202 173.223915 
L 305.571782 173.223915 
L 305.571782 171.333846 
L 302.57202 171.333846 
z
" style="fill:#ff0000;"/>
   </g>
   <g id="patch_81">
    <path clip-path="url(#pdaefed0ce3)" d="M 305.571782 173.223915 
L 308.571545 173.223915 
L 308.571545 172.278881 
L 305.571782 172.278881 
z
" style="fill:#ff0000;"/>
   </g>
   <g id="patch_82">
    <path clip-path="url(#pdaefed0ce3)" d="M 308.571545 173.223915 
L 311.571308 173.223915 
L 311.571308 173.223915 
L 308.571545 173.223915 
z
" style="fill:#ff0000;"/>
   </g>
   <g id="patch_83">
    <path clip-path="url(#pdaefed0ce3)" d="M 311.571308 173.223915 
L 314.571071 173.223915 
L 314.571071 173.223915 
L 311.571308 173.223915 
z
" style="fill:#ff0000;"/>
   </g>
   <g id="patch_84">
    <path clip-path="url(#pdaefed0ce3)" d="M 314.571071 173.223915 
L 317.570834 173.223915 
L 317.570834 171.333846 
L 314.571071 171.333846 
z
" style="fill:#ff0000;"/>
   </g>
   <g id="patch_85">
    <path clip-path="url(#pdaefed0ce3)" d="M 162.756882 173.223915 
L 165.756645 173.223915 
L 165.756645 158.103359 
L 162.756882 158.103359 
z
" style="fill:#ffa500;"/>
   </g>
   <g id="patch_86">
    <path clip-path="url(#pdaefed0ce3)" d="M 165.756645 173.223915 
L 168.756408 173.223915 
L 168.756408 166.608672 
L 165.756645 166.608672 
z
" style="fill:#ffa500;"/>
   </g>
   <g id="patch_87">
    <path clip-path="url(#pdaefed0ce3)" d="M 168.756408 173.223915 
L 171.756171 173.223915 
L 171.756171 162.828533 
L 168.756408 162.828533 
z
" style="fill:#ffa500;"/>
   </g>
   <g id="patch_88">
    <path clip-path="url(#pdaefed0ce3)" d="M 171.756171 173.223915 
L 174.755934 173.223915 
L 174.755934 166.608672 
L 171.756171 166.608672 
z
" style="fill:#ffa500;"/>
   </g>
   <g id="patch_89">
    <path clip-path="url(#pdaefed0ce3)" d="M 174.755934 173.223915 
L 177.755697 173.223915 
L 177.755697 173.223915 
L 174.755934 173.223915 
z
" style="fill:#ffa500;"/>
   </g>
   <g id="patch_90">
    <path clip-path="url(#pdaefed0ce3)" d="M 177.755697 173.223915 
L 180.75546 173.223915 
L 180.75546 172.278881 
L 177.755697 172.278881 
z
" style="fill:#ffa500;"/>
   </g>
   <g id="matplotlib.axis_1">
    <g id="xtick_1">
     <g id="line2d_1">
      <defs>
       <path d="M 0 0 
L 0 3.5 
" id="m42279c1055" style="stroke:#000000;stroke-width:0.8;"/>
      </defs>
      <g>
       <use style="stroke:#000000;stroke-width:0.8;" x="55.851816" xlink:href="#m42279c1055" y="173.223915"/>
      </g>
     </g>
     <g id="text_1">
      <!-- 0 -->
      <defs>
       <path d="M 31.78125 66.40625 
Q 24.171875 66.40625 20.328125 58.90625 
Q 16.5 51.421875 16.5 36.375 
Q 16.5 21.390625 20.328125 13.890625 
Q 24.171875 6.390625 31.78125 6.390625 
Q 39.453125 6.390625 43.28125 13.890625 
Q 47.125 21.390625 47.125 36.375 
Q 47.125 51.421875 43.28125 58.90625 
Q 39.453125 66.40625 31.78125 66.40625 
z
M 31.78125 74.21875 
Q 44.046875 74.21875 50.515625 64.515625 
Q 56.984375 54.828125 56.984375 36.375 
Q 56.984375 17.96875 50.515625 8.265625 
Q 44.046875 -1.421875 31.78125 -1.421875 
Q 19.53125 -1.421875 13.0625 8.265625 
Q 6.59375 17.96875 6.59375 36.375 
Q 6.59375 54.828125 13.0625 64.515625 
Q 19.53125 74.21875 31.78125 74.21875 
z
" id="DejaVuSans-48"/>
      </defs>
      <g transform="translate(52.670566 187.822353)scale(0.1 -0.1)">
       <use xlink:href="#DejaVuSans-48"/>
      </g>
     </g>
    </g>
    <g id="xtick_2">
     <g id="line2d_2">
      <g>
       <use style="stroke:#000000;stroke-width:0.8;" x="115.847074" xlink:href="#m42279c1055" y="173.223915"/>
      </g>
     </g>
     <g id="text_2">
      <!-- 1 -->
      <defs>
       <path d="M 12.40625 8.296875 
L 28.515625 8.296875 
L 28.515625 63.921875 
L 10.984375 60.40625 
L 10.984375 69.390625 
L 28.421875 72.90625 
L 38.28125 72.90625 
L 38.28125 8.296875 
L 54.390625 8.296875 
L 54.390625 0 
L 12.40625 0 
z
" id="DejaVuSans-49"/>
      </defs>
      <g transform="translate(112.665824 187.822353)scale(0.1 -0.1)">
       <use xlink:href="#DejaVuSans-49"/>
      </g>
     </g>
    </g>
    <g id="xtick_3">
     <g id="line2d_3">
      <g>
       <use style="stroke:#000000;stroke-width:0.8;" x="175.842333" xlink:href="#m42279c1055" y="173.223915"/>
      </g>
     </g>
     <g id="text_3">
      <!-- 2 -->
      <defs>
       <path d="M 19.1875 8.296875 
L 53.609375 8.296875 
L 53.609375 0 
L 7.328125 0 
L 7.328125 8.296875 
Q 12.9375 14.109375 22.625 23.890625 
Q 32.328125 33.6875 34.8125 36.53125 
Q 39.546875 41.84375 41.421875 45.53125 
Q 43.3125 49.21875 43.3125 52.78125 
Q 43.3125 58.59375 39.234375 62.25 
Q 35.15625 65.921875 28.609375 65.921875 
Q 23.96875 65.921875 18.8125 64.3125 
Q 13.671875 62.703125 7.8125 59.421875 
L 7.8125 69.390625 
Q 13.765625 71.78125 18.9375 73 
Q 24.125 74.21875 28.421875 74.21875 
Q 39.75 74.21875 46.484375 68.546875 
Q 53.21875 62.890625 53.21875 53.421875 
Q 53.21875 48.921875 51.53125 44.890625 
Q 49.859375 40.875 45.40625 35.40625 
Q 44.1875 33.984375 37.640625 27.21875 
Q 31.109375 20.453125 19.1875 8.296875 
z
" id="DejaVuSans-50"/>
      </defs>
      <g transform="translate(172.661083 187.822353)scale(0.1 -0.1)">
       <use xlink:href="#DejaVuSans-50"/>
      </g>
     </g>
    </g>
    <g id="xtick_4">
     <g id="line2d_4">
      <g>
       <use style="stroke:#000000;stroke-width:0.8;" x="235.837591" xlink:href="#m42279c1055" y="173.223915"/>
      </g>
     </g>
     <g id="text_4">
      <!-- 3 -->
      <defs>
       <path d="M 40.578125 39.3125 
Q 47.65625 37.796875 51.625 33 
Q 55.609375 28.21875 55.609375 21.1875 
Q 55.609375 10.40625 48.1875 4.484375 
Q 40.765625 -1.421875 27.09375 -1.421875 
Q 22.515625 -1.421875 17.65625 -0.515625 
Q 12.796875 0.390625 7.625 2.203125 
L 7.625 11.71875 
Q 11.71875 9.328125 16.59375 8.109375 
Q 21.484375 6.890625 26.8125 6.890625 
Q 36.078125 6.890625 40.9375 10.546875 
Q 45.796875 14.203125 45.796875 21.1875 
Q 45.796875 27.640625 41.28125 31.265625 
Q 36.765625 34.90625 28.71875 34.90625 
L 20.21875 34.90625 
L 20.21875 43.015625 
L 29.109375 43.015625 
Q 36.375 43.015625 40.234375 45.921875 
Q 44.09375 48.828125 44.09375 54.296875 
Q 44.09375 59.90625 40.109375 62.90625 
Q 36.140625 65.921875 28.71875 65.921875 
Q 24.65625 65.921875 20.015625 65.03125 
Q 15.375 64.15625 9.8125 62.3125 
L 9.8125 71.09375 
Q 15.4375 72.65625 20.34375 73.4375 
Q 25.25 74.21875 29.59375 74.21875 
Q 40.828125 74.21875 47.359375 69.109375 
Q 53.90625 64.015625 53.90625 55.328125 
Q 53.90625 49.265625 50.4375 45.09375 
Q 46.96875 40.921875 40.578125 39.3125 
z
" id="DejaVuSans-51"/>
      </defs>
      <g transform="translate(232.656341 187.822353)scale(0.1 -0.1)">
       <use xlink:href="#DejaVuSans-51"/>
      </g>
     </g>
    </g>
    <g id="xtick_5">
     <g id="line2d_5">
      <g>
       <use style="stroke:#000000;stroke-width:0.8;" x="295.832849" xlink:href="#m42279c1055" y="173.223915"/>
      </g>
     </g>
     <g id="text_5">
      <!-- 4 -->
      <defs>
       <path d="M 37.796875 64.3125 
L 12.890625 25.390625 
L 37.796875 25.390625 
z
M 35.203125 72.90625 
L 47.609375 72.90625 
L 47.609375 25.390625 
L 58.015625 25.390625 
L 58.015625 17.1875 
L 47.609375 17.1875 
L 47.609375 0 
L 37.796875 0 
L 37.796875 17.1875 
L 4.890625 17.1875 
L 4.890625 26.703125 
z
" id="DejaVuSans-52"/>
      </defs>
      <g transform="translate(292.651599 187.822353)scale(0.1 -0.1)">
       <use xlink:href="#DejaVuSans-52"/>
      </g>
     </g>
    </g>
    <g id="text_6">
     <!-- log(RFU) -->
     <defs>
      <path d="M 9.421875 75.984375 
L 18.40625 75.984375 
L 18.40625 0 
L 9.421875 0 
z
" id="DejaVuSans-108"/>
      <path d="M 30.609375 48.390625 
Q 23.390625 48.390625 19.1875 42.75 
Q 14.984375 37.109375 14.984375 27.296875 
Q 14.984375 17.484375 19.15625 11.84375 
Q 23.34375 6.203125 30.609375 6.203125 
Q 37.796875 6.203125 41.984375 11.859375 
Q 46.1875 17.53125 46.1875 27.296875 
Q 46.1875 37.015625 41.984375 42.703125 
Q 37.796875 48.390625 30.609375 48.390625 
z
M 30.609375 56 
Q 42.328125 56 49.015625 48.375 
Q 55.71875 40.765625 55.71875 27.296875 
Q 55.71875 13.875 49.015625 6.21875 
Q 42.328125 -1.421875 30.609375 -1.421875 
Q 18.84375 -1.421875 12.171875 6.21875 
Q 5.515625 13.875 5.515625 27.296875 
Q 5.515625 40.765625 12.171875 48.375 
Q 18.84375 56 30.609375 56 
z
" id="DejaVuSans-111"/>
      <path d="M 45.40625 27.984375 
Q 45.40625 37.75 41.375 43.109375 
Q 37.359375 48.484375 30.078125 48.484375 
Q 22.859375 48.484375 18.828125 43.109375 
Q 14.796875 37.75 14.796875 27.984375 
Q 14.796875 18.265625 18.828125 12.890625 
Q 22.859375 7.515625 30.078125 7.515625 
Q 37.359375 7.515625 41.375 12.890625 
Q 45.40625 18.265625 45.40625 27.984375 
z
M 54.390625 6.78125 
Q 54.390625 -7.171875 48.1875 -13.984375 
Q 42 -20.796875 29.203125 -20.796875 
Q 24.46875 -20.796875 20.265625 -20.09375 
Q 16.0625 -19.390625 12.109375 -17.921875 
L 12.109375 -9.1875 
Q 16.0625 -11.328125 19.921875 -12.34375 
Q 23.78125 -13.375 27.78125 -13.375 
Q 36.625 -13.375 41.015625 -8.765625 
Q 45.40625 -4.15625 45.40625 5.171875 
L 45.40625 9.625 
Q 42.625 4.78125 38.28125 2.390625 
Q 33.9375 0 27.875 0 
Q 17.828125 0 11.671875 7.65625 
Q 5.515625 15.328125 5.515625 27.984375 
Q 5.515625 40.671875 11.671875 48.328125 
Q 17.828125 56 27.875 56 
Q 33.9375 56 38.28125 53.609375 
Q 42.625 51.21875 45.40625 46.390625 
L 45.40625 54.6875 
L 54.390625 54.6875 
z
" id="DejaVuSans-103"/>
      <path d="M 31 75.875 
Q 24.46875 64.65625 21.28125 53.65625 
Q 18.109375 42.671875 18.109375 31.390625 
Q 18.109375 20.125 21.3125 9.0625 
Q 24.515625 -2 31 -13.1875 
L 23.1875 -13.1875 
Q 15.875 -1.703125 12.234375 9.375 
Q 8.59375 20.453125 8.59375 31.390625 
Q 8.59375 42.28125 12.203125 53.3125 
Q 15.828125 64.359375 23.1875 75.875 
z
" id="DejaVuSans-40"/>
      <path d="M 44.390625 34.1875 
Q 47.5625 33.109375 50.5625 29.59375 
Q 53.5625 26.078125 56.59375 19.921875 
L 66.609375 0 
L 56 0 
L 46.6875 18.703125 
Q 43.0625 26.03125 39.671875 28.421875 
Q 36.28125 30.8125 30.421875 30.8125 
L 19.671875 30.8125 
L 19.671875 0 
L 9.8125 0 
L 9.8125 72.90625 
L 32.078125 72.90625 
Q 44.578125 72.90625 50.734375 67.671875 
Q 56.890625 62.453125 56.890625 51.90625 
Q 56.890625 45.015625 53.6875 40.46875 
Q 50.484375 35.9375 44.390625 34.1875 
z
M 19.671875 64.796875 
L 19.671875 38.921875 
L 32.078125 38.921875 
Q 39.203125 38.921875 42.84375 42.21875 
Q 46.484375 45.515625 46.484375 51.90625 
Q 46.484375 58.296875 42.84375 61.546875 
Q 39.203125 64.796875 32.078125 64.796875 
z
" id="DejaVuSans-82"/>
      <path d="M 9.8125 72.90625 
L 51.703125 72.90625 
L 51.703125 64.59375 
L 19.671875 64.59375 
L 19.671875 43.109375 
L 48.578125 43.109375 
L 48.578125 34.8125 
L 19.671875 34.8125 
L 19.671875 0 
L 9.8125 0 
z
" id="DejaVuSans-70"/>
      <path d="M 8.6875 72.90625 
L 18.609375 72.90625 
L 18.609375 28.609375 
Q 18.609375 16.890625 22.84375 11.734375 
Q 27.09375 6.59375 36.625 6.59375 
Q 46.09375 6.59375 50.34375 11.734375 
Q 54.59375 16.890625 54.59375 28.609375 
L 54.59375 72.90625 
L 64.5 72.90625 
L 64.5 27.390625 
Q 64.5 13.140625 57.4375 5.859375 
Q 50.390625 -1.421875 36.625 -1.421875 
Q 22.796875 -1.421875 15.734375 5.859375 
Q 8.6875 13.140625 8.6875 27.390625 
z
" id="DejaVuSans-85"/>
      <path d="M 8.015625 75.875 
L 15.828125 75.875 
Q 23.140625 64.359375 26.78125 53.3125 
Q 30.421875 42.28125 30.421875 31.390625 
Q 30.421875 20.453125 26.78125 9.375 
Q 23.140625 -1.703125 15.828125 -13.1875 
L 8.015625 -13.1875 
Q 14.5 -2 17.703125 9.0625 
Q 20.90625 20.125 20.90625 31.390625 
Q 20.90625 42.671875 17.703125 53.65625 
Q 14.5 64.65625 8.015625 75.875 
z
" id="DejaVuSans-41"/>
     </defs>
     <g transform="translate(165.177731 201.500478)scale(0.1 -0.1)">
      <use xlink:href="#DejaVuSans-108"/>
      <use x="27.783203" xlink:href="#DejaVuSans-111"/>
      <use x="88.964844" xlink:href="#DejaVuSans-103"/>
      <use x="152.441406" xlink:href="#DejaVuSans-40"/>
      <use x="191.455078" xlink:href="#DejaVuSans-82"/>
      <use x="260.9375" xlink:href="#DejaVuSans-70"/>
      <use x="318.457031" xlink:href="#DejaVuSans-85"/>
      <use x="391.650391" xlink:href="#DejaVuSans-41"/>
     </g>
    </g>
   </g>
   <g id="matplotlib.axis_2">
    <g id="ytick_1">
     <g id="line2d_6">
      <defs>
       <path d="M 0 0 
L -3.5 0 
" id="me86617de19" style="stroke:#000000;stroke-width:0.8;"/>
      </defs>
      <g>
       <use style="stroke:#000000;stroke-width:0.8;" x="42.765865" xlink:href="#me86617de19" y="173.223915"/>
      </g>
     </g>
     <g id="text_7">
      <!-- 0 -->
      <g transform="translate(29.403365 177.023134)scale(0.1 -0.1)">
       <use xlink:href="#DejaVuSans-48"/>
      </g>
     </g>
    </g>
    <g id="ytick_2">
     <g id="line2d_7">
      <g>
       <use style="stroke:#000000;stroke-width:0.8;" x="42.765865" xlink:href="#me86617de19" y="149.598046"/>
      </g>
     </g>
     <g id="text_8">
      <!-- 25 -->
      <defs>
       <path d="M 10.796875 72.90625 
L 49.515625 72.90625 
L 49.515625 64.59375 
L 19.828125 64.59375 
L 19.828125 46.734375 
Q 21.96875 47.46875 24.109375 47.828125 
Q 26.265625 48.1875 28.421875 48.1875 
Q 40.625 48.1875 47.75 41.5 
Q 54.890625 34.8125 54.890625 23.390625 
Q 54.890625 11.625 47.5625 5.09375 
Q 40.234375 -1.421875 26.90625 -1.421875 
Q 22.3125 -1.421875 17.546875 -0.640625 
Q 12.796875 0.140625 7.71875 1.703125 
L 7.71875 11.625 
Q 12.109375 9.234375 16.796875 8.0625 
Q 21.484375 6.890625 26.703125 6.890625 
Q 35.15625 6.890625 40.078125 11.328125 
Q 45.015625 15.765625 45.015625 23.390625 
Q 45.015625 31 40.078125 35.4375 
Q 35.15625 39.890625 26.703125 39.890625 
Q 22.75 39.890625 18.8125 39.015625 
Q 14.890625 38.140625 10.796875 36.28125 
z
" id="DejaVuSans-53"/>
      </defs>
      <g transform="translate(23.040865 153.397265)scale(0.1 -0.1)">
       <use xlink:href="#DejaVuSans-50"/>
       <use x="63.623047" xlink:href="#DejaVuSans-53"/>
      </g>
     </g>
    </g>
    <g id="ytick_3">
     <g id="line2d_8">
      <g>
       <use style="stroke:#000000;stroke-width:0.8;" x="42.765865" xlink:href="#me86617de19" y="125.972177"/>
      </g>
     </g>
     <g id="text_9">
      <!-- 50 -->
      <g transform="translate(23.040865 129.771396)scale(0.1 -0.1)">
       <use xlink:href="#DejaVuSans-53"/>
       <use x="63.623047" xlink:href="#DejaVuSans-48"/>
      </g>
     </g>
    </g>
    <g id="ytick_4">
     <g id="line2d_9">
      <g>
       <use style="stroke:#000000;stroke-width:0.8;" x="42.765865" xlink:href="#me86617de19" y="102.346308"/>
      </g>
     </g>
     <g id="text_10">
      <!-- 75 -->
      <defs>
       <path d="M 8.203125 72.90625 
L 55.078125 72.90625 
L 55.078125 68.703125 
L 28.609375 0 
L 18.3125 0 
L 43.21875 64.59375 
L 8.203125 64.59375 
z
" id="DejaVuSans-55"/>
      </defs>
      <g transform="translate(23.040865 106.145526)scale(0.1 -0.1)">
       <use xlink:href="#DejaVuSans-55"/>
       <use x="63.623047" xlink:href="#DejaVuSans-53"/>
      </g>
     </g>
    </g>
    <g id="ytick_5">
     <g id="line2d_10">
      <g>
       <use style="stroke:#000000;stroke-width:0.8;" x="42.765865" xlink:href="#me86617de19" y="78.720438"/>
      </g>
     </g>
     <g id="text_11">
      <!-- 100 -->
      <g transform="translate(16.678365 82.519657)scale(0.1 -0.1)">
       <use xlink:href="#DejaVuSans-49"/>
       <use x="63.623047" xlink:href="#DejaVuSans-48"/>
       <use x="127.246094" xlink:href="#DejaVuSans-48"/>
      </g>
     </g>
    </g>
    <g id="text_12">
     <!-- Counts -->
     <defs>
      <path d="M 64.40625 67.28125 
L 64.40625 56.890625 
Q 59.421875 61.53125 53.78125 63.8125 
Q 48.140625 66.109375 41.796875 66.109375 
Q 29.296875 66.109375 22.65625 58.46875 
Q 16.015625 50.828125 16.015625 36.375 
Q 16.015625 21.96875 22.65625 14.328125 
Q 29.296875 6.6875 41.796875 6.6875 
Q 48.140625 6.6875 53.78125 8.984375 
Q 59.421875 11.28125 64.40625 15.921875 
L 64.40625 5.609375 
Q 59.234375 2.09375 53.4375 0.328125 
Q 47.65625 -1.421875 41.21875 -1.421875 
Q 24.65625 -1.421875 15.125 8.703125 
Q 5.609375 18.84375 5.609375 36.375 
Q 5.609375 53.953125 15.125 64.078125 
Q 24.65625 74.21875 41.21875 74.21875 
Q 47.75 74.21875 53.53125 72.484375 
Q 59.328125 70.75 64.40625 67.28125 
z
" id="DejaVuSans-67"/>
      <path d="M 8.5 21.578125 
L 8.5 54.6875 
L 17.484375 54.6875 
L 17.484375 21.921875 
Q 17.484375 14.15625 20.5 10.265625 
Q 23.53125 6.390625 29.59375 6.390625 
Q 36.859375 6.390625 41.078125 11.03125 
Q 45.3125 15.671875 45.3125 23.6875 
L 45.3125 54.6875 
L 54.296875 54.6875 
L 54.296875 0 
L 45.3125 0 
L 45.3125 8.40625 
Q 42.046875 3.421875 37.71875 1 
Q 33.40625 -1.421875 27.6875 -1.421875 
Q 18.265625 -1.421875 13.375 4.4375 
Q 8.5 10.296875 8.5 21.578125 
z
M 31.109375 56 
z
" id="DejaVuSans-117"/>
      <path d="M 54.890625 33.015625 
L 54.890625 0 
L 45.90625 0 
L 45.90625 32.71875 
Q 45.90625 40.484375 42.875 44.328125 
Q 39.84375 48.1875 33.796875 48.1875 
Q 26.515625 48.1875 22.3125 43.546875 
Q 18.109375 38.921875 18.109375 30.90625 
L 18.109375 0 
L 9.078125 0 
L 9.078125 54.6875 
L 18.109375 54.6875 
L 18.109375 46.1875 
Q 21.34375 51.125 25.703125 53.5625 
Q 30.078125 56 35.796875 56 
Q 45.21875 56 50.046875 50.171875 
Q 54.890625 44.34375 54.890625 33.015625 
z
" id="DejaVuSans-110"/>
      <path d="M 18.3125 70.21875 
L 18.3125 54.6875 
L 36.8125 54.6875 
L 36.8125 47.703125 
L 18.3125 47.703125 
L 18.3125 18.015625 
Q 18.3125 11.328125 20.140625 9.421875 
Q 21.96875 7.515625 27.59375 7.515625 
L 36.8125 7.515625 
L 36.8125 0 
L 27.59375 0 
Q 17.1875 0 13.234375 3.875 
Q 9.28125 7.765625 9.28125 18.015625 
L 9.28125 47.703125 
L 2.6875 47.703125 
L 2.6875 54.6875 
L 9.28125 54.6875 
L 9.28125 70.21875 
z
" id="DejaVuSans-116"/>
      <path d="M 44.28125 53.078125 
L 44.28125 44.578125 
Q 40.484375 46.53125 36.375 47.5 
Q 32.28125 48.484375 27.875 48.484375 
Q 21.1875 48.484375 17.84375 46.4375 
Q 14.5 44.390625 14.5 40.28125 
Q 14.5 37.15625 16.890625 35.375 
Q 19.28125 33.59375 26.515625 31.984375 
L 29.59375 31.296875 
Q 39.15625 29.25 43.1875 25.515625 
Q 47.21875 21.78125 47.21875 15.09375 
Q 47.21875 7.46875 41.1875 3.015625 
Q 35.15625 -1.421875 24.609375 -1.421875 
Q 20.21875 -1.421875 15.453125 -0.5625 
Q 10.6875 0.296875 5.421875 2 
L 5.421875 11.28125 
Q 10.40625 8.6875 15.234375 7.390625 
Q 20.0625 6.109375 24.8125 6.109375 
Q 31.15625 6.109375 34.5625 8.28125 
Q 37.984375 10.453125 37.984375 14.40625 
Q 37.984375 18.0625 35.515625 20.015625 
Q 33.0625 21.96875 24.703125 23.78125 
L 21.578125 24.515625 
Q 13.234375 26.265625 9.515625 29.90625 
Q 5.8125 33.546875 5.8125 39.890625 
Q 5.8125 47.609375 11.28125 51.796875 
Q 16.75 56 26.8125 56 
Q 31.78125 56 36.171875 55.265625 
Q 40.578125 54.546875 44.28125 53.078125 
z
" id="DejaVuSans-115"/>
     </defs>
     <g transform="translate(10.598678 136.597426)rotate(-90)scale(0.1 -0.1)">
      <use xlink:href="#DejaVuSans-67"/>
      <use x="69.824219" xlink:href="#DejaVuSans-111"/>
      <use x="131.005859" xlink:href="#DejaVuSans-117"/>
      <use x="194.384766" xlink:href="#DejaVuSans-110"/>
      <use x="257.763672" xlink:href="#DejaVuSans-116"/>
      <use x="296.972656" xlink:href="#DejaVuSans-115"/>
     </g>
    </g>
   </g>
   <g id="patch_91">
    <path d="M 42.765865 173.223915 
L 42.765865 65.064686 
" style="fill:none;stroke:#000000;stroke-linecap:square;stroke-linejoin:miter;stroke-width:0.8;"/>
   </g>
   <g id="patch_92">
    <path d="M 330.656785 173.223915 
L 330.656785 65.064686 
" style="fill:none;stroke:#000000;stroke-linecap:square;stroke-linejoin:miter;stroke-width:0.8;"/>
   </g>
   <g id="patch_93">
    <path d="M 42.765865 173.223915 
L 330.656785 173.223915 
" style="fill:none;stroke:#000000;stroke-linecap:square;stroke-linejoin:miter;stroke-width:0.8;"/>
   </g>
   <g id="patch_94">
    <path d="M 42.765865 65.064686 
L 330.656785 65.064686 
" style="fill:none;stroke:#000000;stroke-linecap:square;stroke-linejoin:miter;stroke-width:0.8;"/>
   </g>
  </g>
  <g id="axes_2">
   <g id="patch_95">
    <path d="M 42.765865 267.107885 
L 231.924985 267.107885 
L 231.924985 213.02827 
L 42.765865 213.02827 
z
" style="fill:#ffffff;"/>
   </g>
   <g id="patch_96">
    <path clip-path="url(#p5d4c31ace5)" d="M 42.765865 264.649721 
L 222.917408 264.649721 
L 222.917408 215.486435 
L 42.765865 215.486435 
z
" style="fill:#1f77b4;"/>
   </g>
   <g id="matplotlib.axis_3">
    <g id="xtick_6">
     <g id="line2d_11">
      <g>
       <use style="stroke:#000000;stroke-width:0.8;" x="42.765865" xlink:href="#m42279c1055" y="267.107885"/>
      </g>
     </g>
     <g id="text_13">
      <!-- 0 -->
      <g transform="translate(39.584615 281.706322)scale(0.1 -0.1)">
       <use xlink:href="#DejaVuSans-48"/>
      </g>
     </g>
    </g>
    <g id="xtick_7">
     <g id="line2d_12">
      <g>
       <use style="stroke:#000000;stroke-width:0.8;" x="102.977747" xlink:href="#m42279c1055" y="267.107885"/>
      </g>
     </g>
     <g id="text_14">
      <!-- 2 -->
      <g transform="translate(99.796497 281.706322)scale(0.1 -0.1)">
       <use xlink:href="#DejaVuSans-50"/>
      </g>
     </g>
    </g>
    <g id="xtick_8">
     <g id="line2d_13">
      <g>
       <use style="stroke:#000000;stroke-width:0.8;" x="163.189629" xlink:href="#m42279c1055" y="267.107885"/>
      </g>
     </g>
     <g id="text_15">
      <!-- 4 -->
      <g transform="translate(160.008379 281.706322)scale(0.1 -0.1)">
       <use xlink:href="#DejaVuSans-52"/>
      </g>
     </g>
    </g>
    <g id="xtick_9">
     <g id="line2d_14">
      <g>
       <use style="stroke:#000000;stroke-width:0.8;" x="223.401511" xlink:href="#m42279c1055" y="267.107885"/>
      </g>
     </g>
     <g id="text_16">
      <!-- 6 -->
      <defs>
       <path d="M 33.015625 40.375 
Q 26.375 40.375 22.484375 35.828125 
Q 18.609375 31.296875 18.609375 23.390625 
Q 18.609375 15.53125 22.484375 10.953125 
Q 26.375 6.390625 33.015625 6.390625 
Q 39.65625 6.390625 43.53125 10.953125 
Q 47.40625 15.53125 47.40625 23.390625 
Q 47.40625 31.296875 43.53125 35.828125 
Q 39.65625 40.375 33.015625 40.375 
z
M 52.59375 71.296875 
L 52.59375 62.3125 
Q 48.875 64.0625 45.09375 64.984375 
Q 41.3125 65.921875 37.59375 65.921875 
Q 27.828125 65.921875 22.671875 59.328125 
Q 17.53125 52.734375 16.796875 39.40625 
Q 19.671875 43.65625 24.015625 45.921875 
Q 28.375 48.1875 33.59375 48.1875 
Q 44.578125 48.1875 50.953125 41.515625 
Q 57.328125 34.859375 57.328125 23.390625 
Q 57.328125 12.15625 50.6875 5.359375 
Q 44.046875 -1.421875 33.015625 -1.421875 
Q 20.359375 -1.421875 13.671875 8.265625 
Q 6.984375 17.96875 6.984375 36.375 
Q 6.984375 53.65625 15.1875 63.9375 
Q 23.390625 74.21875 37.203125 74.21875 
Q 40.921875 74.21875 44.703125 73.484375 
Q 48.484375 72.75 52.59375 71.296875 
z
" id="DejaVuSans-54"/>
      </defs>
      <g transform="translate(220.220261 281.706322)scale(0.1 -0.1)">
       <use xlink:href="#DejaVuSans-54"/>
      </g>
     </g>
    </g>
    <g id="text_17">
     <!-- Model Coefficient -->
     <defs>
      <path d="M 9.8125 72.90625 
L 24.515625 72.90625 
L 43.109375 23.296875 
L 61.8125 72.90625 
L 76.515625 72.90625 
L 76.515625 0 
L 66.890625 0 
L 66.890625 64.015625 
L 48.09375 14.015625 
L 38.1875 14.015625 
L 19.390625 64.015625 
L 19.390625 0 
L 9.8125 0 
z
" id="DejaVuSans-77"/>
      <path d="M 45.40625 46.390625 
L 45.40625 75.984375 
L 54.390625 75.984375 
L 54.390625 0 
L 45.40625 0 
L 45.40625 8.203125 
Q 42.578125 3.328125 38.25 0.953125 
Q 33.9375 -1.421875 27.875 -1.421875 
Q 17.96875 -1.421875 11.734375 6.484375 
Q 5.515625 14.40625 5.515625 27.296875 
Q 5.515625 40.1875 11.734375 48.09375 
Q 17.96875 56 27.875 56 
Q 33.9375 56 38.25 53.625 
Q 42.578125 51.265625 45.40625 46.390625 
z
M 14.796875 27.296875 
Q 14.796875 17.390625 18.875 11.75 
Q 22.953125 6.109375 30.078125 6.109375 
Q 37.203125 6.109375 41.296875 11.75 
Q 45.40625 17.390625 45.40625 27.296875 
Q 45.40625 37.203125 41.296875 42.84375 
Q 37.203125 48.484375 30.078125 48.484375 
Q 22.953125 48.484375 18.875 42.84375 
Q 14.796875 37.203125 14.796875 27.296875 
z
" id="DejaVuSans-100"/>
      <path d="M 56.203125 29.59375 
L 56.203125 25.203125 
L 14.890625 25.203125 
Q 15.484375 15.921875 20.484375 11.0625 
Q 25.484375 6.203125 34.421875 6.203125 
Q 39.59375 6.203125 44.453125 7.46875 
Q 49.3125 8.734375 54.109375 11.28125 
L 54.109375 2.78125 
Q 49.265625 0.734375 44.1875 -0.34375 
Q 39.109375 -1.421875 33.890625 -1.421875 
Q 20.796875 -1.421875 13.15625 6.1875 
Q 5.515625 13.8125 5.515625 26.8125 
Q 5.515625 40.234375 12.765625 48.109375 
Q 20.015625 56 32.328125 56 
Q 43.359375 56 49.78125 48.890625 
Q 56.203125 41.796875 56.203125 29.59375 
z
M 47.21875 32.234375 
Q 47.125 39.59375 43.09375 43.984375 
Q 39.0625 48.390625 32.421875 48.390625 
Q 24.90625 48.390625 20.390625 44.140625 
Q 15.875 39.890625 15.1875 32.171875 
z
" id="DejaVuSans-101"/>
      <path id="DejaVuSans-32"/>
      <path d="M 37.109375 75.984375 
L 37.109375 68.5 
L 28.515625 68.5 
Q 23.6875 68.5 21.796875 66.546875 
Q 19.921875 64.59375 19.921875 59.515625 
L 19.921875 54.6875 
L 34.71875 54.6875 
L 34.71875 47.703125 
L 19.921875 47.703125 
L 19.921875 0 
L 10.890625 0 
L 10.890625 47.703125 
L 2.296875 47.703125 
L 2.296875 54.6875 
L 10.890625 54.6875 
L 10.890625 58.5 
Q 10.890625 67.625 15.140625 71.796875 
Q 19.390625 75.984375 28.609375 75.984375 
z
" id="DejaVuSans-102"/>
      <path d="M 9.421875 54.6875 
L 18.40625 54.6875 
L 18.40625 0 
L 9.421875 0 
z
M 9.421875 75.984375 
L 18.40625 75.984375 
L 18.40625 64.59375 
L 9.421875 64.59375 
z
" id="DejaVuSans-105"/>
      <path d="M 48.78125 52.59375 
L 48.78125 44.1875 
Q 44.96875 46.296875 41.140625 47.34375 
Q 37.3125 48.390625 33.40625 48.390625 
Q 24.65625 48.390625 19.8125 42.84375 
Q 14.984375 37.3125 14.984375 27.296875 
Q 14.984375 17.28125 19.8125 11.734375 
Q 24.65625 6.203125 33.40625 6.203125 
Q 37.3125 6.203125 41.140625 7.25 
Q 44.96875 8.296875 48.78125 10.40625 
L 48.78125 2.09375 
Q 45.015625 0.34375 40.984375 -0.53125 
Q 36.96875 -1.421875 32.421875 -1.421875 
Q 20.0625 -1.421875 12.78125 6.34375 
Q 5.515625 14.109375 5.515625 27.296875 
Q 5.515625 40.671875 12.859375 48.328125 
Q 20.21875 56 33.015625 56 
Q 37.15625 56 41.109375 55.140625 
Q 45.0625 54.296875 48.78125 52.59375 
z
" id="DejaVuSans-99"/>
     </defs>
     <g transform="translate(85.16605 296.904135)scale(0.12 -0.12)">
      <use xlink:href="#DejaVuSans-77"/>
      <use x="86.279297" xlink:href="#DejaVuSans-111"/>
      <use x="147.460938" xlink:href="#DejaVuSans-100"/>
      <use x="210.9375" xlink:href="#DejaVuSans-101"/>
      <use x="272.460938" xlink:href="#DejaVuSans-108"/>
      <use x="300.244141" xlink:href="#DejaVuSans-32"/>
      <use x="332.03125" xlink:href="#DejaVuSans-67"/>
      <use x="401.855469" xlink:href="#DejaVuSans-111"/>
      <use x="463.037109" xlink:href="#DejaVuSans-101"/>
      <use x="524.560547" xlink:href="#DejaVuSans-102"/>
      <use x="559.765625" xlink:href="#DejaVuSans-102"/>
      <use x="594.970703" xlink:href="#DejaVuSans-105"/>
      <use x="622.753906" xlink:href="#DejaVuSans-99"/>
      <use x="677.734375" xlink:href="#DejaVuSans-105"/>
      <use x="705.517578" xlink:href="#DejaVuSans-101"/>
      <use x="767.041016" xlink:href="#DejaVuSans-110"/>
      <use x="830.419922" xlink:href="#DejaVuSans-116"/>
     </g>
    </g>
   </g>
   <g id="matplotlib.axis_4">
    <g id="ytick_6"/>
    <g id="ytick_7"/>
    <g id="ytick_8"/>
    <g id="text_18">
     <!-- Motif -->
     <g transform="translate(29.27024 255.047453)rotate(-90)scale(0.12 -0.12)">
      <use xlink:href="#DejaVuSans-77"/>
      <use x="86.279297" xlink:href="#DejaVuSans-111"/>
      <use x="147.460938" xlink:href="#DejaVuSans-116"/>
      <use x="186.669922" xlink:href="#DejaVuSans-105"/>
      <use x="214.453125" xlink:href="#DejaVuSans-102"/>
     </g>
    </g>
   </g>
   <g id="patch_97">
    <path d="M 42.765865 267.107885 
L 42.765865 213.02827 
" style="fill:none;stroke:#000000;stroke-linecap:square;stroke-linejoin:miter;stroke-width:0.8;"/>
   </g>
   <g id="patch_98">
    <path d="M 231.924985 267.107885 
L 231.924985 213.02827 
" style="fill:none;stroke:#000000;stroke-linecap:square;stroke-linejoin:miter;stroke-width:0.8;"/>
   </g>
   <g id="patch_99">
    <path d="M 42.765865 267.107885 
L 231.924985 267.107885 
" style="fill:none;stroke:#000000;stroke-linecap:square;stroke-linejoin:miter;stroke-width:0.8;"/>
   </g>
   <g id="patch_100">
    <path d="M 42.765865 213.02827 
L 231.924985 213.02827 
" style="fill:none;stroke:#000000;stroke-linecap:square;stroke-linejoin:miter;stroke-width:0.8;"/>
   </g>
  </g>
  <g id="axes_3"/>
  <g id="axes_4">
   <g id="patch_101">
    <path d="M 383.84064 173.223915 
L 572.99976 173.223915 
L 572.99976 65.064686 
L 383.84064 65.064686 
z
" style="fill:#ffffff;"/>
   </g>
   <g id="matplotlib.axis_5">
    <g id="xtick_10">
     <g id="line2d_15">
      <g>
       <use style="stroke:#000000;stroke-width:0.8;" x="392.438782" xlink:href="#m42279c1055" y="173.223915"/>
      </g>
     </g>
     <g id="text_19">
      <!-- 0.0 -->
      <defs>
       <path d="M 10.6875 12.40625 
L 21 12.40625 
L 21 0 
L 10.6875 0 
z
" id="DejaVuSans-46"/>
      </defs>
      <g transform="translate(384.487219 187.822353)scale(0.1 -0.1)">
       <use xlink:href="#DejaVuSans-48"/>
       <use x="63.623047" xlink:href="#DejaVuSans-46"/>
       <use x="95.410156" xlink:href="#DejaVuSans-48"/>
      </g>
     </g>
    </g>
    <g id="xtick_11">
     <g id="line2d_16">
      <g>
       <use style="stroke:#000000;stroke-width:0.8;" x="426.831349" xlink:href="#m42279c1055" y="173.223915"/>
      </g>
     </g>
     <g id="text_20">
      <!-- 0.2 -->
      <g transform="translate(418.879787 187.822353)scale(0.1 -0.1)">
       <use xlink:href="#DejaVuSans-48"/>
       <use x="63.623047" xlink:href="#DejaVuSans-46"/>
       <use x="95.410156" xlink:href="#DejaVuSans-50"/>
      </g>
     </g>
    </g>
    <g id="xtick_12">
     <g id="line2d_17">
      <g>
       <use style="stroke:#000000;stroke-width:0.8;" x="461.223916" xlink:href="#m42279c1055" y="173.223915"/>
      </g>
     </g>
     <g id="text_21">
      <!-- 0.4 -->
      <g transform="translate(453.272354 187.822353)scale(0.1 -0.1)">
       <use xlink:href="#DejaVuSans-48"/>
       <use x="63.623047" xlink:href="#DejaVuSans-46"/>
       <use x="95.410156" xlink:href="#DejaVuSans-52"/>
      </g>
     </g>
    </g>
    <g id="xtick_13">
     <g id="line2d_18">
      <g>
       <use style="stroke:#000000;stroke-width:0.8;" x="495.616484" xlink:href="#m42279c1055" y="173.223915"/>
      </g>
     </g>
     <g id="text_22">
      <!-- 0.6 -->
      <g transform="translate(487.664921 187.822353)scale(0.1 -0.1)">
       <use xlink:href="#DejaVuSans-48"/>
       <use x="63.623047" xlink:href="#DejaVuSans-46"/>
       <use x="95.410156" xlink:href="#DejaVuSans-54"/>
      </g>
     </g>
    </g>
    <g id="xtick_14">
     <g id="line2d_19">
      <g>
       <use style="stroke:#000000;stroke-width:0.8;" x="530.009051" xlink:href="#m42279c1055" y="173.223915"/>
      </g>
     </g>
     <g id="text_23">
      <!-- 0.8 -->
      <defs>
       <path d="M 31.78125 34.625 
Q 24.75 34.625 20.71875 30.859375 
Q 16.703125 27.09375 16.703125 20.515625 
Q 16.703125 13.921875 20.71875 10.15625 
Q 24.75 6.390625 31.78125 6.390625 
Q 38.8125 6.390625 42.859375 10.171875 
Q 46.921875 13.96875 46.921875 20.515625 
Q 46.921875 27.09375 42.890625 30.859375 
Q 38.875 34.625 31.78125 34.625 
z
M 21.921875 38.8125 
Q 15.578125 40.375 12.03125 44.71875 
Q 8.5 49.078125 8.5 55.328125 
Q 8.5 64.0625 14.71875 69.140625 
Q 20.953125 74.21875 31.78125 74.21875 
Q 42.671875 74.21875 48.875 69.140625 
Q 55.078125 64.0625 55.078125 55.328125 
Q 55.078125 49.078125 51.53125 44.71875 
Q 48 40.375 41.703125 38.8125 
Q 48.828125 37.15625 52.796875 32.3125 
Q 56.78125 27.484375 56.78125 20.515625 
Q 56.78125 9.90625 50.3125 4.234375 
Q 43.84375 -1.421875 31.78125 -1.421875 
Q 19.734375 -1.421875 13.25 4.234375 
Q 6.78125 9.90625 6.78125 20.515625 
Q 6.78125 27.484375 10.78125 32.3125 
Q 14.796875 37.15625 21.921875 38.8125 
z
M 18.3125 54.390625 
Q 18.3125 48.734375 21.84375 45.5625 
Q 25.390625 42.390625 31.78125 42.390625 
Q 38.140625 42.390625 41.71875 45.5625 
Q 45.3125 48.734375 45.3125 54.390625 
Q 45.3125 60.0625 41.71875 63.234375 
Q 38.140625 66.40625 31.78125 66.40625 
Q 25.390625 66.40625 21.84375 63.234375 
Q 18.3125 60.0625 18.3125 54.390625 
z
" id="DejaVuSans-56"/>
      </defs>
      <g transform="translate(522.057488 187.822353)scale(0.1 -0.1)">
       <use xlink:href="#DejaVuSans-48"/>
       <use x="63.623047" xlink:href="#DejaVuSans-46"/>
       <use x="95.410156" xlink:href="#DejaVuSans-56"/>
      </g>
     </g>
    </g>
    <g id="xtick_15">
     <g id="line2d_20">
      <g>
       <use style="stroke:#000000;stroke-width:0.8;" x="564.401618" xlink:href="#m42279c1055" y="173.223915"/>
      </g>
     </g>
     <g id="text_24">
      <!-- 1.0 -->
      <g transform="translate(556.450056 187.822353)scale(0.1 -0.1)">
       <use xlink:href="#DejaVuSans-49"/>
       <use x="63.623047" xlink:href="#DejaVuSans-46"/>
       <use x="95.410156" xlink:href="#DejaVuSans-48"/>
      </g>
     </g>
    </g>
    <g id="text_25">
     <!-- False Positive Rate -->
     <defs>
      <path d="M 34.28125 27.484375 
Q 23.390625 27.484375 19.1875 25 
Q 14.984375 22.515625 14.984375 16.5 
Q 14.984375 11.71875 18.140625 8.90625 
Q 21.296875 6.109375 26.703125 6.109375 
Q 34.1875 6.109375 38.703125 11.40625 
Q 43.21875 16.703125 43.21875 25.484375 
L 43.21875 27.484375 
z
M 52.203125 31.203125 
L 52.203125 0 
L 43.21875 0 
L 43.21875 8.296875 
Q 40.140625 3.328125 35.546875 0.953125 
Q 30.953125 -1.421875 24.3125 -1.421875 
Q 15.921875 -1.421875 10.953125 3.296875 
Q 6 8.015625 6 15.921875 
Q 6 25.140625 12.171875 29.828125 
Q 18.359375 34.515625 30.609375 34.515625 
L 43.21875 34.515625 
L 43.21875 35.40625 
Q 43.21875 41.609375 39.140625 45 
Q 35.0625 48.390625 27.6875 48.390625 
Q 23 48.390625 18.546875 47.265625 
Q 14.109375 46.140625 10.015625 43.890625 
L 10.015625 52.203125 
Q 14.9375 54.109375 19.578125 55.046875 
Q 24.21875 56 28.609375 56 
Q 40.484375 56 46.34375 49.84375 
Q 52.203125 43.703125 52.203125 31.203125 
z
" id="DejaVuSans-97"/>
      <path d="M 19.671875 64.796875 
L 19.671875 37.40625 
L 32.078125 37.40625 
Q 38.96875 37.40625 42.71875 40.96875 
Q 46.484375 44.53125 46.484375 51.125 
Q 46.484375 57.671875 42.71875 61.234375 
Q 38.96875 64.796875 32.078125 64.796875 
z
M 9.8125 72.90625 
L 32.078125 72.90625 
Q 44.34375 72.90625 50.609375 67.359375 
Q 56.890625 61.8125 56.890625 51.125 
Q 56.890625 40.328125 50.609375 34.8125 
Q 44.34375 29.296875 32.078125 29.296875 
L 19.671875 29.296875 
L 19.671875 0 
L 9.8125 0 
z
" id="DejaVuSans-80"/>
      <path d="M 2.984375 54.6875 
L 12.5 54.6875 
L 29.59375 8.796875 
L 46.6875 54.6875 
L 56.203125 54.6875 
L 35.6875 0 
L 23.484375 0 
z
" id="DejaVuSans-118"/>
     </defs>
     <g transform="translate(421.773638 203.020165)scale(0.12 -0.12)">
      <use xlink:href="#DejaVuSans-70"/>
      <use x="57.378906" xlink:href="#DejaVuSans-97"/>
      <use x="118.658203" xlink:href="#DejaVuSans-108"/>
      <use x="146.441406" xlink:href="#DejaVuSans-115"/>
      <use x="198.541016" xlink:href="#DejaVuSans-101"/>
      <use x="260.064453" xlink:href="#DejaVuSans-32"/>
      <use x="291.851562" xlink:href="#DejaVuSans-80"/>
      <use x="352.107422" xlink:href="#DejaVuSans-111"/>
      <use x="413.289062" xlink:href="#DejaVuSans-115"/>
      <use x="465.388672" xlink:href="#DejaVuSans-105"/>
      <use x="493.171875" xlink:href="#DejaVuSans-116"/>
      <use x="532.380859" xlink:href="#DejaVuSans-105"/>
      <use x="560.164062" xlink:href="#DejaVuSans-118"/>
      <use x="619.34375" xlink:href="#DejaVuSans-101"/>
      <use x="680.867188" xlink:href="#DejaVuSans-32"/>
      <use x="712.654297" xlink:href="#DejaVuSans-82"/>
      <use x="782.105469" xlink:href="#DejaVuSans-97"/>
      <use x="843.384766" xlink:href="#DejaVuSans-116"/>
      <use x="882.59375" xlink:href="#DejaVuSans-101"/>
     </g>
    </g>
   </g>
   <g id="matplotlib.axis_6">
    <g id="ytick_9">
     <g id="line2d_21">
      <g>
       <use style="stroke:#000000;stroke-width:0.8;" x="383.84064" xlink:href="#me86617de19" y="168.307587"/>
      </g>
     </g>
     <g id="text_26">
      <!-- 0.00 -->
      <g transform="translate(354.575015 172.106805)scale(0.1 -0.1)">
       <use xlink:href="#DejaVuSans-48"/>
       <use x="63.623047" xlink:href="#DejaVuSans-46"/>
       <use x="95.410156" xlink:href="#DejaVuSans-48"/>
       <use x="159.033203" xlink:href="#DejaVuSans-48"/>
      </g>
     </g>
    </g>
    <g id="ytick_10">
     <g id="line2d_22">
      <g>
       <use style="stroke:#000000;stroke-width:0.8;" x="383.84064" xlink:href="#me86617de19" y="143.725944"/>
      </g>
     </g>
     <g id="text_27">
      <!-- 0.25 -->
      <g transform="translate(354.575015 147.525162)scale(0.1 -0.1)">
       <use xlink:href="#DejaVuSans-48"/>
       <use x="63.623047" xlink:href="#DejaVuSans-46"/>
       <use x="95.410156" xlink:href="#DejaVuSans-50"/>
       <use x="159.033203" xlink:href="#DejaVuSans-53"/>
      </g>
     </g>
    </g>
    <g id="ytick_11">
     <g id="line2d_23">
      <g>
       <use style="stroke:#000000;stroke-width:0.8;" x="383.84064" xlink:href="#me86617de19" y="119.144301"/>
      </g>
     </g>
     <g id="text_28">
      <!-- 0.50 -->
      <g transform="translate(354.575015 122.943519)scale(0.1 -0.1)">
       <use xlink:href="#DejaVuSans-48"/>
       <use x="63.623047" xlink:href="#DejaVuSans-46"/>
       <use x="95.410156" xlink:href="#DejaVuSans-53"/>
       <use x="159.033203" xlink:href="#DejaVuSans-48"/>
      </g>
     </g>
    </g>
    <g id="ytick_12">
     <g id="line2d_24">
      <g>
       <use style="stroke:#000000;stroke-width:0.8;" x="383.84064" xlink:href="#me86617de19" y="94.562658"/>
      </g>
     </g>
     <g id="text_29">
      <!-- 0.75 -->
      <g transform="translate(354.575015 98.361876)scale(0.1 -0.1)">
       <use xlink:href="#DejaVuSans-48"/>
       <use x="63.623047" xlink:href="#DejaVuSans-46"/>
       <use x="95.410156" xlink:href="#DejaVuSans-55"/>
       <use x="159.033203" xlink:href="#DejaVuSans-53"/>
      </g>
     </g>
    </g>
    <g id="ytick_13">
     <g id="line2d_25">
      <g>
       <use style="stroke:#000000;stroke-width:0.8;" x="383.84064" xlink:href="#me86617de19" y="69.981014"/>
      </g>
     </g>
     <g id="text_30">
      <!-- 1.00 -->
      <g transform="translate(354.575015 73.780233)scale(0.1 -0.1)">
       <use xlink:href="#DejaVuSans-49"/>
       <use x="63.623047" xlink:href="#DejaVuSans-46"/>
       <use x="95.410156" xlink:href="#DejaVuSans-48"/>
       <use x="159.033203" xlink:href="#DejaVuSans-48"/>
      </g>
     </g>
    </g>
    <g id="text_31">
     <!-- True Positive Rate -->
     <defs>
      <path d="M -0.296875 72.90625 
L 61.375 72.90625 
L 61.375 64.59375 
L 35.5 64.59375 
L 35.5 0 
L 25.59375 0 
L 25.59375 64.59375 
L -0.296875 64.59375 
z
" id="DejaVuSans-84"/>
      <path d="M 41.109375 46.296875 
Q 39.59375 47.171875 37.8125 47.578125 
Q 36.03125 48 33.890625 48 
Q 26.265625 48 22.1875 43.046875 
Q 18.109375 38.09375 18.109375 28.8125 
L 18.109375 0 
L 9.078125 0 
L 9.078125 54.6875 
L 18.109375 54.6875 
L 18.109375 46.1875 
Q 20.953125 51.171875 25.484375 53.578125 
Q 30.03125 56 36.53125 56 
Q 37.453125 56 38.578125 55.875 
Q 39.703125 55.765625 41.0625 55.515625 
z
" id="DejaVuSans-114"/>
     </defs>
     <g transform="translate(348.07939 173.799613)rotate(-90)scale(0.12 -0.12)">
      <use xlink:href="#DejaVuSans-84"/>
      <use x="60.865234" xlink:href="#DejaVuSans-114"/>
      <use x="101.978516" xlink:href="#DejaVuSans-117"/>
      <use x="165.357422" xlink:href="#DejaVuSans-101"/>
      <use x="226.880859" xlink:href="#DejaVuSans-32"/>
      <use x="258.667969" xlink:href="#DejaVuSans-80"/>
      <use x="318.923828" xlink:href="#DejaVuSans-111"/>
      <use x="380.105469" xlink:href="#DejaVuSans-115"/>
      <use x="432.205078" xlink:href="#DejaVuSans-105"/>
      <use x="459.988281" xlink:href="#DejaVuSans-116"/>
      <use x="499.197266" xlink:href="#DejaVuSans-105"/>
      <use x="526.980469" xlink:href="#DejaVuSans-118"/>
      <use x="586.160156" xlink:href="#DejaVuSans-101"/>
      <use x="647.683594" xlink:href="#DejaVuSans-32"/>
      <use x="679.470703" xlink:href="#DejaVuSans-82"/>
      <use x="748.921875" xlink:href="#DejaVuSans-97"/>
      <use x="810.201172" xlink:href="#DejaVuSans-116"/>
      <use x="849.410156" xlink:href="#DejaVuSans-101"/>
     </g>
    </g>
   </g>
   <g id="line2d_26">
    <path clip-path="url(#pe25a6b173f)" d="M 392.438782 168.307587 
L 392.438782 132.082007 
L 564.401618 69.981014 
" style="fill:none;stroke:#0073b2;stroke-linecap:square;stroke-width:1.5;"/>
   </g>
   <g id="line2d_27">
    <path clip-path="url(#pe25a6b173f)" d="M 392.438782 168.307587 
L 392.904806 114.831732 
L 564.401618 69.981014 
" style="fill:none;stroke:#cc6600;stroke-linecap:square;stroke-width:1.5;"/>
   </g>
   <g id="line2d_28">
    <path clip-path="url(#pe25a6b173f)" d="M 392.438782 168.307587 
L 564.401618 69.981014 
" style="fill:none;stroke:#808080;stroke-dasharray:4,8;stroke-dashoffset:0;stroke-width:0.8;"/>
   </g>
   <g id="patch_102">
    <path d="M 383.84064 173.223915 
L 383.84064 65.064686 
" style="fill:none;stroke:#000000;stroke-linecap:square;stroke-linejoin:miter;stroke-width:0.8;"/>
   </g>
   <g id="patch_103">
    <path d="M 572.99976 173.223915 
L 572.99976 65.064686 
" style="fill:none;stroke:#000000;stroke-linecap:square;stroke-linejoin:miter;stroke-width:0.8;"/>
   </g>
   <g id="patch_104">
    <path d="M 383.84064 173.223915 
L 572.99976 173.223915 
" style="fill:none;stroke:#000000;stroke-linecap:square;stroke-linejoin:miter;stroke-width:0.8;"/>
   </g>
   <g id="patch_105">
    <path d="M 383.84064 65.064686 
L 572.99976 65.064686 
" style="fill:none;stroke:#000000;stroke-linecap:square;stroke-linejoin:miter;stroke-width:0.8;"/>
   </g>
   <g id="legend_1">
    <g id="patch_106">
     <path d="M 436.784135 168.223915 
L 565.99976 168.223915 
Q 567.99976 168.223915 567.99976 166.223915 
L 567.99976 137.867665 
Q 567.99976 135.867665 565.99976 135.867665 
L 436.784135 135.867665 
Q 434.784135 135.867665 434.784135 137.867665 
L 434.784135 166.223915 
Q 434.784135 168.223915 436.784135 168.223915 
z
" style="fill:#ffffff;opacity:0.8;stroke:#cccccc;stroke-linejoin:miter;"/>
    </g>
    <g id="line2d_29">
     <path d="M 438.784135 143.966103 
L 458.784135 143.966103 
" style="fill:none;stroke:#0073b2;stroke-linecap:square;stroke-width:1.5;"/>
    </g>
    <g id="line2d_30"/>
    <g id="text_32">
     <!-- Test, AUC: 0.68 -->
     <defs>
      <path d="M 11.71875 12.40625 
L 22.015625 12.40625 
L 22.015625 4 
L 14.015625 -11.625 
L 7.71875 -11.625 
L 11.71875 4 
z
" id="DejaVuSans-44"/>
      <path d="M 34.1875 63.1875 
L 20.796875 26.90625 
L 47.609375 26.90625 
z
M 28.609375 72.90625 
L 39.796875 72.90625 
L 67.578125 0 
L 57.328125 0 
L 50.6875 18.703125 
L 17.828125 18.703125 
L 11.1875 0 
L 0.78125 0 
z
" id="DejaVuSans-65"/>
      <path d="M 11.71875 12.40625 
L 22.015625 12.40625 
L 22.015625 0 
L 11.71875 0 
z
M 11.71875 51.703125 
L 22.015625 51.703125 
L 22.015625 39.3125 
L 11.71875 39.3125 
z
" id="DejaVuSans-58"/>
     </defs>
     <g transform="translate(466.784135 147.466103)scale(0.1 -0.1)">
      <use xlink:href="#DejaVuSans-84"/>
      <use x="60.818359" xlink:href="#DejaVuSans-101"/>
      <use x="122.341797" xlink:href="#DejaVuSans-115"/>
      <use x="174.441406" xlink:href="#DejaVuSans-116"/>
      <use x="213.650391" xlink:href="#DejaVuSans-44"/>
      <use x="245.4375" xlink:href="#DejaVuSans-32"/>
      <use x="277.224609" xlink:href="#DejaVuSans-65"/>
      <use x="345.632812" xlink:href="#DejaVuSans-85"/>
      <use x="418.826172" xlink:href="#DejaVuSans-67"/>
      <use x="488.650391" xlink:href="#DejaVuSans-58"/>
      <use x="522.341797" xlink:href="#DejaVuSans-32"/>
      <use x="554.128906" xlink:href="#DejaVuSans-48"/>
      <use x="617.751953" xlink:href="#DejaVuSans-46"/>
      <use x="649.539062" xlink:href="#DejaVuSans-54"/>
      <use x="713.162109" xlink:href="#DejaVuSans-56"/>
     </g>
    </g>
    <g id="line2d_31">
     <path d="M 438.784135 158.644228 
L 458.784135 158.644228 
" style="fill:none;stroke:#cc6600;stroke-linecap:square;stroke-width:1.5;"/>
    </g>
    <g id="line2d_32"/>
    <g id="text_33">
     <!-- Training, AUC: 0.77 -->
     <g transform="translate(466.784135 162.144228)scale(0.1 -0.1)">
      <use xlink:href="#DejaVuSans-84"/>
      <use x="60.865234" xlink:href="#DejaVuSans-114"/>
      <use x="101.978516" xlink:href="#DejaVuSans-97"/>
      <use x="163.257812" xlink:href="#DejaVuSans-105"/>
      <use x="191.041016" xlink:href="#DejaVuSans-110"/>
      <use x="254.419922" xlink:href="#DejaVuSans-105"/>
      <use x="282.203125" xlink:href="#DejaVuSans-110"/>
      <use x="345.582031" xlink:href="#DejaVuSans-103"/>
      <use x="409.058594" xlink:href="#DejaVuSans-44"/>
      <use x="440.845703" xlink:href="#DejaVuSans-32"/>
      <use x="472.632812" xlink:href="#DejaVuSans-65"/>
      <use x="541.041016" xlink:href="#DejaVuSans-85"/>
      <use x="614.234375" xlink:href="#DejaVuSans-67"/>
      <use x="684.058594" xlink:href="#DejaVuSans-58"/>
      <use x="717.75" xlink:href="#DejaVuSans-32"/>
      <use x="749.537109" xlink:href="#DejaVuSans-48"/>
      <use x="813.160156" xlink:href="#DejaVuSans-46"/>
      <use x="844.947266" xlink:href="#DejaVuSans-55"/>
      <use x="908.570312" xlink:href="#DejaVuSans-55"/>
     </g>
    </g>
   </g>
  </g>
  <g id="axes_5">
   <g id="line2d_33">
    <path clip-path="url(#pfe9d5fd486)" d="M 311.168334 226.061907 
L 259.717916 226.061907 
" style="fill:none;stroke:#000000;stroke-linecap:square;stroke-width:0.572689;"/>
   </g>
   <g id="line2d_34">
    <path clip-path="url(#pfe9d5fd486)" d="M 259.717916 226.061907 
L 259.717916 256.932158 
" style="fill:none;stroke:#000000;stroke-linecap:square;stroke-width:0.572689;"/>
   </g>
   <g id="patch_107">
    <path clip-path="url(#pfe9d5fd486)" d="M 279.952401 221.760974 
L 279.675051 220.309911 
Q 279.393681 218.820663 278.274233 218.820663 
Q 277.434144 218.820663 277.050276 219.512028 
Q 276.565918 220.378244 276.565918 221.52181 
Q 276.565918 222.90454 277.038217 223.563748 
Q 277.514535 224.235015 278.274233 224.235015 
Q 279.116331 224.235015 279.568532 222.896501 
z
M 280.59955 219.839622 
L 281.220573 217.998662 
L 282.251591 217.998662 
L 280.963321 221.811218 
L 281.214544 223.185909 
Q 281.270818 223.493406 281.489884 223.750658 
Q 281.749146 224.052125 281.950124 224.052125 
L 282.502814 224.052125 
L 282.502814 225.032899 
L 281.811449 225.032899 
Q 281.220573 225.032899 280.69401 224.504326 
Q 280.434748 224.241045 280.32823 223.688355 
Q 280.040831 224.385749 279.449955 224.93241 
Q 279.172605 225.189662 278.274233 225.189662 
Q 276.799053 225.189662 276.08357 224.235015 
Q 275.34799 223.248212 275.34799 221.52181 
Q 275.34799 219.67482 276.145874 218.808604 
Q 277.032188 217.841899 278.274233 217.841899 
Q 280.227741 217.841899 280.59955 219.839622 
z
"/>
   </g>
   <g id="patch_108">
    <path clip-path="url(#pfe9d5fd486)" d="M 295.293066 219.976287 
Q 296.203498 220.171236 296.713982 220.788239 
Q 297.226477 221.403233 297.226477 222.307635 
Q 297.226477 223.694384 296.27183 224.456091 
Q 295.317184 225.215789 293.558625 225.215789 
Q 292.969758 225.215789 292.344716 225.099222 
Q 291.719674 224.982654 291.054436 224.74952 
L 291.054436 223.525562 
Q 291.580999 223.833059 292.208051 223.989822 
Q 292.837113 224.146585 293.522448 224.146585 
Q 294.714249 224.146585 295.339291 223.676296 
Q 295.964334 223.206007 295.964334 222.307635 
Q 295.964334 221.477595 295.383507 221.011325 
Q 294.80268 220.543046 293.767642 220.543046 
L 292.67432 220.543046 
L 292.67432 219.499969 
L 293.817886 219.499969 
Q 294.752435 219.499969 295.248851 219.12615 
Q 295.745267 218.75233 295.745267 218.048907 
Q 295.745267 217.327395 295.232773 216.941517 
Q 294.722288 216.553629 293.767642 216.553629 
Q 293.245099 216.553629 292.648193 216.668186 
Q 292.051288 216.780734 291.335806 217.017888 
L 291.335806 215.888391 
Q 292.059327 215.687413 292.690399 215.586924 
Q 293.32147 215.486435 293.88019 215.486435 
Q 295.325223 215.486435 296.165312 216.143633 
Q 297.00741 216.798822 297.00741 217.916261 
Q 297.00741 218.696056 296.561239 219.232668 
Q 296.115067 219.76928 295.293066 219.976287 
z
"/>
   </g>
   <g id="patch_109">
    <path clip-path="url(#pfe9d5fd486)" d="M 262.700432 248.008726 
L 267.127982 248.008726 
L 267.127982 249.07592 
L 261.175008 249.07592 
L 261.175008 248.008726 
Q 261.89652 247.261087 263.142584 246.002964 
Q 264.390659 244.74283 264.710214 244.37705 
Q 265.319178 243.693724 265.560352 243.219416 
Q 265.803536 242.745107 265.803536 242.286877 
Q 265.803536 241.539238 265.278983 241.068949 
Q 264.75443 240.59665 263.912331 240.59665 
Q 263.315426 240.59665 262.652198 240.803658 
Q 261.990979 241.010665 261.237311 241.43272 
L 261.237311 240.150479 
Q 262.003038 239.842982 262.668276 239.686219 
Q 263.335524 239.529456 263.888214 239.529456 
Q 265.345305 239.529456 266.211522 240.259007 
Q 267.077738 240.986548 267.077738 242.204476 
Q 267.077738 242.783293 266.860681 243.301817 
Q 266.645634 243.818331 266.072847 244.521754 
Q 265.916084 244.704645 265.073985 245.57488 
Q 264.233896 246.445116 262.700432 248.008726 
z
M 269.923338 247.480153 
L 271.247784 247.480153 
L 271.247784 248.561416 
L 270.218775 250.571198 
L 269.408833 250.571198 
L 269.923338 248.561416 
z
M 277.724055 244.019309 
Q 278.634486 244.214258 279.144971 244.831261 
Q 279.657465 245.446254 279.657465 246.350656 
Q 279.657465 247.737406 278.702819 248.499113 
Q 277.748172 249.258811 275.989613 249.258811 
Q 275.400747 249.258811 274.775705 249.142243 
Q 274.150663 249.025676 273.485425 248.792541 
L 273.485425 247.568584 
Q 274.011988 247.876081 274.63904 248.032844 
Q 275.268101 248.189607 275.953437 248.189607 
Q 277.145238 248.189607 277.77028 247.719318 
Q 278.395322 247.249029 278.395322 246.350656 
Q 278.395322 245.520616 277.814495 245.054347 
Q 277.233668 244.586067 276.19863 244.586067 
L 275.105309 244.586067 
L 275.105309 243.542991 
L 276.248875 243.542991 
Q 277.183424 243.542991 277.67984 243.169171 
Q 278.176256 242.795352 278.176256 242.091928 
Q 278.176256 241.370416 277.663762 240.984538 
Q 277.153277 240.59665 276.19863 240.59665 
Q 275.676087 240.59665 275.079182 240.711208 
Q 274.482277 240.823756 273.766794 241.06091 
L 273.766794 239.931412 
Q 274.490316 239.730434 275.121387 239.629945 
Q 275.752459 239.529456 276.311178 239.529456 
Q 277.756211 239.529456 278.5963 240.186655 
Q 279.438399 240.841844 279.438399 241.959282 
Q 279.438399 242.739078 278.992227 243.27569 
Q 278.546056 243.812301 277.724055 244.019309 
z
M 282.195569 247.480153 
L 283.520015 247.480153 
L 283.520015 248.561416 
L 282.491007 250.571198 
L 281.681064 250.571198 
L 282.195569 248.561416 
z
M 289.638545 240.803658 
L 286.434952 245.810025 
L 289.638545 245.810025 
z
M 289.304921 239.698278 
L 290.900688 239.698278 
L 290.900688 245.810025 
L 292.239203 245.810025 
L 292.239203 246.86516 
L 290.900688 246.86516 
L 290.900688 249.07592 
L 289.638545 249.07592 
L 289.638545 246.86516 
L 285.405944 246.86516 
L 285.405944 245.641203 
z
M 294.4678 247.480153 
L 295.792246 247.480153 
L 295.792246 248.561416 
L 294.763238 250.571198 
L 293.953295 250.571198 
L 294.4678 248.561416 
z
M 301.295783 243.882644 
Q 300.441625 243.882644 299.94119 244.46749 
Q 299.442764 245.050327 299.442764 246.067277 
Q 299.442764 247.078197 299.94119 247.667063 
Q 300.441625 248.25392 301.295783 248.25392 
Q 302.14994 248.25392 302.648366 247.667063 
Q 303.146792 247.078197 303.146792 246.067277 
Q 303.146792 245.050327 302.648366 244.46749 
Q 302.14994 243.882644 301.295783 243.882644 
z
M 303.814039 239.905285 
L 303.814039 241.06091 
Q 303.335711 240.835814 302.849344 240.717237 
Q 302.362977 240.59665 301.884649 240.59665 
Q 300.628535 240.59665 299.965307 241.444778 
Q 299.304089 242.292906 299.209629 244.00725 
Q 299.579429 243.46059 300.138148 243.169171 
Q 300.698877 242.877753 301.370145 242.877753 
Q 302.783021 242.877753 303.603012 243.73593 
Q 304.423003 244.592097 304.423003 246.067277 
Q 304.423003 247.51231 303.568846 248.386565 
Q 302.714689 249.258811 301.295783 249.258811 
Q 299.667859 249.258811 298.807673 248.012746 
Q 297.947486 246.764671 297.947486 244.397148 
Q 297.947486 242.174329 299.002621 240.851893 
Q 300.057757 239.529456 301.834404 239.529456 
Q 302.312732 239.529456 302.799099 239.623916 
Q 303.285467 239.718376 303.814039 239.905285 
z
"/>
   </g>
   <g id="patch_110">
    <path clip-path="url(#pfe9d5fd486)" d="M 311.168334 236.351991 
C 313.897296 236.351991 316.514854 235.267763 318.444522 233.338095 
C 320.374189 231.408428 321.458418 228.790869 321.458418 226.061907 
C 321.458418 223.332945 320.374189 220.715387 318.444522 218.785719 
C 316.514854 216.856052 313.897296 215.771824 311.168334 215.771824 
C 308.439372 215.771824 305.821814 216.856052 303.892146 218.785719 
C 301.962479 220.715387 300.87825 223.332945 300.87825 226.061907 
C 300.87825 228.790869 301.962479 231.408428 303.892146 233.338095 
C 305.821814 235.267763 308.439372 236.351991 311.168334 236.351991 
z
" style="fill:#ffd400;stroke:#000000;stroke-linejoin:miter;stroke-width:0.572689;"/>
   </g>
   <g id="patch_111">
    <path clip-path="url(#pfe9d5fd486)" d="M 259.717916 236.351991 
C 262.446878 236.351991 265.064436 235.267763 266.994104 233.338095 
C 268.923771 231.408428 270.008 228.790869 270.008 226.061907 
C 270.008 223.332945 268.923771 220.715387 266.994104 218.785719 
C 265.064436 216.856052 262.446878 215.771824 259.717916 215.771824 
C 256.988954 215.771824 254.371396 216.856052 252.441728 218.785719 
C 250.512061 220.715387 249.427832 223.332945 249.427832 226.061907 
C 249.427832 228.790869 250.512061 231.408428 252.441728 233.338095 
C 254.371396 235.267763 256.988954 236.351991 259.717916 236.351991 
z
" style="fill:#ffd400;stroke:#000000;stroke-linejoin:miter;stroke-width:0.572689;"/>
   </g>
   <g id="patch_112">
    <path clip-path="url(#pfe9d5fd486)" d="M 267.435479 249.214595 
L 252.000353 264.649721 
z
" style="fill:#ffffff;stroke:#000000;stroke-linejoin:miter;stroke-width:0.572689;"/>
   </g>
   <g id="patch_113">
    <path clip-path="url(#pfe9d5fd486)" d="M 252.000353 249.214595 
L 267.435479 264.649721 
z
" style="fill:#ffffff;stroke:#000000;stroke-linejoin:miter;stroke-width:0.572689;"/>
   </g>
  </g>
  <g id="text_34">
   <!-- GSL-I-B4_10ug_13920_v5.0_DATA.csv -->
   <defs>
    <path d="M 59.515625 10.40625 
L 59.515625 29.984375 
L 43.40625 29.984375 
L 43.40625 38.09375 
L 69.28125 38.09375 
L 69.28125 6.78125 
Q 63.578125 2.734375 56.6875 0.65625 
Q 49.8125 -1.421875 42 -1.421875 
Q 24.90625 -1.421875 15.25 8.5625 
Q 5.609375 18.5625 5.609375 36.375 
Q 5.609375 54.25 15.25 64.234375 
Q 24.90625 74.21875 42 74.21875 
Q 49.125 74.21875 55.546875 72.453125 
Q 61.96875 70.703125 67.390625 67.28125 
L 67.390625 56.78125 
Q 61.921875 61.421875 55.765625 63.765625 
Q 49.609375 66.109375 42.828125 66.109375 
Q 29.4375 66.109375 22.71875 58.640625 
Q 16.015625 51.171875 16.015625 36.375 
Q 16.015625 21.625 22.71875 14.15625 
Q 29.4375 6.6875 42.828125 6.6875 
Q 48.046875 6.6875 52.140625 7.59375 
Q 56.25 8.5 59.515625 10.40625 
z
" id="DejaVuSans-71"/>
    <path d="M 53.515625 70.515625 
L 53.515625 60.890625 
Q 47.90625 63.578125 42.921875 64.890625 
Q 37.9375 66.21875 33.296875 66.21875 
Q 25.25 66.21875 20.875 63.09375 
Q 16.5 59.96875 16.5 54.203125 
Q 16.5 49.359375 19.40625 46.890625 
Q 22.3125 44.4375 30.421875 42.921875 
L 36.375 41.703125 
Q 47.40625 39.59375 52.65625 34.296875 
Q 57.90625 29 57.90625 20.125 
Q 57.90625 9.515625 50.796875 4.046875 
Q 43.703125 -1.421875 29.984375 -1.421875 
Q 24.8125 -1.421875 18.96875 -0.25 
Q 13.140625 0.921875 6.890625 3.21875 
L 6.890625 13.375 
Q 12.890625 10.015625 18.65625 8.296875 
Q 24.421875 6.59375 29.984375 6.59375 
Q 38.421875 6.59375 43.015625 9.90625 
Q 47.609375 13.234375 47.609375 19.390625 
Q 47.609375 24.75 44.3125 27.78125 
Q 41.015625 30.8125 33.5 32.328125 
L 27.484375 33.5 
Q 16.453125 35.6875 11.515625 40.375 
Q 6.59375 45.0625 6.59375 53.421875 
Q 6.59375 63.09375 13.40625 68.65625 
Q 20.21875 74.21875 32.171875 74.21875 
Q 37.3125 74.21875 42.625 73.28125 
Q 47.953125 72.359375 53.515625 70.515625 
z
" id="DejaVuSans-83"/>
    <path d="M 9.8125 72.90625 
L 19.671875 72.90625 
L 19.671875 8.296875 
L 55.171875 8.296875 
L 55.171875 0 
L 9.8125 0 
z
" id="DejaVuSans-76"/>
    <path d="M 4.890625 31.390625 
L 31.203125 31.390625 
L 31.203125 23.390625 
L 4.890625 23.390625 
z
" id="DejaVuSans-45"/>
    <path d="M 9.8125 72.90625 
L 19.671875 72.90625 
L 19.671875 0 
L 9.8125 0 
z
" id="DejaVuSans-73"/>
    <path d="M 19.671875 34.8125 
L 19.671875 8.109375 
L 35.5 8.109375 
Q 43.453125 8.109375 47.28125 11.40625 
Q 51.125 14.703125 51.125 21.484375 
Q 51.125 28.328125 47.28125 31.5625 
Q 43.453125 34.8125 35.5 34.8125 
z
M 19.671875 64.796875 
L 19.671875 42.828125 
L 34.28125 42.828125 
Q 41.5 42.828125 45.03125 45.53125 
Q 48.578125 48.25 48.578125 53.8125 
Q 48.578125 59.328125 45.03125 62.0625 
Q 41.5 64.796875 34.28125 64.796875 
z
M 9.8125 72.90625 
L 35.015625 72.90625 
Q 46.296875 72.90625 52.390625 68.21875 
Q 58.5 63.53125 58.5 54.890625 
Q 58.5 48.1875 55.375 44.234375 
Q 52.25 40.28125 46.1875 39.3125 
Q 53.46875 37.75 57.5 32.78125 
Q 61.53125 27.828125 61.53125 20.40625 
Q 61.53125 10.640625 54.890625 5.3125 
Q 48.25 0 35.984375 0 
L 9.8125 0 
z
" id="DejaVuSans-66"/>
    <path d="M 50.984375 -16.609375 
L 50.984375 -23.578125 
L -0.984375 -23.578125 
L -0.984375 -16.609375 
z
" id="DejaVuSans-95"/>
    <path d="M 10.984375 1.515625 
L 10.984375 10.5 
Q 14.703125 8.734375 18.5 7.8125 
Q 22.3125 6.890625 25.984375 6.890625 
Q 35.75 6.890625 40.890625 13.453125 
Q 46.046875 20.015625 46.78125 33.40625 
Q 43.953125 29.203125 39.59375 26.953125 
Q 35.25 24.703125 29.984375 24.703125 
Q 19.046875 24.703125 12.671875 31.3125 
Q 6.296875 37.9375 6.296875 49.421875 
Q 6.296875 60.640625 12.9375 67.421875 
Q 19.578125 74.21875 30.609375 74.21875 
Q 43.265625 74.21875 49.921875 64.515625 
Q 56.59375 54.828125 56.59375 36.375 
Q 56.59375 19.140625 48.40625 8.859375 
Q 40.234375 -1.421875 26.421875 -1.421875 
Q 22.703125 -1.421875 18.890625 -0.6875 
Q 15.09375 0.046875 10.984375 1.515625 
z
M 30.609375 32.421875 
Q 37.25 32.421875 41.125 36.953125 
Q 45.015625 41.5 45.015625 49.421875 
Q 45.015625 57.28125 41.125 61.84375 
Q 37.25 66.40625 30.609375 66.40625 
Q 23.96875 66.40625 20.09375 61.84375 
Q 16.21875 57.28125 16.21875 49.421875 
Q 16.21875 41.5 20.09375 36.953125 
Q 23.96875 32.421875 30.609375 32.421875 
z
" id="DejaVuSans-57"/>
    <path d="M 19.671875 64.796875 
L 19.671875 8.109375 
L 31.59375 8.109375 
Q 46.6875 8.109375 53.6875 14.9375 
Q 60.6875 21.78125 60.6875 36.53125 
Q 60.6875 51.171875 53.6875 57.984375 
Q 46.6875 64.796875 31.59375 64.796875 
z
M 9.8125 72.90625 
L 30.078125 72.90625 
Q 51.265625 72.90625 61.171875 64.09375 
Q 71.09375 55.28125 71.09375 36.53125 
Q 71.09375 17.671875 61.125 8.828125 
Q 51.171875 0 30.078125 0 
L 9.8125 0 
z
" id="DejaVuSans-68"/>
   </defs>
   <g transform="translate(174.380625 14.95425)scale(0.12 -0.12)">
    <use xlink:href="#DejaVuSans-71"/>
    <use x="77.490234" xlink:href="#DejaVuSans-83"/>
    <use x="140.966797" xlink:href="#DejaVuSans-76"/>
    <use x="196.664062" xlink:href="#DejaVuSans-45"/>
    <use x="232.748047" xlink:href="#DejaVuSans-73"/>
    <use x="262.240234" xlink:href="#DejaVuSans-45"/>
    <use x="298.277344" xlink:href="#DejaVuSans-66"/>
    <use x="366.880859" xlink:href="#DejaVuSans-52"/>
    <use x="430.503906" xlink:href="#DejaVuSans-95"/>
    <use x="480.503906" xlink:href="#DejaVuSans-49"/>
    <use x="544.126953" xlink:href="#DejaVuSans-48"/>
    <use x="607.75" xlink:href="#DejaVuSans-117"/>
    <use x="671.128906" xlink:href="#DejaVuSans-103"/>
    <use x="734.605469" xlink:href="#DejaVuSans-95"/>
    <use x="784.605469" xlink:href="#DejaVuSans-49"/>
    <use x="848.228516" xlink:href="#DejaVuSans-51"/>
    <use x="911.851562" xlink:href="#DejaVuSans-57"/>
    <use x="975.474609" xlink:href="#DejaVuSans-50"/>
    <use x="1039.097656" xlink:href="#DejaVuSans-48"/>
    <use x="1102.720703" xlink:href="#DejaVuSans-95"/>
    <use x="1152.720703" xlink:href="#DejaVuSans-118"/>
    <use x="1211.900391" xlink:href="#DejaVuSans-53"/>
    <use x="1275.523438" xlink:href="#DejaVuSans-46"/>
    <use x="1307.310547" xlink:href="#DejaVuSans-48"/>
    <use x="1370.933594" xlink:href="#DejaVuSans-95"/>
    <use x="1420.933594" xlink:href="#DejaVuSans-68"/>
    <use x="1497.919922" xlink:href="#DejaVuSans-65"/>
    <use x="1566.21875" xlink:href="#DejaVuSans-84"/>
    <use x="1627.193359" xlink:href="#DejaVuSans-65"/>
    <use x="1695.585938" xlink:href="#DejaVuSans-46"/>
    <use x="1727.373047" xlink:href="#DejaVuSans-99"/>
    <use x="1782.353516" xlink:href="#DejaVuSans-115"/>
    <use x="1834.453125" xlink:href="#DejaVuSans-118"/>
   </g>
  </g>
 </g>
 <defs>
  <clipPath id="pdaefed0ce3">
   <rect height="108.159229" width="287.89092" x="42.765865" y="65.064686"/>
  </clipPath>
  <clipPath id="p5d4c31ace5">
   <rect height="54.079615" width="189.15912" x="42.765865" y="213.02827"/>
  </clipPath>
  <clipPath id="pe25a6b173f">
   <rect height="108.159229" width="189.15912" x="383.84064" y="65.064686"/>
  </clipPath>
  <clipPath id="pfe9d5fd486">
   <rect height="54.079615" width="79.233644" x="245.826303" y="213.02827"/>
  </clipPath>
 </defs>
</svg>
