<?xml version="1.0" encoding="utf-8" standalone="no"?>
<!DOCTYPE svg PUBLIC "-//W3C//DTD SVG 1.1//EN"
  "http://www.w3.org/Graphics/SVG/1.1/DTD/svg11.dtd">
<!-- Created with matplotlib (https://matplotlib.org/) -->
<svg height="475.2pt" version="1.1" viewBox="0 0 576 475.2" width="576pt" xmlns="http://www.w3.org/2000/svg" xmlns:xlink="http://www.w3.org/1999/xlink">
 <defs>
  <style type="text/css">
*{stroke-linecap:butt;stroke-linejoin:round;}
  </style>
 </defs>
 <g id="figure_1">
  <g id="patch_1">
   <path d="M 0 475.2 
L 576 475.2 
L 576 0 
L 0 0 
z
" style="fill:#ffffff;"/>
  </g>
  <g id="axes_1">
   <g id="patch_2">
    <path d="M 36.403365 202.224005 
L 328.394809 202.224005 
L 328.394809 74.464482 
L 36.403365 74.464482 
z
" style="fill:#ffffff;"/>
   </g>
   <g id="patch_3">
    <path clip-path="url(#p046b3016ed)" d="M 49.675703 202.224005 
L 53.018228 202.224005 
L 53.018228 199.57888 
L 49.675703 199.57888 
z
" style="fill:#1f77b4;"/>
   </g>
   <g id="patch_4">
    <path clip-path="url(#p046b3016ed)" d="M 53.018228 202.224005 
L 56.360753 202.224005 
L 56.360753 202.224005 
L 53.018228 202.224005 
z
" style="fill:#1f77b4;"/>
   </g>
   <g id="patch_5">
    <path clip-path="url(#p046b3016ed)" d="M 56.360753 202.224005 
L 59.703278 202.224005 
L 59.703278 202.224005 
L 56.360753 202.224005 
z
" style="fill:#1f77b4;"/>
   </g>
   <g id="patch_6">
    <path clip-path="url(#p046b3016ed)" d="M 59.703278 202.224005 
L 63.045803 202.224005 
L 63.045803 199.57888 
L 59.703278 199.57888 
z
" style="fill:#1f77b4;"/>
   </g>
   <g id="patch_7">
    <path clip-path="url(#p046b3016ed)" d="M 63.045803 202.224005 
L 66.388328 202.224005 
L 66.388328 202.224005 
L 63.045803 202.224005 
z
" style="fill:#1f77b4;"/>
   </g>
   <g id="patch_8">
    <path clip-path="url(#p046b3016ed)" d="M 66.388328 202.224005 
L 69.730853 202.224005 
L 69.730853 202.224005 
L 66.388328 202.224005 
z
" style="fill:#1f77b4;"/>
   </g>
   <g id="patch_9">
    <path clip-path="url(#p046b3016ed)" d="M 69.730853 202.224005 
L 73.073378 202.224005 
L 73.073378 202.224005 
L 69.730853 202.224005 
z
" style="fill:#1f77b4;"/>
   </g>
   <g id="patch_10">
    <path clip-path="url(#p046b3016ed)" d="M 73.073378 202.224005 
L 76.415903 202.224005 
L 76.415903 199.57888 
L 73.073378 199.57888 
z
" style="fill:#1f77b4;"/>
   </g>
   <g id="patch_11">
    <path clip-path="url(#p046b3016ed)" d="M 76.415903 202.224005 
L 79.758427 202.224005 
L 79.758427 202.224005 
L 76.415903 202.224005 
z
" style="fill:#1f77b4;"/>
   </g>
   <g id="patch_12">
    <path clip-path="url(#p046b3016ed)" d="M 79.758427 202.224005 
L 83.100952 202.224005 
L 83.100952 196.933756 
L 79.758427 196.933756 
z
" style="fill:#1f77b4;"/>
   </g>
   <g id="patch_13">
    <path clip-path="url(#p046b3016ed)" d="M 83.100952 202.224005 
L 86.443477 202.224005 
L 86.443477 199.57888 
L 83.100952 199.57888 
z
" style="fill:#1f77b4;"/>
   </g>
   <g id="patch_14">
    <path clip-path="url(#p046b3016ed)" d="M 86.443477 202.224005 
L 89.786002 202.224005 
L 89.786002 199.57888 
L 86.443477 199.57888 
z
" style="fill:#1f77b4;"/>
   </g>
   <g id="patch_15">
    <path clip-path="url(#p046b3016ed)" d="M 89.786002 202.224005 
L 93.128527 202.224005 
L 93.128527 199.57888 
L 89.786002 199.57888 
z
" style="fill:#1f77b4;"/>
   </g>
   <g id="patch_16">
    <path clip-path="url(#p046b3016ed)" d="M 93.128527 202.224005 
L 96.471052 202.224005 
L 96.471052 188.998381 
L 93.128527 188.998381 
z
" style="fill:#1f77b4;"/>
   </g>
   <g id="patch_17">
    <path clip-path="url(#p046b3016ed)" d="M 96.471052 202.224005 
L 99.813577 202.224005 
L 99.813577 188.998381 
L 96.471052 188.998381 
z
" style="fill:#1f77b4;"/>
   </g>
   <g id="patch_18">
    <path clip-path="url(#p046b3016ed)" d="M 99.813577 202.224005 
L 103.156102 202.224005 
L 103.156102 178.417883 
L 99.813577 178.417883 
z
" style="fill:#1f77b4;"/>
   </g>
   <g id="patch_19">
    <path clip-path="url(#p046b3016ed)" d="M 103.156102 202.224005 
L 106.498627 202.224005 
L 106.498627 173.127633 
L 103.156102 173.127633 
z
" style="fill:#1f77b4;"/>
   </g>
   <g id="patch_20">
    <path clip-path="url(#p046b3016ed)" d="M 106.498627 202.224005 
L 109.841152 202.224005 
L 109.841152 159.90201 
L 106.498627 159.90201 
z
" style="fill:#1f77b4;"/>
   </g>
   <g id="patch_21">
    <path clip-path="url(#p046b3016ed)" d="M 109.841152 202.224005 
L 113.183676 202.224005 
L 113.183676 149.321511 
L 109.841152 149.321511 
z
" style="fill:#1f77b4;"/>
   </g>
   <g id="patch_22">
    <path clip-path="url(#p046b3016ed)" d="M 113.183676 202.224005 
L 116.526201 202.224005 
L 116.526201 146.676386 
L 113.183676 146.676386 
z
" style="fill:#1f77b4;"/>
   </g>
   <g id="patch_23">
    <path clip-path="url(#p046b3016ed)" d="M 116.526201 202.224005 
L 119.868726 202.224005 
L 119.868726 112.289765 
L 116.526201 112.289765 
z
" style="fill:#1f77b4;"/>
   </g>
   <g id="patch_24">
    <path clip-path="url(#p046b3016ed)" d="M 119.868726 202.224005 
L 123.211251 202.224005 
L 123.211251 117.580014 
L 119.868726 117.580014 
z
" style="fill:#1f77b4;"/>
   </g>
   <g id="patch_25">
    <path clip-path="url(#p046b3016ed)" d="M 123.211251 202.224005 
L 126.553776 202.224005 
L 126.553776 128.160513 
L 123.211251 128.160513 
z
" style="fill:#1f77b4;"/>
   </g>
   <g id="patch_26">
    <path clip-path="url(#p046b3016ed)" d="M 126.553776 202.224005 
L 129.896301 202.224005 
L 129.896301 106.999516 
L 126.553776 106.999516 
z
" style="fill:#1f77b4;"/>
   </g>
   <g id="patch_27">
    <path clip-path="url(#p046b3016ed)" d="M 129.896301 202.224005 
L 133.238826 202.224005 
L 133.238826 99.064141 
L 129.896301 99.064141 
z
" style="fill:#1f77b4;"/>
   </g>
   <g id="patch_28">
    <path clip-path="url(#p046b3016ed)" d="M 133.238826 202.224005 
L 136.581351 202.224005 
L 136.581351 80.548268 
L 133.238826 80.548268 
z
" style="fill:#1f77b4;"/>
   </g>
   <g id="patch_29">
    <path clip-path="url(#p046b3016ed)" d="M 136.581351 202.224005 
L 139.923876 202.224005 
L 139.923876 130.805638 
L 136.581351 130.805638 
z
" style="fill:#1f77b4;"/>
   </g>
   <g id="patch_30">
    <path clip-path="url(#p046b3016ed)" d="M 139.923876 202.224005 
L 143.266401 202.224005 
L 143.266401 120.225139 
L 139.923876 120.225139 
z
" style="fill:#1f77b4;"/>
   </g>
   <g id="patch_31">
    <path clip-path="url(#p046b3016ed)" d="M 143.266401 202.224005 
L 146.608925 202.224005 
L 146.608925 138.741012 
L 143.266401 138.741012 
z
" style="fill:#1f77b4;"/>
   </g>
   <g id="patch_32">
    <path clip-path="url(#p046b3016ed)" d="M 146.608925 202.224005 
L 149.95145 202.224005 
L 149.95145 128.160513 
L 146.608925 128.160513 
z
" style="fill:#1f77b4;"/>
   </g>
   <g id="patch_33">
    <path clip-path="url(#p046b3016ed)" d="M 149.95145 202.224005 
L 153.293975 202.224005 
L 153.293975 151.966636 
L 149.95145 151.966636 
z
" style="fill:#1f77b4;"/>
   </g>
   <g id="patch_34">
    <path clip-path="url(#p046b3016ed)" d="M 153.293975 202.224005 
L 156.6365 202.224005 
L 156.6365 136.095887 
L 153.293975 136.095887 
z
" style="fill:#1f77b4;"/>
   </g>
   <g id="patch_35">
    <path clip-path="url(#p046b3016ed)" d="M 156.6365 202.224005 
L 159.979025 202.224005 
L 159.979025 146.676386 
L 156.6365 146.676386 
z
" style="fill:#1f77b4;"/>
   </g>
   <g id="patch_36">
    <path clip-path="url(#p046b3016ed)" d="M 159.979025 202.224005 
L 163.32155 202.224005 
L 163.32155 159.90201 
L 159.979025 159.90201 
z
" style="fill:#1f77b4;"/>
   </g>
   <g id="patch_37">
    <path clip-path="url(#p046b3016ed)" d="M 163.32155 202.224005 
L 166.664075 202.224005 
L 166.664075 167.837384 
L 163.32155 167.837384 
z
" style="fill:#1f77b4;"/>
   </g>
   <g id="patch_38">
    <path clip-path="url(#p046b3016ed)" d="M 166.664075 202.224005 
L 170.0066 202.224005 
L 170.0066 173.127633 
L 166.664075 173.127633 
z
" style="fill:#1f77b4;"/>
   </g>
   <g id="patch_39">
    <path clip-path="url(#p046b3016ed)" d="M 170.0066 202.224005 
L 173.349125 202.224005 
L 173.349125 188.998381 
L 170.0066 188.998381 
z
" style="fill:#1f77b4;"/>
   </g>
   <g id="patch_40">
    <path clip-path="url(#p046b3016ed)" d="M 224.874298 202.224005 
L 228.216823 202.224005 
L 228.216823 188.998381 
L 224.874298 188.998381 
z
" style="fill:#ff0000;"/>
   </g>
   <g id="patch_41">
    <path clip-path="url(#p046b3016ed)" d="M 228.216823 202.224005 
L 231.559348 202.224005 
L 231.559348 199.57888 
L 228.216823 199.57888 
z
" style="fill:#ff0000;"/>
   </g>
   <g id="patch_42">
    <path clip-path="url(#p046b3016ed)" d="M 231.559348 202.224005 
L 234.901873 202.224005 
L 234.901873 199.57888 
L 231.559348 199.57888 
z
" style="fill:#ff0000;"/>
   </g>
   <g id="patch_43">
    <path clip-path="url(#p046b3016ed)" d="M 234.901873 202.224005 
L 238.244398 202.224005 
L 238.244398 199.57888 
L 234.901873 199.57888 
z
" style="fill:#ff0000;"/>
   </g>
   <g id="patch_44">
    <path clip-path="url(#p046b3016ed)" d="M 238.244398 202.224005 
L 241.586922 202.224005 
L 241.586922 199.57888 
L 238.244398 199.57888 
z
" style="fill:#ff0000;"/>
   </g>
   <g id="patch_45">
    <path clip-path="url(#p046b3016ed)" d="M 241.586922 202.224005 
L 244.929447 202.224005 
L 244.929447 202.224005 
L 241.586922 202.224005 
z
" style="fill:#ff0000;"/>
   </g>
   <g id="patch_46">
    <path clip-path="url(#p046b3016ed)" d="M 244.929447 202.224005 
L 248.271972 202.224005 
L 248.271972 199.57888 
L 244.929447 199.57888 
z
" style="fill:#ff0000;"/>
   </g>
   <g id="patch_47">
    <path clip-path="url(#p046b3016ed)" d="M 248.271972 202.224005 
L 251.614497 202.224005 
L 251.614497 202.224005 
L 248.271972 202.224005 
z
" style="fill:#ff0000;"/>
   </g>
   <g id="patch_48">
    <path clip-path="url(#p046b3016ed)" d="M 251.614497 202.224005 
L 254.957022 202.224005 
L 254.957022 202.224005 
L 251.614497 202.224005 
z
" style="fill:#ff0000;"/>
   </g>
   <g id="patch_49">
    <path clip-path="url(#p046b3016ed)" d="M 254.957022 202.224005 
L 258.299547 202.224005 
L 258.299547 202.224005 
L 254.957022 202.224005 
z
" style="fill:#ff0000;"/>
   </g>
   <g id="patch_50">
    <path clip-path="url(#p046b3016ed)" d="M 258.299547 202.224005 
L 261.642072 202.224005 
L 261.642072 196.933756 
L 258.299547 196.933756 
z
" style="fill:#ff0000;"/>
   </g>
   <g id="patch_51">
    <path clip-path="url(#p046b3016ed)" d="M 261.642072 202.224005 
L 264.984597 202.224005 
L 264.984597 202.224005 
L 261.642072 202.224005 
z
" style="fill:#ff0000;"/>
   </g>
   <g id="patch_52">
    <path clip-path="url(#p046b3016ed)" d="M 264.984597 202.224005 
L 268.327122 202.224005 
L 268.327122 202.224005 
L 264.984597 202.224005 
z
" style="fill:#ff0000;"/>
   </g>
   <g id="patch_53">
    <path clip-path="url(#p046b3016ed)" d="M 268.327122 202.224005 
L 271.669647 202.224005 
L 271.669647 199.57888 
L 268.327122 199.57888 
z
" style="fill:#ff0000;"/>
   </g>
   <g id="patch_54">
    <path clip-path="url(#p046b3016ed)" d="M 271.669647 202.224005 
L 275.012171 202.224005 
L 275.012171 199.57888 
L 271.669647 199.57888 
z
" style="fill:#ff0000;"/>
   </g>
   <g id="patch_55">
    <path clip-path="url(#p046b3016ed)" d="M 275.012171 202.224005 
L 278.354696 202.224005 
L 278.354696 199.57888 
L 275.012171 199.57888 
z
" style="fill:#ff0000;"/>
   </g>
   <g id="patch_56">
    <path clip-path="url(#p046b3016ed)" d="M 278.354696 202.224005 
L 281.697221 202.224005 
L 281.697221 202.224005 
L 278.354696 202.224005 
z
" style="fill:#ff0000;"/>
   </g>
   <g id="patch_57">
    <path clip-path="url(#p046b3016ed)" d="M 281.697221 202.224005 
L 285.039746 202.224005 
L 285.039746 202.224005 
L 281.697221 202.224005 
z
" style="fill:#ff0000;"/>
   </g>
   <g id="patch_58">
    <path clip-path="url(#p046b3016ed)" d="M 285.039746 202.224005 
L 288.382271 202.224005 
L 288.382271 202.224005 
L 285.039746 202.224005 
z
" style="fill:#ff0000;"/>
   </g>
   <g id="patch_59">
    <path clip-path="url(#p046b3016ed)" d="M 288.382271 202.224005 
L 291.724796 202.224005 
L 291.724796 202.224005 
L 288.382271 202.224005 
z
" style="fill:#ff0000;"/>
   </g>
   <g id="patch_60">
    <path clip-path="url(#p046b3016ed)" d="M 291.724796 202.224005 
L 295.067321 202.224005 
L 295.067321 196.933756 
L 291.724796 196.933756 
z
" style="fill:#ff0000;"/>
   </g>
   <g id="patch_61">
    <path clip-path="url(#p046b3016ed)" d="M 295.067321 202.224005 
L 298.409846 202.224005 
L 298.409846 202.224005 
L 295.067321 202.224005 
z
" style="fill:#ff0000;"/>
   </g>
   <g id="patch_62">
    <path clip-path="url(#p046b3016ed)" d="M 298.409846 202.224005 
L 301.752371 202.224005 
L 301.752371 202.224005 
L 298.409846 202.224005 
z
" style="fill:#ff0000;"/>
   </g>
   <g id="patch_63">
    <path clip-path="url(#p046b3016ed)" d="M 301.752371 202.224005 
L 305.094895 202.224005 
L 305.094895 202.224005 
L 301.752371 202.224005 
z
" style="fill:#ff0000;"/>
   </g>
   <g id="patch_64">
    <path clip-path="url(#p046b3016ed)" d="M 305.094895 202.224005 
L 308.43742 202.224005 
L 308.43742 199.57888 
L 305.094895 199.57888 
z
" style="fill:#ff0000;"/>
   </g>
   <g id="patch_65">
    <path clip-path="url(#p046b3016ed)" d="M 308.43742 202.224005 
L 311.779945 202.224005 
L 311.779945 199.57888 
L 308.43742 199.57888 
z
" style="fill:#ff0000;"/>
   </g>
   <g id="patch_66">
    <path clip-path="url(#p046b3016ed)" d="M 311.779945 202.224005 
L 315.12247 202.224005 
L 315.12247 199.57888 
L 311.779945 199.57888 
z
" style="fill:#ff0000;"/>
   </g>
   <g id="patch_67">
    <path clip-path="url(#p046b3016ed)" d="M 172.66701 202.224005 
L 176.009535 202.224005 
L 176.009535 170.482509 
L 172.66701 170.482509 
z
" style="fill:#ffa500;"/>
   </g>
   <g id="patch_68">
    <path clip-path="url(#p046b3016ed)" d="M 176.009535 202.224005 
L 179.35206 202.224005 
L 179.35206 167.837384 
L 176.009535 167.837384 
z
" style="fill:#ffa500;"/>
   </g>
   <g id="patch_69">
    <path clip-path="url(#p046b3016ed)" d="M 179.35206 202.224005 
L 182.694585 202.224005 
L 182.694585 191.643506 
L 179.35206 191.643506 
z
" style="fill:#ffa500;"/>
   </g>
   <g id="patch_70">
    <path clip-path="url(#p046b3016ed)" d="M 182.694585 202.224005 
L 186.03711 202.224005 
L 186.03711 186.353257 
L 182.694585 186.353257 
z
" style="fill:#ffa500;"/>
   </g>
   <g id="patch_71">
    <path clip-path="url(#p046b3016ed)" d="M 186.03711 202.224005 
L 189.379635 202.224005 
L 189.379635 186.353257 
L 186.03711 186.353257 
z
" style="fill:#ffa500;"/>
   </g>
   <g id="patch_72">
    <path clip-path="url(#p046b3016ed)" d="M 189.379635 202.224005 
L 192.72216 202.224005 
L 192.72216 196.933756 
L 189.379635 196.933756 
z
" style="fill:#ffa500;"/>
   </g>
   <g id="patch_73">
    <path clip-path="url(#p046b3016ed)" d="M 192.72216 202.224005 
L 196.064685 202.224005 
L 196.064685 194.288631 
L 192.72216 194.288631 
z
" style="fill:#ffa500;"/>
   </g>
   <g id="patch_74">
    <path clip-path="url(#p046b3016ed)" d="M 196.064685 202.224005 
L 199.40721 202.224005 
L 199.40721 196.933756 
L 196.064685 196.933756 
z
" style="fill:#ffa500;"/>
   </g>
   <g id="patch_75">
    <path clip-path="url(#p046b3016ed)" d="M 199.40721 202.224005 
L 202.749735 202.224005 
L 202.749735 196.933756 
L 199.40721 196.933756 
z
" style="fill:#ffa500;"/>
   </g>
   <g id="patch_76">
    <path clip-path="url(#p046b3016ed)" d="M 202.749735 202.224005 
L 206.092259 202.224005 
L 206.092259 191.643506 
L 202.749735 191.643506 
z
" style="fill:#ffa500;"/>
   </g>
   <g id="patch_77">
    <path clip-path="url(#p046b3016ed)" d="M 206.092259 202.224005 
L 209.434784 202.224005 
L 209.434784 194.288631 
L 206.092259 194.288631 
z
" style="fill:#ffa500;"/>
   </g>
   <g id="patch_78">
    <path clip-path="url(#p046b3016ed)" d="M 209.434784 202.224005 
L 212.777309 202.224005 
L 212.777309 199.57888 
L 209.434784 199.57888 
z
" style="fill:#ffa500;"/>
   </g>
   <g id="patch_79">
    <path clip-path="url(#p046b3016ed)" d="M 212.777309 202.224005 
L 216.119834 202.224005 
L 216.119834 199.57888 
L 212.777309 199.57888 
z
" style="fill:#ffa500;"/>
   </g>
   <g id="patch_80">
    <path clip-path="url(#p046b3016ed)" d="M 216.119834 202.224005 
L 219.462359 202.224005 
L 219.462359 199.57888 
L 216.119834 199.57888 
z
" style="fill:#ffa500;"/>
   </g>
   <g id="patch_81">
    <path clip-path="url(#p046b3016ed)" d="M 219.462359 202.224005 
L 222.804884 202.224005 
L 222.804884 199.57888 
L 219.462359 199.57888 
z
" style="fill:#ffa500;"/>
   </g>
   <g id="matplotlib.axis_1">
    <g id="xtick_1">
     <g id="line2d_1">
      <defs>
       <path d="M 0 0 
L 0 3.5 
" id="m6e28526713" style="stroke:#000000;stroke-width:0.8;"/>
      </defs>
      <g>
       <use style="stroke:#000000;stroke-width:0.8;" x="49.675703" xlink:href="#m6e28526713" y="202.224005"/>
      </g>
     </g>
     <g id="text_1">
      <!-- 0.0 -->
      <defs>
       <path d="M 31.78125 66.40625 
Q 24.171875 66.40625 20.328125 58.90625 
Q 16.5 51.421875 16.5 36.375 
Q 16.5 21.390625 20.328125 13.890625 
Q 24.171875 6.390625 31.78125 6.390625 
Q 39.453125 6.390625 43.28125 13.890625 
Q 47.125 21.390625 47.125 36.375 
Q 47.125 51.421875 43.28125 58.90625 
Q 39.453125 66.40625 31.78125 66.40625 
z
M 31.78125 74.21875 
Q 44.046875 74.21875 50.515625 64.515625 
Q 56.984375 54.828125 56.984375 36.375 
Q 56.984375 17.96875 50.515625 8.265625 
Q 44.046875 -1.421875 31.78125 -1.421875 
Q 19.53125 -1.421875 13.0625 8.265625 
Q 6.59375 17.96875 6.59375 36.375 
Q 6.59375 54.828125 13.0625 64.515625 
Q 19.53125 74.21875 31.78125 74.21875 
z
" id="DejaVuSans-48"/>
       <path d="M 10.6875 12.40625 
L 21 12.40625 
L 21 0 
L 10.6875 0 
z
" id="DejaVuSans-46"/>
      </defs>
      <g transform="translate(41.724141 216.822442)scale(0.1 -0.1)">
       <use xlink:href="#DejaVuSans-48"/>
       <use x="63.623047" xlink:href="#DejaVuSans-46"/>
       <use x="95.410156" xlink:href="#DejaVuSans-48"/>
      </g>
     </g>
    </g>
    <g id="xtick_2">
     <g id="line2d_2">
      <g>
       <use style="stroke:#000000;stroke-width:0.8;" x="83.100952" xlink:href="#m6e28526713" y="202.224005"/>
      </g>
     </g>
     <g id="text_2">
      <!-- 0.5 -->
      <defs>
       <path d="M 10.796875 72.90625 
L 49.515625 72.90625 
L 49.515625 64.59375 
L 19.828125 64.59375 
L 19.828125 46.734375 
Q 21.96875 47.46875 24.109375 47.828125 
Q 26.265625 48.1875 28.421875 48.1875 
Q 40.625 48.1875 47.75 41.5 
Q 54.890625 34.8125 54.890625 23.390625 
Q 54.890625 11.625 47.5625 5.09375 
Q 40.234375 -1.421875 26.90625 -1.421875 
Q 22.3125 -1.421875 17.546875 -0.640625 
Q 12.796875 0.140625 7.71875 1.703125 
L 7.71875 11.625 
Q 12.109375 9.234375 16.796875 8.0625 
Q 21.484375 6.890625 26.703125 6.890625 
Q 35.15625 6.890625 40.078125 11.328125 
Q 45.015625 15.765625 45.015625 23.390625 
Q 45.015625 31 40.078125 35.4375 
Q 35.15625 39.890625 26.703125 39.890625 
Q 22.75 39.890625 18.8125 39.015625 
Q 14.890625 38.140625 10.796875 36.28125 
z
" id="DejaVuSans-53"/>
      </defs>
      <g transform="translate(75.14939 216.822442)scale(0.1 -0.1)">
       <use xlink:href="#DejaVuSans-48"/>
       <use x="63.623047" xlink:href="#DejaVuSans-46"/>
       <use x="95.410156" xlink:href="#DejaVuSans-53"/>
      </g>
     </g>
    </g>
    <g id="xtick_3">
     <g id="line2d_3">
      <g>
       <use style="stroke:#000000;stroke-width:0.8;" x="116.526201" xlink:href="#m6e28526713" y="202.224005"/>
      </g>
     </g>
     <g id="text_3">
      <!-- 1.0 -->
      <defs>
       <path d="M 12.40625 8.296875 
L 28.515625 8.296875 
L 28.515625 63.921875 
L 10.984375 60.40625 
L 10.984375 69.390625 
L 28.421875 72.90625 
L 38.28125 72.90625 
L 38.28125 8.296875 
L 54.390625 8.296875 
L 54.390625 0 
L 12.40625 0 
z
" id="DejaVuSans-49"/>
      </defs>
      <g transform="translate(108.574639 216.822442)scale(0.1 -0.1)">
       <use xlink:href="#DejaVuSans-49"/>
       <use x="63.623047" xlink:href="#DejaVuSans-46"/>
       <use x="95.410156" xlink:href="#DejaVuSans-48"/>
      </g>
     </g>
    </g>
    <g id="xtick_4">
     <g id="line2d_4">
      <g>
       <use style="stroke:#000000;stroke-width:0.8;" x="149.95145" xlink:href="#m6e28526713" y="202.224005"/>
      </g>
     </g>
     <g id="text_4">
      <!-- 1.5 -->
      <g transform="translate(141.999888 216.822442)scale(0.1 -0.1)">
       <use xlink:href="#DejaVuSans-49"/>
       <use x="63.623047" xlink:href="#DejaVuSans-46"/>
       <use x="95.410156" xlink:href="#DejaVuSans-53"/>
      </g>
     </g>
    </g>
    <g id="xtick_5">
     <g id="line2d_5">
      <g>
       <use style="stroke:#000000;stroke-width:0.8;" x="183.376699" xlink:href="#m6e28526713" y="202.224005"/>
      </g>
     </g>
     <g id="text_5">
      <!-- 2.0 -->
      <defs>
       <path d="M 19.1875 8.296875 
L 53.609375 8.296875 
L 53.609375 0 
L 7.328125 0 
L 7.328125 8.296875 
Q 12.9375 14.109375 22.625 23.890625 
Q 32.328125 33.6875 34.8125 36.53125 
Q 39.546875 41.84375 41.421875 45.53125 
Q 43.3125 49.21875 43.3125 52.78125 
Q 43.3125 58.59375 39.234375 62.25 
Q 35.15625 65.921875 28.609375 65.921875 
Q 23.96875 65.921875 18.8125 64.3125 
Q 13.671875 62.703125 7.8125 59.421875 
L 7.8125 69.390625 
Q 13.765625 71.78125 18.9375 73 
Q 24.125 74.21875 28.421875 74.21875 
Q 39.75 74.21875 46.484375 68.546875 
Q 53.21875 62.890625 53.21875 53.421875 
Q 53.21875 48.921875 51.53125 44.890625 
Q 49.859375 40.875 45.40625 35.40625 
Q 44.1875 33.984375 37.640625 27.21875 
Q 31.109375 20.453125 19.1875 8.296875 
z
" id="DejaVuSans-50"/>
      </defs>
      <g transform="translate(175.425137 216.822442)scale(0.1 -0.1)">
       <use xlink:href="#DejaVuSans-50"/>
       <use x="63.623047" xlink:href="#DejaVuSans-46"/>
       <use x="95.410156" xlink:href="#DejaVuSans-48"/>
      </g>
     </g>
    </g>
    <g id="xtick_6">
     <g id="line2d_6">
      <g>
       <use style="stroke:#000000;stroke-width:0.8;" x="216.801948" xlink:href="#m6e28526713" y="202.224005"/>
      </g>
     </g>
     <g id="text_6">
      <!-- 2.5 -->
      <g transform="translate(208.850386 216.822442)scale(0.1 -0.1)">
       <use xlink:href="#DejaVuSans-50"/>
       <use x="63.623047" xlink:href="#DejaVuSans-46"/>
       <use x="95.410156" xlink:href="#DejaVuSans-53"/>
      </g>
     </g>
    </g>
    <g id="xtick_7">
     <g id="line2d_7">
      <g>
       <use style="stroke:#000000;stroke-width:0.8;" x="250.227197" xlink:href="#m6e28526713" y="202.224005"/>
      </g>
     </g>
     <g id="text_7">
      <!-- 3.0 -->
      <defs>
       <path d="M 40.578125 39.3125 
Q 47.65625 37.796875 51.625 33 
Q 55.609375 28.21875 55.609375 21.1875 
Q 55.609375 10.40625 48.1875 4.484375 
Q 40.765625 -1.421875 27.09375 -1.421875 
Q 22.515625 -1.421875 17.65625 -0.515625 
Q 12.796875 0.390625 7.625 2.203125 
L 7.625 11.71875 
Q 11.71875 9.328125 16.59375 8.109375 
Q 21.484375 6.890625 26.8125 6.890625 
Q 36.078125 6.890625 40.9375 10.546875 
Q 45.796875 14.203125 45.796875 21.1875 
Q 45.796875 27.640625 41.28125 31.265625 
Q 36.765625 34.90625 28.71875 34.90625 
L 20.21875 34.90625 
L 20.21875 43.015625 
L 29.109375 43.015625 
Q 36.375 43.015625 40.234375 45.921875 
Q 44.09375 48.828125 44.09375 54.296875 
Q 44.09375 59.90625 40.109375 62.90625 
Q 36.140625 65.921875 28.71875 65.921875 
Q 24.65625 65.921875 20.015625 65.03125 
Q 15.375 64.15625 9.8125 62.3125 
L 9.8125 71.09375 
Q 15.4375 72.65625 20.34375 73.4375 
Q 25.25 74.21875 29.59375 74.21875 
Q 40.828125 74.21875 47.359375 69.109375 
Q 53.90625 64.015625 53.90625 55.328125 
Q 53.90625 49.265625 50.4375 45.09375 
Q 46.96875 40.921875 40.578125 39.3125 
z
" id="DejaVuSans-51"/>
      </defs>
      <g transform="translate(242.275635 216.822442)scale(0.1 -0.1)">
       <use xlink:href="#DejaVuSans-51"/>
       <use x="63.623047" xlink:href="#DejaVuSans-46"/>
       <use x="95.410156" xlink:href="#DejaVuSans-48"/>
      </g>
     </g>
    </g>
    <g id="xtick_8">
     <g id="line2d_8">
      <g>
       <use style="stroke:#000000;stroke-width:0.8;" x="283.652446" xlink:href="#m6e28526713" y="202.224005"/>
      </g>
     </g>
     <g id="text_8">
      <!-- 3.5 -->
      <g transform="translate(275.700884 216.822442)scale(0.1 -0.1)">
       <use xlink:href="#DejaVuSans-51"/>
       <use x="63.623047" xlink:href="#DejaVuSans-46"/>
       <use x="95.410156" xlink:href="#DejaVuSans-53"/>
      </g>
     </g>
    </g>
    <g id="xtick_9">
     <g id="line2d_9">
      <g>
       <use style="stroke:#000000;stroke-width:0.8;" x="317.077695" xlink:href="#m6e28526713" y="202.224005"/>
      </g>
     </g>
     <g id="text_9">
      <!-- 4.0 -->
      <defs>
       <path d="M 37.796875 64.3125 
L 12.890625 25.390625 
L 37.796875 25.390625 
z
M 35.203125 72.90625 
L 47.609375 72.90625 
L 47.609375 25.390625 
L 58.015625 25.390625 
L 58.015625 17.1875 
L 47.609375 17.1875 
L 47.609375 0 
L 37.796875 0 
L 37.796875 17.1875 
L 4.890625 17.1875 
L 4.890625 26.703125 
z
" id="DejaVuSans-52"/>
      </defs>
      <g transform="translate(309.126133 216.822442)scale(0.1 -0.1)">
       <use xlink:href="#DejaVuSans-52"/>
       <use x="63.623047" xlink:href="#DejaVuSans-46"/>
       <use x="95.410156" xlink:href="#DejaVuSans-48"/>
      </g>
     </g>
    </g>
    <g id="text_10">
     <!-- log(RFU) -->
     <defs>
      <path d="M 9.421875 75.984375 
L 18.40625 75.984375 
L 18.40625 0 
L 9.421875 0 
z
" id="DejaVuSans-108"/>
      <path d="M 30.609375 48.390625 
Q 23.390625 48.390625 19.1875 42.75 
Q 14.984375 37.109375 14.984375 27.296875 
Q 14.984375 17.484375 19.15625 11.84375 
Q 23.34375 6.203125 30.609375 6.203125 
Q 37.796875 6.203125 41.984375 11.859375 
Q 46.1875 17.53125 46.1875 27.296875 
Q 46.1875 37.015625 41.984375 42.703125 
Q 37.796875 48.390625 30.609375 48.390625 
z
M 30.609375 56 
Q 42.328125 56 49.015625 48.375 
Q 55.71875 40.765625 55.71875 27.296875 
Q 55.71875 13.875 49.015625 6.21875 
Q 42.328125 -1.421875 30.609375 -1.421875 
Q 18.84375 -1.421875 12.171875 6.21875 
Q 5.515625 13.875 5.515625 27.296875 
Q 5.515625 40.765625 12.171875 48.375 
Q 18.84375 56 30.609375 56 
z
" id="DejaVuSans-111"/>
      <path d="M 45.40625 27.984375 
Q 45.40625 37.75 41.375 43.109375 
Q 37.359375 48.484375 30.078125 48.484375 
Q 22.859375 48.484375 18.828125 43.109375 
Q 14.796875 37.75 14.796875 27.984375 
Q 14.796875 18.265625 18.828125 12.890625 
Q 22.859375 7.515625 30.078125 7.515625 
Q 37.359375 7.515625 41.375 12.890625 
Q 45.40625 18.265625 45.40625 27.984375 
z
M 54.390625 6.78125 
Q 54.390625 -7.171875 48.1875 -13.984375 
Q 42 -20.796875 29.203125 -20.796875 
Q 24.46875 -20.796875 20.265625 -20.09375 
Q 16.0625 -19.390625 12.109375 -17.921875 
L 12.109375 -9.1875 
Q 16.0625 -11.328125 19.921875 -12.34375 
Q 23.78125 -13.375 27.78125 -13.375 
Q 36.625 -13.375 41.015625 -8.765625 
Q 45.40625 -4.15625 45.40625 5.171875 
L 45.40625 9.625 
Q 42.625 4.78125 38.28125 2.390625 
Q 33.9375 0 27.875 0 
Q 17.828125 0 11.671875 7.65625 
Q 5.515625 15.328125 5.515625 27.984375 
Q 5.515625 40.671875 11.671875 48.328125 
Q 17.828125 56 27.875 56 
Q 33.9375 56 38.28125 53.609375 
Q 42.625 51.21875 45.40625 46.390625 
L 45.40625 54.6875 
L 54.390625 54.6875 
z
" id="DejaVuSans-103"/>
      <path d="M 31 75.875 
Q 24.46875 64.65625 21.28125 53.65625 
Q 18.109375 42.671875 18.109375 31.390625 
Q 18.109375 20.125 21.3125 9.0625 
Q 24.515625 -2 31 -13.1875 
L 23.1875 -13.1875 
Q 15.875 -1.703125 12.234375 9.375 
Q 8.59375 20.453125 8.59375 31.390625 
Q 8.59375 42.28125 12.203125 53.3125 
Q 15.828125 64.359375 23.1875 75.875 
z
" id="DejaVuSans-40"/>
      <path d="M 44.390625 34.1875 
Q 47.5625 33.109375 50.5625 29.59375 
Q 53.5625 26.078125 56.59375 19.921875 
L 66.609375 0 
L 56 0 
L 46.6875 18.703125 
Q 43.0625 26.03125 39.671875 28.421875 
Q 36.28125 30.8125 30.421875 30.8125 
L 19.671875 30.8125 
L 19.671875 0 
L 9.8125 0 
L 9.8125 72.90625 
L 32.078125 72.90625 
Q 44.578125 72.90625 50.734375 67.671875 
Q 56.890625 62.453125 56.890625 51.90625 
Q 56.890625 45.015625 53.6875 40.46875 
Q 50.484375 35.9375 44.390625 34.1875 
z
M 19.671875 64.796875 
L 19.671875 38.921875 
L 32.078125 38.921875 
Q 39.203125 38.921875 42.84375 42.21875 
Q 46.484375 45.515625 46.484375 51.90625 
Q 46.484375 58.296875 42.84375 61.546875 
Q 39.203125 64.796875 32.078125 64.796875 
z
" id="DejaVuSans-82"/>
      <path d="M 9.8125 72.90625 
L 51.703125 72.90625 
L 51.703125 64.59375 
L 19.671875 64.59375 
L 19.671875 43.109375 
L 48.578125 43.109375 
L 48.578125 34.8125 
L 19.671875 34.8125 
L 19.671875 0 
L 9.8125 0 
z
" id="DejaVuSans-70"/>
      <path d="M 8.6875 72.90625 
L 18.609375 72.90625 
L 18.609375 28.609375 
Q 18.609375 16.890625 22.84375 11.734375 
Q 27.09375 6.59375 36.625 6.59375 
Q 46.09375 6.59375 50.34375 11.734375 
Q 54.59375 16.890625 54.59375 28.609375 
L 54.59375 72.90625 
L 64.5 72.90625 
L 64.5 27.390625 
Q 64.5 13.140625 57.4375 5.859375 
Q 50.390625 -1.421875 36.625 -1.421875 
Q 22.796875 -1.421875 15.734375 5.859375 
Q 8.6875 13.140625 8.6875 27.390625 
z
" id="DejaVuSans-85"/>
      <path d="M 8.015625 75.875 
L 15.828125 75.875 
Q 23.140625 64.359375 26.78125 53.3125 
Q 30.421875 42.28125 30.421875 31.390625 
Q 30.421875 20.453125 26.78125 9.375 
Q 23.140625 -1.703125 15.828125 -13.1875 
L 8.015625 -13.1875 
Q 14.5 -2 17.703125 9.0625 
Q 20.90625 20.125 20.90625 31.390625 
Q 20.90625 42.671875 17.703125 53.65625 
Q 14.5 64.65625 8.015625 75.875 
z
" id="DejaVuSans-41"/>
     </defs>
     <g transform="translate(160.865493 230.500567)scale(0.1 -0.1)">
      <use xlink:href="#DejaVuSans-108"/>
      <use x="27.783203" xlink:href="#DejaVuSans-111"/>
      <use x="88.964844" xlink:href="#DejaVuSans-103"/>
      <use x="152.441406" xlink:href="#DejaVuSans-40"/>
      <use x="191.455078" xlink:href="#DejaVuSans-82"/>
      <use x="260.9375" xlink:href="#DejaVuSans-70"/>
      <use x="318.457031" xlink:href="#DejaVuSans-85"/>
      <use x="391.650391" xlink:href="#DejaVuSans-41"/>
     </g>
    </g>
   </g>
   <g id="matplotlib.axis_2">
    <g id="ytick_1">
     <g id="line2d_10">
      <defs>
       <path d="M 0 0 
L -3.5 0 
" id="md1c7caf69f" style="stroke:#000000;stroke-width:0.8;"/>
      </defs>
      <g>
       <use style="stroke:#000000;stroke-width:0.8;" x="36.403365" xlink:href="#md1c7caf69f" y="202.224005"/>
      </g>
     </g>
     <g id="text_11">
      <!-- 0 -->
      <g transform="translate(23.040865 206.023224)scale(0.1 -0.1)">
       <use xlink:href="#DejaVuSans-48"/>
      </g>
     </g>
    </g>
    <g id="ytick_2">
     <g id="line2d_11">
      <g>
       <use style="stroke:#000000;stroke-width:0.8;" x="36.403365" xlink:href="#md1c7caf69f" y="175.772758"/>
      </g>
     </g>
     <g id="text_12">
      <!-- 10 -->
      <g transform="translate(16.678365 179.571977)scale(0.1 -0.1)">
       <use xlink:href="#DejaVuSans-49"/>
       <use x="63.623047" xlink:href="#DejaVuSans-48"/>
      </g>
     </g>
    </g>
    <g id="ytick_3">
     <g id="line2d_12">
      <g>
       <use style="stroke:#000000;stroke-width:0.8;" x="36.403365" xlink:href="#md1c7caf69f" y="149.321511"/>
      </g>
     </g>
     <g id="text_13">
      <!-- 20 -->
      <g transform="translate(16.678365 153.12073)scale(0.1 -0.1)">
       <use xlink:href="#DejaVuSans-50"/>
       <use x="63.623047" xlink:href="#DejaVuSans-48"/>
      </g>
     </g>
    </g>
    <g id="ytick_4">
     <g id="line2d_13">
      <g>
       <use style="stroke:#000000;stroke-width:0.8;" x="36.403365" xlink:href="#md1c7caf69f" y="122.870264"/>
      </g>
     </g>
     <g id="text_14">
      <!-- 30 -->
      <g transform="translate(16.678365 126.669483)scale(0.1 -0.1)">
       <use xlink:href="#DejaVuSans-51"/>
       <use x="63.623047" xlink:href="#DejaVuSans-48"/>
      </g>
     </g>
    </g>
    <g id="ytick_5">
     <g id="line2d_14">
      <g>
       <use style="stroke:#000000;stroke-width:0.8;" x="36.403365" xlink:href="#md1c7caf69f" y="96.419017"/>
      </g>
     </g>
     <g id="text_15">
      <!-- 40 -->
      <g transform="translate(16.678365 100.218235)scale(0.1 -0.1)">
       <use xlink:href="#DejaVuSans-52"/>
       <use x="63.623047" xlink:href="#DejaVuSans-48"/>
      </g>
     </g>
    </g>
    <g id="text_16">
     <!-- Counts -->
     <defs>
      <path d="M 64.40625 67.28125 
L 64.40625 56.890625 
Q 59.421875 61.53125 53.78125 63.8125 
Q 48.140625 66.109375 41.796875 66.109375 
Q 29.296875 66.109375 22.65625 58.46875 
Q 16.015625 50.828125 16.015625 36.375 
Q 16.015625 21.96875 22.65625 14.328125 
Q 29.296875 6.6875 41.796875 6.6875 
Q 48.140625 6.6875 53.78125 8.984375 
Q 59.421875 11.28125 64.40625 15.921875 
L 64.40625 5.609375 
Q 59.234375 2.09375 53.4375 0.328125 
Q 47.65625 -1.421875 41.21875 -1.421875 
Q 24.65625 -1.421875 15.125 8.703125 
Q 5.609375 18.84375 5.609375 36.375 
Q 5.609375 53.953125 15.125 64.078125 
Q 24.65625 74.21875 41.21875 74.21875 
Q 47.75 74.21875 53.53125 72.484375 
Q 59.328125 70.75 64.40625 67.28125 
z
" id="DejaVuSans-67"/>
      <path d="M 8.5 21.578125 
L 8.5 54.6875 
L 17.484375 54.6875 
L 17.484375 21.921875 
Q 17.484375 14.15625 20.5 10.265625 
Q 23.53125 6.390625 29.59375 6.390625 
Q 36.859375 6.390625 41.078125 11.03125 
Q 45.3125 15.671875 45.3125 23.6875 
L 45.3125 54.6875 
L 54.296875 54.6875 
L 54.296875 0 
L 45.3125 0 
L 45.3125 8.40625 
Q 42.046875 3.421875 37.71875 1 
Q 33.40625 -1.421875 27.6875 -1.421875 
Q 18.265625 -1.421875 13.375 4.4375 
Q 8.5 10.296875 8.5 21.578125 
z
M 31.109375 56 
z
" id="DejaVuSans-117"/>
      <path d="M 54.890625 33.015625 
L 54.890625 0 
L 45.90625 0 
L 45.90625 32.71875 
Q 45.90625 40.484375 42.875 44.328125 
Q 39.84375 48.1875 33.796875 48.1875 
Q 26.515625 48.1875 22.3125 43.546875 
Q 18.109375 38.921875 18.109375 30.90625 
L 18.109375 0 
L 9.078125 0 
L 9.078125 54.6875 
L 18.109375 54.6875 
L 18.109375 46.1875 
Q 21.34375 51.125 25.703125 53.5625 
Q 30.078125 56 35.796875 56 
Q 45.21875 56 50.046875 50.171875 
Q 54.890625 44.34375 54.890625 33.015625 
z
" id="DejaVuSans-110"/>
      <path d="M 18.3125 70.21875 
L 18.3125 54.6875 
L 36.8125 54.6875 
L 36.8125 47.703125 
L 18.3125 47.703125 
L 18.3125 18.015625 
Q 18.3125 11.328125 20.140625 9.421875 
Q 21.96875 7.515625 27.59375 7.515625 
L 36.8125 7.515625 
L 36.8125 0 
L 27.59375 0 
Q 17.1875 0 13.234375 3.875 
Q 9.28125 7.765625 9.28125 18.015625 
L 9.28125 47.703125 
L 2.6875 47.703125 
L 2.6875 54.6875 
L 9.28125 54.6875 
L 9.28125 70.21875 
z
" id="DejaVuSans-116"/>
      <path d="M 44.28125 53.078125 
L 44.28125 44.578125 
Q 40.484375 46.53125 36.375 47.5 
Q 32.28125 48.484375 27.875 48.484375 
Q 21.1875 48.484375 17.84375 46.4375 
Q 14.5 44.390625 14.5 40.28125 
Q 14.5 37.15625 16.890625 35.375 
Q 19.28125 33.59375 26.515625 31.984375 
L 29.59375 31.296875 
Q 39.15625 29.25 43.1875 25.515625 
Q 47.21875 21.78125 47.21875 15.09375 
Q 47.21875 7.46875 41.1875 3.015625 
Q 35.15625 -1.421875 24.609375 -1.421875 
Q 20.21875 -1.421875 15.453125 -0.5625 
Q 10.6875 0.296875 5.421875 2 
L 5.421875 11.28125 
Q 10.40625 8.6875 15.234375 7.390625 
Q 20.0625 6.109375 24.8125 6.109375 
Q 31.15625 6.109375 34.5625 8.28125 
Q 37.984375 10.453125 37.984375 14.40625 
Q 37.984375 18.0625 35.515625 20.015625 
Q 33.0625 21.96875 24.703125 23.78125 
L 21.578125 24.515625 
Q 13.234375 26.265625 9.515625 29.90625 
Q 5.8125 33.546875 5.8125 39.890625 
Q 5.8125 47.609375 11.28125 51.796875 
Q 16.75 56 26.8125 56 
Q 31.78125 56 36.171875 55.265625 
Q 40.578125 54.546875 44.28125 53.078125 
z
" id="DejaVuSans-115"/>
     </defs>
     <g transform="translate(10.598677 155.797368)rotate(-90)scale(0.1 -0.1)">
      <use xlink:href="#DejaVuSans-67"/>
      <use x="69.824219" xlink:href="#DejaVuSans-111"/>
      <use x="131.005859" xlink:href="#DejaVuSans-117"/>
      <use x="194.384766" xlink:href="#DejaVuSans-110"/>
      <use x="257.763672" xlink:href="#DejaVuSans-116"/>
      <use x="296.972656" xlink:href="#DejaVuSans-115"/>
     </g>
    </g>
   </g>
   <g id="patch_82">
    <path d="M 36.403365 202.224005 
L 36.403365 74.464482 
" style="fill:none;stroke:#000000;stroke-linecap:square;stroke-linejoin:miter;stroke-width:0.8;"/>
   </g>
   <g id="patch_83">
    <path d="M 328.394809 202.224005 
L 328.394809 74.464482 
" style="fill:none;stroke:#000000;stroke-linecap:square;stroke-linejoin:miter;stroke-width:0.8;"/>
   </g>
   <g id="patch_84">
    <path d="M 36.403365 202.224005 
L 328.394809 202.224005 
" style="fill:none;stroke:#000000;stroke-linecap:square;stroke-linejoin:miter;stroke-width:0.8;"/>
   </g>
   <g id="patch_85">
    <path d="M 36.403365 74.464482 
L 328.394809 74.464482 
" style="fill:none;stroke:#000000;stroke-linecap:square;stroke-linejoin:miter;stroke-width:0.8;"/>
   </g>
  </g>
  <g id="axes_2">
   <g id="patch_86">
    <path d="M 36.403365 439.907885 
L 228.296167 439.907885 
L 228.296167 242.10036 
L 36.403365 242.10036 
z
" style="fill:#ffffff;"/>
   </g>
   <g id="patch_87">
    <path clip-path="url(#pd2f94ccbf8)" d="M 36.403365 430.916634 
L 107.97843 430.916634 
L 107.97843 379.538056 
L 36.403365 379.538056 
z
" style="fill:#1f77b4;"/>
   </g>
   <g id="patch_88">
    <path clip-path="url(#pd2f94ccbf8)" d="M 36.403365 366.693411 
L 190.864795 366.693411 
L 190.864795 315.314834 
L 36.403365 315.314834 
z
" style="fill:#1f77b4;"/>
   </g>
   <g id="patch_89">
    <path clip-path="url(#pd2f94ccbf8)" d="M 36.403365 302.470189 
L 219.158415 302.470189 
L 219.158415 251.091611 
L 36.403365 251.091611 
z
" style="fill:#1f77b4;"/>
   </g>
   <g id="matplotlib.axis_3">
    <g id="xtick_10">
     <g id="line2d_15">
      <g>
       <use style="stroke:#000000;stroke-width:0.8;" x="36.403365" xlink:href="#m6e28526713" y="439.907885"/>
      </g>
     </g>
     <g id="text_17">
      <!-- 0 -->
      <g transform="translate(33.222115 454.506323)scale(0.1 -0.1)">
       <use xlink:href="#DejaVuSans-48"/>
      </g>
     </g>
    </g>
    <g id="xtick_11">
     <g id="line2d_16">
      <g>
       <use style="stroke:#000000;stroke-width:0.8;" x="84.505985" xlink:href="#m6e28526713" y="439.907885"/>
      </g>
     </g>
     <g id="text_18">
      <!-- 2 -->
      <g transform="translate(81.324735 454.506323)scale(0.1 -0.1)">
       <use xlink:href="#DejaVuSans-50"/>
      </g>
     </g>
    </g>
    <g id="xtick_12">
     <g id="line2d_17">
      <g>
       <use style="stroke:#000000;stroke-width:0.8;" x="132.608606" xlink:href="#m6e28526713" y="439.907885"/>
      </g>
     </g>
     <g id="text_19">
      <!-- 4 -->
      <g transform="translate(129.427356 454.506323)scale(0.1 -0.1)">
       <use xlink:href="#DejaVuSans-52"/>
      </g>
     </g>
    </g>
    <g id="xtick_13">
     <g id="line2d_18">
      <g>
       <use style="stroke:#000000;stroke-width:0.8;" x="180.711226" xlink:href="#m6e28526713" y="439.907885"/>
      </g>
     </g>
     <g id="text_20">
      <!-- 6 -->
      <defs>
       <path d="M 33.015625 40.375 
Q 26.375 40.375 22.484375 35.828125 
Q 18.609375 31.296875 18.609375 23.390625 
Q 18.609375 15.53125 22.484375 10.953125 
Q 26.375 6.390625 33.015625 6.390625 
Q 39.65625 6.390625 43.53125 10.953125 
Q 47.40625 15.53125 47.40625 23.390625 
Q 47.40625 31.296875 43.53125 35.828125 
Q 39.65625 40.375 33.015625 40.375 
z
M 52.59375 71.296875 
L 52.59375 62.3125 
Q 48.875 64.0625 45.09375 64.984375 
Q 41.3125 65.921875 37.59375 65.921875 
Q 27.828125 65.921875 22.671875 59.328125 
Q 17.53125 52.734375 16.796875 39.40625 
Q 19.671875 43.65625 24.015625 45.921875 
Q 28.375 48.1875 33.59375 48.1875 
Q 44.578125 48.1875 50.953125 41.515625 
Q 57.328125 34.859375 57.328125 23.390625 
Q 57.328125 12.15625 50.6875 5.359375 
Q 44.046875 -1.421875 33.015625 -1.421875 
Q 20.359375 -1.421875 13.671875 8.265625 
Q 6.984375 17.96875 6.984375 36.375 
Q 6.984375 53.65625 15.1875 63.9375 
Q 23.390625 74.21875 37.203125 74.21875 
Q 40.921875 74.21875 44.703125 73.484375 
Q 48.484375 72.75 52.59375 71.296875 
z
" id="DejaVuSans-54"/>
      </defs>
      <g transform="translate(177.529976 454.506323)scale(0.1 -0.1)">
       <use xlink:href="#DejaVuSans-54"/>
      </g>
     </g>
    </g>
    <g id="text_21">
     <!-- Model Coefficient -->
     <defs>
      <path d="M 9.8125 72.90625 
L 24.515625 72.90625 
L 43.109375 23.296875 
L 61.8125 72.90625 
L 76.515625 72.90625 
L 76.515625 0 
L 66.890625 0 
L 66.890625 64.015625 
L 48.09375 14.015625 
L 38.1875 14.015625 
L 19.390625 64.015625 
L 19.390625 0 
L 9.8125 0 
z
" id="DejaVuSans-77"/>
      <path d="M 45.40625 46.390625 
L 45.40625 75.984375 
L 54.390625 75.984375 
L 54.390625 0 
L 45.40625 0 
L 45.40625 8.203125 
Q 42.578125 3.328125 38.25 0.953125 
Q 33.9375 -1.421875 27.875 -1.421875 
Q 17.96875 -1.421875 11.734375 6.484375 
Q 5.515625 14.40625 5.515625 27.296875 
Q 5.515625 40.1875 11.734375 48.09375 
Q 17.96875 56 27.875 56 
Q 33.9375 56 38.25 53.625 
Q 42.578125 51.265625 45.40625 46.390625 
z
M 14.796875 27.296875 
Q 14.796875 17.390625 18.875 11.75 
Q 22.953125 6.109375 30.078125 6.109375 
Q 37.203125 6.109375 41.296875 11.75 
Q 45.40625 17.390625 45.40625 27.296875 
Q 45.40625 37.203125 41.296875 42.84375 
Q 37.203125 48.484375 30.078125 48.484375 
Q 22.953125 48.484375 18.875 42.84375 
Q 14.796875 37.203125 14.796875 27.296875 
z
" id="DejaVuSans-100"/>
      <path d="M 56.203125 29.59375 
L 56.203125 25.203125 
L 14.890625 25.203125 
Q 15.484375 15.921875 20.484375 11.0625 
Q 25.484375 6.203125 34.421875 6.203125 
Q 39.59375 6.203125 44.453125 7.46875 
Q 49.3125 8.734375 54.109375 11.28125 
L 54.109375 2.78125 
Q 49.265625 0.734375 44.1875 -0.34375 
Q 39.109375 -1.421875 33.890625 -1.421875 
Q 20.796875 -1.421875 13.15625 6.1875 
Q 5.515625 13.8125 5.515625 26.8125 
Q 5.515625 40.234375 12.765625 48.109375 
Q 20.015625 56 32.328125 56 
Q 43.359375 56 49.78125 48.890625 
Q 56.203125 41.796875 56.203125 29.59375 
z
M 47.21875 32.234375 
Q 47.125 39.59375 43.09375 43.984375 
Q 39.0625 48.390625 32.421875 48.390625 
Q 24.90625 48.390625 20.390625 44.140625 
Q 15.875 39.890625 15.1875 32.171875 
z
" id="DejaVuSans-101"/>
      <path id="DejaVuSans-32"/>
      <path d="M 37.109375 75.984375 
L 37.109375 68.5 
L 28.515625 68.5 
Q 23.6875 68.5 21.796875 66.546875 
Q 19.921875 64.59375 19.921875 59.515625 
L 19.921875 54.6875 
L 34.71875 54.6875 
L 34.71875 47.703125 
L 19.921875 47.703125 
L 19.921875 0 
L 10.890625 0 
L 10.890625 47.703125 
L 2.296875 47.703125 
L 2.296875 54.6875 
L 10.890625 54.6875 
L 10.890625 58.5 
Q 10.890625 67.625 15.140625 71.796875 
Q 19.390625 75.984375 28.609375 75.984375 
z
" id="DejaVuSans-102"/>
      <path d="M 9.421875 54.6875 
L 18.40625 54.6875 
L 18.40625 0 
L 9.421875 0 
z
M 9.421875 75.984375 
L 18.40625 75.984375 
L 18.40625 64.59375 
L 9.421875 64.59375 
z
" id="DejaVuSans-105"/>
      <path d="M 48.78125 52.59375 
L 48.78125 44.1875 
Q 44.96875 46.296875 41.140625 47.34375 
Q 37.3125 48.390625 33.40625 48.390625 
Q 24.65625 48.390625 19.8125 42.84375 
Q 14.984375 37.3125 14.984375 27.296875 
Q 14.984375 17.28125 19.8125 11.734375 
Q 24.65625 6.203125 33.40625 6.203125 
Q 37.3125 6.203125 41.140625 7.25 
Q 44.96875 8.296875 48.78125 10.40625 
L 48.78125 2.09375 
Q 45.015625 0.34375 40.984375 -0.53125 
Q 36.96875 -1.421875 32.421875 -1.421875 
Q 20.0625 -1.421875 12.78125 6.34375 
Q 5.515625 14.109375 5.515625 27.296875 
Q 5.515625 40.671875 12.859375 48.328125 
Q 20.21875 56 33.015625 56 
Q 37.15625 56 41.109375 55.140625 
Q 45.0625 54.296875 48.78125 52.59375 
z
" id="DejaVuSans-99"/>
     </defs>
     <g transform="translate(80.170391 469.704135)scale(0.12 -0.12)">
      <use xlink:href="#DejaVuSans-77"/>
      <use x="86.279297" xlink:href="#DejaVuSans-111"/>
      <use x="147.460938" xlink:href="#DejaVuSans-100"/>
      <use x="210.9375" xlink:href="#DejaVuSans-101"/>
      <use x="272.460938" xlink:href="#DejaVuSans-108"/>
      <use x="300.244141" xlink:href="#DejaVuSans-32"/>
      <use x="332.03125" xlink:href="#DejaVuSans-67"/>
      <use x="401.855469" xlink:href="#DejaVuSans-111"/>
      <use x="463.037109" xlink:href="#DejaVuSans-101"/>
      <use x="524.560547" xlink:href="#DejaVuSans-102"/>
      <use x="559.765625" xlink:href="#DejaVuSans-102"/>
      <use x="594.970703" xlink:href="#DejaVuSans-105"/>
      <use x="622.753906" xlink:href="#DejaVuSans-99"/>
      <use x="677.734375" xlink:href="#DejaVuSans-105"/>
      <use x="705.517578" xlink:href="#DejaVuSans-101"/>
      <use x="767.041016" xlink:href="#DejaVuSans-110"/>
      <use x="830.419922" xlink:href="#DejaVuSans-116"/>
     </g>
    </g>
   </g>
   <g id="matplotlib.axis_4">
    <g id="ytick_6"/>
    <g id="ytick_7"/>
    <g id="ytick_8"/>
    <g id="ytick_9"/>
    <g id="ytick_10"/>
    <g id="ytick_11"/>
    <g id="ytick_12"/>
    <g id="text_22">
     <!-- Motif -->
     <g transform="translate(22.90774 355.983497)rotate(-90)scale(0.12 -0.12)">
      <use xlink:href="#DejaVuSans-77"/>
      <use x="86.279297" xlink:href="#DejaVuSans-111"/>
      <use x="147.460938" xlink:href="#DejaVuSans-116"/>
      <use x="186.669922" xlink:href="#DejaVuSans-105"/>
      <use x="214.453125" xlink:href="#DejaVuSans-102"/>
     </g>
    </g>
   </g>
   <g id="patch_90">
    <path d="M 36.403365 439.907885 
L 36.403365 242.10036 
" style="fill:none;stroke:#000000;stroke-linecap:square;stroke-linejoin:miter;stroke-width:0.8;"/>
   </g>
   <g id="patch_91">
    <path d="M 228.296167 439.907885 
L 228.296167 242.10036 
" style="fill:none;stroke:#000000;stroke-linecap:square;stroke-linejoin:miter;stroke-width:0.8;"/>
   </g>
   <g id="patch_92">
    <path d="M 36.403365 439.907885 
L 228.296167 439.907885 
" style="fill:none;stroke:#000000;stroke-linecap:square;stroke-linejoin:miter;stroke-width:0.8;"/>
   </g>
   <g id="patch_93">
    <path d="M 36.403365 242.10036 
L 228.296167 242.10036 
" style="fill:none;stroke:#000000;stroke-linecap:square;stroke-linejoin:miter;stroke-width:0.8;"/>
   </g>
  </g>
  <g id="axes_3">
   <g id="patch_94">
    <path d="M 375.216164 439.907885 
L 567.108966 439.907885 
L 567.108966 242.10036 
L 375.216164 242.10036 
z
" style="fill:#ffffff;"/>
   </g>
   <g id="patch_95">
    <path clip-path="url(#p8a64172d69)" d="M 375.216164 433.314301 
L 551.187547 433.314301 
L 551.187547 380.565627 
L 375.216164 380.565627 
z
" style="fill:#808080;"/>
   </g>
   <g id="patch_96">
    <path clip-path="url(#p8a64172d69)" d="M 375.216164 367.378459 
L 529.011781 367.378459 
L 529.011781 314.629786 
L 375.216164 314.629786 
z
" style="fill:#808080;"/>
   </g>
   <g id="patch_97">
    <path clip-path="url(#p8a64172d69)" d="M 375.216164 301.442617 
L 557.971213 301.442617 
L 557.971213 248.693944 
L 375.216164 248.693944 
z
" style="fill:#808080;"/>
   </g>
   <g id="matplotlib.axis_5">
    <g id="xtick_14">
     <g id="line2d_19">
      <g>
       <use style="stroke:#000000;stroke-width:0.8;" x="375.216164" xlink:href="#m6e28526713" y="439.907885"/>
      </g>
     </g>
     <g id="text_23">
      <!-- 0.0 -->
      <g transform="translate(367.264601 454.506323)scale(0.1 -0.1)">
       <use xlink:href="#DejaVuSans-48"/>
       <use x="63.623047" xlink:href="#DejaVuSans-46"/>
       <use x="95.410156" xlink:href="#DejaVuSans-48"/>
      </g>
     </g>
    </g>
    <g id="xtick_15">
     <g id="line2d_20">
      <g>
       <use style="stroke:#000000;stroke-width:0.8;" x="438.483956" xlink:href="#m6e28526713" y="439.907885"/>
      </g>
     </g>
     <g id="text_24">
      <!-- 0.5 -->
      <g transform="translate(430.532393 454.506323)scale(0.1 -0.1)">
       <use xlink:href="#DejaVuSans-48"/>
       <use x="63.623047" xlink:href="#DejaVuSans-46"/>
       <use x="95.410156" xlink:href="#DejaVuSans-53"/>
      </g>
     </g>
    </g>
    <g id="xtick_16">
     <g id="line2d_21">
      <g>
       <use style="stroke:#000000;stroke-width:0.8;" x="501.751748" xlink:href="#m6e28526713" y="439.907885"/>
      </g>
     </g>
     <g id="text_25">
      <!-- 1.0 -->
      <g transform="translate(493.800186 454.506323)scale(0.1 -0.1)">
       <use xlink:href="#DejaVuSans-49"/>
       <use x="63.623047" xlink:href="#DejaVuSans-46"/>
       <use x="95.410156" xlink:href="#DejaVuSans-48"/>
      </g>
     </g>
    </g>
    <g id="xtick_17">
     <g id="line2d_22">
      <g>
       <use style="stroke:#000000;stroke-width:0.8;" x="565.019541" xlink:href="#m6e28526713" y="439.907885"/>
      </g>
     </g>
     <g id="text_26">
      <!-- 1.5 -->
      <g transform="translate(557.067978 454.506323)scale(0.1 -0.1)">
       <use xlink:href="#DejaVuSans-49"/>
       <use x="63.623047" xlink:href="#DejaVuSans-46"/>
       <use x="95.410156" xlink:href="#DejaVuSans-53"/>
      </g>
     </g>
    </g>
    <g id="text_27">
     <!-- Variance Inflation Factor -->
     <defs>
      <path d="M 28.609375 0 
L 0.78125 72.90625 
L 11.078125 72.90625 
L 34.1875 11.53125 
L 57.328125 72.90625 
L 67.578125 72.90625 
L 39.796875 0 
z
" id="DejaVuSans-86"/>
      <path d="M 34.28125 27.484375 
Q 23.390625 27.484375 19.1875 25 
Q 14.984375 22.515625 14.984375 16.5 
Q 14.984375 11.71875 18.140625 8.90625 
Q 21.296875 6.109375 26.703125 6.109375 
Q 34.1875 6.109375 38.703125 11.40625 
Q 43.21875 16.703125 43.21875 25.484375 
L 43.21875 27.484375 
z
M 52.203125 31.203125 
L 52.203125 0 
L 43.21875 0 
L 43.21875 8.296875 
Q 40.140625 3.328125 35.546875 0.953125 
Q 30.953125 -1.421875 24.3125 -1.421875 
Q 15.921875 -1.421875 10.953125 3.296875 
Q 6 8.015625 6 15.921875 
Q 6 25.140625 12.171875 29.828125 
Q 18.359375 34.515625 30.609375 34.515625 
L 43.21875 34.515625 
L 43.21875 35.40625 
Q 43.21875 41.609375 39.140625 45 
Q 35.0625 48.390625 27.6875 48.390625 
Q 23 48.390625 18.546875 47.265625 
Q 14.109375 46.140625 10.015625 43.890625 
L 10.015625 52.203125 
Q 14.9375 54.109375 19.578125 55.046875 
Q 24.21875 56 28.609375 56 
Q 40.484375 56 46.34375 49.84375 
Q 52.203125 43.703125 52.203125 31.203125 
z
" id="DejaVuSans-97"/>
      <path d="M 41.109375 46.296875 
Q 39.59375 47.171875 37.8125 47.578125 
Q 36.03125 48 33.890625 48 
Q 26.265625 48 22.1875 43.046875 
Q 18.109375 38.09375 18.109375 28.8125 
L 18.109375 0 
L 9.078125 0 
L 9.078125 54.6875 
L 18.109375 54.6875 
L 18.109375 46.1875 
Q 20.953125 51.171875 25.484375 53.578125 
Q 30.03125 56 36.53125 56 
Q 37.453125 56 38.578125 55.875 
Q 39.703125 55.765625 41.0625 55.515625 
z
" id="DejaVuSans-114"/>
      <path d="M 9.8125 72.90625 
L 19.671875 72.90625 
L 19.671875 0 
L 9.8125 0 
z
" id="DejaVuSans-73"/>
     </defs>
     <g transform="translate(397.54069 469.704135)scale(0.12 -0.12)">
      <use xlink:href="#DejaVuSans-86"/>
      <use x="68.298828" xlink:href="#DejaVuSans-97"/>
      <use x="129.578125" xlink:href="#DejaVuSans-114"/>
      <use x="170.691406" xlink:href="#DejaVuSans-105"/>
      <use x="198.474609" xlink:href="#DejaVuSans-97"/>
      <use x="259.753906" xlink:href="#DejaVuSans-110"/>
      <use x="323.132812" xlink:href="#DejaVuSans-99"/>
      <use x="378.113281" xlink:href="#DejaVuSans-101"/>
      <use x="439.636719" xlink:href="#DejaVuSans-32"/>
      <use x="471.423828" xlink:href="#DejaVuSans-73"/>
      <use x="500.916016" xlink:href="#DejaVuSans-110"/>
      <use x="564.294922" xlink:href="#DejaVuSans-102"/>
      <use x="599.5" xlink:href="#DejaVuSans-108"/>
      <use x="627.283203" xlink:href="#DejaVuSans-97"/>
      <use x="688.5625" xlink:href="#DejaVuSans-116"/>
      <use x="727.771484" xlink:href="#DejaVuSans-105"/>
      <use x="755.554688" xlink:href="#DejaVuSans-111"/>
      <use x="816.736328" xlink:href="#DejaVuSans-110"/>
      <use x="880.115234" xlink:href="#DejaVuSans-32"/>
      <use x="911.902344" xlink:href="#DejaVuSans-70"/>
      <use x="969.28125" xlink:href="#DejaVuSans-97"/>
      <use x="1030.560547" xlink:href="#DejaVuSans-99"/>
      <use x="1085.541016" xlink:href="#DejaVuSans-116"/>
      <use x="1124.75" xlink:href="#DejaVuSans-111"/>
      <use x="1185.931641" xlink:href="#DejaVuSans-114"/>
     </g>
    </g>
   </g>
   <g id="matplotlib.axis_6">
    <g id="ytick_13">
     <g id="line2d_23">
      <g>
       <use style="stroke:#000000;stroke-width:0.8;" x="375.216164" xlink:href="#md1c7caf69f" y="439.907885"/>
      </g>
     </g>
    </g>
    <g id="ytick_14">
     <g id="line2d_24">
      <g>
       <use style="stroke:#000000;stroke-width:0.8;" x="375.216164" xlink:href="#md1c7caf69f" y="406.939964"/>
      </g>
     </g>
    </g>
    <g id="ytick_15">
     <g id="line2d_25">
      <g>
       <use style="stroke:#000000;stroke-width:0.8;" x="375.216164" xlink:href="#md1c7caf69f" y="373.972043"/>
      </g>
     </g>
    </g>
    <g id="ytick_16">
     <g id="line2d_26">
      <g>
       <use style="stroke:#000000;stroke-width:0.8;" x="375.216164" xlink:href="#md1c7caf69f" y="341.004122"/>
      </g>
     </g>
    </g>
    <g id="ytick_17">
     <g id="line2d_27">
      <g>
       <use style="stroke:#000000;stroke-width:0.8;" x="375.216164" xlink:href="#md1c7caf69f" y="308.036202"/>
      </g>
     </g>
    </g>
    <g id="ytick_18">
     <g id="line2d_28">
      <g>
       <use style="stroke:#000000;stroke-width:0.8;" x="375.216164" xlink:href="#md1c7caf69f" y="275.068281"/>
      </g>
     </g>
    </g>
    <g id="ytick_19">
     <g id="line2d_29">
      <g>
       <use style="stroke:#000000;stroke-width:0.8;" x="375.216164" xlink:href="#md1c7caf69f" y="242.10036"/>
      </g>
     </g>
    </g>
    <g id="text_28">
     <!-- Motif -->
     <g transform="translate(361.720539 355.983497)rotate(-90)scale(0.12 -0.12)">
      <use xlink:href="#DejaVuSans-77"/>
      <use x="86.279297" xlink:href="#DejaVuSans-111"/>
      <use x="147.460938" xlink:href="#DejaVuSans-116"/>
      <use x="186.669922" xlink:href="#DejaVuSans-105"/>
      <use x="214.453125" xlink:href="#DejaVuSans-102"/>
     </g>
    </g>
   </g>
   <g id="patch_98">
    <path d="M 375.216164 439.907885 
L 375.216164 242.10036 
" style="fill:none;stroke:#000000;stroke-linecap:square;stroke-linejoin:miter;stroke-width:0.8;"/>
   </g>
   <g id="patch_99">
    <path d="M 567.108966 439.907885 
L 567.108966 242.10036 
" style="fill:none;stroke:#000000;stroke-linecap:square;stroke-linejoin:miter;stroke-width:0.8;"/>
   </g>
   <g id="patch_100">
    <path d="M 375.216164 439.907885 
L 567.108966 439.907885 
" style="fill:none;stroke:#000000;stroke-linecap:square;stroke-linejoin:miter;stroke-width:0.8;"/>
   </g>
   <g id="patch_101">
    <path d="M 375.216164 242.10036 
L 567.108966 242.10036 
" style="fill:none;stroke:#000000;stroke-linecap:square;stroke-linejoin:miter;stroke-width:0.8;"/>
   </g>
  </g>
  <g id="axes_4">
   <g id="patch_102">
    <path d="M 375.216164 202.224005 
L 567.108966 202.224005 
L 567.108966 74.464482 
L 375.216164 74.464482 
z
" style="fill:#ffffff;"/>
   </g>
   <g id="matplotlib.axis_7">
    <g id="xtick_18">
     <g id="line2d_30">
      <g>
       <use style="stroke:#000000;stroke-width:0.8;" x="383.938564" xlink:href="#m6e28526713" y="202.224005"/>
      </g>
     </g>
     <g id="text_29">
      <!-- 0.0 -->
      <g transform="translate(375.987001 216.822442)scale(0.1 -0.1)">
       <use xlink:href="#DejaVuSans-48"/>
       <use x="63.623047" xlink:href="#DejaVuSans-46"/>
       <use x="95.410156" xlink:href="#DejaVuSans-48"/>
      </g>
     </g>
    </g>
    <g id="xtick_19">
     <g id="line2d_31">
      <g>
       <use style="stroke:#000000;stroke-width:0.8;" x="418.828164" xlink:href="#m6e28526713" y="202.224005"/>
      </g>
     </g>
     <g id="text_30">
      <!-- 0.2 -->
      <g transform="translate(410.876602 216.822442)scale(0.1 -0.1)">
       <use xlink:href="#DejaVuSans-48"/>
       <use x="63.623047" xlink:href="#DejaVuSans-46"/>
       <use x="95.410156" xlink:href="#DejaVuSans-50"/>
      </g>
     </g>
    </g>
    <g id="xtick_20">
     <g id="line2d_32">
      <g>
       <use style="stroke:#000000;stroke-width:0.8;" x="453.717765" xlink:href="#m6e28526713" y="202.224005"/>
      </g>
     </g>
     <g id="text_31">
      <!-- 0.4 -->
      <g transform="translate(445.766202 216.822442)scale(0.1 -0.1)">
       <use xlink:href="#DejaVuSans-48"/>
       <use x="63.623047" xlink:href="#DejaVuSans-46"/>
       <use x="95.410156" xlink:href="#DejaVuSans-52"/>
      </g>
     </g>
    </g>
    <g id="xtick_21">
     <g id="line2d_33">
      <g>
       <use style="stroke:#000000;stroke-width:0.8;" x="488.607365" xlink:href="#m6e28526713" y="202.224005"/>
      </g>
     </g>
     <g id="text_32">
      <!-- 0.6 -->
      <g transform="translate(480.655802 216.822442)scale(0.1 -0.1)">
       <use xlink:href="#DejaVuSans-48"/>
       <use x="63.623047" xlink:href="#DejaVuSans-46"/>
       <use x="95.410156" xlink:href="#DejaVuSans-54"/>
      </g>
     </g>
    </g>
    <g id="xtick_22">
     <g id="line2d_34">
      <g>
       <use style="stroke:#000000;stroke-width:0.8;" x="523.496965" xlink:href="#m6e28526713" y="202.224005"/>
      </g>
     </g>
     <g id="text_33">
      <!-- 0.8 -->
      <defs>
       <path d="M 31.78125 34.625 
Q 24.75 34.625 20.71875 30.859375 
Q 16.703125 27.09375 16.703125 20.515625 
Q 16.703125 13.921875 20.71875 10.15625 
Q 24.75 6.390625 31.78125 6.390625 
Q 38.8125 6.390625 42.859375 10.171875 
Q 46.921875 13.96875 46.921875 20.515625 
Q 46.921875 27.09375 42.890625 30.859375 
Q 38.875 34.625 31.78125 34.625 
z
M 21.921875 38.8125 
Q 15.578125 40.375 12.03125 44.71875 
Q 8.5 49.078125 8.5 55.328125 
Q 8.5 64.0625 14.71875 69.140625 
Q 20.953125 74.21875 31.78125 74.21875 
Q 42.671875 74.21875 48.875 69.140625 
Q 55.078125 64.0625 55.078125 55.328125 
Q 55.078125 49.078125 51.53125 44.71875 
Q 48 40.375 41.703125 38.8125 
Q 48.828125 37.15625 52.796875 32.3125 
Q 56.78125 27.484375 56.78125 20.515625 
Q 56.78125 9.90625 50.3125 4.234375 
Q 43.84375 -1.421875 31.78125 -1.421875 
Q 19.734375 -1.421875 13.25 4.234375 
Q 6.78125 9.90625 6.78125 20.515625 
Q 6.78125 27.484375 10.78125 32.3125 
Q 14.796875 37.15625 21.921875 38.8125 
z
M 18.3125 54.390625 
Q 18.3125 48.734375 21.84375 45.5625 
Q 25.390625 42.390625 31.78125 42.390625 
Q 38.140625 42.390625 41.71875 45.5625 
Q 45.3125 48.734375 45.3125 54.390625 
Q 45.3125 60.0625 41.71875 63.234375 
Q 38.140625 66.40625 31.78125 66.40625 
Q 25.390625 66.40625 21.84375 63.234375 
Q 18.3125 60.0625 18.3125 54.390625 
z
" id="DejaVuSans-56"/>
      </defs>
      <g transform="translate(515.545403 216.822442)scale(0.1 -0.1)">
       <use xlink:href="#DejaVuSans-48"/>
       <use x="63.623047" xlink:href="#DejaVuSans-46"/>
       <use x="95.410156" xlink:href="#DejaVuSans-56"/>
      </g>
     </g>
    </g>
    <g id="xtick_23">
     <g id="line2d_35">
      <g>
       <use style="stroke:#000000;stroke-width:0.8;" x="558.386566" xlink:href="#m6e28526713" y="202.224005"/>
      </g>
     </g>
     <g id="text_34">
      <!-- 1.0 -->
      <g transform="translate(550.435003 216.822442)scale(0.1 -0.1)">
       <use xlink:href="#DejaVuSans-49"/>
       <use x="63.623047" xlink:href="#DejaVuSans-46"/>
       <use x="95.410156" xlink:href="#DejaVuSans-48"/>
      </g>
     </g>
    </g>
    <g id="text_35">
     <!-- False Positive Rate -->
     <defs>
      <path d="M 19.671875 64.796875 
L 19.671875 37.40625 
L 32.078125 37.40625 
Q 38.96875 37.40625 42.71875 40.96875 
Q 46.484375 44.53125 46.484375 51.125 
Q 46.484375 57.671875 42.71875 61.234375 
Q 38.96875 64.796875 32.078125 64.796875 
z
M 9.8125 72.90625 
L 32.078125 72.90625 
Q 44.34375 72.90625 50.609375 67.359375 
Q 56.890625 61.8125 56.890625 51.125 
Q 56.890625 40.328125 50.609375 34.8125 
Q 44.34375 29.296875 32.078125 29.296875 
L 19.671875 29.296875 
L 19.671875 0 
L 9.8125 0 
z
" id="DejaVuSans-80"/>
      <path d="M 2.984375 54.6875 
L 12.5 54.6875 
L 29.59375 8.796875 
L 46.6875 54.6875 
L 56.203125 54.6875 
L 35.6875 0 
L 23.484375 0 
z
" id="DejaVuSans-118"/>
     </defs>
     <g transform="translate(414.516002 232.020255)scale(0.12 -0.12)">
      <use xlink:href="#DejaVuSans-70"/>
      <use x="57.378906" xlink:href="#DejaVuSans-97"/>
      <use x="118.658203" xlink:href="#DejaVuSans-108"/>
      <use x="146.441406" xlink:href="#DejaVuSans-115"/>
      <use x="198.541016" xlink:href="#DejaVuSans-101"/>
      <use x="260.064453" xlink:href="#DejaVuSans-32"/>
      <use x="291.851562" xlink:href="#DejaVuSans-80"/>
      <use x="352.107422" xlink:href="#DejaVuSans-111"/>
      <use x="413.289062" xlink:href="#DejaVuSans-115"/>
      <use x="465.388672" xlink:href="#DejaVuSans-105"/>
      <use x="493.171875" xlink:href="#DejaVuSans-116"/>
      <use x="532.380859" xlink:href="#DejaVuSans-105"/>
      <use x="560.164062" xlink:href="#DejaVuSans-118"/>
      <use x="619.34375" xlink:href="#DejaVuSans-101"/>
      <use x="680.867188" xlink:href="#DejaVuSans-32"/>
      <use x="712.654297" xlink:href="#DejaVuSans-82"/>
      <use x="782.105469" xlink:href="#DejaVuSans-97"/>
      <use x="843.384766" xlink:href="#DejaVuSans-116"/>
      <use x="882.59375" xlink:href="#DejaVuSans-101"/>
     </g>
    </g>
   </g>
   <g id="matplotlib.axis_8">
    <g id="ytick_20">
     <g id="line2d_36">
      <g>
       <use style="stroke:#000000;stroke-width:0.8;" x="375.216164" xlink:href="#md1c7caf69f" y="196.416754"/>
      </g>
     </g>
     <g id="text_36">
      <!-- 0.0 -->
      <g transform="translate(352.313039 200.215973)scale(0.1 -0.1)">
       <use xlink:href="#DejaVuSans-48"/>
       <use x="63.623047" xlink:href="#DejaVuSans-46"/>
       <use x="95.410156" xlink:href="#DejaVuSans-48"/>
      </g>
     </g>
    </g>
    <g id="ytick_21">
     <g id="line2d_37">
      <g>
       <use style="stroke:#000000;stroke-width:0.8;" x="375.216164" xlink:href="#md1c7caf69f" y="173.18775"/>
      </g>
     </g>
     <g id="text_37">
      <!-- 0.2 -->
      <g transform="translate(352.313039 176.986968)scale(0.1 -0.1)">
       <use xlink:href="#DejaVuSans-48"/>
       <use x="63.623047" xlink:href="#DejaVuSans-46"/>
       <use x="95.410156" xlink:href="#DejaVuSans-50"/>
      </g>
     </g>
    </g>
    <g id="ytick_22">
     <g id="line2d_38">
      <g>
       <use style="stroke:#000000;stroke-width:0.8;" x="375.216164" xlink:href="#md1c7caf69f" y="149.958745"/>
      </g>
     </g>
     <g id="text_38">
      <!-- 0.4 -->
      <g transform="translate(352.313039 153.757964)scale(0.1 -0.1)">
       <use xlink:href="#DejaVuSans-48"/>
       <use x="63.623047" xlink:href="#DejaVuSans-46"/>
       <use x="95.410156" xlink:href="#DejaVuSans-52"/>
      </g>
     </g>
    </g>
    <g id="ytick_23">
     <g id="line2d_39">
      <g>
       <use style="stroke:#000000;stroke-width:0.8;" x="375.216164" xlink:href="#md1c7caf69f" y="126.729741"/>
      </g>
     </g>
     <g id="text_39">
      <!-- 0.6 -->
      <g transform="translate(352.313039 130.52896)scale(0.1 -0.1)">
       <use xlink:href="#DejaVuSans-48"/>
       <use x="63.623047" xlink:href="#DejaVuSans-46"/>
       <use x="95.410156" xlink:href="#DejaVuSans-54"/>
      </g>
     </g>
    </g>
    <g id="ytick_24">
     <g id="line2d_40">
      <g>
       <use style="stroke:#000000;stroke-width:0.8;" x="375.216164" xlink:href="#md1c7caf69f" y="103.500737"/>
      </g>
     </g>
     <g id="text_40">
      <!-- 0.8 -->
      <g transform="translate(352.313039 107.299956)scale(0.1 -0.1)">
       <use xlink:href="#DejaVuSans-48"/>
       <use x="63.623047" xlink:href="#DejaVuSans-46"/>
       <use x="95.410156" xlink:href="#DejaVuSans-56"/>
      </g>
     </g>
    </g>
    <g id="ytick_25">
     <g id="line2d_41">
      <g>
       <use style="stroke:#000000;stroke-width:0.8;" x="375.216164" xlink:href="#md1c7caf69f" y="80.271733"/>
      </g>
     </g>
     <g id="text_41">
      <!-- 1.0 -->
      <g transform="translate(352.313039 84.070951)scale(0.1 -0.1)">
       <use xlink:href="#DejaVuSans-49"/>
       <use x="63.623047" xlink:href="#DejaVuSans-46"/>
       <use x="95.410156" xlink:href="#DejaVuSans-48"/>
      </g>
     </g>
    </g>
    <g id="text_42">
     <!-- True Positive Rate -->
     <defs>
      <path d="M -0.296875 72.90625 
L 61.375 72.90625 
L 61.375 64.59375 
L 35.5 64.59375 
L 35.5 0 
L 25.59375 0 
L 25.59375 64.59375 
L -0.296875 64.59375 
z
" id="DejaVuSans-84"/>
     </defs>
     <g transform="translate(345.817414 192.999556)rotate(-90)scale(0.12 -0.12)">
      <use xlink:href="#DejaVuSans-84"/>
      <use x="60.865234" xlink:href="#DejaVuSans-114"/>
      <use x="101.978516" xlink:href="#DejaVuSans-117"/>
      <use x="165.357422" xlink:href="#DejaVuSans-101"/>
      <use x="226.880859" xlink:href="#DejaVuSans-32"/>
      <use x="258.667969" xlink:href="#DejaVuSans-80"/>
      <use x="318.923828" xlink:href="#DejaVuSans-111"/>
      <use x="380.105469" xlink:href="#DejaVuSans-115"/>
      <use x="432.205078" xlink:href="#DejaVuSans-105"/>
      <use x="459.988281" xlink:href="#DejaVuSans-116"/>
      <use x="499.197266" xlink:href="#DejaVuSans-105"/>
      <use x="526.980469" xlink:href="#DejaVuSans-118"/>
      <use x="586.160156" xlink:href="#DejaVuSans-101"/>
      <use x="647.683594" xlink:href="#DejaVuSans-32"/>
      <use x="679.470703" xlink:href="#DejaVuSans-82"/>
      <use x="748.921875" xlink:href="#DejaVuSans-97"/>
      <use x="810.201172" xlink:href="#DejaVuSans-116"/>
      <use x="849.410156" xlink:href="#DejaVuSans-101"/>
     </g>
    </g>
   </g>
   <g id="line2d_42">
    <path clip-path="url(#p15e7ded8dd)" d="M 383.938564 196.416754 
L 391.808398 126.729741 
L 403.61315 126.729741 
L 404.924789 126.729741 
L 424.599376 80.271733 
L 492.80461 80.271733 
L 558.386566 80.271733 
" style="fill:none;stroke:#0073b2;stroke-linecap:square;stroke-width:1.5;"/>
   </g>
   <g id="line2d_43">
    <path clip-path="url(#p15e7ded8dd)" d="M 383.938564 196.416754 
L 387.453889 95.757736 
L 397.999864 80.271733 
L 413.37941 80.271733 
L 472.261104 80.271733 
L 558.386566 80.271733 
" style="fill:none;stroke:#cc6600;stroke-linecap:square;stroke-width:1.5;"/>
   </g>
   <g id="line2d_44">
    <path clip-path="url(#p15e7ded8dd)" d="M 383.938564 196.416754 
L 558.386566 80.271733 
" style="fill:none;stroke:#808080;stroke-dasharray:4,8;stroke-dashoffset:0;stroke-width:0.8;"/>
   </g>
   <g id="patch_103">
    <path d="M 375.216164 202.224005 
L 375.216164 74.464482 
" style="fill:none;stroke:#000000;stroke-linecap:square;stroke-linejoin:miter;stroke-width:0.8;"/>
   </g>
   <g id="patch_104">
    <path d="M 567.108966 202.224005 
L 567.108966 74.464482 
" style="fill:none;stroke:#000000;stroke-linecap:square;stroke-linejoin:miter;stroke-width:0.8;"/>
   </g>
   <g id="patch_105">
    <path d="M 375.216164 202.224005 
L 567.108966 202.224005 
" style="fill:none;stroke:#000000;stroke-linecap:square;stroke-linejoin:miter;stroke-width:0.8;"/>
   </g>
   <g id="patch_106">
    <path d="M 375.216164 74.464482 
L 567.108966 74.464482 
" style="fill:none;stroke:#000000;stroke-linecap:square;stroke-linejoin:miter;stroke-width:0.8;"/>
   </g>
   <g id="legend_1">
    <g id="patch_107">
     <path d="M 430.893341 197.224005 
L 560.108966 197.224005 
Q 562.108966 197.224005 562.108966 195.224005 
L 562.108966 166.867755 
Q 562.108966 164.867755 560.108966 164.867755 
L 430.893341 164.867755 
Q 428.893341 164.867755 428.893341 166.867755 
L 428.893341 195.224005 
Q 428.893341 197.224005 430.893341 197.224005 
z
" style="fill:#ffffff;opacity:0.8;stroke:#cccccc;stroke-linejoin:miter;"/>
    </g>
    <g id="line2d_45">
     <path d="M 432.893341 172.966192 
L 452.893341 172.966192 
" style="fill:none;stroke:#0073b2;stroke-linecap:square;stroke-width:1.5;"/>
    </g>
    <g id="line2d_46"/>
    <g id="text_43">
     <!-- Test, AUC: 0.92 -->
     <defs>
      <path d="M 11.71875 12.40625 
L 22.015625 12.40625 
L 22.015625 4 
L 14.015625 -11.625 
L 7.71875 -11.625 
L 11.71875 4 
z
" id="DejaVuSans-44"/>
      <path d="M 34.1875 63.1875 
L 20.796875 26.90625 
L 47.609375 26.90625 
z
M 28.609375 72.90625 
L 39.796875 72.90625 
L 67.578125 0 
L 57.328125 0 
L 50.6875 18.703125 
L 17.828125 18.703125 
L 11.1875 0 
L 0.78125 0 
z
" id="DejaVuSans-65"/>
      <path d="M 11.71875 12.40625 
L 22.015625 12.40625 
L 22.015625 0 
L 11.71875 0 
z
M 11.71875 51.703125 
L 22.015625 51.703125 
L 22.015625 39.3125 
L 11.71875 39.3125 
z
" id="DejaVuSans-58"/>
      <path d="M 10.984375 1.515625 
L 10.984375 10.5 
Q 14.703125 8.734375 18.5 7.8125 
Q 22.3125 6.890625 25.984375 6.890625 
Q 35.75 6.890625 40.890625 13.453125 
Q 46.046875 20.015625 46.78125 33.40625 
Q 43.953125 29.203125 39.59375 26.953125 
Q 35.25 24.703125 29.984375 24.703125 
Q 19.046875 24.703125 12.671875 31.3125 
Q 6.296875 37.9375 6.296875 49.421875 
Q 6.296875 60.640625 12.9375 67.421875 
Q 19.578125 74.21875 30.609375 74.21875 
Q 43.265625 74.21875 49.921875 64.515625 
Q 56.59375 54.828125 56.59375 36.375 
Q 56.59375 19.140625 48.40625 8.859375 
Q 40.234375 -1.421875 26.421875 -1.421875 
Q 22.703125 -1.421875 18.890625 -0.6875 
Q 15.09375 0.046875 10.984375 1.515625 
z
M 30.609375 32.421875 
Q 37.25 32.421875 41.125 36.953125 
Q 45.015625 41.5 45.015625 49.421875 
Q 45.015625 57.28125 41.125 61.84375 
Q 37.25 66.40625 30.609375 66.40625 
Q 23.96875 66.40625 20.09375 61.84375 
Q 16.21875 57.28125 16.21875 49.421875 
Q 16.21875 41.5 20.09375 36.953125 
Q 23.96875 32.421875 30.609375 32.421875 
z
" id="DejaVuSans-57"/>
     </defs>
     <g transform="translate(460.893341 176.466192)scale(0.1 -0.1)">
      <use xlink:href="#DejaVuSans-84"/>
      <use x="60.818359" xlink:href="#DejaVuSans-101"/>
      <use x="122.341797" xlink:href="#DejaVuSans-115"/>
      <use x="174.441406" xlink:href="#DejaVuSans-116"/>
      <use x="213.650391" xlink:href="#DejaVuSans-44"/>
      <use x="245.4375" xlink:href="#DejaVuSans-32"/>
      <use x="277.224609" xlink:href="#DejaVuSans-65"/>
      <use x="345.632812" xlink:href="#DejaVuSans-85"/>
      <use x="418.826172" xlink:href="#DejaVuSans-67"/>
      <use x="488.650391" xlink:href="#DejaVuSans-58"/>
      <use x="522.341797" xlink:href="#DejaVuSans-32"/>
      <use x="554.128906" xlink:href="#DejaVuSans-48"/>
      <use x="617.751953" xlink:href="#DejaVuSans-46"/>
      <use x="649.539062" xlink:href="#DejaVuSans-57"/>
      <use x="713.162109" xlink:href="#DejaVuSans-50"/>
     </g>
    </g>
    <g id="line2d_47">
     <path d="M 432.893341 187.644317 
L 452.893341 187.644317 
" style="fill:none;stroke:#cc6600;stroke-linecap:square;stroke-width:1.5;"/>
    </g>
    <g id="line2d_48"/>
    <g id="text_44">
     <!-- Training, AUC: 0.98 -->
     <g transform="translate(460.893341 191.144317)scale(0.1 -0.1)">
      <use xlink:href="#DejaVuSans-84"/>
      <use x="60.865234" xlink:href="#DejaVuSans-114"/>
      <use x="101.978516" xlink:href="#DejaVuSans-97"/>
      <use x="163.257812" xlink:href="#DejaVuSans-105"/>
      <use x="191.041016" xlink:href="#DejaVuSans-110"/>
      <use x="254.419922" xlink:href="#DejaVuSans-105"/>
      <use x="282.203125" xlink:href="#DejaVuSans-110"/>
      <use x="345.582031" xlink:href="#DejaVuSans-103"/>
      <use x="409.058594" xlink:href="#DejaVuSans-44"/>
      <use x="440.845703" xlink:href="#DejaVuSans-32"/>
      <use x="472.632812" xlink:href="#DejaVuSans-65"/>
      <use x="541.041016" xlink:href="#DejaVuSans-85"/>
      <use x="614.234375" xlink:href="#DejaVuSans-67"/>
      <use x="684.058594" xlink:href="#DejaVuSans-58"/>
      <use x="717.75" xlink:href="#DejaVuSans-32"/>
      <use x="749.537109" xlink:href="#DejaVuSans-48"/>
      <use x="813.160156" xlink:href="#DejaVuSans-46"/>
      <use x="844.947266" xlink:href="#DejaVuSans-57"/>
      <use x="908.570312" xlink:href="#DejaVuSans-56"/>
     </g>
    </g>
   </g>
  </g>
  <g id="axes_5">
   <g id="line2d_49">
    <path clip-path="url(#p5adfe039a9)" d="M 260.187767 260.907071 
L 260.187767 294.642611 
" style="fill:none;stroke:#000000;stroke-linecap:square;stroke-width:0.591389;"/>
   </g>
   <g id="line2d_50">
    <path clip-path="url(#p5adfe039a9)" d="M 316.413667 260.907071 
L 260.187767 260.907071 
" style="fill:none;stroke:#000000;stroke-linecap:square;stroke-width:0.591389;"/>
   </g>
   <g id="patch_108">
    <path clip-path="url(#p5adfe039a9)" d="M 265.217349 281.190125 
Q 264.229004 281.190125 263.662352 281.71944 
Q 263.097897 282.248754 263.097897 283.173406 
Q 263.097897 284.100255 263.662352 284.629569 
Q 264.229004 285.158883 265.217349 285.158883 
Q 266.205695 285.158883 266.774543 284.627373 
Q 267.345588 284.093666 267.345588 283.173406 
Q 267.345588 282.248754 266.778936 281.71944 
Q 266.214481 281.190125 265.217349 281.190125 
z
M 263.831469 280.601511 
Q 262.939761 280.381878 262.441196 279.7713 
Q 261.944826 279.158526 261.944826 278.279996 
Q 261.944826 277.052251 262.818963 276.338445 
Q 263.695297 275.62464 265.217349 275.62464 
Q 266.748187 275.62464 267.620128 276.338445 
Q 268.492069 277.052251 268.492069 278.279996 
Q 268.492069 279.158526 267.993503 279.7713 
Q 267.497134 280.381878 266.612015 280.601511 
Q 267.613539 280.834321 268.171405 281.515181 
Q 268.731468 282.193846 268.731468 283.173406 
Q 268.731468 284.66471 267.82219 285.461976 
Q 266.912912 286.257045 265.217349 286.257045 
Q 263.523983 286.257045 262.612509 285.461976 
Q 261.703231 284.66471 261.703231 283.173406 
Q 261.703231 282.193846 262.26549 281.515181 
Q 262.829945 280.834321 263.831469 280.601511 
z
M 263.324118 278.411775 
Q 263.324118 279.206845 263.820487 279.652699 
Q 264.319053 280.098552 265.217349 280.098552 
Q 266.111253 280.098552 266.614212 279.652699 
Q 267.119366 279.206845 267.119366 278.411775 
Q 267.119366 277.61451 266.614212 277.168656 
Q 266.111253 276.722802 265.217349 276.722802 
Q 264.319053 276.722802 263.820487 277.168656 
Q 263.324118 277.61451 263.324118 278.411775 
z
M 271.340427 284.313298 
L 272.787804 284.313298 
L 272.787804 285.494921 
L 271.663286 287.691245 
L 270.778168 287.691245 
L 271.340427 285.494921 
z
M 275.705347 285.844136 
L 275.705347 284.58125 
Q 276.228072 284.829435 276.761778 284.959018 
Q 277.297682 285.088601 277.813818 285.088601 
Q 279.18652 285.088601 279.909111 284.166145 
Q 280.633898 283.243689 280.737125 281.361439 
Q 280.339591 281.95225 279.726816 282.268521 
Q 279.116238 282.584791 278.376077 282.584791 
Q 276.83865 282.584791 275.94255 281.655746 
Q 275.046449 280.724505 275.046449 279.110206 
Q 275.046449 277.533246 275.979887 276.580041 
Q 276.913325 275.62464 278.46393 275.62464 
Q 280.242952 275.62464 281.178586 276.988557 
Q 282.116417 278.350278 282.116417 280.944137 
Q 282.116417 283.366683 280.965543 284.811864 
Q 279.816865 286.257045 277.875315 286.257045 
Q 277.35259 286.257045 276.816687 286.153818 
Q 276.28298 286.050591 275.705347 285.844136 
z
M 278.46393 281.499807 
Q 279.397368 281.499807 279.942056 280.862873 
Q 280.488941 280.223743 280.488941 279.110206 
Q 280.488941 278.005455 279.942056 277.364129 
Q 279.397368 276.722802 278.46393 276.722802 
Q 277.530492 276.722802 276.985804 277.364129 
Q 276.441115 278.005455 276.441115 279.110206 
Q 276.441115 280.223743 276.985804 280.862873 
Q 277.530492 281.499807 278.46393 281.499807 
z
"/>
   </g>
   <g id="patch_109">
    <path clip-path="url(#p5adfe039a9)" d="M 317.923639 261.346336 
L 317.620547 259.76059 
Q 317.313061 258.133114 316.089709 258.133114 
Q 315.171645 258.133114 314.752147 258.88865 
Q 314.222833 259.835265 314.222833 261.084974 
Q 314.222833 262.596045 314.738969 263.316439 
Q 315.259498 264.050011 316.089709 264.050011 
Q 317.009969 264.050011 317.504142 262.587259 
z
M 318.630856 259.24665 
L 319.30952 257.234817 
L 320.436234 257.234817 
L 319.028391 261.401244 
L 319.302931 262.90353 
Q 319.364428 263.239568 319.603827 263.520697 
Q 319.887153 263.850146 320.106786 263.850146 
L 320.710775 263.850146 
L 320.710775 264.921952 
L 319.955239 264.921952 
Q 319.30952 264.921952 318.734083 264.344319 
Q 318.450757 264.0566 318.334352 263.452611 
Q 318.020278 264.214736 317.374558 264.812136 
Q 317.071466 265.093265 316.089709 265.093265 
Q 314.477607 265.093265 313.695715 264.050011 
Q 312.891861 262.971616 312.891861 261.084974 
Q 312.891861 259.066552 313.763801 258.119936 
Q 314.73238 257.063504 316.089709 257.063504 
Q 318.224536 257.063504 318.630856 259.24665 
z
"/>
   </g>
   <g id="patch_110">
    <path clip-path="url(#p5adfe039a9)" d="M 260.187767 245.003986 
L 276.090853 260.907071 
L 260.187767 276.810157 
L 244.284681 260.907071 
L 260.187767 245.003986 
z
" style="fill:#a54399;stroke:#000000;stroke-linejoin:miter;stroke-width:0.591389;"/>
   </g>
   <g id="patch_111">
    <path clip-path="url(#p5adfe039a9)" d="M 268.621652 286.208726 
L 251.753882 303.076496 
z
" style="fill:#ffffff;stroke:#000000;stroke-linejoin:miter;stroke-width:0.591389;"/>
   </g>
   <g id="patch_112">
    <path clip-path="url(#p5adfe039a9)" d="M 251.753882 286.208726 
L 268.621652 303.076496 
z
" style="fill:#ffffff;stroke:#000000;stroke-linejoin:miter;stroke-width:0.591389;"/>
   </g>
  </g>
  <g id="axes_6">
   <g id="line2d_51">
    <path clip-path="url(#pf9dd349107)" d="M 284.871687 342.715979 
L 248.122872 342.715979 
" style="fill:none;stroke:#000000;stroke-linecap:square;stroke-width:0.577241;"/>
   </g>
   <g id="line2d_52">
    <path clip-path="url(#pf9dd349107)" d="M 321.620502 342.715979 
L 284.871687 342.715979 
" style="fill:none;stroke:#000000;stroke-linecap:square;stroke-width:0.577241;"/>
   </g>
   <g id="patch_113">
    <path clip-path="url(#pf9dd349107)" d="M 260.471048 341.670934 
L 260.471048 343.891654 
L 259.641329 343.891654 
L 259.641329 336.988332 
Q 259.641329 334.942743 261.55198 334.942743 
Q 263.499954 334.942743 263.499954 336.66965 
Q 263.499954 337.898439 262.727655 338.347751 
Q 263.983718 338.751126 263.983718 339.948334 
Q 263.983718 342.075746 261.821854 342.075746 
Q 260.870117 342.075746 260.471048 341.670934 
z
M 260.471048 340.594309 
Q 260.969167 341.370915 261.853435 341.370915 
Q 263.145386 341.370915 263.145386 339.962689 
Q 263.145386 338.696577 261.06391 338.795627 
L 261.06391 338.033376 
Q 262.691768 338.033376 262.691768 336.597875 
Q 262.691768 335.615993 261.642417 335.615993 
Q 260.471048 335.615993 260.471048 337.015606 
z
"/>
   </g>
   <g id="patch_114">
    <path clip-path="url(#pf9dd349107)" d="M 273.277149 336.072482 
L 270.988961 339.648314 
L 273.277149 339.648314 
z
M 273.038856 335.282957 
L 274.178643 335.282957 
L 274.178643 339.648314 
L 275.134687 339.648314 
L 275.134687 340.401952 
L 274.178643 340.401952 
L 274.178643 341.981003 
L 273.277149 341.981003 
L 273.277149 340.401952 
L 270.253985 340.401952 
L 270.253985 339.527732 
z
"/>
   </g>
   <g id="patch_115">
    <path clip-path="url(#pf9dd349107)" d="M 320.709677 346.880366 
L 320.709677 349.101085 
L 319.879957 349.101085 
L 319.879957 342.197763 
Q 319.879957 340.152175 321.790609 340.152175 
Q 323.738583 340.152175 323.738583 341.879082 
Q 323.738583 343.10787 322.966284 343.557182 
Q 324.222347 343.960558 324.222347 345.157765 
Q 324.222347 347.285177 322.060483 347.285177 
Q 321.108746 347.285177 320.709677 346.880366 
z
M 320.709677 345.803741 
Q 321.207795 346.580346 322.092064 346.580346 
Q 323.384014 346.580346 323.384014 345.17212 
Q 323.384014 343.906009 321.302538 344.005058 
L 321.302538 343.242808 
Q 322.930396 343.242808 322.930396 341.807307 
Q 322.930396 340.825425 321.881045 340.825425 
Q 320.709677 340.825425 320.709677 342.225038 
z
"/>
   </g>
   <g id="patch_116">
    <path clip-path="url(#pf9dd349107)" d="M 292.22145 335.366216 
L 292.22145 350.065742 
L 277.521924 350.065742 
L 277.521924 335.366216 
L 292.22145 335.366216 
z
" style="fill:#0090bc;stroke:#000000;stroke-linejoin:miter;stroke-width:0.577241;"/>
   </g>
   <g id="patch_117">
    <path clip-path="url(#pf9dd349107)" d="M 248.122872 350.065742 
C 250.072052 350.065742 251.941661 349.291324 253.319939 347.913046 
C 254.698218 346.534768 255.472635 344.665159 255.472635 342.715979 
C 255.472635 340.766799 254.698218 338.89719 253.319939 337.518912 
C 251.941661 336.140633 250.072052 335.366216 248.122872 335.366216 
C 246.173692 335.366216 244.304083 336.140633 242.925805 337.518912 
C 241.547527 338.89719 240.773109 340.766799 240.773109 342.715979 
C 240.773109 344.665159 241.547527 346.534768 242.925805 347.913046 
C 244.304083 349.291324 246.173692 350.065742 248.122872 350.065742 
z
" style="fill:#ffd400;stroke:#000000;stroke-linejoin:miter;stroke-width:0.577241;"/>
   </g>
  </g>
  <g id="axes_7">
   <g id="line2d_53">
    <path clip-path="url(#p341ce60de1)" d="M 317.500275 407.968004 
L 283.889915 407.968004 
" style="fill:none;stroke:#000000;stroke-linecap:square;stroke-width:0.577241;"/>
   </g>
   <g id="line2d_54">
    <path clip-path="url(#p341ce60de1)" d="M 283.889915 407.968004 
L 250.279555 407.968004 
" style="fill:none;stroke:#000000;stroke-linecap:square;stroke-width:0.577241;"/>
   </g>
   <g id="patch_118">
    <path clip-path="url(#p341ce60de1)" d="M 295.183521 407.01221 
L 295.183521 409.043273 
L 294.424662 409.043273 
L 294.424662 402.729514 
Q 294.424662 400.858625 296.172138 400.858625 
Q 297.95375 400.858625 297.95375 402.43805 
Q 297.95375 403.561896 297.247407 403.972835 
Q 298.396199 404.341761 298.396199 405.436724 
Q 298.396199 407.382449 296.418964 407.382449 
Q 295.548508 407.382449 295.183521 407.01221 
z
M 295.183521 406.027531 
Q 295.639099 406.737812 296.447848 406.737812 
Q 297.629462 406.737812 297.629462 405.449853 
Q 297.629462 404.291871 295.72575 404.382461 
L 295.72575 403.685309 
Q 297.214584 403.685309 297.214584 402.372404 
Q 297.214584 401.474378 296.254851 401.474378 
Q 295.183521 401.474378 295.183521 402.75446 
z
"/>
   </g>
   <g id="patch_119">
    <path clip-path="url(#p341ce60de1)" d="M 306.895943 401.891881 
L 304.803173 405.162327 
L 306.895943 405.162327 
z
M 306.678001 401.169784 
L 307.720448 401.169784 
L 307.720448 405.162327 
L 308.594842 405.162327 
L 308.594842 405.851602 
L 307.720448 405.851602 
L 307.720448 407.295797 
L 306.895943 407.295797 
L 306.895943 405.851602 
L 304.130966 405.851602 
L 304.130966 405.052043 
z
"/>
   </g>
   <g id="patch_120">
    <path clip-path="url(#p341ce60de1)" d="M 263.497879 405.158388 
L 263.316698 404.210471 
Q 263.132892 403.237609 262.401604 403.237609 
Q 261.852809 403.237609 261.602045 403.689248 
Q 261.285635 404.25511 261.285635 405.002152 
Q 261.285635 405.905431 261.594167 406.336064 
Q 261.905326 406.774574 262.401604 406.774574 
Q 262.951711 406.774574 263.247114 405.900179 
z
M 263.920634 403.903251 
L 264.326322 402.700631 
L 264.999842 402.700631 
L 264.15827 405.191211 
L 264.322383 406.089238 
Q 264.359145 406.290112 264.502251 406.458164 
Q 264.671616 406.655099 264.802906 406.655099 
L 265.163955 406.655099 
L 265.163955 407.295797 
L 264.712316 407.295797 
Q 264.326322 407.295797 263.982341 406.950503 
Q 263.812976 406.778513 263.743392 406.417464 
Q 263.555647 406.873042 263.169653 407.230152 
Q 262.988472 407.398204 262.401604 407.398204 
Q 261.437932 407.398204 260.970538 406.774574 
Q 260.490014 406.129938 260.490014 405.002152 
Q 260.490014 403.795593 261.011238 403.229731 
Q 261.590229 402.598224 262.401604 402.598224 
Q 263.677747 402.598224 263.920634 403.903251 
z
"/>
   </g>
   <g id="patch_121">
    <path clip-path="url(#p341ce60de1)" d="M 272.883835 403.903251 
Q 272.32585 403.903251 271.998937 404.285307 
Q 271.673337 404.666049 271.673337 405.330379 
Q 271.673337 405.99077 271.998937 406.375451 
Q 272.32585 406.758819 272.883835 406.758819 
Q 273.441819 406.758819 273.767419 406.375451 
Q 274.09302 405.99077 274.09302 405.330379 
Q 274.09302 404.666049 273.767419 404.285307 
Q 273.441819 403.903251 272.883835 403.903251 
z
M 274.528904 401.305013 
L 274.528904 402.059933 
Q 274.216433 401.912888 273.89871 401.835426 
Q 273.580987 401.756652 273.268516 401.756652 
Q 272.44795 401.756652 272.014692 402.310698 
Q 271.582746 402.864744 271.52104 403.984651 
Q 271.762614 403.627541 272.127602 403.43717 
Q 272.493902 403.246799 272.932412 403.246799 
Q 273.855384 403.246799 274.391049 403.807409 
Q 274.926714 404.366707 274.926714 405.330379 
Q 274.926714 406.274357 274.36873 406.845471 
Q 273.810745 407.415271 272.883835 407.415271 
Q 271.820382 407.415271 271.258459 406.60127 
Q 270.696535 405.785957 270.696535 404.239355 
Q 270.696535 402.787282 271.38581 401.923391 
Q 272.075085 401.0595 273.235693 401.0595 
Q 273.548164 401.0595 273.865887 401.121206 
Q 274.18361 401.182913 274.528904 401.305013 
z
"/>
   </g>
   <g id="patch_122">
    <path clip-path="url(#p341ce60de1)" d="M 324.222347 401.245932 
L 324.222347 414.690076 
L 310.778203 414.690076 
L 310.778203 401.245932 
L 324.222347 401.245932 
z
" style="fill:#0090bc;stroke:#000000;stroke-linejoin:miter;stroke-width:0.577241;"/>
   </g>
   <g id="patch_123">
    <path clip-path="url(#p341ce60de1)" d="M 283.889915 414.690076 
C 285.672629 414.690076 287.382568 413.981796 288.643137 412.721227 
C 289.903707 411.460657 290.611987 409.750719 290.611987 407.968004 
C 290.611987 406.18529 289.903707 404.475351 288.643137 403.214781 
C 287.382568 401.954212 285.672629 401.245932 283.889915 401.245932 
C 282.1072 401.245932 280.397261 401.954212 279.136692 403.214781 
C 277.876123 404.475351 277.167843 406.18529 277.167843 407.968004 
C 277.167843 409.750719 277.876123 411.460657 279.136692 412.721227 
C 280.397261 413.981796 282.1072 414.690076 283.889915 414.690076 
z
" style="fill:#ffd400;stroke:#000000;stroke-linejoin:miter;stroke-width:0.577241;"/>
   </g>
   <g id="patch_124">
    <path clip-path="url(#p341ce60de1)" d="M 250.279555 398.461559 
L 259.786 407.968004 
L 250.279555 417.47445 
L 240.773109 407.968004 
L 250.279555 398.461559 
z
" style="fill:#a54399;stroke:#000000;stroke-linejoin:miter;stroke-width:0.577241;"/>
   </g>
  </g>
  <g id="text_45">
   <!-- HA_PuertoRico_8_34_13829_v5_DATA.csv -->
   <defs>
    <path d="M 9.8125 72.90625 
L 19.671875 72.90625 
L 19.671875 43.015625 
L 55.515625 43.015625 
L 55.515625 72.90625 
L 65.375 72.90625 
L 65.375 0 
L 55.515625 0 
L 55.515625 34.71875 
L 19.671875 34.71875 
L 19.671875 0 
L 9.8125 0 
z
" id="DejaVuSans-72"/>
    <path d="M 50.984375 -16.609375 
L 50.984375 -23.578125 
L -0.984375 -23.578125 
L -0.984375 -16.609375 
z
" id="DejaVuSans-95"/>
    <path d="M 19.671875 64.796875 
L 19.671875 8.109375 
L 31.59375 8.109375 
Q 46.6875 8.109375 53.6875 14.9375 
Q 60.6875 21.78125 60.6875 36.53125 
Q 60.6875 51.171875 53.6875 57.984375 
Q 46.6875 64.796875 31.59375 64.796875 
z
M 9.8125 72.90625 
L 30.078125 72.90625 
Q 51.265625 72.90625 61.171875 64.09375 
Q 71.09375 55.28125 71.09375 36.53125 
Q 71.09375 17.671875 61.125 8.828125 
Q 51.171875 0 30.078125 0 
L 9.8125 0 
z
" id="DejaVuSans-68"/>
   </defs>
   <g transform="translate(162.705938 18.622125)scale(0.12 -0.12)">
    <use xlink:href="#DejaVuSans-72"/>
    <use x="75.195312" xlink:href="#DejaVuSans-65"/>
    <use x="143.603516" xlink:href="#DejaVuSans-95"/>
    <use x="193.603516" xlink:href="#DejaVuSans-80"/>
    <use x="253.890625" xlink:href="#DejaVuSans-117"/>
    <use x="317.269531" xlink:href="#DejaVuSans-101"/>
    <use x="378.792969" xlink:href="#DejaVuSans-114"/>
    <use x="419.90625" xlink:href="#DejaVuSans-116"/>
    <use x="459.115234" xlink:href="#DejaVuSans-111"/>
    <use x="520.296875" xlink:href="#DejaVuSans-82"/>
    <use x="589.779297" xlink:href="#DejaVuSans-105"/>
    <use x="617.5625" xlink:href="#DejaVuSans-99"/>
    <use x="672.542969" xlink:href="#DejaVuSans-111"/>
    <use x="733.724609" xlink:href="#DejaVuSans-95"/>
    <use x="783.724609" xlink:href="#DejaVuSans-56"/>
    <use x="847.347656" xlink:href="#DejaVuSans-95"/>
    <use x="897.347656" xlink:href="#DejaVuSans-51"/>
    <use x="960.970703" xlink:href="#DejaVuSans-52"/>
    <use x="1024.59375" xlink:href="#DejaVuSans-95"/>
    <use x="1074.59375" xlink:href="#DejaVuSans-49"/>
    <use x="1138.216797" xlink:href="#DejaVuSans-51"/>
    <use x="1201.839844" xlink:href="#DejaVuSans-56"/>
    <use x="1265.462891" xlink:href="#DejaVuSans-50"/>
    <use x="1329.085938" xlink:href="#DejaVuSans-57"/>
    <use x="1392.708984" xlink:href="#DejaVuSans-95"/>
    <use x="1442.708984" xlink:href="#DejaVuSans-118"/>
    <use x="1501.888672" xlink:href="#DejaVuSans-53"/>
    <use x="1565.511719" xlink:href="#DejaVuSans-95"/>
    <use x="1615.511719" xlink:href="#DejaVuSans-68"/>
    <use x="1692.498047" xlink:href="#DejaVuSans-65"/>
    <use x="1760.796875" xlink:href="#DejaVuSans-84"/>
    <use x="1821.771484" xlink:href="#DejaVuSans-65"/>
    <use x="1890.164062" xlink:href="#DejaVuSans-46"/>
    <use x="1921.951172" xlink:href="#DejaVuSans-99"/>
    <use x="1976.931641" xlink:href="#DejaVuSans-115"/>
    <use x="2029.03125" xlink:href="#DejaVuSans-118"/>
   </g>
  </g>
 </g>
 <defs>
  <clipPath id="p046b3016ed">
   <rect height="127.759523" width="291.991444" x="36.403365" y="74.464482"/>
  </clipPath>
  <clipPath id="pd2f94ccbf8">
   <rect height="197.807525" width="191.892802" x="36.403365" y="242.10036"/>
  </clipPath>
  <clipPath id="p8a64172d69">
   <rect height="197.807525" width="191.892802" x="375.216164" y="242.10036"/>
  </clipPath>
  <clipPath id="p15e7ded8dd">
   <rect height="127.759523" width="191.892802" x="375.216164" y="74.464482"/>
  </clipPath>
  <clipPath id="p5adfe039a9">
   <rect height="63.879762" width="84.068703" x="240.463376" y="242.10036"/>
  </clipPath>
  <clipPath id="pf9dd349107">
   <rect height="16.635298" width="91.794161" x="236.600647" y="334.186593"/>
  </clipPath>
  <clipPath id="p341ce60de1">
   <rect height="20.91418" width="91.794161" x="236.600647" y="397.510914"/>
  </clipPath>
 </defs>
</svg>
