<?xml version="1.0" encoding="utf-8" standalone="no"?>
<!DOCTYPE svg PUBLIC "-//W3C//DTD SVG 1.1//EN"
  "http://www.w3.org/Graphics/SVG/1.1/DTD/svg11.dtd">
<!-- Created with matplotlib (https://matplotlib.org/) -->
<svg height="475.2pt" version="1.1" viewBox="0 0 576 475.2" width="576pt" xmlns="http://www.w3.org/2000/svg" xmlns:xlink="http://www.w3.org/1999/xlink">
 <defs>
  <style type="text/css">
*{stroke-linecap:butt;stroke-linejoin:round;}
  </style>
 </defs>
 <g id="figure_1">
  <g id="patch_1">
   <path d="M 0 475.2 
L 576 475.2 
L 576 0 
L 0 0 
z
" style="fill:#ffffff;"/>
  </g>
  <g id="axes_1">
   <g id="patch_2">
    <path d="M 36.403365 197.384942 
L 334.160102 197.384942 
L 334.160102 79.851461 
L 36.403365 79.851461 
z
" style="fill:#ffffff;"/>
   </g>
   <g id="patch_3">
    <path clip-path="url(#pb382bac137)" d="M 49.937762 197.384942 
L 53.346284 197.384942 
L 53.346284 194.951537 
L 49.937762 194.951537 
z
" style="fill:#1f77b4;"/>
   </g>
   <g id="patch_4">
    <path clip-path="url(#pb382bac137)" d="M 53.346284 197.384942 
L 56.754806 197.384942 
L 56.754806 197.384942 
L 53.346284 197.384942 
z
" style="fill:#1f77b4;"/>
   </g>
   <g id="patch_5">
    <path clip-path="url(#pb382bac137)" d="M 56.754806 197.384942 
L 60.163329 197.384942 
L 60.163329 197.384942 
L 56.754806 197.384942 
z
" style="fill:#1f77b4;"/>
   </g>
   <g id="patch_6">
    <path clip-path="url(#pb382bac137)" d="M 60.163329 197.384942 
L 63.571851 197.384942 
L 63.571851 194.951537 
L 60.163329 194.951537 
z
" style="fill:#1f77b4;"/>
   </g>
   <g id="patch_7">
    <path clip-path="url(#pb382bac137)" d="M 63.571851 197.384942 
L 66.980373 197.384942 
L 66.980373 197.384942 
L 63.571851 197.384942 
z
" style="fill:#1f77b4;"/>
   </g>
   <g id="patch_8">
    <path clip-path="url(#pb382bac137)" d="M 66.980373 197.384942 
L 70.388895 197.384942 
L 70.388895 197.384942 
L 66.980373 197.384942 
z
" style="fill:#1f77b4;"/>
   </g>
   <g id="patch_9">
    <path clip-path="url(#pb382bac137)" d="M 70.388895 197.384942 
L 73.797417 197.384942 
L 73.797417 197.384942 
L 70.388895 197.384942 
z
" style="fill:#1f77b4;"/>
   </g>
   <g id="patch_10">
    <path clip-path="url(#pb382bac137)" d="M 73.797417 197.384942 
L 77.20594 197.384942 
L 77.20594 194.951537 
L 73.797417 194.951537 
z
" style="fill:#1f77b4;"/>
   </g>
   <g id="patch_11">
    <path clip-path="url(#pb382bac137)" d="M 77.20594 197.384942 
L 80.614462 197.384942 
L 80.614462 197.384942 
L 77.20594 197.384942 
z
" style="fill:#1f77b4;"/>
   </g>
   <g id="patch_12">
    <path clip-path="url(#pb382bac137)" d="M 80.614462 197.384942 
L 84.022984 197.384942 
L 84.022984 192.518132 
L 80.614462 192.518132 
z
" style="fill:#1f77b4;"/>
   </g>
   <g id="patch_13">
    <path clip-path="url(#pb382bac137)" d="M 84.022984 197.384942 
L 87.431506 197.384942 
L 87.431506 194.951537 
L 84.022984 194.951537 
z
" style="fill:#1f77b4;"/>
   </g>
   <g id="patch_14">
    <path clip-path="url(#pb382bac137)" d="M 87.431506 197.384942 
L 90.840028 197.384942 
L 90.840028 194.951537 
L 87.431506 194.951537 
z
" style="fill:#1f77b4;"/>
   </g>
   <g id="patch_15">
    <path clip-path="url(#pb382bac137)" d="M 90.840028 197.384942 
L 94.24855 197.384942 
L 94.24855 194.951537 
L 90.840028 194.951537 
z
" style="fill:#1f77b4;"/>
   </g>
   <g id="patch_16">
    <path clip-path="url(#pb382bac137)" d="M 94.24855 197.384942 
L 97.657073 197.384942 
L 97.657073 185.217915 
L 94.24855 185.217915 
z
" style="fill:#1f77b4;"/>
   </g>
   <g id="patch_17">
    <path clip-path="url(#pb382bac137)" d="M 97.657073 197.384942 
L 101.065595 197.384942 
L 101.065595 185.217915 
L 97.657073 185.217915 
z
" style="fill:#1f77b4;"/>
   </g>
   <g id="patch_18">
    <path clip-path="url(#pb382bac137)" d="M 101.065595 197.384942 
L 104.474117 197.384942 
L 104.474117 175.484294 
L 101.065595 175.484294 
z
" style="fill:#1f77b4;"/>
   </g>
   <g id="patch_19">
    <path clip-path="url(#pb382bac137)" d="M 104.474117 197.384942 
L 107.882639 197.384942 
L 107.882639 170.617483 
L 104.474117 170.617483 
z
" style="fill:#1f77b4;"/>
   </g>
   <g id="patch_20">
    <path clip-path="url(#pb382bac137)" d="M 107.882639 197.384942 
L 111.291161 197.384942 
L 111.291161 158.450456 
L 107.882639 158.450456 
z
" style="fill:#1f77b4;"/>
   </g>
   <g id="patch_21">
    <path clip-path="url(#pb382bac137)" d="M 111.291161 197.384942 
L 114.699683 197.384942 
L 114.699683 148.716834 
L 111.291161 148.716834 
z
" style="fill:#1f77b4;"/>
   </g>
   <g id="patch_22">
    <path clip-path="url(#pb382bac137)" d="M 114.699683 197.384942 
L 118.108206 197.384942 
L 118.108206 146.283429 
L 114.699683 146.283429 
z
" style="fill:#1f77b4;"/>
   </g>
   <g id="patch_23">
    <path clip-path="url(#pb382bac137)" d="M 118.108206 197.384942 
L 121.516728 197.384942 
L 121.516728 114.649158 
L 118.108206 114.649158 
z
" style="fill:#1f77b4;"/>
   </g>
   <g id="patch_24">
    <path clip-path="url(#pb382bac137)" d="M 121.516728 197.384942 
L 124.92525 197.384942 
L 124.92525 119.515969 
L 121.516728 119.515969 
z
" style="fill:#1f77b4;"/>
   </g>
   <g id="patch_25">
    <path clip-path="url(#pb382bac137)" d="M 124.92525 197.384942 
L 128.333772 197.384942 
L 128.333772 129.249591 
L 124.92525 129.249591 
z
" style="fill:#1f77b4;"/>
   </g>
   <g id="patch_26">
    <path clip-path="url(#pb382bac137)" d="M 128.333772 197.384942 
L 131.742294 197.384942 
L 131.742294 109.782347 
L 128.333772 109.782347 
z
" style="fill:#1f77b4;"/>
   </g>
   <g id="patch_27">
    <path clip-path="url(#pb382bac137)" d="M 131.742294 197.384942 
L 135.150816 197.384942 
L 135.150816 102.482131 
L 131.742294 102.482131 
z
" style="fill:#1f77b4;"/>
   </g>
   <g id="patch_28">
    <path clip-path="url(#pb382bac137)" d="M 135.150816 197.384942 
L 138.559339 197.384942 
L 138.559339 85.448293 
L 135.150816 85.448293 
z
" style="fill:#1f77b4;"/>
   </g>
   <g id="patch_29">
    <path clip-path="url(#pb382bac137)" d="M 138.559339 197.384942 
L 141.967861 197.384942 
L 141.967861 131.682996 
L 138.559339 131.682996 
z
" style="fill:#1f77b4;"/>
   </g>
   <g id="patch_30">
    <path clip-path="url(#pb382bac137)" d="M 141.967861 197.384942 
L 145.376383 197.384942 
L 145.376383 121.949375 
L 141.967861 121.949375 
z
" style="fill:#1f77b4;"/>
   </g>
   <g id="patch_31">
    <path clip-path="url(#pb382bac137)" d="M 145.376383 197.384942 
L 148.784905 197.384942 
L 148.784905 138.983212 
L 145.376383 138.983212 
z
" style="fill:#1f77b4;"/>
   </g>
   <g id="patch_32">
    <path clip-path="url(#pb382bac137)" d="M 148.784905 197.384942 
L 152.193427 197.384942 
L 152.193427 129.249591 
L 148.784905 129.249591 
z
" style="fill:#1f77b4;"/>
   </g>
   <g id="patch_33">
    <path clip-path="url(#pb382bac137)" d="M 152.193427 197.384942 
L 155.601949 197.384942 
L 155.601949 151.15024 
L 152.193427 151.15024 
z
" style="fill:#1f77b4;"/>
   </g>
   <g id="patch_34">
    <path clip-path="url(#pb382bac137)" d="M 155.601949 197.384942 
L 159.010472 197.384942 
L 159.010472 136.549807 
L 155.601949 136.549807 
z
" style="fill:#1f77b4;"/>
   </g>
   <g id="patch_35">
    <path clip-path="url(#pb382bac137)" d="M 159.010472 197.384942 
L 162.418994 197.384942 
L 162.418994 146.283429 
L 159.010472 146.283429 
z
" style="fill:#1f77b4;"/>
   </g>
   <g id="patch_36">
    <path clip-path="url(#pb382bac137)" d="M 162.418994 197.384942 
L 165.827516 197.384942 
L 165.827516 158.450456 
L 162.418994 158.450456 
z
" style="fill:#1f77b4;"/>
   </g>
   <g id="patch_37">
    <path clip-path="url(#pb382bac137)" d="M 165.827516 197.384942 
L 169.236038 197.384942 
L 169.236038 165.750672 
L 165.827516 165.750672 
z
" style="fill:#1f77b4;"/>
   </g>
   <g id="patch_38">
    <path clip-path="url(#pb382bac137)" d="M 169.236038 197.384942 
L 172.64456 197.384942 
L 172.64456 170.617483 
L 169.236038 170.617483 
z
" style="fill:#1f77b4;"/>
   </g>
   <g id="patch_39">
    <path clip-path="url(#pb382bac137)" d="M 172.64456 197.384942 
L 176.053082 197.384942 
L 176.053082 185.217915 
L 172.64456 185.217915 
z
" style="fill:#1f77b4;"/>
   </g>
   <g id="patch_40">
    <path clip-path="url(#pb382bac137)" d="M 228.595607 197.384942 
L 232.004129 197.384942 
L 232.004129 185.217915 
L 228.595607 185.217915 
z
" style="fill:#ff0000;"/>
   </g>
   <g id="patch_41">
    <path clip-path="url(#pb382bac137)" d="M 232.004129 197.384942 
L 235.412651 197.384942 
L 235.412651 194.951537 
L 232.004129 194.951537 
z
" style="fill:#ff0000;"/>
   </g>
   <g id="patch_42">
    <path clip-path="url(#pb382bac137)" d="M 235.412651 197.384942 
L 238.821173 197.384942 
L 238.821173 194.951537 
L 235.412651 194.951537 
z
" style="fill:#ff0000;"/>
   </g>
   <g id="patch_43">
    <path clip-path="url(#pb382bac137)" d="M 238.821173 197.384942 
L 242.229695 197.384942 
L 242.229695 194.951537 
L 238.821173 194.951537 
z
" style="fill:#ff0000;"/>
   </g>
   <g id="patch_44">
    <path clip-path="url(#pb382bac137)" d="M 242.229695 197.384942 
L 245.638218 197.384942 
L 245.638218 194.951537 
L 242.229695 194.951537 
z
" style="fill:#ff0000;"/>
   </g>
   <g id="patch_45">
    <path clip-path="url(#pb382bac137)" d="M 245.638218 197.384942 
L 249.04674 197.384942 
L 249.04674 197.384942 
L 245.638218 197.384942 
z
" style="fill:#ff0000;"/>
   </g>
   <g id="patch_46">
    <path clip-path="url(#pb382bac137)" d="M 249.04674 197.384942 
L 252.455262 197.384942 
L 252.455262 194.951537 
L 249.04674 194.951537 
z
" style="fill:#ff0000;"/>
   </g>
   <g id="patch_47">
    <path clip-path="url(#pb382bac137)" d="M 252.455262 197.384942 
L 255.863784 197.384942 
L 255.863784 197.384942 
L 252.455262 197.384942 
z
" style="fill:#ff0000;"/>
   </g>
   <g id="patch_48">
    <path clip-path="url(#pb382bac137)" d="M 255.863784 197.384942 
L 259.272306 197.384942 
L 259.272306 197.384942 
L 255.863784 197.384942 
z
" style="fill:#ff0000;"/>
   </g>
   <g id="patch_49">
    <path clip-path="url(#pb382bac137)" d="M 259.272306 197.384942 
L 262.680828 197.384942 
L 262.680828 197.384942 
L 259.272306 197.384942 
z
" style="fill:#ff0000;"/>
   </g>
   <g id="patch_50">
    <path clip-path="url(#pb382bac137)" d="M 262.680828 197.384942 
L 266.089351 197.384942 
L 266.089351 192.518132 
L 262.680828 192.518132 
z
" style="fill:#ff0000;"/>
   </g>
   <g id="patch_51">
    <path clip-path="url(#pb382bac137)" d="M 266.089351 197.384942 
L 269.497873 197.384942 
L 269.497873 197.384942 
L 266.089351 197.384942 
z
" style="fill:#ff0000;"/>
   </g>
   <g id="patch_52">
    <path clip-path="url(#pb382bac137)" d="M 269.497873 197.384942 
L 272.906395 197.384942 
L 272.906395 197.384942 
L 269.497873 197.384942 
z
" style="fill:#ff0000;"/>
   </g>
   <g id="patch_53">
    <path clip-path="url(#pb382bac137)" d="M 272.906395 197.384942 
L 276.314917 197.384942 
L 276.314917 194.951537 
L 272.906395 194.951537 
z
" style="fill:#ff0000;"/>
   </g>
   <g id="patch_54">
    <path clip-path="url(#pb382bac137)" d="M 276.314917 197.384942 
L 279.723439 197.384942 
L 279.723439 194.951537 
L 276.314917 194.951537 
z
" style="fill:#ff0000;"/>
   </g>
   <g id="patch_55">
    <path clip-path="url(#pb382bac137)" d="M 279.723439 197.384942 
L 283.131961 197.384942 
L 283.131961 194.951537 
L 279.723439 194.951537 
z
" style="fill:#ff0000;"/>
   </g>
   <g id="patch_56">
    <path clip-path="url(#pb382bac137)" d="M 283.131961 197.384942 
L 286.540484 197.384942 
L 286.540484 197.384942 
L 283.131961 197.384942 
z
" style="fill:#ff0000;"/>
   </g>
   <g id="patch_57">
    <path clip-path="url(#pb382bac137)" d="M 286.540484 197.384942 
L 289.949006 197.384942 
L 289.949006 197.384942 
L 286.540484 197.384942 
z
" style="fill:#ff0000;"/>
   </g>
   <g id="patch_58">
    <path clip-path="url(#pb382bac137)" d="M 289.949006 197.384942 
L 293.357528 197.384942 
L 293.357528 197.384942 
L 289.949006 197.384942 
z
" style="fill:#ff0000;"/>
   </g>
   <g id="patch_59">
    <path clip-path="url(#pb382bac137)" d="M 293.357528 197.384942 
L 296.76605 197.384942 
L 296.76605 197.384942 
L 293.357528 197.384942 
z
" style="fill:#ff0000;"/>
   </g>
   <g id="patch_60">
    <path clip-path="url(#pb382bac137)" d="M 296.76605 197.384942 
L 300.174572 197.384942 
L 300.174572 192.518132 
L 296.76605 192.518132 
z
" style="fill:#ff0000;"/>
   </g>
   <g id="patch_61">
    <path clip-path="url(#pb382bac137)" d="M 300.174572 197.384942 
L 303.583094 197.384942 
L 303.583094 197.384942 
L 300.174572 197.384942 
z
" style="fill:#ff0000;"/>
   </g>
   <g id="patch_62">
    <path clip-path="url(#pb382bac137)" d="M 303.583094 197.384942 
L 306.991617 197.384942 
L 306.991617 197.384942 
L 303.583094 197.384942 
z
" style="fill:#ff0000;"/>
   </g>
   <g id="patch_63">
    <path clip-path="url(#pb382bac137)" d="M 306.991617 197.384942 
L 310.400139 197.384942 
L 310.400139 197.384942 
L 306.991617 197.384942 
z
" style="fill:#ff0000;"/>
   </g>
   <g id="patch_64">
    <path clip-path="url(#pb382bac137)" d="M 310.400139 197.384942 
L 313.808661 197.384942 
L 313.808661 194.951537 
L 310.400139 194.951537 
z
" style="fill:#ff0000;"/>
   </g>
   <g id="patch_65">
    <path clip-path="url(#pb382bac137)" d="M 313.808661 197.384942 
L 317.217183 197.384942 
L 317.217183 194.951537 
L 313.808661 194.951537 
z
" style="fill:#ff0000;"/>
   </g>
   <g id="patch_66">
    <path clip-path="url(#pb382bac137)" d="M 317.217183 197.384942 
L 320.625705 197.384942 
L 320.625705 194.951537 
L 317.217183 194.951537 
z
" style="fill:#ff0000;"/>
   </g>
   <g id="patch_67">
    <path clip-path="url(#pb382bac137)" d="M 175.3575 197.384942 
L 178.766022 197.384942 
L 178.766022 168.184077 
L 175.3575 168.184077 
z
" style="fill:#ffa500;"/>
   </g>
   <g id="patch_68">
    <path clip-path="url(#pb382bac137)" d="M 178.766022 197.384942 
L 182.174544 197.384942 
L 182.174544 165.750672 
L 178.766022 165.750672 
z
" style="fill:#ffa500;"/>
   </g>
   <g id="patch_69">
    <path clip-path="url(#pb382bac137)" d="M 182.174544 197.384942 
L 185.583067 197.384942 
L 185.583067 187.651321 
L 182.174544 187.651321 
z
" style="fill:#ffa500;"/>
   </g>
   <g id="patch_70">
    <path clip-path="url(#pb382bac137)" d="M 185.583067 197.384942 
L 188.991589 197.384942 
L 188.991589 182.78451 
L 185.583067 182.78451 
z
" style="fill:#ffa500;"/>
   </g>
   <g id="patch_71">
    <path clip-path="url(#pb382bac137)" d="M 188.991589 197.384942 
L 192.400111 197.384942 
L 192.400111 182.78451 
L 188.991589 182.78451 
z
" style="fill:#ffa500;"/>
   </g>
   <g id="patch_72">
    <path clip-path="url(#pb382bac137)" d="M 192.400111 197.384942 
L 195.808633 197.384942 
L 195.808633 192.518132 
L 192.400111 192.518132 
z
" style="fill:#ffa500;"/>
   </g>
   <g id="patch_73">
    <path clip-path="url(#pb382bac137)" d="M 195.808633 197.384942 
L 199.217155 197.384942 
L 199.217155 190.084726 
L 195.808633 190.084726 
z
" style="fill:#ffa500;"/>
   </g>
   <g id="patch_74">
    <path clip-path="url(#pb382bac137)" d="M 199.217155 197.384942 
L 202.625677 197.384942 
L 202.625677 192.518132 
L 199.217155 192.518132 
z
" style="fill:#ffa500;"/>
   </g>
   <g id="patch_75">
    <path clip-path="url(#pb382bac137)" d="M 202.625677 197.384942 
L 206.0342 197.384942 
L 206.0342 192.518132 
L 202.625677 192.518132 
z
" style="fill:#ffa500;"/>
   </g>
   <g id="patch_76">
    <path clip-path="url(#pb382bac137)" d="M 206.0342 197.384942 
L 209.442722 197.384942 
L 209.442722 187.651321 
L 206.0342 187.651321 
z
" style="fill:#ffa500;"/>
   </g>
   <g id="patch_77">
    <path clip-path="url(#pb382bac137)" d="M 209.442722 197.384942 
L 212.851244 197.384942 
L 212.851244 190.084726 
L 209.442722 190.084726 
z
" style="fill:#ffa500;"/>
   </g>
   <g id="patch_78">
    <path clip-path="url(#pb382bac137)" d="M 212.851244 197.384942 
L 216.259766 197.384942 
L 216.259766 194.951537 
L 212.851244 194.951537 
z
" style="fill:#ffa500;"/>
   </g>
   <g id="patch_79">
    <path clip-path="url(#pb382bac137)" d="M 216.259766 197.384942 
L 219.668288 197.384942 
L 219.668288 194.951537 
L 216.259766 194.951537 
z
" style="fill:#ffa500;"/>
   </g>
   <g id="patch_80">
    <path clip-path="url(#pb382bac137)" d="M 219.668288 197.384942 
L 223.076811 197.384942 
L 223.076811 194.951537 
L 219.668288 194.951537 
z
" style="fill:#ffa500;"/>
   </g>
   <g id="patch_81">
    <path clip-path="url(#pb382bac137)" d="M 223.076811 197.384942 
L 226.485333 197.384942 
L 226.485333 194.951537 
L 223.076811 194.951537 
z
" style="fill:#ffa500;"/>
   </g>
   <g id="matplotlib.axis_1">
    <g id="xtick_1">
     <g id="line2d_1">
      <defs>
       <path d="M 0 0 
L 0 3.5 
" id="m9796d37c25" style="stroke:#000000;stroke-width:0.8;"/>
      </defs>
      <g>
       <use style="stroke:#000000;stroke-width:0.8;" x="49.937762" xlink:href="#m9796d37c25" y="197.384942"/>
      </g>
     </g>
     <g id="text_1">
      <!-- 0.0 -->
      <defs>
       <path d="M 31.78125 66.40625 
Q 24.171875 66.40625 20.328125 58.90625 
Q 16.5 51.421875 16.5 36.375 
Q 16.5 21.390625 20.328125 13.890625 
Q 24.171875 6.390625 31.78125 6.390625 
Q 39.453125 6.390625 43.28125 13.890625 
Q 47.125 21.390625 47.125 36.375 
Q 47.125 51.421875 43.28125 58.90625 
Q 39.453125 66.40625 31.78125 66.40625 
z
M 31.78125 74.21875 
Q 44.046875 74.21875 50.515625 64.515625 
Q 56.984375 54.828125 56.984375 36.375 
Q 56.984375 17.96875 50.515625 8.265625 
Q 44.046875 -1.421875 31.78125 -1.421875 
Q 19.53125 -1.421875 13.0625 8.265625 
Q 6.59375 17.96875 6.59375 36.375 
Q 6.59375 54.828125 13.0625 64.515625 
Q 19.53125 74.21875 31.78125 74.21875 
z
" id="DejaVuSans-48"/>
       <path d="M 10.6875 12.40625 
L 21 12.40625 
L 21 0 
L 10.6875 0 
z
" id="DejaVuSans-46"/>
      </defs>
      <g transform="translate(41.9862 211.98338)scale(0.1 -0.1)">
       <use xlink:href="#DejaVuSans-48"/>
       <use x="63.623047" xlink:href="#DejaVuSans-46"/>
       <use x="95.410156" xlink:href="#DejaVuSans-48"/>
      </g>
     </g>
    </g>
    <g id="xtick_2">
     <g id="line2d_2">
      <g>
       <use style="stroke:#000000;stroke-width:0.8;" x="84.022984" xlink:href="#m9796d37c25" y="197.384942"/>
      </g>
     </g>
     <g id="text_2">
      <!-- 0.5 -->
      <defs>
       <path d="M 10.796875 72.90625 
L 49.515625 72.90625 
L 49.515625 64.59375 
L 19.828125 64.59375 
L 19.828125 46.734375 
Q 21.96875 47.46875 24.109375 47.828125 
Q 26.265625 48.1875 28.421875 48.1875 
Q 40.625 48.1875 47.75 41.5 
Q 54.890625 34.8125 54.890625 23.390625 
Q 54.890625 11.625 47.5625 5.09375 
Q 40.234375 -1.421875 26.90625 -1.421875 
Q 22.3125 -1.421875 17.546875 -0.640625 
Q 12.796875 0.140625 7.71875 1.703125 
L 7.71875 11.625 
Q 12.109375 9.234375 16.796875 8.0625 
Q 21.484375 6.890625 26.703125 6.890625 
Q 35.15625 6.890625 40.078125 11.328125 
Q 45.015625 15.765625 45.015625 23.390625 
Q 45.015625 31 40.078125 35.4375 
Q 35.15625 39.890625 26.703125 39.890625 
Q 22.75 39.890625 18.8125 39.015625 
Q 14.890625 38.140625 10.796875 36.28125 
z
" id="DejaVuSans-53"/>
      </defs>
      <g transform="translate(76.071421 211.98338)scale(0.1 -0.1)">
       <use xlink:href="#DejaVuSans-48"/>
       <use x="63.623047" xlink:href="#DejaVuSans-46"/>
       <use x="95.410156" xlink:href="#DejaVuSans-53"/>
      </g>
     </g>
    </g>
    <g id="xtick_3">
     <g id="line2d_3">
      <g>
       <use style="stroke:#000000;stroke-width:0.8;" x="118.108206" xlink:href="#m9796d37c25" y="197.384942"/>
      </g>
     </g>
     <g id="text_3">
      <!-- 1.0 -->
      <defs>
       <path d="M 12.40625 8.296875 
L 28.515625 8.296875 
L 28.515625 63.921875 
L 10.984375 60.40625 
L 10.984375 69.390625 
L 28.421875 72.90625 
L 38.28125 72.90625 
L 38.28125 8.296875 
L 54.390625 8.296875 
L 54.390625 0 
L 12.40625 0 
z
" id="DejaVuSans-49"/>
      </defs>
      <g transform="translate(110.156643 211.98338)scale(0.1 -0.1)">
       <use xlink:href="#DejaVuSans-49"/>
       <use x="63.623047" xlink:href="#DejaVuSans-46"/>
       <use x="95.410156" xlink:href="#DejaVuSans-48"/>
      </g>
     </g>
    </g>
    <g id="xtick_4">
     <g id="line2d_4">
      <g>
       <use style="stroke:#000000;stroke-width:0.8;" x="152.193427" xlink:href="#m9796d37c25" y="197.384942"/>
      </g>
     </g>
     <g id="text_4">
      <!-- 1.5 -->
      <g transform="translate(144.241865 211.98338)scale(0.1 -0.1)">
       <use xlink:href="#DejaVuSans-49"/>
       <use x="63.623047" xlink:href="#DejaVuSans-46"/>
       <use x="95.410156" xlink:href="#DejaVuSans-53"/>
      </g>
     </g>
    </g>
    <g id="xtick_5">
     <g id="line2d_5">
      <g>
       <use style="stroke:#000000;stroke-width:0.8;" x="186.278649" xlink:href="#m9796d37c25" y="197.384942"/>
      </g>
     </g>
     <g id="text_5">
      <!-- 2.0 -->
      <defs>
       <path d="M 19.1875 8.296875 
L 53.609375 8.296875 
L 53.609375 0 
L 7.328125 0 
L 7.328125 8.296875 
Q 12.9375 14.109375 22.625 23.890625 
Q 32.328125 33.6875 34.8125 36.53125 
Q 39.546875 41.84375 41.421875 45.53125 
Q 43.3125 49.21875 43.3125 52.78125 
Q 43.3125 58.59375 39.234375 62.25 
Q 35.15625 65.921875 28.609375 65.921875 
Q 23.96875 65.921875 18.8125 64.3125 
Q 13.671875 62.703125 7.8125 59.421875 
L 7.8125 69.390625 
Q 13.765625 71.78125 18.9375 73 
Q 24.125 74.21875 28.421875 74.21875 
Q 39.75 74.21875 46.484375 68.546875 
Q 53.21875 62.890625 53.21875 53.421875 
Q 53.21875 48.921875 51.53125 44.890625 
Q 49.859375 40.875 45.40625 35.40625 
Q 44.1875 33.984375 37.640625 27.21875 
Q 31.109375 20.453125 19.1875 8.296875 
z
" id="DejaVuSans-50"/>
      </defs>
      <g transform="translate(178.327086 211.98338)scale(0.1 -0.1)">
       <use xlink:href="#DejaVuSans-50"/>
       <use x="63.623047" xlink:href="#DejaVuSans-46"/>
       <use x="95.410156" xlink:href="#DejaVuSans-48"/>
      </g>
     </g>
    </g>
    <g id="xtick_6">
     <g id="line2d_6">
      <g>
       <use style="stroke:#000000;stroke-width:0.8;" x="220.363871" xlink:href="#m9796d37c25" y="197.384942"/>
      </g>
     </g>
     <g id="text_6">
      <!-- 2.5 -->
      <g transform="translate(212.412308 211.98338)scale(0.1 -0.1)">
       <use xlink:href="#DejaVuSans-50"/>
       <use x="63.623047" xlink:href="#DejaVuSans-46"/>
       <use x="95.410156" xlink:href="#DejaVuSans-53"/>
      </g>
     </g>
    </g>
    <g id="xtick_7">
     <g id="line2d_7">
      <g>
       <use style="stroke:#000000;stroke-width:0.8;" x="254.449092" xlink:href="#m9796d37c25" y="197.384942"/>
      </g>
     </g>
     <g id="text_7">
      <!-- 3.0 -->
      <defs>
       <path d="M 40.578125 39.3125 
Q 47.65625 37.796875 51.625 33 
Q 55.609375 28.21875 55.609375 21.1875 
Q 55.609375 10.40625 48.1875 4.484375 
Q 40.765625 -1.421875 27.09375 -1.421875 
Q 22.515625 -1.421875 17.65625 -0.515625 
Q 12.796875 0.390625 7.625 2.203125 
L 7.625 11.71875 
Q 11.71875 9.328125 16.59375 8.109375 
Q 21.484375 6.890625 26.8125 6.890625 
Q 36.078125 6.890625 40.9375 10.546875 
Q 45.796875 14.203125 45.796875 21.1875 
Q 45.796875 27.640625 41.28125 31.265625 
Q 36.765625 34.90625 28.71875 34.90625 
L 20.21875 34.90625 
L 20.21875 43.015625 
L 29.109375 43.015625 
Q 36.375 43.015625 40.234375 45.921875 
Q 44.09375 48.828125 44.09375 54.296875 
Q 44.09375 59.90625 40.109375 62.90625 
Q 36.140625 65.921875 28.71875 65.921875 
Q 24.65625 65.921875 20.015625 65.03125 
Q 15.375 64.15625 9.8125 62.3125 
L 9.8125 71.09375 
Q 15.4375 72.65625 20.34375 73.4375 
Q 25.25 74.21875 29.59375 74.21875 
Q 40.828125 74.21875 47.359375 69.109375 
Q 53.90625 64.015625 53.90625 55.328125 
Q 53.90625 49.265625 50.4375 45.09375 
Q 46.96875 40.921875 40.578125 39.3125 
z
" id="DejaVuSans-51"/>
      </defs>
      <g transform="translate(246.49753 211.98338)scale(0.1 -0.1)">
       <use xlink:href="#DejaVuSans-51"/>
       <use x="63.623047" xlink:href="#DejaVuSans-46"/>
       <use x="95.410156" xlink:href="#DejaVuSans-48"/>
      </g>
     </g>
    </g>
    <g id="xtick_8">
     <g id="line2d_8">
      <g>
       <use style="stroke:#000000;stroke-width:0.8;" x="288.534314" xlink:href="#m9796d37c25" y="197.384942"/>
      </g>
     </g>
     <g id="text_8">
      <!-- 3.5 -->
      <g transform="translate(280.582752 211.98338)scale(0.1 -0.1)">
       <use xlink:href="#DejaVuSans-51"/>
       <use x="63.623047" xlink:href="#DejaVuSans-46"/>
       <use x="95.410156" xlink:href="#DejaVuSans-53"/>
      </g>
     </g>
    </g>
    <g id="xtick_9">
     <g id="line2d_9">
      <g>
       <use style="stroke:#000000;stroke-width:0.8;" x="322.619536" xlink:href="#m9796d37c25" y="197.384942"/>
      </g>
     </g>
     <g id="text_9">
      <!-- 4.0 -->
      <defs>
       <path d="M 37.796875 64.3125 
L 12.890625 25.390625 
L 37.796875 25.390625 
z
M 35.203125 72.90625 
L 47.609375 72.90625 
L 47.609375 25.390625 
L 58.015625 25.390625 
L 58.015625 17.1875 
L 47.609375 17.1875 
L 47.609375 0 
L 37.796875 0 
L 37.796875 17.1875 
L 4.890625 17.1875 
L 4.890625 26.703125 
z
" id="DejaVuSans-52"/>
      </defs>
      <g transform="translate(314.667973 211.98338)scale(0.1 -0.1)">
       <use xlink:href="#DejaVuSans-52"/>
       <use x="63.623047" xlink:href="#DejaVuSans-46"/>
       <use x="95.410156" xlink:href="#DejaVuSans-48"/>
      </g>
     </g>
    </g>
    <g id="text_10">
     <!-- log(RFU) -->
     <defs>
      <path d="M 9.421875 75.984375 
L 18.40625 75.984375 
L 18.40625 0 
L 9.421875 0 
z
" id="DejaVuSans-108"/>
      <path d="M 30.609375 48.390625 
Q 23.390625 48.390625 19.1875 42.75 
Q 14.984375 37.109375 14.984375 27.296875 
Q 14.984375 17.484375 19.15625 11.84375 
Q 23.34375 6.203125 30.609375 6.203125 
Q 37.796875 6.203125 41.984375 11.859375 
Q 46.1875 17.53125 46.1875 27.296875 
Q 46.1875 37.015625 41.984375 42.703125 
Q 37.796875 48.390625 30.609375 48.390625 
z
M 30.609375 56 
Q 42.328125 56 49.015625 48.375 
Q 55.71875 40.765625 55.71875 27.296875 
Q 55.71875 13.875 49.015625 6.21875 
Q 42.328125 -1.421875 30.609375 -1.421875 
Q 18.84375 -1.421875 12.171875 6.21875 
Q 5.515625 13.875 5.515625 27.296875 
Q 5.515625 40.765625 12.171875 48.375 
Q 18.84375 56 30.609375 56 
z
" id="DejaVuSans-111"/>
      <path d="M 45.40625 27.984375 
Q 45.40625 37.75 41.375 43.109375 
Q 37.359375 48.484375 30.078125 48.484375 
Q 22.859375 48.484375 18.828125 43.109375 
Q 14.796875 37.75 14.796875 27.984375 
Q 14.796875 18.265625 18.828125 12.890625 
Q 22.859375 7.515625 30.078125 7.515625 
Q 37.359375 7.515625 41.375 12.890625 
Q 45.40625 18.265625 45.40625 27.984375 
z
M 54.390625 6.78125 
Q 54.390625 -7.171875 48.1875 -13.984375 
Q 42 -20.796875 29.203125 -20.796875 
Q 24.46875 -20.796875 20.265625 -20.09375 
Q 16.0625 -19.390625 12.109375 -17.921875 
L 12.109375 -9.1875 
Q 16.0625 -11.328125 19.921875 -12.34375 
Q 23.78125 -13.375 27.78125 -13.375 
Q 36.625 -13.375 41.015625 -8.765625 
Q 45.40625 -4.15625 45.40625 5.171875 
L 45.40625 9.625 
Q 42.625 4.78125 38.28125 2.390625 
Q 33.9375 0 27.875 0 
Q 17.828125 0 11.671875 7.65625 
Q 5.515625 15.328125 5.515625 27.984375 
Q 5.515625 40.671875 11.671875 48.328125 
Q 17.828125 56 27.875 56 
Q 33.9375 56 38.28125 53.609375 
Q 42.625 51.21875 45.40625 46.390625 
L 45.40625 54.6875 
L 54.390625 54.6875 
z
" id="DejaVuSans-103"/>
      <path d="M 31 75.875 
Q 24.46875 64.65625 21.28125 53.65625 
Q 18.109375 42.671875 18.109375 31.390625 
Q 18.109375 20.125 21.3125 9.0625 
Q 24.515625 -2 31 -13.1875 
L 23.1875 -13.1875 
Q 15.875 -1.703125 12.234375 9.375 
Q 8.59375 20.453125 8.59375 31.390625 
Q 8.59375 42.28125 12.203125 53.3125 
Q 15.828125 64.359375 23.1875 75.875 
z
" id="DejaVuSans-40"/>
      <path d="M 44.390625 34.1875 
Q 47.5625 33.109375 50.5625 29.59375 
Q 53.5625 26.078125 56.59375 19.921875 
L 66.609375 0 
L 56 0 
L 46.6875 18.703125 
Q 43.0625 26.03125 39.671875 28.421875 
Q 36.28125 30.8125 30.421875 30.8125 
L 19.671875 30.8125 
L 19.671875 0 
L 9.8125 0 
L 9.8125 72.90625 
L 32.078125 72.90625 
Q 44.578125 72.90625 50.734375 67.671875 
Q 56.890625 62.453125 56.890625 51.90625 
Q 56.890625 45.015625 53.6875 40.46875 
Q 50.484375 35.9375 44.390625 34.1875 
z
M 19.671875 64.796875 
L 19.671875 38.921875 
L 32.078125 38.921875 
Q 39.203125 38.921875 42.84375 42.21875 
Q 46.484375 45.515625 46.484375 51.90625 
Q 46.484375 58.296875 42.84375 61.546875 
Q 39.203125 64.796875 32.078125 64.796875 
z
" id="DejaVuSans-82"/>
      <path d="M 9.8125 72.90625 
L 51.703125 72.90625 
L 51.703125 64.59375 
L 19.671875 64.59375 
L 19.671875 43.109375 
L 48.578125 43.109375 
L 48.578125 34.8125 
L 19.671875 34.8125 
L 19.671875 0 
L 9.8125 0 
z
" id="DejaVuSans-70"/>
      <path d="M 8.6875 72.90625 
L 18.609375 72.90625 
L 18.609375 28.609375 
Q 18.609375 16.890625 22.84375 11.734375 
Q 27.09375 6.59375 36.625 6.59375 
Q 46.09375 6.59375 50.34375 11.734375 
Q 54.59375 16.890625 54.59375 28.609375 
L 54.59375 72.90625 
L 64.5 72.90625 
L 64.5 27.390625 
Q 64.5 13.140625 57.4375 5.859375 
Q 50.390625 -1.421875 36.625 -1.421875 
Q 22.796875 -1.421875 15.734375 5.859375 
Q 8.6875 13.140625 8.6875 27.390625 
z
" id="DejaVuSans-85"/>
      <path d="M 8.015625 75.875 
L 15.828125 75.875 
Q 23.140625 64.359375 26.78125 53.3125 
Q 30.421875 42.28125 30.421875 31.390625 
Q 30.421875 20.453125 26.78125 9.375 
Q 23.140625 -1.703125 15.828125 -13.1875 
L 8.015625 -13.1875 
Q 14.5 -2 17.703125 9.0625 
Q 20.90625 20.125 20.90625 31.390625 
Q 20.90625 42.671875 17.703125 53.65625 
Q 14.5 64.65625 8.015625 75.875 
z
" id="DejaVuSans-41"/>
     </defs>
     <g transform="translate(163.74814 225.661505)scale(0.1 -0.1)">
      <use xlink:href="#DejaVuSans-108"/>
      <use x="27.783203" xlink:href="#DejaVuSans-111"/>
      <use x="88.964844" xlink:href="#DejaVuSans-103"/>
      <use x="152.441406" xlink:href="#DejaVuSans-40"/>
      <use x="191.455078" xlink:href="#DejaVuSans-82"/>
      <use x="260.9375" xlink:href="#DejaVuSans-70"/>
      <use x="318.457031" xlink:href="#DejaVuSans-85"/>
      <use x="391.650391" xlink:href="#DejaVuSans-41"/>
     </g>
    </g>
   </g>
   <g id="matplotlib.axis_2">
    <g id="ytick_1">
     <g id="line2d_10">
      <defs>
       <path d="M 0 0 
L -3.5 0 
" id="m9be99b1c64" style="stroke:#000000;stroke-width:0.8;"/>
      </defs>
      <g>
       <use style="stroke:#000000;stroke-width:0.8;" x="36.403365" xlink:href="#m9be99b1c64" y="197.384942"/>
      </g>
     </g>
     <g id="text_11">
      <!-- 0 -->
      <g transform="translate(23.040865 201.184161)scale(0.1 -0.1)">
       <use xlink:href="#DejaVuSans-48"/>
      </g>
     </g>
    </g>
    <g id="ytick_2">
     <g id="line2d_11">
      <g>
       <use style="stroke:#000000;stroke-width:0.8;" x="36.403365" xlink:href="#m9be99b1c64" y="173.050888"/>
      </g>
     </g>
     <g id="text_12">
      <!-- 10 -->
      <g transform="translate(16.678365 176.850107)scale(0.1 -0.1)">
       <use xlink:href="#DejaVuSans-49"/>
       <use x="63.623047" xlink:href="#DejaVuSans-48"/>
      </g>
     </g>
    </g>
    <g id="ytick_3">
     <g id="line2d_12">
      <g>
       <use style="stroke:#000000;stroke-width:0.8;" x="36.403365" xlink:href="#m9be99b1c64" y="148.716834"/>
      </g>
     </g>
     <g id="text_13">
      <!-- 20 -->
      <g transform="translate(16.678365 152.516053)scale(0.1 -0.1)">
       <use xlink:href="#DejaVuSans-50"/>
       <use x="63.623047" xlink:href="#DejaVuSans-48"/>
      </g>
     </g>
    </g>
    <g id="ytick_4">
     <g id="line2d_13">
      <g>
       <use style="stroke:#000000;stroke-width:0.8;" x="36.403365" xlink:href="#m9be99b1c64" y="124.38278"/>
      </g>
     </g>
     <g id="text_14">
      <!-- 30 -->
      <g transform="translate(16.678365 128.181999)scale(0.1 -0.1)">
       <use xlink:href="#DejaVuSans-51"/>
       <use x="63.623047" xlink:href="#DejaVuSans-48"/>
      </g>
     </g>
    </g>
    <g id="ytick_5">
     <g id="line2d_14">
      <g>
       <use style="stroke:#000000;stroke-width:0.8;" x="36.403365" xlink:href="#m9be99b1c64" y="100.048726"/>
      </g>
     </g>
     <g id="text_15">
      <!-- 40 -->
      <g transform="translate(16.678365 103.847945)scale(0.1 -0.1)">
       <use xlink:href="#DejaVuSans-52"/>
       <use x="63.623047" xlink:href="#DejaVuSans-48"/>
      </g>
     </g>
    </g>
    <g id="text_16">
     <!-- Counts -->
     <defs>
      <path d="M 64.40625 67.28125 
L 64.40625 56.890625 
Q 59.421875 61.53125 53.78125 63.8125 
Q 48.140625 66.109375 41.796875 66.109375 
Q 29.296875 66.109375 22.65625 58.46875 
Q 16.015625 50.828125 16.015625 36.375 
Q 16.015625 21.96875 22.65625 14.328125 
Q 29.296875 6.6875 41.796875 6.6875 
Q 48.140625 6.6875 53.78125 8.984375 
Q 59.421875 11.28125 64.40625 15.921875 
L 64.40625 5.609375 
Q 59.234375 2.09375 53.4375 0.328125 
Q 47.65625 -1.421875 41.21875 -1.421875 
Q 24.65625 -1.421875 15.125 8.703125 
Q 5.609375 18.84375 5.609375 36.375 
Q 5.609375 53.953125 15.125 64.078125 
Q 24.65625 74.21875 41.21875 74.21875 
Q 47.75 74.21875 53.53125 72.484375 
Q 59.328125 70.75 64.40625 67.28125 
z
" id="DejaVuSans-67"/>
      <path d="M 8.5 21.578125 
L 8.5 54.6875 
L 17.484375 54.6875 
L 17.484375 21.921875 
Q 17.484375 14.15625 20.5 10.265625 
Q 23.53125 6.390625 29.59375 6.390625 
Q 36.859375 6.390625 41.078125 11.03125 
Q 45.3125 15.671875 45.3125 23.6875 
L 45.3125 54.6875 
L 54.296875 54.6875 
L 54.296875 0 
L 45.3125 0 
L 45.3125 8.40625 
Q 42.046875 3.421875 37.71875 1 
Q 33.40625 -1.421875 27.6875 -1.421875 
Q 18.265625 -1.421875 13.375 4.4375 
Q 8.5 10.296875 8.5 21.578125 
z
M 31.109375 56 
z
" id="DejaVuSans-117"/>
      <path d="M 54.890625 33.015625 
L 54.890625 0 
L 45.90625 0 
L 45.90625 32.71875 
Q 45.90625 40.484375 42.875 44.328125 
Q 39.84375 48.1875 33.796875 48.1875 
Q 26.515625 48.1875 22.3125 43.546875 
Q 18.109375 38.921875 18.109375 30.90625 
L 18.109375 0 
L 9.078125 0 
L 9.078125 54.6875 
L 18.109375 54.6875 
L 18.109375 46.1875 
Q 21.34375 51.125 25.703125 53.5625 
Q 30.078125 56 35.796875 56 
Q 45.21875 56 50.046875 50.171875 
Q 54.890625 44.34375 54.890625 33.015625 
z
" id="DejaVuSans-110"/>
      <path d="M 18.3125 70.21875 
L 18.3125 54.6875 
L 36.8125 54.6875 
L 36.8125 47.703125 
L 18.3125 47.703125 
L 18.3125 18.015625 
Q 18.3125 11.328125 20.140625 9.421875 
Q 21.96875 7.515625 27.59375 7.515625 
L 36.8125 7.515625 
L 36.8125 0 
L 27.59375 0 
Q 17.1875 0 13.234375 3.875 
Q 9.28125 7.765625 9.28125 18.015625 
L 9.28125 47.703125 
L 2.6875 47.703125 
L 2.6875 54.6875 
L 9.28125 54.6875 
L 9.28125 70.21875 
z
" id="DejaVuSans-116"/>
      <path d="M 44.28125 53.078125 
L 44.28125 44.578125 
Q 40.484375 46.53125 36.375 47.5 
Q 32.28125 48.484375 27.875 48.484375 
Q 21.1875 48.484375 17.84375 46.4375 
Q 14.5 44.390625 14.5 40.28125 
Q 14.5 37.15625 16.890625 35.375 
Q 19.28125 33.59375 26.515625 31.984375 
L 29.59375 31.296875 
Q 39.15625 29.25 43.1875 25.515625 
Q 47.21875 21.78125 47.21875 15.09375 
Q 47.21875 7.46875 41.1875 3.015625 
Q 35.15625 -1.421875 24.609375 -1.421875 
Q 20.21875 -1.421875 15.453125 -0.5625 
Q 10.6875 0.296875 5.421875 2 
L 5.421875 11.28125 
Q 10.40625 8.6875 15.234375 7.390625 
Q 20.0625 6.109375 24.8125 6.109375 
Q 31.15625 6.109375 34.5625 8.28125 
Q 37.984375 10.453125 37.984375 14.40625 
Q 37.984375 18.0625 35.515625 20.015625 
Q 33.0625 21.96875 24.703125 23.78125 
L 21.578125 24.515625 
Q 13.234375 26.265625 9.515625 29.90625 
Q 5.8125 33.546875 5.8125 39.890625 
Q 5.8125 47.609375 11.28125 51.796875 
Q 16.75 56 26.8125 56 
Q 31.78125 56 36.171875 55.265625 
Q 40.578125 54.546875 44.28125 53.078125 
z
" id="DejaVuSans-115"/>
     </defs>
     <g transform="translate(10.598677 156.071327)rotate(-90)scale(0.1 -0.1)">
      <use xlink:href="#DejaVuSans-67"/>
      <use x="69.824219" xlink:href="#DejaVuSans-111"/>
      <use x="131.005859" xlink:href="#DejaVuSans-117"/>
      <use x="194.384766" xlink:href="#DejaVuSans-110"/>
      <use x="257.763672" xlink:href="#DejaVuSans-116"/>
      <use x="296.972656" xlink:href="#DejaVuSans-115"/>
     </g>
    </g>
   </g>
   <g id="patch_82">
    <path d="M 36.403365 197.384942 
L 36.403365 79.851461 
" style="fill:none;stroke:#000000;stroke-linecap:square;stroke-linejoin:miter;stroke-width:0.8;"/>
   </g>
   <g id="patch_83">
    <path d="M 334.160102 197.384942 
L 334.160102 79.851461 
" style="fill:none;stroke:#000000;stroke-linecap:square;stroke-linejoin:miter;stroke-width:0.8;"/>
   </g>
   <g id="patch_84">
    <path d="M 36.403365 197.384942 
L 334.160102 197.384942 
" style="fill:none;stroke:#000000;stroke-linecap:square;stroke-linejoin:miter;stroke-width:0.8;"/>
   </g>
   <g id="patch_85">
    <path d="M 36.403365 79.851461 
L 334.160102 79.851461 
" style="fill:none;stroke:#000000;stroke-linecap:square;stroke-linejoin:miter;stroke-width:0.8;"/>
   </g>
  </g>
  <g id="axes_2">
   <g id="patch_86">
    <path d="M 36.403365 439.907885 
L 212.525065 439.907885 
L 212.525065 240.761298 
L 36.403365 240.761298 
z
" style="fill:#ffffff;"/>
   </g>
   <g id="patch_87">
    <path clip-path="url(#pee8033e28c)" d="M 36.403365 430.855767 
L 102.095887 430.855767 
L 102.095887 379.129381 
L 36.403365 379.129381 
z
" style="fill:#1f77b4;"/>
   </g>
   <g id="patch_88">
    <path clip-path="url(#pee8033e28c)" d="M 36.403365 366.197784 
L 178.170067 366.197784 
L 178.170067 314.471398 
L 36.403365 314.471398 
z
" style="fill:#1f77b4;"/>
   </g>
   <g id="patch_89">
    <path clip-path="url(#pee8033e28c)" d="M 36.403365 301.539801 
L 204.138317 301.539801 
L 204.138317 249.813415 
L 36.403365 249.813415 
z
" style="fill:#1f77b4;"/>
   </g>
   <g id="matplotlib.axis_3">
    <g id="xtick_10">
     <g id="line2d_15">
      <g>
       <use style="stroke:#000000;stroke-width:0.8;" x="36.403365" xlink:href="#m9796d37c25" y="439.907885"/>
      </g>
     </g>
     <g id="text_17">
      <!-- 0 -->
      <g transform="translate(33.222115 454.506323)scale(0.1 -0.1)">
       <use xlink:href="#DejaVuSans-48"/>
      </g>
     </g>
    </g>
    <g id="xtick_11">
     <g id="line2d_16">
      <g>
       <use style="stroke:#000000;stroke-width:0.8;" x="80.552573" xlink:href="#m9796d37c25" y="439.907885"/>
      </g>
     </g>
     <g id="text_18">
      <!-- 2 -->
      <g transform="translate(77.371323 454.506323)scale(0.1 -0.1)">
       <use xlink:href="#DejaVuSans-50"/>
      </g>
     </g>
    </g>
    <g id="xtick_12">
     <g id="line2d_17">
      <g>
       <use style="stroke:#000000;stroke-width:0.8;" x="124.701781" xlink:href="#m9796d37c25" y="439.907885"/>
      </g>
     </g>
     <g id="text_19">
      <!-- 4 -->
      <g transform="translate(121.520531 454.506323)scale(0.1 -0.1)">
       <use xlink:href="#DejaVuSans-52"/>
      </g>
     </g>
    </g>
    <g id="xtick_13">
     <g id="line2d_18">
      <g>
       <use style="stroke:#000000;stroke-width:0.8;" x="168.850989" xlink:href="#m9796d37c25" y="439.907885"/>
      </g>
     </g>
     <g id="text_20">
      <!-- 6 -->
      <defs>
       <path d="M 33.015625 40.375 
Q 26.375 40.375 22.484375 35.828125 
Q 18.609375 31.296875 18.609375 23.390625 
Q 18.609375 15.53125 22.484375 10.953125 
Q 26.375 6.390625 33.015625 6.390625 
Q 39.65625 6.390625 43.53125 10.953125 
Q 47.40625 15.53125 47.40625 23.390625 
Q 47.40625 31.296875 43.53125 35.828125 
Q 39.65625 40.375 33.015625 40.375 
z
M 52.59375 71.296875 
L 52.59375 62.3125 
Q 48.875 64.0625 45.09375 64.984375 
Q 41.3125 65.921875 37.59375 65.921875 
Q 27.828125 65.921875 22.671875 59.328125 
Q 17.53125 52.734375 16.796875 39.40625 
Q 19.671875 43.65625 24.015625 45.921875 
Q 28.375 48.1875 33.59375 48.1875 
Q 44.578125 48.1875 50.953125 41.515625 
Q 57.328125 34.859375 57.328125 23.390625 
Q 57.328125 12.15625 50.6875 5.359375 
Q 44.046875 -1.421875 33.015625 -1.421875 
Q 20.359375 -1.421875 13.671875 8.265625 
Q 6.984375 17.96875 6.984375 36.375 
Q 6.984375 53.65625 15.1875 63.9375 
Q 23.390625 74.21875 37.203125 74.21875 
Q 40.921875 74.21875 44.703125 73.484375 
Q 48.484375 72.75 52.59375 71.296875 
z
" id="DejaVuSans-54"/>
      </defs>
      <g transform="translate(165.669739 454.506323)scale(0.1 -0.1)">
       <use xlink:href="#DejaVuSans-54"/>
      </g>
     </g>
    </g>
    <g id="xtick_14">
     <g id="line2d_19">
      <g>
       <use style="stroke:#000000;stroke-width:0.8;" x="213.000198" xlink:href="#m9796d37c25" y="439.907885"/>
      </g>
     </g>
     <g id="text_21">
      <!-- 8 -->
      <defs>
       <path d="M 31.78125 34.625 
Q 24.75 34.625 20.71875 30.859375 
Q 16.703125 27.09375 16.703125 20.515625 
Q 16.703125 13.921875 20.71875 10.15625 
Q 24.75 6.390625 31.78125 6.390625 
Q 38.8125 6.390625 42.859375 10.171875 
Q 46.921875 13.96875 46.921875 20.515625 
Q 46.921875 27.09375 42.890625 30.859375 
Q 38.875 34.625 31.78125 34.625 
z
M 21.921875 38.8125 
Q 15.578125 40.375 12.03125 44.71875 
Q 8.5 49.078125 8.5 55.328125 
Q 8.5 64.0625 14.71875 69.140625 
Q 20.953125 74.21875 31.78125 74.21875 
Q 42.671875 74.21875 48.875 69.140625 
Q 55.078125 64.0625 55.078125 55.328125 
Q 55.078125 49.078125 51.53125 44.71875 
Q 48 40.375 41.703125 38.8125 
Q 48.828125 37.15625 52.796875 32.3125 
Q 56.78125 27.484375 56.78125 20.515625 
Q 56.78125 9.90625 50.3125 4.234375 
Q 43.84375 -1.421875 31.78125 -1.421875 
Q 19.734375 -1.421875 13.25 4.234375 
Q 6.78125 9.90625 6.78125 20.515625 
Q 6.78125 27.484375 10.78125 32.3125 
Q 14.796875 37.15625 21.921875 38.8125 
z
M 18.3125 54.390625 
Q 18.3125 48.734375 21.84375 45.5625 
Q 25.390625 42.390625 31.78125 42.390625 
Q 38.140625 42.390625 41.71875 45.5625 
Q 45.3125 48.734375 45.3125 54.390625 
Q 45.3125 60.0625 41.71875 63.234375 
Q 38.140625 66.40625 31.78125 66.40625 
Q 25.390625 66.40625 21.84375 63.234375 
Q 18.3125 60.0625 18.3125 54.390625 
z
" id="DejaVuSans-56"/>
      </defs>
      <g transform="translate(209.818948 454.506323)scale(0.1 -0.1)">
       <use xlink:href="#DejaVuSans-56"/>
      </g>
     </g>
    </g>
    <g id="text_22">
     <!-- Model Coefficient -->
     <defs>
      <path d="M 9.8125 72.90625 
L 24.515625 72.90625 
L 43.109375 23.296875 
L 61.8125 72.90625 
L 76.515625 72.90625 
L 76.515625 0 
L 66.890625 0 
L 66.890625 64.015625 
L 48.09375 14.015625 
L 38.1875 14.015625 
L 19.390625 64.015625 
L 19.390625 0 
L 9.8125 0 
z
" id="DejaVuSans-77"/>
      <path d="M 45.40625 46.390625 
L 45.40625 75.984375 
L 54.390625 75.984375 
L 54.390625 0 
L 45.40625 0 
L 45.40625 8.203125 
Q 42.578125 3.328125 38.25 0.953125 
Q 33.9375 -1.421875 27.875 -1.421875 
Q 17.96875 -1.421875 11.734375 6.484375 
Q 5.515625 14.40625 5.515625 27.296875 
Q 5.515625 40.1875 11.734375 48.09375 
Q 17.96875 56 27.875 56 
Q 33.9375 56 38.25 53.625 
Q 42.578125 51.265625 45.40625 46.390625 
z
M 14.796875 27.296875 
Q 14.796875 17.390625 18.875 11.75 
Q 22.953125 6.109375 30.078125 6.109375 
Q 37.203125 6.109375 41.296875 11.75 
Q 45.40625 17.390625 45.40625 27.296875 
Q 45.40625 37.203125 41.296875 42.84375 
Q 37.203125 48.484375 30.078125 48.484375 
Q 22.953125 48.484375 18.875 42.84375 
Q 14.796875 37.203125 14.796875 27.296875 
z
" id="DejaVuSans-100"/>
      <path d="M 56.203125 29.59375 
L 56.203125 25.203125 
L 14.890625 25.203125 
Q 15.484375 15.921875 20.484375 11.0625 
Q 25.484375 6.203125 34.421875 6.203125 
Q 39.59375 6.203125 44.453125 7.46875 
Q 49.3125 8.734375 54.109375 11.28125 
L 54.109375 2.78125 
Q 49.265625 0.734375 44.1875 -0.34375 
Q 39.109375 -1.421875 33.890625 -1.421875 
Q 20.796875 -1.421875 13.15625 6.1875 
Q 5.515625 13.8125 5.515625 26.8125 
Q 5.515625 40.234375 12.765625 48.109375 
Q 20.015625 56 32.328125 56 
Q 43.359375 56 49.78125 48.890625 
Q 56.203125 41.796875 56.203125 29.59375 
z
M 47.21875 32.234375 
Q 47.125 39.59375 43.09375 43.984375 
Q 39.0625 48.390625 32.421875 48.390625 
Q 24.90625 48.390625 20.390625 44.140625 
Q 15.875 39.890625 15.1875 32.171875 
z
" id="DejaVuSans-101"/>
      <path id="DejaVuSans-32"/>
      <path d="M 37.109375 75.984375 
L 37.109375 68.5 
L 28.515625 68.5 
Q 23.6875 68.5 21.796875 66.546875 
Q 19.921875 64.59375 19.921875 59.515625 
L 19.921875 54.6875 
L 34.71875 54.6875 
L 34.71875 47.703125 
L 19.921875 47.703125 
L 19.921875 0 
L 10.890625 0 
L 10.890625 47.703125 
L 2.296875 47.703125 
L 2.296875 54.6875 
L 10.890625 54.6875 
L 10.890625 58.5 
Q 10.890625 67.625 15.140625 71.796875 
Q 19.390625 75.984375 28.609375 75.984375 
z
" id="DejaVuSans-102"/>
      <path d="M 9.421875 54.6875 
L 18.40625 54.6875 
L 18.40625 0 
L 9.421875 0 
z
M 9.421875 75.984375 
L 18.40625 75.984375 
L 18.40625 64.59375 
L 9.421875 64.59375 
z
" id="DejaVuSans-105"/>
      <path d="M 48.78125 52.59375 
L 48.78125 44.1875 
Q 44.96875 46.296875 41.140625 47.34375 
Q 37.3125 48.390625 33.40625 48.390625 
Q 24.65625 48.390625 19.8125 42.84375 
Q 14.984375 37.3125 14.984375 27.296875 
Q 14.984375 17.28125 19.8125 11.734375 
Q 24.65625 6.203125 33.40625 6.203125 
Q 37.3125 6.203125 41.140625 7.25 
Q 44.96875 8.296875 48.78125 10.40625 
L 48.78125 2.09375 
Q 45.015625 0.34375 40.984375 -0.53125 
Q 36.96875 -1.421875 32.421875 -1.421875 
Q 20.0625 -1.421875 12.78125 6.34375 
Q 5.515625 14.109375 5.515625 27.296875 
Q 5.515625 40.671875 12.859375 48.328125 
Q 20.21875 56 33.015625 56 
Q 37.15625 56 41.109375 55.140625 
Q 45.0625 54.296875 48.78125 52.59375 
z
" id="DejaVuSans-99"/>
     </defs>
     <g transform="translate(72.28484 469.704135)scale(0.12 -0.12)">
      <use xlink:href="#DejaVuSans-77"/>
      <use x="86.279297" xlink:href="#DejaVuSans-111"/>
      <use x="147.460938" xlink:href="#DejaVuSans-100"/>
      <use x="210.9375" xlink:href="#DejaVuSans-101"/>
      <use x="272.460938" xlink:href="#DejaVuSans-108"/>
      <use x="300.244141" xlink:href="#DejaVuSans-32"/>
      <use x="332.03125" xlink:href="#DejaVuSans-67"/>
      <use x="401.855469" xlink:href="#DejaVuSans-111"/>
      <use x="463.037109" xlink:href="#DejaVuSans-101"/>
      <use x="524.560547" xlink:href="#DejaVuSans-102"/>
      <use x="559.765625" xlink:href="#DejaVuSans-102"/>
      <use x="594.970703" xlink:href="#DejaVuSans-105"/>
      <use x="622.753906" xlink:href="#DejaVuSans-99"/>
      <use x="677.734375" xlink:href="#DejaVuSans-105"/>
      <use x="705.517578" xlink:href="#DejaVuSans-101"/>
      <use x="767.041016" xlink:href="#DejaVuSans-110"/>
      <use x="830.419922" xlink:href="#DejaVuSans-116"/>
     </g>
    </g>
   </g>
   <g id="matplotlib.axis_4">
    <g id="ytick_6"/>
    <g id="ytick_7"/>
    <g id="ytick_8"/>
    <g id="ytick_9"/>
    <g id="ytick_10"/>
    <g id="ytick_11"/>
    <g id="ytick_12"/>
    <g id="text_23">
     <!-- Motif -->
     <g transform="translate(22.90774 355.313966)rotate(-90)scale(0.12 -0.12)">
      <use xlink:href="#DejaVuSans-77"/>
      <use x="86.279297" xlink:href="#DejaVuSans-111"/>
      <use x="147.460938" xlink:href="#DejaVuSans-116"/>
      <use x="186.669922" xlink:href="#DejaVuSans-105"/>
      <use x="214.453125" xlink:href="#DejaVuSans-102"/>
     </g>
    </g>
   </g>
   <g id="patch_90">
    <path d="M 36.403365 439.907885 
L 36.403365 240.761298 
" style="fill:none;stroke:#000000;stroke-linecap:square;stroke-linejoin:miter;stroke-width:0.8;"/>
   </g>
   <g id="patch_91">
    <path d="M 212.525065 439.907885 
L 212.525065 240.761298 
" style="fill:none;stroke:#000000;stroke-linecap:square;stroke-linejoin:miter;stroke-width:0.8;"/>
   </g>
   <g id="patch_92">
    <path d="M 36.403365 439.907885 
L 212.525065 439.907885 
" style="fill:none;stroke:#000000;stroke-linecap:square;stroke-linejoin:miter;stroke-width:0.8;"/>
   </g>
   <g id="patch_93">
    <path d="M 36.403365 240.761298 
L 212.525065 240.761298 
" style="fill:none;stroke:#000000;stroke-linecap:square;stroke-linejoin:miter;stroke-width:0.8;"/>
   </g>
  </g>
  <g id="axes_3">
   <g id="patch_94">
    <path d="M 390.843957 439.907885 
L 566.965657 439.907885 
L 566.965657 240.761298 
L 390.843957 240.761298 
z
" style="fill:#ffffff;"/>
   </g>
   <g id="patch_95">
    <path clip-path="url(#pb4a0257087)" d="M 390.843957 433.269665 
L 552.352772 433.269665 
L 552.352772 380.163909 
L 390.843957 380.163909 
z
" style="fill:#808080;"/>
   </g>
   <g id="patch_96">
    <path clip-path="url(#pb4a0257087)" d="M 390.843957 366.88747 
L 531.999568 366.88747 
L 531.999568 313.781713 
L 390.843957 313.781713 
z
" style="fill:#808080;"/>
   </g>
   <g id="patch_97">
    <path clip-path="url(#pb4a0257087)" d="M 390.843957 300.505274 
L 558.57891 300.505274 
L 558.57891 247.399517 
L 390.843957 247.399517 
z
" style="fill:#808080;"/>
   </g>
   <g id="matplotlib.axis_5">
    <g id="xtick_15">
     <g id="line2d_20">
      <g>
       <use style="stroke:#000000;stroke-width:0.8;" x="390.843957" xlink:href="#m9796d37c25" y="439.907885"/>
      </g>
     </g>
     <g id="text_24">
      <!-- 0.0 -->
      <g transform="translate(382.892395 454.506323)scale(0.1 -0.1)">
       <use xlink:href="#DejaVuSans-48"/>
       <use x="63.623047" xlink:href="#DejaVuSans-46"/>
       <use x="95.410156" xlink:href="#DejaVuSans-48"/>
      </g>
     </g>
    </g>
    <g id="xtick_16">
     <g id="line2d_21">
      <g>
       <use style="stroke:#000000;stroke-width:0.8;" x="448.911957" xlink:href="#m9796d37c25" y="439.907885"/>
      </g>
     </g>
     <g id="text_25">
      <!-- 0.5 -->
      <g transform="translate(440.960394 454.506323)scale(0.1 -0.1)">
       <use xlink:href="#DejaVuSans-48"/>
       <use x="63.623047" xlink:href="#DejaVuSans-46"/>
       <use x="95.410156" xlink:href="#DejaVuSans-53"/>
      </g>
     </g>
    </g>
    <g id="xtick_17">
     <g id="line2d_22">
      <g>
       <use style="stroke:#000000;stroke-width:0.8;" x="506.979956" xlink:href="#m9796d37c25" y="439.907885"/>
      </g>
     </g>
     <g id="text_26">
      <!-- 1.0 -->
      <g transform="translate(499.028394 454.506323)scale(0.1 -0.1)">
       <use xlink:href="#DejaVuSans-49"/>
       <use x="63.623047" xlink:href="#DejaVuSans-46"/>
       <use x="95.410156" xlink:href="#DejaVuSans-48"/>
      </g>
     </g>
    </g>
    <g id="xtick_18">
     <g id="line2d_23">
      <g>
       <use style="stroke:#000000;stroke-width:0.8;" x="565.047956" xlink:href="#m9796d37c25" y="439.907885"/>
      </g>
     </g>
     <g id="text_27">
      <!-- 1.5 -->
      <g transform="translate(557.096393 454.506323)scale(0.1 -0.1)">
       <use xlink:href="#DejaVuSans-49"/>
       <use x="63.623047" xlink:href="#DejaVuSans-46"/>
       <use x="95.410156" xlink:href="#DejaVuSans-53"/>
      </g>
     </g>
    </g>
    <g id="text_28">
     <!-- Variance Inflation Factor -->
     <defs>
      <path d="M 28.609375 0 
L 0.78125 72.90625 
L 11.078125 72.90625 
L 34.1875 11.53125 
L 57.328125 72.90625 
L 67.578125 72.90625 
L 39.796875 0 
z
" id="DejaVuSans-86"/>
      <path d="M 34.28125 27.484375 
Q 23.390625 27.484375 19.1875 25 
Q 14.984375 22.515625 14.984375 16.5 
Q 14.984375 11.71875 18.140625 8.90625 
Q 21.296875 6.109375 26.703125 6.109375 
Q 34.1875 6.109375 38.703125 11.40625 
Q 43.21875 16.703125 43.21875 25.484375 
L 43.21875 27.484375 
z
M 52.203125 31.203125 
L 52.203125 0 
L 43.21875 0 
L 43.21875 8.296875 
Q 40.140625 3.328125 35.546875 0.953125 
Q 30.953125 -1.421875 24.3125 -1.421875 
Q 15.921875 -1.421875 10.953125 3.296875 
Q 6 8.015625 6 15.921875 
Q 6 25.140625 12.171875 29.828125 
Q 18.359375 34.515625 30.609375 34.515625 
L 43.21875 34.515625 
L 43.21875 35.40625 
Q 43.21875 41.609375 39.140625 45 
Q 35.0625 48.390625 27.6875 48.390625 
Q 23 48.390625 18.546875 47.265625 
Q 14.109375 46.140625 10.015625 43.890625 
L 10.015625 52.203125 
Q 14.9375 54.109375 19.578125 55.046875 
Q 24.21875 56 28.609375 56 
Q 40.484375 56 46.34375 49.84375 
Q 52.203125 43.703125 52.203125 31.203125 
z
" id="DejaVuSans-97"/>
      <path d="M 41.109375 46.296875 
Q 39.59375 47.171875 37.8125 47.578125 
Q 36.03125 48 33.890625 48 
Q 26.265625 48 22.1875 43.046875 
Q 18.109375 38.09375 18.109375 28.8125 
L 18.109375 0 
L 9.078125 0 
L 9.078125 54.6875 
L 18.109375 54.6875 
L 18.109375 46.1875 
Q 20.953125 51.171875 25.484375 53.578125 
Q 30.03125 56 36.53125 56 
Q 37.453125 56 38.578125 55.875 
Q 39.703125 55.765625 41.0625 55.515625 
z
" id="DejaVuSans-114"/>
      <path d="M 9.8125 72.90625 
L 19.671875 72.90625 
L 19.671875 0 
L 9.8125 0 
z
" id="DejaVuSans-73"/>
     </defs>
     <g transform="translate(405.282932 469.704135)scale(0.12 -0.12)">
      <use xlink:href="#DejaVuSans-86"/>
      <use x="68.298828" xlink:href="#DejaVuSans-97"/>
      <use x="129.578125" xlink:href="#DejaVuSans-114"/>
      <use x="170.691406" xlink:href="#DejaVuSans-105"/>
      <use x="198.474609" xlink:href="#DejaVuSans-97"/>
      <use x="259.753906" xlink:href="#DejaVuSans-110"/>
      <use x="323.132812" xlink:href="#DejaVuSans-99"/>
      <use x="378.113281" xlink:href="#DejaVuSans-101"/>
      <use x="439.636719" xlink:href="#DejaVuSans-32"/>
      <use x="471.423828" xlink:href="#DejaVuSans-73"/>
      <use x="500.916016" xlink:href="#DejaVuSans-110"/>
      <use x="564.294922" xlink:href="#DejaVuSans-102"/>
      <use x="599.5" xlink:href="#DejaVuSans-108"/>
      <use x="627.283203" xlink:href="#DejaVuSans-97"/>
      <use x="688.5625" xlink:href="#DejaVuSans-116"/>
      <use x="727.771484" xlink:href="#DejaVuSans-105"/>
      <use x="755.554688" xlink:href="#DejaVuSans-111"/>
      <use x="816.736328" xlink:href="#DejaVuSans-110"/>
      <use x="880.115234" xlink:href="#DejaVuSans-32"/>
      <use x="911.902344" xlink:href="#DejaVuSans-70"/>
      <use x="969.28125" xlink:href="#DejaVuSans-97"/>
      <use x="1030.560547" xlink:href="#DejaVuSans-99"/>
      <use x="1085.541016" xlink:href="#DejaVuSans-116"/>
      <use x="1124.75" xlink:href="#DejaVuSans-111"/>
      <use x="1185.931641" xlink:href="#DejaVuSans-114"/>
     </g>
    </g>
   </g>
   <g id="matplotlib.axis_6">
    <g id="ytick_13">
     <g id="line2d_24">
      <g>
       <use style="stroke:#000000;stroke-width:0.8;" x="390.843957" xlink:href="#m9be99b1c64" y="439.907885"/>
      </g>
     </g>
    </g>
    <g id="ytick_14">
     <g id="line2d_25">
      <g>
       <use style="stroke:#000000;stroke-width:0.8;" x="390.843957" xlink:href="#m9be99b1c64" y="406.716787"/>
      </g>
     </g>
    </g>
    <g id="ytick_15">
     <g id="line2d_26">
      <g>
       <use style="stroke:#000000;stroke-width:0.8;" x="390.843957" xlink:href="#m9be99b1c64" y="373.525689"/>
      </g>
     </g>
    </g>
    <g id="ytick_16">
     <g id="line2d_27">
      <g>
       <use style="stroke:#000000;stroke-width:0.8;" x="390.843957" xlink:href="#m9be99b1c64" y="340.334591"/>
      </g>
     </g>
    </g>
    <g id="ytick_17">
     <g id="line2d_28">
      <g>
       <use style="stroke:#000000;stroke-width:0.8;" x="390.843957" xlink:href="#m9be99b1c64" y="307.143493"/>
      </g>
     </g>
    </g>
    <g id="ytick_18">
     <g id="line2d_29">
      <g>
       <use style="stroke:#000000;stroke-width:0.8;" x="390.843957" xlink:href="#m9be99b1c64" y="273.952395"/>
      </g>
     </g>
    </g>
    <g id="ytick_19">
     <g id="line2d_30">
      <g>
       <use style="stroke:#000000;stroke-width:0.8;" x="390.843957" xlink:href="#m9be99b1c64" y="240.761298"/>
      </g>
     </g>
    </g>
    <g id="text_29">
     <!-- Motif -->
     <g transform="translate(377.348332 355.313966)rotate(-90)scale(0.12 -0.12)">
      <use xlink:href="#DejaVuSans-77"/>
      <use x="86.279297" xlink:href="#DejaVuSans-111"/>
      <use x="147.460938" xlink:href="#DejaVuSans-116"/>
      <use x="186.669922" xlink:href="#DejaVuSans-105"/>
      <use x="214.453125" xlink:href="#DejaVuSans-102"/>
     </g>
    </g>
   </g>
   <g id="patch_98">
    <path d="M 390.843957 439.907885 
L 390.843957 240.761298 
" style="fill:none;stroke:#000000;stroke-linecap:square;stroke-linejoin:miter;stroke-width:0.8;"/>
   </g>
   <g id="patch_99">
    <path d="M 566.965657 439.907885 
L 566.965657 240.761298 
" style="fill:none;stroke:#000000;stroke-linecap:square;stroke-linejoin:miter;stroke-width:0.8;"/>
   </g>
   <g id="patch_100">
    <path d="M 390.843957 439.907885 
L 566.965657 439.907885 
" style="fill:none;stroke:#000000;stroke-linecap:square;stroke-linejoin:miter;stroke-width:0.8;"/>
   </g>
   <g id="patch_101">
    <path d="M 390.843957 240.761298 
L 566.965657 240.761298 
" style="fill:none;stroke:#000000;stroke-linecap:square;stroke-linejoin:miter;stroke-width:0.8;"/>
   </g>
  </g>
  <g id="axes_4">
   <g id="patch_102">
    <path d="M 390.843957 197.384942 
L 566.965657 197.384942 
L 566.965657 79.851461 
L 390.843957 79.851461 
z
" style="fill:#ffffff;"/>
   </g>
   <g id="matplotlib.axis_7">
    <g id="xtick_19">
     <g id="line2d_31">
      <g>
       <use style="stroke:#000000;stroke-width:0.8;" x="398.849489" xlink:href="#m9796d37c25" y="197.384942"/>
      </g>
     </g>
     <g id="text_30">
      <!-- 0.00 -->
      <g transform="translate(387.716677 211.98338)scale(0.1 -0.1)">
       <use xlink:href="#DejaVuSans-48"/>
       <use x="63.623047" xlink:href="#DejaVuSans-46"/>
       <use x="95.410156" xlink:href="#DejaVuSans-48"/>
       <use x="159.033203" xlink:href="#DejaVuSans-48"/>
      </g>
     </g>
    </g>
    <g id="xtick_20">
     <g id="line2d_32">
      <g>
       <use style="stroke:#000000;stroke-width:0.8;" x="438.877148" xlink:href="#m9796d37c25" y="197.384942"/>
      </g>
     </g>
     <g id="text_31">
      <!-- 0.25 -->
      <g transform="translate(427.744336 211.98338)scale(0.1 -0.1)">
       <use xlink:href="#DejaVuSans-48"/>
       <use x="63.623047" xlink:href="#DejaVuSans-46"/>
       <use x="95.410156" xlink:href="#DejaVuSans-50"/>
       <use x="159.033203" xlink:href="#DejaVuSans-53"/>
      </g>
     </g>
    </g>
    <g id="xtick_21">
     <g id="line2d_33">
      <g>
       <use style="stroke:#000000;stroke-width:0.8;" x="478.904807" xlink:href="#m9796d37c25" y="197.384942"/>
      </g>
     </g>
     <g id="text_32">
      <!-- 0.50 -->
      <g transform="translate(467.771995 211.98338)scale(0.1 -0.1)">
       <use xlink:href="#DejaVuSans-48"/>
       <use x="63.623047" xlink:href="#DejaVuSans-46"/>
       <use x="95.410156" xlink:href="#DejaVuSans-53"/>
       <use x="159.033203" xlink:href="#DejaVuSans-48"/>
      </g>
     </g>
    </g>
    <g id="xtick_22">
     <g id="line2d_34">
      <g>
       <use style="stroke:#000000;stroke-width:0.8;" x="518.932466" xlink:href="#m9796d37c25" y="197.384942"/>
      </g>
     </g>
     <g id="text_33">
      <!-- 0.75 -->
      <defs>
       <path d="M 8.203125 72.90625 
L 55.078125 72.90625 
L 55.078125 68.703125 
L 28.609375 0 
L 18.3125 0 
L 43.21875 64.59375 
L 8.203125 64.59375 
z
" id="DejaVuSans-55"/>
      </defs>
      <g transform="translate(507.799654 211.98338)scale(0.1 -0.1)">
       <use xlink:href="#DejaVuSans-48"/>
       <use x="63.623047" xlink:href="#DejaVuSans-46"/>
       <use x="95.410156" xlink:href="#DejaVuSans-55"/>
       <use x="159.033203" xlink:href="#DejaVuSans-53"/>
      </g>
     </g>
    </g>
    <g id="xtick_23">
     <g id="line2d_35">
      <g>
       <use style="stroke:#000000;stroke-width:0.8;" x="558.960125" xlink:href="#m9796d37c25" y="197.384942"/>
      </g>
     </g>
     <g id="text_34">
      <!-- 1.00 -->
      <g transform="translate(547.827313 211.98338)scale(0.1 -0.1)">
       <use xlink:href="#DejaVuSans-49"/>
       <use x="63.623047" xlink:href="#DejaVuSans-46"/>
       <use x="95.410156" xlink:href="#DejaVuSans-48"/>
       <use x="159.033203" xlink:href="#DejaVuSans-48"/>
      </g>
     </g>
    </g>
    <g id="text_35">
     <!-- False Positive Rate -->
     <defs>
      <path d="M 19.671875 64.796875 
L 19.671875 37.40625 
L 32.078125 37.40625 
Q 38.96875 37.40625 42.71875 40.96875 
Q 46.484375 44.53125 46.484375 51.125 
Q 46.484375 57.671875 42.71875 61.234375 
Q 38.96875 64.796875 32.078125 64.796875 
z
M 9.8125 72.90625 
L 32.078125 72.90625 
Q 44.34375 72.90625 50.609375 67.359375 
Q 56.890625 61.8125 56.890625 51.125 
Q 56.890625 40.328125 50.609375 34.8125 
Q 44.34375 29.296875 32.078125 29.296875 
L 19.671875 29.296875 
L 19.671875 0 
L 9.8125 0 
z
" id="DejaVuSans-80"/>
      <path d="M 2.984375 54.6875 
L 12.5 54.6875 
L 29.59375 8.796875 
L 46.6875 54.6875 
L 56.203125 54.6875 
L 35.6875 0 
L 23.484375 0 
z
" id="DejaVuSans-118"/>
     </defs>
     <g transform="translate(422.258245 227.181192)scale(0.12 -0.12)">
      <use xlink:href="#DejaVuSans-70"/>
      <use x="57.378906" xlink:href="#DejaVuSans-97"/>
      <use x="118.658203" xlink:href="#DejaVuSans-108"/>
      <use x="146.441406" xlink:href="#DejaVuSans-115"/>
      <use x="198.541016" xlink:href="#DejaVuSans-101"/>
      <use x="260.064453" xlink:href="#DejaVuSans-32"/>
      <use x="291.851562" xlink:href="#DejaVuSans-80"/>
      <use x="352.107422" xlink:href="#DejaVuSans-111"/>
      <use x="413.289062" xlink:href="#DejaVuSans-115"/>
      <use x="465.388672" xlink:href="#DejaVuSans-105"/>
      <use x="493.171875" xlink:href="#DejaVuSans-116"/>
      <use x="532.380859" xlink:href="#DejaVuSans-105"/>
      <use x="560.164062" xlink:href="#DejaVuSans-118"/>
      <use x="619.34375" xlink:href="#DejaVuSans-101"/>
      <use x="680.867188" xlink:href="#DejaVuSans-32"/>
      <use x="712.654297" xlink:href="#DejaVuSans-82"/>
      <use x="782.105469" xlink:href="#DejaVuSans-97"/>
      <use x="843.384766" xlink:href="#DejaVuSans-116"/>
      <use x="882.59375" xlink:href="#DejaVuSans-101"/>
     </g>
    </g>
   </g>
   <g id="matplotlib.axis_8">
    <g id="ytick_20">
     <g id="line2d_36">
      <g>
       <use style="stroke:#000000;stroke-width:0.8;" x="390.843957" xlink:href="#m9be99b1c64" y="192.042512"/>
      </g>
     </g>
     <g id="text_36">
      <!-- 0.00 -->
      <g transform="translate(361.578332 195.84173)scale(0.1 -0.1)">
       <use xlink:href="#DejaVuSans-48"/>
       <use x="63.623047" xlink:href="#DejaVuSans-46"/>
       <use x="95.410156" xlink:href="#DejaVuSans-48"/>
       <use x="159.033203" xlink:href="#DejaVuSans-48"/>
      </g>
     </g>
    </g>
    <g id="ytick_21">
     <g id="line2d_37">
      <g>
       <use style="stroke:#000000;stroke-width:0.8;" x="390.843957" xlink:href="#m9be99b1c64" y="165.330357"/>
      </g>
     </g>
     <g id="text_37">
      <!-- 0.25 -->
      <g transform="translate(361.578332 169.129575)scale(0.1 -0.1)">
       <use xlink:href="#DejaVuSans-48"/>
       <use x="63.623047" xlink:href="#DejaVuSans-46"/>
       <use x="95.410156" xlink:href="#DejaVuSans-50"/>
       <use x="159.033203" xlink:href="#DejaVuSans-53"/>
      </g>
     </g>
    </g>
    <g id="ytick_22">
     <g id="line2d_38">
      <g>
       <use style="stroke:#000000;stroke-width:0.8;" x="390.843957" xlink:href="#m9be99b1c64" y="138.618202"/>
      </g>
     </g>
     <g id="text_38">
      <!-- 0.50 -->
      <g transform="translate(361.578332 142.41742)scale(0.1 -0.1)">
       <use xlink:href="#DejaVuSans-48"/>
       <use x="63.623047" xlink:href="#DejaVuSans-46"/>
       <use x="95.410156" xlink:href="#DejaVuSans-53"/>
       <use x="159.033203" xlink:href="#DejaVuSans-48"/>
      </g>
     </g>
    </g>
    <g id="ytick_23">
     <g id="line2d_39">
      <g>
       <use style="stroke:#000000;stroke-width:0.8;" x="390.843957" xlink:href="#m9be99b1c64" y="111.906047"/>
      </g>
     </g>
     <g id="text_39">
      <!-- 0.75 -->
      <g transform="translate(361.578332 115.705265)scale(0.1 -0.1)">
       <use xlink:href="#DejaVuSans-48"/>
       <use x="63.623047" xlink:href="#DejaVuSans-46"/>
       <use x="95.410156" xlink:href="#DejaVuSans-55"/>
       <use x="159.033203" xlink:href="#DejaVuSans-53"/>
      </g>
     </g>
    </g>
    <g id="ytick_24">
     <g id="line2d_40">
      <g>
       <use style="stroke:#000000;stroke-width:0.8;" x="390.843957" xlink:href="#m9be99b1c64" y="85.193892"/>
      </g>
     </g>
     <g id="text_40">
      <!-- 1.00 -->
      <g transform="translate(361.578332 88.993111)scale(0.1 -0.1)">
       <use xlink:href="#DejaVuSans-49"/>
       <use x="63.623047" xlink:href="#DejaVuSans-46"/>
       <use x="95.410156" xlink:href="#DejaVuSans-48"/>
       <use x="159.033203" xlink:href="#DejaVuSans-48"/>
      </g>
     </g>
    </g>
    <g id="text_41">
     <!-- True Positive Rate -->
     <defs>
      <path d="M -0.296875 72.90625 
L 61.375 72.90625 
L 61.375 64.59375 
L 35.5 64.59375 
L 35.5 0 
L 25.59375 0 
L 25.59375 64.59375 
L -0.296875 64.59375 
z
" id="DejaVuSans-84"/>
     </defs>
     <g transform="translate(355.082707 193.273514)rotate(-90)scale(0.12 -0.12)">
      <use xlink:href="#DejaVuSans-84"/>
      <use x="60.865234" xlink:href="#DejaVuSans-114"/>
      <use x="101.978516" xlink:href="#DejaVuSans-117"/>
      <use x="165.357422" xlink:href="#DejaVuSans-101"/>
      <use x="226.880859" xlink:href="#DejaVuSans-32"/>
      <use x="258.667969" xlink:href="#DejaVuSans-80"/>
      <use x="318.923828" xlink:href="#DejaVuSans-111"/>
      <use x="380.105469" xlink:href="#DejaVuSans-115"/>
      <use x="432.205078" xlink:href="#DejaVuSans-105"/>
      <use x="459.988281" xlink:href="#DejaVuSans-116"/>
      <use x="499.197266" xlink:href="#DejaVuSans-105"/>
      <use x="526.980469" xlink:href="#DejaVuSans-118"/>
      <use x="586.160156" xlink:href="#DejaVuSans-101"/>
      <use x="647.683594" xlink:href="#DejaVuSans-32"/>
      <use x="679.470703" xlink:href="#DejaVuSans-82"/>
      <use x="748.921875" xlink:href="#DejaVuSans-97"/>
      <use x="810.201172" xlink:href="#DejaVuSans-116"/>
      <use x="849.410156" xlink:href="#DejaVuSans-101"/>
     </g>
    </g>
   </g>
   <g id="line2d_41">
    <path clip-path="url(#pe4cf72f39b)" d="M 398.849489 192.042512 
L 407.276365 127.93334 
L 416.90708 127.93334 
L 418.110919 127.93334 
L 419.314759 127.93334 
L 436.16851 85.193892 
L 498.768157 85.193892 
L 558.960125 85.193892 
" style="fill:none;stroke:#0073b2;stroke-linecap:square;stroke-width:1.5;"/>
   </g>
   <g id="line2d_42">
    <path clip-path="url(#pe4cf72f39b)" d="M 398.849489 192.042512 
L 402.0759 99.440374 
L 411.755133 85.193892 
L 425.87068 85.193892 
L 479.913061 85.193892 
L 558.960125 85.193892 
" style="fill:none;stroke:#cc6600;stroke-linecap:square;stroke-width:1.5;"/>
   </g>
   <g id="line2d_43">
    <path clip-path="url(#pe4cf72f39b)" d="M 398.849489 192.042512 
L 558.960125 85.193892 
" style="fill:none;stroke:#808080;stroke-dasharray:4,8;stroke-dashoffset:0;stroke-width:0.8;"/>
   </g>
   <g id="patch_103">
    <path d="M 390.843957 197.384942 
L 390.843957 79.851461 
" style="fill:none;stroke:#000000;stroke-linecap:square;stroke-linejoin:miter;stroke-width:0.8;"/>
   </g>
   <g id="patch_104">
    <path d="M 566.965657 197.384942 
L 566.965657 79.851461 
" style="fill:none;stroke:#000000;stroke-linecap:square;stroke-linejoin:miter;stroke-width:0.8;"/>
   </g>
   <g id="patch_105">
    <path d="M 390.843957 197.384942 
L 566.965657 197.384942 
" style="fill:none;stroke:#000000;stroke-linecap:square;stroke-linejoin:miter;stroke-width:0.8;"/>
   </g>
   <g id="patch_106">
    <path d="M 390.843957 79.851461 
L 566.965657 79.851461 
" style="fill:none;stroke:#000000;stroke-linecap:square;stroke-linejoin:miter;stroke-width:0.8;"/>
   </g>
   <g id="legend_1">
    <g id="patch_107">
     <path d="M 430.750032 192.384942 
L 559.965657 192.384942 
Q 561.965657 192.384942 561.965657 190.384942 
L 561.965657 162.028692 
Q 561.965657 160.028692 559.965657 160.028692 
L 430.750032 160.028692 
Q 428.750032 160.028692 428.750032 162.028692 
L 428.750032 190.384942 
Q 428.750032 192.384942 430.750032 192.384942 
z
" style="fill:#ffffff;opacity:0.8;stroke:#cccccc;stroke-linejoin:miter;"/>
    </g>
    <g id="line2d_44">
     <path d="M 432.750032 168.12713 
L 452.750032 168.12713 
" style="fill:none;stroke:#0073b2;stroke-linecap:square;stroke-width:1.5;"/>
    </g>
    <g id="line2d_45"/>
    <g id="text_42">
     <!-- Test, AUC: 0.91 -->
     <defs>
      <path d="M 11.71875 12.40625 
L 22.015625 12.40625 
L 22.015625 4 
L 14.015625 -11.625 
L 7.71875 -11.625 
L 11.71875 4 
z
" id="DejaVuSans-44"/>
      <path d="M 34.1875 63.1875 
L 20.796875 26.90625 
L 47.609375 26.90625 
z
M 28.609375 72.90625 
L 39.796875 72.90625 
L 67.578125 0 
L 57.328125 0 
L 50.6875 18.703125 
L 17.828125 18.703125 
L 11.1875 0 
L 0.78125 0 
z
" id="DejaVuSans-65"/>
      <path d="M 11.71875 12.40625 
L 22.015625 12.40625 
L 22.015625 0 
L 11.71875 0 
z
M 11.71875 51.703125 
L 22.015625 51.703125 
L 22.015625 39.3125 
L 11.71875 39.3125 
z
" id="DejaVuSans-58"/>
      <path d="M 10.984375 1.515625 
L 10.984375 10.5 
Q 14.703125 8.734375 18.5 7.8125 
Q 22.3125 6.890625 25.984375 6.890625 
Q 35.75 6.890625 40.890625 13.453125 
Q 46.046875 20.015625 46.78125 33.40625 
Q 43.953125 29.203125 39.59375 26.953125 
Q 35.25 24.703125 29.984375 24.703125 
Q 19.046875 24.703125 12.671875 31.3125 
Q 6.296875 37.9375 6.296875 49.421875 
Q 6.296875 60.640625 12.9375 67.421875 
Q 19.578125 74.21875 30.609375 74.21875 
Q 43.265625 74.21875 49.921875 64.515625 
Q 56.59375 54.828125 56.59375 36.375 
Q 56.59375 19.140625 48.40625 8.859375 
Q 40.234375 -1.421875 26.421875 -1.421875 
Q 22.703125 -1.421875 18.890625 -0.6875 
Q 15.09375 0.046875 10.984375 1.515625 
z
M 30.609375 32.421875 
Q 37.25 32.421875 41.125 36.953125 
Q 45.015625 41.5 45.015625 49.421875 
Q 45.015625 57.28125 41.125 61.84375 
Q 37.25 66.40625 30.609375 66.40625 
Q 23.96875 66.40625 20.09375 61.84375 
Q 16.21875 57.28125 16.21875 49.421875 
Q 16.21875 41.5 20.09375 36.953125 
Q 23.96875 32.421875 30.609375 32.421875 
z
" id="DejaVuSans-57"/>
     </defs>
     <g transform="translate(460.750032 171.62713)scale(0.1 -0.1)">
      <use xlink:href="#DejaVuSans-84"/>
      <use x="60.818359" xlink:href="#DejaVuSans-101"/>
      <use x="122.341797" xlink:href="#DejaVuSans-115"/>
      <use x="174.441406" xlink:href="#DejaVuSans-116"/>
      <use x="213.650391" xlink:href="#DejaVuSans-44"/>
      <use x="245.4375" xlink:href="#DejaVuSans-32"/>
      <use x="277.224609" xlink:href="#DejaVuSans-65"/>
      <use x="345.632812" xlink:href="#DejaVuSans-85"/>
      <use x="418.826172" xlink:href="#DejaVuSans-67"/>
      <use x="488.650391" xlink:href="#DejaVuSans-58"/>
      <use x="522.341797" xlink:href="#DejaVuSans-32"/>
      <use x="554.128906" xlink:href="#DejaVuSans-48"/>
      <use x="617.751953" xlink:href="#DejaVuSans-46"/>
      <use x="649.539062" xlink:href="#DejaVuSans-57"/>
      <use x="713.162109" xlink:href="#DejaVuSans-49"/>
     </g>
    </g>
    <g id="line2d_46">
     <path d="M 432.750032 182.805255 
L 452.750032 182.805255 
" style="fill:none;stroke:#cc6600;stroke-linecap:square;stroke-width:1.5;"/>
    </g>
    <g id="line2d_47"/>
    <g id="text_43">
     <!-- Training, AUC: 0.98 -->
     <g transform="translate(460.750032 186.305255)scale(0.1 -0.1)">
      <use xlink:href="#DejaVuSans-84"/>
      <use x="60.865234" xlink:href="#DejaVuSans-114"/>
      <use x="101.978516" xlink:href="#DejaVuSans-97"/>
      <use x="163.257812" xlink:href="#DejaVuSans-105"/>
      <use x="191.041016" xlink:href="#DejaVuSans-110"/>
      <use x="254.419922" xlink:href="#DejaVuSans-105"/>
      <use x="282.203125" xlink:href="#DejaVuSans-110"/>
      <use x="345.582031" xlink:href="#DejaVuSans-103"/>
      <use x="409.058594" xlink:href="#DejaVuSans-44"/>
      <use x="440.845703" xlink:href="#DejaVuSans-32"/>
      <use x="472.632812" xlink:href="#DejaVuSans-65"/>
      <use x="541.041016" xlink:href="#DejaVuSans-85"/>
      <use x="614.234375" xlink:href="#DejaVuSans-67"/>
      <use x="684.058594" xlink:href="#DejaVuSans-58"/>
      <use x="717.75" xlink:href="#DejaVuSans-32"/>
      <use x="749.537109" xlink:href="#DejaVuSans-48"/>
      <use x="813.160156" xlink:href="#DejaVuSans-46"/>
      <use x="844.947266" xlink:href="#DejaVuSans-57"/>
      <use x="908.570312" xlink:href="#DejaVuSans-56"/>
     </g>
    </g>
   </g>
  </g>
  <g id="axes_5">
   <g id="line2d_48">
    <path clip-path="url(#p49f4c17ce2)" d="M 273.431555 258.062695 
L 273.431555 289.097997 
" style="fill:none;stroke:#000000;stroke-linecap:square;stroke-width:0.591389;"/>
   </g>
   <g id="line2d_49">
    <path clip-path="url(#p49f4c17ce2)" d="M 325.157059 258.062695 
L 273.431555 258.062695 
" style="fill:none;stroke:#000000;stroke-linecap:square;stroke-width:0.591389;"/>
   </g>
   <g id="patch_108">
    <path clip-path="url(#p49f4c17ce2)" d="M 278.058563 276.722266 
Q 277.149326 276.722266 276.62803 277.209213 
Q 276.108754 277.696161 276.108754 278.546803 
Q 276.108754 279.399465 276.62803 279.886412 
Q 277.149326 280.373359 278.058563 280.373359 
Q 278.967801 280.373359 279.491117 279.884392 
Q 280.016455 279.393404 280.016455 278.546803 
Q 280.016455 277.696161 279.495158 277.209213 
Q 278.975883 276.722266 278.058563 276.722266 
z
M 276.783611 276.180765 
Q 275.963276 275.978712 275.504617 275.417006 
Q 275.047977 274.853278 275.047977 274.045067 
Q 275.047977 272.915592 275.852147 272.258921 
Q 276.658338 271.60225 278.058563 271.60225 
Q 279.466871 271.60225 280.269021 272.258921 
Q 281.07117 272.915592 281.07117 274.045067 
Q 281.07117 274.853278 280.61251 275.417006 
Q 280.155871 275.978712 279.341598 276.180765 
Q 280.262959 276.394941 280.776173 277.021304 
Q 281.291407 277.645647 281.291407 278.546803 
Q 281.291407 279.918741 280.454909 280.652192 
Q 279.618411 281.383623 278.058563 281.383623 
Q 276.500737 281.383623 275.662218 280.652192 
Q 274.825719 279.918741 274.825719 278.546803 
Q 274.825719 277.645647 275.342974 277.021304 
Q 275.86225 276.394941 276.783611 276.180765 
z
M 276.316869 274.166299 
Q 276.316869 274.89773 276.773508 275.307897 
Q 277.232168 275.718064 278.058563 275.718064 
Q 278.880918 275.718064 279.343619 275.307897 
Q 279.80834 274.89773 279.80834 274.166299 
Q 279.80834 273.432848 279.343619 273.02268 
Q 278.880918 272.612513 278.058563 272.612513 
Q 277.232168 272.612513 276.773508 273.02268 
Q 276.316869 273.432848 276.316869 274.166299 
z
M 283.691542 279.595456 
L 285.023069 279.595456 
L 285.023069 280.6825 
L 283.988559 282.703028 
L 283.174286 282.703028 
L 283.691542 280.6825 
z
M 287.707087 281.003764 
L 287.707087 279.841961 
Q 288.187973 280.07028 288.678961 280.189491 
Q 289.17197 280.308703 289.646794 280.308703 
Q 290.909623 280.308703 291.574377 279.460081 
Q 292.241151 278.61146 292.336116 276.879867 
Q 291.9704 277.423389 291.406673 277.714345 
Q 290.844967 278.005301 290.164049 278.005301 
Q 288.74968 278.005301 287.925304 277.150618 
Q 287.100929 276.293914 287.100929 274.808827 
Q 287.100929 273.358088 287.959653 272.481179 
Q 288.818378 271.60225 290.24487 271.60225 
Q 291.881497 271.60225 292.742242 272.856997 
Q 293.605007 274.109724 293.605007 276.495967 
Q 293.605007 278.724609 292.546251 280.054116 
Q 291.489515 281.383623 289.703369 281.383623 
Q 289.222483 281.383623 288.729474 281.288658 
Q 288.238486 281.193694 287.707087 281.003764 
z
M 290.24487 277.007161 
Q 291.103594 277.007161 291.604685 276.421208 
Q 292.107796 275.833234 292.107796 274.808827 
Q 292.107796 273.792501 291.604685 273.202507 
Q 291.103594 272.612513 290.24487 272.612513 
Q 289.386146 272.612513 288.885055 273.202507 
Q 288.383964 273.792501 288.383964 274.808827 
Q 288.383964 275.833234 288.885055 276.421208 
Q 289.386146 277.007161 290.24487 277.007161 
z
"/>
   </g>
   <g id="patch_109">
    <path clip-path="url(#p49f4c17ce2)" d="M 326.546172 258.4668 
L 326.267339 257.007979 
Q 325.984465 255.510769 324.859032 255.510769 
Q 324.014451 255.510769 323.62853 256.20583 
Q 323.141583 257.076677 323.141583 258.226358 
Q 323.141583 259.61648 323.616407 260.279214 
Q 324.095272 260.95407 324.859032 260.95407 
Q 325.705633 260.95407 326.160251 259.608398 
z
M 327.196782 256.535176 
L 327.821125 254.684373 
L 328.857656 254.684373 
L 327.562497 258.517314 
L 327.815063 259.899354 
Q 327.871638 260.208495 328.091876 260.467123 
Q 328.352524 260.770202 328.554576 260.770202 
L 329.110222 260.770202 
L 329.110222 261.756219 
L 328.41516 261.756219 
Q 327.821125 261.756219 327.291747 261.22482 
Q 327.031099 260.960131 326.924011 260.404486 
Q 326.635075 261.105609 326.04104 261.655193 
Q 325.762207 261.91382 324.859032 261.91382 
Q 323.375964 261.91382 322.656657 260.95407 
Q 321.917144 259.961991 321.917144 258.226358 
Q 321.917144 256.369493 322.719293 255.498645 
Q 323.610346 254.526772 324.859032 254.526772 
Q 326.822984 254.526772 327.196782 256.535176 
z
"/>
   </g>
   <g id="patch_110">
    <path clip-path="url(#p49f4c17ce2)" d="M 273.431555 243.432513 
L 288.061737 258.062695 
L 273.431555 272.692877 
L 258.801374 258.062695 
L 273.431555 243.432513 
z
" style="fill:#a54399;stroke:#000000;stroke-linejoin:miter;stroke-width:0.591389;"/>
   </g>
   <g id="patch_111">
    <path clip-path="url(#p49f4c17ce2)" d="M 281.190381 281.339172 
L 265.67273 296.856823 
z
" style="fill:#ffffff;stroke:#000000;stroke-linejoin:miter;stroke-width:0.591389;"/>
   </g>
   <g id="patch_112">
    <path clip-path="url(#p49f4c17ce2)" d="M 265.67273 281.339172 
L 281.190381 296.856823 
z
" style="fill:#ffffff;stroke:#000000;stroke-linejoin:miter;stroke-width:0.591389;"/>
   </g>
  </g>
  <g id="axes_6">
   <g id="line2d_50">
    <path clip-path="url(#p997d08ad57)" d="M 296.035306 350.359248 
L 263.844576 350.359248 
" style="fill:none;stroke:#000000;stroke-linecap:square;stroke-width:0.577241;"/>
   </g>
   <g id="line2d_51">
    <path clip-path="url(#p997d08ad57)" d="M 328.226037 350.359248 
L 296.035306 350.359248 
" style="fill:none;stroke:#000000;stroke-linecap:square;stroke-width:0.577241;"/>
   </g>
   <g id="patch_113">
    <path clip-path="url(#p997d08ad57)" d="M 274.661164 349.443824 
L 274.661164 351.3891 
L 273.934358 351.3891 
L 273.934358 345.342021 
Q 273.934358 343.550154 275.608024 343.550154 
Q 277.314384 343.550154 277.314384 345.062867 
Q 277.314384 346.139244 276.637876 346.532826 
Q 277.738145 346.88617 277.738145 347.934883 
Q 277.738145 349.798425 275.844425 349.798425 
Q 275.010735 349.798425 274.661164 349.443824 
z
M 274.661164 348.500736 
Q 275.097499 349.181017 275.872089 349.181017 
Q 277.003794 349.181017 277.003794 347.947458 
Q 277.003794 346.838387 275.180491 346.925151 
L 275.180491 346.257444 
Q 276.60644 346.257444 276.60644 344.999994 
Q 276.60644 344.139898 275.687244 344.139898 
Q 274.661164 344.139898 274.661164 345.365912 
z
"/>
   </g>
   <g id="patch_114">
    <path clip-path="url(#p997d08ad57)" d="M 285.878879 344.539767 
L 283.874503 347.672076 
L 285.878879 347.672076 
z
M 285.670142 343.848169 
L 286.668558 343.848169 
L 286.668558 347.672076 
L 287.50602 347.672076 
L 287.50602 348.332238 
L 286.668558 348.332238 
L 286.668558 349.715433 
L 285.878879 349.715433 
L 285.878879 348.332238 
L 283.230689 348.332238 
L 283.230689 347.56645 
z
"/>
   </g>
   <g id="patch_115">
    <path clip-path="url(#p997d08ad57)" d="M 327.428185 354.007111 
L 327.428185 355.952387 
L 326.701378 355.952387 
L 326.701378 349.905308 
Q 326.701378 348.113441 328.375045 348.113441 
Q 330.081405 348.113441 330.081405 349.626154 
Q 330.081405 350.702532 329.404897 351.096114 
Q 330.505166 351.449457 330.505166 352.498171 
Q 330.505166 354.361712 328.611445 354.361712 
Q 327.777756 354.361712 327.428185 354.007111 
z
M 327.428185 353.064024 
Q 327.86452 353.744304 328.639109 353.744304 
Q 329.770815 353.744304 329.770815 352.510745 
Q 329.770815 351.401674 327.947512 351.488438 
L 327.947512 350.820732 
Q 329.37346 350.820732 329.37346 349.563282 
Q 329.37346 348.703185 328.454264 348.703185 
Q 327.428185 348.703185 327.428185 349.9292 
z
"/>
   </g>
   <g id="patch_116">
    <path clip-path="url(#p997d08ad57)" d="M 302.473452 343.921102 
L 302.473452 356.797394 
L 289.59716 356.797394 
L 289.59716 343.921102 
L 302.473452 343.921102 
z
" style="fill:#0090bc;stroke:#000000;stroke-linejoin:miter;stroke-width:0.577241;"/>
   </g>
   <g id="patch_117">
    <path clip-path="url(#p997d08ad57)" d="M 263.844576 356.797394 
C 265.551992 356.797394 267.189707 356.11903 268.397032 354.911704 
C 269.604358 353.704379 270.282722 352.066664 270.282722 350.359248 
C 270.282722 348.651831 269.604358 347.014117 268.397032 345.806791 
C 267.189707 344.599465 265.551992 343.921102 263.844576 343.921102 
C 262.137159 343.921102 260.499444 344.599465 259.292119 345.806791 
C 258.084793 347.014117 257.406429 348.651831 257.406429 350.359248 
C 257.406429 352.066664 258.084793 353.704379 259.292119 354.911704 
C 260.499444 356.11903 262.137159 356.797394 263.844576 356.797394 
z
" style="fill:#ffd400;stroke:#000000;stroke-linejoin:miter;stroke-width:0.577241;"/>
   </g>
  </g>
  <g id="axes_7">
   <g id="line2d_52">
    <path clip-path="url(#p9e20a14756)" d="M 320.645895 410.524515 
L 271.349543 410.524515 
" style="fill:none;stroke:#000000;stroke-linecap:square;stroke-width:0.768806;"/>
   </g>
   <g id="patch_118">
    <path clip-path="url(#p9e20a14756)" d="M 290.736874 406.403648 
L 290.471136 405.013336 
Q 290.201547 403.586438 289.128966 403.586438 
Q 288.324049 403.586438 287.956252 404.248858 
Q 287.492173 405.078808 287.492173 406.174497 
Q 287.492173 407.499336 287.944698 408.130946 
Q 288.401074 408.774109 289.128966 408.774109 
Q 289.935809 408.774109 290.369077 407.491634 
z
M 291.35693 404.562737 
L 291.951952 402.798852 
L 292.939805 402.798852 
L 291.705471 406.451789 
L 291.946175 407.768926 
Q 292.000093 408.063548 292.209988 408.31003 
Q 292.458395 408.598876 292.650959 408.598876 
L 293.18051 408.598876 
L 293.18051 409.538588 
L 292.51809 409.538588 
Q 291.951952 409.538588 291.447435 409.032145 
Q 291.199028 408.779886 291.096969 408.250335 
Q 290.821602 408.918532 290.255465 409.442306 
Q 289.989726 409.688787 289.128966 409.688787 
Q 287.715547 409.688787 287.03002 408.774109 
Q 286.325236 407.82862 286.325236 406.174497 
Q 286.325236 404.404835 287.089714 403.574884 
Q 287.938921 402.648652 289.128966 402.648652 
Q 291.000687 402.648652 291.35693 404.562737 
z
"/>
   </g>
   <g id="patch_119">
    <path clip-path="url(#p9e20a14756)" d="M 304.503266 404.562737 
Q 303.684869 404.562737 303.205385 405.123098 
Q 302.727827 405.681533 302.727827 406.655906 
Q 302.727827 407.624503 303.205385 408.188715 
Q 303.684869 408.751001 304.503266 408.751001 
Q 305.321662 408.751001 305.799221 408.188715 
Q 306.276779 407.624503 306.276779 406.655906 
Q 306.276779 405.681533 305.799221 405.123098 
Q 305.321662 404.562737 304.503266 404.562737 
z
M 306.916091 400.751898 
L 306.916091 401.85914 
Q 306.457789 401.643469 305.991784 401.529856 
Q 305.52578 401.414318 305.067478 401.414318 
Q 303.863954 401.414318 303.228493 402.226937 
Q 302.594958 403.039557 302.504453 404.682127 
Q 302.85877 404.158353 303.394098 403.879135 
Q 303.931351 403.599918 304.574514 403.599918 
Q 305.928238 403.599918 306.713899 404.422165 
Q 307.49956 405.242487 307.49956 406.655906 
Q 307.49956 408.040441 306.681163 408.878093 
Q 305.862767 409.713821 304.503266 409.713821 
Q 302.943498 409.713821 302.119325 408.519925 
Q 301.295152 407.324103 301.295152 405.055701 
Q 301.295152 402.925944 302.306112 401.658874 
Q 303.317072 400.391803 305.019337 400.391803 
Q 305.477639 400.391803 305.943643 400.482309 
Q 306.409648 400.572814 306.916091 400.751898 
z
"/>
   </g>
   <g id="patch_120">
    <path clip-path="url(#p9e20a14756)" d="M 320.645895 420.383785 
C 323.260604 420.383785 325.768574 419.34495 327.617452 417.496072 
C 329.466331 415.647193 330.505166 413.139224 330.505166 410.524515 
C 330.505166 407.909806 329.466331 405.401836 327.617452 403.552958 
C 325.768574 401.704079 323.260604 400.665244 320.645895 400.665244 
C 318.031186 400.665244 315.523217 401.704079 313.674338 403.552958 
C 311.82546 405.401836 310.786625 407.909806 310.786625 410.524515 
C 310.786625 413.139224 311.82546 415.647193 313.674338 417.496072 
C 315.523217 419.34495 318.031186 420.383785 320.645895 420.383785 
z
" style="fill:#ffd400;stroke:#000000;stroke-linejoin:miter;stroke-width:0.768806;"/>
   </g>
   <g id="patch_121">
    <path clip-path="url(#p9e20a14756)" d="M 271.349543 396.581401 
L 285.292657 410.524515 
L 271.349543 424.467628 
L 257.406429 410.524515 
L 271.349543 396.581401 
z
" style="fill:#a54399;stroke:#000000;stroke-linejoin:miter;stroke-width:0.768806;"/>
   </g>
  </g>
  <g id="text_44">
   <!-- HA_PuertoRico_8_34_13829_v5_DATA.csv -->
   <defs>
    <path d="M 9.8125 72.90625 
L 19.671875 72.90625 
L 19.671875 43.015625 
L 55.515625 43.015625 
L 55.515625 72.90625 
L 65.375 72.90625 
L 65.375 0 
L 55.515625 0 
L 55.515625 34.71875 
L 19.671875 34.71875 
L 19.671875 0 
L 9.8125 0 
z
" id="DejaVuSans-72"/>
    <path d="M 50.984375 -16.609375 
L 50.984375 -23.578125 
L -0.984375 -23.578125 
L -0.984375 -16.609375 
z
" id="DejaVuSans-95"/>
    <path d="M 19.671875 64.796875 
L 19.671875 8.109375 
L 31.59375 8.109375 
Q 46.6875 8.109375 53.6875 14.9375 
Q 60.6875 21.78125 60.6875 36.53125 
Q 60.6875 51.171875 53.6875 57.984375 
Q 46.6875 64.796875 31.59375 64.796875 
z
M 9.8125 72.90625 
L 30.078125 72.90625 
Q 51.265625 72.90625 61.171875 64.09375 
Q 71.09375 55.28125 71.09375 36.53125 
Q 71.09375 17.671875 61.125 8.828125 
Q 51.171875 0 30.078125 0 
L 9.8125 0 
z
" id="DejaVuSans-68"/>
   </defs>
   <g transform="translate(162.705938 18.622125)scale(0.12 -0.12)">
    <use xlink:href="#DejaVuSans-72"/>
    <use x="75.195312" xlink:href="#DejaVuSans-65"/>
    <use x="143.603516" xlink:href="#DejaVuSans-95"/>
    <use x="193.603516" xlink:href="#DejaVuSans-80"/>
    <use x="253.890625" xlink:href="#DejaVuSans-117"/>
    <use x="317.269531" xlink:href="#DejaVuSans-101"/>
    <use x="378.792969" xlink:href="#DejaVuSans-114"/>
    <use x="419.90625" xlink:href="#DejaVuSans-116"/>
    <use x="459.115234" xlink:href="#DejaVuSans-111"/>
    <use x="520.296875" xlink:href="#DejaVuSans-82"/>
    <use x="589.779297" xlink:href="#DejaVuSans-105"/>
    <use x="617.5625" xlink:href="#DejaVuSans-99"/>
    <use x="672.542969" xlink:href="#DejaVuSans-111"/>
    <use x="733.724609" xlink:href="#DejaVuSans-95"/>
    <use x="783.724609" xlink:href="#DejaVuSans-56"/>
    <use x="847.347656" xlink:href="#DejaVuSans-95"/>
    <use x="897.347656" xlink:href="#DejaVuSans-51"/>
    <use x="960.970703" xlink:href="#DejaVuSans-52"/>
    <use x="1024.59375" xlink:href="#DejaVuSans-95"/>
    <use x="1074.59375" xlink:href="#DejaVuSans-49"/>
    <use x="1138.216797" xlink:href="#DejaVuSans-51"/>
    <use x="1201.839844" xlink:href="#DejaVuSans-56"/>
    <use x="1265.462891" xlink:href="#DejaVuSans-50"/>
    <use x="1329.085938" xlink:href="#DejaVuSans-57"/>
    <use x="1392.708984" xlink:href="#DejaVuSans-95"/>
    <use x="1442.708984" xlink:href="#DejaVuSans-118"/>
    <use x="1501.888672" xlink:href="#DejaVuSans-53"/>
    <use x="1565.511719" xlink:href="#DejaVuSans-95"/>
    <use x="1615.511719" xlink:href="#DejaVuSans-68"/>
    <use x="1692.498047" xlink:href="#DejaVuSans-65"/>
    <use x="1760.796875" xlink:href="#DejaVuSans-84"/>
    <use x="1821.771484" xlink:href="#DejaVuSans-65"/>
    <use x="1890.164062" xlink:href="#DejaVuSans-46"/>
    <use x="1921.951172" xlink:href="#DejaVuSans-99"/>
    <use x="1976.931641" xlink:href="#DejaVuSans-115"/>
    <use x="2029.03125" xlink:href="#DejaVuSans-118"/>
   </g>
  </g>
 </g>
 <defs>
  <clipPath id="pb382bac137">
   <rect height="117.533482" width="297.756737" x="36.403365" y="79.851461"/>
  </clipPath>
  <clipPath id="pee8033e28c">
   <rect height="199.146587" width="176.1217" x="36.403365" y="240.761298"/>
  </clipPath>
  <clipPath id="pb4a0257087">
   <rect height="199.146587" width="176.1217" x="390.843957" y="240.761298"/>
  </clipPath>
  <clipPath id="pe4cf72f39b">
   <rect height="117.533482" width="176.1217" x="390.843957" y="79.851461"/>
  </clipPath>
  <clipPath id="p49f4c17ce2">
   <rect height="58.766741" width="77.339733" x="255.285931" y="240.761298"/>
  </clipPath>
  <clipPath id="p997d08ad57">
   <rect height="14.571964" width="80.40861" x="253.751493" y="342.887792"/>
  </clipPath>
  <clipPath id="p9e20a14756">
   <rect height="30.674851" width="80.40861" x="253.751493" y="395.187089"/>
  </clipPath>
 </defs>
</svg>
