<?xml version="1.0" encoding="utf-8" standalone="no"?>
<!DOCTYPE svg PUBLIC "-//W3C//DTD SVG 1.1//EN"
  "http://www.w3.org/Graphics/SVG/1.1/DTD/svg11.dtd">
<!-- Created with matplotlib (https://matplotlib.org/) -->
<svg height="388.8pt" version="1.1" viewBox="0 0 576 388.8" width="576pt" xmlns="http://www.w3.org/2000/svg" xmlns:xlink="http://www.w3.org/1999/xlink">
 <defs>
  <style type="text/css">
*{stroke-linecap:butt;stroke-linejoin:round;}
  </style>
 </defs>
 <g id="figure_1">
  <g id="patch_1">
   <path d="M 0 388.8 
L 576 388.8 
L 576 0 
L 0 0 
z
" style="fill:#ffffff;"/>
  </g>
  <g id="axes_1">
   <g id="patch_2">
    <path d="M 36.403365 190.271853 
L 333.073035 190.271853 
L 333.073035 70.383376 
L 36.403365 70.383376 
z
" style="fill:#ffffff;"/>
   </g>
   <g id="patch_3">
    <path clip-path="url(#p94846038ca)" d="M 49.88835 190.271853 
L 52.842708 190.271853 
L 52.842708 188.944184 
L 49.88835 188.944184 
z
" style="fill:#1f77b4;"/>
   </g>
   <g id="patch_4">
    <path clip-path="url(#p94846038ca)" d="M 52.842708 190.271853 
L 55.797066 190.271853 
L 55.797066 190.271853 
L 52.842708 190.271853 
z
" style="fill:#1f77b4;"/>
   </g>
   <g id="patch_5">
    <path clip-path="url(#p94846038ca)" d="M 55.797066 190.271853 
L 58.751424 190.271853 
L 58.751424 190.271853 
L 55.797066 190.271853 
z
" style="fill:#1f77b4;"/>
   </g>
   <g id="patch_6">
    <path clip-path="url(#p94846038ca)" d="M 58.751424 190.271853 
L 61.705782 190.271853 
L 61.705782 190.271853 
L 58.751424 190.271853 
z
" style="fill:#1f77b4;"/>
   </g>
   <g id="patch_7">
    <path clip-path="url(#p94846038ca)" d="M 61.705782 190.271853 
L 64.66014 190.271853 
L 64.66014 188.944184 
L 61.705782 188.944184 
z
" style="fill:#1f77b4;"/>
   </g>
   <g id="patch_8">
    <path clip-path="url(#p94846038ca)" d="M 64.66014 190.271853 
L 67.614497 190.271853 
L 67.614497 190.271853 
L 64.66014 190.271853 
z
" style="fill:#1f77b4;"/>
   </g>
   <g id="patch_9">
    <path clip-path="url(#p94846038ca)" d="M 67.614497 190.271853 
L 70.568855 190.271853 
L 70.568855 190.271853 
L 67.614497 190.271853 
z
" style="fill:#1f77b4;"/>
   </g>
   <g id="patch_10">
    <path clip-path="url(#p94846038ca)" d="M 70.568855 190.271853 
L 73.523213 190.271853 
L 73.523213 190.271853 
L 70.568855 190.271853 
z
" style="fill:#1f77b4;"/>
   </g>
   <g id="patch_11">
    <path clip-path="url(#p94846038ca)" d="M 73.523213 190.271853 
L 76.477571 190.271853 
L 76.477571 188.944184 
L 73.523213 188.944184 
z
" style="fill:#1f77b4;"/>
   </g>
   <g id="patch_12">
    <path clip-path="url(#p94846038ca)" d="M 76.477571 190.271853 
L 79.431929 190.271853 
L 79.431929 188.944184 
L 76.477571 188.944184 
z
" style="fill:#1f77b4;"/>
   </g>
   <g id="patch_13">
    <path clip-path="url(#p94846038ca)" d="M 79.431929 190.271853 
L 82.386287 190.271853 
L 82.386287 190.271853 
L 79.431929 190.271853 
z
" style="fill:#1f77b4;"/>
   </g>
   <g id="patch_14">
    <path clip-path="url(#p94846038ca)" d="M 82.386287 190.271853 
L 85.340645 190.271853 
L 85.340645 190.271853 
L 82.386287 190.271853 
z
" style="fill:#1f77b4;"/>
   </g>
   <g id="patch_15">
    <path clip-path="url(#p94846038ca)" d="M 85.340645 190.271853 
L 88.295003 190.271853 
L 88.295003 190.271853 
L 85.340645 190.271853 
z
" style="fill:#1f77b4;"/>
   </g>
   <g id="patch_16">
    <path clip-path="url(#p94846038ca)" d="M 88.295003 190.271853 
L 91.249361 190.271853 
L 91.249361 188.944184 
L 88.295003 188.944184 
z
" style="fill:#1f77b4;"/>
   </g>
   <g id="patch_17">
    <path clip-path="url(#p94846038ca)" d="M 91.249361 190.271853 
L 94.203719 190.271853 
L 94.203719 186.288847 
L 91.249361 186.288847 
z
" style="fill:#1f77b4;"/>
   </g>
   <g id="patch_18">
    <path clip-path="url(#p94846038ca)" d="M 94.203719 190.271853 
L 97.158077 190.271853 
L 97.158077 186.288847 
L 94.203719 186.288847 
z
" style="fill:#1f77b4;"/>
   </g>
   <g id="patch_19">
    <path clip-path="url(#p94846038ca)" d="M 97.158077 190.271853 
L 100.112435 190.271853 
L 100.112435 187.616516 
L 97.158077 187.616516 
z
" style="fill:#1f77b4;"/>
   </g>
   <g id="patch_20">
    <path clip-path="url(#p94846038ca)" d="M 100.112435 190.271853 
L 103.066792 190.271853 
L 103.066792 182.305841 
L 100.112435 182.305841 
z
" style="fill:#1f77b4;"/>
   </g>
   <g id="patch_21">
    <path clip-path="url(#p94846038ca)" d="M 103.066792 190.271853 
L 106.02115 190.271853 
L 106.02115 179.650504 
L 103.066792 179.650504 
z
" style="fill:#1f77b4;"/>
   </g>
   <g id="patch_22">
    <path clip-path="url(#p94846038ca)" d="M 106.02115 190.271853 
L 108.975508 190.271853 
L 108.975508 161.063143 
L 106.02115 161.063143 
z
" style="fill:#1f77b4;"/>
   </g>
   <g id="patch_23">
    <path clip-path="url(#p94846038ca)" d="M 108.975508 190.271853 
L 111.929866 190.271853 
L 111.929866 165.046149 
L 108.975508 165.046149 
z
" style="fill:#1f77b4;"/>
   </g>
   <g id="patch_24">
    <path clip-path="url(#p94846038ca)" d="M 111.929866 190.271853 
L 114.884224 190.271853 
L 114.884224 138.492777 
L 111.929866 138.492777 
z
" style="fill:#1f77b4;"/>
   </g>
   <g id="patch_25">
    <path clip-path="url(#p94846038ca)" d="M 114.884224 190.271853 
L 117.838582 190.271853 
L 117.838582 114.594741 
L 114.884224 114.594741 
z
" style="fill:#1f77b4;"/>
   </g>
   <g id="patch_26">
    <path clip-path="url(#p94846038ca)" d="M 117.838582 190.271853 
L 120.79294 190.271853 
L 120.79294 103.973392 
L 117.838582 103.973392 
z
" style="fill:#1f77b4;"/>
   </g>
   <g id="patch_27">
    <path clip-path="url(#p94846038ca)" d="M 120.79294 190.271853 
L 123.747298 190.271853 
L 123.747298 76.092351 
L 120.79294 76.092351 
z
" style="fill:#1f77b4;"/>
   </g>
   <g id="patch_28">
    <path clip-path="url(#p94846038ca)" d="M 123.747298 190.271853 
L 126.701656 190.271853 
L 126.701656 115.92241 
L 123.747298 115.92241 
z
" style="fill:#1f77b4;"/>
   </g>
   <g id="patch_29">
    <path clip-path="url(#p94846038ca)" d="M 126.701656 190.271853 
L 129.656014 190.271853 
L 129.656014 125.21609 
L 126.701656 125.21609 
z
" style="fill:#1f77b4;"/>
   </g>
   <g id="patch_30">
    <path clip-path="url(#p94846038ca)" d="M 129.656014 190.271853 
L 132.610372 190.271853 
L 132.610372 139.820445 
L 129.656014 139.820445 
z
" style="fill:#1f77b4;"/>
   </g>
   <g id="patch_31">
    <path clip-path="url(#p94846038ca)" d="M 132.610372 190.271853 
L 135.56473 190.271853 
L 135.56473 142.475782 
L 132.610372 142.475782 
z
" style="fill:#1f77b4;"/>
   </g>
   <g id="patch_32">
    <path clip-path="url(#p94846038ca)" d="M 135.56473 190.271853 
L 138.519087 190.271853 
L 138.519087 171.684492 
L 135.56473 171.684492 
z
" style="fill:#1f77b4;"/>
   </g>
   <g id="patch_33">
    <path clip-path="url(#p94846038ca)" d="M 138.519087 190.271853 
L 141.473445 190.271853 
L 141.473445 183.63351 
L 138.519087 183.63351 
z
" style="fill:#1f77b4;"/>
   </g>
   <g id="patch_34">
    <path clip-path="url(#p94846038ca)" d="M 163.00708 190.271853 
L 165.961438 190.271853 
L 165.961438 186.288847 
L 163.00708 186.288847 
z
" style="fill:#ff0000;"/>
   </g>
   <g id="patch_35">
    <path clip-path="url(#p94846038ca)" d="M 165.961438 190.271853 
L 168.915796 190.271853 
L 168.915796 186.288847 
L 165.961438 186.288847 
z
" style="fill:#ff0000;"/>
   </g>
   <g id="patch_36">
    <path clip-path="url(#p94846038ca)" d="M 168.915796 190.271853 
L 171.870154 190.271853 
L 171.870154 187.616516 
L 168.915796 187.616516 
z
" style="fill:#ff0000;"/>
   </g>
   <g id="patch_37">
    <path clip-path="url(#p94846038ca)" d="M 171.870154 190.271853 
L 174.824512 190.271853 
L 174.824512 188.944184 
L 171.870154 188.944184 
z
" style="fill:#ff0000;"/>
   </g>
   <g id="patch_38">
    <path clip-path="url(#p94846038ca)" d="M 174.824512 190.271853 
L 177.77887 190.271853 
L 177.77887 186.288847 
L 174.824512 186.288847 
z
" style="fill:#ff0000;"/>
   </g>
   <g id="patch_39">
    <path clip-path="url(#p94846038ca)" d="M 177.77887 190.271853 
L 180.733228 190.271853 
L 180.733228 190.271853 
L 177.77887 190.271853 
z
" style="fill:#ff0000;"/>
   </g>
   <g id="patch_40">
    <path clip-path="url(#p94846038ca)" d="M 180.733228 190.271853 
L 183.687586 190.271853 
L 183.687586 190.271853 
L 180.733228 190.271853 
z
" style="fill:#ff0000;"/>
   </g>
   <g id="patch_41">
    <path clip-path="url(#p94846038ca)" d="M 183.687586 190.271853 
L 186.641944 190.271853 
L 186.641944 190.271853 
L 183.687586 190.271853 
z
" style="fill:#ff0000;"/>
   </g>
   <g id="patch_42">
    <path clip-path="url(#p94846038ca)" d="M 186.641944 190.271853 
L 189.596302 190.271853 
L 189.596302 188.944184 
L 186.641944 188.944184 
z
" style="fill:#ff0000;"/>
   </g>
   <g id="patch_43">
    <path clip-path="url(#p94846038ca)" d="M 189.596302 190.271853 
L 192.55066 190.271853 
L 192.55066 190.271853 
L 189.596302 190.271853 
z
" style="fill:#ff0000;"/>
   </g>
   <g id="patch_44">
    <path clip-path="url(#p94846038ca)" d="M 192.55066 190.271853 
L 195.505018 190.271853 
L 195.505018 188.944184 
L 192.55066 188.944184 
z
" style="fill:#ff0000;"/>
   </g>
   <g id="patch_45">
    <path clip-path="url(#p94846038ca)" d="M 195.505018 190.271853 
L 198.459375 190.271853 
L 198.459375 190.271853 
L 195.505018 190.271853 
z
" style="fill:#ff0000;"/>
   </g>
   <g id="patch_46">
    <path clip-path="url(#p94846038ca)" d="M 198.459375 190.271853 
L 201.413733 190.271853 
L 201.413733 190.271853 
L 198.459375 190.271853 
z
" style="fill:#ff0000;"/>
   </g>
   <g id="patch_47">
    <path clip-path="url(#p94846038ca)" d="M 201.413733 190.271853 
L 204.368091 190.271853 
L 204.368091 187.616516 
L 201.413733 187.616516 
z
" style="fill:#ff0000;"/>
   </g>
   <g id="patch_48">
    <path clip-path="url(#p94846038ca)" d="M 204.368091 190.271853 
L 207.322449 190.271853 
L 207.322449 190.271853 
L 204.368091 190.271853 
z
" style="fill:#ff0000;"/>
   </g>
   <g id="patch_49">
    <path clip-path="url(#p94846038ca)" d="M 207.322449 190.271853 
L 210.276807 190.271853 
L 210.276807 190.271853 
L 207.322449 190.271853 
z
" style="fill:#ff0000;"/>
   </g>
   <g id="patch_50">
    <path clip-path="url(#p94846038ca)" d="M 210.276807 190.271853 
L 213.231165 190.271853 
L 213.231165 187.616516 
L 210.276807 187.616516 
z
" style="fill:#ff0000;"/>
   </g>
   <g id="patch_51">
    <path clip-path="url(#p94846038ca)" d="M 213.231165 190.271853 
L 216.185523 190.271853 
L 216.185523 187.616516 
L 213.231165 187.616516 
z
" style="fill:#ff0000;"/>
   </g>
   <g id="patch_52">
    <path clip-path="url(#p94846038ca)" d="M 216.185523 190.271853 
L 219.139881 190.271853 
L 219.139881 190.271853 
L 216.185523 190.271853 
z
" style="fill:#ff0000;"/>
   </g>
   <g id="patch_53">
    <path clip-path="url(#p94846038ca)" d="M 219.139881 190.271853 
L 222.094239 190.271853 
L 222.094239 188.944184 
L 219.139881 188.944184 
z
" style="fill:#ff0000;"/>
   </g>
   <g id="patch_54">
    <path clip-path="url(#p94846038ca)" d="M 222.094239 190.271853 
L 225.048597 190.271853 
L 225.048597 188.944184 
L 222.094239 188.944184 
z
" style="fill:#ff0000;"/>
   </g>
   <g id="patch_55">
    <path clip-path="url(#p94846038ca)" d="M 225.048597 190.271853 
L 228.002955 190.271853 
L 228.002955 188.944184 
L 225.048597 188.944184 
z
" style="fill:#ff0000;"/>
   </g>
   <g id="patch_56">
    <path clip-path="url(#p94846038ca)" d="M 228.002955 190.271853 
L 230.957313 190.271853 
L 230.957313 188.944184 
L 228.002955 188.944184 
z
" style="fill:#ff0000;"/>
   </g>
   <g id="patch_57">
    <path clip-path="url(#p94846038ca)" d="M 230.957313 190.271853 
L 233.91167 190.271853 
L 233.91167 190.271853 
L 230.957313 190.271853 
z
" style="fill:#ff0000;"/>
   </g>
   <g id="patch_58">
    <path clip-path="url(#p94846038ca)" d="M 233.91167 190.271853 
L 236.866028 190.271853 
L 236.866028 190.271853 
L 233.91167 190.271853 
z
" style="fill:#ff0000;"/>
   </g>
   <g id="patch_59">
    <path clip-path="url(#p94846038ca)" d="M 236.866028 190.271853 
L 239.820386 190.271853 
L 239.820386 190.271853 
L 236.866028 190.271853 
z
" style="fill:#ff0000;"/>
   </g>
   <g id="patch_60">
    <path clip-path="url(#p94846038ca)" d="M 239.820386 190.271853 
L 242.774744 190.271853 
L 242.774744 190.271853 
L 239.820386 190.271853 
z
" style="fill:#ff0000;"/>
   </g>
   <g id="patch_61">
    <path clip-path="url(#p94846038ca)" d="M 242.774744 190.271853 
L 245.729102 190.271853 
L 245.729102 187.616516 
L 242.774744 187.616516 
z
" style="fill:#ff0000;"/>
   </g>
   <g id="patch_62">
    <path clip-path="url(#p94846038ca)" d="M 245.729102 190.271853 
L 248.68346 190.271853 
L 248.68346 190.271853 
L 245.729102 190.271853 
z
" style="fill:#ff0000;"/>
   </g>
   <g id="patch_63">
    <path clip-path="url(#p94846038ca)" d="M 248.68346 190.271853 
L 251.637818 190.271853 
L 251.637818 188.944184 
L 248.68346 188.944184 
z
" style="fill:#ff0000;"/>
   </g>
   <g id="patch_64">
    <path clip-path="url(#p94846038ca)" d="M 251.637818 190.271853 
L 254.592176 190.271853 
L 254.592176 188.944184 
L 251.637818 188.944184 
z
" style="fill:#ff0000;"/>
   </g>
   <g id="patch_65">
    <path clip-path="url(#p94846038ca)" d="M 254.592176 190.271853 
L 257.546534 190.271853 
L 257.546534 188.944184 
L 254.592176 188.944184 
z
" style="fill:#ff0000;"/>
   </g>
   <g id="patch_66">
    <path clip-path="url(#p94846038ca)" d="M 257.546534 190.271853 
L 260.500892 190.271853 
L 260.500892 188.944184 
L 257.546534 188.944184 
z
" style="fill:#ff0000;"/>
   </g>
   <g id="patch_67">
    <path clip-path="url(#p94846038ca)" d="M 260.500892 190.271853 
L 263.45525 190.271853 
L 263.45525 186.288847 
L 260.500892 186.288847 
z
" style="fill:#ff0000;"/>
   </g>
   <g id="patch_68">
    <path clip-path="url(#p94846038ca)" d="M 263.45525 190.271853 
L 266.409608 190.271853 
L 266.409608 190.271853 
L 263.45525 190.271853 
z
" style="fill:#ff0000;"/>
   </g>
   <g id="patch_69">
    <path clip-path="url(#p94846038ca)" d="M 266.409608 190.271853 
L 269.363965 190.271853 
L 269.363965 188.944184 
L 266.409608 188.944184 
z
" style="fill:#ff0000;"/>
   </g>
   <g id="patch_70">
    <path clip-path="url(#p94846038ca)" d="M 269.363965 190.271853 
L 272.318323 190.271853 
L 272.318323 188.944184 
L 269.363965 188.944184 
z
" style="fill:#ff0000;"/>
   </g>
   <g id="patch_71">
    <path clip-path="url(#p94846038ca)" d="M 272.318323 190.271853 
L 275.272681 190.271853 
L 275.272681 190.271853 
L 272.318323 190.271853 
z
" style="fill:#ff0000;"/>
   </g>
   <g id="patch_72">
    <path clip-path="url(#p94846038ca)" d="M 275.272681 190.271853 
L 278.227039 190.271853 
L 278.227039 188.944184 
L 275.272681 188.944184 
z
" style="fill:#ff0000;"/>
   </g>
   <g id="patch_73">
    <path clip-path="url(#p94846038ca)" d="M 278.227039 190.271853 
L 281.181397 190.271853 
L 281.181397 188.944184 
L 278.227039 188.944184 
z
" style="fill:#ff0000;"/>
   </g>
   <g id="patch_74">
    <path clip-path="url(#p94846038ca)" d="M 281.181397 190.271853 
L 284.135755 190.271853 
L 284.135755 190.271853 
L 281.181397 190.271853 
z
" style="fill:#ff0000;"/>
   </g>
   <g id="patch_75">
    <path clip-path="url(#p94846038ca)" d="M 284.135755 190.271853 
L 287.090113 190.271853 
L 287.090113 188.944184 
L 284.135755 188.944184 
z
" style="fill:#ff0000;"/>
   </g>
   <g id="patch_76">
    <path clip-path="url(#p94846038ca)" d="M 287.090113 190.271853 
L 290.044471 190.271853 
L 290.044471 190.271853 
L 287.090113 190.271853 
z
" style="fill:#ff0000;"/>
   </g>
   <g id="patch_77">
    <path clip-path="url(#p94846038ca)" d="M 290.044471 190.271853 
L 292.998829 190.271853 
L 292.998829 187.616516 
L 290.044471 187.616516 
z
" style="fill:#ff0000;"/>
   </g>
   <g id="patch_78">
    <path clip-path="url(#p94846038ca)" d="M 292.998829 190.271853 
L 295.953187 190.271853 
L 295.953187 186.288847 
L 292.998829 186.288847 
z
" style="fill:#ff0000;"/>
   </g>
   <g id="patch_79">
    <path clip-path="url(#p94846038ca)" d="M 295.953187 190.271853 
L 298.907545 190.271853 
L 298.907545 187.616516 
L 295.953187 187.616516 
z
" style="fill:#ff0000;"/>
   </g>
   <g id="patch_80">
    <path clip-path="url(#p94846038ca)" d="M 298.907545 190.271853 
L 301.861903 190.271853 
L 301.861903 188.944184 
L 298.907545 188.944184 
z
" style="fill:#ff0000;"/>
   </g>
   <g id="patch_81">
    <path clip-path="url(#p94846038ca)" d="M 301.861903 190.271853 
L 304.81626 190.271853 
L 304.81626 190.271853 
L 301.861903 190.271853 
z
" style="fill:#ff0000;"/>
   </g>
   <g id="patch_82">
    <path clip-path="url(#p94846038ca)" d="M 304.81626 190.271853 
L 307.770618 190.271853 
L 307.770618 188.944184 
L 304.81626 188.944184 
z
" style="fill:#ff0000;"/>
   </g>
   <g id="patch_83">
    <path clip-path="url(#p94846038ca)" d="M 307.770618 190.271853 
L 310.724976 190.271853 
L 310.724976 186.288847 
L 307.770618 186.288847 
z
" style="fill:#ff0000;"/>
   </g>
   <g id="patch_84">
    <path clip-path="url(#p94846038ca)" d="M 310.724976 190.271853 
L 313.679334 190.271853 
L 313.679334 188.944184 
L 310.724976 188.944184 
z
" style="fill:#ff0000;"/>
   </g>
   <g id="patch_85">
    <path clip-path="url(#p94846038ca)" d="M 313.679334 190.271853 
L 316.633692 190.271853 
L 316.633692 183.63351 
L 313.679334 183.63351 
z
" style="fill:#ff0000;"/>
   </g>
   <g id="patch_86">
    <path clip-path="url(#p94846038ca)" d="M 316.633692 190.271853 
L 319.58805 190.271853 
L 319.58805 187.616516 
L 316.633692 187.616516 
z
" style="fill:#ff0000;"/>
   </g>
   <g id="patch_87">
    <path clip-path="url(#p94846038ca)" d="M 139.24046 190.271853 
L 142.194818 190.271853 
L 142.194818 173.012161 
L 139.24046 173.012161 
z
" style="fill:#ffa500;"/>
   </g>
   <g id="patch_88">
    <path clip-path="url(#p94846038ca)" d="M 142.194818 190.271853 
L 145.149176 190.271853 
L 145.149176 180.978173 
L 142.194818 180.978173 
z
" style="fill:#ffa500;"/>
   </g>
   <g id="patch_89">
    <path clip-path="url(#p94846038ca)" d="M 145.149176 190.271853 
L 148.103534 190.271853 
L 148.103534 180.978173 
L 145.149176 180.978173 
z
" style="fill:#ffa500;"/>
   </g>
   <g id="patch_90">
    <path clip-path="url(#p94846038ca)" d="M 148.103534 190.271853 
L 151.057892 190.271853 
L 151.057892 179.650504 
L 148.103534 179.650504 
z
" style="fill:#ffa500;"/>
   </g>
   <g id="patch_91">
    <path clip-path="url(#p94846038ca)" d="M 151.057892 190.271853 
L 154.01225 190.271853 
L 154.01225 187.616516 
L 151.057892 187.616516 
z
" style="fill:#ffa500;"/>
   </g>
   <g id="patch_92">
    <path clip-path="url(#p94846038ca)" d="M 154.01225 190.271853 
L 156.966608 190.271853 
L 156.966608 187.616516 
L 154.01225 187.616516 
z
" style="fill:#ffa500;"/>
   </g>
   <g id="patch_93">
    <path clip-path="url(#p94846038ca)" d="M 156.966608 190.271853 
L 159.920966 190.271853 
L 159.920966 188.944184 
L 156.966608 188.944184 
z
" style="fill:#ffa500;"/>
   </g>
   <g id="matplotlib.axis_1">
    <g id="xtick_1">
     <g id="line2d_1">
      <defs>
       <path d="M 0 0 
L 0 3.5 
" id="m723bfeb490" style="stroke:#000000;stroke-width:0.8;"/>
      </defs>
      <g>
       <use style="stroke:#000000;stroke-width:0.8;" x="49.88835" xlink:href="#m723bfeb490" y="190.271853"/>
      </g>
     </g>
     <g id="text_1">
      <!-- 0 -->
      <defs>
       <path d="M 31.78125 66.40625 
Q 24.171875 66.40625 20.328125 58.90625 
Q 16.5 51.421875 16.5 36.375 
Q 16.5 21.390625 20.328125 13.890625 
Q 24.171875 6.390625 31.78125 6.390625 
Q 39.453125 6.390625 43.28125 13.890625 
Q 47.125 21.390625 47.125 36.375 
Q 47.125 51.421875 43.28125 58.90625 
Q 39.453125 66.40625 31.78125 66.40625 
z
M 31.78125 74.21875 
Q 44.046875 74.21875 50.515625 64.515625 
Q 56.984375 54.828125 56.984375 36.375 
Q 56.984375 17.96875 50.515625 8.265625 
Q 44.046875 -1.421875 31.78125 -1.421875 
Q 19.53125 -1.421875 13.0625 8.265625 
Q 6.59375 17.96875 6.59375 36.375 
Q 6.59375 54.828125 13.0625 64.515625 
Q 19.53125 74.21875 31.78125 74.21875 
z
" id="DejaVuSans-48"/>
      </defs>
      <g transform="translate(46.7071 204.870291)scale(0.1 -0.1)">
       <use xlink:href="#DejaVuSans-48"/>
      </g>
     </g>
    </g>
    <g id="xtick_2">
     <g id="line2d_2">
      <g>
       <use style="stroke:#000000;stroke-width:0.8;" x="108.975508" xlink:href="#m723bfeb490" y="190.271853"/>
      </g>
     </g>
     <g id="text_2">
      <!-- 1 -->
      <defs>
       <path d="M 12.40625 8.296875 
L 28.515625 8.296875 
L 28.515625 63.921875 
L 10.984375 60.40625 
L 10.984375 69.390625 
L 28.421875 72.90625 
L 38.28125 72.90625 
L 38.28125 8.296875 
L 54.390625 8.296875 
L 54.390625 0 
L 12.40625 0 
z
" id="DejaVuSans-49"/>
      </defs>
      <g transform="translate(105.794258 204.870291)scale(0.1 -0.1)">
       <use xlink:href="#DejaVuSans-49"/>
      </g>
     </g>
    </g>
    <g id="xtick_3">
     <g id="line2d_3">
      <g>
       <use style="stroke:#000000;stroke-width:0.8;" x="168.062667" xlink:href="#m723bfeb490" y="190.271853"/>
      </g>
     </g>
     <g id="text_3">
      <!-- 2 -->
      <defs>
       <path d="M 19.1875 8.296875 
L 53.609375 8.296875 
L 53.609375 0 
L 7.328125 0 
L 7.328125 8.296875 
Q 12.9375 14.109375 22.625 23.890625 
Q 32.328125 33.6875 34.8125 36.53125 
Q 39.546875 41.84375 41.421875 45.53125 
Q 43.3125 49.21875 43.3125 52.78125 
Q 43.3125 58.59375 39.234375 62.25 
Q 35.15625 65.921875 28.609375 65.921875 
Q 23.96875 65.921875 18.8125 64.3125 
Q 13.671875 62.703125 7.8125 59.421875 
L 7.8125 69.390625 
Q 13.765625 71.78125 18.9375 73 
Q 24.125 74.21875 28.421875 74.21875 
Q 39.75 74.21875 46.484375 68.546875 
Q 53.21875 62.890625 53.21875 53.421875 
Q 53.21875 48.921875 51.53125 44.890625 
Q 49.859375 40.875 45.40625 35.40625 
Q 44.1875 33.984375 37.640625 27.21875 
Q 31.109375 20.453125 19.1875 8.296875 
z
" id="DejaVuSans-50"/>
      </defs>
      <g transform="translate(164.881417 204.870291)scale(0.1 -0.1)">
       <use xlink:href="#DejaVuSans-50"/>
      </g>
     </g>
    </g>
    <g id="xtick_4">
     <g id="line2d_4">
      <g>
       <use style="stroke:#000000;stroke-width:0.8;" x="227.149825" xlink:href="#m723bfeb490" y="190.271853"/>
      </g>
     </g>
     <g id="text_4">
      <!-- 3 -->
      <defs>
       <path d="M 40.578125 39.3125 
Q 47.65625 37.796875 51.625 33 
Q 55.609375 28.21875 55.609375 21.1875 
Q 55.609375 10.40625 48.1875 4.484375 
Q 40.765625 -1.421875 27.09375 -1.421875 
Q 22.515625 -1.421875 17.65625 -0.515625 
Q 12.796875 0.390625 7.625 2.203125 
L 7.625 11.71875 
Q 11.71875 9.328125 16.59375 8.109375 
Q 21.484375 6.890625 26.8125 6.890625 
Q 36.078125 6.890625 40.9375 10.546875 
Q 45.796875 14.203125 45.796875 21.1875 
Q 45.796875 27.640625 41.28125 31.265625 
Q 36.765625 34.90625 28.71875 34.90625 
L 20.21875 34.90625 
L 20.21875 43.015625 
L 29.109375 43.015625 
Q 36.375 43.015625 40.234375 45.921875 
Q 44.09375 48.828125 44.09375 54.296875 
Q 44.09375 59.90625 40.109375 62.90625 
Q 36.140625 65.921875 28.71875 65.921875 
Q 24.65625 65.921875 20.015625 65.03125 
Q 15.375 64.15625 9.8125 62.3125 
L 9.8125 71.09375 
Q 15.4375 72.65625 20.34375 73.4375 
Q 25.25 74.21875 29.59375 74.21875 
Q 40.828125 74.21875 47.359375 69.109375 
Q 53.90625 64.015625 53.90625 55.328125 
Q 53.90625 49.265625 50.4375 45.09375 
Q 46.96875 40.921875 40.578125 39.3125 
z
" id="DejaVuSans-51"/>
      </defs>
      <g transform="translate(223.968575 204.870291)scale(0.1 -0.1)">
       <use xlink:href="#DejaVuSans-51"/>
      </g>
     </g>
    </g>
    <g id="xtick_5">
     <g id="line2d_5">
      <g>
       <use style="stroke:#000000;stroke-width:0.8;" x="286.236983" xlink:href="#m723bfeb490" y="190.271853"/>
      </g>
     </g>
     <g id="text_5">
      <!-- 4 -->
      <defs>
       <path d="M 37.796875 64.3125 
L 12.890625 25.390625 
L 37.796875 25.390625 
z
M 35.203125 72.90625 
L 47.609375 72.90625 
L 47.609375 25.390625 
L 58.015625 25.390625 
L 58.015625 17.1875 
L 47.609375 17.1875 
L 47.609375 0 
L 37.796875 0 
L 37.796875 17.1875 
L 4.890625 17.1875 
L 4.890625 26.703125 
z
" id="DejaVuSans-52"/>
      </defs>
      <g transform="translate(283.055733 204.870291)scale(0.1 -0.1)">
       <use xlink:href="#DejaVuSans-52"/>
      </g>
     </g>
    </g>
    <g id="text_6">
     <!-- log(RFU) -->
     <defs>
      <path d="M 9.421875 75.984375 
L 18.40625 75.984375 
L 18.40625 0 
L 9.421875 0 
z
" id="DejaVuSans-108"/>
      <path d="M 30.609375 48.390625 
Q 23.390625 48.390625 19.1875 42.75 
Q 14.984375 37.109375 14.984375 27.296875 
Q 14.984375 17.484375 19.15625 11.84375 
Q 23.34375 6.203125 30.609375 6.203125 
Q 37.796875 6.203125 41.984375 11.859375 
Q 46.1875 17.53125 46.1875 27.296875 
Q 46.1875 37.015625 41.984375 42.703125 
Q 37.796875 48.390625 30.609375 48.390625 
z
M 30.609375 56 
Q 42.328125 56 49.015625 48.375 
Q 55.71875 40.765625 55.71875 27.296875 
Q 55.71875 13.875 49.015625 6.21875 
Q 42.328125 -1.421875 30.609375 -1.421875 
Q 18.84375 -1.421875 12.171875 6.21875 
Q 5.515625 13.875 5.515625 27.296875 
Q 5.515625 40.765625 12.171875 48.375 
Q 18.84375 56 30.609375 56 
z
" id="DejaVuSans-111"/>
      <path d="M 45.40625 27.984375 
Q 45.40625 37.75 41.375 43.109375 
Q 37.359375 48.484375 30.078125 48.484375 
Q 22.859375 48.484375 18.828125 43.109375 
Q 14.796875 37.75 14.796875 27.984375 
Q 14.796875 18.265625 18.828125 12.890625 
Q 22.859375 7.515625 30.078125 7.515625 
Q 37.359375 7.515625 41.375 12.890625 
Q 45.40625 18.265625 45.40625 27.984375 
z
M 54.390625 6.78125 
Q 54.390625 -7.171875 48.1875 -13.984375 
Q 42 -20.796875 29.203125 -20.796875 
Q 24.46875 -20.796875 20.265625 -20.09375 
Q 16.0625 -19.390625 12.109375 -17.921875 
L 12.109375 -9.1875 
Q 16.0625 -11.328125 19.921875 -12.34375 
Q 23.78125 -13.375 27.78125 -13.375 
Q 36.625 -13.375 41.015625 -8.765625 
Q 45.40625 -4.15625 45.40625 5.171875 
L 45.40625 9.625 
Q 42.625 4.78125 38.28125 2.390625 
Q 33.9375 0 27.875 0 
Q 17.828125 0 11.671875 7.65625 
Q 5.515625 15.328125 5.515625 27.984375 
Q 5.515625 40.671875 11.671875 48.328125 
Q 17.828125 56 27.875 56 
Q 33.9375 56 38.28125 53.609375 
Q 42.625 51.21875 45.40625 46.390625 
L 45.40625 54.6875 
L 54.390625 54.6875 
z
" id="DejaVuSans-103"/>
      <path d="M 31 75.875 
Q 24.46875 64.65625 21.28125 53.65625 
Q 18.109375 42.671875 18.109375 31.390625 
Q 18.109375 20.125 21.3125 9.0625 
Q 24.515625 -2 31 -13.1875 
L 23.1875 -13.1875 
Q 15.875 -1.703125 12.234375 9.375 
Q 8.59375 20.453125 8.59375 31.390625 
Q 8.59375 42.28125 12.203125 53.3125 
Q 15.828125 64.359375 23.1875 75.875 
z
" id="DejaVuSans-40"/>
      <path d="M 44.390625 34.1875 
Q 47.5625 33.109375 50.5625 29.59375 
Q 53.5625 26.078125 56.59375 19.921875 
L 66.609375 0 
L 56 0 
L 46.6875 18.703125 
Q 43.0625 26.03125 39.671875 28.421875 
Q 36.28125 30.8125 30.421875 30.8125 
L 19.671875 30.8125 
L 19.671875 0 
L 9.8125 0 
L 9.8125 72.90625 
L 32.078125 72.90625 
Q 44.578125 72.90625 50.734375 67.671875 
Q 56.890625 62.453125 56.890625 51.90625 
Q 56.890625 45.015625 53.6875 40.46875 
Q 50.484375 35.9375 44.390625 34.1875 
z
M 19.671875 64.796875 
L 19.671875 38.921875 
L 32.078125 38.921875 
Q 39.203125 38.921875 42.84375 42.21875 
Q 46.484375 45.515625 46.484375 51.90625 
Q 46.484375 58.296875 42.84375 61.546875 
Q 39.203125 64.796875 32.078125 64.796875 
z
" id="DejaVuSans-82"/>
      <path d="M 9.8125 72.90625 
L 51.703125 72.90625 
L 51.703125 64.59375 
L 19.671875 64.59375 
L 19.671875 43.109375 
L 48.578125 43.109375 
L 48.578125 34.8125 
L 19.671875 34.8125 
L 19.671875 0 
L 9.8125 0 
z
" id="DejaVuSans-70"/>
      <path d="M 8.6875 72.90625 
L 18.609375 72.90625 
L 18.609375 28.609375 
Q 18.609375 16.890625 22.84375 11.734375 
Q 27.09375 6.59375 36.625 6.59375 
Q 46.09375 6.59375 50.34375 11.734375 
Q 54.59375 16.890625 54.59375 28.609375 
L 54.59375 72.90625 
L 64.5 72.90625 
L 64.5 27.390625 
Q 64.5 13.140625 57.4375 5.859375 
Q 50.390625 -1.421875 36.625 -1.421875 
Q 22.796875 -1.421875 15.734375 5.859375 
Q 8.6875 13.140625 8.6875 27.390625 
z
" id="DejaVuSans-85"/>
      <path d="M 8.015625 75.875 
L 15.828125 75.875 
Q 23.140625 64.359375 26.78125 53.3125 
Q 30.421875 42.28125 30.421875 31.390625 
Q 30.421875 20.453125 26.78125 9.375 
Q 23.140625 -1.703125 15.828125 -13.1875 
L 8.015625 -13.1875 
Q 14.5 -2 17.703125 9.0625 
Q 20.90625 20.125 20.90625 31.390625 
Q 20.90625 42.671875 17.703125 53.65625 
Q 14.5 64.65625 8.015625 75.875 
z
" id="DejaVuSans-41"/>
     </defs>
     <g transform="translate(163.204606 218.548416)scale(0.1 -0.1)">
      <use xlink:href="#DejaVuSans-108"/>
      <use x="27.783203" xlink:href="#DejaVuSans-111"/>
      <use x="88.964844" xlink:href="#DejaVuSans-103"/>
      <use x="152.441406" xlink:href="#DejaVuSans-40"/>
      <use x="191.455078" xlink:href="#DejaVuSans-82"/>
      <use x="260.9375" xlink:href="#DejaVuSans-70"/>
      <use x="318.457031" xlink:href="#DejaVuSans-85"/>
      <use x="391.650391" xlink:href="#DejaVuSans-41"/>
     </g>
    </g>
   </g>
   <g id="matplotlib.axis_2">
    <g id="ytick_1">
     <g id="line2d_6">
      <defs>
       <path d="M 0 0 
L -3.5 0 
" id="mcf6cb8bbed" style="stroke:#000000;stroke-width:0.8;"/>
      </defs>
      <g>
       <use style="stroke:#000000;stroke-width:0.8;" x="36.403365" xlink:href="#mcf6cb8bbed" y="190.271853"/>
      </g>
     </g>
     <g id="text_7">
      <!-- 0 -->
      <g transform="translate(23.040865 194.071072)scale(0.1 -0.1)">
       <use xlink:href="#DejaVuSans-48"/>
      </g>
     </g>
    </g>
    <g id="ytick_2">
     <g id="line2d_7">
      <g>
       <use style="stroke:#000000;stroke-width:0.8;" x="36.403365" xlink:href="#mcf6cb8bbed" y="163.71848"/>
      </g>
     </g>
     <g id="text_8">
      <!-- 20 -->
      <g transform="translate(16.678365 167.517699)scale(0.1 -0.1)">
       <use xlink:href="#DejaVuSans-50"/>
       <use x="63.623047" xlink:href="#DejaVuSans-48"/>
      </g>
     </g>
    </g>
    <g id="ytick_3">
     <g id="line2d_8">
      <g>
       <use style="stroke:#000000;stroke-width:0.8;" x="36.403365" xlink:href="#mcf6cb8bbed" y="137.165108"/>
      </g>
     </g>
     <g id="text_9">
      <!-- 40 -->
      <g transform="translate(16.678365 140.964327)scale(0.1 -0.1)">
       <use xlink:href="#DejaVuSans-52"/>
       <use x="63.623047" xlink:href="#DejaVuSans-48"/>
      </g>
     </g>
    </g>
    <g id="ytick_4">
     <g id="line2d_9">
      <g>
       <use style="stroke:#000000;stroke-width:0.8;" x="36.403365" xlink:href="#mcf6cb8bbed" y="110.611735"/>
      </g>
     </g>
     <g id="text_10">
      <!-- 60 -->
      <defs>
       <path d="M 33.015625 40.375 
Q 26.375 40.375 22.484375 35.828125 
Q 18.609375 31.296875 18.609375 23.390625 
Q 18.609375 15.53125 22.484375 10.953125 
Q 26.375 6.390625 33.015625 6.390625 
Q 39.65625 6.390625 43.53125 10.953125 
Q 47.40625 15.53125 47.40625 23.390625 
Q 47.40625 31.296875 43.53125 35.828125 
Q 39.65625 40.375 33.015625 40.375 
z
M 52.59375 71.296875 
L 52.59375 62.3125 
Q 48.875 64.0625 45.09375 64.984375 
Q 41.3125 65.921875 37.59375 65.921875 
Q 27.828125 65.921875 22.671875 59.328125 
Q 17.53125 52.734375 16.796875 39.40625 
Q 19.671875 43.65625 24.015625 45.921875 
Q 28.375 48.1875 33.59375 48.1875 
Q 44.578125 48.1875 50.953125 41.515625 
Q 57.328125 34.859375 57.328125 23.390625 
Q 57.328125 12.15625 50.6875 5.359375 
Q 44.046875 -1.421875 33.015625 -1.421875 
Q 20.359375 -1.421875 13.671875 8.265625 
Q 6.984375 17.96875 6.984375 36.375 
Q 6.984375 53.65625 15.1875 63.9375 
Q 23.390625 74.21875 37.203125 74.21875 
Q 40.921875 74.21875 44.703125 73.484375 
Q 48.484375 72.75 52.59375 71.296875 
z
" id="DejaVuSans-54"/>
      </defs>
      <g transform="translate(16.678365 114.410954)scale(0.1 -0.1)">
       <use xlink:href="#DejaVuSans-54"/>
       <use x="63.623047" xlink:href="#DejaVuSans-48"/>
      </g>
     </g>
    </g>
    <g id="ytick_5">
     <g id="line2d_10">
      <g>
       <use style="stroke:#000000;stroke-width:0.8;" x="36.403365" xlink:href="#mcf6cb8bbed" y="84.058363"/>
      </g>
     </g>
     <g id="text_11">
      <!-- 80 -->
      <defs>
       <path d="M 31.78125 34.625 
Q 24.75 34.625 20.71875 30.859375 
Q 16.703125 27.09375 16.703125 20.515625 
Q 16.703125 13.921875 20.71875 10.15625 
Q 24.75 6.390625 31.78125 6.390625 
Q 38.8125 6.390625 42.859375 10.171875 
Q 46.921875 13.96875 46.921875 20.515625 
Q 46.921875 27.09375 42.890625 30.859375 
Q 38.875 34.625 31.78125 34.625 
z
M 21.921875 38.8125 
Q 15.578125 40.375 12.03125 44.71875 
Q 8.5 49.078125 8.5 55.328125 
Q 8.5 64.0625 14.71875 69.140625 
Q 20.953125 74.21875 31.78125 74.21875 
Q 42.671875 74.21875 48.875 69.140625 
Q 55.078125 64.0625 55.078125 55.328125 
Q 55.078125 49.078125 51.53125 44.71875 
Q 48 40.375 41.703125 38.8125 
Q 48.828125 37.15625 52.796875 32.3125 
Q 56.78125 27.484375 56.78125 20.515625 
Q 56.78125 9.90625 50.3125 4.234375 
Q 43.84375 -1.421875 31.78125 -1.421875 
Q 19.734375 -1.421875 13.25 4.234375 
Q 6.78125 9.90625 6.78125 20.515625 
Q 6.78125 27.484375 10.78125 32.3125 
Q 14.796875 37.15625 21.921875 38.8125 
z
M 18.3125 54.390625 
Q 18.3125 48.734375 21.84375 45.5625 
Q 25.390625 42.390625 31.78125 42.390625 
Q 38.140625 42.390625 41.71875 45.5625 
Q 45.3125 48.734375 45.3125 54.390625 
Q 45.3125 60.0625 41.71875 63.234375 
Q 38.140625 66.40625 31.78125 66.40625 
Q 25.390625 66.40625 21.84375 63.234375 
Q 18.3125 60.0625 18.3125 54.390625 
z
" id="DejaVuSans-56"/>
      </defs>
      <g transform="translate(16.678365 87.857582)scale(0.1 -0.1)">
       <use xlink:href="#DejaVuSans-56"/>
       <use x="63.623047" xlink:href="#DejaVuSans-48"/>
      </g>
     </g>
    </g>
    <g id="text_12">
     <!-- Counts -->
     <defs>
      <path d="M 64.40625 67.28125 
L 64.40625 56.890625 
Q 59.421875 61.53125 53.78125 63.8125 
Q 48.140625 66.109375 41.796875 66.109375 
Q 29.296875 66.109375 22.65625 58.46875 
Q 16.015625 50.828125 16.015625 36.375 
Q 16.015625 21.96875 22.65625 14.328125 
Q 29.296875 6.6875 41.796875 6.6875 
Q 48.140625 6.6875 53.78125 8.984375 
Q 59.421875 11.28125 64.40625 15.921875 
L 64.40625 5.609375 
Q 59.234375 2.09375 53.4375 0.328125 
Q 47.65625 -1.421875 41.21875 -1.421875 
Q 24.65625 -1.421875 15.125 8.703125 
Q 5.609375 18.84375 5.609375 36.375 
Q 5.609375 53.953125 15.125 64.078125 
Q 24.65625 74.21875 41.21875 74.21875 
Q 47.75 74.21875 53.53125 72.484375 
Q 59.328125 70.75 64.40625 67.28125 
z
" id="DejaVuSans-67"/>
      <path d="M 8.5 21.578125 
L 8.5 54.6875 
L 17.484375 54.6875 
L 17.484375 21.921875 
Q 17.484375 14.15625 20.5 10.265625 
Q 23.53125 6.390625 29.59375 6.390625 
Q 36.859375 6.390625 41.078125 11.03125 
Q 45.3125 15.671875 45.3125 23.6875 
L 45.3125 54.6875 
L 54.296875 54.6875 
L 54.296875 0 
L 45.3125 0 
L 45.3125 8.40625 
Q 42.046875 3.421875 37.71875 1 
Q 33.40625 -1.421875 27.6875 -1.421875 
Q 18.265625 -1.421875 13.375 4.4375 
Q 8.5 10.296875 8.5 21.578125 
z
M 31.109375 56 
z
" id="DejaVuSans-117"/>
      <path d="M 54.890625 33.015625 
L 54.890625 0 
L 45.90625 0 
L 45.90625 32.71875 
Q 45.90625 40.484375 42.875 44.328125 
Q 39.84375 48.1875 33.796875 48.1875 
Q 26.515625 48.1875 22.3125 43.546875 
Q 18.109375 38.921875 18.109375 30.90625 
L 18.109375 0 
L 9.078125 0 
L 9.078125 54.6875 
L 18.109375 54.6875 
L 18.109375 46.1875 
Q 21.34375 51.125 25.703125 53.5625 
Q 30.078125 56 35.796875 56 
Q 45.21875 56 50.046875 50.171875 
Q 54.890625 44.34375 54.890625 33.015625 
z
" id="DejaVuSans-110"/>
      <path d="M 18.3125 70.21875 
L 18.3125 54.6875 
L 36.8125 54.6875 
L 36.8125 47.703125 
L 18.3125 47.703125 
L 18.3125 18.015625 
Q 18.3125 11.328125 20.140625 9.421875 
Q 21.96875 7.515625 27.59375 7.515625 
L 36.8125 7.515625 
L 36.8125 0 
L 27.59375 0 
Q 17.1875 0 13.234375 3.875 
Q 9.28125 7.765625 9.28125 18.015625 
L 9.28125 47.703125 
L 2.6875 47.703125 
L 2.6875 54.6875 
L 9.28125 54.6875 
L 9.28125 70.21875 
z
" id="DejaVuSans-116"/>
      <path d="M 44.28125 53.078125 
L 44.28125 44.578125 
Q 40.484375 46.53125 36.375 47.5 
Q 32.28125 48.484375 27.875 48.484375 
Q 21.1875 48.484375 17.84375 46.4375 
Q 14.5 44.390625 14.5 40.28125 
Q 14.5 37.15625 16.890625 35.375 
Q 19.28125 33.59375 26.515625 31.984375 
L 29.59375 31.296875 
Q 39.15625 29.25 43.1875 25.515625 
Q 47.21875 21.78125 47.21875 15.09375 
Q 47.21875 7.46875 41.1875 3.015625 
Q 35.15625 -1.421875 24.609375 -1.421875 
Q 20.21875 -1.421875 15.453125 -0.5625 
Q 10.6875 0.296875 5.421875 2 
L 5.421875 11.28125 
Q 10.40625 8.6875 15.234375 7.390625 
Q 20.0625 6.109375 24.8125 6.109375 
Q 31.15625 6.109375 34.5625 8.28125 
Q 37.984375 10.453125 37.984375 14.40625 
Q 37.984375 18.0625 35.515625 20.015625 
Q 33.0625 21.96875 24.703125 23.78125 
L 21.578125 24.515625 
Q 13.234375 26.265625 9.515625 29.90625 
Q 5.8125 33.546875 5.8125 39.890625 
Q 5.8125 47.609375 11.28125 51.796875 
Q 16.75 56 26.8125 56 
Q 31.78125 56 36.171875 55.265625 
Q 40.578125 54.546875 44.28125 53.078125 
z
" id="DejaVuSans-115"/>
     </defs>
     <g transform="translate(10.598677 147.78074)rotate(-90)scale(0.1 -0.1)">
      <use xlink:href="#DejaVuSans-67"/>
      <use x="69.824219" xlink:href="#DejaVuSans-111"/>
      <use x="131.005859" xlink:href="#DejaVuSans-117"/>
      <use x="194.384766" xlink:href="#DejaVuSans-110"/>
      <use x="257.763672" xlink:href="#DejaVuSans-116"/>
      <use x="296.972656" xlink:href="#DejaVuSans-115"/>
     </g>
    </g>
   </g>
   <g id="patch_94">
    <path d="M 36.403365 190.271853 
L 36.403365 70.383376 
" style="fill:none;stroke:#000000;stroke-linecap:square;stroke-linejoin:miter;stroke-width:0.8;"/>
   </g>
   <g id="patch_95">
    <path d="M 333.073035 190.271853 
L 333.073035 70.383376 
" style="fill:none;stroke:#000000;stroke-linecap:square;stroke-linejoin:miter;stroke-width:0.8;"/>
   </g>
   <g id="patch_96">
    <path d="M 36.403365 190.271853 
L 333.073035 190.271853 
" style="fill:none;stroke:#000000;stroke-linecap:square;stroke-linejoin:miter;stroke-width:0.8;"/>
   </g>
   <g id="patch_97">
    <path d="M 36.403365 70.383376 
L 333.073035 70.383376 
" style="fill:none;stroke:#000000;stroke-linecap:square;stroke-linejoin:miter;stroke-width:0.8;"/>
   </g>
  </g>
  <g id="axes_2">
   <g id="patch_98">
    <path d="M 36.403365 353.507885 
L 216.146235 353.507885 
L 216.146235 233.619408 
L 36.403365 233.619408 
z
" style="fill:#ffffff;"/>
   </g>
   <g id="patch_99">
    <path clip-path="url(#pc9f9e8559c)" d="M 36.403365 348.058409 
L 103.967132 348.058409 
L 103.967132 299.61862 
L 36.403365 299.61862 
z
" style="fill:#1f77b4;"/>
   </g>
   <g id="patch_100">
    <path clip-path="url(#pc9f9e8559c)" d="M 36.403365 287.508673 
L 207.587051 287.508673 
L 207.587051 239.068884 
L 36.403365 239.068884 
z
" style="fill:#1f77b4;"/>
   </g>
   <g id="matplotlib.axis_3">
    <g id="xtick_6">
     <g id="line2d_11">
      <g>
       <use style="stroke:#000000;stroke-width:0.8;" x="36.403365" xlink:href="#m723bfeb490" y="353.507885"/>
      </g>
     </g>
     <g id="text_13">
      <!-- 0 -->
      <g transform="translate(33.222115 368.106323)scale(0.1 -0.1)">
       <use xlink:href="#DejaVuSans-48"/>
      </g>
     </g>
    </g>
    <g id="xtick_7">
     <g id="line2d_12">
      <g>
       <use style="stroke:#000000;stroke-width:0.8;" x="75.738951" xlink:href="#m723bfeb490" y="353.507885"/>
      </g>
     </g>
     <g id="text_14">
      <!-- 2 -->
      <g transform="translate(72.557701 368.106323)scale(0.1 -0.1)">
       <use xlink:href="#DejaVuSans-50"/>
      </g>
     </g>
    </g>
    <g id="xtick_8">
     <g id="line2d_13">
      <g>
       <use style="stroke:#000000;stroke-width:0.8;" x="115.074537" xlink:href="#m723bfeb490" y="353.507885"/>
      </g>
     </g>
     <g id="text_15">
      <!-- 4 -->
      <g transform="translate(111.893287 368.106323)scale(0.1 -0.1)">
       <use xlink:href="#DejaVuSans-52"/>
      </g>
     </g>
    </g>
    <g id="xtick_9">
     <g id="line2d_14">
      <g>
       <use style="stroke:#000000;stroke-width:0.8;" x="154.410123" xlink:href="#m723bfeb490" y="353.507885"/>
      </g>
     </g>
     <g id="text_16">
      <!-- 6 -->
      <g transform="translate(151.228873 368.106323)scale(0.1 -0.1)">
       <use xlink:href="#DejaVuSans-54"/>
      </g>
     </g>
    </g>
    <g id="xtick_10">
     <g id="line2d_15">
      <g>
       <use style="stroke:#000000;stroke-width:0.8;" x="193.745709" xlink:href="#m723bfeb490" y="353.507885"/>
      </g>
     </g>
     <g id="text_17">
      <!-- 8 -->
      <g transform="translate(190.564459 368.106323)scale(0.1 -0.1)">
       <use xlink:href="#DejaVuSans-56"/>
      </g>
     </g>
    </g>
    <g id="text_18">
     <!-- Model Coefficient -->
     <defs>
      <path d="M 9.8125 72.90625 
L 24.515625 72.90625 
L 43.109375 23.296875 
L 61.8125 72.90625 
L 76.515625 72.90625 
L 76.515625 0 
L 66.890625 0 
L 66.890625 64.015625 
L 48.09375 14.015625 
L 38.1875 14.015625 
L 19.390625 64.015625 
L 19.390625 0 
L 9.8125 0 
z
" id="DejaVuSans-77"/>
      <path d="M 45.40625 46.390625 
L 45.40625 75.984375 
L 54.390625 75.984375 
L 54.390625 0 
L 45.40625 0 
L 45.40625 8.203125 
Q 42.578125 3.328125 38.25 0.953125 
Q 33.9375 -1.421875 27.875 -1.421875 
Q 17.96875 -1.421875 11.734375 6.484375 
Q 5.515625 14.40625 5.515625 27.296875 
Q 5.515625 40.1875 11.734375 48.09375 
Q 17.96875 56 27.875 56 
Q 33.9375 56 38.25 53.625 
Q 42.578125 51.265625 45.40625 46.390625 
z
M 14.796875 27.296875 
Q 14.796875 17.390625 18.875 11.75 
Q 22.953125 6.109375 30.078125 6.109375 
Q 37.203125 6.109375 41.296875 11.75 
Q 45.40625 17.390625 45.40625 27.296875 
Q 45.40625 37.203125 41.296875 42.84375 
Q 37.203125 48.484375 30.078125 48.484375 
Q 22.953125 48.484375 18.875 42.84375 
Q 14.796875 37.203125 14.796875 27.296875 
z
" id="DejaVuSans-100"/>
      <path d="M 56.203125 29.59375 
L 56.203125 25.203125 
L 14.890625 25.203125 
Q 15.484375 15.921875 20.484375 11.0625 
Q 25.484375 6.203125 34.421875 6.203125 
Q 39.59375 6.203125 44.453125 7.46875 
Q 49.3125 8.734375 54.109375 11.28125 
L 54.109375 2.78125 
Q 49.265625 0.734375 44.1875 -0.34375 
Q 39.109375 -1.421875 33.890625 -1.421875 
Q 20.796875 -1.421875 13.15625 6.1875 
Q 5.515625 13.8125 5.515625 26.8125 
Q 5.515625 40.234375 12.765625 48.109375 
Q 20.015625 56 32.328125 56 
Q 43.359375 56 49.78125 48.890625 
Q 56.203125 41.796875 56.203125 29.59375 
z
M 47.21875 32.234375 
Q 47.125 39.59375 43.09375 43.984375 
Q 39.0625 48.390625 32.421875 48.390625 
Q 24.90625 48.390625 20.390625 44.140625 
Q 15.875 39.890625 15.1875 32.171875 
z
" id="DejaVuSans-101"/>
      <path id="DejaVuSans-32"/>
      <path d="M 37.109375 75.984375 
L 37.109375 68.5 
L 28.515625 68.5 
Q 23.6875 68.5 21.796875 66.546875 
Q 19.921875 64.59375 19.921875 59.515625 
L 19.921875 54.6875 
L 34.71875 54.6875 
L 34.71875 47.703125 
L 19.921875 47.703125 
L 19.921875 0 
L 10.890625 0 
L 10.890625 47.703125 
L 2.296875 47.703125 
L 2.296875 54.6875 
L 10.890625 54.6875 
L 10.890625 58.5 
Q 10.890625 67.625 15.140625 71.796875 
Q 19.390625 75.984375 28.609375 75.984375 
z
" id="DejaVuSans-102"/>
      <path d="M 9.421875 54.6875 
L 18.40625 54.6875 
L 18.40625 0 
L 9.421875 0 
z
M 9.421875 75.984375 
L 18.40625 75.984375 
L 18.40625 64.59375 
L 9.421875 64.59375 
z
" id="DejaVuSans-105"/>
      <path d="M 48.78125 52.59375 
L 48.78125 44.1875 
Q 44.96875 46.296875 41.140625 47.34375 
Q 37.3125 48.390625 33.40625 48.390625 
Q 24.65625 48.390625 19.8125 42.84375 
Q 14.984375 37.3125 14.984375 27.296875 
Q 14.984375 17.28125 19.8125 11.734375 
Q 24.65625 6.203125 33.40625 6.203125 
Q 37.3125 6.203125 41.140625 7.25 
Q 44.96875 8.296875 48.78125 10.40625 
L 48.78125 2.09375 
Q 45.015625 0.34375 40.984375 -0.53125 
Q 36.96875 -1.421875 32.421875 -1.421875 
Q 20.0625 -1.421875 12.78125 6.34375 
Q 5.515625 14.109375 5.515625 27.296875 
Q 5.515625 40.671875 12.859375 48.328125 
Q 20.21875 56 33.015625 56 
Q 37.15625 56 41.109375 55.140625 
Q 45.0625 54.296875 48.78125 52.59375 
z
" id="DejaVuSans-99"/>
     </defs>
     <g transform="translate(74.095425 383.304135)scale(0.12 -0.12)">
      <use xlink:href="#DejaVuSans-77"/>
      <use x="86.279297" xlink:href="#DejaVuSans-111"/>
      <use x="147.460938" xlink:href="#DejaVuSans-100"/>
      <use x="210.9375" xlink:href="#DejaVuSans-101"/>
      <use x="272.460938" xlink:href="#DejaVuSans-108"/>
      <use x="300.244141" xlink:href="#DejaVuSans-32"/>
      <use x="332.03125" xlink:href="#DejaVuSans-67"/>
      <use x="401.855469" xlink:href="#DejaVuSans-111"/>
      <use x="463.037109" xlink:href="#DejaVuSans-101"/>
      <use x="524.560547" xlink:href="#DejaVuSans-102"/>
      <use x="559.765625" xlink:href="#DejaVuSans-102"/>
      <use x="594.970703" xlink:href="#DejaVuSans-105"/>
      <use x="622.753906" xlink:href="#DejaVuSans-99"/>
      <use x="677.734375" xlink:href="#DejaVuSans-105"/>
      <use x="705.517578" xlink:href="#DejaVuSans-101"/>
      <use x="767.041016" xlink:href="#DejaVuSans-110"/>
      <use x="830.419922" xlink:href="#DejaVuSans-116"/>
     </g>
    </g>
   </g>
   <g id="matplotlib.axis_4">
    <g id="ytick_6"/>
    <g id="ytick_7"/>
    <g id="ytick_8"/>
    <g id="text_19">
     <!-- Motif -->
     <g transform="translate(22.90774 308.543022)rotate(-90)scale(0.12 -0.12)">
      <use xlink:href="#DejaVuSans-77"/>
      <use x="86.279297" xlink:href="#DejaVuSans-111"/>
      <use x="147.460938" xlink:href="#DejaVuSans-116"/>
      <use x="186.669922" xlink:href="#DejaVuSans-105"/>
      <use x="214.453125" xlink:href="#DejaVuSans-102"/>
     </g>
    </g>
   </g>
   <g id="patch_101">
    <path d="M 36.403365 353.507885 
L 36.403365 233.619408 
" style="fill:none;stroke:#000000;stroke-linecap:square;stroke-linejoin:miter;stroke-width:0.8;"/>
   </g>
   <g id="patch_102">
    <path d="M 216.146235 353.507885 
L 216.146235 233.619408 
" style="fill:none;stroke:#000000;stroke-linecap:square;stroke-linejoin:miter;stroke-width:0.8;"/>
   </g>
   <g id="patch_103">
    <path d="M 36.403365 353.507885 
L 216.146235 353.507885 
" style="fill:none;stroke:#000000;stroke-linecap:square;stroke-linejoin:miter;stroke-width:0.8;"/>
   </g>
   <g id="patch_104">
    <path d="M 36.403365 233.619408 
L 216.146235 233.619408 
" style="fill:none;stroke:#000000;stroke-linecap:square;stroke-linejoin:miter;stroke-width:0.8;"/>
   </g>
  </g>
  <g id="axes_3">
   <g id="patch_105">
    <path d="M 389.75689 353.507885 
L 569.49976 353.507885 
L 569.49976 233.619408 
L 389.75689 233.619408 
z
" style="fill:#ffffff;"/>
   </g>
   <g id="patch_106">
    <path clip-path="url(#p467dd50849)" d="M 389.75689 347.513461 
L 560.940576 347.513461 
L 560.940576 299.55807 
L 389.75689 299.55807 
z
" style="fill:#808080;"/>
   </g>
   <g id="patch_107">
    <path clip-path="url(#p467dd50849)" d="M 389.75689 287.569223 
L 560.940576 287.569223 
L 560.940576 239.613832 
L 389.75689 239.613832 
z
" style="fill:#808080;"/>
   </g>
   <g id="matplotlib.axis_5">
    <g id="xtick_11">
     <g id="line2d_16">
      <g>
       <use style="stroke:#000000;stroke-width:0.8;" x="389.75689" xlink:href="#m723bfeb490" y="353.507885"/>
      </g>
     </g>
     <g id="text_20">
      <!-- 0.00 -->
      <defs>
       <path d="M 10.6875 12.40625 
L 21 12.40625 
L 21 0 
L 10.6875 0 
z
" id="DejaVuSans-46"/>
      </defs>
      <g transform="translate(378.624077 368.106323)scale(0.1 -0.1)">
       <use xlink:href="#DejaVuSans-48"/>
       <use x="63.623047" xlink:href="#DejaVuSans-46"/>
       <use x="95.410156" xlink:href="#DejaVuSans-48"/>
       <use x="159.033203" xlink:href="#DejaVuSans-48"/>
      </g>
     </g>
    </g>
    <g id="xtick_12">
     <g id="line2d_17">
      <g>
       <use style="stroke:#000000;stroke-width:0.8;" x="431.906835" xlink:href="#m723bfeb490" y="353.507885"/>
      </g>
     </g>
     <g id="text_21">
      <!-- 0.25 -->
      <defs>
       <path d="M 10.796875 72.90625 
L 49.515625 72.90625 
L 49.515625 64.59375 
L 19.828125 64.59375 
L 19.828125 46.734375 
Q 21.96875 47.46875 24.109375 47.828125 
Q 26.265625 48.1875 28.421875 48.1875 
Q 40.625 48.1875 47.75 41.5 
Q 54.890625 34.8125 54.890625 23.390625 
Q 54.890625 11.625 47.5625 5.09375 
Q 40.234375 -1.421875 26.90625 -1.421875 
Q 22.3125 -1.421875 17.546875 -0.640625 
Q 12.796875 0.140625 7.71875 1.703125 
L 7.71875 11.625 
Q 12.109375 9.234375 16.796875 8.0625 
Q 21.484375 6.890625 26.703125 6.890625 
Q 35.15625 6.890625 40.078125 11.328125 
Q 45.015625 15.765625 45.015625 23.390625 
Q 45.015625 31 40.078125 35.4375 
Q 35.15625 39.890625 26.703125 39.890625 
Q 22.75 39.890625 18.8125 39.015625 
Q 14.890625 38.140625 10.796875 36.28125 
z
" id="DejaVuSans-53"/>
      </defs>
      <g transform="translate(420.774023 368.106323)scale(0.1 -0.1)">
       <use xlink:href="#DejaVuSans-48"/>
       <use x="63.623047" xlink:href="#DejaVuSans-46"/>
       <use x="95.410156" xlink:href="#DejaVuSans-50"/>
       <use x="159.033203" xlink:href="#DejaVuSans-53"/>
      </g>
     </g>
    </g>
    <g id="xtick_13">
     <g id="line2d_18">
      <g>
       <use style="stroke:#000000;stroke-width:0.8;" x="474.056781" xlink:href="#m723bfeb490" y="353.507885"/>
      </g>
     </g>
     <g id="text_22">
      <!-- 0.50 -->
      <g transform="translate(462.923968 368.106323)scale(0.1 -0.1)">
       <use xlink:href="#DejaVuSans-48"/>
       <use x="63.623047" xlink:href="#DejaVuSans-46"/>
       <use x="95.410156" xlink:href="#DejaVuSans-53"/>
       <use x="159.033203" xlink:href="#DejaVuSans-48"/>
      </g>
     </g>
    </g>
    <g id="xtick_14">
     <g id="line2d_19">
      <g>
       <use style="stroke:#000000;stroke-width:0.8;" x="516.206726" xlink:href="#m723bfeb490" y="353.507885"/>
      </g>
     </g>
     <g id="text_23">
      <!-- 0.75 -->
      <defs>
       <path d="M 8.203125 72.90625 
L 55.078125 72.90625 
L 55.078125 68.703125 
L 28.609375 0 
L 18.3125 0 
L 43.21875 64.59375 
L 8.203125 64.59375 
z
" id="DejaVuSans-55"/>
      </defs>
      <g transform="translate(505.073913 368.106323)scale(0.1 -0.1)">
       <use xlink:href="#DejaVuSans-48"/>
       <use x="63.623047" xlink:href="#DejaVuSans-46"/>
       <use x="95.410156" xlink:href="#DejaVuSans-55"/>
       <use x="159.033203" xlink:href="#DejaVuSans-53"/>
      </g>
     </g>
    </g>
    <g id="xtick_15">
     <g id="line2d_20">
      <g>
       <use style="stroke:#000000;stroke-width:0.8;" x="558.356671" xlink:href="#m723bfeb490" y="353.507885"/>
      </g>
     </g>
     <g id="text_24">
      <!-- 1.00 -->
      <g transform="translate(547.223859 368.106323)scale(0.1 -0.1)">
       <use xlink:href="#DejaVuSans-49"/>
       <use x="63.623047" xlink:href="#DejaVuSans-46"/>
       <use x="95.410156" xlink:href="#DejaVuSans-48"/>
       <use x="159.033203" xlink:href="#DejaVuSans-48"/>
      </g>
     </g>
    </g>
    <g id="text_25">
     <!-- Variance Inflation Factor -->
     <defs>
      <path d="M 28.609375 0 
L 0.78125 72.90625 
L 11.078125 72.90625 
L 34.1875 11.53125 
L 57.328125 72.90625 
L 67.578125 72.90625 
L 39.796875 0 
z
" id="DejaVuSans-86"/>
      <path d="M 34.28125 27.484375 
Q 23.390625 27.484375 19.1875 25 
Q 14.984375 22.515625 14.984375 16.5 
Q 14.984375 11.71875 18.140625 8.90625 
Q 21.296875 6.109375 26.703125 6.109375 
Q 34.1875 6.109375 38.703125 11.40625 
Q 43.21875 16.703125 43.21875 25.484375 
L 43.21875 27.484375 
z
M 52.203125 31.203125 
L 52.203125 0 
L 43.21875 0 
L 43.21875 8.296875 
Q 40.140625 3.328125 35.546875 0.953125 
Q 30.953125 -1.421875 24.3125 -1.421875 
Q 15.921875 -1.421875 10.953125 3.296875 
Q 6 8.015625 6 15.921875 
Q 6 25.140625 12.171875 29.828125 
Q 18.359375 34.515625 30.609375 34.515625 
L 43.21875 34.515625 
L 43.21875 35.40625 
Q 43.21875 41.609375 39.140625 45 
Q 35.0625 48.390625 27.6875 48.390625 
Q 23 48.390625 18.546875 47.265625 
Q 14.109375 46.140625 10.015625 43.890625 
L 10.015625 52.203125 
Q 14.9375 54.109375 19.578125 55.046875 
Q 24.21875 56 28.609375 56 
Q 40.484375 56 46.34375 49.84375 
Q 52.203125 43.703125 52.203125 31.203125 
z
" id="DejaVuSans-97"/>
      <path d="M 41.109375 46.296875 
Q 39.59375 47.171875 37.8125 47.578125 
Q 36.03125 48 33.890625 48 
Q 26.265625 48 22.1875 43.046875 
Q 18.109375 38.09375 18.109375 28.8125 
L 18.109375 0 
L 9.078125 0 
L 9.078125 54.6875 
L 18.109375 54.6875 
L 18.109375 46.1875 
Q 20.953125 51.171875 25.484375 53.578125 
Q 30.03125 56 36.53125 56 
Q 37.453125 56 38.578125 55.875 
Q 39.703125 55.765625 41.0625 55.515625 
z
" id="DejaVuSans-114"/>
      <path d="M 9.8125 72.90625 
L 19.671875 72.90625 
L 19.671875 0 
L 9.8125 0 
z
" id="DejaVuSans-73"/>
     </defs>
     <g transform="translate(406.00645 383.304135)scale(0.12 -0.12)">
      <use xlink:href="#DejaVuSans-86"/>
      <use x="68.298828" xlink:href="#DejaVuSans-97"/>
      <use x="129.578125" xlink:href="#DejaVuSans-114"/>
      <use x="170.691406" xlink:href="#DejaVuSans-105"/>
      <use x="198.474609" xlink:href="#DejaVuSans-97"/>
      <use x="259.753906" xlink:href="#DejaVuSans-110"/>
      <use x="323.132812" xlink:href="#DejaVuSans-99"/>
      <use x="378.113281" xlink:href="#DejaVuSans-101"/>
      <use x="439.636719" xlink:href="#DejaVuSans-32"/>
      <use x="471.423828" xlink:href="#DejaVuSans-73"/>
      <use x="500.916016" xlink:href="#DejaVuSans-110"/>
      <use x="564.294922" xlink:href="#DejaVuSans-102"/>
      <use x="599.5" xlink:href="#DejaVuSans-108"/>
      <use x="627.283203" xlink:href="#DejaVuSans-97"/>
      <use x="688.5625" xlink:href="#DejaVuSans-116"/>
      <use x="727.771484" xlink:href="#DejaVuSans-105"/>
      <use x="755.554688" xlink:href="#DejaVuSans-111"/>
      <use x="816.736328" xlink:href="#DejaVuSans-110"/>
      <use x="880.115234" xlink:href="#DejaVuSans-32"/>
      <use x="911.902344" xlink:href="#DejaVuSans-70"/>
      <use x="969.28125" xlink:href="#DejaVuSans-97"/>
      <use x="1030.560547" xlink:href="#DejaVuSans-99"/>
      <use x="1085.541016" xlink:href="#DejaVuSans-116"/>
      <use x="1124.75" xlink:href="#DejaVuSans-111"/>
      <use x="1185.931641" xlink:href="#DejaVuSans-114"/>
     </g>
    </g>
   </g>
   <g id="matplotlib.axis_6">
    <g id="ytick_9">
     <g id="line2d_21">
      <g>
       <use style="stroke:#000000;stroke-width:0.8;" x="389.75689" xlink:href="#mcf6cb8bbed" y="353.507885"/>
      </g>
     </g>
    </g>
    <g id="ytick_10">
     <g id="line2d_22">
      <g>
       <use style="stroke:#000000;stroke-width:0.8;" x="389.75689" xlink:href="#mcf6cb8bbed" y="323.535766"/>
      </g>
     </g>
    </g>
    <g id="ytick_11">
     <g id="line2d_23">
      <g>
       <use style="stroke:#000000;stroke-width:0.8;" x="389.75689" xlink:href="#mcf6cb8bbed" y="293.563647"/>
      </g>
     </g>
    </g>
    <g id="ytick_12">
     <g id="line2d_24">
      <g>
       <use style="stroke:#000000;stroke-width:0.8;" x="389.75689" xlink:href="#mcf6cb8bbed" y="263.591527"/>
      </g>
     </g>
    </g>
    <g id="ytick_13">
     <g id="line2d_25">
      <g>
       <use style="stroke:#000000;stroke-width:0.8;" x="389.75689" xlink:href="#mcf6cb8bbed" y="233.619408"/>
      </g>
     </g>
    </g>
    <g id="text_26">
     <!-- Motif -->
     <g transform="translate(376.261265 308.543022)rotate(-90)scale(0.12 -0.12)">
      <use xlink:href="#DejaVuSans-77"/>
      <use x="86.279297" xlink:href="#DejaVuSans-111"/>
      <use x="147.460938" xlink:href="#DejaVuSans-116"/>
      <use x="186.669922" xlink:href="#DejaVuSans-105"/>
      <use x="214.453125" xlink:href="#DejaVuSans-102"/>
     </g>
    </g>
   </g>
   <g id="patch_108">
    <path d="M 389.75689 353.507885 
L 389.75689 233.619408 
" style="fill:none;stroke:#000000;stroke-linecap:square;stroke-linejoin:miter;stroke-width:0.8;"/>
   </g>
   <g id="patch_109">
    <path d="M 569.49976 353.507885 
L 569.49976 233.619408 
" style="fill:none;stroke:#000000;stroke-linecap:square;stroke-linejoin:miter;stroke-width:0.8;"/>
   </g>
   <g id="patch_110">
    <path d="M 389.75689 353.507885 
L 569.49976 353.507885 
" style="fill:none;stroke:#000000;stroke-linecap:square;stroke-linejoin:miter;stroke-width:0.8;"/>
   </g>
   <g id="patch_111">
    <path d="M 389.75689 233.619408 
L 569.49976 233.619408 
" style="fill:none;stroke:#000000;stroke-linecap:square;stroke-linejoin:miter;stroke-width:0.8;"/>
   </g>
  </g>
  <g id="axes_4">
   <g id="patch_112">
    <path d="M 389.75689 190.271853 
L 569.49976 190.271853 
L 569.49976 70.383376 
L 389.75689 70.383376 
z
" style="fill:#ffffff;"/>
   </g>
   <g id="matplotlib.axis_7">
    <g id="xtick_16">
     <g id="line2d_26">
      <g>
       <use style="stroke:#000000;stroke-width:0.8;" x="397.92702" xlink:href="#m723bfeb490" y="190.271853"/>
      </g>
     </g>
     <g id="text_27">
      <!-- 0.00 -->
      <g transform="translate(386.794208 204.870291)scale(0.1 -0.1)">
       <use xlink:href="#DejaVuSans-48"/>
       <use x="63.623047" xlink:href="#DejaVuSans-46"/>
       <use x="95.410156" xlink:href="#DejaVuSans-48"/>
       <use x="159.033203" xlink:href="#DejaVuSans-48"/>
      </g>
     </g>
    </g>
    <g id="xtick_17">
     <g id="line2d_27">
      <g>
       <use style="stroke:#000000;stroke-width:0.8;" x="438.777673" xlink:href="#m723bfeb490" y="190.271853"/>
      </g>
     </g>
     <g id="text_28">
      <!-- 0.25 -->
      <g transform="translate(427.64486 204.870291)scale(0.1 -0.1)">
       <use xlink:href="#DejaVuSans-48"/>
       <use x="63.623047" xlink:href="#DejaVuSans-46"/>
       <use x="95.410156" xlink:href="#DejaVuSans-50"/>
       <use x="159.033203" xlink:href="#DejaVuSans-53"/>
      </g>
     </g>
    </g>
    <g id="xtick_18">
     <g id="line2d_28">
      <g>
       <use style="stroke:#000000;stroke-width:0.8;" x="479.628325" xlink:href="#m723bfeb490" y="190.271853"/>
      </g>
     </g>
     <g id="text_29">
      <!-- 0.50 -->
      <g transform="translate(468.495513 204.870291)scale(0.1 -0.1)">
       <use xlink:href="#DejaVuSans-48"/>
       <use x="63.623047" xlink:href="#DejaVuSans-46"/>
       <use x="95.410156" xlink:href="#DejaVuSans-53"/>
       <use x="159.033203" xlink:href="#DejaVuSans-48"/>
      </g>
     </g>
    </g>
    <g id="xtick_19">
     <g id="line2d_29">
      <g>
       <use style="stroke:#000000;stroke-width:0.8;" x="520.478977" xlink:href="#m723bfeb490" y="190.271853"/>
      </g>
     </g>
     <g id="text_30">
      <!-- 0.75 -->
      <g transform="translate(509.346165 204.870291)scale(0.1 -0.1)">
       <use xlink:href="#DejaVuSans-48"/>
       <use x="63.623047" xlink:href="#DejaVuSans-46"/>
       <use x="95.410156" xlink:href="#DejaVuSans-55"/>
       <use x="159.033203" xlink:href="#DejaVuSans-53"/>
      </g>
     </g>
    </g>
    <g id="xtick_20">
     <g id="line2d_30">
      <g>
       <use style="stroke:#000000;stroke-width:0.8;" x="561.32963" xlink:href="#m723bfeb490" y="190.271853"/>
      </g>
     </g>
     <g id="text_31">
      <!-- 1.00 -->
      <g transform="translate(550.196817 204.870291)scale(0.1 -0.1)">
       <use xlink:href="#DejaVuSans-49"/>
       <use x="63.623047" xlink:href="#DejaVuSans-46"/>
       <use x="95.410156" xlink:href="#DejaVuSans-48"/>
       <use x="159.033203" xlink:href="#DejaVuSans-48"/>
      </g>
     </g>
    </g>
    <g id="text_32">
     <!-- False Positive Rate -->
     <defs>
      <path d="M 19.671875 64.796875 
L 19.671875 37.40625 
L 32.078125 37.40625 
Q 38.96875 37.40625 42.71875 40.96875 
Q 46.484375 44.53125 46.484375 51.125 
Q 46.484375 57.671875 42.71875 61.234375 
Q 38.96875 64.796875 32.078125 64.796875 
z
M 9.8125 72.90625 
L 32.078125 72.90625 
Q 44.34375 72.90625 50.609375 67.359375 
Q 56.890625 61.8125 56.890625 51.125 
Q 56.890625 40.328125 50.609375 34.8125 
Q 44.34375 29.296875 32.078125 29.296875 
L 19.671875 29.296875 
L 19.671875 0 
L 9.8125 0 
z
" id="DejaVuSans-80"/>
      <path d="M 2.984375 54.6875 
L 12.5 54.6875 
L 29.59375 8.796875 
L 46.6875 54.6875 
L 56.203125 54.6875 
L 35.6875 0 
L 23.484375 0 
z
" id="DejaVuSans-118"/>
     </defs>
     <g transform="translate(422.981763 220.068103)scale(0.12 -0.12)">
      <use xlink:href="#DejaVuSans-70"/>
      <use x="57.378906" xlink:href="#DejaVuSans-97"/>
      <use x="118.658203" xlink:href="#DejaVuSans-108"/>
      <use x="146.441406" xlink:href="#DejaVuSans-115"/>
      <use x="198.541016" xlink:href="#DejaVuSans-101"/>
      <use x="260.064453" xlink:href="#DejaVuSans-32"/>
      <use x="291.851562" xlink:href="#DejaVuSans-80"/>
      <use x="352.107422" xlink:href="#DejaVuSans-111"/>
      <use x="413.289062" xlink:href="#DejaVuSans-115"/>
      <use x="465.388672" xlink:href="#DejaVuSans-105"/>
      <use x="493.171875" xlink:href="#DejaVuSans-116"/>
      <use x="532.380859" xlink:href="#DejaVuSans-105"/>
      <use x="560.164062" xlink:href="#DejaVuSans-118"/>
      <use x="619.34375" xlink:href="#DejaVuSans-101"/>
      <use x="680.867188" xlink:href="#DejaVuSans-32"/>
      <use x="712.654297" xlink:href="#DejaVuSans-82"/>
      <use x="782.105469" xlink:href="#DejaVuSans-97"/>
      <use x="843.384766" xlink:href="#DejaVuSans-116"/>
      <use x="882.59375" xlink:href="#DejaVuSans-101"/>
     </g>
    </g>
   </g>
   <g id="matplotlib.axis_8">
    <g id="ytick_14">
     <g id="line2d_31">
      <g>
       <use style="stroke:#000000;stroke-width:0.8;" x="389.75689" xlink:href="#mcf6cb8bbed" y="184.822377"/>
      </g>
     </g>
     <g id="text_33">
      <!-- 0.00 -->
      <g transform="translate(360.491265 188.621596)scale(0.1 -0.1)">
       <use xlink:href="#DejaVuSans-48"/>
       <use x="63.623047" xlink:href="#DejaVuSans-46"/>
       <use x="95.410156" xlink:href="#DejaVuSans-48"/>
       <use x="159.033203" xlink:href="#DejaVuSans-48"/>
      </g>
     </g>
    </g>
    <g id="ytick_15">
     <g id="line2d_32">
      <g>
       <use style="stroke:#000000;stroke-width:0.8;" x="389.75689" xlink:href="#mcf6cb8bbed" y="157.574996"/>
      </g>
     </g>
     <g id="text_34">
      <!-- 0.25 -->
      <g transform="translate(360.491265 161.374214)scale(0.1 -0.1)">
       <use xlink:href="#DejaVuSans-48"/>
       <use x="63.623047" xlink:href="#DejaVuSans-46"/>
       <use x="95.410156" xlink:href="#DejaVuSans-50"/>
       <use x="159.033203" xlink:href="#DejaVuSans-53"/>
      </g>
     </g>
    </g>
    <g id="ytick_16">
     <g id="line2d_33">
      <g>
       <use style="stroke:#000000;stroke-width:0.8;" x="389.75689" xlink:href="#mcf6cb8bbed" y="130.327615"/>
      </g>
     </g>
     <g id="text_35">
      <!-- 0.50 -->
      <g transform="translate(360.491265 134.126833)scale(0.1 -0.1)">
       <use xlink:href="#DejaVuSans-48"/>
       <use x="63.623047" xlink:href="#DejaVuSans-46"/>
       <use x="95.410156" xlink:href="#DejaVuSans-53"/>
       <use x="159.033203" xlink:href="#DejaVuSans-48"/>
      </g>
     </g>
    </g>
    <g id="ytick_17">
     <g id="line2d_34">
      <g>
       <use style="stroke:#000000;stroke-width:0.8;" x="389.75689" xlink:href="#mcf6cb8bbed" y="103.080233"/>
      </g>
     </g>
     <g id="text_36">
      <!-- 0.75 -->
      <g transform="translate(360.491265 106.879452)scale(0.1 -0.1)">
       <use xlink:href="#DejaVuSans-48"/>
       <use x="63.623047" xlink:href="#DejaVuSans-46"/>
       <use x="95.410156" xlink:href="#DejaVuSans-55"/>
       <use x="159.033203" xlink:href="#DejaVuSans-53"/>
      </g>
     </g>
    </g>
    <g id="ytick_18">
     <g id="line2d_35">
      <g>
       <use style="stroke:#000000;stroke-width:0.8;" x="389.75689" xlink:href="#mcf6cb8bbed" y="75.832852"/>
      </g>
     </g>
     <g id="text_37">
      <!-- 1.00 -->
      <g transform="translate(360.491265 79.632071)scale(0.1 -0.1)">
       <use xlink:href="#DejaVuSans-49"/>
       <use x="63.623047" xlink:href="#DejaVuSans-46"/>
       <use x="95.410156" xlink:href="#DejaVuSans-48"/>
       <use x="159.033203" xlink:href="#DejaVuSans-48"/>
      </g>
     </g>
    </g>
    <g id="text_38">
     <!-- True Positive Rate -->
     <defs>
      <path d="M -0.296875 72.90625 
L 61.375 72.90625 
L 61.375 64.59375 
L 35.5 64.59375 
L 35.5 0 
L 25.59375 0 
L 25.59375 64.59375 
L -0.296875 64.59375 
z
" id="DejaVuSans-84"/>
     </defs>
     <g transform="translate(353.99564 184.982927)rotate(-90)scale(0.12 -0.12)">
      <use xlink:href="#DejaVuSans-84"/>
      <use x="60.865234" xlink:href="#DejaVuSans-114"/>
      <use x="101.978516" xlink:href="#DejaVuSans-117"/>
      <use x="165.357422" xlink:href="#DejaVuSans-101"/>
      <use x="226.880859" xlink:href="#DejaVuSans-32"/>
      <use x="258.667969" xlink:href="#DejaVuSans-80"/>
      <use x="318.923828" xlink:href="#DejaVuSans-111"/>
      <use x="380.105469" xlink:href="#DejaVuSans-115"/>
      <use x="432.205078" xlink:href="#DejaVuSans-105"/>
      <use x="459.988281" xlink:href="#DejaVuSans-116"/>
      <use x="499.197266" xlink:href="#DejaVuSans-105"/>
      <use x="526.980469" xlink:href="#DejaVuSans-118"/>
      <use x="586.160156" xlink:href="#DejaVuSans-101"/>
      <use x="647.683594" xlink:href="#DejaVuSans-32"/>
      <use x="679.470703" xlink:href="#DejaVuSans-82"/>
      <use x="748.921875" xlink:href="#DejaVuSans-97"/>
      <use x="810.201172" xlink:href="#DejaVuSans-116"/>
      <use x="849.410156" xlink:href="#DejaVuSans-101"/>
     </g>
    </g>
   </g>
   <g id="line2d_36">
    <path clip-path="url(#p1b7b78bf3f)" d="M 397.92702 184.822377 
L 399.203603 148.492535 
L 408.139684 90.364789 
L 561.32963 75.832852 
" style="fill:none;stroke:#0073b2;stroke-linecap:square;stroke-width:1.5;"/>
   </g>
   <g id="line2d_37">
    <path clip-path="url(#p1b7b78bf3f)" d="M 397.92702 184.822377 
L 397.92702 174.683816 
L 397.92702 134.129575 
L 411.508536 91.040693 
L 561.32963 75.832852 
" style="fill:none;stroke:#cc6600;stroke-linecap:square;stroke-width:1.5;"/>
   </g>
   <g id="line2d_38">
    <path clip-path="url(#p1b7b78bf3f)" d="M 397.92702 184.822377 
L 561.32963 75.832852 
" style="fill:none;stroke:#808080;stroke-dasharray:4,8;stroke-dashoffset:0;stroke-width:0.8;"/>
   </g>
   <g id="patch_113">
    <path d="M 389.75689 190.271853 
L 389.75689 70.383376 
" style="fill:none;stroke:#000000;stroke-linecap:square;stroke-linejoin:miter;stroke-width:0.8;"/>
   </g>
   <g id="patch_114">
    <path d="M 569.49976 190.271853 
L 569.49976 70.383376 
" style="fill:none;stroke:#000000;stroke-linecap:square;stroke-linejoin:miter;stroke-width:0.8;"/>
   </g>
   <g id="patch_115">
    <path d="M 389.75689 190.271853 
L 569.49976 190.271853 
" style="fill:none;stroke:#000000;stroke-linecap:square;stroke-linejoin:miter;stroke-width:0.8;"/>
   </g>
   <g id="patch_116">
    <path d="M 389.75689 70.383376 
L 569.49976 70.383376 
" style="fill:none;stroke:#000000;stroke-linecap:square;stroke-linejoin:miter;stroke-width:0.8;"/>
   </g>
   <g id="legend_1">
    <g id="patch_117">
     <path d="M 433.284135 185.271853 
L 562.49976 185.271853 
Q 564.49976 185.271853 564.49976 183.271853 
L 564.49976 154.915603 
Q 564.49976 152.915603 562.49976 152.915603 
L 433.284135 152.915603 
Q 431.284135 152.915603 431.284135 154.915603 
L 431.284135 183.271853 
Q 431.284135 185.271853 433.284135 185.271853 
z
" style="fill:#ffffff;opacity:0.8;stroke:#cccccc;stroke-linejoin:miter;"/>
    </g>
    <g id="line2d_39">
     <path d="M 435.284135 161.014041 
L 455.284135 161.014041 
" style="fill:none;stroke:#0073b2;stroke-linecap:square;stroke-width:1.5;"/>
    </g>
    <g id="line2d_40"/>
    <g id="text_39">
     <!-- Test, AUC: 0.91 -->
     <defs>
      <path d="M 11.71875 12.40625 
L 22.015625 12.40625 
L 22.015625 4 
L 14.015625 -11.625 
L 7.71875 -11.625 
L 11.71875 4 
z
" id="DejaVuSans-44"/>
      <path d="M 34.1875 63.1875 
L 20.796875 26.90625 
L 47.609375 26.90625 
z
M 28.609375 72.90625 
L 39.796875 72.90625 
L 67.578125 0 
L 57.328125 0 
L 50.6875 18.703125 
L 17.828125 18.703125 
L 11.1875 0 
L 0.78125 0 
z
" id="DejaVuSans-65"/>
      <path d="M 11.71875 12.40625 
L 22.015625 12.40625 
L 22.015625 0 
L 11.71875 0 
z
M 11.71875 51.703125 
L 22.015625 51.703125 
L 22.015625 39.3125 
L 11.71875 39.3125 
z
" id="DejaVuSans-58"/>
      <path d="M 10.984375 1.515625 
L 10.984375 10.5 
Q 14.703125 8.734375 18.5 7.8125 
Q 22.3125 6.890625 25.984375 6.890625 
Q 35.75 6.890625 40.890625 13.453125 
Q 46.046875 20.015625 46.78125 33.40625 
Q 43.953125 29.203125 39.59375 26.953125 
Q 35.25 24.703125 29.984375 24.703125 
Q 19.046875 24.703125 12.671875 31.3125 
Q 6.296875 37.9375 6.296875 49.421875 
Q 6.296875 60.640625 12.9375 67.421875 
Q 19.578125 74.21875 30.609375 74.21875 
Q 43.265625 74.21875 49.921875 64.515625 
Q 56.59375 54.828125 56.59375 36.375 
Q 56.59375 19.140625 48.40625 8.859375 
Q 40.234375 -1.421875 26.421875 -1.421875 
Q 22.703125 -1.421875 18.890625 -0.6875 
Q 15.09375 0.046875 10.984375 1.515625 
z
M 30.609375 32.421875 
Q 37.25 32.421875 41.125 36.953125 
Q 45.015625 41.5 45.015625 49.421875 
Q 45.015625 57.28125 41.125 61.84375 
Q 37.25 66.40625 30.609375 66.40625 
Q 23.96875 66.40625 20.09375 61.84375 
Q 16.21875 57.28125 16.21875 49.421875 
Q 16.21875 41.5 20.09375 36.953125 
Q 23.96875 32.421875 30.609375 32.421875 
z
" id="DejaVuSans-57"/>
     </defs>
     <g transform="translate(463.284135 164.514041)scale(0.1 -0.1)">
      <use xlink:href="#DejaVuSans-84"/>
      <use x="60.818359" xlink:href="#DejaVuSans-101"/>
      <use x="122.341797" xlink:href="#DejaVuSans-115"/>
      <use x="174.441406" xlink:href="#DejaVuSans-116"/>
      <use x="213.650391" xlink:href="#DejaVuSans-44"/>
      <use x="245.4375" xlink:href="#DejaVuSans-32"/>
      <use x="277.224609" xlink:href="#DejaVuSans-65"/>
      <use x="345.632812" xlink:href="#DejaVuSans-85"/>
      <use x="418.826172" xlink:href="#DejaVuSans-67"/>
      <use x="488.650391" xlink:href="#DejaVuSans-58"/>
      <use x="522.341797" xlink:href="#DejaVuSans-32"/>
      <use x="554.128906" xlink:href="#DejaVuSans-48"/>
      <use x="617.751953" xlink:href="#DejaVuSans-46"/>
      <use x="649.539062" xlink:href="#DejaVuSans-57"/>
      <use x="713.162109" xlink:href="#DejaVuSans-49"/>
     </g>
    </g>
    <g id="line2d_41">
     <path d="M 435.284135 175.692166 
L 455.284135 175.692166 
" style="fill:none;stroke:#cc6600;stroke-linecap:square;stroke-width:1.5;"/>
    </g>
    <g id="line2d_42"/>
    <g id="text_40">
     <!-- Training, AUC: 0.91 -->
     <g transform="translate(463.284135 179.192166)scale(0.1 -0.1)">
      <use xlink:href="#DejaVuSans-84"/>
      <use x="60.865234" xlink:href="#DejaVuSans-114"/>
      <use x="101.978516" xlink:href="#DejaVuSans-97"/>
      <use x="163.257812" xlink:href="#DejaVuSans-105"/>
      <use x="191.041016" xlink:href="#DejaVuSans-110"/>
      <use x="254.419922" xlink:href="#DejaVuSans-105"/>
      <use x="282.203125" xlink:href="#DejaVuSans-110"/>
      <use x="345.582031" xlink:href="#DejaVuSans-103"/>
      <use x="409.058594" xlink:href="#DejaVuSans-44"/>
      <use x="440.845703" xlink:href="#DejaVuSans-32"/>
      <use x="472.632812" xlink:href="#DejaVuSans-65"/>
      <use x="541.041016" xlink:href="#DejaVuSans-85"/>
      <use x="614.234375" xlink:href="#DejaVuSans-67"/>
      <use x="684.058594" xlink:href="#DejaVuSans-58"/>
      <use x="717.75" xlink:href="#DejaVuSans-32"/>
      <use x="749.537109" xlink:href="#DejaVuSans-48"/>
      <use x="813.160156" xlink:href="#DejaVuSans-46"/>
      <use x="844.947266" xlink:href="#DejaVuSans-57"/>
      <use x="908.570312" xlink:href="#DejaVuSans-49"/>
     </g>
    </g>
   </g>
  </g>
  <g id="axes_5">
   <g id="line2d_43">
    <path clip-path="url(#p4d9287187e)" d="M 315.282236 245.72651 
L 268.644639 245.72651 
" style="fill:none;stroke:#000000;stroke-linecap:square;stroke-width:0.583973;"/>
   </g>
   <g id="line2d_44">
    <path clip-path="url(#p4d9287187e)" d="M 268.644639 245.72651 
L 268.644639 273.709067 
" style="fill:none;stroke:#000000;stroke-linecap:square;stroke-width:0.583973;"/>
   </g>
   <g id="patch_118">
    <path clip-path="url(#p4d9287187e)" d="M 284.3156 244.400253 
L 284.3156 247.218548 
L 283.262611 247.218548 
L 283.262611 238.457603 
Q 283.262611 235.861565 285.687402 235.861565 
Q 288.159559 235.861565 288.159559 238.053168 
Q 288.159559 239.612612 287.17944 240.18283 
Q 288.773499 240.69475 288.773499 242.214116 
Q 288.773499 244.913995 286.029896 244.913995 
Q 284.822056 244.913995 284.3156 244.400253 
z
M 284.3156 243.033917 
Q 284.947758 244.019501 286.069976 244.019501 
Q 287.709579 244.019501 287.709579 242.232334 
Q 287.709579 240.625523 285.067996 240.751226 
L 285.067996 239.78386 
Q 287.133896 239.78386 287.133896 237.962079 
Q 287.133896 236.71598 285.802174 236.71598 
Q 284.3156 236.71598 284.3156 238.492217 
z
"/>
   </g>
   <g id="patch_119">
    <path clip-path="url(#p4d9287187e)" d="M 300.891987 240.210157 
Q 301.717254 240.386869 302.179986 240.946156 
Q 302.64454 241.503621 302.64454 242.323423 
Q 302.64454 243.580452 301.779194 244.270907 
Q 300.913848 244.95954 299.31979 244.95954 
Q 298.786008 244.95954 298.219434 244.853877 
Q 297.65286 244.748213 297.04985 244.536887 
L 297.04985 243.427422 
Q 297.527157 243.706155 298.095553 243.848253 
Q 298.66577 243.990352 299.286998 243.990352 
Q 300.367314 243.990352 300.933888 243.564056 
Q 301.500462 243.137759 301.500462 242.323423 
Q 301.500462 241.571027 300.973967 241.148374 
Q 300.447472 240.723899 299.509255 240.723899 
L 298.518206 240.723899 
L 298.518206 239.778394 
L 299.554799 239.778394 
Q 300.401928 239.778394 300.851907 239.439543 
Q 301.301887 239.100692 301.301887 238.463069 
Q 301.301887 237.809049 300.837333 237.459267 
Q 300.374601 237.107663 299.509255 237.107663 
Q 299.035592 237.107663 298.494523 237.211505 
Q 297.953454 237.313525 297.3049 237.528495 
L 297.3049 236.504654 
Q 297.960741 236.322476 298.53278 236.231387 
Q 299.104819 236.140298 299.611275 236.140298 
Q 300.921135 236.140298 301.68264 236.73602 
Q 302.445966 237.329921 302.445966 238.342831 
Q 302.445966 239.049682 302.041531 239.536098 
Q 301.637095 240.022513 300.891987 240.210157 
z
"/>
   </g>
   <g id="patch_120">
    <path clip-path="url(#p4d9287187e)" d="M 271.348163 265.620359 
L 275.361546 265.620359 
L 275.361546 266.587725 
L 269.965431 266.587725 
L 269.965431 265.620359 
Q 270.61945 264.942657 271.748954 263.802222 
Q 272.88028 262.659965 273.169944 262.328401 
Q 273.721943 261.708995 273.940557 261.279055 
Q 274.160993 260.849115 274.160993 260.433749 
Q 274.160993 259.756046 273.685508 259.329749 
Q 273.210023 258.901631 272.446697 258.901631 
Q 271.905628 258.901631 271.30444 259.089274 
Q 270.705074 259.276918 270.021906 259.659492 
L 270.021906 258.497195 
Q 270.716005 258.218463 271.319014 258.076364 
Q 271.923845 257.934265 272.424835 257.934265 
Q 273.745626 257.934265 274.530814 258.595571 
Q 275.316002 259.255056 275.316002 260.359056 
Q 275.316002 260.883729 275.119249 261.353748 
Q 274.924319 261.821946 274.405111 262.459569 
Q 274.263012 262.625351 273.499686 263.414182 
Q 272.738182 264.203014 271.348163 265.620359 
z
M 277.895416 265.141231 
L 279.09597 265.141231 
L 279.09597 266.121349 
L 278.163218 267.94313 
L 277.42904 267.94313 
L 277.895416 266.121349 
z
M 284.966432 262.004124 
Q 285.791699 262.180837 286.254431 262.740123 
Q 286.718985 263.297588 286.718985 264.11739 
Q 286.718985 265.374419 285.853639 266.064874 
Q 284.988293 266.753507 283.394235 266.753507 
Q 282.860453 266.753507 282.293879 266.647844 
Q 281.727305 266.542181 281.124295 266.330854 
L 281.124295 265.221389 
Q 281.601602 265.500122 282.169998 265.642221 
Q 282.740215 265.78432 283.361443 265.78432 
Q 284.441759 265.78432 285.008333 265.358023 
Q 285.574907 264.931726 285.574907 264.11739 
Q 285.574907 263.364994 285.048412 262.942341 
Q 284.521917 262.517866 283.5837 262.517866 
L 282.592651 262.517866 
L 282.592651 261.572362 
L 283.629244 261.572362 
Q 284.476373 261.572362 284.926353 261.23351 
Q 285.376332 260.894659 285.376332 260.257036 
Q 285.376332 259.603016 284.911778 259.253234 
Q 284.449046 258.901631 283.5837 258.901631 
Q 283.110037 258.901631 282.568968 259.005472 
Q 282.027899 259.107492 281.379345 259.322462 
L 281.379345 258.298621 
Q 282.035186 258.116443 282.607225 258.025354 
Q 283.179264 257.934265 283.68572 257.934265 
Q 284.99558 257.934265 285.757085 258.529987 
Q 286.520411 259.123888 286.520411 260.136798 
Q 286.520411 260.843649 286.115976 261.330065 
Q 285.71154 261.81648 284.966432 262.004124 
z
M 289.019667 265.141231 
L 290.220221 265.141231 
L 290.220221 266.121349 
L 289.287469 267.94313 
L 288.553291 267.94313 
L 289.019667 266.121349 
z
M 295.766406 259.089274 
L 292.862486 263.627331 
L 295.766406 263.627331 
z
M 295.46399 258.087295 
L 296.910484 258.087295 
L 296.910484 263.627331 
L 298.12379 263.627331 
L 298.12379 264.583766 
L 296.910484 264.583766 
L 296.910484 266.587725 
L 295.766406 266.587725 
L 295.766406 264.583766 
L 291.929735 264.583766 
L 291.929735 263.474301 
z
M 300.143918 265.141231 
L 301.344472 265.141231 
L 301.344472 266.121349 
L 300.41172 267.94313 
L 299.677542 267.94313 
L 300.143918 266.121349 
z
M 306.333191 261.880243 
Q 305.558934 261.880243 305.105311 262.410381 
Q 304.653509 262.938698 304.653509 263.860519 
Q 304.653509 264.776875 305.105311 265.310657 
Q 305.558934 265.842617 306.333191 265.842617 
Q 307.107448 265.842617 307.55925 265.310657 
Q 308.011052 264.776875 308.011052 263.860519 
Q 308.011052 262.938698 307.55925 262.410381 
Q 307.107448 261.880243 306.333191 261.880243 
z
M 308.615883 258.274938 
L 308.615883 259.322462 
Q 308.182299 259.118423 307.741428 259.010938 
Q 307.300557 258.901631 306.866973 258.901631 
Q 305.72836 258.901631 305.127172 259.670422 
Q 304.527806 260.439214 304.442183 261.993193 
Q 304.77739 261.497669 305.283845 261.23351 
Q 305.792122 260.969352 306.400597 260.969352 
Q 307.681309 260.969352 308.424596 261.747253 
Q 309.167883 262.523332 309.167883 263.860519 
Q 309.167883 265.170379 308.393626 265.962854 
Q 307.619369 266.753507 306.333191 266.753507 
Q 304.857549 266.753507 304.077826 265.624003 
Q 303.298104 264.492677 303.298104 262.346619 
Q 303.298104 260.331729 304.254539 259.132997 
Q 305.210974 257.934265 306.821429 257.934265 
Q 307.255013 257.934265 307.695884 258.019889 
Q 308.136755 258.105512 308.615883 258.274938 
z
"/>
   </g>
   <g id="patch_121">
    <path clip-path="url(#p4d9287187e)" d="M 324.609755 236.398991 
L 324.609755 255.054029 
L 305.954716 255.054029 
L 305.954716 236.398991 
L 324.609755 236.398991 
z
" style="fill:#ffd400;stroke:#000000;stroke-linejoin:miter;stroke-width:0.583973;"/>
   </g>
   <g id="patch_122">
    <path clip-path="url(#p4d9287187e)" d="M 268.644639 255.054029 
C 271.118326 255.054029 273.491031 254.071223 275.240192 252.322062 
C 276.989352 250.572901 277.972159 248.200197 277.972159 245.72651 
C 277.972159 243.252823 276.989352 240.880119 275.240192 239.130958 
C 273.491031 237.381797 271.118326 236.398991 268.644639 236.398991 
C 266.170952 236.398991 263.798248 237.381797 262.049087 239.130958 
C 260.299926 240.880119 259.31712 243.252823 259.31712 245.72651 
C 259.31712 248.200197 260.299926 250.572901 262.049087 252.322062 
C 263.798248 254.071223 266.170952 255.054029 268.644639 255.054029 
z
" style="fill:#ffd400;stroke:#000000;stroke-linejoin:miter;stroke-width:0.583973;"/>
   </g>
   <g id="patch_123">
    <path clip-path="url(#p4d9287187e)" d="M 275.640279 266.713428 
L 261.649 280.704707 
z
" style="fill:#ffffff;stroke:#000000;stroke-linejoin:miter;stroke-width:0.583973;"/>
   </g>
   <g id="patch_124">
    <path clip-path="url(#p4d9287187e)" d="M 261.649 266.713428 
L 275.640279 280.704707 
z
" style="fill:#ffffff;stroke:#000000;stroke-linejoin:miter;stroke-width:0.583973;"/>
   </g>
  </g>
  <g id="axes_6">
   <g id="line2d_45">
    <path clip-path="url(#p54e8b603d9)" d="M 289.197174 321.079752 
L 260.358759 321.079752 
" style="fill:none;stroke:#000000;stroke-linecap:square;stroke-width:0.577241;"/>
   </g>
   <g id="line2d_46">
    <path clip-path="url(#p54e8b603d9)" d="M 289.197174 321.079752 
L 289.197174 338.382801 
" style="fill:none;stroke:#000000;stroke-linecap:square;stroke-width:0.577241;"/>
   </g>
   <g id="line2d_47">
    <path clip-path="url(#p54e8b603d9)" d="M 318.03559 321.079752 
L 289.197174 321.079752 
" style="fill:none;stroke:#000000;stroke-linecap:square;stroke-width:0.577241;"/>
   </g>
   <g id="line2d_48">
    <path clip-path="url(#p54e8b603d9)" d="M 318.03559 321.079752 
L 318.03559 338.382801 
" style="fill:none;stroke:#000000;stroke-linecap:square;stroke-width:0.577241;"/>
   </g>
   <g id="patch_125">
    <path clip-path="url(#p54e8b603d9)" d="M 270.048917 320.259659 
L 270.048917 322.002356 
L 269.3978 322.002356 
L 269.3978 316.585014 
Q 269.3978 314.979751 270.897172 314.979751 
Q 272.425834 314.979751 272.425834 316.334931 
Q 272.425834 317.299216 271.819776 317.65181 
Q 272.805464 317.968357 272.805464 318.907858 
Q 272.805464 320.577332 271.108954 320.577332 
Q 270.362084 320.577332 270.048917 320.259659 
z
M 270.048917 319.414784 
Q 270.439813 320.024221 271.133737 320.024221 
Q 272.147588 320.024221 272.147588 318.919123 
Q 272.147588 317.92555 270.514162 318.003279 
L 270.514162 317.405107 
Q 271.791614 317.405107 271.791614 316.278606 
Q 271.791614 315.50808 270.968142 315.50808 
Q 270.048917 315.50808 270.048917 316.606418 
z
"/>
   </g>
   <g id="patch_126">
    <path clip-path="url(#p54e8b603d9)" d="M 280.298946 317.668708 
Q 280.809251 317.777978 281.095382 318.123814 
Q 281.38264 318.468523 281.38264 318.975449 
Q 281.38264 319.752734 280.847552 320.179678 
Q 280.312464 320.605495 279.326776 320.605495 
Q 278.996712 320.605495 278.64637 320.540158 
Q 278.296028 320.474821 277.923156 320.344147 
L 277.923156 319.658108 
Q 278.2183 319.830462 278.569768 319.91833 
Q 278.922363 320.006197 279.306499 320.006197 
Q 279.974514 320.006197 280.324856 319.742595 
Q 280.675197 319.478994 280.675197 318.975449 
Q 280.675197 318.510204 280.349639 318.248856 
Q 280.02408 317.986381 279.443932 317.986381 
L 278.831116 317.986381 
L 278.831116 317.401727 
L 279.472095 317.401727 
Q 279.995918 317.401727 280.274163 317.192198 
Q 280.552409 316.982669 280.552409 316.588394 
Q 280.552409 316.18398 280.265151 315.967692 
Q 279.97902 315.750277 279.443932 315.750277 
Q 279.151042 315.750277 278.816471 315.814488 
Q 278.481901 315.877572 278.080867 316.010499 
L 278.080867 315.377406 
Q 278.486407 315.264756 278.840128 315.208431 
Q 279.193849 315.152105 279.507016 315.152105 
Q 280.31697 315.152105 280.787848 315.520471 
Q 281.259851 315.88771 281.259851 316.514045 
Q 281.259851 316.951127 281.009768 317.251903 
Q 280.759685 317.552678 280.298946 317.668708 
z
"/>
   </g>
   <g id="patch_127">
    <path clip-path="url(#p54e8b603d9)" d="M 290.868901 333.381138 
L 293.350582 333.381138 
L 293.350582 333.97931 
L 290.013887 333.97931 
L 290.013887 333.381138 
Q 290.418301 332.96208 291.116731 332.256891 
Q 291.816288 331.550575 291.995402 331.345552 
Q 292.336732 330.962541 292.471912 330.696687 
Q 292.608218 330.430833 292.608218 330.173991 
Q 292.608218 329.754933 292.314202 329.491332 
Q 292.020185 329.226604 291.548181 329.226604 
Q 291.213611 329.226604 290.841865 329.342634 
Q 290.471247 329.458663 290.048809 329.695228 
L 290.048809 328.976521 
Q 290.478006 328.804166 290.850877 328.716299 
Q 291.224876 328.628432 291.534663 328.628432 
Q 292.351376 328.628432 292.836898 329.037352 
Q 293.32242 329.445145 293.32242 330.127804 
Q 293.32242 330.452237 293.200758 330.742874 
Q 293.080222 331.032384 292.759169 331.42666 
Q 292.671302 331.529171 292.199299 332.016946 
Q 291.728421 332.504721 290.868901 333.381138 
z
M 294.917404 333.084868 
L 295.659768 333.084868 
L 295.659768 333.690926 
L 295.082999 334.817426 
L 294.62902 334.817426 
L 294.917404 333.690926 
z
M 299.089258 329.342634 
L 297.293616 332.148747 
L 299.089258 332.148747 
z
M 298.902259 328.723058 
L 299.7967 328.723058 
L 299.7967 332.148747 
L 300.54695 332.148747 
L 300.54695 332.740159 
L 299.7967 332.740159 
L 299.7967 333.97931 
L 299.089258 333.97931 
L 299.089258 332.740159 
L 296.716848 332.740159 
L 296.716848 332.05412 
z
M 301.796098 333.084868 
L 302.538462 333.084868 
L 302.538462 333.690926 
L 301.961694 334.817426 
L 301.507714 334.817426 
L 301.796098 333.690926 
z
M 305.623243 331.068432 
Q 305.14448 331.068432 304.863982 331.396244 
Q 304.584609 331.722929 304.584609 332.292939 
Q 304.584609 332.859568 304.863982 333.189633 
Q 305.14448 333.518571 305.623243 333.518571 
Q 306.102006 333.518571 306.381378 333.189633 
Q 306.66075 332.859568 306.66075 332.292939 
Q 306.66075 331.722929 306.381378 331.396244 
Q 306.102006 331.068432 305.623243 331.068432 
z
M 307.034748 328.839088 
L 307.034748 329.486826 
Q 306.766641 329.360658 306.494028 329.294194 
Q 306.221415 329.226604 305.953308 329.226604 
Q 305.249245 329.226604 304.8775 329.701987 
Q 304.506881 330.17737 304.453935 331.138275 
Q 304.661211 330.831867 304.974379 330.668525 
Q 305.288672 330.505182 305.664923 330.505182 
Q 306.456853 330.505182 306.916466 330.986198 
Q 307.376078 331.466087 307.376078 332.292939 
Q 307.376078 333.102893 306.897315 333.59292 
Q 306.418552 334.081822 305.623243 334.081822 
Q 304.710777 334.081822 304.228635 333.383391 
Q 303.746493 332.683834 303.746493 331.356817 
Q 303.746493 330.110907 304.337906 329.36967 
Q 304.929319 328.628432 305.925145 328.628432 
Q 306.193252 328.628432 306.465865 328.681378 
Q 306.738479 328.734323 307.034748 328.839088 
z
"/>
   </g>
   <g id="patch_128">
    <path clip-path="url(#p54e8b603d9)" d="M 298.887333 320.259659 
L 298.887333 322.002356 
L 298.236215 322.002356 
L 298.236215 316.585014 
Q 298.236215 314.979751 299.735588 314.979751 
Q 301.264249 314.979751 301.264249 316.334931 
Q 301.264249 317.299216 300.658192 317.65181 
Q 301.64388 317.968357 301.64388 318.907858 
Q 301.64388 320.577332 299.94737 320.577332 
Q 299.2005 320.577332 298.887333 320.259659 
z
M 298.887333 319.414784 
Q 299.278228 320.024221 299.972153 320.024221 
Q 300.986003 320.024221 300.986003 318.919123 
Q 300.986003 317.92555 299.352577 318.003279 
L 299.352577 317.405107 
Q 300.630029 317.405107 300.630029 316.278606 
Q 300.630029 315.50808 299.806557 315.50808 
Q 298.887333 315.50808 298.887333 316.606418 
z
"/>
   </g>
   <g id="patch_129">
    <path clip-path="url(#p54e8b603d9)" d="M 308.936844 315.866307 
L 307.141202 318.67242 
L 308.936844 318.67242 
z
M 308.749845 315.246732 
L 309.644287 315.246732 
L 309.644287 318.67242 
L 310.394536 318.67242 
L 310.394536 319.263833 
L 309.644287 319.263833 
L 309.644287 320.502983 
L 308.936844 320.502983 
L 308.936844 319.263833 
L 306.564434 319.263833 
L 306.564434 318.577794 
z
"/>
   </g>
   <g id="patch_130">
    <path clip-path="url(#p54e8b603d9)" d="M 321.249496 331.145034 
Q 321.759801 331.254305 322.045932 331.600141 
Q 322.33319 331.94485 322.33319 332.451775 
Q 322.33319 333.229061 321.798102 333.656004 
Q 321.263014 334.081822 320.277326 334.081822 
Q 319.947261 334.081822 319.59692 334.016484 
Q 319.246578 333.951147 318.873706 333.820473 
L 318.873706 333.134435 
Q 319.168849 333.306789 319.520318 333.394656 
Q 319.872912 333.482523 320.257049 333.482523 
Q 320.925064 333.482523 321.275405 333.218922 
Q 321.625747 332.955321 321.625747 332.451775 
Q 321.625747 331.98653 321.300188 331.725182 
Q 320.97463 331.462708 320.394482 331.462708 
L 319.781666 331.462708 
L 319.781666 330.878054 
L 320.422645 330.878054 
Q 320.946467 330.878054 321.224713 330.668525 
Q 321.502959 330.458996 321.502959 330.06472 
Q 321.502959 329.660307 321.215701 329.444019 
Q 320.92957 329.226604 320.394482 329.226604 
Q 320.101592 329.226604 319.767021 329.290814 
Q 319.43245 329.353899 319.031416 329.486826 
L 319.031416 328.853732 
Q 319.436956 328.741082 319.790678 328.684757 
Q 320.144399 328.628432 320.457566 328.628432 
Q 321.26752 328.628432 321.738397 328.996798 
Q 322.210401 329.364037 322.210401 329.990371 
Q 322.210401 330.427454 321.960318 330.728229 
Q 321.710235 331.029005 321.249496 331.145034 
z
M 323.755819 333.084868 
L 324.498183 333.084868 
L 324.498183 333.690926 
L 323.921415 334.817426 
L 323.467435 334.817426 
L 323.755819 333.690926 
z
M 327.582964 331.068432 
Q 327.104201 331.068432 326.823703 331.396244 
Q 326.54433 331.722929 326.54433 332.292939 
Q 326.54433 332.859568 326.823703 333.189633 
Q 327.104201 333.518571 327.582964 333.518571 
Q 328.061727 333.518571 328.341099 333.189633 
Q 328.620471 332.859568 328.620471 332.292939 
Q 328.620471 331.722929 328.341099 331.396244 
Q 328.061727 331.068432 327.582964 331.068432 
z
M 328.994469 328.839088 
L 328.994469 329.486826 
Q 328.726362 329.360658 328.453749 329.294194 
Q 328.181136 329.226604 327.913029 329.226604 
Q 327.208966 329.226604 326.837221 329.701987 
Q 326.466602 330.17737 326.413656 331.138275 
Q 326.620932 330.831867 326.9341 330.668525 
Q 327.248393 330.505182 327.624644 330.505182 
Q 328.416574 330.505182 328.876187 330.986198 
Q 329.335799 331.466087 329.335799 332.292939 
Q 329.335799 333.102893 328.857036 333.59292 
Q 328.378273 334.081822 327.582964 334.081822 
Q 326.670498 334.081822 326.188356 333.383391 
Q 325.706214 332.683834 325.706214 331.356817 
Q 325.706214 330.110907 326.297627 329.36967 
Q 326.88904 328.628432 327.884866 328.628432 
Q 328.152973 328.628432 328.425586 328.681378 
Q 328.6982 328.734323 328.994469 328.839088 
z
"/>
   </g>
   <g id="patch_131">
    <path clip-path="url(#p54e8b603d9)" d="M 323.803273 315.312069 
L 323.803273 326.847435 
L 312.267907 326.847435 
L 312.267907 315.312069 
L 323.803273 315.312069 
z
" style="fill:#0090bc;stroke:#000000;stroke-linejoin:miter;stroke-width:0.577241;"/>
   </g>
   <g id="patch_132">
    <path clip-path="url(#p54e8b603d9)" d="M 289.197174 326.847435 
C 290.726782 326.847435 292.193946 326.239715 293.275542 325.158119 
C 294.357138 324.076524 294.964858 322.609359 294.964858 321.079752 
C 294.964858 319.550144 294.357138 318.08298 293.275542 317.001384 
C 292.193946 315.919788 290.726782 315.312069 289.197174 315.312069 
C 287.667567 315.312069 286.200402 315.919788 285.118807 317.001384 
C 284.037211 318.08298 283.429491 319.550144 283.429491 321.079752 
C 283.429491 322.609359 284.037211 324.076524 285.118807 325.158119 
C 286.200402 326.239715 287.667567 326.847435 289.197174 326.847435 
z
" style="fill:#ffd400;stroke:#000000;stroke-linejoin:miter;stroke-width:0.577241;"/>
   </g>
   <g id="patch_133">
    <path clip-path="url(#p54e8b603d9)" d="M 322.361352 334.057039 
L 313.709827 342.708563 
z
" style="fill:#ffffff;stroke:#000000;stroke-linejoin:miter;stroke-width:0.577241;"/>
   </g>
   <g id="patch_134">
    <path clip-path="url(#p54e8b603d9)" d="M 313.709827 334.057039 
L 322.361352 342.708563 
z
" style="fill:#ffffff;stroke:#000000;stroke-linejoin:miter;stroke-width:0.577241;"/>
   </g>
   <g id="patch_135">
    <path clip-path="url(#p54e8b603d9)" d="M 266.126442 315.312069 
L 266.126442 326.847435 
L 254.591076 326.847435 
L 254.591076 315.312069 
L 266.126442 315.312069 
z
" style="fill:#0090bc;stroke:#000000;stroke-linejoin:miter;stroke-width:0.577241;"/>
   </g>
   <g id="patch_136">
    <path clip-path="url(#p54e8b603d9)" d="M 293.522937 334.057039 
L 284.871412 342.708563 
z
" style="fill:#ffffff;stroke:#000000;stroke-linejoin:miter;stroke-width:0.577241;"/>
   </g>
   <g id="patch_137">
    <path clip-path="url(#p54e8b603d9)" d="M 284.871412 334.057039 
L 293.522937 342.708563 
z
" style="fill:#ffffff;stroke:#000000;stroke-linejoin:miter;stroke-width:0.577241;"/>
   </g>
  </g>
  <g id="text_41">
   <!-- PNA_14030_10ug_v5.0_DATA.csv -->
   <defs>
    <path d="M 9.8125 72.90625 
L 23.09375 72.90625 
L 55.421875 11.921875 
L 55.421875 72.90625 
L 64.984375 72.90625 
L 64.984375 0 
L 51.703125 0 
L 19.390625 60.984375 
L 19.390625 0 
L 9.8125 0 
z
" id="DejaVuSans-78"/>
    <path d="M 50.984375 -16.609375 
L 50.984375 -23.578125 
L -0.984375 -23.578125 
L -0.984375 -16.609375 
z
" id="DejaVuSans-95"/>
    <path d="M 19.671875 64.796875 
L 19.671875 8.109375 
L 31.59375 8.109375 
Q 46.6875 8.109375 53.6875 14.9375 
Q 60.6875 21.78125 60.6875 36.53125 
Q 60.6875 51.171875 53.6875 57.984375 
Q 46.6875 64.796875 31.59375 64.796875 
z
M 9.8125 72.90625 
L 30.078125 72.90625 
Q 51.265625 72.90625 61.171875 64.09375 
Q 71.09375 55.28125 71.09375 36.53125 
Q 71.09375 17.671875 61.125 8.828125 
Q 51.171875 0 30.078125 0 
L 9.8125 0 
z
" id="DejaVuSans-68"/>
   </defs>
   <g transform="translate(188.000625 16.68225)scale(0.12 -0.12)">
    <use xlink:href="#DejaVuSans-80"/>
    <use x="60.302734" xlink:href="#DejaVuSans-78"/>
    <use x="135.107422" xlink:href="#DejaVuSans-65"/>
    <use x="203.515625" xlink:href="#DejaVuSans-95"/>
    <use x="253.515625" xlink:href="#DejaVuSans-49"/>
    <use x="317.138672" xlink:href="#DejaVuSans-52"/>
    <use x="380.761719" xlink:href="#DejaVuSans-48"/>
    <use x="444.384766" xlink:href="#DejaVuSans-51"/>
    <use x="508.007812" xlink:href="#DejaVuSans-48"/>
    <use x="571.630859" xlink:href="#DejaVuSans-95"/>
    <use x="621.630859" xlink:href="#DejaVuSans-49"/>
    <use x="685.253906" xlink:href="#DejaVuSans-48"/>
    <use x="748.876953" xlink:href="#DejaVuSans-117"/>
    <use x="812.255859" xlink:href="#DejaVuSans-103"/>
    <use x="875.732422" xlink:href="#DejaVuSans-95"/>
    <use x="925.732422" xlink:href="#DejaVuSans-118"/>
    <use x="984.912109" xlink:href="#DejaVuSans-53"/>
    <use x="1048.535156" xlink:href="#DejaVuSans-46"/>
    <use x="1080.322266" xlink:href="#DejaVuSans-48"/>
    <use x="1143.945312" xlink:href="#DejaVuSans-95"/>
    <use x="1193.945312" xlink:href="#DejaVuSans-68"/>
    <use x="1270.931641" xlink:href="#DejaVuSans-65"/>
    <use x="1339.230469" xlink:href="#DejaVuSans-84"/>
    <use x="1400.205078" xlink:href="#DejaVuSans-65"/>
    <use x="1468.597656" xlink:href="#DejaVuSans-46"/>
    <use x="1500.384766" xlink:href="#DejaVuSans-99"/>
    <use x="1555.365234" xlink:href="#DejaVuSans-115"/>
    <use x="1607.464844" xlink:href="#DejaVuSans-118"/>
   </g>
  </g>
 </g>
 <defs>
  <clipPath id="p94846038ca">
   <rect height="119.888477" width="296.66967" x="36.403365" y="70.383376"/>
  </clipPath>
  <clipPath id="pc9f9e8559c">
   <rect height="119.888477" width="179.74287" x="36.403365" y="233.619408"/>
  </clipPath>
  <clipPath id="p467dd50849">
   <rect height="119.888477" width="179.74287" x="389.75689" y="233.619408"/>
  </clipPath>
  <clipPath id="p1b7b78bf3f">
   <rect height="119.888477" width="179.74287" x="389.75689" y="70.383376"/>
  </clipPath>
  <clipPath id="p4d9287187e">
   <rect height="49.327456" width="71.821898" x="256.052488" y="233.619408"/>
  </clipPath>
  <clipPath id="p54e8b603d9">
   <rect height="30.501693" width="82.219195" x="250.85384" y="313.59331"/>
  </clipPath>
 </defs>
</svg>
