<?xml version="1.0" encoding="utf-8" standalone="no"?>
<!DOCTYPE svg PUBLIC "-//W3C//DTD SVG 1.1//EN"
  "http://www.w3.org/Graphics/SVG/1.1/DTD/svg11.dtd">
<!-- Created with matplotlib (https://matplotlib.org/) -->
<svg height="388.8pt" version="1.1" viewBox="0 0 576 388.8" width="576pt" xmlns="http://www.w3.org/2000/svg" xmlns:xlink="http://www.w3.org/1999/xlink">
 <defs>
  <style type="text/css">
*{stroke-linecap:butt;stroke-linejoin:round;}
  </style>
 </defs>
 <g id="figure_1">
  <g id="patch_1">
   <path d="M 0 388.8 
L 576 388.8 
L 576 0 
L 0 0 
z
" style="fill:#ffffff;"/>
  </g>
  <g id="axes_1">
   <g id="patch_2">
    <path d="M 36.403365 191.507478 
L 331.929285 191.507478 
L 331.929285 69.354626 
L 36.403365 69.354626 
z
" style="fill:#ffffff;"/>
   </g>
   <g id="patch_3">
    <path clip-path="url(#p4ac1b3026a)" d="M 49.836361 191.507478 
L 52.779329 191.507478 
L 52.779329 190.154733 
L 49.836361 190.154733 
z
" style="fill:#1f77b4;"/>
   </g>
   <g id="patch_4">
    <path clip-path="url(#p4ac1b3026a)" d="M 52.779329 191.507478 
L 55.722297 191.507478 
L 55.722297 191.507478 
L 52.779329 191.507478 
z
" style="fill:#1f77b4;"/>
   </g>
   <g id="patch_5">
    <path clip-path="url(#p4ac1b3026a)" d="M 55.722297 191.507478 
L 58.665265 191.507478 
L 58.665265 191.507478 
L 55.722297 191.507478 
z
" style="fill:#1f77b4;"/>
   </g>
   <g id="patch_6">
    <path clip-path="url(#p4ac1b3026a)" d="M 58.665265 191.507478 
L 61.608233 191.507478 
L 61.608233 191.507478 
L 58.665265 191.507478 
z
" style="fill:#1f77b4;"/>
   </g>
   <g id="patch_7">
    <path clip-path="url(#p4ac1b3026a)" d="M 61.608233 191.507478 
L 64.551201 191.507478 
L 64.551201 190.154733 
L 61.608233 190.154733 
z
" style="fill:#1f77b4;"/>
   </g>
   <g id="patch_8">
    <path clip-path="url(#p4ac1b3026a)" d="M 64.551201 191.507478 
L 67.494169 191.507478 
L 67.494169 191.507478 
L 64.551201 191.507478 
z
" style="fill:#1f77b4;"/>
   </g>
   <g id="patch_9">
    <path clip-path="url(#p4ac1b3026a)" d="M 67.494169 191.507478 
L 70.437137 191.507478 
L 70.437137 191.507478 
L 67.494169 191.507478 
z
" style="fill:#1f77b4;"/>
   </g>
   <g id="patch_10">
    <path clip-path="url(#p4ac1b3026a)" d="M 70.437137 191.507478 
L 73.380105 191.507478 
L 73.380105 191.507478 
L 70.437137 191.507478 
z
" style="fill:#1f77b4;"/>
   </g>
   <g id="patch_11">
    <path clip-path="url(#p4ac1b3026a)" d="M 73.380105 191.507478 
L 76.323073 191.507478 
L 76.323073 190.154733 
L 73.380105 190.154733 
z
" style="fill:#1f77b4;"/>
   </g>
   <g id="patch_12">
    <path clip-path="url(#p4ac1b3026a)" d="M 76.323073 191.507478 
L 79.266041 191.507478 
L 79.266041 190.154733 
L 76.323073 190.154733 
z
" style="fill:#1f77b4;"/>
   </g>
   <g id="patch_13">
    <path clip-path="url(#p4ac1b3026a)" d="M 79.266041 191.507478 
L 82.209009 191.507478 
L 82.209009 191.507478 
L 79.266041 191.507478 
z
" style="fill:#1f77b4;"/>
   </g>
   <g id="patch_14">
    <path clip-path="url(#p4ac1b3026a)" d="M 82.209009 191.507478 
L 85.151977 191.507478 
L 85.151977 191.507478 
L 82.209009 191.507478 
z
" style="fill:#1f77b4;"/>
   </g>
   <g id="patch_15">
    <path clip-path="url(#p4ac1b3026a)" d="M 85.151977 191.507478 
L 88.094945 191.507478 
L 88.094945 191.507478 
L 85.151977 191.507478 
z
" style="fill:#1f77b4;"/>
   </g>
   <g id="patch_16">
    <path clip-path="url(#p4ac1b3026a)" d="M 88.094945 191.507478 
L 91.037913 191.507478 
L 91.037913 190.154733 
L 88.094945 190.154733 
z
" style="fill:#1f77b4;"/>
   </g>
   <g id="patch_17">
    <path clip-path="url(#p4ac1b3026a)" d="M 91.037913 191.507478 
L 93.980881 191.507478 
L 93.980881 187.449244 
L 91.037913 187.449244 
z
" style="fill:#1f77b4;"/>
   </g>
   <g id="patch_18">
    <path clip-path="url(#p4ac1b3026a)" d="M 93.980881 191.507478 
L 96.923849 191.507478 
L 96.923849 187.449244 
L 93.980881 187.449244 
z
" style="fill:#1f77b4;"/>
   </g>
   <g id="patch_19">
    <path clip-path="url(#p4ac1b3026a)" d="M 96.923849 191.507478 
L 99.866817 191.507478 
L 99.866817 188.801988 
L 96.923849 188.801988 
z
" style="fill:#1f77b4;"/>
   </g>
   <g id="patch_20">
    <path clip-path="url(#p4ac1b3026a)" d="M 99.866817 191.507478 
L 102.809785 191.507478 
L 102.809785 183.391009 
L 99.866817 183.391009 
z
" style="fill:#1f77b4;"/>
   </g>
   <g id="patch_21">
    <path clip-path="url(#p4ac1b3026a)" d="M 102.809785 191.507478 
L 105.752753 191.507478 
L 105.752753 180.68552 
L 102.809785 180.68552 
z
" style="fill:#1f77b4;"/>
   </g>
   <g id="patch_22">
    <path clip-path="url(#p4ac1b3026a)" d="M 105.752753 191.507478 
L 108.695721 191.507478 
L 108.695721 161.747093 
L 105.752753 161.747093 
z
" style="fill:#1f77b4;"/>
   </g>
   <g id="patch_23">
    <path clip-path="url(#p4ac1b3026a)" d="M 108.695721 191.507478 
L 111.638689 191.507478 
L 111.638689 165.805328 
L 108.695721 165.805328 
z
" style="fill:#1f77b4;"/>
   </g>
   <g id="patch_24">
    <path clip-path="url(#p4ac1b3026a)" d="M 111.638689 191.507478 
L 114.581657 191.507478 
L 114.581657 138.750432 
L 111.638689 138.750432 
z
" style="fill:#1f77b4;"/>
   </g>
   <g id="patch_25">
    <path clip-path="url(#p4ac1b3026a)" d="M 114.581657 191.507478 
L 117.524625 191.507478 
L 117.524625 114.401027 
L 114.581657 114.401027 
z
" style="fill:#1f77b4;"/>
   </g>
   <g id="patch_26">
    <path clip-path="url(#p4ac1b3026a)" d="M 117.524625 191.507478 
L 120.467593 191.507478 
L 120.467593 103.579068 
L 117.524625 103.579068 
z
" style="fill:#1f77b4;"/>
   </g>
   <g id="patch_27">
    <path clip-path="url(#p4ac1b3026a)" d="M 120.467593 191.507478 
L 123.410561 191.507478 
L 123.410561 75.171428 
L 120.467593 75.171428 
z
" style="fill:#1f77b4;"/>
   </g>
   <g id="patch_28">
    <path clip-path="url(#p4ac1b3026a)" d="M 123.410561 191.507478 
L 126.353529 191.507478 
L 126.353529 115.753771 
L 123.410561 115.753771 
z
" style="fill:#1f77b4;"/>
   </g>
   <g id="patch_29">
    <path clip-path="url(#p4ac1b3026a)" d="M 126.353529 191.507478 
L 129.296497 191.507478 
L 129.296497 125.222985 
L 126.353529 125.222985 
z
" style="fill:#1f77b4;"/>
   </g>
   <g id="patch_30">
    <path clip-path="url(#p4ac1b3026a)" d="M 129.296497 191.507478 
L 132.239465 191.507478 
L 132.239465 140.103177 
L 129.296497 140.103177 
z
" style="fill:#1f77b4;"/>
   </g>
   <g id="patch_31">
    <path clip-path="url(#p4ac1b3026a)" d="M 132.239465 191.507478 
L 135.182433 191.507478 
L 135.182433 142.808667 
L 132.239465 142.808667 
z
" style="fill:#1f77b4;"/>
   </g>
   <g id="patch_32">
    <path clip-path="url(#p4ac1b3026a)" d="M 135.182433 191.507478 
L 138.125401 191.507478 
L 138.125401 172.569051 
L 135.182433 172.569051 
z
" style="fill:#1f77b4;"/>
   </g>
   <g id="patch_33">
    <path clip-path="url(#p4ac1b3026a)" d="M 138.125401 191.507478 
L 141.068369 191.507478 
L 141.068369 184.743754 
L 138.125401 184.743754 
z
" style="fill:#1f77b4;"/>
   </g>
   <g id="patch_34">
    <path clip-path="url(#p4ac1b3026a)" d="M 162.518985 191.507478 
L 165.461953 191.507478 
L 165.461953 187.449244 
L 162.518985 187.449244 
z
" style="fill:#ff0000;"/>
   </g>
   <g id="patch_35">
    <path clip-path="url(#p4ac1b3026a)" d="M 165.461953 191.507478 
L 168.404921 191.507478 
L 168.404921 187.449244 
L 165.461953 187.449244 
z
" style="fill:#ff0000;"/>
   </g>
   <g id="patch_36">
    <path clip-path="url(#p4ac1b3026a)" d="M 168.404921 191.507478 
L 171.347889 191.507478 
L 171.347889 188.801988 
L 168.404921 188.801988 
z
" style="fill:#ff0000;"/>
   </g>
   <g id="patch_37">
    <path clip-path="url(#p4ac1b3026a)" d="M 171.347889 191.507478 
L 174.290857 191.507478 
L 174.290857 190.154733 
L 171.347889 190.154733 
z
" style="fill:#ff0000;"/>
   </g>
   <g id="patch_38">
    <path clip-path="url(#p4ac1b3026a)" d="M 174.290857 191.507478 
L 177.233825 191.507478 
L 177.233825 187.449244 
L 174.290857 187.449244 
z
" style="fill:#ff0000;"/>
   </g>
   <g id="patch_39">
    <path clip-path="url(#p4ac1b3026a)" d="M 177.233825 191.507478 
L 180.176793 191.507478 
L 180.176793 191.507478 
L 177.233825 191.507478 
z
" style="fill:#ff0000;"/>
   </g>
   <g id="patch_40">
    <path clip-path="url(#p4ac1b3026a)" d="M 180.176793 191.507478 
L 183.119761 191.507478 
L 183.119761 191.507478 
L 180.176793 191.507478 
z
" style="fill:#ff0000;"/>
   </g>
   <g id="patch_41">
    <path clip-path="url(#p4ac1b3026a)" d="M 183.119761 191.507478 
L 186.062729 191.507478 
L 186.062729 191.507478 
L 183.119761 191.507478 
z
" style="fill:#ff0000;"/>
   </g>
   <g id="patch_42">
    <path clip-path="url(#p4ac1b3026a)" d="M 186.062729 191.507478 
L 189.005697 191.507478 
L 189.005697 190.154733 
L 186.062729 190.154733 
z
" style="fill:#ff0000;"/>
   </g>
   <g id="patch_43">
    <path clip-path="url(#p4ac1b3026a)" d="M 189.005697 191.507478 
L 191.948665 191.507478 
L 191.948665 191.507478 
L 189.005697 191.507478 
z
" style="fill:#ff0000;"/>
   </g>
   <g id="patch_44">
    <path clip-path="url(#p4ac1b3026a)" d="M 191.948665 191.507478 
L 194.891633 191.507478 
L 194.891633 190.154733 
L 191.948665 190.154733 
z
" style="fill:#ff0000;"/>
   </g>
   <g id="patch_45">
    <path clip-path="url(#p4ac1b3026a)" d="M 194.891633 191.507478 
L 197.834601 191.507478 
L 197.834601 191.507478 
L 194.891633 191.507478 
z
" style="fill:#ff0000;"/>
   </g>
   <g id="patch_46">
    <path clip-path="url(#p4ac1b3026a)" d="M 197.834601 191.507478 
L 200.777569 191.507478 
L 200.777569 191.507478 
L 197.834601 191.507478 
z
" style="fill:#ff0000;"/>
   </g>
   <g id="patch_47">
    <path clip-path="url(#p4ac1b3026a)" d="M 200.777569 191.507478 
L 203.720537 191.507478 
L 203.720537 188.801988 
L 200.777569 188.801988 
z
" style="fill:#ff0000;"/>
   </g>
   <g id="patch_48">
    <path clip-path="url(#p4ac1b3026a)" d="M 203.720537 191.507478 
L 206.663505 191.507478 
L 206.663505 191.507478 
L 203.720537 191.507478 
z
" style="fill:#ff0000;"/>
   </g>
   <g id="patch_49">
    <path clip-path="url(#p4ac1b3026a)" d="M 206.663505 191.507478 
L 209.606473 191.507478 
L 209.606473 191.507478 
L 206.663505 191.507478 
z
" style="fill:#ff0000;"/>
   </g>
   <g id="patch_50">
    <path clip-path="url(#p4ac1b3026a)" d="M 209.606473 191.507478 
L 212.549441 191.507478 
L 212.549441 188.801988 
L 209.606473 188.801988 
z
" style="fill:#ff0000;"/>
   </g>
   <g id="patch_51">
    <path clip-path="url(#p4ac1b3026a)" d="M 212.549441 191.507478 
L 215.492409 191.507478 
L 215.492409 188.801988 
L 212.549441 188.801988 
z
" style="fill:#ff0000;"/>
   </g>
   <g id="patch_52">
    <path clip-path="url(#p4ac1b3026a)" d="M 215.492409 191.507478 
L 218.435377 191.507478 
L 218.435377 191.507478 
L 215.492409 191.507478 
z
" style="fill:#ff0000;"/>
   </g>
   <g id="patch_53">
    <path clip-path="url(#p4ac1b3026a)" d="M 218.435377 191.507478 
L 221.378345 191.507478 
L 221.378345 190.154733 
L 218.435377 190.154733 
z
" style="fill:#ff0000;"/>
   </g>
   <g id="patch_54">
    <path clip-path="url(#p4ac1b3026a)" d="M 221.378345 191.507478 
L 224.321313 191.507478 
L 224.321313 190.154733 
L 221.378345 190.154733 
z
" style="fill:#ff0000;"/>
   </g>
   <g id="patch_55">
    <path clip-path="url(#p4ac1b3026a)" d="M 224.321313 191.507478 
L 227.264281 191.507478 
L 227.264281 190.154733 
L 224.321313 190.154733 
z
" style="fill:#ff0000;"/>
   </g>
   <g id="patch_56">
    <path clip-path="url(#p4ac1b3026a)" d="M 227.264281 191.507478 
L 230.207249 191.507478 
L 230.207249 190.154733 
L 227.264281 190.154733 
z
" style="fill:#ff0000;"/>
   </g>
   <g id="patch_57">
    <path clip-path="url(#p4ac1b3026a)" d="M 230.207249 191.507478 
L 233.150217 191.507478 
L 233.150217 191.507478 
L 230.207249 191.507478 
z
" style="fill:#ff0000;"/>
   </g>
   <g id="patch_58">
    <path clip-path="url(#p4ac1b3026a)" d="M 233.150217 191.507478 
L 236.093185 191.507478 
L 236.093185 191.507478 
L 233.150217 191.507478 
z
" style="fill:#ff0000;"/>
   </g>
   <g id="patch_59">
    <path clip-path="url(#p4ac1b3026a)" d="M 236.093185 191.507478 
L 239.036153 191.507478 
L 239.036153 191.507478 
L 236.093185 191.507478 
z
" style="fill:#ff0000;"/>
   </g>
   <g id="patch_60">
    <path clip-path="url(#p4ac1b3026a)" d="M 239.036153 191.507478 
L 241.979121 191.507478 
L 241.979121 191.507478 
L 239.036153 191.507478 
z
" style="fill:#ff0000;"/>
   </g>
   <g id="patch_61">
    <path clip-path="url(#p4ac1b3026a)" d="M 241.979121 191.507478 
L 244.922089 191.507478 
L 244.922089 188.801988 
L 241.979121 188.801988 
z
" style="fill:#ff0000;"/>
   </g>
   <g id="patch_62">
    <path clip-path="url(#p4ac1b3026a)" d="M 244.922089 191.507478 
L 247.865057 191.507478 
L 247.865057 191.507478 
L 244.922089 191.507478 
z
" style="fill:#ff0000;"/>
   </g>
   <g id="patch_63">
    <path clip-path="url(#p4ac1b3026a)" d="M 247.865057 191.507478 
L 250.808025 191.507478 
L 250.808025 190.154733 
L 247.865057 190.154733 
z
" style="fill:#ff0000;"/>
   </g>
   <g id="patch_64">
    <path clip-path="url(#p4ac1b3026a)" d="M 250.808025 191.507478 
L 253.750993 191.507478 
L 253.750993 190.154733 
L 250.808025 190.154733 
z
" style="fill:#ff0000;"/>
   </g>
   <g id="patch_65">
    <path clip-path="url(#p4ac1b3026a)" d="M 253.750993 191.507478 
L 256.693961 191.507478 
L 256.693961 190.154733 
L 253.750993 190.154733 
z
" style="fill:#ff0000;"/>
   </g>
   <g id="patch_66">
    <path clip-path="url(#p4ac1b3026a)" d="M 256.693961 191.507478 
L 259.636929 191.507478 
L 259.636929 190.154733 
L 256.693961 190.154733 
z
" style="fill:#ff0000;"/>
   </g>
   <g id="patch_67">
    <path clip-path="url(#p4ac1b3026a)" d="M 259.636929 191.507478 
L 262.579897 191.507478 
L 262.579897 187.449244 
L 259.636929 187.449244 
z
" style="fill:#ff0000;"/>
   </g>
   <g id="patch_68">
    <path clip-path="url(#p4ac1b3026a)" d="M 262.579897 191.507478 
L 265.522865 191.507478 
L 265.522865 191.507478 
L 262.579897 191.507478 
z
" style="fill:#ff0000;"/>
   </g>
   <g id="patch_69">
    <path clip-path="url(#p4ac1b3026a)" d="M 265.522865 191.507478 
L 268.465833 191.507478 
L 268.465833 190.154733 
L 265.522865 190.154733 
z
" style="fill:#ff0000;"/>
   </g>
   <g id="patch_70">
    <path clip-path="url(#p4ac1b3026a)" d="M 268.465833 191.507478 
L 271.408801 191.507478 
L 271.408801 190.154733 
L 268.465833 190.154733 
z
" style="fill:#ff0000;"/>
   </g>
   <g id="patch_71">
    <path clip-path="url(#p4ac1b3026a)" d="M 271.408801 191.507478 
L 274.351769 191.507478 
L 274.351769 191.507478 
L 271.408801 191.507478 
z
" style="fill:#ff0000;"/>
   </g>
   <g id="patch_72">
    <path clip-path="url(#p4ac1b3026a)" d="M 274.351769 191.507478 
L 277.294737 191.507478 
L 277.294737 190.154733 
L 274.351769 190.154733 
z
" style="fill:#ff0000;"/>
   </g>
   <g id="patch_73">
    <path clip-path="url(#p4ac1b3026a)" d="M 277.294737 191.507478 
L 280.237705 191.507478 
L 280.237705 190.154733 
L 277.294737 190.154733 
z
" style="fill:#ff0000;"/>
   </g>
   <g id="patch_74">
    <path clip-path="url(#p4ac1b3026a)" d="M 280.237705 191.507478 
L 283.180673 191.507478 
L 283.180673 191.507478 
L 280.237705 191.507478 
z
" style="fill:#ff0000;"/>
   </g>
   <g id="patch_75">
    <path clip-path="url(#p4ac1b3026a)" d="M 283.180673 191.507478 
L 286.123641 191.507478 
L 286.123641 190.154733 
L 283.180673 190.154733 
z
" style="fill:#ff0000;"/>
   </g>
   <g id="patch_76">
    <path clip-path="url(#p4ac1b3026a)" d="M 286.123641 191.507478 
L 289.066609 191.507478 
L 289.066609 191.507478 
L 286.123641 191.507478 
z
" style="fill:#ff0000;"/>
   </g>
   <g id="patch_77">
    <path clip-path="url(#p4ac1b3026a)" d="M 289.066609 191.507478 
L 292.009577 191.507478 
L 292.009577 188.801988 
L 289.066609 188.801988 
z
" style="fill:#ff0000;"/>
   </g>
   <g id="patch_78">
    <path clip-path="url(#p4ac1b3026a)" d="M 292.009577 191.507478 
L 294.952545 191.507478 
L 294.952545 187.449244 
L 292.009577 187.449244 
z
" style="fill:#ff0000;"/>
   </g>
   <g id="patch_79">
    <path clip-path="url(#p4ac1b3026a)" d="M 294.952545 191.507478 
L 297.895513 191.507478 
L 297.895513 188.801988 
L 294.952545 188.801988 
z
" style="fill:#ff0000;"/>
   </g>
   <g id="patch_80">
    <path clip-path="url(#p4ac1b3026a)" d="M 297.895513 191.507478 
L 300.838481 191.507478 
L 300.838481 190.154733 
L 297.895513 190.154733 
z
" style="fill:#ff0000;"/>
   </g>
   <g id="patch_81">
    <path clip-path="url(#p4ac1b3026a)" d="M 300.838481 191.507478 
L 303.781449 191.507478 
L 303.781449 191.507478 
L 300.838481 191.507478 
z
" style="fill:#ff0000;"/>
   </g>
   <g id="patch_82">
    <path clip-path="url(#p4ac1b3026a)" d="M 303.781449 191.507478 
L 306.724417 191.507478 
L 306.724417 190.154733 
L 303.781449 190.154733 
z
" style="fill:#ff0000;"/>
   </g>
   <g id="patch_83">
    <path clip-path="url(#p4ac1b3026a)" d="M 306.724417 191.507478 
L 309.667385 191.507478 
L 309.667385 187.449244 
L 306.724417 187.449244 
z
" style="fill:#ff0000;"/>
   </g>
   <g id="patch_84">
    <path clip-path="url(#p4ac1b3026a)" d="M 309.667385 191.507478 
L 312.610353 191.507478 
L 312.610353 190.154733 
L 309.667385 190.154733 
z
" style="fill:#ff0000;"/>
   </g>
   <g id="patch_85">
    <path clip-path="url(#p4ac1b3026a)" d="M 312.610353 191.507478 
L 315.553321 191.507478 
L 315.553321 184.743754 
L 312.610353 184.743754 
z
" style="fill:#ff0000;"/>
   </g>
   <g id="patch_86">
    <path clip-path="url(#p4ac1b3026a)" d="M 315.553321 191.507478 
L 318.496289 191.507478 
L 318.496289 188.801988 
L 315.553321 188.801988 
z
" style="fill:#ff0000;"/>
   </g>
   <g id="patch_87">
    <path clip-path="url(#p4ac1b3026a)" d="M 138.843993 191.507478 
L 141.786961 191.507478 
L 141.786961 173.921796 
L 138.843993 173.921796 
z
" style="fill:#ffa500;"/>
   </g>
   <g id="patch_88">
    <path clip-path="url(#p4ac1b3026a)" d="M 141.786961 191.507478 
L 144.729929 191.507478 
L 144.729929 182.038265 
L 141.786961 182.038265 
z
" style="fill:#ffa500;"/>
   </g>
   <g id="patch_89">
    <path clip-path="url(#p4ac1b3026a)" d="M 144.729929 191.507478 
L 147.672897 191.507478 
L 147.672897 182.038265 
L 144.729929 182.038265 
z
" style="fill:#ffa500;"/>
   </g>
   <g id="patch_90">
    <path clip-path="url(#p4ac1b3026a)" d="M 147.672897 191.507478 
L 150.615865 191.507478 
L 150.615865 180.68552 
L 147.672897 180.68552 
z
" style="fill:#ffa500;"/>
   </g>
   <g id="patch_91">
    <path clip-path="url(#p4ac1b3026a)" d="M 150.615865 191.507478 
L 153.558833 191.507478 
L 153.558833 188.801988 
L 150.615865 188.801988 
z
" style="fill:#ffa500;"/>
   </g>
   <g id="patch_92">
    <path clip-path="url(#p4ac1b3026a)" d="M 153.558833 191.507478 
L 156.501801 191.507478 
L 156.501801 188.801988 
L 153.558833 188.801988 
z
" style="fill:#ffa500;"/>
   </g>
   <g id="patch_93">
    <path clip-path="url(#p4ac1b3026a)" d="M 156.501801 191.507478 
L 159.444769 191.507478 
L 159.444769 190.154733 
L 156.501801 190.154733 
z
" style="fill:#ffa500;"/>
   </g>
   <g id="matplotlib.axis_1">
    <g id="xtick_1">
     <g id="line2d_1">
      <defs>
       <path d="M 0 0 
L 0 3.5 
" id="ma0fd18097c" style="stroke:#000000;stroke-width:0.8;"/>
      </defs>
      <g>
       <use style="stroke:#000000;stroke-width:0.8;" x="49.836361" xlink:href="#ma0fd18097c" y="191.507478"/>
      </g>
     </g>
     <g id="text_1">
      <!-- 0 -->
      <defs>
       <path d="M 31.78125 66.40625 
Q 24.171875 66.40625 20.328125 58.90625 
Q 16.5 51.421875 16.5 36.375 
Q 16.5 21.390625 20.328125 13.890625 
Q 24.171875 6.390625 31.78125 6.390625 
Q 39.453125 6.390625 43.28125 13.890625 
Q 47.125 21.390625 47.125 36.375 
Q 47.125 51.421875 43.28125 58.90625 
Q 39.453125 66.40625 31.78125 66.40625 
z
M 31.78125 74.21875 
Q 44.046875 74.21875 50.515625 64.515625 
Q 56.984375 54.828125 56.984375 36.375 
Q 56.984375 17.96875 50.515625 8.265625 
Q 44.046875 -1.421875 31.78125 -1.421875 
Q 19.53125 -1.421875 13.0625 8.265625 
Q 6.59375 17.96875 6.59375 36.375 
Q 6.59375 54.828125 13.0625 64.515625 
Q 19.53125 74.21875 31.78125 74.21875 
z
" id="DejaVuSans-48"/>
      </defs>
      <g transform="translate(46.655111 206.105915)scale(0.1 -0.1)">
       <use xlink:href="#DejaVuSans-48"/>
      </g>
     </g>
    </g>
    <g id="xtick_2">
     <g id="line2d_2">
      <g>
       <use style="stroke:#000000;stroke-width:0.8;" x="108.695721" xlink:href="#ma0fd18097c" y="191.507478"/>
      </g>
     </g>
     <g id="text_2">
      <!-- 1 -->
      <defs>
       <path d="M 12.40625 8.296875 
L 28.515625 8.296875 
L 28.515625 63.921875 
L 10.984375 60.40625 
L 10.984375 69.390625 
L 28.421875 72.90625 
L 38.28125 72.90625 
L 38.28125 8.296875 
L 54.390625 8.296875 
L 54.390625 0 
L 12.40625 0 
z
" id="DejaVuSans-49"/>
      </defs>
      <g transform="translate(105.514471 206.105915)scale(0.1 -0.1)">
       <use xlink:href="#DejaVuSans-49"/>
      </g>
     </g>
    </g>
    <g id="xtick_3">
     <g id="line2d_3">
      <g>
       <use style="stroke:#000000;stroke-width:0.8;" x="167.555081" xlink:href="#ma0fd18097c" y="191.507478"/>
      </g>
     </g>
     <g id="text_3">
      <!-- 2 -->
      <defs>
       <path d="M 19.1875 8.296875 
L 53.609375 8.296875 
L 53.609375 0 
L 7.328125 0 
L 7.328125 8.296875 
Q 12.9375 14.109375 22.625 23.890625 
Q 32.328125 33.6875 34.8125 36.53125 
Q 39.546875 41.84375 41.421875 45.53125 
Q 43.3125 49.21875 43.3125 52.78125 
Q 43.3125 58.59375 39.234375 62.25 
Q 35.15625 65.921875 28.609375 65.921875 
Q 23.96875 65.921875 18.8125 64.3125 
Q 13.671875 62.703125 7.8125 59.421875 
L 7.8125 69.390625 
Q 13.765625 71.78125 18.9375 73 
Q 24.125 74.21875 28.421875 74.21875 
Q 39.75 74.21875 46.484375 68.546875 
Q 53.21875 62.890625 53.21875 53.421875 
Q 53.21875 48.921875 51.53125 44.890625 
Q 49.859375 40.875 45.40625 35.40625 
Q 44.1875 33.984375 37.640625 27.21875 
Q 31.109375 20.453125 19.1875 8.296875 
z
" id="DejaVuSans-50"/>
      </defs>
      <g transform="translate(164.373831 206.105915)scale(0.1 -0.1)">
       <use xlink:href="#DejaVuSans-50"/>
      </g>
     </g>
    </g>
    <g id="xtick_4">
     <g id="line2d_4">
      <g>
       <use style="stroke:#000000;stroke-width:0.8;" x="226.41444" xlink:href="#ma0fd18097c" y="191.507478"/>
      </g>
     </g>
     <g id="text_4">
      <!-- 3 -->
      <defs>
       <path d="M 40.578125 39.3125 
Q 47.65625 37.796875 51.625 33 
Q 55.609375 28.21875 55.609375 21.1875 
Q 55.609375 10.40625 48.1875 4.484375 
Q 40.765625 -1.421875 27.09375 -1.421875 
Q 22.515625 -1.421875 17.65625 -0.515625 
Q 12.796875 0.390625 7.625 2.203125 
L 7.625 11.71875 
Q 11.71875 9.328125 16.59375 8.109375 
Q 21.484375 6.890625 26.8125 6.890625 
Q 36.078125 6.890625 40.9375 10.546875 
Q 45.796875 14.203125 45.796875 21.1875 
Q 45.796875 27.640625 41.28125 31.265625 
Q 36.765625 34.90625 28.71875 34.90625 
L 20.21875 34.90625 
L 20.21875 43.015625 
L 29.109375 43.015625 
Q 36.375 43.015625 40.234375 45.921875 
Q 44.09375 48.828125 44.09375 54.296875 
Q 44.09375 59.90625 40.109375 62.90625 
Q 36.140625 65.921875 28.71875 65.921875 
Q 24.65625 65.921875 20.015625 65.03125 
Q 15.375 64.15625 9.8125 62.3125 
L 9.8125 71.09375 
Q 15.4375 72.65625 20.34375 73.4375 
Q 25.25 74.21875 29.59375 74.21875 
Q 40.828125 74.21875 47.359375 69.109375 
Q 53.90625 64.015625 53.90625 55.328125 
Q 53.90625 49.265625 50.4375 45.09375 
Q 46.96875 40.921875 40.578125 39.3125 
z
" id="DejaVuSans-51"/>
      </defs>
      <g transform="translate(223.23319 206.105915)scale(0.1 -0.1)">
       <use xlink:href="#DejaVuSans-51"/>
      </g>
     </g>
    </g>
    <g id="xtick_5">
     <g id="line2d_5">
      <g>
       <use style="stroke:#000000;stroke-width:0.8;" x="285.2738" xlink:href="#ma0fd18097c" y="191.507478"/>
      </g>
     </g>
     <g id="text_5">
      <!-- 4 -->
      <defs>
       <path d="M 37.796875 64.3125 
L 12.890625 25.390625 
L 37.796875 25.390625 
z
M 35.203125 72.90625 
L 47.609375 72.90625 
L 47.609375 25.390625 
L 58.015625 25.390625 
L 58.015625 17.1875 
L 47.609375 17.1875 
L 47.609375 0 
L 37.796875 0 
L 37.796875 17.1875 
L 4.890625 17.1875 
L 4.890625 26.703125 
z
" id="DejaVuSans-52"/>
      </defs>
      <g transform="translate(282.09255 206.105915)scale(0.1 -0.1)">
       <use xlink:href="#DejaVuSans-52"/>
      </g>
     </g>
    </g>
    <g id="text_6">
     <!-- log(RFU) -->
     <defs>
      <path d="M 9.421875 75.984375 
L 18.40625 75.984375 
L 18.40625 0 
L 9.421875 0 
z
" id="DejaVuSans-108"/>
      <path d="M 30.609375 48.390625 
Q 23.390625 48.390625 19.1875 42.75 
Q 14.984375 37.109375 14.984375 27.296875 
Q 14.984375 17.484375 19.15625 11.84375 
Q 23.34375 6.203125 30.609375 6.203125 
Q 37.796875 6.203125 41.984375 11.859375 
Q 46.1875 17.53125 46.1875 27.296875 
Q 46.1875 37.015625 41.984375 42.703125 
Q 37.796875 48.390625 30.609375 48.390625 
z
M 30.609375 56 
Q 42.328125 56 49.015625 48.375 
Q 55.71875 40.765625 55.71875 27.296875 
Q 55.71875 13.875 49.015625 6.21875 
Q 42.328125 -1.421875 30.609375 -1.421875 
Q 18.84375 -1.421875 12.171875 6.21875 
Q 5.515625 13.875 5.515625 27.296875 
Q 5.515625 40.765625 12.171875 48.375 
Q 18.84375 56 30.609375 56 
z
" id="DejaVuSans-111"/>
      <path d="M 45.40625 27.984375 
Q 45.40625 37.75 41.375 43.109375 
Q 37.359375 48.484375 30.078125 48.484375 
Q 22.859375 48.484375 18.828125 43.109375 
Q 14.796875 37.75 14.796875 27.984375 
Q 14.796875 18.265625 18.828125 12.890625 
Q 22.859375 7.515625 30.078125 7.515625 
Q 37.359375 7.515625 41.375 12.890625 
Q 45.40625 18.265625 45.40625 27.984375 
z
M 54.390625 6.78125 
Q 54.390625 -7.171875 48.1875 -13.984375 
Q 42 -20.796875 29.203125 -20.796875 
Q 24.46875 -20.796875 20.265625 -20.09375 
Q 16.0625 -19.390625 12.109375 -17.921875 
L 12.109375 -9.1875 
Q 16.0625 -11.328125 19.921875 -12.34375 
Q 23.78125 -13.375 27.78125 -13.375 
Q 36.625 -13.375 41.015625 -8.765625 
Q 45.40625 -4.15625 45.40625 5.171875 
L 45.40625 9.625 
Q 42.625 4.78125 38.28125 2.390625 
Q 33.9375 0 27.875 0 
Q 17.828125 0 11.671875 7.65625 
Q 5.515625 15.328125 5.515625 27.984375 
Q 5.515625 40.671875 11.671875 48.328125 
Q 17.828125 56 27.875 56 
Q 33.9375 56 38.28125 53.609375 
Q 42.625 51.21875 45.40625 46.390625 
L 45.40625 54.6875 
L 54.390625 54.6875 
z
" id="DejaVuSans-103"/>
      <path d="M 31 75.875 
Q 24.46875 64.65625 21.28125 53.65625 
Q 18.109375 42.671875 18.109375 31.390625 
Q 18.109375 20.125 21.3125 9.0625 
Q 24.515625 -2 31 -13.1875 
L 23.1875 -13.1875 
Q 15.875 -1.703125 12.234375 9.375 
Q 8.59375 20.453125 8.59375 31.390625 
Q 8.59375 42.28125 12.203125 53.3125 
Q 15.828125 64.359375 23.1875 75.875 
z
" id="DejaVuSans-40"/>
      <path d="M 44.390625 34.1875 
Q 47.5625 33.109375 50.5625 29.59375 
Q 53.5625 26.078125 56.59375 19.921875 
L 66.609375 0 
L 56 0 
L 46.6875 18.703125 
Q 43.0625 26.03125 39.671875 28.421875 
Q 36.28125 30.8125 30.421875 30.8125 
L 19.671875 30.8125 
L 19.671875 0 
L 9.8125 0 
L 9.8125 72.90625 
L 32.078125 72.90625 
Q 44.578125 72.90625 50.734375 67.671875 
Q 56.890625 62.453125 56.890625 51.90625 
Q 56.890625 45.015625 53.6875 40.46875 
Q 50.484375 35.9375 44.390625 34.1875 
z
M 19.671875 64.796875 
L 19.671875 38.921875 
L 32.078125 38.921875 
Q 39.203125 38.921875 42.84375 42.21875 
Q 46.484375 45.515625 46.484375 51.90625 
Q 46.484375 58.296875 42.84375 61.546875 
Q 39.203125 64.796875 32.078125 64.796875 
z
" id="DejaVuSans-82"/>
      <path d="M 9.8125 72.90625 
L 51.703125 72.90625 
L 51.703125 64.59375 
L 19.671875 64.59375 
L 19.671875 43.109375 
L 48.578125 43.109375 
L 48.578125 34.8125 
L 19.671875 34.8125 
L 19.671875 0 
L 9.8125 0 
z
" id="DejaVuSans-70"/>
      <path d="M 8.6875 72.90625 
L 18.609375 72.90625 
L 18.609375 28.609375 
Q 18.609375 16.890625 22.84375 11.734375 
Q 27.09375 6.59375 36.625 6.59375 
Q 46.09375 6.59375 50.34375 11.734375 
Q 54.59375 16.890625 54.59375 28.609375 
L 54.59375 72.90625 
L 64.5 72.90625 
L 64.5 27.390625 
Q 64.5 13.140625 57.4375 5.859375 
Q 50.390625 -1.421875 36.625 -1.421875 
Q 22.796875 -1.421875 15.734375 5.859375 
Q 8.6875 13.140625 8.6875 27.390625 
z
" id="DejaVuSans-85"/>
      <path d="M 8.015625 75.875 
L 15.828125 75.875 
Q 23.140625 64.359375 26.78125 53.3125 
Q 30.421875 42.28125 30.421875 31.390625 
Q 30.421875 20.453125 26.78125 9.375 
Q 23.140625 -1.703125 15.828125 -13.1875 
L 8.015625 -13.1875 
Q 14.5 -2 17.703125 9.0625 
Q 20.90625 20.125 20.90625 31.390625 
Q 20.90625 42.671875 17.703125 53.65625 
Q 14.5 64.65625 8.015625 75.875 
z
" id="DejaVuSans-41"/>
     </defs>
     <g transform="translate(162.632731 219.78404)scale(0.1 -0.1)">
      <use xlink:href="#DejaVuSans-108"/>
      <use x="27.783203" xlink:href="#DejaVuSans-111"/>
      <use x="88.964844" xlink:href="#DejaVuSans-103"/>
      <use x="152.441406" xlink:href="#DejaVuSans-40"/>
      <use x="191.455078" xlink:href="#DejaVuSans-82"/>
      <use x="260.9375" xlink:href="#DejaVuSans-70"/>
      <use x="318.457031" xlink:href="#DejaVuSans-85"/>
      <use x="391.650391" xlink:href="#DejaVuSans-41"/>
     </g>
    </g>
   </g>
   <g id="matplotlib.axis_2">
    <g id="ytick_1">
     <g id="line2d_6">
      <defs>
       <path d="M 0 0 
L -3.5 0 
" id="m12980a141a" style="stroke:#000000;stroke-width:0.8;"/>
      </defs>
      <g>
       <use style="stroke:#000000;stroke-width:0.8;" x="36.403365" xlink:href="#m12980a141a" y="191.507478"/>
      </g>
     </g>
     <g id="text_7">
      <!-- 0 -->
      <g transform="translate(23.040865 195.306697)scale(0.1 -0.1)">
       <use xlink:href="#DejaVuSans-48"/>
      </g>
     </g>
    </g>
    <g id="ytick_2">
     <g id="line2d_7">
      <g>
       <use style="stroke:#000000;stroke-width:0.8;" x="36.403365" xlink:href="#m12980a141a" y="164.452583"/>
      </g>
     </g>
     <g id="text_8">
      <!-- 20 -->
      <g transform="translate(16.678365 168.251802)scale(0.1 -0.1)">
       <use xlink:href="#DejaVuSans-50"/>
       <use x="63.623047" xlink:href="#DejaVuSans-48"/>
      </g>
     </g>
    </g>
    <g id="ytick_3">
     <g id="line2d_8">
      <g>
       <use style="stroke:#000000;stroke-width:0.8;" x="36.403365" xlink:href="#m12980a141a" y="137.397688"/>
      </g>
     </g>
     <g id="text_9">
      <!-- 40 -->
      <g transform="translate(16.678365 141.196906)scale(0.1 -0.1)">
       <use xlink:href="#DejaVuSans-52"/>
       <use x="63.623047" xlink:href="#DejaVuSans-48"/>
      </g>
     </g>
    </g>
    <g id="ytick_4">
     <g id="line2d_9">
      <g>
       <use style="stroke:#000000;stroke-width:0.8;" x="36.403365" xlink:href="#m12980a141a" y="110.342792"/>
      </g>
     </g>
     <g id="text_10">
      <!-- 60 -->
      <defs>
       <path d="M 33.015625 40.375 
Q 26.375 40.375 22.484375 35.828125 
Q 18.609375 31.296875 18.609375 23.390625 
Q 18.609375 15.53125 22.484375 10.953125 
Q 26.375 6.390625 33.015625 6.390625 
Q 39.65625 6.390625 43.53125 10.953125 
Q 47.40625 15.53125 47.40625 23.390625 
Q 47.40625 31.296875 43.53125 35.828125 
Q 39.65625 40.375 33.015625 40.375 
z
M 52.59375 71.296875 
L 52.59375 62.3125 
Q 48.875 64.0625 45.09375 64.984375 
Q 41.3125 65.921875 37.59375 65.921875 
Q 27.828125 65.921875 22.671875 59.328125 
Q 17.53125 52.734375 16.796875 39.40625 
Q 19.671875 43.65625 24.015625 45.921875 
Q 28.375 48.1875 33.59375 48.1875 
Q 44.578125 48.1875 50.953125 41.515625 
Q 57.328125 34.859375 57.328125 23.390625 
Q 57.328125 12.15625 50.6875 5.359375 
Q 44.046875 -1.421875 33.015625 -1.421875 
Q 20.359375 -1.421875 13.671875 8.265625 
Q 6.984375 17.96875 6.984375 36.375 
Q 6.984375 53.65625 15.1875 63.9375 
Q 23.390625 74.21875 37.203125 74.21875 
Q 40.921875 74.21875 44.703125 73.484375 
Q 48.484375 72.75 52.59375 71.296875 
z
" id="DejaVuSans-54"/>
      </defs>
      <g transform="translate(16.678365 114.142011)scale(0.1 -0.1)">
       <use xlink:href="#DejaVuSans-54"/>
       <use x="63.623047" xlink:href="#DejaVuSans-48"/>
      </g>
     </g>
    </g>
    <g id="ytick_5">
     <g id="line2d_10">
      <g>
       <use style="stroke:#000000;stroke-width:0.8;" x="36.403365" xlink:href="#m12980a141a" y="83.287897"/>
      </g>
     </g>
     <g id="text_11">
      <!-- 80 -->
      <defs>
       <path d="M 31.78125 34.625 
Q 24.75 34.625 20.71875 30.859375 
Q 16.703125 27.09375 16.703125 20.515625 
Q 16.703125 13.921875 20.71875 10.15625 
Q 24.75 6.390625 31.78125 6.390625 
Q 38.8125 6.390625 42.859375 10.171875 
Q 46.921875 13.96875 46.921875 20.515625 
Q 46.921875 27.09375 42.890625 30.859375 
Q 38.875 34.625 31.78125 34.625 
z
M 21.921875 38.8125 
Q 15.578125 40.375 12.03125 44.71875 
Q 8.5 49.078125 8.5 55.328125 
Q 8.5 64.0625 14.71875 69.140625 
Q 20.953125 74.21875 31.78125 74.21875 
Q 42.671875 74.21875 48.875 69.140625 
Q 55.078125 64.0625 55.078125 55.328125 
Q 55.078125 49.078125 51.53125 44.71875 
Q 48 40.375 41.703125 38.8125 
Q 48.828125 37.15625 52.796875 32.3125 
Q 56.78125 27.484375 56.78125 20.515625 
Q 56.78125 9.90625 50.3125 4.234375 
Q 43.84375 -1.421875 31.78125 -1.421875 
Q 19.734375 -1.421875 13.25 4.234375 
Q 6.78125 9.90625 6.78125 20.515625 
Q 6.78125 27.484375 10.78125 32.3125 
Q 14.796875 37.15625 21.921875 38.8125 
z
M 18.3125 54.390625 
Q 18.3125 48.734375 21.84375 45.5625 
Q 25.390625 42.390625 31.78125 42.390625 
Q 38.140625 42.390625 41.71875 45.5625 
Q 45.3125 48.734375 45.3125 54.390625 
Q 45.3125 60.0625 41.71875 63.234375 
Q 38.140625 66.40625 31.78125 66.40625 
Q 25.390625 66.40625 21.84375 63.234375 
Q 18.3125 60.0625 18.3125 54.390625 
z
" id="DejaVuSans-56"/>
      </defs>
      <g transform="translate(16.678365 87.087116)scale(0.1 -0.1)">
       <use xlink:href="#DejaVuSans-56"/>
       <use x="63.623047" xlink:href="#DejaVuSans-48"/>
      </g>
     </g>
    </g>
    <g id="text_12">
     <!-- Counts -->
     <defs>
      <path d="M 64.40625 67.28125 
L 64.40625 56.890625 
Q 59.421875 61.53125 53.78125 63.8125 
Q 48.140625 66.109375 41.796875 66.109375 
Q 29.296875 66.109375 22.65625 58.46875 
Q 16.015625 50.828125 16.015625 36.375 
Q 16.015625 21.96875 22.65625 14.328125 
Q 29.296875 6.6875 41.796875 6.6875 
Q 48.140625 6.6875 53.78125 8.984375 
Q 59.421875 11.28125 64.40625 15.921875 
L 64.40625 5.609375 
Q 59.234375 2.09375 53.4375 0.328125 
Q 47.65625 -1.421875 41.21875 -1.421875 
Q 24.65625 -1.421875 15.125 8.703125 
Q 5.609375 18.84375 5.609375 36.375 
Q 5.609375 53.953125 15.125 64.078125 
Q 24.65625 74.21875 41.21875 74.21875 
Q 47.75 74.21875 53.53125 72.484375 
Q 59.328125 70.75 64.40625 67.28125 
z
" id="DejaVuSans-67"/>
      <path d="M 8.5 21.578125 
L 8.5 54.6875 
L 17.484375 54.6875 
L 17.484375 21.921875 
Q 17.484375 14.15625 20.5 10.265625 
Q 23.53125 6.390625 29.59375 6.390625 
Q 36.859375 6.390625 41.078125 11.03125 
Q 45.3125 15.671875 45.3125 23.6875 
L 45.3125 54.6875 
L 54.296875 54.6875 
L 54.296875 0 
L 45.3125 0 
L 45.3125 8.40625 
Q 42.046875 3.421875 37.71875 1 
Q 33.40625 -1.421875 27.6875 -1.421875 
Q 18.265625 -1.421875 13.375 4.4375 
Q 8.5 10.296875 8.5 21.578125 
z
M 31.109375 56 
z
" id="DejaVuSans-117"/>
      <path d="M 54.890625 33.015625 
L 54.890625 0 
L 45.90625 0 
L 45.90625 32.71875 
Q 45.90625 40.484375 42.875 44.328125 
Q 39.84375 48.1875 33.796875 48.1875 
Q 26.515625 48.1875 22.3125 43.546875 
Q 18.109375 38.921875 18.109375 30.90625 
L 18.109375 0 
L 9.078125 0 
L 9.078125 54.6875 
L 18.109375 54.6875 
L 18.109375 46.1875 
Q 21.34375 51.125 25.703125 53.5625 
Q 30.078125 56 35.796875 56 
Q 45.21875 56 50.046875 50.171875 
Q 54.890625 44.34375 54.890625 33.015625 
z
" id="DejaVuSans-110"/>
      <path d="M 18.3125 70.21875 
L 18.3125 54.6875 
L 36.8125 54.6875 
L 36.8125 47.703125 
L 18.3125 47.703125 
L 18.3125 18.015625 
Q 18.3125 11.328125 20.140625 9.421875 
Q 21.96875 7.515625 27.59375 7.515625 
L 36.8125 7.515625 
L 36.8125 0 
L 27.59375 0 
Q 17.1875 0 13.234375 3.875 
Q 9.28125 7.765625 9.28125 18.015625 
L 9.28125 47.703125 
L 2.6875 47.703125 
L 2.6875 54.6875 
L 9.28125 54.6875 
L 9.28125 70.21875 
z
" id="DejaVuSans-116"/>
      <path d="M 44.28125 53.078125 
L 44.28125 44.578125 
Q 40.484375 46.53125 36.375 47.5 
Q 32.28125 48.484375 27.875 48.484375 
Q 21.1875 48.484375 17.84375 46.4375 
Q 14.5 44.390625 14.5 40.28125 
Q 14.5 37.15625 16.890625 35.375 
Q 19.28125 33.59375 26.515625 31.984375 
L 29.59375 31.296875 
Q 39.15625 29.25 43.1875 25.515625 
Q 47.21875 21.78125 47.21875 15.09375 
Q 47.21875 7.46875 41.1875 3.015625 
Q 35.15625 -1.421875 24.609375 -1.421875 
Q 20.21875 -1.421875 15.453125 -0.5625 
Q 10.6875 0.296875 5.421875 2 
L 5.421875 11.28125 
Q 10.40625 8.6875 15.234375 7.390625 
Q 20.0625 6.109375 24.8125 6.109375 
Q 31.15625 6.109375 34.5625 8.28125 
Q 37.984375 10.453125 37.984375 14.40625 
Q 37.984375 18.0625 35.515625 20.015625 
Q 33.0625 21.96875 24.703125 23.78125 
L 21.578125 24.515625 
Q 13.234375 26.265625 9.515625 29.90625 
Q 5.8125 33.546875 5.8125 39.890625 
Q 5.8125 47.609375 11.28125 51.796875 
Q 16.75 56 26.8125 56 
Q 31.78125 56 36.171875 55.265625 
Q 40.578125 54.546875 44.28125 53.078125 
z
" id="DejaVuSans-115"/>
     </defs>
     <g transform="translate(10.598677 147.884177)rotate(-90)scale(0.1 -0.1)">
      <use xlink:href="#DejaVuSans-67"/>
      <use x="69.824219" xlink:href="#DejaVuSans-111"/>
      <use x="131.005859" xlink:href="#DejaVuSans-117"/>
      <use x="194.384766" xlink:href="#DejaVuSans-110"/>
      <use x="257.763672" xlink:href="#DejaVuSans-116"/>
      <use x="296.972656" xlink:href="#DejaVuSans-115"/>
     </g>
    </g>
   </g>
   <g id="patch_94">
    <path d="M 36.403365 191.507478 
L 36.403365 69.354626 
" style="fill:none;stroke:#000000;stroke-linecap:square;stroke-linejoin:miter;stroke-width:0.8;"/>
   </g>
   <g id="patch_95">
    <path d="M 331.929285 191.507478 
L 331.929285 69.354626 
" style="fill:none;stroke:#000000;stroke-linecap:square;stroke-linejoin:miter;stroke-width:0.8;"/>
   </g>
   <g id="patch_96">
    <path d="M 36.403365 191.507478 
L 331.929285 191.507478 
" style="fill:none;stroke:#000000;stroke-linecap:square;stroke-linejoin:miter;stroke-width:0.8;"/>
   </g>
   <g id="patch_97">
    <path d="M 36.403365 69.354626 
L 331.929285 69.354626 
" style="fill:none;stroke:#000000;stroke-linecap:square;stroke-linejoin:miter;stroke-width:0.8;"/>
   </g>
  </g>
  <g id="axes_2">
   <g id="patch_98">
    <path d="M 36.403365 353.507885 
L 230.652485 353.507885 
L 230.652485 231.355033 
L 36.403365 231.355033 
z
" style="fill:#ffffff;"/>
   </g>
   <g id="patch_99">
    <path clip-path="url(#pfe0d2b7a90)" d="M 36.403365 347.955483 
L 109.419904 347.955483 
L 109.419904 298.600795 
L 36.403365 298.600795 
z
" style="fill:#1f77b4;"/>
   </g>
   <g id="patch_100">
    <path clip-path="url(#pfe0d2b7a90)" d="M 36.403365 286.262123 
L 221.402527 286.262123 
L 221.402527 236.907435 
L 36.403365 236.907435 
z
" style="fill:#1f77b4;"/>
   </g>
   <g id="matplotlib.axis_3">
    <g id="xtick_6">
     <g id="line2d_11">
      <g>
       <use style="stroke:#000000;stroke-width:0.8;" x="36.403365" xlink:href="#ma0fd18097c" y="353.507885"/>
      </g>
     </g>
     <g id="text_13">
      <!-- 0 -->
      <g transform="translate(33.222115 368.106323)scale(0.1 -0.1)">
       <use xlink:href="#DejaVuSans-48"/>
      </g>
     </g>
    </g>
    <g id="xtick_7">
     <g id="line2d_12">
      <g>
       <use style="stroke:#000000;stroke-width:0.8;" x="78.913552" xlink:href="#ma0fd18097c" y="353.507885"/>
      </g>
     </g>
     <g id="text_14">
      <!-- 2 -->
      <g transform="translate(75.732302 368.106323)scale(0.1 -0.1)">
       <use xlink:href="#DejaVuSans-50"/>
      </g>
     </g>
    </g>
    <g id="xtick_8">
     <g id="line2d_13">
      <g>
       <use style="stroke:#000000;stroke-width:0.8;" x="121.423739" xlink:href="#ma0fd18097c" y="353.507885"/>
      </g>
     </g>
     <g id="text_15">
      <!-- 4 -->
      <g transform="translate(118.242489 368.106323)scale(0.1 -0.1)">
       <use xlink:href="#DejaVuSans-52"/>
      </g>
     </g>
    </g>
    <g id="xtick_9">
     <g id="line2d_14">
      <g>
       <use style="stroke:#000000;stroke-width:0.8;" x="163.933925" xlink:href="#ma0fd18097c" y="353.507885"/>
      </g>
     </g>
     <g id="text_16">
      <!-- 6 -->
      <g transform="translate(160.752675 368.106323)scale(0.1 -0.1)">
       <use xlink:href="#DejaVuSans-54"/>
      </g>
     </g>
    </g>
    <g id="xtick_10">
     <g id="line2d_15">
      <g>
       <use style="stroke:#000000;stroke-width:0.8;" x="206.444112" xlink:href="#ma0fd18097c" y="353.507885"/>
      </g>
     </g>
     <g id="text_17">
      <!-- 8 -->
      <g transform="translate(203.262862 368.106323)scale(0.1 -0.1)">
       <use xlink:href="#DejaVuSans-56"/>
      </g>
     </g>
    </g>
    <g id="text_18">
     <!-- Model Coefficient -->
     <defs>
      <path d="M 9.8125 72.90625 
L 24.515625 72.90625 
L 43.109375 23.296875 
L 61.8125 72.90625 
L 76.515625 72.90625 
L 76.515625 0 
L 66.890625 0 
L 66.890625 64.015625 
L 48.09375 14.015625 
L 38.1875 14.015625 
L 19.390625 64.015625 
L 19.390625 0 
L 9.8125 0 
z
" id="DejaVuSans-77"/>
      <path d="M 45.40625 46.390625 
L 45.40625 75.984375 
L 54.390625 75.984375 
L 54.390625 0 
L 45.40625 0 
L 45.40625 8.203125 
Q 42.578125 3.328125 38.25 0.953125 
Q 33.9375 -1.421875 27.875 -1.421875 
Q 17.96875 -1.421875 11.734375 6.484375 
Q 5.515625 14.40625 5.515625 27.296875 
Q 5.515625 40.1875 11.734375 48.09375 
Q 17.96875 56 27.875 56 
Q 33.9375 56 38.25 53.625 
Q 42.578125 51.265625 45.40625 46.390625 
z
M 14.796875 27.296875 
Q 14.796875 17.390625 18.875 11.75 
Q 22.953125 6.109375 30.078125 6.109375 
Q 37.203125 6.109375 41.296875 11.75 
Q 45.40625 17.390625 45.40625 27.296875 
Q 45.40625 37.203125 41.296875 42.84375 
Q 37.203125 48.484375 30.078125 48.484375 
Q 22.953125 48.484375 18.875 42.84375 
Q 14.796875 37.203125 14.796875 27.296875 
z
" id="DejaVuSans-100"/>
      <path d="M 56.203125 29.59375 
L 56.203125 25.203125 
L 14.890625 25.203125 
Q 15.484375 15.921875 20.484375 11.0625 
Q 25.484375 6.203125 34.421875 6.203125 
Q 39.59375 6.203125 44.453125 7.46875 
Q 49.3125 8.734375 54.109375 11.28125 
L 54.109375 2.78125 
Q 49.265625 0.734375 44.1875 -0.34375 
Q 39.109375 -1.421875 33.890625 -1.421875 
Q 20.796875 -1.421875 13.15625 6.1875 
Q 5.515625 13.8125 5.515625 26.8125 
Q 5.515625 40.234375 12.765625 48.109375 
Q 20.015625 56 32.328125 56 
Q 43.359375 56 49.78125 48.890625 
Q 56.203125 41.796875 56.203125 29.59375 
z
M 47.21875 32.234375 
Q 47.125 39.59375 43.09375 43.984375 
Q 39.0625 48.390625 32.421875 48.390625 
Q 24.90625 48.390625 20.390625 44.140625 
Q 15.875 39.890625 15.1875 32.171875 
z
" id="DejaVuSans-101"/>
      <path id="DejaVuSans-32"/>
      <path d="M 37.109375 75.984375 
L 37.109375 68.5 
L 28.515625 68.5 
Q 23.6875 68.5 21.796875 66.546875 
Q 19.921875 64.59375 19.921875 59.515625 
L 19.921875 54.6875 
L 34.71875 54.6875 
L 34.71875 47.703125 
L 19.921875 47.703125 
L 19.921875 0 
L 10.890625 0 
L 10.890625 47.703125 
L 2.296875 47.703125 
L 2.296875 54.6875 
L 10.890625 54.6875 
L 10.890625 58.5 
Q 10.890625 67.625 15.140625 71.796875 
Q 19.390625 75.984375 28.609375 75.984375 
z
" id="DejaVuSans-102"/>
      <path d="M 9.421875 54.6875 
L 18.40625 54.6875 
L 18.40625 0 
L 9.421875 0 
z
M 9.421875 75.984375 
L 18.40625 75.984375 
L 18.40625 64.59375 
L 9.421875 64.59375 
z
" id="DejaVuSans-105"/>
      <path d="M 48.78125 52.59375 
L 48.78125 44.1875 
Q 44.96875 46.296875 41.140625 47.34375 
Q 37.3125 48.390625 33.40625 48.390625 
Q 24.65625 48.390625 19.8125 42.84375 
Q 14.984375 37.3125 14.984375 27.296875 
Q 14.984375 17.28125 19.8125 11.734375 
Q 24.65625 6.203125 33.40625 6.203125 
Q 37.3125 6.203125 41.140625 7.25 
Q 44.96875 8.296875 48.78125 10.40625 
L 48.78125 2.09375 
Q 45.015625 0.34375 40.984375 -0.53125 
Q 36.96875 -1.421875 32.421875 -1.421875 
Q 20.0625 -1.421875 12.78125 6.34375 
Q 5.515625 14.109375 5.515625 27.296875 
Q 5.515625 40.671875 12.859375 48.328125 
Q 20.21875 56 33.015625 56 
Q 37.15625 56 41.109375 55.140625 
Q 45.0625 54.296875 48.78125 52.59375 
z
" id="DejaVuSans-99"/>
     </defs>
     <g transform="translate(81.34855 383.304135)scale(0.12 -0.12)">
      <use xlink:href="#DejaVuSans-77"/>
      <use x="86.279297" xlink:href="#DejaVuSans-111"/>
      <use x="147.460938" xlink:href="#DejaVuSans-100"/>
      <use x="210.9375" xlink:href="#DejaVuSans-101"/>
      <use x="272.460938" xlink:href="#DejaVuSans-108"/>
      <use x="300.244141" xlink:href="#DejaVuSans-32"/>
      <use x="332.03125" xlink:href="#DejaVuSans-67"/>
      <use x="401.855469" xlink:href="#DejaVuSans-111"/>
      <use x="463.037109" xlink:href="#DejaVuSans-101"/>
      <use x="524.560547" xlink:href="#DejaVuSans-102"/>
      <use x="559.765625" xlink:href="#DejaVuSans-102"/>
      <use x="594.970703" xlink:href="#DejaVuSans-105"/>
      <use x="622.753906" xlink:href="#DejaVuSans-99"/>
      <use x="677.734375" xlink:href="#DejaVuSans-105"/>
      <use x="705.517578" xlink:href="#DejaVuSans-101"/>
      <use x="767.041016" xlink:href="#DejaVuSans-110"/>
      <use x="830.419922" xlink:href="#DejaVuSans-116"/>
     </g>
    </g>
   </g>
   <g id="matplotlib.axis_4">
    <g id="ytick_6"/>
    <g id="ytick_7"/>
    <g id="ytick_8"/>
    <g id="text_19">
     <!-- Motif -->
     <g transform="translate(22.90774 307.410834)rotate(-90)scale(0.12 -0.12)">
      <use xlink:href="#DejaVuSans-77"/>
      <use x="86.279297" xlink:href="#DejaVuSans-111"/>
      <use x="147.460938" xlink:href="#DejaVuSans-116"/>
      <use x="186.669922" xlink:href="#DejaVuSans-105"/>
      <use x="214.453125" xlink:href="#DejaVuSans-102"/>
     </g>
    </g>
   </g>
   <g id="patch_101">
    <path d="M 36.403365 353.507885 
L 36.403365 231.355033 
" style="fill:none;stroke:#000000;stroke-linecap:square;stroke-linejoin:miter;stroke-width:0.8;"/>
   </g>
   <g id="patch_102">
    <path d="M 230.652485 353.507885 
L 230.652485 231.355033 
" style="fill:none;stroke:#000000;stroke-linecap:square;stroke-linejoin:miter;stroke-width:0.8;"/>
   </g>
   <g id="patch_103">
    <path d="M 36.403365 353.507885 
L 230.652485 353.507885 
" style="fill:none;stroke:#000000;stroke-linecap:square;stroke-linejoin:miter;stroke-width:0.8;"/>
   </g>
   <g id="patch_104">
    <path d="M 36.403365 231.355033 
L 230.652485 231.355033 
" style="fill:none;stroke:#000000;stroke-linecap:square;stroke-linejoin:miter;stroke-width:0.8;"/>
   </g>
  </g>
  <g id="axes_3">
   <g id="patch_105">
    <path d="M 378.75064 353.507885 
L 572.99976 353.507885 
L 572.99976 231.355033 
L 378.75064 231.355033 
z
" style="fill:#ffffff;"/>
   </g>
   <g id="patch_106">
    <path clip-path="url(#pb2d5c82fc5)" d="M 378.75064 347.400242 
L 563.749802 347.400242 
L 563.749802 298.539102 
L 378.75064 298.539102 
z
" style="fill:#808080;"/>
   </g>
   <g id="patch_107">
    <path clip-path="url(#pb2d5c82fc5)" d="M 378.75064 286.323816 
L 563.749802 286.323816 
L 563.749802 237.462676 
L 378.75064 237.462676 
z
" style="fill:#808080;"/>
   </g>
   <g id="matplotlib.axis_5">
    <g id="xtick_11">
     <g id="line2d_16">
      <g>
       <use style="stroke:#000000;stroke-width:0.8;" x="378.75064" xlink:href="#ma0fd18097c" y="353.507885"/>
      </g>
     </g>
     <g id="text_20">
      <!-- 0.0 -->
      <defs>
       <path d="M 10.6875 12.40625 
L 21 12.40625 
L 21 0 
L 10.6875 0 
z
" id="DejaVuSans-46"/>
      </defs>
      <g transform="translate(370.799077 368.106323)scale(0.1 -0.1)">
       <use xlink:href="#DejaVuSans-48"/>
       <use x="63.623047" xlink:href="#DejaVuSans-46"/>
       <use x="95.410156" xlink:href="#DejaVuSans-48"/>
      </g>
     </g>
    </g>
    <g id="xtick_12">
     <g id="line2d_17">
      <g>
       <use style="stroke:#000000;stroke-width:0.8;" x="415.191984" xlink:href="#ma0fd18097c" y="353.507885"/>
      </g>
     </g>
     <g id="text_21">
      <!-- 0.2 -->
      <g transform="translate(407.240422 368.106323)scale(0.1 -0.1)">
       <use xlink:href="#DejaVuSans-48"/>
       <use x="63.623047" xlink:href="#DejaVuSans-46"/>
       <use x="95.410156" xlink:href="#DejaVuSans-50"/>
      </g>
     </g>
    </g>
    <g id="xtick_13">
     <g id="line2d_18">
      <g>
       <use style="stroke:#000000;stroke-width:0.8;" x="451.633329" xlink:href="#ma0fd18097c" y="353.507885"/>
      </g>
     </g>
     <g id="text_22">
      <!-- 0.4 -->
      <g transform="translate(443.681766 368.106323)scale(0.1 -0.1)">
       <use xlink:href="#DejaVuSans-48"/>
       <use x="63.623047" xlink:href="#DejaVuSans-46"/>
       <use x="95.410156" xlink:href="#DejaVuSans-52"/>
      </g>
     </g>
    </g>
    <g id="xtick_14">
     <g id="line2d_19">
      <g>
       <use style="stroke:#000000;stroke-width:0.8;" x="488.074673" xlink:href="#ma0fd18097c" y="353.507885"/>
      </g>
     </g>
     <g id="text_23">
      <!-- 0.6 -->
      <g transform="translate(480.123111 368.106323)scale(0.1 -0.1)">
       <use xlink:href="#DejaVuSans-48"/>
       <use x="63.623047" xlink:href="#DejaVuSans-46"/>
       <use x="95.410156" xlink:href="#DejaVuSans-54"/>
      </g>
     </g>
    </g>
    <g id="xtick_15">
     <g id="line2d_20">
      <g>
       <use style="stroke:#000000;stroke-width:0.8;" x="524.516017" xlink:href="#ma0fd18097c" y="353.507885"/>
      </g>
     </g>
     <g id="text_24">
      <!-- 0.8 -->
      <g transform="translate(516.564455 368.106323)scale(0.1 -0.1)">
       <use xlink:href="#DejaVuSans-48"/>
       <use x="63.623047" xlink:href="#DejaVuSans-46"/>
       <use x="95.410156" xlink:href="#DejaVuSans-56"/>
      </g>
     </g>
    </g>
    <g id="xtick_16">
     <g id="line2d_21">
      <g>
       <use style="stroke:#000000;stroke-width:0.8;" x="560.957362" xlink:href="#ma0fd18097c" y="353.507885"/>
      </g>
     </g>
     <g id="text_25">
      <!-- 1.0 -->
      <g transform="translate(553.005799 368.106323)scale(0.1 -0.1)">
       <use xlink:href="#DejaVuSans-49"/>
       <use x="63.623047" xlink:href="#DejaVuSans-46"/>
       <use x="95.410156" xlink:href="#DejaVuSans-48"/>
      </g>
     </g>
    </g>
    <g id="text_26">
     <!-- Variance Inflation Factor -->
     <defs>
      <path d="M 28.609375 0 
L 0.78125 72.90625 
L 11.078125 72.90625 
L 34.1875 11.53125 
L 57.328125 72.90625 
L 67.578125 72.90625 
L 39.796875 0 
z
" id="DejaVuSans-86"/>
      <path d="M 34.28125 27.484375 
Q 23.390625 27.484375 19.1875 25 
Q 14.984375 22.515625 14.984375 16.5 
Q 14.984375 11.71875 18.140625 8.90625 
Q 21.296875 6.109375 26.703125 6.109375 
Q 34.1875 6.109375 38.703125 11.40625 
Q 43.21875 16.703125 43.21875 25.484375 
L 43.21875 27.484375 
z
M 52.203125 31.203125 
L 52.203125 0 
L 43.21875 0 
L 43.21875 8.296875 
Q 40.140625 3.328125 35.546875 0.953125 
Q 30.953125 -1.421875 24.3125 -1.421875 
Q 15.921875 -1.421875 10.953125 3.296875 
Q 6 8.015625 6 15.921875 
Q 6 25.140625 12.171875 29.828125 
Q 18.359375 34.515625 30.609375 34.515625 
L 43.21875 34.515625 
L 43.21875 35.40625 
Q 43.21875 41.609375 39.140625 45 
Q 35.0625 48.390625 27.6875 48.390625 
Q 23 48.390625 18.546875 47.265625 
Q 14.109375 46.140625 10.015625 43.890625 
L 10.015625 52.203125 
Q 14.9375 54.109375 19.578125 55.046875 
Q 24.21875 56 28.609375 56 
Q 40.484375 56 46.34375 49.84375 
Q 52.203125 43.703125 52.203125 31.203125 
z
" id="DejaVuSans-97"/>
      <path d="M 41.109375 46.296875 
Q 39.59375 47.171875 37.8125 47.578125 
Q 36.03125 48 33.890625 48 
Q 26.265625 48 22.1875 43.046875 
Q 18.109375 38.09375 18.109375 28.8125 
L 18.109375 0 
L 9.078125 0 
L 9.078125 54.6875 
L 18.109375 54.6875 
L 18.109375 46.1875 
Q 20.953125 51.171875 25.484375 53.578125 
Q 30.03125 56 36.53125 56 
Q 37.453125 56 38.578125 55.875 
Q 39.703125 55.765625 41.0625 55.515625 
z
" id="DejaVuSans-114"/>
      <path d="M 9.8125 72.90625 
L 19.671875 72.90625 
L 19.671875 0 
L 9.8125 0 
z
" id="DejaVuSans-73"/>
     </defs>
     <g transform="translate(402.253325 383.304135)scale(0.12 -0.12)">
      <use xlink:href="#DejaVuSans-86"/>
      <use x="68.298828" xlink:href="#DejaVuSans-97"/>
      <use x="129.578125" xlink:href="#DejaVuSans-114"/>
      <use x="170.691406" xlink:href="#DejaVuSans-105"/>
      <use x="198.474609" xlink:href="#DejaVuSans-97"/>
      <use x="259.753906" xlink:href="#DejaVuSans-110"/>
      <use x="323.132812" xlink:href="#DejaVuSans-99"/>
      <use x="378.113281" xlink:href="#DejaVuSans-101"/>
      <use x="439.636719" xlink:href="#DejaVuSans-32"/>
      <use x="471.423828" xlink:href="#DejaVuSans-73"/>
      <use x="500.916016" xlink:href="#DejaVuSans-110"/>
      <use x="564.294922" xlink:href="#DejaVuSans-102"/>
      <use x="599.5" xlink:href="#DejaVuSans-108"/>
      <use x="627.283203" xlink:href="#DejaVuSans-97"/>
      <use x="688.5625" xlink:href="#DejaVuSans-116"/>
      <use x="727.771484" xlink:href="#DejaVuSans-105"/>
      <use x="755.554688" xlink:href="#DejaVuSans-111"/>
      <use x="816.736328" xlink:href="#DejaVuSans-110"/>
      <use x="880.115234" xlink:href="#DejaVuSans-32"/>
      <use x="911.902344" xlink:href="#DejaVuSans-70"/>
      <use x="969.28125" xlink:href="#DejaVuSans-97"/>
      <use x="1030.560547" xlink:href="#DejaVuSans-99"/>
      <use x="1085.541016" xlink:href="#DejaVuSans-116"/>
      <use x="1124.75" xlink:href="#DejaVuSans-111"/>
      <use x="1185.931641" xlink:href="#DejaVuSans-114"/>
     </g>
    </g>
   </g>
   <g id="matplotlib.axis_6">
    <g id="ytick_9">
     <g id="line2d_22">
      <g>
       <use style="stroke:#000000;stroke-width:0.8;" x="378.75064" xlink:href="#m12980a141a" y="353.507885"/>
      </g>
     </g>
    </g>
    <g id="ytick_10">
     <g id="line2d_23">
      <g>
       <use style="stroke:#000000;stroke-width:0.8;" x="378.75064" xlink:href="#m12980a141a" y="322.969672"/>
      </g>
     </g>
    </g>
    <g id="ytick_11">
     <g id="line2d_24">
      <g>
       <use style="stroke:#000000;stroke-width:0.8;" x="378.75064" xlink:href="#m12980a141a" y="292.431459"/>
      </g>
     </g>
    </g>
    <g id="ytick_12">
     <g id="line2d_25">
      <g>
       <use style="stroke:#000000;stroke-width:0.8;" x="378.75064" xlink:href="#m12980a141a" y="261.893246"/>
      </g>
     </g>
    </g>
    <g id="ytick_13">
     <g id="line2d_26">
      <g>
       <use style="stroke:#000000;stroke-width:0.8;" x="378.75064" xlink:href="#m12980a141a" y="231.355033"/>
      </g>
     </g>
    </g>
    <g id="text_27">
     <!-- Motif -->
     <g transform="translate(365.255015 307.410834)rotate(-90)scale(0.12 -0.12)">
      <use xlink:href="#DejaVuSans-77"/>
      <use x="86.279297" xlink:href="#DejaVuSans-111"/>
      <use x="147.460938" xlink:href="#DejaVuSans-116"/>
      <use x="186.669922" xlink:href="#DejaVuSans-105"/>
      <use x="214.453125" xlink:href="#DejaVuSans-102"/>
     </g>
    </g>
   </g>
   <g id="patch_108">
    <path d="M 378.75064 353.507885 
L 378.75064 231.355033 
" style="fill:none;stroke:#000000;stroke-linecap:square;stroke-linejoin:miter;stroke-width:0.8;"/>
   </g>
   <g id="patch_109">
    <path d="M 572.99976 353.507885 
L 572.99976 231.355033 
" style="fill:none;stroke:#000000;stroke-linecap:square;stroke-linejoin:miter;stroke-width:0.8;"/>
   </g>
   <g id="patch_110">
    <path d="M 378.75064 353.507885 
L 572.99976 353.507885 
" style="fill:none;stroke:#000000;stroke-linecap:square;stroke-linejoin:miter;stroke-width:0.8;"/>
   </g>
   <g id="patch_111">
    <path d="M 378.75064 231.355033 
L 572.99976 231.355033 
" style="fill:none;stroke:#000000;stroke-linecap:square;stroke-linejoin:miter;stroke-width:0.8;"/>
   </g>
  </g>
  <g id="axes_4">
   <g id="patch_112">
    <path d="M 378.75064 191.507478 
L 572.99976 191.507478 
L 572.99976 69.354626 
L 378.75064 69.354626 
z
" style="fill:#ffffff;"/>
   </g>
   <g id="matplotlib.axis_7">
    <g id="xtick_17">
     <g id="line2d_27">
      <g>
       <use style="stroke:#000000;stroke-width:0.8;" x="387.580145" xlink:href="#ma0fd18097c" y="191.507478"/>
      </g>
     </g>
     <g id="text_28">
      <!-- 0.0 -->
      <g transform="translate(379.628583 206.105915)scale(0.1 -0.1)">
       <use xlink:href="#DejaVuSans-48"/>
       <use x="63.623047" xlink:href="#DejaVuSans-46"/>
       <use x="95.410156" xlink:href="#DejaVuSans-48"/>
      </g>
     </g>
    </g>
    <g id="xtick_18">
     <g id="line2d_28">
      <g>
       <use style="stroke:#000000;stroke-width:0.8;" x="422.898167" xlink:href="#ma0fd18097c" y="191.507478"/>
      </g>
     </g>
     <g id="text_29">
      <!-- 0.2 -->
      <g transform="translate(414.946605 206.105915)scale(0.1 -0.1)">
       <use xlink:href="#DejaVuSans-48"/>
       <use x="63.623047" xlink:href="#DejaVuSans-46"/>
       <use x="95.410156" xlink:href="#DejaVuSans-50"/>
      </g>
     </g>
    </g>
    <g id="xtick_19">
     <g id="line2d_29">
      <g>
       <use style="stroke:#000000;stroke-width:0.8;" x="458.216189" xlink:href="#ma0fd18097c" y="191.507478"/>
      </g>
     </g>
     <g id="text_30">
      <!-- 0.4 -->
      <g transform="translate(450.264627 206.105915)scale(0.1 -0.1)">
       <use xlink:href="#DejaVuSans-48"/>
       <use x="63.623047" xlink:href="#DejaVuSans-46"/>
       <use x="95.410156" xlink:href="#DejaVuSans-52"/>
      </g>
     </g>
    </g>
    <g id="xtick_20">
     <g id="line2d_30">
      <g>
       <use style="stroke:#000000;stroke-width:0.8;" x="493.534211" xlink:href="#ma0fd18097c" y="191.507478"/>
      </g>
     </g>
     <g id="text_31">
      <!-- 0.6 -->
      <g transform="translate(485.582648 206.105915)scale(0.1 -0.1)">
       <use xlink:href="#DejaVuSans-48"/>
       <use x="63.623047" xlink:href="#DejaVuSans-46"/>
       <use x="95.410156" xlink:href="#DejaVuSans-54"/>
      </g>
     </g>
    </g>
    <g id="xtick_21">
     <g id="line2d_31">
      <g>
       <use style="stroke:#000000;stroke-width:0.8;" x="528.852233" xlink:href="#ma0fd18097c" y="191.507478"/>
      </g>
     </g>
     <g id="text_32">
      <!-- 0.8 -->
      <g transform="translate(520.90067 206.105915)scale(0.1 -0.1)">
       <use xlink:href="#DejaVuSans-48"/>
       <use x="63.623047" xlink:href="#DejaVuSans-46"/>
       <use x="95.410156" xlink:href="#DejaVuSans-56"/>
      </g>
     </g>
    </g>
    <g id="xtick_22">
     <g id="line2d_32">
      <g>
       <use style="stroke:#000000;stroke-width:0.8;" x="564.170255" xlink:href="#ma0fd18097c" y="191.507478"/>
      </g>
     </g>
     <g id="text_33">
      <!-- 1.0 -->
      <g transform="translate(556.218692 206.105915)scale(0.1 -0.1)">
       <use xlink:href="#DejaVuSans-49"/>
       <use x="63.623047" xlink:href="#DejaVuSans-46"/>
       <use x="95.410156" xlink:href="#DejaVuSans-48"/>
      </g>
     </g>
    </g>
    <g id="text_34">
     <!-- False Positive Rate -->
     <defs>
      <path d="M 19.671875 64.796875 
L 19.671875 37.40625 
L 32.078125 37.40625 
Q 38.96875 37.40625 42.71875 40.96875 
Q 46.484375 44.53125 46.484375 51.125 
Q 46.484375 57.671875 42.71875 61.234375 
Q 38.96875 64.796875 32.078125 64.796875 
z
M 9.8125 72.90625 
L 32.078125 72.90625 
Q 44.34375 72.90625 50.609375 67.359375 
Q 56.890625 61.8125 56.890625 51.125 
Q 56.890625 40.328125 50.609375 34.8125 
Q 44.34375 29.296875 32.078125 29.296875 
L 19.671875 29.296875 
L 19.671875 0 
L 9.8125 0 
z
" id="DejaVuSans-80"/>
      <path d="M 2.984375 54.6875 
L 12.5 54.6875 
L 29.59375 8.796875 
L 46.6875 54.6875 
L 56.203125 54.6875 
L 35.6875 0 
L 23.484375 0 
z
" id="DejaVuSans-118"/>
     </defs>
     <g transform="translate(419.228637 221.303728)scale(0.12 -0.12)">
      <use xlink:href="#DejaVuSans-70"/>
      <use x="57.378906" xlink:href="#DejaVuSans-97"/>
      <use x="118.658203" xlink:href="#DejaVuSans-108"/>
      <use x="146.441406" xlink:href="#DejaVuSans-115"/>
      <use x="198.541016" xlink:href="#DejaVuSans-101"/>
      <use x="260.064453" xlink:href="#DejaVuSans-32"/>
      <use x="291.851562" xlink:href="#DejaVuSans-80"/>
      <use x="352.107422" xlink:href="#DejaVuSans-111"/>
      <use x="413.289062" xlink:href="#DejaVuSans-115"/>
      <use x="465.388672" xlink:href="#DejaVuSans-105"/>
      <use x="493.171875" xlink:href="#DejaVuSans-116"/>
      <use x="532.380859" xlink:href="#DejaVuSans-105"/>
      <use x="560.164062" xlink:href="#DejaVuSans-118"/>
      <use x="619.34375" xlink:href="#DejaVuSans-101"/>
      <use x="680.867188" xlink:href="#DejaVuSans-32"/>
      <use x="712.654297" xlink:href="#DejaVuSans-82"/>
      <use x="782.105469" xlink:href="#DejaVuSans-97"/>
      <use x="843.384766" xlink:href="#DejaVuSans-116"/>
      <use x="882.59375" xlink:href="#DejaVuSans-101"/>
     </g>
    </g>
   </g>
   <g id="matplotlib.axis_8">
    <g id="ytick_14">
     <g id="line2d_33">
      <g>
       <use style="stroke:#000000;stroke-width:0.8;" x="378.75064" xlink:href="#m12980a141a" y="185.955076"/>
      </g>
     </g>
     <g id="text_35">
      <!-- 0.0 -->
      <g transform="translate(355.847515 189.754294)scale(0.1 -0.1)">
       <use xlink:href="#DejaVuSans-48"/>
       <use x="63.623047" xlink:href="#DejaVuSans-46"/>
       <use x="95.410156" xlink:href="#DejaVuSans-48"/>
      </g>
     </g>
    </g>
    <g id="ytick_15">
     <g id="line2d_34">
      <g>
       <use style="stroke:#000000;stroke-width:0.8;" x="378.75064" xlink:href="#m12980a141a" y="163.745466"/>
      </g>
     </g>
     <g id="text_36">
      <!-- 0.2 -->
      <g transform="translate(355.847515 167.544685)scale(0.1 -0.1)">
       <use xlink:href="#DejaVuSans-48"/>
       <use x="63.623047" xlink:href="#DejaVuSans-46"/>
       <use x="95.410156" xlink:href="#DejaVuSans-50"/>
      </g>
     </g>
    </g>
    <g id="ytick_16">
     <g id="line2d_35">
      <g>
       <use style="stroke:#000000;stroke-width:0.8;" x="378.75064" xlink:href="#m12980a141a" y="141.535857"/>
      </g>
     </g>
     <g id="text_37">
      <!-- 0.4 -->
      <g transform="translate(355.847515 145.335075)scale(0.1 -0.1)">
       <use xlink:href="#DejaVuSans-48"/>
       <use x="63.623047" xlink:href="#DejaVuSans-46"/>
       <use x="95.410156" xlink:href="#DejaVuSans-52"/>
      </g>
     </g>
    </g>
    <g id="ytick_17">
     <g id="line2d_36">
      <g>
       <use style="stroke:#000000;stroke-width:0.8;" x="378.75064" xlink:href="#m12980a141a" y="119.326247"/>
      </g>
     </g>
     <g id="text_38">
      <!-- 0.6 -->
      <g transform="translate(355.847515 123.125466)scale(0.1 -0.1)">
       <use xlink:href="#DejaVuSans-48"/>
       <use x="63.623047" xlink:href="#DejaVuSans-46"/>
       <use x="95.410156" xlink:href="#DejaVuSans-54"/>
      </g>
     </g>
    </g>
    <g id="ytick_18">
     <g id="line2d_37">
      <g>
       <use style="stroke:#000000;stroke-width:0.8;" x="378.75064" xlink:href="#m12980a141a" y="97.116638"/>
      </g>
     </g>
     <g id="text_39">
      <!-- 0.8 -->
      <g transform="translate(355.847515 100.915857)scale(0.1 -0.1)">
       <use xlink:href="#DejaVuSans-48"/>
       <use x="63.623047" xlink:href="#DejaVuSans-46"/>
       <use x="95.410156" xlink:href="#DejaVuSans-56"/>
      </g>
     </g>
    </g>
    <g id="ytick_19">
     <g id="line2d_38">
      <g>
       <use style="stroke:#000000;stroke-width:0.8;" x="378.75064" xlink:href="#m12980a141a" y="74.907028"/>
      </g>
     </g>
     <g id="text_40">
      <!-- 1.0 -->
      <g transform="translate(355.847515 78.706247)scale(0.1 -0.1)">
       <use xlink:href="#DejaVuSans-49"/>
       <use x="63.623047" xlink:href="#DejaVuSans-46"/>
       <use x="95.410156" xlink:href="#DejaVuSans-48"/>
      </g>
     </g>
    </g>
    <g id="text_41">
     <!-- True Positive Rate -->
     <defs>
      <path d="M -0.296875 72.90625 
L 61.375 72.90625 
L 61.375 64.59375 
L 35.5 64.59375 
L 35.5 0 
L 25.59375 0 
L 25.59375 64.59375 
L -0.296875 64.59375 
z
" id="DejaVuSans-84"/>
     </defs>
     <g transform="translate(349.35189 185.086364)rotate(-90)scale(0.12 -0.12)">
      <use xlink:href="#DejaVuSans-84"/>
      <use x="60.865234" xlink:href="#DejaVuSans-114"/>
      <use x="101.978516" xlink:href="#DejaVuSans-117"/>
      <use x="165.357422" xlink:href="#DejaVuSans-101"/>
      <use x="226.880859" xlink:href="#DejaVuSans-32"/>
      <use x="258.667969" xlink:href="#DejaVuSans-80"/>
      <use x="318.923828" xlink:href="#DejaVuSans-111"/>
      <use x="380.105469" xlink:href="#DejaVuSans-115"/>
      <use x="432.205078" xlink:href="#DejaVuSans-105"/>
      <use x="459.988281" xlink:href="#DejaVuSans-116"/>
      <use x="499.197266" xlink:href="#DejaVuSans-105"/>
      <use x="526.980469" xlink:href="#DejaVuSans-118"/>
      <use x="586.160156" xlink:href="#DejaVuSans-101"/>
      <use x="647.683594" xlink:href="#DejaVuSans-32"/>
      <use x="679.470703" xlink:href="#DejaVuSans-82"/>
      <use x="748.921875" xlink:href="#DejaVuSans-97"/>
      <use x="810.201172" xlink:href="#DejaVuSans-116"/>
      <use x="849.410156" xlink:href="#DejaVuSans-101"/>
     </g>
    </g>
   </g>
   <g id="line2d_39">
    <path clip-path="url(#pab08e94fc3)" d="M 387.580145 185.955076 
L 388.959756 148.93906 
L 398.617027 89.713435 
L 564.170255 74.907028 
" style="fill:none;stroke:#0073b2;stroke-linecap:square;stroke-width:1.5;"/>
   </g>
   <g id="line2d_40">
    <path clip-path="url(#pab08e94fc3)" d="M 387.580145 185.955076 
L 387.580145 175.625025 
L 387.580145 134.304821 
L 402.257765 90.402105 
L 564.170255 74.907028 
" style="fill:none;stroke:#cc6600;stroke-linecap:square;stroke-width:1.5;"/>
   </g>
   <g id="line2d_41">
    <path clip-path="url(#pab08e94fc3)" d="M 387.580145 185.955076 
L 564.170255 74.907028 
" style="fill:none;stroke:#808080;stroke-dasharray:4,8;stroke-dashoffset:0;stroke-width:0.8;"/>
   </g>
   <g id="patch_113">
    <path d="M 378.75064 191.507478 
L 378.75064 69.354626 
" style="fill:none;stroke:#000000;stroke-linecap:square;stroke-linejoin:miter;stroke-width:0.8;"/>
   </g>
   <g id="patch_114">
    <path d="M 572.99976 191.507478 
L 572.99976 69.354626 
" style="fill:none;stroke:#000000;stroke-linecap:square;stroke-linejoin:miter;stroke-width:0.8;"/>
   </g>
   <g id="patch_115">
    <path d="M 378.75064 191.507478 
L 572.99976 191.507478 
" style="fill:none;stroke:#000000;stroke-linecap:square;stroke-linejoin:miter;stroke-width:0.8;"/>
   </g>
   <g id="patch_116">
    <path d="M 378.75064 69.354626 
L 572.99976 69.354626 
" style="fill:none;stroke:#000000;stroke-linecap:square;stroke-linejoin:miter;stroke-width:0.8;"/>
   </g>
   <g id="legend_1">
    <g id="patch_117">
     <path d="M 436.784135 186.507478 
L 565.99976 186.507478 
Q 567.99976 186.507478 567.99976 184.507478 
L 567.99976 156.151228 
Q 567.99976 154.151228 565.99976 154.151228 
L 436.784135 154.151228 
Q 434.784135 154.151228 434.784135 156.151228 
L 434.784135 184.507478 
Q 434.784135 186.507478 436.784135 186.507478 
z
" style="fill:#ffffff;opacity:0.8;stroke:#cccccc;stroke-linejoin:miter;"/>
    </g>
    <g id="line2d_42">
     <path d="M 438.784135 162.249665 
L 458.784135 162.249665 
" style="fill:none;stroke:#0073b2;stroke-linecap:square;stroke-width:1.5;"/>
    </g>
    <g id="line2d_43"/>
    <g id="text_42">
     <!-- Test, AUC: 0.91 -->
     <defs>
      <path d="M 11.71875 12.40625 
L 22.015625 12.40625 
L 22.015625 4 
L 14.015625 -11.625 
L 7.71875 -11.625 
L 11.71875 4 
z
" id="DejaVuSans-44"/>
      <path d="M 34.1875 63.1875 
L 20.796875 26.90625 
L 47.609375 26.90625 
z
M 28.609375 72.90625 
L 39.796875 72.90625 
L 67.578125 0 
L 57.328125 0 
L 50.6875 18.703125 
L 17.828125 18.703125 
L 11.1875 0 
L 0.78125 0 
z
" id="DejaVuSans-65"/>
      <path d="M 11.71875 12.40625 
L 22.015625 12.40625 
L 22.015625 0 
L 11.71875 0 
z
M 11.71875 51.703125 
L 22.015625 51.703125 
L 22.015625 39.3125 
L 11.71875 39.3125 
z
" id="DejaVuSans-58"/>
      <path d="M 10.984375 1.515625 
L 10.984375 10.5 
Q 14.703125 8.734375 18.5 7.8125 
Q 22.3125 6.890625 25.984375 6.890625 
Q 35.75 6.890625 40.890625 13.453125 
Q 46.046875 20.015625 46.78125 33.40625 
Q 43.953125 29.203125 39.59375 26.953125 
Q 35.25 24.703125 29.984375 24.703125 
Q 19.046875 24.703125 12.671875 31.3125 
Q 6.296875 37.9375 6.296875 49.421875 
Q 6.296875 60.640625 12.9375 67.421875 
Q 19.578125 74.21875 30.609375 74.21875 
Q 43.265625 74.21875 49.921875 64.515625 
Q 56.59375 54.828125 56.59375 36.375 
Q 56.59375 19.140625 48.40625 8.859375 
Q 40.234375 -1.421875 26.421875 -1.421875 
Q 22.703125 -1.421875 18.890625 -0.6875 
Q 15.09375 0.046875 10.984375 1.515625 
z
M 30.609375 32.421875 
Q 37.25 32.421875 41.125 36.953125 
Q 45.015625 41.5 45.015625 49.421875 
Q 45.015625 57.28125 41.125 61.84375 
Q 37.25 66.40625 30.609375 66.40625 
Q 23.96875 66.40625 20.09375 61.84375 
Q 16.21875 57.28125 16.21875 49.421875 
Q 16.21875 41.5 20.09375 36.953125 
Q 23.96875 32.421875 30.609375 32.421875 
z
" id="DejaVuSans-57"/>
     </defs>
     <g transform="translate(466.784135 165.749665)scale(0.1 -0.1)">
      <use xlink:href="#DejaVuSans-84"/>
      <use x="60.818359" xlink:href="#DejaVuSans-101"/>
      <use x="122.341797" xlink:href="#DejaVuSans-115"/>
      <use x="174.441406" xlink:href="#DejaVuSans-116"/>
      <use x="213.650391" xlink:href="#DejaVuSans-44"/>
      <use x="245.4375" xlink:href="#DejaVuSans-32"/>
      <use x="277.224609" xlink:href="#DejaVuSans-65"/>
      <use x="345.632812" xlink:href="#DejaVuSans-85"/>
      <use x="418.826172" xlink:href="#DejaVuSans-67"/>
      <use x="488.650391" xlink:href="#DejaVuSans-58"/>
      <use x="522.341797" xlink:href="#DejaVuSans-32"/>
      <use x="554.128906" xlink:href="#DejaVuSans-48"/>
      <use x="617.751953" xlink:href="#DejaVuSans-46"/>
      <use x="649.539062" xlink:href="#DejaVuSans-57"/>
      <use x="713.162109" xlink:href="#DejaVuSans-49"/>
     </g>
    </g>
    <g id="line2d_44">
     <path d="M 438.784135 176.92779 
L 458.784135 176.92779 
" style="fill:none;stroke:#cc6600;stroke-linecap:square;stroke-width:1.5;"/>
    </g>
    <g id="line2d_45"/>
    <g id="text_43">
     <!-- Training, AUC: 0.91 -->
     <g transform="translate(466.784135 180.42779)scale(0.1 -0.1)">
      <use xlink:href="#DejaVuSans-84"/>
      <use x="60.865234" xlink:href="#DejaVuSans-114"/>
      <use x="101.978516" xlink:href="#DejaVuSans-97"/>
      <use x="163.257812" xlink:href="#DejaVuSans-105"/>
      <use x="191.041016" xlink:href="#DejaVuSans-110"/>
      <use x="254.419922" xlink:href="#DejaVuSans-105"/>
      <use x="282.203125" xlink:href="#DejaVuSans-110"/>
      <use x="345.582031" xlink:href="#DejaVuSans-103"/>
      <use x="409.058594" xlink:href="#DejaVuSans-44"/>
      <use x="440.845703" xlink:href="#DejaVuSans-32"/>
      <use x="472.632812" xlink:href="#DejaVuSans-65"/>
      <use x="541.041016" xlink:href="#DejaVuSans-85"/>
      <use x="614.234375" xlink:href="#DejaVuSans-67"/>
      <use x="684.058594" xlink:href="#DejaVuSans-58"/>
      <use x="717.75" xlink:href="#DejaVuSans-32"/>
      <use x="749.537109" xlink:href="#DejaVuSans-48"/>
      <use x="813.160156" xlink:href="#DejaVuSans-46"/>
      <use x="844.947266" xlink:href="#DejaVuSans-57"/>
      <use x="908.570312" xlink:href="#DejaVuSans-49"/>
     </g>
    </g>
   </g>
  </g>
  <g id="axes_5">
   <g id="line2d_46">
    <path clip-path="url(#p79199fc4f3)" d="M 313.239311 245.786791 
L 257.646939 245.786791 
" style="fill:none;stroke:#000000;stroke-linecap:square;stroke-width:0.583973;"/>
   </g>
   <g id="line2d_47">
    <path clip-path="url(#p79199fc4f3)" d="M 257.646939 245.786791 
L 257.646939 279.142215 
" style="fill:none;stroke:#000000;stroke-linecap:square;stroke-width:0.583973;"/>
   </g>
   <g id="patch_118">
    <path clip-path="url(#p79199fc4f3)" d="M 276.326845 244.205883 
L 276.326845 247.565313 
L 275.071673 247.565313 
L 275.071673 237.122199 
Q 275.071673 234.027701 277.962042 234.027701 
Q 280.908872 234.027701 280.908872 236.640109 
Q 280.908872 238.498979 279.740564 239.178682 
Q 281.640694 239.788895 281.640694 241.599991 
Q 281.640694 244.818268 278.370299 244.818268 
Q 276.930543 244.818268 276.326845 244.205883 
z
M 276.326845 242.5772 
Q 277.080382 243.752023 278.418073 243.752023 
Q 280.372493 243.752023 280.372493 241.621706 
Q 280.372493 239.706375 277.223706 239.856214 
L 277.223706 238.703107 
Q 279.686274 238.703107 279.686274 236.53153 
Q 279.686274 235.046171 278.098851 235.046171 
Q 276.326845 235.046171 276.326845 237.163459 
z
"/>
   </g>
   <g id="patch_119">
    <path clip-path="url(#p79199fc4f3)" d="M 296.086024 239.211256 
Q 297.069749 239.421899 297.621329 240.088573 
Q 298.175081 240.753076 298.175081 241.730285 
Q 298.175081 243.228673 297.143582 244.051701 
Q 296.112083 244.872557 294.211953 244.872557 
Q 293.575681 244.872557 292.900321 244.746606 
Q 292.22496 244.620654 291.506168 244.368751 
L 291.506168 243.046261 
Q 292.075121 243.378512 292.752653 243.547895 
Q 293.432357 243.717278 294.172865 243.717278 
Q 295.46061 243.717278 296.13597 243.209129 
Q 296.811331 242.70098 296.811331 241.730285 
Q 296.811331 240.833424 296.183745 240.329618 
Q 295.556159 239.823641 294.437797 239.823641 
L 293.256459 239.823641 
L 293.256459 238.696592 
L 294.492087 238.696592 
Q 295.50187 238.696592 296.038249 238.292679 
Q 296.574629 237.888765 296.574629 237.128713 
Q 296.574629 236.349117 296.020877 235.932175 
Q 295.469296 235.51306 294.437797 235.51306 
Q 293.873187 235.51306 293.228229 235.63684 
Q 292.58327 235.758448 291.810189 236.014694 
L 291.810189 234.794268 
Q 292.591957 234.57711 293.273832 234.468532 
Q 293.955707 234.359953 294.559405 234.359953 
Q 296.120769 234.359953 297.028489 235.070058 
Q 297.938379 235.777993 297.938379 236.985389 
Q 297.938379 237.827961 297.456289 238.407772 
Q 296.974199 238.987583 296.086024 239.211256 
z
"/>
   </g>
   <g id="patch_120">
    <path clip-path="url(#p79199fc4f3)" d="M 260.869559 269.500413 
L 265.653543 269.500413 
L 265.653543 270.65352 
L 259.221332 270.65352 
L 259.221332 269.500413 
Q 260.000928 268.692586 261.347306 267.333179 
Q 262.695855 265.9716 263.041136 265.576373 
Q 263.699124 264.838037 263.959713 264.325544 
Q 264.222474 263.813052 264.222474 263.317933 
Q 264.222474 262.510106 263.655692 262.001957 
Q 263.088911 261.491636 262.17902 261.491636 
Q 261.534062 261.491636 260.817441 261.715309 
Q 260.102992 261.938981 259.288651 262.395012 
L 259.288651 261.009546 
Q 260.116022 260.677295 260.834814 260.507912 
Q 261.555777 260.338529 262.152961 260.338529 
Q 263.727354 260.338529 264.663304 261.126811 
Q 265.599254 261.912922 265.599254 263.228898 
Q 265.599254 263.854312 265.364724 264.414579 
Q 265.132365 264.972674 264.513465 265.732726 
Q 264.344082 265.93034 263.434192 266.870633 
Q 262.526472 267.810926 260.869559 269.500413 
z
M 268.673936 268.929288 
L 270.105005 268.929288 
L 270.105005 270.097596 
L 268.993157 272.269173 
L 268.118012 272.269173 
L 268.673936 270.097596 
z
M 277.10264 265.189832 
Q 278.086365 265.400475 278.637945 266.067149 
Q 279.191698 266.731652 279.191698 267.708862 
Q 279.191698 269.20725 278.160198 270.030277 
Q 277.128699 270.851133 275.228569 270.851133 
Q 274.592297 270.851133 273.916937 270.725182 
Q 273.241576 270.599231 272.522784 270.347328 
L 272.522784 269.024837 
Q 273.091738 269.357088 273.76927 269.526471 
Q 274.448973 269.695855 275.189481 269.695855 
Q 276.477226 269.695855 277.152587 269.187705 
Q 277.827947 268.679556 277.827947 267.708862 
Q 277.827947 266.812 277.200361 266.308194 
Q 276.572776 265.802217 275.454413 265.802217 
L 274.273076 265.802217 
L 274.273076 264.675168 
L 275.508703 264.675168 
Q 276.518486 264.675168 277.054866 264.271255 
Q 277.591245 263.867342 277.591245 263.10729 
Q 277.591245 262.327694 277.037493 261.910751 
Q 276.485913 261.491636 275.454413 261.491636 
Q 274.889803 261.491636 274.244845 261.615416 
Q 273.599887 261.737025 272.826805 261.993271 
L 272.826805 260.772844 
Q 273.608573 260.555687 274.290448 260.447108 
Q 274.972323 260.338529 275.576022 260.338529 
Q 277.137386 260.338529 278.045105 261.048635 
Q 278.954996 261.756569 278.954996 262.963966 
Q 278.954996 263.806538 278.472906 264.386349 
Q 277.990815 264.96616 277.10264 265.189832 
z
M 281.934128 268.929288 
L 283.365197 268.929288 
L 283.365197 270.097596 
L 282.25335 272.269173 
L 281.378204 272.269173 
L 281.934128 270.097596 
z
M 289.976292 261.715309 
L 286.514798 267.124707 
L 289.976292 267.124707 
z
M 289.61581 260.520941 
L 291.340042 260.520941 
L 291.340042 267.124707 
L 292.786313 267.124707 
L 292.786313 268.264785 
L 291.340042 268.264785 
L 291.340042 270.65352 
L 289.976292 270.65352 
L 289.976292 268.264785 
L 285.402951 268.264785 
L 285.402951 266.942295 
z
M 295.19432 268.929288 
L 296.62539 268.929288 
L 296.62539 270.097596 
L 295.513542 272.269173 
L 294.638397 272.269173 
L 295.19432 270.097596 
z
M 302.571982 265.042165 
Q 301.649062 265.042165 301.108339 265.674094 
Q 300.569788 266.303851 300.569788 267.402669 
Q 300.569788 268.494972 301.108339 269.131244 
Q 301.649062 269.765345 302.571982 269.765345 
Q 303.494902 269.765345 304.033453 269.131244 
Q 304.572004 268.494972 304.572004 267.402669 
Q 304.572004 266.303851 304.033453 265.674094 
Q 303.494902 265.042165 302.571982 265.042165 
z
M 305.292968 260.744614 
L 305.292968 261.993271 
Q 304.776133 261.750054 304.250611 261.621931 
Q 303.725089 261.491636 303.208254 261.491636 
Q 301.851018 261.491636 301.134398 262.408042 
Q 300.419949 263.324447 300.317885 265.176803 
Q 300.717455 264.586134 301.321153 264.271255 
Q 301.927023 263.956376 302.65233 263.956376 
Q 304.178949 263.956376 305.064952 264.88364 
Q 305.950956 265.808732 305.950956 267.402669 
Q 305.950956 268.964033 305.028036 269.908669 
Q 304.105115 270.851133 302.571982 270.851133 
Q 300.813004 270.851133 299.883569 269.504756 
Q 298.954135 268.156206 298.954135 265.598089 
Q 298.954135 263.196324 300.094212 261.767427 
Q 301.23429 260.338529 303.153965 260.338529 
Q 303.6708 260.338529 304.196322 260.440593 
Q 304.721843 260.542657 305.292968 260.744614 
z
"/>
   </g>
   <g id="patch_121">
    <path clip-path="url(#p79199fc4f3)" d="M 324.357786 234.668317 
L 324.357786 256.905266 
L 302.120837 256.905266 
L 302.120837 234.668317 
L 324.357786 234.668317 
z
" style="fill:#ffd400;stroke:#000000;stroke-linejoin:miter;stroke-width:0.583973;"/>
   </g>
   <g id="patch_122">
    <path clip-path="url(#p79199fc4f3)" d="M 257.646939 256.905266 
C 260.595593 256.905266 263.423874 255.733753 265.508887 253.64874 
C 267.593901 251.563727 268.765413 248.735445 268.765413 245.786791 
C 268.765413 242.838137 267.593901 240.009856 265.508887 237.924842 
C 263.423874 235.839829 260.595593 234.668317 257.646939 234.668317 
C 254.698285 234.668317 251.870003 235.839829 249.78499 237.924842 
C 247.699977 240.009856 246.528464 242.838137 246.528464 245.786791 
C 246.528464 248.735445 247.699977 251.563727 249.78499 253.64874 
C 251.870003 255.733753 254.698285 256.905266 257.646939 256.905266 
z
" style="fill:#ffd400;stroke:#000000;stroke-linejoin:miter;stroke-width:0.583973;"/>
   </g>
   <g id="patch_123">
    <path clip-path="url(#p79199fc4f3)" d="M 265.985795 270.803359 
L 249.308083 287.481071 
z
" style="fill:#ffffff;stroke:#000000;stroke-linejoin:miter;stroke-width:0.583973;"/>
   </g>
   <g id="patch_124">
    <path clip-path="url(#p79199fc4f3)" d="M 249.308083 270.803359 
L 265.985795 287.481071 
z
" style="fill:#ffffff;stroke:#000000;stroke-linejoin:miter;stroke-width:0.583973;"/>
   </g>
  </g>
  <g id="axes_6">
   <g id="line2d_48">
    <path clip-path="url(#p80f43fe1c9)" d="M 314.925151 315.328651 
L 314.925151 334.894697 
" style="fill:none;stroke:#000000;stroke-linecap:square;stroke-width:0.577241;"/>
   </g>
   <g id="line2d_49">
    <path clip-path="url(#p80f43fe1c9)" d="M 314.925151 315.328651 
L 282.315073 315.328651 
" style="fill:none;stroke:#000000;stroke-linecap:square;stroke-width:0.577241;"/>
   </g>
   <g id="line2d_50">
    <path clip-path="url(#p80f43fe1c9)" d="M 282.315073 315.328651 
L 282.315073 334.894697 
" style="fill:none;stroke:#000000;stroke-linecap:square;stroke-width:0.577241;"/>
   </g>
   <g id="line2d_51">
    <path clip-path="url(#p80f43fe1c9)" d="M 282.315073 315.328651 
L 249.704995 315.328651 
" style="fill:none;stroke:#000000;stroke-linecap:square;stroke-width:0.577241;"/>
   </g>
   <g id="patch_125">
    <path clip-path="url(#p80f43fe1c9)" d="M 318.559392 326.710332 
Q 319.136437 326.833894 319.45999 327.22496 
Q 319.784817 327.614752 319.784817 328.187976 
Q 319.784817 329.06692 319.179748 329.549702 
Q 318.574678 330.03121 317.460075 330.03121 
Q 317.086843 330.03121 316.690681 329.957328 
Q 316.29452 329.883446 315.872882 329.735681 
L 315.872882 328.959918 
Q 316.206626 329.154814 316.604061 329.254173 
Q 317.00277 329.353532 317.437147 329.353532 
Q 318.192528 329.353532 318.58869 329.055455 
Q 318.984851 328.757379 318.984851 328.187976 
Q 318.984851 327.661884 318.616714 327.366355 
Q 318.248577 327.069553 317.592554 327.069553 
L 316.89959 327.069553 
L 316.89959 326.408434 
L 317.6244 326.408434 
Q 318.216731 326.408434 318.531368 326.171502 
Q 318.846004 325.934569 318.846004 325.488728 
Q 318.846004 325.031423 318.521177 324.786847 
Q 318.197624 324.540998 317.592554 324.540998 
Q 317.261358 324.540998 316.88303 324.613606 
Q 316.504702 324.684941 316.051218 324.835253 
L 316.051218 324.11936 
Q 316.509797 323.991976 316.90978 323.928285 
Q 317.309763 323.864593 317.663888 323.864593 
Q 318.579773 323.864593 319.112235 324.281136 
Q 319.64597 324.696405 319.64597 325.404655 
Q 319.64597 325.898902 319.363179 326.239015 
Q 319.080389 326.579128 318.559392 326.710332 
z
M 321.393507 328.903869 
L 322.232962 328.903869 
L 322.232962 329.589191 
L 321.58076 330.863022 
L 321.067406 330.863022 
L 321.393507 329.589191 
z
M 325.721189 326.623712 
Q 325.179811 326.623712 324.862627 326.994397 
Q 324.546717 327.363808 324.546717 328.008366 
Q 324.546717 328.649103 324.862627 329.022336 
Q 325.179811 329.394294 325.721189 329.394294 
Q 326.262567 329.394294 326.578478 329.022336 
Q 326.894388 328.649103 326.894388 328.008366 
Q 326.894388 327.363808 326.578478 326.994397 
Q 326.262567 326.623712 325.721189 326.623712 
z
M 327.3173 324.1028 
L 327.3173 324.835253 
Q 327.014128 324.692584 326.705861 324.617428 
Q 326.397593 324.540998 326.094422 324.540998 
Q 325.298277 324.540998 324.877913 325.078554 
Q 324.458822 325.616111 324.398952 326.702689 
Q 324.633337 326.356207 324.987462 326.171502 
Q 325.342861 325.986796 325.768321 325.986796 
Q 326.663824 325.986796 327.183547 326.530722 
Q 327.70327 327.073374 327.70327 328.008366 
Q 327.70327 328.924251 327.161892 329.478367 
Q 326.620514 330.03121 325.721189 330.03121 
Q 324.689386 330.03121 324.144186 329.241435 
Q 323.598986 328.450386 323.598986 326.949812 
Q 323.598986 325.540955 324.267748 324.702774 
Q 324.936509 323.864593 326.062576 323.864593 
Q 326.365748 323.864593 326.674015 323.924463 
Q 326.982282 323.984333 327.3173 324.1028 
z
"/>
   </g>
   <g id="patch_126">
    <path clip-path="url(#p80f43fe1c9)" d="M 293.272569 314.401302 
L 293.272569 316.371918 
L 292.536295 316.371918 
L 292.536295 310.246064 
Q 292.536295 308.430855 294.231764 308.430855 
Q 295.960353 308.430855 295.960353 309.963274 
Q 295.960353 311.053673 295.275032 311.452382 
Q 296.389634 311.810329 296.389634 312.872704 
Q 296.389634 314.760522 294.471244 314.760522 
Q 293.626694 314.760522 293.272569 314.401302 
z
M 293.272569 313.445928 
Q 293.714589 314.135071 294.499269 314.135071 
Q 295.645717 314.135071 295.645717 312.885442 
Q 295.645717 311.761923 293.798661 311.849818 
L 293.798661 311.173413 
Q 295.243186 311.173413 295.243186 309.899582 
Q 295.243186 309.028282 294.312015 309.028282 
Q 293.272569 309.028282 293.272569 310.270267 
z
"/>
   </g>
   <g id="patch_127">
    <path clip-path="url(#p80f43fe1c9)" d="M 304.636417 309.43336 
L 302.60593 312.606473 
L 304.636417 312.606473 
z
M 304.424961 308.732753 
L 305.436383 308.732753 
L 305.436383 312.606473 
L 306.284755 312.606473 
L 306.284755 313.275235 
L 305.436383 313.275235 
L 305.436383 314.676449 
L 304.636417 314.676449 
L 304.636417 313.275235 
L 301.953729 313.275235 
L 301.953729 312.499472 
z
"/>
   </g>
   <g id="patch_128">
    <path clip-path="url(#p80f43fe1c9)" d="M 284.205439 329.238887 
L 287.011689 329.238887 
L 287.011689 329.915291 
L 283.238601 329.915291 
L 283.238601 329.238887 
Q 283.695906 328.765022 284.485682 327.967604 
Q 285.276731 327.168911 285.47927 326.937074 
Q 285.865241 326.503972 286.018101 326.203347 
Q 286.172234 325.902723 286.172234 325.61229 
Q 286.172234 325.138425 285.839764 324.840348 
Q 285.507294 324.540998 284.973559 324.540998 
Q 284.595231 324.540998 284.174867 324.672202 
Q 283.755776 324.803407 283.27809 325.070911 
L 283.27809 324.258207 
Q 283.763419 324.063311 284.185057 323.963952 
Q 284.607969 323.864593 284.958273 323.864593 
Q 285.881801 323.864593 286.430822 324.326994 
Q 286.979843 324.788121 286.979843 325.560063 
Q 286.979843 325.926926 286.842269 326.255574 
Q 286.705969 326.582949 286.342927 327.02879 
Q 286.243569 327.144709 285.709833 327.696278 
Q 285.177372 328.247846 284.205439 329.238887 
z
M 288.783429 328.903869 
L 289.622884 328.903869 
L 289.622884 329.589191 
L 288.970682 330.863022 
L 288.457328 330.863022 
L 288.783429 329.589191 
z
M 293.500903 324.672202 
L 291.470416 327.845316 
L 293.500903 327.845316 
z
M 293.289447 323.971595 
L 294.300869 323.971595 
L 294.300869 327.845316 
L 295.149241 327.845316 
L 295.149241 328.514077 
L 294.300869 328.514077 
L 294.300869 329.915291 
L 293.500903 329.915291 
L 293.500903 328.514077 
L 290.818215 328.514077 
L 290.818215 327.738314 
z
M 296.56176 328.903869 
L 297.401215 328.903869 
L 297.401215 329.589191 
L 296.749014 330.863022 
L 296.23566 330.863022 
L 296.56176 329.589191 
z
M 300.889443 326.623712 
Q 300.348064 326.623712 300.03088 326.994397 
Q 299.71497 327.363808 299.71497 328.008366 
Q 299.71497 328.649103 300.03088 329.022336 
Q 300.348064 329.394294 300.889443 329.394294 
Q 301.430821 329.394294 301.746731 329.022336 
Q 302.062641 328.649103 302.062641 328.008366 
Q 302.062641 327.363808 301.746731 326.994397 
Q 301.430821 326.623712 300.889443 326.623712 
z
M 302.485553 324.1028 
L 302.485553 324.835253 
Q 302.182381 324.692584 301.874114 324.617428 
Q 301.565847 324.540998 301.262675 324.540998 
Q 300.466531 324.540998 300.046166 325.078554 
Q 299.627076 325.616111 299.567206 326.702689 
Q 299.801591 326.356207 300.155716 326.171502 
Q 300.511115 325.986796 300.936574 325.986796 
Q 301.832078 325.986796 302.351801 326.530722 
Q 302.871524 327.073374 302.871524 328.008366 
Q 302.871524 328.924251 302.330146 329.478367 
Q 301.788767 330.03121 300.889443 330.03121 
Q 299.857639 330.03121 299.31244 329.241435 
Q 298.76724 328.450386 298.76724 326.949812 
Q 298.76724 325.540955 299.436001 324.702774 
Q 300.104763 323.864593 301.230829 323.864593 
Q 301.534001 323.864593 301.842268 323.924463 
Q 302.150535 323.984333 302.485553 324.1028 
z
"/>
   </g>
   <g id="patch_129">
    <path clip-path="url(#p80f43fe1c9)" d="M 260.662491 314.401302 
L 260.662491 316.371918 
L 259.926217 316.371918 
L 259.926217 310.246064 
Q 259.926217 308.430855 261.621686 308.430855 
Q 263.350275 308.430855 263.350275 309.963274 
Q 263.350275 311.053673 262.664954 311.452382 
Q 263.779556 311.810329 263.779556 312.872704 
Q 263.779556 314.760522 261.861166 314.760522 
Q 261.016616 314.760522 260.662491 314.401302 
z
M 260.662491 313.445928 
Q 261.10451 314.135071 261.88919 314.135071 
Q 263.035638 314.135071 263.035638 312.885442 
Q 263.035638 311.761923 261.188583 311.849818 
L 261.188583 311.173413 
Q 262.633108 311.173413 262.633108 309.899582 
Q 262.633108 309.028282 261.701937 309.028282 
Q 260.662491 309.028282 260.662491 310.270267 
z
"/>
   </g>
   <g id="patch_130">
    <path clip-path="url(#p80f43fe1c9)" d="M 272.253081 311.47149 
Q 272.830126 311.595051 273.153679 311.986118 
Q 273.478506 312.37591 273.478506 312.949134 
Q 273.478506 313.828077 272.873437 314.310859 
Q 272.268367 314.792368 271.153765 314.792368 
Q 270.780532 314.792368 270.384371 314.718485 
Q 269.988209 314.644603 269.566571 314.496839 
L 269.566571 313.721076 
Q 269.900315 313.915972 270.29775 314.015331 
Q 270.696459 314.114689 271.130836 314.114689 
Q 271.886217 314.114689 272.282379 313.816613 
Q 272.67854 313.518537 272.67854 312.949134 
Q 272.67854 312.423042 272.310403 312.127513 
Q 271.942266 311.83071 271.286243 311.83071 
L 270.593279 311.83071 
L 270.593279 311.169592 
L 271.318089 311.169592 
Q 271.91042 311.169592 272.225057 310.932659 
Q 272.539693 310.695727 272.539693 310.249886 
Q 272.539693 309.79258 272.214866 309.548005 
Q 271.891313 309.302155 271.286243 309.302155 
Q 270.955047 309.302155 270.576719 309.374764 
Q 270.198391 309.446098 269.744907 309.59641 
L 269.744907 308.880517 
Q 270.203486 308.753134 270.603469 308.689443 
Q 271.003452 308.625751 271.357578 308.625751 
Q 272.273462 308.625751 272.805924 309.042294 
Q 273.339659 309.457563 273.339659 310.165813 
Q 273.339659 310.660059 273.056868 311.000172 
Q 272.774078 311.340285 272.253081 311.47149 
z
"/>
   </g>
   <g id="patch_131">
    <path clip-path="url(#p80f43fe1c9)" d="M 321.447167 308.806635 
L 321.447167 321.850666 
L 308.403136 321.850666 
L 308.403136 308.806635 
L 321.447167 308.806635 
z
" style="fill:#0090bc;stroke:#000000;stroke-linejoin:miter;stroke-width:0.577241;"/>
   </g>
   <g id="patch_132">
    <path clip-path="url(#p80f43fe1c9)" d="M 319.816663 330.003186 
L 310.03364 339.786209 
z
" style="fill:#ffffff;stroke:#000000;stroke-linejoin:miter;stroke-width:0.577241;"/>
   </g>
   <g id="patch_133">
    <path clip-path="url(#p80f43fe1c9)" d="M 310.03364 330.003186 
L 319.816663 339.786209 
z
" style="fill:#ffffff;stroke:#000000;stroke-linejoin:miter;stroke-width:0.577241;"/>
   </g>
   <g id="patch_134">
    <path clip-path="url(#p80f43fe1c9)" d="M 282.315073 321.850666 
C 284.044732 321.850666 285.703781 321.163466 286.926835 319.940412 
C 288.149888 318.717359 288.837089 317.058309 288.837089 315.328651 
C 288.837089 313.598992 288.149888 311.939943 286.926835 310.716889 
C 285.703781 309.493836 284.044732 308.806635 282.315073 308.806635 
C 280.585415 308.806635 278.926365 309.493836 277.703312 310.716889 
C 276.480258 311.939943 275.793058 313.598992 275.793058 315.328651 
C 275.793058 317.058309 276.480258 318.717359 277.703312 319.940412 
C 278.926365 321.163466 280.585415 321.850666 282.315073 321.850666 
z
" style="fill:#ffd400;stroke:#000000;stroke-linejoin:miter;stroke-width:0.577241;"/>
   </g>
   <g id="patch_135">
    <path clip-path="url(#p80f43fe1c9)" d="M 287.206585 330.003186 
L 277.423562 339.786209 
z
" style="fill:#ffffff;stroke:#000000;stroke-linejoin:miter;stroke-width:0.577241;"/>
   </g>
   <g id="patch_136">
    <path clip-path="url(#p80f43fe1c9)" d="M 277.423562 330.003186 
L 287.206585 339.786209 
z
" style="fill:#ffffff;stroke:#000000;stroke-linejoin:miter;stroke-width:0.577241;"/>
   </g>
   <g id="patch_137">
    <path clip-path="url(#p80f43fe1c9)" d="M 256.227011 308.806635 
L 256.227011 321.850666 
L 243.18298 321.850666 
L 243.18298 308.806635 
L 256.227011 308.806635 
z
" style="fill:#0090bc;stroke:#000000;stroke-linejoin:miter;stroke-width:0.577241;"/>
   </g>
  </g>
  <g id="text_44">
   <!-- PNA_14030_10ug_v5.0_DATA.csv -->
   <defs>
    <path d="M 9.8125 72.90625 
L 23.09375 72.90625 
L 55.421875 11.921875 
L 55.421875 72.90625 
L 64.984375 72.90625 
L 64.984375 0 
L 51.703125 0 
L 19.390625 60.984375 
L 19.390625 0 
L 9.8125 0 
z
" id="DejaVuSans-78"/>
    <path d="M 50.984375 -16.609375 
L 50.984375 -23.578125 
L -0.984375 -23.578125 
L -0.984375 -16.609375 
z
" id="DejaVuSans-95"/>
    <path d="M 10.796875 72.90625 
L 49.515625 72.90625 
L 49.515625 64.59375 
L 19.828125 64.59375 
L 19.828125 46.734375 
Q 21.96875 47.46875 24.109375 47.828125 
Q 26.265625 48.1875 28.421875 48.1875 
Q 40.625 48.1875 47.75 41.5 
Q 54.890625 34.8125 54.890625 23.390625 
Q 54.890625 11.625 47.5625 5.09375 
Q 40.234375 -1.421875 26.90625 -1.421875 
Q 22.3125 -1.421875 17.546875 -0.640625 
Q 12.796875 0.140625 7.71875 1.703125 
L 7.71875 11.625 
Q 12.109375 9.234375 16.796875 8.0625 
Q 21.484375 6.890625 26.703125 6.890625 
Q 35.15625 6.890625 40.078125 11.328125 
Q 45.015625 15.765625 45.015625 23.390625 
Q 45.015625 31 40.078125 35.4375 
Q 35.15625 39.890625 26.703125 39.890625 
Q 22.75 39.890625 18.8125 39.015625 
Q 14.890625 38.140625 10.796875 36.28125 
z
" id="DejaVuSans-53"/>
    <path d="M 19.671875 64.796875 
L 19.671875 8.109375 
L 31.59375 8.109375 
Q 46.6875 8.109375 53.6875 14.9375 
Q 60.6875 21.78125 60.6875 36.53125 
Q 60.6875 51.171875 53.6875 57.984375 
Q 46.6875 64.796875 31.59375 64.796875 
z
M 9.8125 72.90625 
L 30.078125 72.90625 
Q 51.265625 72.90625 61.171875 64.09375 
Q 71.09375 55.28125 71.09375 36.53125 
Q 71.09375 17.671875 61.125 8.828125 
Q 51.171875 0 30.078125 0 
L 9.8125 0 
z
" id="DejaVuSans-68"/>
   </defs>
   <g transform="translate(188.000625 16.68225)scale(0.12 -0.12)">
    <use xlink:href="#DejaVuSans-80"/>
    <use x="60.302734" xlink:href="#DejaVuSans-78"/>
    <use x="135.107422" xlink:href="#DejaVuSans-65"/>
    <use x="203.515625" xlink:href="#DejaVuSans-95"/>
    <use x="253.515625" xlink:href="#DejaVuSans-49"/>
    <use x="317.138672" xlink:href="#DejaVuSans-52"/>
    <use x="380.761719" xlink:href="#DejaVuSans-48"/>
    <use x="444.384766" xlink:href="#DejaVuSans-51"/>
    <use x="508.007812" xlink:href="#DejaVuSans-48"/>
    <use x="571.630859" xlink:href="#DejaVuSans-95"/>
    <use x="621.630859" xlink:href="#DejaVuSans-49"/>
    <use x="685.253906" xlink:href="#DejaVuSans-48"/>
    <use x="748.876953" xlink:href="#DejaVuSans-117"/>
    <use x="812.255859" xlink:href="#DejaVuSans-103"/>
    <use x="875.732422" xlink:href="#DejaVuSans-95"/>
    <use x="925.732422" xlink:href="#DejaVuSans-118"/>
    <use x="984.912109" xlink:href="#DejaVuSans-53"/>
    <use x="1048.535156" xlink:href="#DejaVuSans-46"/>
    <use x="1080.322266" xlink:href="#DejaVuSans-48"/>
    <use x="1143.945312" xlink:href="#DejaVuSans-95"/>
    <use x="1193.945312" xlink:href="#DejaVuSans-68"/>
    <use x="1270.931641" xlink:href="#DejaVuSans-65"/>
    <use x="1339.230469" xlink:href="#DejaVuSans-84"/>
    <use x="1400.205078" xlink:href="#DejaVuSans-65"/>
    <use x="1468.597656" xlink:href="#DejaVuSans-46"/>
    <use x="1500.384766" xlink:href="#DejaVuSans-99"/>
    <use x="1555.365234" xlink:href="#DejaVuSans-115"/>
    <use x="1607.464844" xlink:href="#DejaVuSans-118"/>
   </g>
  </g>
 </g>
 <defs>
  <clipPath id="p4ac1b3026a">
   <rect height="122.152852" width="295.52592" x="36.403365" y="69.354626"/>
  </clipPath>
  <clipPath id="pfe0d2b7a90">
   <rect height="122.152852" width="194.24912" x="36.403365" y="231.355033"/>
  </clipPath>
  <clipPath id="pb2d5c82fc5">
   <rect height="122.152852" width="194.24912" x="378.75064" y="231.355033"/>
  </clipPath>
  <clipPath id="pab08e94fc3">
   <rect height="122.152852" width="194.24912" x="378.75064" y="69.354626"/>
  </clipPath>
  <clipPath id="p79199fc4f3">
   <rect height="58.798706" width="85.612254" x="242.636998" y="231.355033"/>
  </clipPath>
  <clipPath id="p80f43fe1c9">
   <rect height="34.49089" width="92.97232" x="238.956965" y="306.863087"/>
  </clipPath>
 </defs>
</svg>
