<?xml version="1.0" encoding="utf-8" standalone="no"?>
<!DOCTYPE svg PUBLIC "-//W3C//DTD SVG 1.1//EN"
  "http://www.w3.org/Graphics/SVG/1.1/DTD/svg11.dtd">
<!-- Created with matplotlib (https://matplotlib.org/) -->
<svg height="388.8pt" version="1.1" viewBox="0 0 576 388.8" width="576pt" xmlns="http://www.w3.org/2000/svg" xmlns:xlink="http://www.w3.org/1999/xlink">
 <defs>
  <style type="text/css">
*{stroke-linecap:butt;stroke-linejoin:round;}
  </style>
 </defs>
 <g id="figure_1">
  <g id="patch_1">
   <path d="M 0 388.8 
L 576 388.8 
L 576 0 
L 0 0 
z
" style="fill:#ffffff;"/>
  </g>
  <g id="axes_1">
   <g id="patch_2">
    <path d="M 36.403365 191.252284 
L 331.929285 191.252284 
L 331.929285 68.844238 
L 36.403365 68.844238 
z
" style="fill:#ffffff;"/>
   </g>
   <g id="patch_3">
    <path clip-path="url(#p879805be91)" d="M 49.836361 191.252284 
L 52.679916 191.252284 
L 52.679916 187.719584 
L 49.836361 187.719584 
z
" style="fill:#1f77b4;"/>
   </g>
   <g id="patch_4">
    <path clip-path="url(#p879805be91)" d="M 52.679916 191.252284 
L 55.52347 191.252284 
L 55.52347 187.719584 
L 52.679916 187.719584 
z
" style="fill:#1f77b4;"/>
   </g>
   <g id="patch_5">
    <path clip-path="url(#p879805be91)" d="M 55.52347 191.252284 
L 58.367025 191.252284 
L 58.367025 191.252284 
L 55.52347 191.252284 
z
" style="fill:#1f77b4;"/>
   </g>
   <g id="patch_6">
    <path clip-path="url(#p879805be91)" d="M 58.367025 191.252284 
L 61.210579 191.252284 
L 61.210579 191.252284 
L 58.367025 191.252284 
z
" style="fill:#1f77b4;"/>
   </g>
   <g id="patch_7">
    <path clip-path="url(#p879805be91)" d="M 61.210579 191.252284 
L 64.054134 191.252284 
L 64.054134 191.252284 
L 61.210579 191.252284 
z
" style="fill:#1f77b4;"/>
   </g>
   <g id="patch_8">
    <path clip-path="url(#p879805be91)" d="M 64.054134 191.252284 
L 66.897688 191.252284 
L 66.897688 191.252284 
L 64.054134 191.252284 
z
" style="fill:#1f77b4;"/>
   </g>
   <g id="patch_9">
    <path clip-path="url(#p879805be91)" d="M 66.897688 191.252284 
L 69.741243 191.252284 
L 69.741243 187.719584 
L 66.897688 187.719584 
z
" style="fill:#1f77b4;"/>
   </g>
   <g id="patch_10">
    <path clip-path="url(#p879805be91)" d="M 69.741243 191.252284 
L 72.584797 191.252284 
L 72.584797 191.252284 
L 69.741243 191.252284 
z
" style="fill:#1f77b4;"/>
   </g>
   <g id="patch_11">
    <path clip-path="url(#p879805be91)" d="M 72.584797 191.252284 
L 75.428352 191.252284 
L 75.428352 187.719584 
L 72.584797 187.719584 
z
" style="fill:#1f77b4;"/>
   </g>
   <g id="patch_12">
    <path clip-path="url(#p879805be91)" d="M 75.428352 191.252284 
L 78.271906 191.252284 
L 78.271906 187.719584 
L 75.428352 187.719584 
z
" style="fill:#1f77b4;"/>
   </g>
   <g id="patch_13">
    <path clip-path="url(#p879805be91)" d="M 78.271906 191.252284 
L 81.11546 191.252284 
L 81.11546 187.719584 
L 78.271906 187.719584 
z
" style="fill:#1f77b4;"/>
   </g>
   <g id="patch_14">
    <path clip-path="url(#p879805be91)" d="M 81.11546 191.252284 
L 83.959015 191.252284 
L 83.959015 191.252284 
L 81.11546 191.252284 
z
" style="fill:#1f77b4;"/>
   </g>
   <g id="patch_15">
    <path clip-path="url(#p879805be91)" d="M 83.959015 191.252284 
L 86.802569 191.252284 
L 86.802569 191.252284 
L 83.959015 191.252284 
z
" style="fill:#1f77b4;"/>
   </g>
   <g id="patch_16">
    <path clip-path="url(#p879805be91)" d="M 86.802569 191.252284 
L 89.646124 191.252284 
L 89.646124 187.719584 
L 86.802569 187.719584 
z
" style="fill:#1f77b4;"/>
   </g>
   <g id="patch_17">
    <path clip-path="url(#p879805be91)" d="M 89.646124 191.252284 
L 92.489678 191.252284 
L 92.489678 180.654185 
L 89.646124 180.654185 
z
" style="fill:#1f77b4;"/>
   </g>
   <g id="patch_18">
    <path clip-path="url(#p879805be91)" d="M 92.489678 191.252284 
L 95.333233 191.252284 
L 95.333233 173.588785 
L 92.489678 173.588785 
z
" style="fill:#1f77b4;"/>
   </g>
   <g id="patch_19">
    <path clip-path="url(#p879805be91)" d="M 95.333233 191.252284 
L 98.176787 191.252284 
L 98.176787 177.121485 
L 95.333233 177.121485 
z
" style="fill:#1f77b4;"/>
   </g>
   <g id="patch_20">
    <path clip-path="url(#p879805be91)" d="M 98.176787 191.252284 
L 101.020342 191.252284 
L 101.020342 170.056086 
L 98.176787 170.056086 
z
" style="fill:#1f77b4;"/>
   </g>
   <g id="patch_21">
    <path clip-path="url(#p879805be91)" d="M 101.020342 191.252284 
L 103.863896 191.252284 
L 103.863896 159.457986 
L 101.020342 159.457986 
z
" style="fill:#1f77b4;"/>
   </g>
   <g id="patch_22">
    <path clip-path="url(#p879805be91)" d="M 103.863896 191.252284 
L 106.707451 191.252284 
L 106.707451 162.990686 
L 103.863896 162.990686 
z
" style="fill:#1f77b4;"/>
   </g>
   <g id="patch_23">
    <path clip-path="url(#p879805be91)" d="M 106.707451 191.252284 
L 109.551005 191.252284 
L 109.551005 81.738592 
L 106.707451 81.738592 
z
" style="fill:#1f77b4;"/>
   </g>
   <g id="patch_24">
    <path clip-path="url(#p879805be91)" d="M 109.551005 191.252284 
L 112.39456 191.252284 
L 112.39456 92.336691 
L 109.551005 92.336691 
z
" style="fill:#1f77b4;"/>
   </g>
   <g id="patch_25">
    <path clip-path="url(#p879805be91)" d="M 112.39456 191.252284 
L 115.238114 191.252284 
L 115.238114 102.934791 
L 112.39456 102.934791 
z
" style="fill:#1f77b4;"/>
   </g>
   <g id="patch_26">
    <path clip-path="url(#p879805be91)" d="M 115.238114 191.252284 
L 118.081668 191.252284 
L 118.081668 102.934791 
L 115.238114 102.934791 
z
" style="fill:#1f77b4;"/>
   </g>
   <g id="patch_27">
    <path clip-path="url(#p879805be91)" d="M 118.081668 191.252284 
L 120.925223 191.252284 
L 120.925223 120.598289 
L 118.081668 120.598289 
z
" style="fill:#1f77b4;"/>
   </g>
   <g id="patch_28">
    <path clip-path="url(#p879805be91)" d="M 120.925223 191.252284 
L 123.768777 191.252284 
L 123.768777 92.336691 
L 120.925223 92.336691 
z
" style="fill:#1f77b4;"/>
   </g>
   <g id="patch_29">
    <path clip-path="url(#p879805be91)" d="M 123.768777 191.252284 
L 126.612332 191.252284 
L 126.612332 113.53289 
L 123.768777 113.53289 
z
" style="fill:#1f77b4;"/>
   </g>
   <g id="patch_30">
    <path clip-path="url(#p879805be91)" d="M 126.612332 191.252284 
L 129.455886 191.252284 
L 129.455886 106.46749 
L 126.612332 106.46749 
z
" style="fill:#1f77b4;"/>
   </g>
   <g id="patch_31">
    <path clip-path="url(#p879805be91)" d="M 129.455886 191.252284 
L 132.299441 191.252284 
L 132.299441 124.130989 
L 129.455886 124.130989 
z
" style="fill:#1f77b4;"/>
   </g>
   <g id="patch_32">
    <path clip-path="url(#p879805be91)" d="M 132.299441 191.252284 
L 135.142995 191.252284 
L 135.142995 113.53289 
L 132.299441 113.53289 
z
" style="fill:#1f77b4;"/>
   </g>
   <g id="patch_33">
    <path clip-path="url(#p879805be91)" d="M 135.142995 191.252284 
L 137.98655 191.252284 
L 137.98655 127.663689 
L 135.142995 127.663689 
z
" style="fill:#1f77b4;"/>
   </g>
   <g id="patch_34">
    <path clip-path="url(#p879805be91)" d="M 137.98655 191.252284 
L 140.830104 191.252284 
L 140.830104 155.925287 
L 137.98655 155.925287 
z
" style="fill:#1f77b4;"/>
   </g>
   <g id="patch_35">
    <path clip-path="url(#p879805be91)" d="M 140.830104 191.252284 
L 143.673659 191.252284 
L 143.673659 173.588785 
L 140.830104 173.588785 
z
" style="fill:#1f77b4;"/>
   </g>
   <g id="patch_36">
    <path clip-path="url(#p879805be91)" d="M 143.673659 191.252284 
L 146.517213 191.252284 
L 146.517213 166.523386 
L 143.673659 166.523386 
z
" style="fill:#1f77b4;"/>
   </g>
   <g id="patch_37">
    <path clip-path="url(#p879805be91)" d="M 146.517213 191.252284 
L 149.360768 191.252284 
L 149.360768 170.056086 
L 146.517213 170.056086 
z
" style="fill:#1f77b4;"/>
   </g>
   <g id="patch_38">
    <path clip-path="url(#p879805be91)" d="M 149.360768 191.252284 
L 152.204322 191.252284 
L 152.204322 162.990686 
L 149.360768 162.990686 
z
" style="fill:#1f77b4;"/>
   </g>
   <g id="patch_39">
    <path clip-path="url(#p879805be91)" d="M 152.204322 191.252284 
L 155.047876 191.252284 
L 155.047876 184.186885 
L 152.204322 184.186885 
z
" style="fill:#1f77b4;"/>
   </g>
   <g id="patch_40">
    <path clip-path="url(#p879805be91)" d="M 155.047876 191.252284 
L 157.891431 191.252284 
L 157.891431 159.457986 
L 155.047876 159.457986 
z
" style="fill:#1f77b4;"/>
   </g>
   <g id="patch_41">
    <path clip-path="url(#p879805be91)" d="M 157.891431 191.252284 
L 160.734985 191.252284 
L 160.734985 184.186885 
L 157.891431 184.186885 
z
" style="fill:#1f77b4;"/>
   </g>
   <g id="patch_42">
    <path clip-path="url(#p879805be91)" d="M 160.734985 191.252284 
L 163.57854 191.252284 
L 163.57854 173.588785 
L 160.734985 173.588785 
z
" style="fill:#1f77b4;"/>
   </g>
   <g id="patch_43">
    <path clip-path="url(#p879805be91)" d="M 163.57854 191.252284 
L 166.422094 191.252284 
L 166.422094 187.719584 
L 163.57854 187.719584 
z
" style="fill:#1f77b4;"/>
   </g>
   <g id="patch_44">
    <path clip-path="url(#p879805be91)" d="M 166.422094 191.252284 
L 169.265649 191.252284 
L 169.265649 170.056086 
L 166.422094 170.056086 
z
" style="fill:#1f77b4;"/>
   </g>
   <g id="patch_45">
    <path clip-path="url(#p879805be91)" d="M 169.265649 191.252284 
L 172.109203 191.252284 
L 172.109203 180.654185 
L 169.265649 180.654185 
z
" style="fill:#1f77b4;"/>
   </g>
   <g id="patch_46">
    <path clip-path="url(#p879805be91)" d="M 172.109203 191.252284 
L 174.952758 191.252284 
L 174.952758 180.654185 
L 172.109203 180.654185 
z
" style="fill:#1f77b4;"/>
   </g>
   <g id="patch_47">
    <path clip-path="url(#p879805be91)" d="M 174.952758 191.252284 
L 177.796312 191.252284 
L 177.796312 180.654185 
L 174.952758 180.654185 
z
" style="fill:#1f77b4;"/>
   </g>
   <g id="patch_48">
    <path clip-path="url(#p879805be91)" d="M 177.796312 191.252284 
L 180.639867 191.252284 
L 180.639867 177.121485 
L 177.796312 177.121485 
z
" style="fill:#1f77b4;"/>
   </g>
   <g id="patch_49">
    <path clip-path="url(#p879805be91)" d="M 180.639867 191.252284 
L 183.483421 191.252284 
L 183.483421 180.654185 
L 180.639867 180.654185 
z
" style="fill:#1f77b4;"/>
   </g>
   <g id="patch_50">
    <path clip-path="url(#p879805be91)" d="M 183.483421 191.252284 
L 186.326975 191.252284 
L 186.326975 166.523386 
L 183.483421 166.523386 
z
" style="fill:#1f77b4;"/>
   </g>
   <g id="patch_51">
    <path clip-path="url(#p879805be91)" d="M 186.326975 191.252284 
L 189.17053 191.252284 
L 189.17053 180.654185 
L 186.326975 180.654185 
z
" style="fill:#1f77b4;"/>
   </g>
   <g id="patch_52">
    <path clip-path="url(#p879805be91)" d="M 189.17053 191.252284 
L 192.014084 191.252284 
L 192.014084 184.186885 
L 189.17053 184.186885 
z
" style="fill:#1f77b4;"/>
   </g>
   <g id="patch_53">
    <path clip-path="url(#p879805be91)" d="M 192.014084 191.252284 
L 194.857639 191.252284 
L 194.857639 173.588785 
L 192.014084 173.588785 
z
" style="fill:#1f77b4;"/>
   </g>
   <g id="patch_54">
    <path clip-path="url(#p879805be91)" d="M 194.857639 191.252284 
L 197.701193 191.252284 
L 197.701193 187.719584 
L 194.857639 187.719584 
z
" style="fill:#1f77b4;"/>
   </g>
   <g id="patch_55">
    <path clip-path="url(#p879805be91)" d="M 197.701193 191.252284 
L 200.544748 191.252284 
L 200.544748 177.121485 
L 197.701193 177.121485 
z
" style="fill:#1f77b4;"/>
   </g>
   <g id="patch_56">
    <path clip-path="url(#p879805be91)" d="M 200.544748 191.252284 
L 203.388302 191.252284 
L 203.388302 191.252284 
L 200.544748 191.252284 
z
" style="fill:#1f77b4;"/>
   </g>
   <g id="patch_57">
    <path clip-path="url(#p879805be91)" d="M 203.388302 191.252284 
L 206.231857 191.252284 
L 206.231857 184.186885 
L 203.388302 184.186885 
z
" style="fill:#1f77b4;"/>
   </g>
   <g id="patch_58">
    <path clip-path="url(#p879805be91)" d="M 295.747853 191.252284 
L 298.591407 191.252284 
L 298.591407 173.588785 
L 295.747853 173.588785 
z
" style="fill:#ff0000;"/>
   </g>
   <g id="patch_59">
    <path clip-path="url(#p879805be91)" d="M 298.591407 191.252284 
L 301.434962 191.252284 
L 301.434962 166.523386 
L 298.591407 166.523386 
z
" style="fill:#ff0000;"/>
   </g>
   <g id="patch_60">
    <path clip-path="url(#p879805be91)" d="M 301.434962 191.252284 
L 304.278516 191.252284 
L 304.278516 180.654185 
L 301.434962 180.654185 
z
" style="fill:#ff0000;"/>
   </g>
   <g id="patch_61">
    <path clip-path="url(#p879805be91)" d="M 304.278516 191.252284 
L 307.122071 191.252284 
L 307.122071 124.130989 
L 304.278516 124.130989 
z
" style="fill:#ff0000;"/>
   </g>
   <g id="patch_62">
    <path clip-path="url(#p879805be91)" d="M 307.122071 191.252284 
L 309.965625 191.252284 
L 309.965625 74.673193 
L 307.122071 74.673193 
z
" style="fill:#ff0000;"/>
   </g>
   <g id="patch_63">
    <path clip-path="url(#p879805be91)" d="M 309.965625 191.252284 
L 312.80918 191.252284 
L 312.80918 124.130989 
L 309.965625 124.130989 
z
" style="fill:#ff0000;"/>
   </g>
   <g id="patch_64">
    <path clip-path="url(#p879805be91)" d="M 312.80918 191.252284 
L 315.652734 191.252284 
L 315.652734 177.121485 
L 312.80918 177.121485 
z
" style="fill:#ff0000;"/>
   </g>
   <g id="patch_65">
    <path clip-path="url(#p879805be91)" d="M 315.652734 191.252284 
L 318.496289 191.252284 
L 318.496289 184.186885 
L 315.652734 184.186885 
z
" style="fill:#ff0000;"/>
   </g>
   <g id="patch_66">
    <path clip-path="url(#p879805be91)" d="M 205.997768 191.252284 
L 208.841322 191.252284 
L 208.841322 173.588785 
L 205.997768 173.588785 
z
" style="fill:#ffa500;"/>
   </g>
   <g id="patch_67">
    <path clip-path="url(#p879805be91)" d="M 208.841322 191.252284 
L 211.684877 191.252284 
L 211.684877 180.654185 
L 208.841322 180.654185 
z
" style="fill:#ffa500;"/>
   </g>
   <g id="patch_68">
    <path clip-path="url(#p879805be91)" d="M 211.684877 191.252284 
L 214.528431 191.252284 
L 214.528431 177.121485 
L 211.684877 177.121485 
z
" style="fill:#ffa500;"/>
   </g>
   <g id="patch_69">
    <path clip-path="url(#p879805be91)" d="M 214.528431 191.252284 
L 217.371986 191.252284 
L 217.371986 177.121485 
L 214.528431 177.121485 
z
" style="fill:#ffa500;"/>
   </g>
   <g id="patch_70">
    <path clip-path="url(#p879805be91)" d="M 217.371986 191.252284 
L 220.21554 191.252284 
L 220.21554 180.654185 
L 217.371986 180.654185 
z
" style="fill:#ffa500;"/>
   </g>
   <g id="patch_71">
    <path clip-path="url(#p879805be91)" d="M 220.21554 191.252284 
L 223.059095 191.252284 
L 223.059095 170.056086 
L 220.21554 170.056086 
z
" style="fill:#ffa500;"/>
   </g>
   <g id="patch_72">
    <path clip-path="url(#p879805be91)" d="M 223.059095 191.252284 
L 225.902649 191.252284 
L 225.902649 184.186885 
L 223.059095 184.186885 
z
" style="fill:#ffa500;"/>
   </g>
   <g id="patch_73">
    <path clip-path="url(#p879805be91)" d="M 225.902649 191.252284 
L 228.746203 191.252284 
L 228.746203 184.186885 
L 225.902649 184.186885 
z
" style="fill:#ffa500;"/>
   </g>
   <g id="patch_74">
    <path clip-path="url(#p879805be91)" d="M 228.746203 191.252284 
L 231.589758 191.252284 
L 231.589758 173.588785 
L 228.746203 173.588785 
z
" style="fill:#ffa500;"/>
   </g>
   <g id="patch_75">
    <path clip-path="url(#p879805be91)" d="M 231.589758 191.252284 
L 234.433312 191.252284 
L 234.433312 180.654185 
L 231.589758 180.654185 
z
" style="fill:#ffa500;"/>
   </g>
   <g id="patch_76">
    <path clip-path="url(#p879805be91)" d="M 234.433312 191.252284 
L 237.276867 191.252284 
L 237.276867 177.121485 
L 234.433312 177.121485 
z
" style="fill:#ffa500;"/>
   </g>
   <g id="patch_77">
    <path clip-path="url(#p879805be91)" d="M 237.276867 191.252284 
L 240.120421 191.252284 
L 240.120421 184.186885 
L 237.276867 184.186885 
z
" style="fill:#ffa500;"/>
   </g>
   <g id="patch_78">
    <path clip-path="url(#p879805be91)" d="M 240.120421 191.252284 
L 242.963976 191.252284 
L 242.963976 177.121485 
L 240.120421 177.121485 
z
" style="fill:#ffa500;"/>
   </g>
   <g id="patch_79">
    <path clip-path="url(#p879805be91)" d="M 242.963976 191.252284 
L 245.80753 191.252284 
L 245.80753 184.186885 
L 242.963976 184.186885 
z
" style="fill:#ffa500;"/>
   </g>
   <g id="patch_80">
    <path clip-path="url(#p879805be91)" d="M 245.80753 191.252284 
L 248.651085 191.252284 
L 248.651085 187.719584 
L 245.80753 187.719584 
z
" style="fill:#ffa500;"/>
   </g>
   <g id="patch_81">
    <path clip-path="url(#p879805be91)" d="M 248.651085 191.252284 
L 251.494639 191.252284 
L 251.494639 177.121485 
L 248.651085 177.121485 
z
" style="fill:#ffa500;"/>
   </g>
   <g id="patch_82">
    <path clip-path="url(#p879805be91)" d="M 251.494639 191.252284 
L 254.338194 191.252284 
L 254.338194 180.654185 
L 251.494639 180.654185 
z
" style="fill:#ffa500;"/>
   </g>
   <g id="patch_83">
    <path clip-path="url(#p879805be91)" d="M 254.338194 191.252284 
L 257.181748 191.252284 
L 257.181748 184.186885 
L 254.338194 184.186885 
z
" style="fill:#ffa500;"/>
   </g>
   <g id="patch_84">
    <path clip-path="url(#p879805be91)" d="M 257.181748 191.252284 
L 260.025303 191.252284 
L 260.025303 184.186885 
L 257.181748 184.186885 
z
" style="fill:#ffa500;"/>
   </g>
   <g id="patch_85">
    <path clip-path="url(#p879805be91)" d="M 260.025303 191.252284 
L 262.868857 191.252284 
L 262.868857 184.186885 
L 260.025303 184.186885 
z
" style="fill:#ffa500;"/>
   </g>
   <g id="patch_86">
    <path clip-path="url(#p879805be91)" d="M 262.868857 191.252284 
L 265.712411 191.252284 
L 265.712411 180.654185 
L 262.868857 180.654185 
z
" style="fill:#ffa500;"/>
   </g>
   <g id="patch_87">
    <path clip-path="url(#p879805be91)" d="M 265.712411 191.252284 
L 268.555966 191.252284 
L 268.555966 170.056086 
L 265.712411 170.056086 
z
" style="fill:#ffa500;"/>
   </g>
   <g id="patch_88">
    <path clip-path="url(#p879805be91)" d="M 268.555966 191.252284 
L 271.39952 191.252284 
L 271.39952 173.588785 
L 268.555966 173.588785 
z
" style="fill:#ffa500;"/>
   </g>
   <g id="patch_89">
    <path clip-path="url(#p879805be91)" d="M 271.39952 191.252284 
L 274.243075 191.252284 
L 274.243075 187.719584 
L 271.39952 187.719584 
z
" style="fill:#ffa500;"/>
   </g>
   <g id="patch_90">
    <path clip-path="url(#p879805be91)" d="M 274.243075 191.252284 
L 277.086629 191.252284 
L 277.086629 184.186885 
L 274.243075 184.186885 
z
" style="fill:#ffa500;"/>
   </g>
   <g id="patch_91">
    <path clip-path="url(#p879805be91)" d="M 277.086629 191.252284 
L 279.930184 191.252284 
L 279.930184 166.523386 
L 277.086629 166.523386 
z
" style="fill:#ffa500;"/>
   </g>
   <g id="patch_92">
    <path clip-path="url(#p879805be91)" d="M 279.930184 191.252284 
L 282.773738 191.252284 
L 282.773738 173.588785 
L 279.930184 173.588785 
z
" style="fill:#ffa500;"/>
   </g>
   <g id="patch_93">
    <path clip-path="url(#p879805be91)" d="M 282.773738 191.252284 
L 285.617293 191.252284 
L 285.617293 173.588785 
L 282.773738 173.588785 
z
" style="fill:#ffa500;"/>
   </g>
   <g id="patch_94">
    <path clip-path="url(#p879805be91)" d="M 285.617293 191.252284 
L 288.460847 191.252284 
L 288.460847 162.990686 
L 285.617293 162.990686 
z
" style="fill:#ffa500;"/>
   </g>
   <g id="patch_95">
    <path clip-path="url(#p879805be91)" d="M 288.460847 191.252284 
L 291.304402 191.252284 
L 291.304402 173.588785 
L 288.460847 173.588785 
z
" style="fill:#ffa500;"/>
   </g>
   <g id="patch_96">
    <path clip-path="url(#p879805be91)" d="M 291.304402 191.252284 
L 294.147956 191.252284 
L 294.147956 187.719584 
L 291.304402 187.719584 
z
" style="fill:#ffa500;"/>
   </g>
   <g id="patch_97">
    <path clip-path="url(#p879805be91)" d="M 294.147956 191.252284 
L 296.991511 191.252284 
L 296.991511 180.654185 
L 294.147956 180.654185 
z
" style="fill:#ffa500;"/>
   </g>
   <g id="matplotlib.axis_1">
    <g id="xtick_1">
     <g id="line2d_1">
      <defs>
       <path d="M 0 0 
L 0 3.5 
" id="m396fd604d9" style="stroke:#000000;stroke-width:0.8;"/>
      </defs>
      <g>
       <use style="stroke:#000000;stroke-width:0.8;" x="49.836361" xlink:href="#m396fd604d9" y="191.252284"/>
      </g>
     </g>
     <g id="text_1">
      <!-- 0 -->
      <defs>
       <path d="M 31.78125 66.40625 
Q 24.171875 66.40625 20.328125 58.90625 
Q 16.5 51.421875 16.5 36.375 
Q 16.5 21.390625 20.328125 13.890625 
Q 24.171875 6.390625 31.78125 6.390625 
Q 39.453125 6.390625 43.28125 13.890625 
Q 47.125 21.390625 47.125 36.375 
Q 47.125 51.421875 43.28125 58.90625 
Q 39.453125 66.40625 31.78125 66.40625 
z
M 31.78125 74.21875 
Q 44.046875 74.21875 50.515625 64.515625 
Q 56.984375 54.828125 56.984375 36.375 
Q 56.984375 17.96875 50.515625 8.265625 
Q 44.046875 -1.421875 31.78125 -1.421875 
Q 19.53125 -1.421875 13.0625 8.265625 
Q 6.59375 17.96875 6.59375 36.375 
Q 6.59375 54.828125 13.0625 64.515625 
Q 19.53125 74.21875 31.78125 74.21875 
z
" id="DejaVuSans-48"/>
      </defs>
      <g transform="translate(46.655111 205.850722)scale(0.1 -0.1)">
       <use xlink:href="#DejaVuSans-48"/>
      </g>
     </g>
    </g>
    <g id="xtick_2">
     <g id="line2d_2">
      <g>
       <use style="stroke:#000000;stroke-width:0.8;" x="106.707451" xlink:href="#m396fd604d9" y="191.252284"/>
      </g>
     </g>
     <g id="text_2">
      <!-- 1 -->
      <defs>
       <path d="M 12.40625 8.296875 
L 28.515625 8.296875 
L 28.515625 63.921875 
L 10.984375 60.40625 
L 10.984375 69.390625 
L 28.421875 72.90625 
L 38.28125 72.90625 
L 38.28125 8.296875 
L 54.390625 8.296875 
L 54.390625 0 
L 12.40625 0 
z
" id="DejaVuSans-49"/>
      </defs>
      <g transform="translate(103.526201 205.850722)scale(0.1 -0.1)">
       <use xlink:href="#DejaVuSans-49"/>
      </g>
     </g>
    </g>
    <g id="xtick_3">
     <g id="line2d_3">
      <g>
       <use style="stroke:#000000;stroke-width:0.8;" x="163.57854" xlink:href="#m396fd604d9" y="191.252284"/>
      </g>
     </g>
     <g id="text_3">
      <!-- 2 -->
      <defs>
       <path d="M 19.1875 8.296875 
L 53.609375 8.296875 
L 53.609375 0 
L 7.328125 0 
L 7.328125 8.296875 
Q 12.9375 14.109375 22.625 23.890625 
Q 32.328125 33.6875 34.8125 36.53125 
Q 39.546875 41.84375 41.421875 45.53125 
Q 43.3125 49.21875 43.3125 52.78125 
Q 43.3125 58.59375 39.234375 62.25 
Q 35.15625 65.921875 28.609375 65.921875 
Q 23.96875 65.921875 18.8125 64.3125 
Q 13.671875 62.703125 7.8125 59.421875 
L 7.8125 69.390625 
Q 13.765625 71.78125 18.9375 73 
Q 24.125 74.21875 28.421875 74.21875 
Q 39.75 74.21875 46.484375 68.546875 
Q 53.21875 62.890625 53.21875 53.421875 
Q 53.21875 48.921875 51.53125 44.890625 
Q 49.859375 40.875 45.40625 35.40625 
Q 44.1875 33.984375 37.640625 27.21875 
Q 31.109375 20.453125 19.1875 8.296875 
z
" id="DejaVuSans-50"/>
      </defs>
      <g transform="translate(160.39729 205.850722)scale(0.1 -0.1)">
       <use xlink:href="#DejaVuSans-50"/>
      </g>
     </g>
    </g>
    <g id="xtick_4">
     <g id="line2d_4">
      <g>
       <use style="stroke:#000000;stroke-width:0.8;" x="220.449629" xlink:href="#m396fd604d9" y="191.252284"/>
      </g>
     </g>
     <g id="text_4">
      <!-- 3 -->
      <defs>
       <path d="M 40.578125 39.3125 
Q 47.65625 37.796875 51.625 33 
Q 55.609375 28.21875 55.609375 21.1875 
Q 55.609375 10.40625 48.1875 4.484375 
Q 40.765625 -1.421875 27.09375 -1.421875 
Q 22.515625 -1.421875 17.65625 -0.515625 
Q 12.796875 0.390625 7.625 2.203125 
L 7.625 11.71875 
Q 11.71875 9.328125 16.59375 8.109375 
Q 21.484375 6.890625 26.8125 6.890625 
Q 36.078125 6.890625 40.9375 10.546875 
Q 45.796875 14.203125 45.796875 21.1875 
Q 45.796875 27.640625 41.28125 31.265625 
Q 36.765625 34.90625 28.71875 34.90625 
L 20.21875 34.90625 
L 20.21875 43.015625 
L 29.109375 43.015625 
Q 36.375 43.015625 40.234375 45.921875 
Q 44.09375 48.828125 44.09375 54.296875 
Q 44.09375 59.90625 40.109375 62.90625 
Q 36.140625 65.921875 28.71875 65.921875 
Q 24.65625 65.921875 20.015625 65.03125 
Q 15.375 64.15625 9.8125 62.3125 
L 9.8125 71.09375 
Q 15.4375 72.65625 20.34375 73.4375 
Q 25.25 74.21875 29.59375 74.21875 
Q 40.828125 74.21875 47.359375 69.109375 
Q 53.90625 64.015625 53.90625 55.328125 
Q 53.90625 49.265625 50.4375 45.09375 
Q 46.96875 40.921875 40.578125 39.3125 
z
" id="DejaVuSans-51"/>
      </defs>
      <g transform="translate(217.268379 205.850722)scale(0.1 -0.1)">
       <use xlink:href="#DejaVuSans-51"/>
      </g>
     </g>
    </g>
    <g id="xtick_5">
     <g id="line2d_5">
      <g>
       <use style="stroke:#000000;stroke-width:0.8;" x="277.320718" xlink:href="#m396fd604d9" y="191.252284"/>
      </g>
     </g>
     <g id="text_5">
      <!-- 4 -->
      <defs>
       <path d="M 37.796875 64.3125 
L 12.890625 25.390625 
L 37.796875 25.390625 
z
M 35.203125 72.90625 
L 47.609375 72.90625 
L 47.609375 25.390625 
L 58.015625 25.390625 
L 58.015625 17.1875 
L 47.609375 17.1875 
L 47.609375 0 
L 37.796875 0 
L 37.796875 17.1875 
L 4.890625 17.1875 
L 4.890625 26.703125 
z
" id="DejaVuSans-52"/>
      </defs>
      <g transform="translate(274.139468 205.850722)scale(0.1 -0.1)">
       <use xlink:href="#DejaVuSans-52"/>
      </g>
     </g>
    </g>
    <g id="text_6">
     <!-- log(RFU) -->
     <defs>
      <path d="M 9.421875 75.984375 
L 18.40625 75.984375 
L 18.40625 0 
L 9.421875 0 
z
" id="DejaVuSans-108"/>
      <path d="M 30.609375 48.390625 
Q 23.390625 48.390625 19.1875 42.75 
Q 14.984375 37.109375 14.984375 27.296875 
Q 14.984375 17.484375 19.15625 11.84375 
Q 23.34375 6.203125 30.609375 6.203125 
Q 37.796875 6.203125 41.984375 11.859375 
Q 46.1875 17.53125 46.1875 27.296875 
Q 46.1875 37.015625 41.984375 42.703125 
Q 37.796875 48.390625 30.609375 48.390625 
z
M 30.609375 56 
Q 42.328125 56 49.015625 48.375 
Q 55.71875 40.765625 55.71875 27.296875 
Q 55.71875 13.875 49.015625 6.21875 
Q 42.328125 -1.421875 30.609375 -1.421875 
Q 18.84375 -1.421875 12.171875 6.21875 
Q 5.515625 13.875 5.515625 27.296875 
Q 5.515625 40.765625 12.171875 48.375 
Q 18.84375 56 30.609375 56 
z
" id="DejaVuSans-111"/>
      <path d="M 45.40625 27.984375 
Q 45.40625 37.75 41.375 43.109375 
Q 37.359375 48.484375 30.078125 48.484375 
Q 22.859375 48.484375 18.828125 43.109375 
Q 14.796875 37.75 14.796875 27.984375 
Q 14.796875 18.265625 18.828125 12.890625 
Q 22.859375 7.515625 30.078125 7.515625 
Q 37.359375 7.515625 41.375 12.890625 
Q 45.40625 18.265625 45.40625 27.984375 
z
M 54.390625 6.78125 
Q 54.390625 -7.171875 48.1875 -13.984375 
Q 42 -20.796875 29.203125 -20.796875 
Q 24.46875 -20.796875 20.265625 -20.09375 
Q 16.0625 -19.390625 12.109375 -17.921875 
L 12.109375 -9.1875 
Q 16.0625 -11.328125 19.921875 -12.34375 
Q 23.78125 -13.375 27.78125 -13.375 
Q 36.625 -13.375 41.015625 -8.765625 
Q 45.40625 -4.15625 45.40625 5.171875 
L 45.40625 9.625 
Q 42.625 4.78125 38.28125 2.390625 
Q 33.9375 0 27.875 0 
Q 17.828125 0 11.671875 7.65625 
Q 5.515625 15.328125 5.515625 27.984375 
Q 5.515625 40.671875 11.671875 48.328125 
Q 17.828125 56 27.875 56 
Q 33.9375 56 38.28125 53.609375 
Q 42.625 51.21875 45.40625 46.390625 
L 45.40625 54.6875 
L 54.390625 54.6875 
z
" id="DejaVuSans-103"/>
      <path d="M 31 75.875 
Q 24.46875 64.65625 21.28125 53.65625 
Q 18.109375 42.671875 18.109375 31.390625 
Q 18.109375 20.125 21.3125 9.0625 
Q 24.515625 -2 31 -13.1875 
L 23.1875 -13.1875 
Q 15.875 -1.703125 12.234375 9.375 
Q 8.59375 20.453125 8.59375 31.390625 
Q 8.59375 42.28125 12.203125 53.3125 
Q 15.828125 64.359375 23.1875 75.875 
z
" id="DejaVuSans-40"/>
      <path d="M 44.390625 34.1875 
Q 47.5625 33.109375 50.5625 29.59375 
Q 53.5625 26.078125 56.59375 19.921875 
L 66.609375 0 
L 56 0 
L 46.6875 18.703125 
Q 43.0625 26.03125 39.671875 28.421875 
Q 36.28125 30.8125 30.421875 30.8125 
L 19.671875 30.8125 
L 19.671875 0 
L 9.8125 0 
L 9.8125 72.90625 
L 32.078125 72.90625 
Q 44.578125 72.90625 50.734375 67.671875 
Q 56.890625 62.453125 56.890625 51.90625 
Q 56.890625 45.015625 53.6875 40.46875 
Q 50.484375 35.9375 44.390625 34.1875 
z
M 19.671875 64.796875 
L 19.671875 38.921875 
L 32.078125 38.921875 
Q 39.203125 38.921875 42.84375 42.21875 
Q 46.484375 45.515625 46.484375 51.90625 
Q 46.484375 58.296875 42.84375 61.546875 
Q 39.203125 64.796875 32.078125 64.796875 
z
" id="DejaVuSans-82"/>
      <path d="M 9.8125 72.90625 
L 51.703125 72.90625 
L 51.703125 64.59375 
L 19.671875 64.59375 
L 19.671875 43.109375 
L 48.578125 43.109375 
L 48.578125 34.8125 
L 19.671875 34.8125 
L 19.671875 0 
L 9.8125 0 
z
" id="DejaVuSans-70"/>
      <path d="M 8.6875 72.90625 
L 18.609375 72.90625 
L 18.609375 28.609375 
Q 18.609375 16.890625 22.84375 11.734375 
Q 27.09375 6.59375 36.625 6.59375 
Q 46.09375 6.59375 50.34375 11.734375 
Q 54.59375 16.890625 54.59375 28.609375 
L 54.59375 72.90625 
L 64.5 72.90625 
L 64.5 27.390625 
Q 64.5 13.140625 57.4375 5.859375 
Q 50.390625 -1.421875 36.625 -1.421875 
Q 22.796875 -1.421875 15.734375 5.859375 
Q 8.6875 13.140625 8.6875 27.390625 
z
" id="DejaVuSans-85"/>
      <path d="M 8.015625 75.875 
L 15.828125 75.875 
Q 23.140625 64.359375 26.78125 53.3125 
Q 30.421875 42.28125 30.421875 31.390625 
Q 30.421875 20.453125 26.78125 9.375 
Q 23.140625 -1.703125 15.828125 -13.1875 
L 8.015625 -13.1875 
Q 14.5 -2 17.703125 9.0625 
Q 20.90625 20.125 20.90625 31.390625 
Q 20.90625 42.671875 17.703125 53.65625 
Q 14.5 64.65625 8.015625 75.875 
z
" id="DejaVuSans-41"/>
     </defs>
     <g transform="translate(162.632731 219.528847)scale(0.1 -0.1)">
      <use xlink:href="#DejaVuSans-108"/>
      <use x="27.783203" xlink:href="#DejaVuSans-111"/>
      <use x="88.964844" xlink:href="#DejaVuSans-103"/>
      <use x="152.441406" xlink:href="#DejaVuSans-40"/>
      <use x="191.455078" xlink:href="#DejaVuSans-82"/>
      <use x="260.9375" xlink:href="#DejaVuSans-70"/>
      <use x="318.457031" xlink:href="#DejaVuSans-85"/>
      <use x="391.650391" xlink:href="#DejaVuSans-41"/>
     </g>
    </g>
   </g>
   <g id="matplotlib.axis_2">
    <g id="ytick_1">
     <g id="line2d_6">
      <defs>
       <path d="M 0 0 
L -3.5 0 
" id="mbccbead2df" style="stroke:#000000;stroke-width:0.8;"/>
      </defs>
      <g>
       <use style="stroke:#000000;stroke-width:0.8;" x="36.403365" xlink:href="#mbccbead2df" y="191.252284"/>
      </g>
     </g>
     <g id="text_7">
      <!-- 0 -->
      <g transform="translate(23.040865 195.051503)scale(0.1 -0.1)">
       <use xlink:href="#DejaVuSans-48"/>
      </g>
     </g>
    </g>
    <g id="ytick_2">
     <g id="line2d_7">
      <g>
       <use style="stroke:#000000;stroke-width:0.8;" x="36.403365" xlink:href="#mbccbead2df" y="155.925287"/>
      </g>
     </g>
     <g id="text_8">
      <!-- 10 -->
      <g transform="translate(16.678365 159.724505)scale(0.1 -0.1)">
       <use xlink:href="#DejaVuSans-49"/>
       <use x="63.623047" xlink:href="#DejaVuSans-48"/>
      </g>
     </g>
    </g>
    <g id="ytick_3">
     <g id="line2d_8">
      <g>
       <use style="stroke:#000000;stroke-width:0.8;" x="36.403365" xlink:href="#mbccbead2df" y="120.598289"/>
      </g>
     </g>
     <g id="text_9">
      <!-- 20 -->
      <g transform="translate(16.678365 124.397508)scale(0.1 -0.1)">
       <use xlink:href="#DejaVuSans-50"/>
       <use x="63.623047" xlink:href="#DejaVuSans-48"/>
      </g>
     </g>
    </g>
    <g id="ytick_4">
     <g id="line2d_9">
      <g>
       <use style="stroke:#000000;stroke-width:0.8;" x="36.403365" xlink:href="#mbccbead2df" y="85.271292"/>
      </g>
     </g>
     <g id="text_10">
      <!-- 30 -->
      <g transform="translate(16.678365 89.070511)scale(0.1 -0.1)">
       <use xlink:href="#DejaVuSans-51"/>
       <use x="63.623047" xlink:href="#DejaVuSans-48"/>
      </g>
     </g>
    </g>
    <g id="text_11">
     <!-- Counts -->
     <defs>
      <path d="M 64.40625 67.28125 
L 64.40625 56.890625 
Q 59.421875 61.53125 53.78125 63.8125 
Q 48.140625 66.109375 41.796875 66.109375 
Q 29.296875 66.109375 22.65625 58.46875 
Q 16.015625 50.828125 16.015625 36.375 
Q 16.015625 21.96875 22.65625 14.328125 
Q 29.296875 6.6875 41.796875 6.6875 
Q 48.140625 6.6875 53.78125 8.984375 
Q 59.421875 11.28125 64.40625 15.921875 
L 64.40625 5.609375 
Q 59.234375 2.09375 53.4375 0.328125 
Q 47.65625 -1.421875 41.21875 -1.421875 
Q 24.65625 -1.421875 15.125 8.703125 
Q 5.609375 18.84375 5.609375 36.375 
Q 5.609375 53.953125 15.125 64.078125 
Q 24.65625 74.21875 41.21875 74.21875 
Q 47.75 74.21875 53.53125 72.484375 
Q 59.328125 70.75 64.40625 67.28125 
z
" id="DejaVuSans-67"/>
      <path d="M 8.5 21.578125 
L 8.5 54.6875 
L 17.484375 54.6875 
L 17.484375 21.921875 
Q 17.484375 14.15625 20.5 10.265625 
Q 23.53125 6.390625 29.59375 6.390625 
Q 36.859375 6.390625 41.078125 11.03125 
Q 45.3125 15.671875 45.3125 23.6875 
L 45.3125 54.6875 
L 54.296875 54.6875 
L 54.296875 0 
L 45.3125 0 
L 45.3125 8.40625 
Q 42.046875 3.421875 37.71875 1 
Q 33.40625 -1.421875 27.6875 -1.421875 
Q 18.265625 -1.421875 13.375 4.4375 
Q 8.5 10.296875 8.5 21.578125 
z
M 31.109375 56 
z
" id="DejaVuSans-117"/>
      <path d="M 54.890625 33.015625 
L 54.890625 0 
L 45.90625 0 
L 45.90625 32.71875 
Q 45.90625 40.484375 42.875 44.328125 
Q 39.84375 48.1875 33.796875 48.1875 
Q 26.515625 48.1875 22.3125 43.546875 
Q 18.109375 38.921875 18.109375 30.90625 
L 18.109375 0 
L 9.078125 0 
L 9.078125 54.6875 
L 18.109375 54.6875 
L 18.109375 46.1875 
Q 21.34375 51.125 25.703125 53.5625 
Q 30.078125 56 35.796875 56 
Q 45.21875 56 50.046875 50.171875 
Q 54.890625 44.34375 54.890625 33.015625 
z
" id="DejaVuSans-110"/>
      <path d="M 18.3125 70.21875 
L 18.3125 54.6875 
L 36.8125 54.6875 
L 36.8125 47.703125 
L 18.3125 47.703125 
L 18.3125 18.015625 
Q 18.3125 11.328125 20.140625 9.421875 
Q 21.96875 7.515625 27.59375 7.515625 
L 36.8125 7.515625 
L 36.8125 0 
L 27.59375 0 
Q 17.1875 0 13.234375 3.875 
Q 9.28125 7.765625 9.28125 18.015625 
L 9.28125 47.703125 
L 2.6875 47.703125 
L 2.6875 54.6875 
L 9.28125 54.6875 
L 9.28125 70.21875 
z
" id="DejaVuSans-116"/>
      <path d="M 44.28125 53.078125 
L 44.28125 44.578125 
Q 40.484375 46.53125 36.375 47.5 
Q 32.28125 48.484375 27.875 48.484375 
Q 21.1875 48.484375 17.84375 46.4375 
Q 14.5 44.390625 14.5 40.28125 
Q 14.5 37.15625 16.890625 35.375 
Q 19.28125 33.59375 26.515625 31.984375 
L 29.59375 31.296875 
Q 39.15625 29.25 43.1875 25.515625 
Q 47.21875 21.78125 47.21875 15.09375 
Q 47.21875 7.46875 41.1875 3.015625 
Q 35.15625 -1.421875 24.609375 -1.421875 
Q 20.21875 -1.421875 15.453125 -0.5625 
Q 10.6875 0.296875 5.421875 2 
L 5.421875 11.28125 
Q 10.40625 8.6875 15.234375 7.390625 
Q 20.0625 6.109375 24.8125 6.109375 
Q 31.15625 6.109375 34.5625 8.28125 
Q 37.984375 10.453125 37.984375 14.40625 
Q 37.984375 18.0625 35.515625 20.015625 
Q 33.0625 21.96875 24.703125 23.78125 
L 21.578125 24.515625 
Q 13.234375 26.265625 9.515625 29.90625 
Q 5.8125 33.546875 5.8125 39.890625 
Q 5.8125 47.609375 11.28125 51.796875 
Q 16.75 56 26.8125 56 
Q 31.78125 56 36.171875 55.265625 
Q 40.578125 54.546875 44.28125 53.078125 
z
" id="DejaVuSans-115"/>
     </defs>
     <g transform="translate(10.598678 147.501386)rotate(-90)scale(0.1 -0.1)">
      <use xlink:href="#DejaVuSans-67"/>
      <use x="69.824219" xlink:href="#DejaVuSans-111"/>
      <use x="131.005859" xlink:href="#DejaVuSans-117"/>
      <use x="194.384766" xlink:href="#DejaVuSans-110"/>
      <use x="257.763672" xlink:href="#DejaVuSans-116"/>
      <use x="296.972656" xlink:href="#DejaVuSans-115"/>
     </g>
    </g>
   </g>
   <g id="patch_98">
    <path d="M 36.403365 191.252284 
L 36.403365 68.844238 
" style="fill:none;stroke:#000000;stroke-linecap:square;stroke-linejoin:miter;stroke-width:0.8;"/>
   </g>
   <g id="patch_99">
    <path d="M 331.929285 191.252284 
L 331.929285 68.844238 
" style="fill:none;stroke:#000000;stroke-linecap:square;stroke-linejoin:miter;stroke-width:0.8;"/>
   </g>
   <g id="patch_100">
    <path d="M 36.403365 191.252284 
L 331.929285 191.252284 
" style="fill:none;stroke:#000000;stroke-linecap:square;stroke-linejoin:miter;stroke-width:0.8;"/>
   </g>
   <g id="patch_101">
    <path d="M 36.403365 68.844238 
L 331.929285 68.844238 
" style="fill:none;stroke:#000000;stroke-linecap:square;stroke-linejoin:miter;stroke-width:0.8;"/>
   </g>
  </g>
  <g id="axes_2">
   <g id="patch_102">
    <path d="M 36.403365 353.507885 
L 230.652485 353.507885 
L 230.652485 231.099839 
L 36.403365 231.099839 
z
" style="fill:#ffffff;"/>
   </g>
   <g id="patch_103">
    <path clip-path="url(#p1015dc28e6)" d="M 36.403365 347.943883 
L 132.086036 347.943883 
L 132.086036 298.486087 
L 36.403365 298.486087 
z
" style="fill:#1f77b4;"/>
   </g>
   <g id="patch_104">
    <path clip-path="url(#p1015dc28e6)" d="M 36.403365 286.121637 
L 221.402527 286.121637 
L 221.402527 236.663841 
L 36.403365 236.663841 
z
" style="fill:#1f77b4;"/>
   </g>
   <g id="matplotlib.axis_3">
    <g id="xtick_6">
     <g id="line2d_10">
      <g>
       <use style="stroke:#000000;stroke-width:0.8;" x="36.403365" xlink:href="#m396fd604d9" y="353.507885"/>
      </g>
     </g>
     <g id="text_12">
      <!-- 0 -->
      <g transform="translate(33.222115 368.106323)scale(0.1 -0.1)">
       <use xlink:href="#DejaVuSans-48"/>
      </g>
     </g>
    </g>
    <g id="xtick_7">
     <g id="line2d_11">
      <g>
       <use style="stroke:#000000;stroke-width:0.8;" x="75.655376" xlink:href="#m396fd604d9" y="353.507885"/>
      </g>
     </g>
     <g id="text_13">
      <!-- 2 -->
      <g transform="translate(72.474126 368.106323)scale(0.1 -0.1)">
       <use xlink:href="#DejaVuSans-50"/>
      </g>
     </g>
    </g>
    <g id="xtick_8">
     <g id="line2d_12">
      <g>
       <use style="stroke:#000000;stroke-width:0.8;" x="114.907387" xlink:href="#m396fd604d9" y="353.507885"/>
      </g>
     </g>
     <g id="text_14">
      <!-- 4 -->
      <g transform="translate(111.726137 368.106323)scale(0.1 -0.1)">
       <use xlink:href="#DejaVuSans-52"/>
      </g>
     </g>
    </g>
    <g id="xtick_9">
     <g id="line2d_13">
      <g>
       <use style="stroke:#000000;stroke-width:0.8;" x="154.159399" xlink:href="#m396fd604d9" y="353.507885"/>
      </g>
     </g>
     <g id="text_15">
      <!-- 6 -->
      <defs>
       <path d="M 33.015625 40.375 
Q 26.375 40.375 22.484375 35.828125 
Q 18.609375 31.296875 18.609375 23.390625 
Q 18.609375 15.53125 22.484375 10.953125 
Q 26.375 6.390625 33.015625 6.390625 
Q 39.65625 6.390625 43.53125 10.953125 
Q 47.40625 15.53125 47.40625 23.390625 
Q 47.40625 31.296875 43.53125 35.828125 
Q 39.65625 40.375 33.015625 40.375 
z
M 52.59375 71.296875 
L 52.59375 62.3125 
Q 48.875 64.0625 45.09375 64.984375 
Q 41.3125 65.921875 37.59375 65.921875 
Q 27.828125 65.921875 22.671875 59.328125 
Q 17.53125 52.734375 16.796875 39.40625 
Q 19.671875 43.65625 24.015625 45.921875 
Q 28.375 48.1875 33.59375 48.1875 
Q 44.578125 48.1875 50.953125 41.515625 
Q 57.328125 34.859375 57.328125 23.390625 
Q 57.328125 12.15625 50.6875 5.359375 
Q 44.046875 -1.421875 33.015625 -1.421875 
Q 20.359375 -1.421875 13.671875 8.265625 
Q 6.984375 17.96875 6.984375 36.375 
Q 6.984375 53.65625 15.1875 63.9375 
Q 23.390625 74.21875 37.203125 74.21875 
Q 40.921875 74.21875 44.703125 73.484375 
Q 48.484375 72.75 52.59375 71.296875 
z
" id="DejaVuSans-54"/>
      </defs>
      <g transform="translate(150.978149 368.106323)scale(0.1 -0.1)">
       <use xlink:href="#DejaVuSans-54"/>
      </g>
     </g>
    </g>
    <g id="xtick_10">
     <g id="line2d_14">
      <g>
       <use style="stroke:#000000;stroke-width:0.8;" x="193.41141" xlink:href="#m396fd604d9" y="353.507885"/>
      </g>
     </g>
     <g id="text_16">
      <!-- 8 -->
      <defs>
       <path d="M 31.78125 34.625 
Q 24.75 34.625 20.71875 30.859375 
Q 16.703125 27.09375 16.703125 20.515625 
Q 16.703125 13.921875 20.71875 10.15625 
Q 24.75 6.390625 31.78125 6.390625 
Q 38.8125 6.390625 42.859375 10.171875 
Q 46.921875 13.96875 46.921875 20.515625 
Q 46.921875 27.09375 42.890625 30.859375 
Q 38.875 34.625 31.78125 34.625 
z
M 21.921875 38.8125 
Q 15.578125 40.375 12.03125 44.71875 
Q 8.5 49.078125 8.5 55.328125 
Q 8.5 64.0625 14.71875 69.140625 
Q 20.953125 74.21875 31.78125 74.21875 
Q 42.671875 74.21875 48.875 69.140625 
Q 55.078125 64.0625 55.078125 55.328125 
Q 55.078125 49.078125 51.53125 44.71875 
Q 48 40.375 41.703125 38.8125 
Q 48.828125 37.15625 52.796875 32.3125 
Q 56.78125 27.484375 56.78125 20.515625 
Q 56.78125 9.90625 50.3125 4.234375 
Q 43.84375 -1.421875 31.78125 -1.421875 
Q 19.734375 -1.421875 13.25 4.234375 
Q 6.78125 9.90625 6.78125 20.515625 
Q 6.78125 27.484375 10.78125 32.3125 
Q 14.796875 37.15625 21.921875 38.8125 
z
M 18.3125 54.390625 
Q 18.3125 48.734375 21.84375 45.5625 
Q 25.390625 42.390625 31.78125 42.390625 
Q 38.140625 42.390625 41.71875 45.5625 
Q 45.3125 48.734375 45.3125 54.390625 
Q 45.3125 60.0625 41.71875 63.234375 
Q 38.140625 66.40625 31.78125 66.40625 
Q 25.390625 66.40625 21.84375 63.234375 
Q 18.3125 60.0625 18.3125 54.390625 
z
" id="DejaVuSans-56"/>
      </defs>
      <g transform="translate(190.23016 368.106323)scale(0.1 -0.1)">
       <use xlink:href="#DejaVuSans-56"/>
      </g>
     </g>
    </g>
    <g id="text_17">
     <!-- Model Coefficient -->
     <defs>
      <path d="M 9.8125 72.90625 
L 24.515625 72.90625 
L 43.109375 23.296875 
L 61.8125 72.90625 
L 76.515625 72.90625 
L 76.515625 0 
L 66.890625 0 
L 66.890625 64.015625 
L 48.09375 14.015625 
L 38.1875 14.015625 
L 19.390625 64.015625 
L 19.390625 0 
L 9.8125 0 
z
" id="DejaVuSans-77"/>
      <path d="M 45.40625 46.390625 
L 45.40625 75.984375 
L 54.390625 75.984375 
L 54.390625 0 
L 45.40625 0 
L 45.40625 8.203125 
Q 42.578125 3.328125 38.25 0.953125 
Q 33.9375 -1.421875 27.875 -1.421875 
Q 17.96875 -1.421875 11.734375 6.484375 
Q 5.515625 14.40625 5.515625 27.296875 
Q 5.515625 40.1875 11.734375 48.09375 
Q 17.96875 56 27.875 56 
Q 33.9375 56 38.25 53.625 
Q 42.578125 51.265625 45.40625 46.390625 
z
M 14.796875 27.296875 
Q 14.796875 17.390625 18.875 11.75 
Q 22.953125 6.109375 30.078125 6.109375 
Q 37.203125 6.109375 41.296875 11.75 
Q 45.40625 17.390625 45.40625 27.296875 
Q 45.40625 37.203125 41.296875 42.84375 
Q 37.203125 48.484375 30.078125 48.484375 
Q 22.953125 48.484375 18.875 42.84375 
Q 14.796875 37.203125 14.796875 27.296875 
z
" id="DejaVuSans-100"/>
      <path d="M 56.203125 29.59375 
L 56.203125 25.203125 
L 14.890625 25.203125 
Q 15.484375 15.921875 20.484375 11.0625 
Q 25.484375 6.203125 34.421875 6.203125 
Q 39.59375 6.203125 44.453125 7.46875 
Q 49.3125 8.734375 54.109375 11.28125 
L 54.109375 2.78125 
Q 49.265625 0.734375 44.1875 -0.34375 
Q 39.109375 -1.421875 33.890625 -1.421875 
Q 20.796875 -1.421875 13.15625 6.1875 
Q 5.515625 13.8125 5.515625 26.8125 
Q 5.515625 40.234375 12.765625 48.109375 
Q 20.015625 56 32.328125 56 
Q 43.359375 56 49.78125 48.890625 
Q 56.203125 41.796875 56.203125 29.59375 
z
M 47.21875 32.234375 
Q 47.125 39.59375 43.09375 43.984375 
Q 39.0625 48.390625 32.421875 48.390625 
Q 24.90625 48.390625 20.390625 44.140625 
Q 15.875 39.890625 15.1875 32.171875 
z
" id="DejaVuSans-101"/>
      <path id="DejaVuSans-32"/>
      <path d="M 37.109375 75.984375 
L 37.109375 68.5 
L 28.515625 68.5 
Q 23.6875 68.5 21.796875 66.546875 
Q 19.921875 64.59375 19.921875 59.515625 
L 19.921875 54.6875 
L 34.71875 54.6875 
L 34.71875 47.703125 
L 19.921875 47.703125 
L 19.921875 0 
L 10.890625 0 
L 10.890625 47.703125 
L 2.296875 47.703125 
L 2.296875 54.6875 
L 10.890625 54.6875 
L 10.890625 58.5 
Q 10.890625 67.625 15.140625 71.796875 
Q 19.390625 75.984375 28.609375 75.984375 
z
" id="DejaVuSans-102"/>
      <path d="M 9.421875 54.6875 
L 18.40625 54.6875 
L 18.40625 0 
L 9.421875 0 
z
M 9.421875 75.984375 
L 18.40625 75.984375 
L 18.40625 64.59375 
L 9.421875 64.59375 
z
" id="DejaVuSans-105"/>
      <path d="M 48.78125 52.59375 
L 48.78125 44.1875 
Q 44.96875 46.296875 41.140625 47.34375 
Q 37.3125 48.390625 33.40625 48.390625 
Q 24.65625 48.390625 19.8125 42.84375 
Q 14.984375 37.3125 14.984375 27.296875 
Q 14.984375 17.28125 19.8125 11.734375 
Q 24.65625 6.203125 33.40625 6.203125 
Q 37.3125 6.203125 41.140625 7.25 
Q 44.96875 8.296875 48.78125 10.40625 
L 48.78125 2.09375 
Q 45.015625 0.34375 40.984375 -0.53125 
Q 36.96875 -1.421875 32.421875 -1.421875 
Q 20.0625 -1.421875 12.78125 6.34375 
Q 5.515625 14.109375 5.515625 27.296875 
Q 5.515625 40.671875 12.859375 48.328125 
Q 20.21875 56 33.015625 56 
Q 37.15625 56 41.109375 55.140625 
Q 45.0625 54.296875 48.78125 52.59375 
z
" id="DejaVuSans-99"/>
     </defs>
     <g transform="translate(81.34855 383.304135)scale(0.12 -0.12)">
      <use xlink:href="#DejaVuSans-77"/>
      <use x="86.279297" xlink:href="#DejaVuSans-111"/>
      <use x="147.460938" xlink:href="#DejaVuSans-100"/>
      <use x="210.9375" xlink:href="#DejaVuSans-101"/>
      <use x="272.460938" xlink:href="#DejaVuSans-108"/>
      <use x="300.244141" xlink:href="#DejaVuSans-32"/>
      <use x="332.03125" xlink:href="#DejaVuSans-67"/>
      <use x="401.855469" xlink:href="#DejaVuSans-111"/>
      <use x="463.037109" xlink:href="#DejaVuSans-101"/>
      <use x="524.560547" xlink:href="#DejaVuSans-102"/>
      <use x="559.765625" xlink:href="#DejaVuSans-102"/>
      <use x="594.970703" xlink:href="#DejaVuSans-105"/>
      <use x="622.753906" xlink:href="#DejaVuSans-99"/>
      <use x="677.734375" xlink:href="#DejaVuSans-105"/>
      <use x="705.517578" xlink:href="#DejaVuSans-101"/>
      <use x="767.041016" xlink:href="#DejaVuSans-110"/>
      <use x="830.419922" xlink:href="#DejaVuSans-116"/>
     </g>
    </g>
   </g>
   <g id="matplotlib.axis_4">
    <g id="ytick_5"/>
    <g id="ytick_6"/>
    <g id="ytick_7"/>
    <g id="text_18">
     <!-- Motif -->
     <g transform="translate(22.90774 307.283237)rotate(-90)scale(0.12 -0.12)">
      <use xlink:href="#DejaVuSans-77"/>
      <use x="86.279297" xlink:href="#DejaVuSans-111"/>
      <use x="147.460938" xlink:href="#DejaVuSans-116"/>
      <use x="186.669922" xlink:href="#DejaVuSans-105"/>
      <use x="214.453125" xlink:href="#DejaVuSans-102"/>
     </g>
    </g>
   </g>
   <g id="patch_105">
    <path d="M 36.403365 353.507885 
L 36.403365 231.099839 
" style="fill:none;stroke:#000000;stroke-linecap:square;stroke-linejoin:miter;stroke-width:0.8;"/>
   </g>
   <g id="patch_106">
    <path d="M 230.652485 353.507885 
L 230.652485 231.099839 
" style="fill:none;stroke:#000000;stroke-linecap:square;stroke-linejoin:miter;stroke-width:0.8;"/>
   </g>
   <g id="patch_107">
    <path d="M 36.403365 353.507885 
L 230.652485 353.507885 
" style="fill:none;stroke:#000000;stroke-linecap:square;stroke-linejoin:miter;stroke-width:0.8;"/>
   </g>
   <g id="patch_108">
    <path d="M 36.403365 231.099839 
L 230.652485 231.099839 
" style="fill:none;stroke:#000000;stroke-linecap:square;stroke-linejoin:miter;stroke-width:0.8;"/>
   </g>
  </g>
  <g id="axes_3">
   <g id="patch_109">
    <path d="M 378.75064 353.507885 
L 572.99976 353.507885 
L 572.99976 231.099839 
L 378.75064 231.099839 
z
" style="fill:#ffffff;"/>
   </g>
   <g id="patch_110">
    <path clip-path="url(#pa32dcbe255)" d="M 378.75064 347.387483 
L 563.749802 347.387483 
L 563.749802 298.424264 
L 378.75064 298.424264 
z
" style="fill:#808080;"/>
   </g>
   <g id="patch_111">
    <path clip-path="url(#pa32dcbe255)" d="M 378.75064 286.18346 
L 563.749802 286.18346 
L 563.749802 237.220241 
L 378.75064 237.220241 
z
" style="fill:#808080;"/>
   </g>
   <g id="matplotlib.axis_5">
    <g id="xtick_11">
     <g id="line2d_15">
      <g>
       <use style="stroke:#000000;stroke-width:0.8;" x="378.75064" xlink:href="#m396fd604d9" y="353.507885"/>
      </g>
     </g>
     <g id="text_19">
      <!-- 0.0 -->
      <defs>
       <path d="M 10.6875 12.40625 
L 21 12.40625 
L 21 0 
L 10.6875 0 
z
" id="DejaVuSans-46"/>
      </defs>
      <g transform="translate(370.799078 368.106323)scale(0.1 -0.1)">
       <use xlink:href="#DejaVuSans-48"/>
       <use x="63.623047" xlink:href="#DejaVuSans-46"/>
       <use x="95.410156" xlink:href="#DejaVuSans-48"/>
      </g>
     </g>
    </g>
    <g id="xtick_12">
     <g id="line2d_16">
      <g>
       <use style="stroke:#000000;stroke-width:0.8;" x="415.072323" xlink:href="#m396fd604d9" y="353.507885"/>
      </g>
     </g>
     <g id="text_20">
      <!-- 0.2 -->
      <g transform="translate(407.12076 368.106323)scale(0.1 -0.1)">
       <use xlink:href="#DejaVuSans-48"/>
       <use x="63.623047" xlink:href="#DejaVuSans-46"/>
       <use x="95.410156" xlink:href="#DejaVuSans-50"/>
      </g>
     </g>
    </g>
    <g id="xtick_13">
     <g id="line2d_17">
      <g>
       <use style="stroke:#000000;stroke-width:0.8;" x="451.394006" xlink:href="#m396fd604d9" y="353.507885"/>
      </g>
     </g>
     <g id="text_21">
      <!-- 0.4 -->
      <g transform="translate(443.442443 368.106323)scale(0.1 -0.1)">
       <use xlink:href="#DejaVuSans-48"/>
       <use x="63.623047" xlink:href="#DejaVuSans-46"/>
       <use x="95.410156" xlink:href="#DejaVuSans-52"/>
      </g>
     </g>
    </g>
    <g id="xtick_14">
     <g id="line2d_18">
      <g>
       <use style="stroke:#000000;stroke-width:0.8;" x="487.715689" xlink:href="#m396fd604d9" y="353.507885"/>
      </g>
     </g>
     <g id="text_22">
      <!-- 0.6 -->
      <g transform="translate(479.764126 368.106323)scale(0.1 -0.1)">
       <use xlink:href="#DejaVuSans-48"/>
       <use x="63.623047" xlink:href="#DejaVuSans-46"/>
       <use x="95.410156" xlink:href="#DejaVuSans-54"/>
      </g>
     </g>
    </g>
    <g id="xtick_15">
     <g id="line2d_19">
      <g>
       <use style="stroke:#000000;stroke-width:0.8;" x="524.037372" xlink:href="#m396fd604d9" y="353.507885"/>
      </g>
     </g>
     <g id="text_23">
      <!-- 0.8 -->
      <g transform="translate(516.085809 368.106323)scale(0.1 -0.1)">
       <use xlink:href="#DejaVuSans-48"/>
       <use x="63.623047" xlink:href="#DejaVuSans-46"/>
       <use x="95.410156" xlink:href="#DejaVuSans-56"/>
      </g>
     </g>
    </g>
    <g id="xtick_16">
     <g id="line2d_20">
      <g>
       <use style="stroke:#000000;stroke-width:0.8;" x="560.359055" xlink:href="#m396fd604d9" y="353.507885"/>
      </g>
     </g>
     <g id="text_24">
      <!-- 1.0 -->
      <g transform="translate(552.407492 368.106323)scale(0.1 -0.1)">
       <use xlink:href="#DejaVuSans-49"/>
       <use x="63.623047" xlink:href="#DejaVuSans-46"/>
       <use x="95.410156" xlink:href="#DejaVuSans-48"/>
      </g>
     </g>
    </g>
    <g id="text_25">
     <!-- Variance Inflation Factor -->
     <defs>
      <path d="M 28.609375 0 
L 0.78125 72.90625 
L 11.078125 72.90625 
L 34.1875 11.53125 
L 57.328125 72.90625 
L 67.578125 72.90625 
L 39.796875 0 
z
" id="DejaVuSans-86"/>
      <path d="M 34.28125 27.484375 
Q 23.390625 27.484375 19.1875 25 
Q 14.984375 22.515625 14.984375 16.5 
Q 14.984375 11.71875 18.140625 8.90625 
Q 21.296875 6.109375 26.703125 6.109375 
Q 34.1875 6.109375 38.703125 11.40625 
Q 43.21875 16.703125 43.21875 25.484375 
L 43.21875 27.484375 
z
M 52.203125 31.203125 
L 52.203125 0 
L 43.21875 0 
L 43.21875 8.296875 
Q 40.140625 3.328125 35.546875 0.953125 
Q 30.953125 -1.421875 24.3125 -1.421875 
Q 15.921875 -1.421875 10.953125 3.296875 
Q 6 8.015625 6 15.921875 
Q 6 25.140625 12.171875 29.828125 
Q 18.359375 34.515625 30.609375 34.515625 
L 43.21875 34.515625 
L 43.21875 35.40625 
Q 43.21875 41.609375 39.140625 45 
Q 35.0625 48.390625 27.6875 48.390625 
Q 23 48.390625 18.546875 47.265625 
Q 14.109375 46.140625 10.015625 43.890625 
L 10.015625 52.203125 
Q 14.9375 54.109375 19.578125 55.046875 
Q 24.21875 56 28.609375 56 
Q 40.484375 56 46.34375 49.84375 
Q 52.203125 43.703125 52.203125 31.203125 
z
" id="DejaVuSans-97"/>
      <path d="M 41.109375 46.296875 
Q 39.59375 47.171875 37.8125 47.578125 
Q 36.03125 48 33.890625 48 
Q 26.265625 48 22.1875 43.046875 
Q 18.109375 38.09375 18.109375 28.8125 
L 18.109375 0 
L 9.078125 0 
L 9.078125 54.6875 
L 18.109375 54.6875 
L 18.109375 46.1875 
Q 20.953125 51.171875 25.484375 53.578125 
Q 30.03125 56 36.53125 56 
Q 37.453125 56 38.578125 55.875 
Q 39.703125 55.765625 41.0625 55.515625 
z
" id="DejaVuSans-114"/>
      <path d="M 9.8125 72.90625 
L 19.671875 72.90625 
L 19.671875 0 
L 9.8125 0 
z
" id="DejaVuSans-73"/>
     </defs>
     <g transform="translate(402.253325 383.304135)scale(0.12 -0.12)">
      <use xlink:href="#DejaVuSans-86"/>
      <use x="68.298828" xlink:href="#DejaVuSans-97"/>
      <use x="129.578125" xlink:href="#DejaVuSans-114"/>
      <use x="170.691406" xlink:href="#DejaVuSans-105"/>
      <use x="198.474609" xlink:href="#DejaVuSans-97"/>
      <use x="259.753906" xlink:href="#DejaVuSans-110"/>
      <use x="323.132812" xlink:href="#DejaVuSans-99"/>
      <use x="378.113281" xlink:href="#DejaVuSans-101"/>
      <use x="439.636719" xlink:href="#DejaVuSans-32"/>
      <use x="471.423828" xlink:href="#DejaVuSans-73"/>
      <use x="500.916016" xlink:href="#DejaVuSans-110"/>
      <use x="564.294922" xlink:href="#DejaVuSans-102"/>
      <use x="599.5" xlink:href="#DejaVuSans-108"/>
      <use x="627.283203" xlink:href="#DejaVuSans-97"/>
      <use x="688.5625" xlink:href="#DejaVuSans-116"/>
      <use x="727.771484" xlink:href="#DejaVuSans-105"/>
      <use x="755.554688" xlink:href="#DejaVuSans-111"/>
      <use x="816.736328" xlink:href="#DejaVuSans-110"/>
      <use x="880.115234" xlink:href="#DejaVuSans-32"/>
      <use x="911.902344" xlink:href="#DejaVuSans-70"/>
      <use x="969.28125" xlink:href="#DejaVuSans-97"/>
      <use x="1030.560547" xlink:href="#DejaVuSans-99"/>
      <use x="1085.541016" xlink:href="#DejaVuSans-116"/>
      <use x="1124.75" xlink:href="#DejaVuSans-111"/>
      <use x="1185.931641" xlink:href="#DejaVuSans-114"/>
     </g>
    </g>
   </g>
   <g id="matplotlib.axis_6">
    <g id="ytick_8">
     <g id="line2d_21">
      <g>
       <use style="stroke:#000000;stroke-width:0.8;" x="378.75064" xlink:href="#mbccbead2df" y="353.507885"/>
      </g>
     </g>
    </g>
    <g id="ytick_9">
     <g id="line2d_22">
      <g>
       <use style="stroke:#000000;stroke-width:0.8;" x="378.75064" xlink:href="#mbccbead2df" y="322.905874"/>
      </g>
     </g>
    </g>
    <g id="ytick_10">
     <g id="line2d_23">
      <g>
       <use style="stroke:#000000;stroke-width:0.8;" x="378.75064" xlink:href="#mbccbead2df" y="292.303862"/>
      </g>
     </g>
    </g>
    <g id="ytick_11">
     <g id="line2d_24">
      <g>
       <use style="stroke:#000000;stroke-width:0.8;" x="378.75064" xlink:href="#mbccbead2df" y="261.701851"/>
      </g>
     </g>
    </g>
    <g id="ytick_12">
     <g id="line2d_25">
      <g>
       <use style="stroke:#000000;stroke-width:0.8;" x="378.75064" xlink:href="#mbccbead2df" y="231.099839"/>
      </g>
     </g>
    </g>
    <g id="text_26">
     <!-- Motif -->
     <g transform="translate(365.255015 307.283237)rotate(-90)scale(0.12 -0.12)">
      <use xlink:href="#DejaVuSans-77"/>
      <use x="86.279297" xlink:href="#DejaVuSans-111"/>
      <use x="147.460938" xlink:href="#DejaVuSans-116"/>
      <use x="186.669922" xlink:href="#DejaVuSans-105"/>
      <use x="214.453125" xlink:href="#DejaVuSans-102"/>
     </g>
    </g>
   </g>
   <g id="patch_112">
    <path d="M 378.75064 353.507885 
L 378.75064 231.099839 
" style="fill:none;stroke:#000000;stroke-linecap:square;stroke-linejoin:miter;stroke-width:0.8;"/>
   </g>
   <g id="patch_113">
    <path d="M 572.99976 353.507885 
L 572.99976 231.099839 
" style="fill:none;stroke:#000000;stroke-linecap:square;stroke-linejoin:miter;stroke-width:0.8;"/>
   </g>
   <g id="patch_114">
    <path d="M 378.75064 353.507885 
L 572.99976 353.507885 
" style="fill:none;stroke:#000000;stroke-linecap:square;stroke-linejoin:miter;stroke-width:0.8;"/>
   </g>
   <g id="patch_115">
    <path d="M 378.75064 231.099839 
L 572.99976 231.099839 
" style="fill:none;stroke:#000000;stroke-linecap:square;stroke-linejoin:miter;stroke-width:0.8;"/>
   </g>
  </g>
  <g id="axes_4">
   <g id="patch_116">
    <path d="M 378.75064 191.252284 
L 572.99976 191.252284 
L 572.99976 68.844238 
L 378.75064 68.844238 
z
" style="fill:#ffffff;"/>
   </g>
   <g id="matplotlib.axis_7">
    <g id="xtick_17">
     <g id="line2d_26">
      <g>
       <use style="stroke:#000000;stroke-width:0.8;" x="387.580145" xlink:href="#m396fd604d9" y="191.252284"/>
      </g>
     </g>
     <g id="text_27">
      <!-- 0.0 -->
      <g transform="translate(379.628583 205.850722)scale(0.1 -0.1)">
       <use xlink:href="#DejaVuSans-48"/>
       <use x="63.623047" xlink:href="#DejaVuSans-46"/>
       <use x="95.410156" xlink:href="#DejaVuSans-48"/>
      </g>
     </g>
    </g>
    <g id="xtick_18">
     <g id="line2d_27">
      <g>
       <use style="stroke:#000000;stroke-width:0.8;" x="422.898167" xlink:href="#m396fd604d9" y="191.252284"/>
      </g>
     </g>
     <g id="text_28">
      <!-- 0.2 -->
      <g transform="translate(414.946605 205.850722)scale(0.1 -0.1)">
       <use xlink:href="#DejaVuSans-48"/>
       <use x="63.623047" xlink:href="#DejaVuSans-46"/>
       <use x="95.410156" xlink:href="#DejaVuSans-50"/>
      </g>
     </g>
    </g>
    <g id="xtick_19">
     <g id="line2d_28">
      <g>
       <use style="stroke:#000000;stroke-width:0.8;" x="458.216189" xlink:href="#m396fd604d9" y="191.252284"/>
      </g>
     </g>
     <g id="text_29">
      <!-- 0.4 -->
      <g transform="translate(450.264627 205.850722)scale(0.1 -0.1)">
       <use xlink:href="#DejaVuSans-48"/>
       <use x="63.623047" xlink:href="#DejaVuSans-46"/>
       <use x="95.410156" xlink:href="#DejaVuSans-52"/>
      </g>
     </g>
    </g>
    <g id="xtick_20">
     <g id="line2d_29">
      <g>
       <use style="stroke:#000000;stroke-width:0.8;" x="493.534211" xlink:href="#m396fd604d9" y="191.252284"/>
      </g>
     </g>
     <g id="text_30">
      <!-- 0.6 -->
      <g transform="translate(485.582648 205.850722)scale(0.1 -0.1)">
       <use xlink:href="#DejaVuSans-48"/>
       <use x="63.623047" xlink:href="#DejaVuSans-46"/>
       <use x="95.410156" xlink:href="#DejaVuSans-54"/>
      </g>
     </g>
    </g>
    <g id="xtick_21">
     <g id="line2d_30">
      <g>
       <use style="stroke:#000000;stroke-width:0.8;" x="528.852233" xlink:href="#m396fd604d9" y="191.252284"/>
      </g>
     </g>
     <g id="text_31">
      <!-- 0.8 -->
      <g transform="translate(520.90067 205.850722)scale(0.1 -0.1)">
       <use xlink:href="#DejaVuSans-48"/>
       <use x="63.623047" xlink:href="#DejaVuSans-46"/>
       <use x="95.410156" xlink:href="#DejaVuSans-56"/>
      </g>
     </g>
    </g>
    <g id="xtick_22">
     <g id="line2d_31">
      <g>
       <use style="stroke:#000000;stroke-width:0.8;" x="564.170255" xlink:href="#m396fd604d9" y="191.252284"/>
      </g>
     </g>
     <g id="text_32">
      <!-- 1.0 -->
      <g transform="translate(556.218692 205.850722)scale(0.1 -0.1)">
       <use xlink:href="#DejaVuSans-49"/>
       <use x="63.623047" xlink:href="#DejaVuSans-46"/>
       <use x="95.410156" xlink:href="#DejaVuSans-48"/>
      </g>
     </g>
    </g>
    <g id="text_33">
     <!-- False Positive Rate -->
     <defs>
      <path d="M 19.671875 64.796875 
L 19.671875 37.40625 
L 32.078125 37.40625 
Q 38.96875 37.40625 42.71875 40.96875 
Q 46.484375 44.53125 46.484375 51.125 
Q 46.484375 57.671875 42.71875 61.234375 
Q 38.96875 64.796875 32.078125 64.796875 
z
M 9.8125 72.90625 
L 32.078125 72.90625 
Q 44.34375 72.90625 50.609375 67.359375 
Q 56.890625 61.8125 56.890625 51.125 
Q 56.890625 40.328125 50.609375 34.8125 
Q 44.34375 29.296875 32.078125 29.296875 
L 19.671875 29.296875 
L 19.671875 0 
L 9.8125 0 
z
" id="DejaVuSans-80"/>
      <path d="M 2.984375 54.6875 
L 12.5 54.6875 
L 29.59375 8.796875 
L 46.6875 54.6875 
L 56.203125 54.6875 
L 35.6875 0 
L 23.484375 0 
z
" id="DejaVuSans-118"/>
     </defs>
     <g transform="translate(419.228637 221.048534)scale(0.12 -0.12)">
      <use xlink:href="#DejaVuSans-70"/>
      <use x="57.378906" xlink:href="#DejaVuSans-97"/>
      <use x="118.658203" xlink:href="#DejaVuSans-108"/>
      <use x="146.441406" xlink:href="#DejaVuSans-115"/>
      <use x="198.541016" xlink:href="#DejaVuSans-101"/>
      <use x="260.064453" xlink:href="#DejaVuSans-32"/>
      <use x="291.851562" xlink:href="#DejaVuSans-80"/>
      <use x="352.107422" xlink:href="#DejaVuSans-111"/>
      <use x="413.289062" xlink:href="#DejaVuSans-115"/>
      <use x="465.388672" xlink:href="#DejaVuSans-105"/>
      <use x="493.171875" xlink:href="#DejaVuSans-116"/>
      <use x="532.380859" xlink:href="#DejaVuSans-105"/>
      <use x="560.164062" xlink:href="#DejaVuSans-118"/>
      <use x="619.34375" xlink:href="#DejaVuSans-101"/>
      <use x="680.867188" xlink:href="#DejaVuSans-32"/>
      <use x="712.654297" xlink:href="#DejaVuSans-82"/>
      <use x="782.105469" xlink:href="#DejaVuSans-97"/>
      <use x="843.384766" xlink:href="#DejaVuSans-116"/>
      <use x="882.59375" xlink:href="#DejaVuSans-101"/>
     </g>
    </g>
   </g>
   <g id="matplotlib.axis_8">
    <g id="ytick_13">
     <g id="line2d_32">
      <g>
       <use style="stroke:#000000;stroke-width:0.8;" x="378.75064" xlink:href="#mbccbead2df" y="185.688282"/>
      </g>
     </g>
     <g id="text_34">
      <!-- 0.0 -->
      <g transform="translate(355.847515 189.487501)scale(0.1 -0.1)">
       <use xlink:href="#DejaVuSans-48"/>
       <use x="63.623047" xlink:href="#DejaVuSans-46"/>
       <use x="95.410156" xlink:href="#DejaVuSans-48"/>
      </g>
     </g>
    </g>
    <g id="ytick_14">
     <g id="line2d_33">
      <g>
       <use style="stroke:#000000;stroke-width:0.8;" x="378.75064" xlink:href="#mbccbead2df" y="163.432274"/>
      </g>
     </g>
     <g id="text_35">
      <!-- 0.2 -->
      <g transform="translate(355.847515 167.231492)scale(0.1 -0.1)">
       <use xlink:href="#DejaVuSans-48"/>
       <use x="63.623047" xlink:href="#DejaVuSans-46"/>
       <use x="95.410156" xlink:href="#DejaVuSans-50"/>
      </g>
     </g>
    </g>
    <g id="ytick_15">
     <g id="line2d_34">
      <g>
       <use style="stroke:#000000;stroke-width:0.8;" x="378.75064" xlink:href="#mbccbead2df" y="141.176265"/>
      </g>
     </g>
     <g id="text_36">
      <!-- 0.4 -->
      <g transform="translate(355.847515 144.975484)scale(0.1 -0.1)">
       <use xlink:href="#DejaVuSans-48"/>
       <use x="63.623047" xlink:href="#DejaVuSans-46"/>
       <use x="95.410156" xlink:href="#DejaVuSans-52"/>
      </g>
     </g>
    </g>
    <g id="ytick_16">
     <g id="line2d_35">
      <g>
       <use style="stroke:#000000;stroke-width:0.8;" x="378.75064" xlink:href="#mbccbead2df" y="118.920257"/>
      </g>
     </g>
     <g id="text_37">
      <!-- 0.6 -->
      <g transform="translate(355.847515 122.719476)scale(0.1 -0.1)">
       <use xlink:href="#DejaVuSans-48"/>
       <use x="63.623047" xlink:href="#DejaVuSans-46"/>
       <use x="95.410156" xlink:href="#DejaVuSans-54"/>
      </g>
     </g>
    </g>
    <g id="ytick_17">
     <g id="line2d_36">
      <g>
       <use style="stroke:#000000;stroke-width:0.8;" x="378.75064" xlink:href="#mbccbead2df" y="96.664249"/>
      </g>
     </g>
     <g id="text_38">
      <!-- 0.8 -->
      <g transform="translate(355.847515 100.463467)scale(0.1 -0.1)">
       <use xlink:href="#DejaVuSans-48"/>
       <use x="63.623047" xlink:href="#DejaVuSans-46"/>
       <use x="95.410156" xlink:href="#DejaVuSans-56"/>
      </g>
     </g>
    </g>
    <g id="ytick_18">
     <g id="line2d_37">
      <g>
       <use style="stroke:#000000;stroke-width:0.8;" x="378.75064" xlink:href="#mbccbead2df" y="74.40824"/>
      </g>
     </g>
     <g id="text_39">
      <!-- 1.0 -->
      <g transform="translate(355.847515 78.207459)scale(0.1 -0.1)">
       <use xlink:href="#DejaVuSans-49"/>
       <use x="63.623047" xlink:href="#DejaVuSans-46"/>
       <use x="95.410156" xlink:href="#DejaVuSans-48"/>
      </g>
     </g>
    </g>
    <g id="text_40">
     <!-- True Positive Rate -->
     <defs>
      <path d="M -0.296875 72.90625 
L 61.375 72.90625 
L 61.375 64.59375 
L 35.5 64.59375 
L 35.5 0 
L 25.59375 0 
L 25.59375 64.59375 
L -0.296875 64.59375 
z
" id="DejaVuSans-84"/>
     </defs>
     <g transform="translate(349.35189 184.703574)rotate(-90)scale(0.12 -0.12)">
      <use xlink:href="#DejaVuSans-84"/>
      <use x="60.865234" xlink:href="#DejaVuSans-114"/>
      <use x="101.978516" xlink:href="#DejaVuSans-117"/>
      <use x="165.357422" xlink:href="#DejaVuSans-101"/>
      <use x="226.880859" xlink:href="#DejaVuSans-32"/>
      <use x="258.667969" xlink:href="#DejaVuSans-80"/>
      <use x="318.923828" xlink:href="#DejaVuSans-111"/>
      <use x="380.105469" xlink:href="#DejaVuSans-115"/>
      <use x="432.205078" xlink:href="#DejaVuSans-105"/>
      <use x="459.988281" xlink:href="#DejaVuSans-116"/>
      <use x="499.197266" xlink:href="#DejaVuSans-105"/>
      <use x="526.980469" xlink:href="#DejaVuSans-118"/>
      <use x="586.160156" xlink:href="#DejaVuSans-101"/>
      <use x="647.683594" xlink:href="#DejaVuSans-32"/>
      <use x="679.470703" xlink:href="#DejaVuSans-82"/>
      <use x="748.921875" xlink:href="#DejaVuSans-97"/>
      <use x="810.201172" xlink:href="#DejaVuSans-116"/>
      <use x="849.410156" xlink:href="#DejaVuSans-101"/>
     </g>
    </g>
   </g>
   <g id="line2d_38">
    <path clip-path="url(#p51cb19986c)" d="M 387.580145 185.688282 
L 391.042697 113.114342 
L 394.505248 79.246503 
L 564.170255 74.40824 
" style="fill:none;stroke:#0073b2;stroke-linecap:square;stroke-width:1.5;"/>
   </g>
   <g id="line2d_39">
    <path clip-path="url(#p51cb19986c)" d="M 387.580145 185.688282 
L 387.580145 177.624511 
L 387.580145 114.727096 
L 391.659785 84.084766 
L 564.170255 74.40824 
" style="fill:none;stroke:#cc6600;stroke-linecap:square;stroke-width:1.5;"/>
   </g>
   <g id="line2d_40">
    <path clip-path="url(#p51cb19986c)" d="M 387.580145 185.688282 
L 564.170255 74.40824 
" style="fill:none;stroke:#808080;stroke-dasharray:4,8;stroke-dashoffset:0;stroke-width:0.8;"/>
   </g>
   <g id="patch_117">
    <path d="M 378.75064 191.252284 
L 378.75064 68.844238 
" style="fill:none;stroke:#000000;stroke-linecap:square;stroke-linejoin:miter;stroke-width:0.8;"/>
   </g>
   <g id="patch_118">
    <path d="M 572.99976 191.252284 
L 572.99976 68.844238 
" style="fill:none;stroke:#000000;stroke-linecap:square;stroke-linejoin:miter;stroke-width:0.8;"/>
   </g>
   <g id="patch_119">
    <path d="M 378.75064 191.252284 
L 572.99976 191.252284 
" style="fill:none;stroke:#000000;stroke-linecap:square;stroke-linejoin:miter;stroke-width:0.8;"/>
   </g>
   <g id="patch_120">
    <path d="M 378.75064 68.844238 
L 572.99976 68.844238 
" style="fill:none;stroke:#000000;stroke-linecap:square;stroke-linejoin:miter;stroke-width:0.8;"/>
   </g>
   <g id="legend_1">
    <g id="patch_121">
     <path d="M 436.784135 186.252284 
L 565.99976 186.252284 
Q 567.99976 186.252284 567.99976 184.252284 
L 567.99976 155.896034 
Q 567.99976 153.896034 565.99976 153.896034 
L 436.784135 153.896034 
Q 434.784135 153.896034 434.784135 155.896034 
L 434.784135 184.252284 
Q 434.784135 186.252284 436.784135 186.252284 
z
" style="fill:#ffffff;opacity:0.8;stroke:#cccccc;stroke-linejoin:miter;"/>
    </g>
    <g id="line2d_41">
     <path d="M 438.784135 161.994472 
L 458.784135 161.994472 
" style="fill:none;stroke:#0073b2;stroke-linecap:square;stroke-width:1.5;"/>
    </g>
    <g id="line2d_42"/>
    <g id="text_41">
     <!-- Test, AUC: 0.96 -->
     <defs>
      <path d="M 11.71875 12.40625 
L 22.015625 12.40625 
L 22.015625 4 
L 14.015625 -11.625 
L 7.71875 -11.625 
L 11.71875 4 
z
" id="DejaVuSans-44"/>
      <path d="M 34.1875 63.1875 
L 20.796875 26.90625 
L 47.609375 26.90625 
z
M 28.609375 72.90625 
L 39.796875 72.90625 
L 67.578125 0 
L 57.328125 0 
L 50.6875 18.703125 
L 17.828125 18.703125 
L 11.1875 0 
L 0.78125 0 
z
" id="DejaVuSans-65"/>
      <path d="M 11.71875 12.40625 
L 22.015625 12.40625 
L 22.015625 0 
L 11.71875 0 
z
M 11.71875 51.703125 
L 22.015625 51.703125 
L 22.015625 39.3125 
L 11.71875 39.3125 
z
" id="DejaVuSans-58"/>
      <path d="M 10.984375 1.515625 
L 10.984375 10.5 
Q 14.703125 8.734375 18.5 7.8125 
Q 22.3125 6.890625 25.984375 6.890625 
Q 35.75 6.890625 40.890625 13.453125 
Q 46.046875 20.015625 46.78125 33.40625 
Q 43.953125 29.203125 39.59375 26.953125 
Q 35.25 24.703125 29.984375 24.703125 
Q 19.046875 24.703125 12.671875 31.3125 
Q 6.296875 37.9375 6.296875 49.421875 
Q 6.296875 60.640625 12.9375 67.421875 
Q 19.578125 74.21875 30.609375 74.21875 
Q 43.265625 74.21875 49.921875 64.515625 
Q 56.59375 54.828125 56.59375 36.375 
Q 56.59375 19.140625 48.40625 8.859375 
Q 40.234375 -1.421875 26.421875 -1.421875 
Q 22.703125 -1.421875 18.890625 -0.6875 
Q 15.09375 0.046875 10.984375 1.515625 
z
M 30.609375 32.421875 
Q 37.25 32.421875 41.125 36.953125 
Q 45.015625 41.5 45.015625 49.421875 
Q 45.015625 57.28125 41.125 61.84375 
Q 37.25 66.40625 30.609375 66.40625 
Q 23.96875 66.40625 20.09375 61.84375 
Q 16.21875 57.28125 16.21875 49.421875 
Q 16.21875 41.5 20.09375 36.953125 
Q 23.96875 32.421875 30.609375 32.421875 
z
" id="DejaVuSans-57"/>
     </defs>
     <g transform="translate(466.784135 165.494472)scale(0.1 -0.1)">
      <use xlink:href="#DejaVuSans-84"/>
      <use x="60.818359" xlink:href="#DejaVuSans-101"/>
      <use x="122.341797" xlink:href="#DejaVuSans-115"/>
      <use x="174.441406" xlink:href="#DejaVuSans-116"/>
      <use x="213.650391" xlink:href="#DejaVuSans-44"/>
      <use x="245.4375" xlink:href="#DejaVuSans-32"/>
      <use x="277.224609" xlink:href="#DejaVuSans-65"/>
      <use x="345.632812" xlink:href="#DejaVuSans-85"/>
      <use x="418.826172" xlink:href="#DejaVuSans-67"/>
      <use x="488.650391" xlink:href="#DejaVuSans-58"/>
      <use x="522.341797" xlink:href="#DejaVuSans-32"/>
      <use x="554.128906" xlink:href="#DejaVuSans-48"/>
      <use x="617.751953" xlink:href="#DejaVuSans-46"/>
      <use x="649.539062" xlink:href="#DejaVuSans-57"/>
      <use x="713.162109" xlink:href="#DejaVuSans-54"/>
     </g>
    </g>
    <g id="line2d_43">
     <path d="M 438.784135 176.672597 
L 458.784135 176.672597 
" style="fill:none;stroke:#cc6600;stroke-linecap:square;stroke-width:1.5;"/>
    </g>
    <g id="line2d_44"/>
    <g id="text_42">
     <!-- Training, AUC: 0.95 -->
     <defs>
      <path d="M 10.796875 72.90625 
L 49.515625 72.90625 
L 49.515625 64.59375 
L 19.828125 64.59375 
L 19.828125 46.734375 
Q 21.96875 47.46875 24.109375 47.828125 
Q 26.265625 48.1875 28.421875 48.1875 
Q 40.625 48.1875 47.75 41.5 
Q 54.890625 34.8125 54.890625 23.390625 
Q 54.890625 11.625 47.5625 5.09375 
Q 40.234375 -1.421875 26.90625 -1.421875 
Q 22.3125 -1.421875 17.546875 -0.640625 
Q 12.796875 0.140625 7.71875 1.703125 
L 7.71875 11.625 
Q 12.109375 9.234375 16.796875 8.0625 
Q 21.484375 6.890625 26.703125 6.890625 
Q 35.15625 6.890625 40.078125 11.328125 
Q 45.015625 15.765625 45.015625 23.390625 
Q 45.015625 31 40.078125 35.4375 
Q 35.15625 39.890625 26.703125 39.890625 
Q 22.75 39.890625 18.8125 39.015625 
Q 14.890625 38.140625 10.796875 36.28125 
z
" id="DejaVuSans-53"/>
     </defs>
     <g transform="translate(466.784135 180.172597)scale(0.1 -0.1)">
      <use xlink:href="#DejaVuSans-84"/>
      <use x="60.865234" xlink:href="#DejaVuSans-114"/>
      <use x="101.978516" xlink:href="#DejaVuSans-97"/>
      <use x="163.257812" xlink:href="#DejaVuSans-105"/>
      <use x="191.041016" xlink:href="#DejaVuSans-110"/>
      <use x="254.419922" xlink:href="#DejaVuSans-105"/>
      <use x="282.203125" xlink:href="#DejaVuSans-110"/>
      <use x="345.582031" xlink:href="#DejaVuSans-103"/>
      <use x="409.058594" xlink:href="#DejaVuSans-44"/>
      <use x="440.845703" xlink:href="#DejaVuSans-32"/>
      <use x="472.632812" xlink:href="#DejaVuSans-65"/>
      <use x="541.041016" xlink:href="#DejaVuSans-85"/>
      <use x="614.234375" xlink:href="#DejaVuSans-67"/>
      <use x="684.058594" xlink:href="#DejaVuSans-58"/>
      <use x="717.75" xlink:href="#DejaVuSans-32"/>
      <use x="749.537109" xlink:href="#DejaVuSans-48"/>
      <use x="813.160156" xlink:href="#DejaVuSans-46"/>
      <use x="844.947266" xlink:href="#DejaVuSans-57"/>
      <use x="908.570312" xlink:href="#DejaVuSans-53"/>
     </g>
    </g>
   </g>
  </g>
  <g id="axes_5">
   <g id="line2d_45">
    <path clip-path="url(#p89451f870f)" d="M 306.897917 245.948581 
L 306.897917 277.80605 
" style="fill:none;stroke:#000000;stroke-linecap:square;stroke-width:0.583973;"/>
   </g>
   <g id="line2d_46">
    <path clip-path="url(#p89451f870f)" d="M 306.897917 245.948581 
L 253.802136 245.948581 
" style="fill:none;stroke:#000000;stroke-linecap:square;stroke-width:0.583973;"/>
   </g>
   <g id="line2d_47">
    <path clip-path="url(#p89451f870f)" d="M 253.802136 245.948581 
L 253.802136 277.80605 
" style="fill:none;stroke:#000000;stroke-linecap:square;stroke-width:0.583973;"/>
   </g>
   <g id="patch_122">
    <path clip-path="url(#p89451f870f)" d="M 312.815193 264.480253 
Q 313.754739 264.681437 314.281549 265.318171 
Q 314.810433 265.952832 314.810433 266.886156 
Q 314.810433 268.317253 313.825257 269.10332 
Q 312.840081 269.887312 311.025284 269.887312 
Q 310.417586 269.887312 309.772556 269.767017 
Q 309.127525 269.646722 308.441013 269.406131 
L 308.441013 268.143033 
Q 308.984415 268.460363 309.63152 268.622139 
Q 310.280699 268.783915 310.987951 268.783915 
Q 312.217865 268.783915 312.862896 268.298587 
Q 313.507927 267.813258 313.507927 266.886156 
Q 313.507927 266.029572 312.908525 265.548391 
Q 312.309124 265.065137 311.240986 265.065137 
L 310.1127 265.065137 
L 310.1127 263.988703 
L 311.292837 263.988703 
Q 312.257272 263.988703 312.769564 263.602928 
Q 313.281855 263.217154 313.281855 262.491236 
Q 313.281855 261.74665 312.752971 261.348432 
Q 312.226161 260.948139 311.240986 260.948139 
Q 310.701732 260.948139 310.085738 261.066361 
Q 309.469744 261.182508 308.73138 261.427246 
L 308.73138 260.261628 
Q 309.47804 260.054222 310.129293 259.950519 
Q 310.780546 259.846817 311.357133 259.846817 
Q 312.848378 259.846817 313.715332 260.525032 
Q 314.584361 261.201174 314.584361 262.354348 
Q 314.584361 263.159081 314.123921 263.712853 
Q 313.663481 264.266626 312.815193 264.480253 
z
M 317.429703 268.051774 
L 318.796505 268.051774 
L 318.796505 269.167615 
L 317.734589 271.241669 
L 316.898746 271.241669 
L 317.429703 269.167615 
z
M 324.476043 264.339218 
Q 323.59457 264.339218 323.07813 264.942767 
Q 322.563765 265.544243 322.563765 266.593714 
Q 322.563765 267.636963 323.07813 268.244661 
Q 323.59457 268.850285 324.476043 268.850285 
Q 325.357515 268.850285 325.871881 268.244661 
Q 326.386246 267.636963 326.386246 266.593714 
Q 326.386246 265.544243 325.871881 264.942767 
Q 325.357515 264.339218 324.476043 264.339218 
z
M 327.074832 260.234665 
L 327.074832 261.427246 
Q 326.581207 261.194952 326.079286 261.072583 
Q 325.577365 260.948139 325.08374 260.948139 
Q 323.787457 260.948139 323.103019 261.82339 
Q 322.420655 262.698641 322.323175 264.467809 
Q 322.7048 263.903666 323.281387 263.602928 
Q 323.860048 263.302191 324.552783 263.302191 
Q 326.010842 263.302191 326.857056 264.187812 
Q 327.70327 265.071359 327.70327 266.593714 
Q 327.70327 268.084959 326.821798 268.987173 
Q 325.940325 269.887312 324.476043 269.887312 
Q 322.796059 269.887312 321.908364 268.601399 
Q 321.020669 267.313411 321.020669 264.870175 
Q 321.020669 262.576272 322.109547 261.211544 
Q 323.198425 259.846817 325.031889 259.846817 
Q 325.525514 259.846817 326.027435 259.944297 
Q 326.529356 260.041778 327.074832 260.234665 
z
"/>
   </g>
   <g id="patch_123">
    <path clip-path="url(#p89451f870f)" d="M 271.643148 244.43867 
L 271.643148 247.647231 
L 270.444345 247.647231 
L 270.444345 237.673106 
Q 270.444345 234.717579 273.20491 234.717579 
Q 276.019402 234.717579 276.019402 237.212666 
Q 276.019402 238.988056 274.903561 239.637235 
Q 276.718358 240.220044 276.718358 241.949805 
Q 276.718358 245.023553 273.594833 245.023553 
Q 272.219735 245.023553 271.643148 244.43867 
z
M 271.643148 242.88313 
Q 272.362845 244.005193 273.640462 244.005193 
Q 275.50711 244.005193 275.50711 241.970546 
Q 275.50711 240.14123 272.499732 240.28434 
L 272.499732 239.183017 
Q 274.851709 239.183017 274.851709 237.108963 
Q 274.851709 235.69031 273.335576 235.69031 
Q 271.643148 235.69031 271.643148 237.712513 
z
"/>
   </g>
   <g id="patch_124">
    <path clip-path="url(#p89451f870f)" d="M 290.145783 236.34986 
L 286.839741 241.516328 
L 290.145783 241.516328 
z
M 289.80149 235.20913 
L 291.448289 235.20913 
L 291.448289 241.516328 
L 292.829609 241.516328 
L 292.829609 242.605206 
L 291.448289 242.605206 
L 291.448289 244.886666 
L 290.145783 244.886666 
L 290.145783 242.605206 
L 285.777825 242.605206 
L 285.777825 241.342107 
z
"/>
   </g>
   <g id="patch_125">
    <path clip-path="url(#p89451f870f)" d="M 256.880032 268.59725 
L 261.449173 268.59725 
L 261.449173 269.698573 
L 255.305825 269.698573 
L 255.305825 268.59725 
Q 256.05041 267.825702 257.336324 266.527345 
Q 258.624311 265.226913 258.954086 264.849435 
Q 259.582524 264.144257 259.831411 263.65478 
Q 260.082371 263.165303 260.082371 262.692419 
Q 260.082371 261.920871 259.541043 261.435542 
Q 258.999715 260.948139 258.130686 260.948139 
Q 257.514692 260.948139 256.830255 261.161767 
Q 256.147891 261.375395 255.370121 261.810946 
L 255.370121 260.487699 
Q 256.160335 260.170369 256.846847 260.008593 
Q 257.535433 259.846817 258.105798 259.846817 
Q 259.609487 259.846817 260.503404 260.599698 
Q 261.397321 261.350506 261.397321 262.607383 
Q 261.397321 263.20471 261.173323 263.739816 
Q 260.9514 264.272848 260.360294 264.998767 
Q 260.198518 265.187506 259.32949 266.085571 
Q 258.462535 266.983636 256.880032 268.59725 
z
M 264.333922 268.051774 
L 265.700724 268.051774 
L 265.700724 269.167615 
L 264.638808 271.241669 
L 263.802965 271.241669 
L 264.333922 269.167615 
z
M 272.384104 264.480253 
Q 273.32365 264.681437 273.85046 265.318171 
Q 274.379343 265.952832 274.379343 266.886156 
Q 274.379343 268.317253 273.394168 269.10332 
Q 272.408992 269.887312 270.594195 269.887312 
Q 269.986497 269.887312 269.341466 269.767017 
Q 268.696436 269.646722 268.009924 269.406131 
L 268.009924 268.143033 
Q 268.553326 268.460363 269.200431 268.622139 
Q 269.84961 268.783915 270.556862 268.783915 
Q 271.786776 268.783915 272.431807 268.298587 
Q 273.076838 267.813258 273.076838 266.886156 
Q 273.076838 266.029572 272.477436 265.548391 
Q 271.878034 265.065137 270.809897 265.065137 
L 269.681611 265.065137 
L 269.681611 263.988703 
L 270.861748 263.988703 
Q 271.826183 263.988703 272.338474 263.602928 
Q 272.850766 263.217154 272.850766 262.491236 
Q 272.850766 261.74665 272.321882 261.348432 
Q 271.795072 260.948139 270.809897 260.948139 
Q 270.270643 260.948139 269.654649 261.066361 
Q 269.038655 261.182508 268.300291 261.427246 
L 268.300291 260.261628 
Q 269.046951 260.054222 269.698204 259.950519 
Q 270.349457 259.846817 270.926044 259.846817 
Q 272.417288 259.846817 273.284243 260.525032 
Q 274.153272 261.201174 274.153272 262.354348 
Q 274.153272 263.159081 273.692832 263.712853 
Q 273.232392 264.266626 272.384104 264.480253 
z
M 276.998614 268.051774 
L 278.365416 268.051774 
L 278.365416 269.167615 
L 277.3035 271.241669 
L 276.467657 271.241669 
L 276.998614 269.167615 
z
M 284.679614 261.161767 
L 281.373572 266.328235 
L 284.679614 266.328235 
z
M 284.335321 260.021037 
L 285.98212 260.021037 
L 285.98212 266.328235 
L 287.36344 266.328235 
L 287.36344 267.417114 
L 285.98212 267.417114 
L 285.98212 269.698573 
L 284.679614 269.698573 
L 284.679614 267.417114 
L 280.311656 267.417114 
L 280.311656 266.154015 
z
M 289.663306 268.051774 
L 291.030108 268.051774 
L 291.030108 269.167615 
L 289.968192 271.241669 
L 289.132348 271.241669 
L 289.663306 269.167615 
z
M 296.709645 264.339218 
Q 295.828172 264.339218 295.311733 264.942767 
Q 294.797368 265.544243 294.797368 266.593714 
Q 294.797368 267.636963 295.311733 268.244661 
Q 295.828172 268.850285 296.709645 268.850285 
Q 297.591118 268.850285 298.105484 268.244661 
Q 298.619849 267.636963 298.619849 266.593714 
Q 298.619849 265.544243 298.105484 264.942767 
Q 297.591118 264.339218 296.709645 264.339218 
z
M 299.308435 260.234665 
L 299.308435 261.427246 
Q 298.81481 261.194952 298.312889 261.072583 
Q 297.810968 260.948139 297.317343 260.948139 
Q 296.021059 260.948139 295.336622 261.82339 
Q 294.654258 262.698641 294.556777 264.467809 
Q 294.938403 263.903666 295.51499 263.602928 
Q 296.093651 263.302191 296.786385 263.302191 
Q 298.244445 263.302191 299.090659 264.187812 
Q 299.936873 265.071359 299.936873 266.593714 
Q 299.936873 268.084959 299.0554 268.987173 
Q 298.173927 269.887312 296.709645 269.887312 
Q 295.029662 269.887312 294.141967 268.601399 
Q 293.254271 267.313411 293.254271 264.870175 
Q 293.254271 262.576272 294.34315 261.211544 
Q 295.432028 259.846817 297.265492 259.846817 
Q 297.759117 259.846817 298.261038 259.944297 
Q 298.762959 260.041778 299.308435 260.234665 
z
"/>
   </g>
   <g id="patch_126">
    <path clip-path="url(#p89451f870f)" d="M 317.517073 235.329425 
L 317.517073 256.567738 
L 296.278761 256.567738 
L 296.278761 235.329425 
L 317.517073 235.329425 
z
" style="fill:#0090bc;stroke:#000000;stroke-linejoin:miter;stroke-width:0.583973;"/>
   </g>
   <g id="patch_127">
    <path clip-path="url(#p89451f870f)" d="M 314.862284 269.841683 
L 298.93355 285.770417 
z
" style="fill:#ffffff;stroke:#000000;stroke-linejoin:miter;stroke-width:0.583973;"/>
   </g>
   <g id="patch_128">
    <path clip-path="url(#p89451f870f)" d="M 298.93355 269.841683 
L 314.862284 285.770417 
z
" style="fill:#ffffff;stroke:#000000;stroke-linejoin:miter;stroke-width:0.583973;"/>
   </g>
   <g id="patch_129">
    <path clip-path="url(#p89451f870f)" d="M 253.802136 256.567738 
C 256.618369 256.567738 259.319636 255.448836 261.311013 253.457459 
C 263.302391 251.466081 264.421292 248.764814 264.421292 245.948581 
C 264.421292 243.132348 263.302391 240.431081 261.311013 238.439704 
C 259.319636 236.448326 256.618369 235.329425 253.802136 235.329425 
C 250.985903 235.329425 248.284636 236.448326 246.293258 238.439704 
C 244.301881 240.431081 243.18298 243.132348 243.18298 245.948581 
C 243.18298 248.764814 244.301881 251.466081 246.293258 253.457459 
C 248.284636 255.448836 250.985903 256.567738 253.802136 256.567738 
z
" style="fill:#ffd400;stroke:#000000;stroke-linejoin:miter;stroke-width:0.583973;"/>
   </g>
   <g id="patch_130">
    <path clip-path="url(#p89451f870f)" d="M 261.766503 269.841683 
L 245.837769 285.770417 
z
" style="fill:#ffffff;stroke:#000000;stroke-linejoin:miter;stroke-width:0.583973;"/>
   </g>
   <g id="patch_131">
    <path clip-path="url(#p89451f870f)" d="M 245.837769 269.841683 
L 261.766503 285.770417 
z
" style="fill:#ffffff;stroke:#000000;stroke-linejoin:miter;stroke-width:0.583973;"/>
   </g>
  </g>
  <g id="axes_6">
   <g id="line2d_48">
    <path clip-path="url(#pb9037dae4d)" d="M 273.392508 309.024695 
L 273.392508 342.491672 
" style="fill:none;stroke:#000000;stroke-linecap:square;stroke-width:0.583973;"/>
   </g>
   <g id="patch_132">
    <path clip-path="url(#pb9037dae4d)" d="M 276.625906 332.817624 
L 281.425889 332.817624 
L 281.425889 333.974588 
L 274.972166 333.974588 
L 274.972166 332.817624 
Q 275.75437 332.007095 277.10525 330.643142 
Q 278.45831 329.277009 278.804745 328.880461 
Q 279.464934 328.139655 279.726394 327.625449 
Q 279.990034 327.111243 279.990034 326.614467 
Q 279.990034 325.803939 279.421357 325.29409 
Q 278.85268 324.782063 277.939746 324.782063 
Q 277.292631 324.782063 276.573614 325.006484 
Q 275.856775 325.230904 275.03971 325.68846 
L 275.03971 324.298361 
Q 275.869848 323.964998 276.591044 323.795049 
Q 277.314419 323.625099 277.9136 323.625099 
Q 279.493259 323.625099 280.432339 324.416018 
Q 281.371418 325.204758 281.371418 326.525135 
Q 281.371418 327.152641 281.136104 327.714781 
Q 280.902968 328.274743 280.281999 329.037337 
Q 280.112049 329.235611 279.199115 330.179049 
Q 278.28836 331.122487 276.625906 332.817624 
z
M 284.456383 332.244589 
L 285.892238 332.244589 
L 285.892238 333.416805 
L 284.776672 335.595644 
L 283.8986 335.595644 
L 284.456383 333.416805 
z
M 292.913277 328.492627 
Q 293.900291 328.703975 294.453716 329.372878 
Q 295.00932 330.039603 295.00932 331.020081 
Q 295.00932 332.52348 293.974372 333.349261 
Q 292.939423 334.172862 291.032938 334.172862 
Q 290.394538 334.172862 289.716919 334.046489 
Q 289.0393 333.920117 288.318104 333.667371 
L 288.318104 332.340458 
Q 288.88896 332.67382 289.568758 332.84377 
Q 290.250735 333.013719 290.993719 333.013719 
Q 292.285771 333.013719 292.96339 332.503871 
Q 293.641009 331.994022 293.641009 331.020081 
Q 293.641009 330.12022 293.011324 329.614729 
Q 292.38164 329.10706 291.259537 329.10706 
L 290.074249 329.10706 
L 290.074249 327.976242 
L 291.314008 327.976242 
Q 292.327169 327.976242 292.865342 327.570978 
Q 293.403516 327.165714 293.403516 326.40312 
Q 293.403516 325.620916 292.847912 325.202579 
Q 292.294486 324.782063 291.259537 324.782063 
Q 290.693039 324.782063 290.045924 324.906257 
Q 289.398808 325.028272 288.623141 325.285375 
L 288.623141 324.060867 
Q 289.407524 323.842983 290.091679 323.734041 
Q 290.775835 323.625099 291.381552 323.625099 
Q 292.948138 323.625099 293.858893 324.33758 
Q 294.771827 325.047882 294.771827 326.259316 
Q 294.771827 327.104706 294.288125 327.686456 
Q 293.804422 328.268207 292.913277 328.492627 
z
M 297.760923 332.244589 
L 299.196778 332.244589 
L 299.196778 333.416805 
L 298.081212 335.595644 
L 297.20314 335.595644 
L 297.760923 333.416805 
z
M 305.829983 325.006484 
L 302.356912 330.433973 
L 305.829983 330.433973 
z
M 305.468295 323.808122 
L 307.198294 323.808122 
L 307.198294 330.433973 
L 308.649401 330.433973 
L 308.649401 331.577864 
L 307.198294 331.577864 
L 307.198294 333.974588 
L 305.829983 333.974588 
L 305.829983 331.577864 
L 301.241347 331.577864 
L 301.241347 330.250951 
z
"/>
   </g>
   <g id="patch_133">
    <path clip-path="url(#pb9037dae4d)" d="M 273.392508 320.180354 
C 276.351023 320.180354 279.188763 319.004923 281.28075 316.912937 
C 283.372736 314.820951 284.548167 311.98321 284.548167 309.024695 
C 284.548167 306.06618 283.372736 303.228439 281.28075 301.136453 
C 279.188763 299.044466 276.351023 297.869036 273.392508 297.869036 
C 270.433992 297.869036 267.596252 299.044466 265.504266 301.136453 
C 263.412279 303.228439 262.236849 306.06618 262.236849 309.024695 
C 262.236849 311.98321 263.412279 314.820951 265.504266 316.912937 
C 267.596252 319.004923 270.433992 320.180354 273.392508 320.180354 
z
" style="fill:#ffd400;stroke:#000000;stroke-linejoin:miter;stroke-width:0.583973;"/>
   </g>
   <g id="patch_134">
    <path clip-path="url(#pb9037dae4d)" d="M 281.759252 334.124928 
L 265.025763 350.858416 
z
" style="fill:#ffffff;stroke:#000000;stroke-linejoin:miter;stroke-width:0.583973;"/>
   </g>
   <g id="patch_135">
    <path clip-path="url(#pb9037dae4d)" d="M 265.025763 334.124928 
L 281.759252 350.858416 
z
" style="fill:#ffffff;stroke:#000000;stroke-linejoin:miter;stroke-width:0.583973;"/>
   </g>
  </g>
  <g id="text_43">
   <!-- RCAI_10ug_14110_v5.0_DATA.csv -->
   <defs>
    <path d="M 50.984375 -16.609375 
L 50.984375 -23.578125 
L -0.984375 -23.578125 
L -0.984375 -16.609375 
z
" id="DejaVuSans-95"/>
    <path d="M 19.671875 64.796875 
L 19.671875 8.109375 
L 31.59375 8.109375 
Q 46.6875 8.109375 53.6875 14.9375 
Q 60.6875 21.78125 60.6875 36.53125 
Q 60.6875 51.171875 53.6875 57.984375 
Q 46.6875 64.796875 31.59375 64.796875 
z
M 9.8125 72.90625 
L 30.078125 72.90625 
Q 51.265625 72.90625 61.171875 64.09375 
Q 71.09375 55.28125 71.09375 36.53125 
Q 71.09375 17.671875 61.125 8.828125 
Q 51.171875 0 30.078125 0 
L 9.8125 0 
z
" id="DejaVuSans-68"/>
   </defs>
   <g transform="translate(185.983125 16.68225)scale(0.12 -0.12)">
    <use xlink:href="#DejaVuSans-82"/>
    <use x="69.404297" xlink:href="#DejaVuSans-67"/>
    <use x="139.228516" xlink:href="#DejaVuSans-65"/>
    <use x="207.636719" xlink:href="#DejaVuSans-73"/>
    <use x="237.128906" xlink:href="#DejaVuSans-95"/>
    <use x="287.128906" xlink:href="#DejaVuSans-49"/>
    <use x="350.751953" xlink:href="#DejaVuSans-48"/>
    <use x="414.375" xlink:href="#DejaVuSans-117"/>
    <use x="477.753906" xlink:href="#DejaVuSans-103"/>
    <use x="541.230469" xlink:href="#DejaVuSans-95"/>
    <use x="591.230469" xlink:href="#DejaVuSans-49"/>
    <use x="654.853516" xlink:href="#DejaVuSans-52"/>
    <use x="718.476562" xlink:href="#DejaVuSans-49"/>
    <use x="782.099609" xlink:href="#DejaVuSans-49"/>
    <use x="845.722656" xlink:href="#DejaVuSans-48"/>
    <use x="909.345703" xlink:href="#DejaVuSans-95"/>
    <use x="959.345703" xlink:href="#DejaVuSans-118"/>
    <use x="1018.525391" xlink:href="#DejaVuSans-53"/>
    <use x="1082.148438" xlink:href="#DejaVuSans-46"/>
    <use x="1113.935547" xlink:href="#DejaVuSans-48"/>
    <use x="1177.558594" xlink:href="#DejaVuSans-95"/>
    <use x="1227.558594" xlink:href="#DejaVuSans-68"/>
    <use x="1304.544922" xlink:href="#DejaVuSans-65"/>
    <use x="1372.84375" xlink:href="#DejaVuSans-84"/>
    <use x="1433.818359" xlink:href="#DejaVuSans-65"/>
    <use x="1502.210938" xlink:href="#DejaVuSans-46"/>
    <use x="1533.998047" xlink:href="#DejaVuSans-99"/>
    <use x="1588.978516" xlink:href="#DejaVuSans-115"/>
    <use x="1641.078125" xlink:href="#DejaVuSans-118"/>
   </g>
  </g>
 </g>
 <defs>
  <clipPath id="p879805be91">
   <rect height="122.408046" width="295.52592" x="36.403365" y="68.844238"/>
  </clipPath>
  <clipPath id="p1015dc28e6">
   <rect height="122.408046" width="194.24912" x="36.403365" y="231.099839"/>
  </clipPath>
  <clipPath id="pa32dcbe255">
   <rect height="122.408046" width="194.24912" x="378.75064" y="231.099839"/>
  </clipPath>
  <clipPath id="p51cb19986c">
   <rect height="122.408046" width="194.24912" x="378.75064" y="68.844238"/>
  </clipPath>
  <clipPath id="p89451f870f">
   <rect height="56.158122" width="92.97232" x="238.956965" y="232.164937"/>
  </clipPath>
  <clipPath id="pb9037dae4d">
   <rect height="58.288318" width="51.053808" x="259.916221" y="295.219567"/>
  </clipPath>
 </defs>
</svg>
