<?xml version="1.0" encoding="utf-8" standalone="no"?>
<!DOCTYPE svg PUBLIC "-//W3C//DTD SVG 1.1//EN"
  "http://www.w3.org/Graphics/SVG/1.1/DTD/svg11.dtd">
<!-- Created with matplotlib (https://matplotlib.org/) -->
<svg height="388.8pt" version="1.1" viewBox="0 0 576 388.8" width="576pt" xmlns="http://www.w3.org/2000/svg" xmlns:xlink="http://www.w3.org/1999/xlink">
 <defs>
  <style type="text/css">
*{stroke-linecap:butt;stroke-linejoin:round;}
  </style>
 </defs>
 <g id="figure_1">
  <g id="patch_1">
   <path d="M 0 388.8 
L 576 388.8 
L 576 0 
L 0 0 
z
" style="fill:#ffffff;"/>
  </g>
  <g id="axes_1">
   <g id="patch_2">
    <path d="M 36.403365 189.671805 
L 336.655036 189.671805 
L 336.655036 69.18328 
L 36.403365 69.18328 
z
" style="fill:#ffffff;"/>
   </g>
   <g id="patch_3">
    <path clip-path="url(#p7d4310a7ee)" d="M 50.051168 189.671805 
L 52.940194 189.671805 
L 52.940194 186.194503 
L 50.051168 186.194503 
z
" style="fill:#1f77b4;"/>
   </g>
   <g id="patch_4">
    <path clip-path="url(#p7d4310a7ee)" d="M 52.940194 189.671805 
L 55.82922 189.671805 
L 55.82922 186.194503 
L 52.940194 186.194503 
z
" style="fill:#1f77b4;"/>
   </g>
   <g id="patch_5">
    <path clip-path="url(#p7d4310a7ee)" d="M 55.82922 189.671805 
L 58.718245 189.671805 
L 58.718245 189.671805 
L 55.82922 189.671805 
z
" style="fill:#1f77b4;"/>
   </g>
   <g id="patch_6">
    <path clip-path="url(#p7d4310a7ee)" d="M 58.718245 189.671805 
L 61.607271 189.671805 
L 61.607271 189.671805 
L 58.718245 189.671805 
z
" style="fill:#1f77b4;"/>
   </g>
   <g id="patch_7">
    <path clip-path="url(#p7d4310a7ee)" d="M 61.607271 189.671805 
L 64.496297 189.671805 
L 64.496297 189.671805 
L 61.607271 189.671805 
z
" style="fill:#1f77b4;"/>
   </g>
   <g id="patch_8">
    <path clip-path="url(#p7d4310a7ee)" d="M 64.496297 189.671805 
L 67.385322 189.671805 
L 67.385322 189.671805 
L 64.496297 189.671805 
z
" style="fill:#1f77b4;"/>
   </g>
   <g id="patch_9">
    <path clip-path="url(#p7d4310a7ee)" d="M 67.385322 189.671805 
L 70.274348 189.671805 
L 70.274348 186.194503 
L 67.385322 186.194503 
z
" style="fill:#1f77b4;"/>
   </g>
   <g id="patch_10">
    <path clip-path="url(#p7d4310a7ee)" d="M 70.274348 189.671805 
L 73.163374 189.671805 
L 73.163374 189.671805 
L 70.274348 189.671805 
z
" style="fill:#1f77b4;"/>
   </g>
   <g id="patch_11">
    <path clip-path="url(#p7d4310a7ee)" d="M 73.163374 189.671805 
L 76.0524 189.671805 
L 76.0524 186.194503 
L 73.163374 186.194503 
z
" style="fill:#1f77b4;"/>
   </g>
   <g id="patch_12">
    <path clip-path="url(#p7d4310a7ee)" d="M 76.0524 189.671805 
L 78.941425 189.671805 
L 78.941425 186.194503 
L 76.0524 186.194503 
z
" style="fill:#1f77b4;"/>
   </g>
   <g id="patch_13">
    <path clip-path="url(#p7d4310a7ee)" d="M 78.941425 189.671805 
L 81.830451 189.671805 
L 81.830451 186.194503 
L 78.941425 186.194503 
z
" style="fill:#1f77b4;"/>
   </g>
   <g id="patch_14">
    <path clip-path="url(#p7d4310a7ee)" d="M 81.830451 189.671805 
L 84.719477 189.671805 
L 84.719477 189.671805 
L 81.830451 189.671805 
z
" style="fill:#1f77b4;"/>
   </g>
   <g id="patch_15">
    <path clip-path="url(#p7d4310a7ee)" d="M 84.719477 189.671805 
L 87.608502 189.671805 
L 87.608502 189.671805 
L 84.719477 189.671805 
z
" style="fill:#1f77b4;"/>
   </g>
   <g id="patch_16">
    <path clip-path="url(#p7d4310a7ee)" d="M 87.608502 189.671805 
L 90.497528 189.671805 
L 90.497528 186.194503 
L 87.608502 186.194503 
z
" style="fill:#1f77b4;"/>
   </g>
   <g id="patch_17">
    <path clip-path="url(#p7d4310a7ee)" d="M 90.497528 189.671805 
L 93.386554 189.671805 
L 93.386554 179.239898 
L 90.497528 179.239898 
z
" style="fill:#1f77b4;"/>
   </g>
   <g id="patch_18">
    <path clip-path="url(#p7d4310a7ee)" d="M 93.386554 189.671805 
L 96.275579 189.671805 
L 96.275579 172.285293 
L 93.386554 172.285293 
z
" style="fill:#1f77b4;"/>
   </g>
   <g id="patch_19">
    <path clip-path="url(#p7d4310a7ee)" d="M 96.275579 189.671805 
L 99.164605 189.671805 
L 99.164605 175.762596 
L 96.275579 175.762596 
z
" style="fill:#1f77b4;"/>
   </g>
   <g id="patch_20">
    <path clip-path="url(#p7d4310a7ee)" d="M 99.164605 189.671805 
L 102.053631 189.671805 
L 102.053631 168.807991 
L 99.164605 168.807991 
z
" style="fill:#1f77b4;"/>
   </g>
   <g id="patch_21">
    <path clip-path="url(#p7d4310a7ee)" d="M 102.053631 189.671805 
L 104.942657 189.671805 
L 104.942657 158.376084 
L 102.053631 158.376084 
z
" style="fill:#1f77b4;"/>
   </g>
   <g id="patch_22">
    <path clip-path="url(#p7d4310a7ee)" d="M 104.942657 189.671805 
L 107.831682 189.671805 
L 107.831682 161.853387 
L 104.942657 161.853387 
z
" style="fill:#1f77b4;"/>
   </g>
   <g id="patch_23">
    <path clip-path="url(#p7d4310a7ee)" d="M 107.831682 189.671805 
L 110.720708 189.671805 
L 110.720708 81.875433 
L 107.831682 81.875433 
z
" style="fill:#1f77b4;"/>
   </g>
   <g id="patch_24">
    <path clip-path="url(#p7d4310a7ee)" d="M 110.720708 189.671805 
L 113.609734 189.671805 
L 113.609734 92.30734 
L 110.720708 92.30734 
z
" style="fill:#1f77b4;"/>
   </g>
   <g id="patch_25">
    <path clip-path="url(#p7d4310a7ee)" d="M 113.609734 189.671805 
L 116.498759 189.671805 
L 116.498759 102.739247 
L 113.609734 102.739247 
z
" style="fill:#1f77b4;"/>
   </g>
   <g id="patch_26">
    <path clip-path="url(#p7d4310a7ee)" d="M 116.498759 189.671805 
L 119.387785 189.671805 
L 119.387785 102.739247 
L 116.498759 102.739247 
z
" style="fill:#1f77b4;"/>
   </g>
   <g id="patch_27">
    <path clip-path="url(#p7d4310a7ee)" d="M 119.387785 189.671805 
L 122.276811 189.671805 
L 122.276811 120.125759 
L 119.387785 120.125759 
z
" style="fill:#1f77b4;"/>
   </g>
   <g id="patch_28">
    <path clip-path="url(#p7d4310a7ee)" d="M 122.276811 189.671805 
L 125.165836 189.671805 
L 125.165836 92.30734 
L 122.276811 92.30734 
z
" style="fill:#1f77b4;"/>
   </g>
   <g id="patch_29">
    <path clip-path="url(#p7d4310a7ee)" d="M 125.165836 189.671805 
L 128.054862 189.671805 
L 128.054862 113.171154 
L 125.165836 113.171154 
z
" style="fill:#1f77b4;"/>
   </g>
   <g id="patch_30">
    <path clip-path="url(#p7d4310a7ee)" d="M 128.054862 189.671805 
L 130.943888 189.671805 
L 130.943888 106.21655 
L 128.054862 106.21655 
z
" style="fill:#1f77b4;"/>
   </g>
   <g id="patch_31">
    <path clip-path="url(#p7d4310a7ee)" d="M 130.943888 189.671805 
L 133.832914 189.671805 
L 133.832914 123.603061 
L 130.943888 123.603061 
z
" style="fill:#1f77b4;"/>
   </g>
   <g id="patch_32">
    <path clip-path="url(#p7d4310a7ee)" d="M 133.832914 189.671805 
L 136.721939 189.671805 
L 136.721939 113.171154 
L 133.832914 113.171154 
z
" style="fill:#1f77b4;"/>
   </g>
   <g id="patch_33">
    <path clip-path="url(#p7d4310a7ee)" d="M 136.721939 189.671805 
L 139.610965 189.671805 
L 139.610965 127.080363 
L 136.721939 127.080363 
z
" style="fill:#1f77b4;"/>
   </g>
   <g id="patch_34">
    <path clip-path="url(#p7d4310a7ee)" d="M 139.610965 189.671805 
L 142.499991 189.671805 
L 142.499991 154.898782 
L 139.610965 154.898782 
z
" style="fill:#1f77b4;"/>
   </g>
   <g id="patch_35">
    <path clip-path="url(#p7d4310a7ee)" d="M 142.499991 189.671805 
L 145.389016 189.671805 
L 145.389016 172.285293 
L 142.499991 172.285293 
z
" style="fill:#1f77b4;"/>
   </g>
   <g id="patch_36">
    <path clip-path="url(#p7d4310a7ee)" d="M 145.389016 189.671805 
L 148.278042 189.671805 
L 148.278042 165.330689 
L 145.389016 165.330689 
z
" style="fill:#1f77b4;"/>
   </g>
   <g id="patch_37">
    <path clip-path="url(#p7d4310a7ee)" d="M 148.278042 189.671805 
L 151.167068 189.671805 
L 151.167068 168.807991 
L 148.278042 168.807991 
z
" style="fill:#1f77b4;"/>
   </g>
   <g id="patch_38">
    <path clip-path="url(#p7d4310a7ee)" d="M 151.167068 189.671805 
L 154.056093 189.671805 
L 154.056093 161.853387 
L 151.167068 161.853387 
z
" style="fill:#1f77b4;"/>
   </g>
   <g id="patch_39">
    <path clip-path="url(#p7d4310a7ee)" d="M 154.056093 189.671805 
L 156.945119 189.671805 
L 156.945119 182.7172 
L 154.056093 182.7172 
z
" style="fill:#1f77b4;"/>
   </g>
   <g id="patch_40">
    <path clip-path="url(#p7d4310a7ee)" d="M 156.945119 189.671805 
L 159.834145 189.671805 
L 159.834145 158.376084 
L 156.945119 158.376084 
z
" style="fill:#1f77b4;"/>
   </g>
   <g id="patch_41">
    <path clip-path="url(#p7d4310a7ee)" d="M 159.834145 189.671805 
L 162.723171 189.671805 
L 162.723171 182.7172 
L 159.834145 182.7172 
z
" style="fill:#1f77b4;"/>
   </g>
   <g id="patch_42">
    <path clip-path="url(#p7d4310a7ee)" d="M 162.723171 189.671805 
L 165.612196 189.671805 
L 165.612196 172.285293 
L 162.723171 172.285293 
z
" style="fill:#1f77b4;"/>
   </g>
   <g id="patch_43">
    <path clip-path="url(#p7d4310a7ee)" d="M 165.612196 189.671805 
L 168.501222 189.671805 
L 168.501222 186.194503 
L 165.612196 186.194503 
z
" style="fill:#1f77b4;"/>
   </g>
   <g id="patch_44">
    <path clip-path="url(#p7d4310a7ee)" d="M 168.501222 189.671805 
L 171.390248 189.671805 
L 171.390248 168.807991 
L 168.501222 168.807991 
z
" style="fill:#1f77b4;"/>
   </g>
   <g id="patch_45">
    <path clip-path="url(#p7d4310a7ee)" d="M 171.390248 189.671805 
L 174.279273 189.671805 
L 174.279273 179.239898 
L 171.390248 179.239898 
z
" style="fill:#1f77b4;"/>
   </g>
   <g id="patch_46">
    <path clip-path="url(#p7d4310a7ee)" d="M 174.279273 189.671805 
L 177.168299 189.671805 
L 177.168299 179.239898 
L 174.279273 179.239898 
z
" style="fill:#1f77b4;"/>
   </g>
   <g id="patch_47">
    <path clip-path="url(#p7d4310a7ee)" d="M 177.168299 189.671805 
L 180.057325 189.671805 
L 180.057325 179.239898 
L 177.168299 179.239898 
z
" style="fill:#1f77b4;"/>
   </g>
   <g id="patch_48">
    <path clip-path="url(#p7d4310a7ee)" d="M 180.057325 189.671805 
L 182.94635 189.671805 
L 182.94635 175.762596 
L 180.057325 175.762596 
z
" style="fill:#1f77b4;"/>
   </g>
   <g id="patch_49">
    <path clip-path="url(#p7d4310a7ee)" d="M 182.94635 189.671805 
L 185.835376 189.671805 
L 185.835376 179.239898 
L 182.94635 179.239898 
z
" style="fill:#1f77b4;"/>
   </g>
   <g id="patch_50">
    <path clip-path="url(#p7d4310a7ee)" d="M 185.835376 189.671805 
L 188.724402 189.671805 
L 188.724402 165.330689 
L 185.835376 165.330689 
z
" style="fill:#1f77b4;"/>
   </g>
   <g id="patch_51">
    <path clip-path="url(#p7d4310a7ee)" d="M 188.724402 189.671805 
L 191.613428 189.671805 
L 191.613428 179.239898 
L 188.724402 179.239898 
z
" style="fill:#1f77b4;"/>
   </g>
   <g id="patch_52">
    <path clip-path="url(#p7d4310a7ee)" d="M 191.613428 189.671805 
L 194.502453 189.671805 
L 194.502453 182.7172 
L 191.613428 182.7172 
z
" style="fill:#1f77b4;"/>
   </g>
   <g id="patch_53">
    <path clip-path="url(#p7d4310a7ee)" d="M 194.502453 189.671805 
L 197.391479 189.671805 
L 197.391479 172.285293 
L 194.502453 172.285293 
z
" style="fill:#1f77b4;"/>
   </g>
   <g id="patch_54">
    <path clip-path="url(#p7d4310a7ee)" d="M 197.391479 189.671805 
L 200.280505 189.671805 
L 200.280505 186.194503 
L 197.391479 186.194503 
z
" style="fill:#1f77b4;"/>
   </g>
   <g id="patch_55">
    <path clip-path="url(#p7d4310a7ee)" d="M 200.280505 189.671805 
L 203.16953 189.671805 
L 203.16953 175.762596 
L 200.280505 175.762596 
z
" style="fill:#1f77b4;"/>
   </g>
   <g id="patch_56">
    <path clip-path="url(#p7d4310a7ee)" d="M 203.16953 189.671805 
L 206.058556 189.671805 
L 206.058556 189.671805 
L 203.16953 189.671805 
z
" style="fill:#1f77b4;"/>
   </g>
   <g id="patch_57">
    <path clip-path="url(#p7d4310a7ee)" d="M 206.058556 189.671805 
L 208.947582 189.671805 
L 208.947582 182.7172 
L 206.058556 182.7172 
z
" style="fill:#1f77b4;"/>
   </g>
   <g id="patch_58">
    <path clip-path="url(#p7d4310a7ee)" d="M 299.895027 189.671805 
L 302.784053 189.671805 
L 302.784053 172.285293 
L 299.895027 172.285293 
z
" style="fill:#ff0000;"/>
   </g>
   <g id="patch_59">
    <path clip-path="url(#p7d4310a7ee)" d="M 302.784053 189.671805 
L 305.673078 189.671805 
L 305.673078 165.330689 
L 302.784053 165.330689 
z
" style="fill:#ff0000;"/>
   </g>
   <g id="patch_60">
    <path clip-path="url(#p7d4310a7ee)" d="M 305.673078 189.671805 
L 308.562104 189.671805 
L 308.562104 179.239898 
L 305.673078 179.239898 
z
" style="fill:#ff0000;"/>
   </g>
   <g id="patch_61">
    <path clip-path="url(#p7d4310a7ee)" d="M 308.562104 189.671805 
L 311.45113 189.671805 
L 311.45113 123.603061 
L 308.562104 123.603061 
z
" style="fill:#ff0000;"/>
   </g>
   <g id="patch_62">
    <path clip-path="url(#p7d4310a7ee)" d="M 311.45113 189.671805 
L 314.340155 189.671805 
L 314.340155 74.920829 
L 311.45113 74.920829 
z
" style="fill:#ff0000;"/>
   </g>
   <g id="patch_63">
    <path clip-path="url(#p7d4310a7ee)" d="M 314.340155 189.671805 
L 317.229181 189.671805 
L 317.229181 123.603061 
L 314.340155 123.603061 
z
" style="fill:#ff0000;"/>
   </g>
   <g id="patch_64">
    <path clip-path="url(#p7d4310a7ee)" d="M 317.229181 189.671805 
L 320.118207 189.671805 
L 320.118207 175.762596 
L 317.229181 175.762596 
z
" style="fill:#ff0000;"/>
   </g>
   <g id="patch_65">
    <path clip-path="url(#p7d4310a7ee)" d="M 320.118207 189.671805 
L 323.007233 189.671805 
L 323.007233 182.7172 
L 320.118207 182.7172 
z
" style="fill:#ff0000;"/>
   </g>
   <g id="patch_66">
    <path clip-path="url(#p7d4310a7ee)" d="M 208.70975 189.671805 
L 211.598775 189.671805 
L 211.598775 172.285293 
L 208.70975 172.285293 
z
" style="fill:#ffa500;"/>
   </g>
   <g id="patch_67">
    <path clip-path="url(#p7d4310a7ee)" d="M 211.598775 189.671805 
L 214.487801 189.671805 
L 214.487801 179.239898 
L 211.598775 179.239898 
z
" style="fill:#ffa500;"/>
   </g>
   <g id="patch_68">
    <path clip-path="url(#p7d4310a7ee)" d="M 214.487801 189.671805 
L 217.376827 189.671805 
L 217.376827 175.762596 
L 214.487801 175.762596 
z
" style="fill:#ffa500;"/>
   </g>
   <g id="patch_69">
    <path clip-path="url(#p7d4310a7ee)" d="M 217.376827 189.671805 
L 220.265852 189.671805 
L 220.265852 175.762596 
L 217.376827 175.762596 
z
" style="fill:#ffa500;"/>
   </g>
   <g id="patch_70">
    <path clip-path="url(#p7d4310a7ee)" d="M 220.265852 189.671805 
L 223.154878 189.671805 
L 223.154878 179.239898 
L 220.265852 179.239898 
z
" style="fill:#ffa500;"/>
   </g>
   <g id="patch_71">
    <path clip-path="url(#p7d4310a7ee)" d="M 223.154878 189.671805 
L 226.043904 189.671805 
L 226.043904 168.807991 
L 223.154878 168.807991 
z
" style="fill:#ffa500;"/>
   </g>
   <g id="patch_72">
    <path clip-path="url(#p7d4310a7ee)" d="M 226.043904 189.671805 
L 228.932929 189.671805 
L 228.932929 182.7172 
L 226.043904 182.7172 
z
" style="fill:#ffa500;"/>
   </g>
   <g id="patch_73">
    <path clip-path="url(#p7d4310a7ee)" d="M 228.932929 189.671805 
L 231.821955 189.671805 
L 231.821955 182.7172 
L 228.932929 182.7172 
z
" style="fill:#ffa500;"/>
   </g>
   <g id="patch_74">
    <path clip-path="url(#p7d4310a7ee)" d="M 231.821955 189.671805 
L 234.710981 189.671805 
L 234.710981 172.285293 
L 231.821955 172.285293 
z
" style="fill:#ffa500;"/>
   </g>
   <g id="patch_75">
    <path clip-path="url(#p7d4310a7ee)" d="M 234.710981 189.671805 
L 237.600007 189.671805 
L 237.600007 179.239898 
L 234.710981 179.239898 
z
" style="fill:#ffa500;"/>
   </g>
   <g id="patch_76">
    <path clip-path="url(#p7d4310a7ee)" d="M 237.600007 189.671805 
L 240.489032 189.671805 
L 240.489032 175.762596 
L 237.600007 175.762596 
z
" style="fill:#ffa500;"/>
   </g>
   <g id="patch_77">
    <path clip-path="url(#p7d4310a7ee)" d="M 240.489032 189.671805 
L 243.378058 189.671805 
L 243.378058 182.7172 
L 240.489032 182.7172 
z
" style="fill:#ffa500;"/>
   </g>
   <g id="patch_78">
    <path clip-path="url(#p7d4310a7ee)" d="M 243.378058 189.671805 
L 246.267084 189.671805 
L 246.267084 175.762596 
L 243.378058 175.762596 
z
" style="fill:#ffa500;"/>
   </g>
   <g id="patch_79">
    <path clip-path="url(#p7d4310a7ee)" d="M 246.267084 189.671805 
L 249.156109 189.671805 
L 249.156109 182.7172 
L 246.267084 182.7172 
z
" style="fill:#ffa500;"/>
   </g>
   <g id="patch_80">
    <path clip-path="url(#p7d4310a7ee)" d="M 249.156109 189.671805 
L 252.045135 189.671805 
L 252.045135 186.194503 
L 249.156109 186.194503 
z
" style="fill:#ffa500;"/>
   </g>
   <g id="patch_81">
    <path clip-path="url(#p7d4310a7ee)" d="M 252.045135 189.671805 
L 254.934161 189.671805 
L 254.934161 175.762596 
L 252.045135 175.762596 
z
" style="fill:#ffa500;"/>
   </g>
   <g id="patch_82">
    <path clip-path="url(#p7d4310a7ee)" d="M 254.934161 189.671805 
L 257.823186 189.671805 
L 257.823186 179.239898 
L 254.934161 179.239898 
z
" style="fill:#ffa500;"/>
   </g>
   <g id="patch_83">
    <path clip-path="url(#p7d4310a7ee)" d="M 257.823186 189.671805 
L 260.712212 189.671805 
L 260.712212 182.7172 
L 257.823186 182.7172 
z
" style="fill:#ffa500;"/>
   </g>
   <g id="patch_84">
    <path clip-path="url(#p7d4310a7ee)" d="M 260.712212 189.671805 
L 263.601238 189.671805 
L 263.601238 182.7172 
L 260.712212 182.7172 
z
" style="fill:#ffa500;"/>
   </g>
   <g id="patch_85">
    <path clip-path="url(#p7d4310a7ee)" d="M 263.601238 189.671805 
L 266.490264 189.671805 
L 266.490264 182.7172 
L 263.601238 182.7172 
z
" style="fill:#ffa500;"/>
   </g>
   <g id="patch_86">
    <path clip-path="url(#p7d4310a7ee)" d="M 266.490264 189.671805 
L 269.379289 189.671805 
L 269.379289 179.239898 
L 266.490264 179.239898 
z
" style="fill:#ffa500;"/>
   </g>
   <g id="patch_87">
    <path clip-path="url(#p7d4310a7ee)" d="M 269.379289 189.671805 
L 272.268315 189.671805 
L 272.268315 168.807991 
L 269.379289 168.807991 
z
" style="fill:#ffa500;"/>
   </g>
   <g id="patch_88">
    <path clip-path="url(#p7d4310a7ee)" d="M 272.268315 189.671805 
L 275.157341 189.671805 
L 275.157341 172.285293 
L 272.268315 172.285293 
z
" style="fill:#ffa500;"/>
   </g>
   <g id="patch_89">
    <path clip-path="url(#p7d4310a7ee)" d="M 275.157341 189.671805 
L 278.046366 189.671805 
L 278.046366 186.194503 
L 275.157341 186.194503 
z
" style="fill:#ffa500;"/>
   </g>
   <g id="patch_90">
    <path clip-path="url(#p7d4310a7ee)" d="M 278.046366 189.671805 
L 280.935392 189.671805 
L 280.935392 182.7172 
L 278.046366 182.7172 
z
" style="fill:#ffa500;"/>
   </g>
   <g id="patch_91">
    <path clip-path="url(#p7d4310a7ee)" d="M 280.935392 189.671805 
L 283.824418 189.671805 
L 283.824418 165.330689 
L 280.935392 165.330689 
z
" style="fill:#ffa500;"/>
   </g>
   <g id="patch_92">
    <path clip-path="url(#p7d4310a7ee)" d="M 283.824418 189.671805 
L 286.713443 189.671805 
L 286.713443 172.285293 
L 283.824418 172.285293 
z
" style="fill:#ffa500;"/>
   </g>
   <g id="patch_93">
    <path clip-path="url(#p7d4310a7ee)" d="M 286.713443 189.671805 
L 289.602469 189.671805 
L 289.602469 172.285293 
L 286.713443 172.285293 
z
" style="fill:#ffa500;"/>
   </g>
   <g id="patch_94">
    <path clip-path="url(#p7d4310a7ee)" d="M 289.602469 189.671805 
L 292.491495 189.671805 
L 292.491495 161.853387 
L 289.602469 161.853387 
z
" style="fill:#ffa500;"/>
   </g>
   <g id="patch_95">
    <path clip-path="url(#p7d4310a7ee)" d="M 292.491495 189.671805 
L 295.380521 189.671805 
L 295.380521 172.285293 
L 292.491495 172.285293 
z
" style="fill:#ffa500;"/>
   </g>
   <g id="patch_96">
    <path clip-path="url(#p7d4310a7ee)" d="M 295.380521 189.671805 
L 298.269546 189.671805 
L 298.269546 186.194503 
L 295.380521 186.194503 
z
" style="fill:#ffa500;"/>
   </g>
   <g id="patch_97">
    <path clip-path="url(#p7d4310a7ee)" d="M 298.269546 189.671805 
L 301.158572 189.671805 
L 301.158572 179.239898 
L 298.269546 179.239898 
z
" style="fill:#ffa500;"/>
   </g>
   <g id="matplotlib.axis_1">
    <g id="xtick_1">
     <g id="line2d_1">
      <defs>
       <path d="M 0 0 
L 0 3.5 
" id="m7aec493643" style="stroke:#000000;stroke-width:0.8;"/>
      </defs>
      <g>
       <use style="stroke:#000000;stroke-width:0.8;" x="50.051168" xlink:href="#m7aec493643" y="189.671805"/>
      </g>
     </g>
     <g id="text_1">
      <!-- 0 -->
      <defs>
       <path d="M 31.78125 66.40625 
Q 24.171875 66.40625 20.328125 58.90625 
Q 16.5 51.421875 16.5 36.375 
Q 16.5 21.390625 20.328125 13.890625 
Q 24.171875 6.390625 31.78125 6.390625 
Q 39.453125 6.390625 43.28125 13.890625 
Q 47.125 21.390625 47.125 36.375 
Q 47.125 51.421875 43.28125 58.90625 
Q 39.453125 66.40625 31.78125 66.40625 
z
M 31.78125 74.21875 
Q 44.046875 74.21875 50.515625 64.515625 
Q 56.984375 54.828125 56.984375 36.375 
Q 56.984375 17.96875 50.515625 8.265625 
Q 44.046875 -1.421875 31.78125 -1.421875 
Q 19.53125 -1.421875 13.0625 8.265625 
Q 6.59375 17.96875 6.59375 36.375 
Q 6.59375 54.828125 13.0625 64.515625 
Q 19.53125 74.21875 31.78125 74.21875 
z
" id="DejaVuSans-48"/>
      </defs>
      <g transform="translate(46.869918 204.270243)scale(0.1 -0.1)">
       <use xlink:href="#DejaVuSans-48"/>
      </g>
     </g>
    </g>
    <g id="xtick_2">
     <g id="line2d_2">
      <g>
       <use style="stroke:#000000;stroke-width:0.8;" x="107.831682" xlink:href="#m7aec493643" y="189.671805"/>
      </g>
     </g>
     <g id="text_2">
      <!-- 1 -->
      <defs>
       <path d="M 12.40625 8.296875 
L 28.515625 8.296875 
L 28.515625 63.921875 
L 10.984375 60.40625 
L 10.984375 69.390625 
L 28.421875 72.90625 
L 38.28125 72.90625 
L 38.28125 8.296875 
L 54.390625 8.296875 
L 54.390625 0 
L 12.40625 0 
z
" id="DejaVuSans-49"/>
      </defs>
      <g transform="translate(104.650432 204.270243)scale(0.1 -0.1)">
       <use xlink:href="#DejaVuSans-49"/>
      </g>
     </g>
    </g>
    <g id="xtick_3">
     <g id="line2d_3">
      <g>
       <use style="stroke:#000000;stroke-width:0.8;" x="165.612196" xlink:href="#m7aec493643" y="189.671805"/>
      </g>
     </g>
     <g id="text_3">
      <!-- 2 -->
      <defs>
       <path d="M 19.1875 8.296875 
L 53.609375 8.296875 
L 53.609375 0 
L 7.328125 0 
L 7.328125 8.296875 
Q 12.9375 14.109375 22.625 23.890625 
Q 32.328125 33.6875 34.8125 36.53125 
Q 39.546875 41.84375 41.421875 45.53125 
Q 43.3125 49.21875 43.3125 52.78125 
Q 43.3125 58.59375 39.234375 62.25 
Q 35.15625 65.921875 28.609375 65.921875 
Q 23.96875 65.921875 18.8125 64.3125 
Q 13.671875 62.703125 7.8125 59.421875 
L 7.8125 69.390625 
Q 13.765625 71.78125 18.9375 73 
Q 24.125 74.21875 28.421875 74.21875 
Q 39.75 74.21875 46.484375 68.546875 
Q 53.21875 62.890625 53.21875 53.421875 
Q 53.21875 48.921875 51.53125 44.890625 
Q 49.859375 40.875 45.40625 35.40625 
Q 44.1875 33.984375 37.640625 27.21875 
Q 31.109375 20.453125 19.1875 8.296875 
z
" id="DejaVuSans-50"/>
      </defs>
      <g transform="translate(162.430946 204.270243)scale(0.1 -0.1)">
       <use xlink:href="#DejaVuSans-50"/>
      </g>
     </g>
    </g>
    <g id="xtick_4">
     <g id="line2d_4">
      <g>
       <use style="stroke:#000000;stroke-width:0.8;" x="223.39271" xlink:href="#m7aec493643" y="189.671805"/>
      </g>
     </g>
     <g id="text_4">
      <!-- 3 -->
      <defs>
       <path d="M 40.578125 39.3125 
Q 47.65625 37.796875 51.625 33 
Q 55.609375 28.21875 55.609375 21.1875 
Q 55.609375 10.40625 48.1875 4.484375 
Q 40.765625 -1.421875 27.09375 -1.421875 
Q 22.515625 -1.421875 17.65625 -0.515625 
Q 12.796875 0.390625 7.625 2.203125 
L 7.625 11.71875 
Q 11.71875 9.328125 16.59375 8.109375 
Q 21.484375 6.890625 26.8125 6.890625 
Q 36.078125 6.890625 40.9375 10.546875 
Q 45.796875 14.203125 45.796875 21.1875 
Q 45.796875 27.640625 41.28125 31.265625 
Q 36.765625 34.90625 28.71875 34.90625 
L 20.21875 34.90625 
L 20.21875 43.015625 
L 29.109375 43.015625 
Q 36.375 43.015625 40.234375 45.921875 
Q 44.09375 48.828125 44.09375 54.296875 
Q 44.09375 59.90625 40.109375 62.90625 
Q 36.140625 65.921875 28.71875 65.921875 
Q 24.65625 65.921875 20.015625 65.03125 
Q 15.375 64.15625 9.8125 62.3125 
L 9.8125 71.09375 
Q 15.4375 72.65625 20.34375 73.4375 
Q 25.25 74.21875 29.59375 74.21875 
Q 40.828125 74.21875 47.359375 69.109375 
Q 53.90625 64.015625 53.90625 55.328125 
Q 53.90625 49.265625 50.4375 45.09375 
Q 46.96875 40.921875 40.578125 39.3125 
z
" id="DejaVuSans-51"/>
      </defs>
      <g transform="translate(220.21146 204.270243)scale(0.1 -0.1)">
       <use xlink:href="#DejaVuSans-51"/>
      </g>
     </g>
    </g>
    <g id="xtick_5">
     <g id="line2d_5">
      <g>
       <use style="stroke:#000000;stroke-width:0.8;" x="281.173224" xlink:href="#m7aec493643" y="189.671805"/>
      </g>
     </g>
     <g id="text_5">
      <!-- 4 -->
      <defs>
       <path d="M 37.796875 64.3125 
L 12.890625 25.390625 
L 37.796875 25.390625 
z
M 35.203125 72.90625 
L 47.609375 72.90625 
L 47.609375 25.390625 
L 58.015625 25.390625 
L 58.015625 17.1875 
L 47.609375 17.1875 
L 47.609375 0 
L 37.796875 0 
L 37.796875 17.1875 
L 4.890625 17.1875 
L 4.890625 26.703125 
z
" id="DejaVuSans-52"/>
      </defs>
      <g transform="translate(277.991974 204.270243)scale(0.1 -0.1)">
       <use xlink:href="#DejaVuSans-52"/>
      </g>
     </g>
    </g>
    <g id="text_6">
     <!-- log(RFU) -->
     <defs>
      <path d="M 9.421875 75.984375 
L 18.40625 75.984375 
L 18.40625 0 
L 9.421875 0 
z
" id="DejaVuSans-108"/>
      <path d="M 30.609375 48.390625 
Q 23.390625 48.390625 19.1875 42.75 
Q 14.984375 37.109375 14.984375 27.296875 
Q 14.984375 17.484375 19.15625 11.84375 
Q 23.34375 6.203125 30.609375 6.203125 
Q 37.796875 6.203125 41.984375 11.859375 
Q 46.1875 17.53125 46.1875 27.296875 
Q 46.1875 37.015625 41.984375 42.703125 
Q 37.796875 48.390625 30.609375 48.390625 
z
M 30.609375 56 
Q 42.328125 56 49.015625 48.375 
Q 55.71875 40.765625 55.71875 27.296875 
Q 55.71875 13.875 49.015625 6.21875 
Q 42.328125 -1.421875 30.609375 -1.421875 
Q 18.84375 -1.421875 12.171875 6.21875 
Q 5.515625 13.875 5.515625 27.296875 
Q 5.515625 40.765625 12.171875 48.375 
Q 18.84375 56 30.609375 56 
z
" id="DejaVuSans-111"/>
      <path d="M 45.40625 27.984375 
Q 45.40625 37.75 41.375 43.109375 
Q 37.359375 48.484375 30.078125 48.484375 
Q 22.859375 48.484375 18.828125 43.109375 
Q 14.796875 37.75 14.796875 27.984375 
Q 14.796875 18.265625 18.828125 12.890625 
Q 22.859375 7.515625 30.078125 7.515625 
Q 37.359375 7.515625 41.375 12.890625 
Q 45.40625 18.265625 45.40625 27.984375 
z
M 54.390625 6.78125 
Q 54.390625 -7.171875 48.1875 -13.984375 
Q 42 -20.796875 29.203125 -20.796875 
Q 24.46875 -20.796875 20.265625 -20.09375 
Q 16.0625 -19.390625 12.109375 -17.921875 
L 12.109375 -9.1875 
Q 16.0625 -11.328125 19.921875 -12.34375 
Q 23.78125 -13.375 27.78125 -13.375 
Q 36.625 -13.375 41.015625 -8.765625 
Q 45.40625 -4.15625 45.40625 5.171875 
L 45.40625 9.625 
Q 42.625 4.78125 38.28125 2.390625 
Q 33.9375 0 27.875 0 
Q 17.828125 0 11.671875 7.65625 
Q 5.515625 15.328125 5.515625 27.984375 
Q 5.515625 40.671875 11.671875 48.328125 
Q 17.828125 56 27.875 56 
Q 33.9375 56 38.28125 53.609375 
Q 42.625 51.21875 45.40625 46.390625 
L 45.40625 54.6875 
L 54.390625 54.6875 
z
" id="DejaVuSans-103"/>
      <path d="M 31 75.875 
Q 24.46875 64.65625 21.28125 53.65625 
Q 18.109375 42.671875 18.109375 31.390625 
Q 18.109375 20.125 21.3125 9.0625 
Q 24.515625 -2 31 -13.1875 
L 23.1875 -13.1875 
Q 15.875 -1.703125 12.234375 9.375 
Q 8.59375 20.453125 8.59375 31.390625 
Q 8.59375 42.28125 12.203125 53.3125 
Q 15.828125 64.359375 23.1875 75.875 
z
" id="DejaVuSans-40"/>
      <path d="M 44.390625 34.1875 
Q 47.5625 33.109375 50.5625 29.59375 
Q 53.5625 26.078125 56.59375 19.921875 
L 66.609375 0 
L 56 0 
L 46.6875 18.703125 
Q 43.0625 26.03125 39.671875 28.421875 
Q 36.28125 30.8125 30.421875 30.8125 
L 19.671875 30.8125 
L 19.671875 0 
L 9.8125 0 
L 9.8125 72.90625 
L 32.078125 72.90625 
Q 44.578125 72.90625 50.734375 67.671875 
Q 56.890625 62.453125 56.890625 51.90625 
Q 56.890625 45.015625 53.6875 40.46875 
Q 50.484375 35.9375 44.390625 34.1875 
z
M 19.671875 64.796875 
L 19.671875 38.921875 
L 32.078125 38.921875 
Q 39.203125 38.921875 42.84375 42.21875 
Q 46.484375 45.515625 46.484375 51.90625 
Q 46.484375 58.296875 42.84375 61.546875 
Q 39.203125 64.796875 32.078125 64.796875 
z
" id="DejaVuSans-82"/>
      <path d="M 9.8125 72.90625 
L 51.703125 72.90625 
L 51.703125 64.59375 
L 19.671875 64.59375 
L 19.671875 43.109375 
L 48.578125 43.109375 
L 48.578125 34.8125 
L 19.671875 34.8125 
L 19.671875 0 
L 9.8125 0 
z
" id="DejaVuSans-70"/>
      <path d="M 8.6875 72.90625 
L 18.609375 72.90625 
L 18.609375 28.609375 
Q 18.609375 16.890625 22.84375 11.734375 
Q 27.09375 6.59375 36.625 6.59375 
Q 46.09375 6.59375 50.34375 11.734375 
Q 54.59375 16.890625 54.59375 28.609375 
L 54.59375 72.90625 
L 64.5 72.90625 
L 64.5 27.390625 
Q 64.5 13.140625 57.4375 5.859375 
Q 50.390625 -1.421875 36.625 -1.421875 
Q 22.796875 -1.421875 15.734375 5.859375 
Q 8.6875 13.140625 8.6875 27.390625 
z
" id="DejaVuSans-85"/>
      <path d="M 8.015625 75.875 
L 15.828125 75.875 
Q 23.140625 64.359375 26.78125 53.3125 
Q 30.421875 42.28125 30.421875 31.390625 
Q 30.421875 20.453125 26.78125 9.375 
Q 23.140625 -1.703125 15.828125 -13.1875 
L 8.015625 -13.1875 
Q 14.5 -2 17.703125 9.0625 
Q 20.90625 20.125 20.90625 31.390625 
Q 20.90625 42.671875 17.703125 53.65625 
Q 14.5 64.65625 8.015625 75.875 
z
" id="DejaVuSans-41"/>
     </defs>
     <g transform="translate(164.995607 217.948368)scale(0.1 -0.1)">
      <use xlink:href="#DejaVuSans-108"/>
      <use x="27.783203" xlink:href="#DejaVuSans-111"/>
      <use x="88.964844" xlink:href="#DejaVuSans-103"/>
      <use x="152.441406" xlink:href="#DejaVuSans-40"/>
      <use x="191.455078" xlink:href="#DejaVuSans-82"/>
      <use x="260.9375" xlink:href="#DejaVuSans-70"/>
      <use x="318.457031" xlink:href="#DejaVuSans-85"/>
      <use x="391.650391" xlink:href="#DejaVuSans-41"/>
     </g>
    </g>
   </g>
   <g id="matplotlib.axis_2">
    <g id="ytick_1">
     <g id="line2d_6">
      <defs>
       <path d="M 0 0 
L -3.5 0 
" id="m2649c40434" style="stroke:#000000;stroke-width:0.8;"/>
      </defs>
      <g>
       <use style="stroke:#000000;stroke-width:0.8;" x="36.403365" xlink:href="#m2649c40434" y="189.671805"/>
      </g>
     </g>
     <g id="text_7">
      <!-- 0 -->
      <g transform="translate(23.040865 193.471024)scale(0.1 -0.1)">
       <use xlink:href="#DejaVuSans-48"/>
      </g>
     </g>
    </g>
    <g id="ytick_2">
     <g id="line2d_7">
      <g>
       <use style="stroke:#000000;stroke-width:0.8;" x="36.403365" xlink:href="#m2649c40434" y="154.898782"/>
      </g>
     </g>
     <g id="text_8">
      <!-- 10 -->
      <g transform="translate(16.678365 158.698001)scale(0.1 -0.1)">
       <use xlink:href="#DejaVuSans-49"/>
       <use x="63.623047" xlink:href="#DejaVuSans-48"/>
      </g>
     </g>
    </g>
    <g id="ytick_3">
     <g id="line2d_8">
      <g>
       <use style="stroke:#000000;stroke-width:0.8;" x="36.403365" xlink:href="#m2649c40434" y="120.125759"/>
      </g>
     </g>
     <g id="text_9">
      <!-- 20 -->
      <g transform="translate(16.678365 123.924978)scale(0.1 -0.1)">
       <use xlink:href="#DejaVuSans-50"/>
       <use x="63.623047" xlink:href="#DejaVuSans-48"/>
      </g>
     </g>
    </g>
    <g id="ytick_4">
     <g id="line2d_9">
      <g>
       <use style="stroke:#000000;stroke-width:0.8;" x="36.403365" xlink:href="#m2649c40434" y="85.352736"/>
      </g>
     </g>
     <g id="text_10">
      <!-- 30 -->
      <g transform="translate(16.678365 89.151954)scale(0.1 -0.1)">
       <use xlink:href="#DejaVuSans-51"/>
       <use x="63.623047" xlink:href="#DejaVuSans-48"/>
      </g>
     </g>
    </g>
    <g id="text_11">
     <!-- Counts -->
     <defs>
      <path d="M 64.40625 67.28125 
L 64.40625 56.890625 
Q 59.421875 61.53125 53.78125 63.8125 
Q 48.140625 66.109375 41.796875 66.109375 
Q 29.296875 66.109375 22.65625 58.46875 
Q 16.015625 50.828125 16.015625 36.375 
Q 16.015625 21.96875 22.65625 14.328125 
Q 29.296875 6.6875 41.796875 6.6875 
Q 48.140625 6.6875 53.78125 8.984375 
Q 59.421875 11.28125 64.40625 15.921875 
L 64.40625 5.609375 
Q 59.234375 2.09375 53.4375 0.328125 
Q 47.65625 -1.421875 41.21875 -1.421875 
Q 24.65625 -1.421875 15.125 8.703125 
Q 5.609375 18.84375 5.609375 36.375 
Q 5.609375 53.953125 15.125 64.078125 
Q 24.65625 74.21875 41.21875 74.21875 
Q 47.75 74.21875 53.53125 72.484375 
Q 59.328125 70.75 64.40625 67.28125 
z
" id="DejaVuSans-67"/>
      <path d="M 8.5 21.578125 
L 8.5 54.6875 
L 17.484375 54.6875 
L 17.484375 21.921875 
Q 17.484375 14.15625 20.5 10.265625 
Q 23.53125 6.390625 29.59375 6.390625 
Q 36.859375 6.390625 41.078125 11.03125 
Q 45.3125 15.671875 45.3125 23.6875 
L 45.3125 54.6875 
L 54.296875 54.6875 
L 54.296875 0 
L 45.3125 0 
L 45.3125 8.40625 
Q 42.046875 3.421875 37.71875 1 
Q 33.40625 -1.421875 27.6875 -1.421875 
Q 18.265625 -1.421875 13.375 4.4375 
Q 8.5 10.296875 8.5 21.578125 
z
M 31.109375 56 
z
" id="DejaVuSans-117"/>
      <path d="M 54.890625 33.015625 
L 54.890625 0 
L 45.90625 0 
L 45.90625 32.71875 
Q 45.90625 40.484375 42.875 44.328125 
Q 39.84375 48.1875 33.796875 48.1875 
Q 26.515625 48.1875 22.3125 43.546875 
Q 18.109375 38.921875 18.109375 30.90625 
L 18.109375 0 
L 9.078125 0 
L 9.078125 54.6875 
L 18.109375 54.6875 
L 18.109375 46.1875 
Q 21.34375 51.125 25.703125 53.5625 
Q 30.078125 56 35.796875 56 
Q 45.21875 56 50.046875 50.171875 
Q 54.890625 44.34375 54.890625 33.015625 
z
" id="DejaVuSans-110"/>
      <path d="M 18.3125 70.21875 
L 18.3125 54.6875 
L 36.8125 54.6875 
L 36.8125 47.703125 
L 18.3125 47.703125 
L 18.3125 18.015625 
Q 18.3125 11.328125 20.140625 9.421875 
Q 21.96875 7.515625 27.59375 7.515625 
L 36.8125 7.515625 
L 36.8125 0 
L 27.59375 0 
Q 17.1875 0 13.234375 3.875 
Q 9.28125 7.765625 9.28125 18.015625 
L 9.28125 47.703125 
L 2.6875 47.703125 
L 2.6875 54.6875 
L 9.28125 54.6875 
L 9.28125 70.21875 
z
" id="DejaVuSans-116"/>
      <path d="M 44.28125 53.078125 
L 44.28125 44.578125 
Q 40.484375 46.53125 36.375 47.5 
Q 32.28125 48.484375 27.875 48.484375 
Q 21.1875 48.484375 17.84375 46.4375 
Q 14.5 44.390625 14.5 40.28125 
Q 14.5 37.15625 16.890625 35.375 
Q 19.28125 33.59375 26.515625 31.984375 
L 29.59375 31.296875 
Q 39.15625 29.25 43.1875 25.515625 
Q 47.21875 21.78125 47.21875 15.09375 
Q 47.21875 7.46875 41.1875 3.015625 
Q 35.15625 -1.421875 24.609375 -1.421875 
Q 20.21875 -1.421875 15.453125 -0.5625 
Q 10.6875 0.296875 5.421875 2 
L 5.421875 11.28125 
Q 10.40625 8.6875 15.234375 7.390625 
Q 20.0625 6.109375 24.8125 6.109375 
Q 31.15625 6.109375 34.5625 8.28125 
Q 37.984375 10.453125 37.984375 14.40625 
Q 37.984375 18.0625 35.515625 20.015625 
Q 33.0625 21.96875 24.703125 23.78125 
L 21.578125 24.515625 
Q 13.234375 26.265625 9.515625 29.90625 
Q 5.8125 33.546875 5.8125 39.890625 
Q 5.8125 47.609375 11.28125 51.796875 
Q 16.75 56 26.8125 56 
Q 31.78125 56 36.171875 55.265625 
Q 40.578125 54.546875 44.28125 53.078125 
z
" id="DejaVuSans-115"/>
     </defs>
     <g transform="translate(10.598677 146.880668)rotate(-90)scale(0.1 -0.1)">
      <use xlink:href="#DejaVuSans-67"/>
      <use x="69.824219" xlink:href="#DejaVuSans-111"/>
      <use x="131.005859" xlink:href="#DejaVuSans-117"/>
      <use x="194.384766" xlink:href="#DejaVuSans-110"/>
      <use x="257.763672" xlink:href="#DejaVuSans-116"/>
      <use x="296.972656" xlink:href="#DejaVuSans-115"/>
     </g>
    </g>
   </g>
   <g id="patch_98">
    <path d="M 36.403365 189.671805 
L 36.403365 69.18328 
" style="fill:none;stroke:#000000;stroke-linecap:square;stroke-linejoin:miter;stroke-width:0.8;"/>
   </g>
   <g id="patch_99">
    <path d="M 336.655036 189.671805 
L 336.655036 69.18328 
" style="fill:none;stroke:#000000;stroke-linecap:square;stroke-linejoin:miter;stroke-width:0.8;"/>
   </g>
   <g id="patch_100">
    <path d="M 36.403365 189.671805 
L 336.655036 189.671805 
" style="fill:none;stroke:#000000;stroke-linecap:square;stroke-linejoin:miter;stroke-width:0.8;"/>
   </g>
   <g id="patch_101">
    <path d="M 36.403365 69.18328 
L 336.655036 69.18328 
" style="fill:none;stroke:#000000;stroke-linecap:square;stroke-linejoin:miter;stroke-width:0.8;"/>
   </g>
  </g>
  <g id="axes_2">
   <g id="patch_102">
    <path d="M 36.403365 353.507885 
L 218.926734 353.507885 
L 218.926734 233.01936 
L 36.403365 233.01936 
z
" style="fill:#ffffff;"/>
   </g>
   <g id="patch_103">
    <path clip-path="url(#p86139d0033)" d="M 36.403365 348.031134 
L 126.3102 348.031134 
L 126.3102 299.348902 
L 36.403365 299.348902 
z
" style="fill:#1f77b4;"/>
   </g>
   <g id="patch_104">
    <path clip-path="url(#p86139d0033)" d="M 36.403365 287.178343 
L 210.235145 287.178343 
L 210.235145 238.496111 
L 36.403365 238.496111 
z
" style="fill:#1f77b4;"/>
   </g>
   <g id="matplotlib.axis_3">
    <g id="xtick_6">
     <g id="line2d_10">
      <g>
       <use style="stroke:#000000;stroke-width:0.8;" x="36.403365" xlink:href="#m7aec493643" y="353.507885"/>
      </g>
     </g>
     <g id="text_12">
      <!-- 0 -->
      <g transform="translate(33.222115 368.106323)scale(0.1 -0.1)">
       <use xlink:href="#DejaVuSans-48"/>
      </g>
     </g>
    </g>
    <g id="xtick_7">
     <g id="line2d_11">
      <g>
       <use style="stroke:#000000;stroke-width:0.8;" x="73.285948" xlink:href="#m7aec493643" y="353.507885"/>
      </g>
     </g>
     <g id="text_13">
      <!-- 2 -->
      <g transform="translate(70.104698 368.106323)scale(0.1 -0.1)">
       <use xlink:href="#DejaVuSans-50"/>
      </g>
     </g>
    </g>
    <g id="xtick_8">
     <g id="line2d_12">
      <g>
       <use style="stroke:#000000;stroke-width:0.8;" x="110.168531" xlink:href="#m7aec493643" y="353.507885"/>
      </g>
     </g>
     <g id="text_14">
      <!-- 4 -->
      <g transform="translate(106.987281 368.106323)scale(0.1 -0.1)">
       <use xlink:href="#DejaVuSans-52"/>
      </g>
     </g>
    </g>
    <g id="xtick_9">
     <g id="line2d_13">
      <g>
       <use style="stroke:#000000;stroke-width:0.8;" x="147.051115" xlink:href="#m7aec493643" y="353.507885"/>
      </g>
     </g>
     <g id="text_15">
      <!-- 6 -->
      <defs>
       <path d="M 33.015625 40.375 
Q 26.375 40.375 22.484375 35.828125 
Q 18.609375 31.296875 18.609375 23.390625 
Q 18.609375 15.53125 22.484375 10.953125 
Q 26.375 6.390625 33.015625 6.390625 
Q 39.65625 6.390625 43.53125 10.953125 
Q 47.40625 15.53125 47.40625 23.390625 
Q 47.40625 31.296875 43.53125 35.828125 
Q 39.65625 40.375 33.015625 40.375 
z
M 52.59375 71.296875 
L 52.59375 62.3125 
Q 48.875 64.0625 45.09375 64.984375 
Q 41.3125 65.921875 37.59375 65.921875 
Q 27.828125 65.921875 22.671875 59.328125 
Q 17.53125 52.734375 16.796875 39.40625 
Q 19.671875 43.65625 24.015625 45.921875 
Q 28.375 48.1875 33.59375 48.1875 
Q 44.578125 48.1875 50.953125 41.515625 
Q 57.328125 34.859375 57.328125 23.390625 
Q 57.328125 12.15625 50.6875 5.359375 
Q 44.046875 -1.421875 33.015625 -1.421875 
Q 20.359375 -1.421875 13.671875 8.265625 
Q 6.984375 17.96875 6.984375 36.375 
Q 6.984375 53.65625 15.1875 63.9375 
Q 23.390625 74.21875 37.203125 74.21875 
Q 40.921875 74.21875 44.703125 73.484375 
Q 48.484375 72.75 52.59375 71.296875 
z
" id="DejaVuSans-54"/>
      </defs>
      <g transform="translate(143.869865 368.106323)scale(0.1 -0.1)">
       <use xlink:href="#DejaVuSans-54"/>
      </g>
     </g>
    </g>
    <g id="xtick_10">
     <g id="line2d_14">
      <g>
       <use style="stroke:#000000;stroke-width:0.8;" x="183.933698" xlink:href="#m7aec493643" y="353.507885"/>
      </g>
     </g>
     <g id="text_16">
      <!-- 8 -->
      <defs>
       <path d="M 31.78125 34.625 
Q 24.75 34.625 20.71875 30.859375 
Q 16.703125 27.09375 16.703125 20.515625 
Q 16.703125 13.921875 20.71875 10.15625 
Q 24.75 6.390625 31.78125 6.390625 
Q 38.8125 6.390625 42.859375 10.171875 
Q 46.921875 13.96875 46.921875 20.515625 
Q 46.921875 27.09375 42.890625 30.859375 
Q 38.875 34.625 31.78125 34.625 
z
M 21.921875 38.8125 
Q 15.578125 40.375 12.03125 44.71875 
Q 8.5 49.078125 8.5 55.328125 
Q 8.5 64.0625 14.71875 69.140625 
Q 20.953125 74.21875 31.78125 74.21875 
Q 42.671875 74.21875 48.875 69.140625 
Q 55.078125 64.0625 55.078125 55.328125 
Q 55.078125 49.078125 51.53125 44.71875 
Q 48 40.375 41.703125 38.8125 
Q 48.828125 37.15625 52.796875 32.3125 
Q 56.78125 27.484375 56.78125 20.515625 
Q 56.78125 9.90625 50.3125 4.234375 
Q 43.84375 -1.421875 31.78125 -1.421875 
Q 19.734375 -1.421875 13.25 4.234375 
Q 6.78125 9.90625 6.78125 20.515625 
Q 6.78125 27.484375 10.78125 32.3125 
Q 14.796875 37.15625 21.921875 38.8125 
z
M 18.3125 54.390625 
Q 18.3125 48.734375 21.84375 45.5625 
Q 25.390625 42.390625 31.78125 42.390625 
Q 38.140625 42.390625 41.71875 45.5625 
Q 45.3125 48.734375 45.3125 54.390625 
Q 45.3125 60.0625 41.71875 63.234375 
Q 38.140625 66.40625 31.78125 66.40625 
Q 25.390625 66.40625 21.84375 63.234375 
Q 18.3125 60.0625 18.3125 54.390625 
z
" id="DejaVuSans-56"/>
      </defs>
      <g transform="translate(180.752448 368.106323)scale(0.1 -0.1)">
       <use xlink:href="#DejaVuSans-56"/>
      </g>
     </g>
    </g>
    <g id="text_17">
     <!-- Model Coefficient -->
     <defs>
      <path d="M 9.8125 72.90625 
L 24.515625 72.90625 
L 43.109375 23.296875 
L 61.8125 72.90625 
L 76.515625 72.90625 
L 76.515625 0 
L 66.890625 0 
L 66.890625 64.015625 
L 48.09375 14.015625 
L 38.1875 14.015625 
L 19.390625 64.015625 
L 19.390625 0 
L 9.8125 0 
z
" id="DejaVuSans-77"/>
      <path d="M 45.40625 46.390625 
L 45.40625 75.984375 
L 54.390625 75.984375 
L 54.390625 0 
L 45.40625 0 
L 45.40625 8.203125 
Q 42.578125 3.328125 38.25 0.953125 
Q 33.9375 -1.421875 27.875 -1.421875 
Q 17.96875 -1.421875 11.734375 6.484375 
Q 5.515625 14.40625 5.515625 27.296875 
Q 5.515625 40.1875 11.734375 48.09375 
Q 17.96875 56 27.875 56 
Q 33.9375 56 38.25 53.625 
Q 42.578125 51.265625 45.40625 46.390625 
z
M 14.796875 27.296875 
Q 14.796875 17.390625 18.875 11.75 
Q 22.953125 6.109375 30.078125 6.109375 
Q 37.203125 6.109375 41.296875 11.75 
Q 45.40625 17.390625 45.40625 27.296875 
Q 45.40625 37.203125 41.296875 42.84375 
Q 37.203125 48.484375 30.078125 48.484375 
Q 22.953125 48.484375 18.875 42.84375 
Q 14.796875 37.203125 14.796875 27.296875 
z
" id="DejaVuSans-100"/>
      <path d="M 56.203125 29.59375 
L 56.203125 25.203125 
L 14.890625 25.203125 
Q 15.484375 15.921875 20.484375 11.0625 
Q 25.484375 6.203125 34.421875 6.203125 
Q 39.59375 6.203125 44.453125 7.46875 
Q 49.3125 8.734375 54.109375 11.28125 
L 54.109375 2.78125 
Q 49.265625 0.734375 44.1875 -0.34375 
Q 39.109375 -1.421875 33.890625 -1.421875 
Q 20.796875 -1.421875 13.15625 6.1875 
Q 5.515625 13.8125 5.515625 26.8125 
Q 5.515625 40.234375 12.765625 48.109375 
Q 20.015625 56 32.328125 56 
Q 43.359375 56 49.78125 48.890625 
Q 56.203125 41.796875 56.203125 29.59375 
z
M 47.21875 32.234375 
Q 47.125 39.59375 43.09375 43.984375 
Q 39.0625 48.390625 32.421875 48.390625 
Q 24.90625 48.390625 20.390625 44.140625 
Q 15.875 39.890625 15.1875 32.171875 
z
" id="DejaVuSans-101"/>
      <path id="DejaVuSans-32"/>
      <path d="M 37.109375 75.984375 
L 37.109375 68.5 
L 28.515625 68.5 
Q 23.6875 68.5 21.796875 66.546875 
Q 19.921875 64.59375 19.921875 59.515625 
L 19.921875 54.6875 
L 34.71875 54.6875 
L 34.71875 47.703125 
L 19.921875 47.703125 
L 19.921875 0 
L 10.890625 0 
L 10.890625 47.703125 
L 2.296875 47.703125 
L 2.296875 54.6875 
L 10.890625 54.6875 
L 10.890625 58.5 
Q 10.890625 67.625 15.140625 71.796875 
Q 19.390625 75.984375 28.609375 75.984375 
z
" id="DejaVuSans-102"/>
      <path d="M 9.421875 54.6875 
L 18.40625 54.6875 
L 18.40625 0 
L 9.421875 0 
z
M 9.421875 75.984375 
L 18.40625 75.984375 
L 18.40625 64.59375 
L 9.421875 64.59375 
z
" id="DejaVuSans-105"/>
      <path d="M 48.78125 52.59375 
L 48.78125 44.1875 
Q 44.96875 46.296875 41.140625 47.34375 
Q 37.3125 48.390625 33.40625 48.390625 
Q 24.65625 48.390625 19.8125 42.84375 
Q 14.984375 37.3125 14.984375 27.296875 
Q 14.984375 17.28125 19.8125 11.734375 
Q 24.65625 6.203125 33.40625 6.203125 
Q 37.3125 6.203125 41.140625 7.25 
Q 44.96875 8.296875 48.78125 10.40625 
L 48.78125 2.09375 
Q 45.015625 0.34375 40.984375 -0.53125 
Q 36.96875 -1.421875 32.421875 -1.421875 
Q 20.0625 -1.421875 12.78125 6.34375 
Q 5.515625 14.109375 5.515625 27.296875 
Q 5.515625 40.671875 12.859375 48.328125 
Q 20.21875 56 33.015625 56 
Q 37.15625 56 41.109375 55.140625 
Q 45.0625 54.296875 48.78125 52.59375 
z
" id="DejaVuSans-99"/>
     </defs>
     <g transform="translate(75.485675 383.304135)scale(0.12 -0.12)">
      <use xlink:href="#DejaVuSans-77"/>
      <use x="86.279297" xlink:href="#DejaVuSans-111"/>
      <use x="147.460938" xlink:href="#DejaVuSans-100"/>
      <use x="210.9375" xlink:href="#DejaVuSans-101"/>
      <use x="272.460938" xlink:href="#DejaVuSans-108"/>
      <use x="300.244141" xlink:href="#DejaVuSans-32"/>
      <use x="332.03125" xlink:href="#DejaVuSans-67"/>
      <use x="401.855469" xlink:href="#DejaVuSans-111"/>
      <use x="463.037109" xlink:href="#DejaVuSans-101"/>
      <use x="524.560547" xlink:href="#DejaVuSans-102"/>
      <use x="559.765625" xlink:href="#DejaVuSans-102"/>
      <use x="594.970703" xlink:href="#DejaVuSans-105"/>
      <use x="622.753906" xlink:href="#DejaVuSans-99"/>
      <use x="677.734375" xlink:href="#DejaVuSans-105"/>
      <use x="705.517578" xlink:href="#DejaVuSans-101"/>
      <use x="767.041016" xlink:href="#DejaVuSans-110"/>
      <use x="830.419922" xlink:href="#DejaVuSans-116"/>
     </g>
    </g>
   </g>
   <g id="matplotlib.axis_4">
    <g id="ytick_5"/>
    <g id="ytick_6"/>
    <g id="ytick_7"/>
    <g id="text_18">
     <!-- Motif -->
     <g transform="translate(22.90774 308.242998)rotate(-90)scale(0.12 -0.12)">
      <use xlink:href="#DejaVuSans-77"/>
      <use x="86.279297" xlink:href="#DejaVuSans-111"/>
      <use x="147.460938" xlink:href="#DejaVuSans-116"/>
      <use x="186.669922" xlink:href="#DejaVuSans-105"/>
      <use x="214.453125" xlink:href="#DejaVuSans-102"/>
     </g>
    </g>
   </g>
   <g id="patch_105">
    <path d="M 36.403365 353.507885 
L 36.403365 233.01936 
" style="fill:none;stroke:#000000;stroke-linecap:square;stroke-linejoin:miter;stroke-width:0.8;"/>
   </g>
   <g id="patch_106">
    <path d="M 218.926734 353.507885 
L 218.926734 233.01936 
" style="fill:none;stroke:#000000;stroke-linecap:square;stroke-linejoin:miter;stroke-width:0.8;"/>
   </g>
   <g id="patch_107">
    <path d="M 36.403365 353.507885 
L 218.926734 353.507885 
" style="fill:none;stroke:#000000;stroke-linecap:square;stroke-linejoin:miter;stroke-width:0.8;"/>
   </g>
   <g id="patch_108">
    <path d="M 36.403365 233.01936 
L 218.926734 233.01936 
" style="fill:none;stroke:#000000;stroke-linecap:square;stroke-linejoin:miter;stroke-width:0.8;"/>
   </g>
  </g>
  <g id="axes_3">
   <g id="patch_109">
    <path d="M 386.976391 353.507885 
L 569.49976 353.507885 
L 569.49976 233.01936 
L 386.976391 233.01936 
z
" style="fill:#ffffff;"/>
   </g>
   <g id="patch_110">
    <path clip-path="url(#pf2506ae70e)" d="M 386.976391 347.483459 
L 560.808171 347.483459 
L 560.808171 299.288049 
L 386.976391 299.288049 
z
" style="fill:#808080;"/>
   </g>
   <g id="patch_111">
    <path clip-path="url(#pf2506ae70e)" d="M 386.976391 287.239196 
L 560.808171 287.239196 
L 560.808171 239.043786 
L 386.976391 239.043786 
z
" style="fill:#808080;"/>
   </g>
   <g id="matplotlib.axis_5">
    <g id="xtick_11">
     <g id="line2d_15">
      <g>
       <use style="stroke:#000000;stroke-width:0.8;" x="386.976391" xlink:href="#m7aec493643" y="353.507885"/>
      </g>
     </g>
     <g id="text_19">
      <!-- 0.0 -->
      <defs>
       <path d="M 10.6875 12.40625 
L 21 12.40625 
L 21 0 
L 10.6875 0 
z
" id="DejaVuSans-46"/>
      </defs>
      <g transform="translate(379.024828 368.106323)scale(0.1 -0.1)">
       <use xlink:href="#DejaVuSans-48"/>
       <use x="63.623047" xlink:href="#DejaVuSans-46"/>
       <use x="95.410156" xlink:href="#DejaVuSans-48"/>
      </g>
     </g>
    </g>
    <g id="xtick_12">
     <g id="line2d_16">
      <g>
       <use style="stroke:#000000;stroke-width:0.8;" x="421.105534" xlink:href="#m7aec493643" y="353.507885"/>
      </g>
     </g>
     <g id="text_20">
      <!-- 0.2 -->
      <g transform="translate(413.153971 368.106323)scale(0.1 -0.1)">
       <use xlink:href="#DejaVuSans-48"/>
       <use x="63.623047" xlink:href="#DejaVuSans-46"/>
       <use x="95.410156" xlink:href="#DejaVuSans-50"/>
      </g>
     </g>
    </g>
    <g id="xtick_13">
     <g id="line2d_17">
      <g>
       <use style="stroke:#000000;stroke-width:0.8;" x="455.234676" xlink:href="#m7aec493643" y="353.507885"/>
      </g>
     </g>
     <g id="text_21">
      <!-- 0.4 -->
      <g transform="translate(447.283114 368.106323)scale(0.1 -0.1)">
       <use xlink:href="#DejaVuSans-48"/>
       <use x="63.623047" xlink:href="#DejaVuSans-46"/>
       <use x="95.410156" xlink:href="#DejaVuSans-52"/>
      </g>
     </g>
    </g>
    <g id="xtick_14">
     <g id="line2d_18">
      <g>
       <use style="stroke:#000000;stroke-width:0.8;" x="489.363819" xlink:href="#m7aec493643" y="353.507885"/>
      </g>
     </g>
     <g id="text_22">
      <!-- 0.6 -->
      <g transform="translate(481.412257 368.106323)scale(0.1 -0.1)">
       <use xlink:href="#DejaVuSans-48"/>
       <use x="63.623047" xlink:href="#DejaVuSans-46"/>
       <use x="95.410156" xlink:href="#DejaVuSans-54"/>
      </g>
     </g>
    </g>
    <g id="xtick_15">
     <g id="line2d_19">
      <g>
       <use style="stroke:#000000;stroke-width:0.8;" x="523.492962" xlink:href="#m7aec493643" y="353.507885"/>
      </g>
     </g>
     <g id="text_23">
      <!-- 0.8 -->
      <g transform="translate(515.541399 368.106323)scale(0.1 -0.1)">
       <use xlink:href="#DejaVuSans-48"/>
       <use x="63.623047" xlink:href="#DejaVuSans-46"/>
       <use x="95.410156" xlink:href="#DejaVuSans-56"/>
      </g>
     </g>
    </g>
    <g id="xtick_16">
     <g id="line2d_20">
      <g>
       <use style="stroke:#000000;stroke-width:0.8;" x="557.622105" xlink:href="#m7aec493643" y="353.507885"/>
      </g>
     </g>
     <g id="text_24">
      <!-- 1.0 -->
      <g transform="translate(549.670542 368.106323)scale(0.1 -0.1)">
       <use xlink:href="#DejaVuSans-49"/>
       <use x="63.623047" xlink:href="#DejaVuSans-46"/>
       <use x="95.410156" xlink:href="#DejaVuSans-48"/>
      </g>
     </g>
    </g>
    <g id="text_25">
     <!-- Variance Inflation Factor -->
     <defs>
      <path d="M 28.609375 0 
L 0.78125 72.90625 
L 11.078125 72.90625 
L 34.1875 11.53125 
L 57.328125 72.90625 
L 67.578125 72.90625 
L 39.796875 0 
z
" id="DejaVuSans-86"/>
      <path d="M 34.28125 27.484375 
Q 23.390625 27.484375 19.1875 25 
Q 14.984375 22.515625 14.984375 16.5 
Q 14.984375 11.71875 18.140625 8.90625 
Q 21.296875 6.109375 26.703125 6.109375 
Q 34.1875 6.109375 38.703125 11.40625 
Q 43.21875 16.703125 43.21875 25.484375 
L 43.21875 27.484375 
z
M 52.203125 31.203125 
L 52.203125 0 
L 43.21875 0 
L 43.21875 8.296875 
Q 40.140625 3.328125 35.546875 0.953125 
Q 30.953125 -1.421875 24.3125 -1.421875 
Q 15.921875 -1.421875 10.953125 3.296875 
Q 6 8.015625 6 15.921875 
Q 6 25.140625 12.171875 29.828125 
Q 18.359375 34.515625 30.609375 34.515625 
L 43.21875 34.515625 
L 43.21875 35.40625 
Q 43.21875 41.609375 39.140625 45 
Q 35.0625 48.390625 27.6875 48.390625 
Q 23 48.390625 18.546875 47.265625 
Q 14.109375 46.140625 10.015625 43.890625 
L 10.015625 52.203125 
Q 14.9375 54.109375 19.578125 55.046875 
Q 24.21875 56 28.609375 56 
Q 40.484375 56 46.34375 49.84375 
Q 52.203125 43.703125 52.203125 31.203125 
z
" id="DejaVuSans-97"/>
      <path d="M 41.109375 46.296875 
Q 39.59375 47.171875 37.8125 47.578125 
Q 36.03125 48 33.890625 48 
Q 26.265625 48 22.1875 43.046875 
Q 18.109375 38.09375 18.109375 28.8125 
L 18.109375 0 
L 9.078125 0 
L 9.078125 54.6875 
L 18.109375 54.6875 
L 18.109375 46.1875 
Q 20.953125 51.171875 25.484375 53.578125 
Q 30.03125 56 36.53125 56 
Q 37.453125 56 38.578125 55.875 
Q 39.703125 55.765625 41.0625 55.515625 
z
" id="DejaVuSans-114"/>
      <path d="M 9.8125 72.90625 
L 19.671875 72.90625 
L 19.671875 0 
L 9.8125 0 
z
" id="DejaVuSans-73"/>
     </defs>
     <g transform="translate(404.6162 383.304135)scale(0.12 -0.12)">
      <use xlink:href="#DejaVuSans-86"/>
      <use x="68.298828" xlink:href="#DejaVuSans-97"/>
      <use x="129.578125" xlink:href="#DejaVuSans-114"/>
      <use x="170.691406" xlink:href="#DejaVuSans-105"/>
      <use x="198.474609" xlink:href="#DejaVuSans-97"/>
      <use x="259.753906" xlink:href="#DejaVuSans-110"/>
      <use x="323.132812" xlink:href="#DejaVuSans-99"/>
      <use x="378.113281" xlink:href="#DejaVuSans-101"/>
      <use x="439.636719" xlink:href="#DejaVuSans-32"/>
      <use x="471.423828" xlink:href="#DejaVuSans-73"/>
      <use x="500.916016" xlink:href="#DejaVuSans-110"/>
      <use x="564.294922" xlink:href="#DejaVuSans-102"/>
      <use x="599.5" xlink:href="#DejaVuSans-108"/>
      <use x="627.283203" xlink:href="#DejaVuSans-97"/>
      <use x="688.5625" xlink:href="#DejaVuSans-116"/>
      <use x="727.771484" xlink:href="#DejaVuSans-105"/>
      <use x="755.554688" xlink:href="#DejaVuSans-111"/>
      <use x="816.736328" xlink:href="#DejaVuSans-110"/>
      <use x="880.115234" xlink:href="#DejaVuSans-32"/>
      <use x="911.902344" xlink:href="#DejaVuSans-70"/>
      <use x="969.28125" xlink:href="#DejaVuSans-97"/>
      <use x="1030.560547" xlink:href="#DejaVuSans-99"/>
      <use x="1085.541016" xlink:href="#DejaVuSans-116"/>
      <use x="1124.75" xlink:href="#DejaVuSans-111"/>
      <use x="1185.931641" xlink:href="#DejaVuSans-114"/>
     </g>
    </g>
   </g>
   <g id="matplotlib.axis_6">
    <g id="ytick_8">
     <g id="line2d_21">
      <g>
       <use style="stroke:#000000;stroke-width:0.8;" x="386.976391" xlink:href="#m2649c40434" y="353.507885"/>
      </g>
     </g>
    </g>
    <g id="ytick_9">
     <g id="line2d_22">
      <g>
       <use style="stroke:#000000;stroke-width:0.8;" x="386.976391" xlink:href="#m2649c40434" y="323.385754"/>
      </g>
     </g>
    </g>
    <g id="ytick_10">
     <g id="line2d_23">
      <g>
       <use style="stroke:#000000;stroke-width:0.8;" x="386.976391" xlink:href="#m2649c40434" y="293.263622"/>
      </g>
     </g>
    </g>
    <g id="ytick_11">
     <g id="line2d_24">
      <g>
       <use style="stroke:#000000;stroke-width:0.8;" x="386.976391" xlink:href="#m2649c40434" y="263.141491"/>
      </g>
     </g>
    </g>
    <g id="ytick_12">
     <g id="line2d_25">
      <g>
       <use style="stroke:#000000;stroke-width:0.8;" x="386.976391" xlink:href="#m2649c40434" y="233.01936"/>
      </g>
     </g>
    </g>
    <g id="text_26">
     <!-- Motif -->
     <g transform="translate(373.480766 308.242998)rotate(-90)scale(0.12 -0.12)">
      <use xlink:href="#DejaVuSans-77"/>
      <use x="86.279297" xlink:href="#DejaVuSans-111"/>
      <use x="147.460938" xlink:href="#DejaVuSans-116"/>
      <use x="186.669922" xlink:href="#DejaVuSans-105"/>
      <use x="214.453125" xlink:href="#DejaVuSans-102"/>
     </g>
    </g>
   </g>
   <g id="patch_112">
    <path d="M 386.976391 353.507885 
L 386.976391 233.01936 
" style="fill:none;stroke:#000000;stroke-linecap:square;stroke-linejoin:miter;stroke-width:0.8;"/>
   </g>
   <g id="patch_113">
    <path d="M 569.49976 353.507885 
L 569.49976 233.01936 
" style="fill:none;stroke:#000000;stroke-linecap:square;stroke-linejoin:miter;stroke-width:0.8;"/>
   </g>
   <g id="patch_114">
    <path d="M 386.976391 353.507885 
L 569.49976 353.507885 
" style="fill:none;stroke:#000000;stroke-linecap:square;stroke-linejoin:miter;stroke-width:0.8;"/>
   </g>
   <g id="patch_115">
    <path d="M 386.976391 233.01936 
L 569.49976 233.01936 
" style="fill:none;stroke:#000000;stroke-linecap:square;stroke-linejoin:miter;stroke-width:0.8;"/>
   </g>
  </g>
  <g id="axes_4">
   <g id="patch_116">
    <path d="M 386.976391 189.671805 
L 569.49976 189.671805 
L 569.49976 69.18328 
L 386.976391 69.18328 
z
" style="fill:#ffffff;"/>
   </g>
   <g id="matplotlib.axis_7">
    <g id="xtick_17">
     <g id="line2d_26">
      <g>
       <use style="stroke:#000000;stroke-width:0.8;" x="395.272908" xlink:href="#m7aec493643" y="189.671805"/>
      </g>
     </g>
     <g id="text_27">
      <!-- 0.0 -->
      <g transform="translate(387.321345 204.270243)scale(0.1 -0.1)">
       <use xlink:href="#DejaVuSans-48"/>
       <use x="63.623047" xlink:href="#DejaVuSans-46"/>
       <use x="95.410156" xlink:href="#DejaVuSans-48"/>
      </g>
     </g>
    </g>
    <g id="xtick_18">
     <g id="line2d_27">
      <g>
       <use style="stroke:#000000;stroke-width:0.8;" x="428.458975" xlink:href="#m7aec493643" y="189.671805"/>
      </g>
     </g>
     <g id="text_28">
      <!-- 0.2 -->
      <g transform="translate(420.507412 204.270243)scale(0.1 -0.1)">
       <use xlink:href="#DejaVuSans-48"/>
       <use x="63.623047" xlink:href="#DejaVuSans-46"/>
       <use x="95.410156" xlink:href="#DejaVuSans-50"/>
      </g>
     </g>
    </g>
    <g id="xtick_19">
     <g id="line2d_28">
      <g>
       <use style="stroke:#000000;stroke-width:0.8;" x="461.645042" xlink:href="#m7aec493643" y="189.671805"/>
      </g>
     </g>
     <g id="text_29">
      <!-- 0.4 -->
      <g transform="translate(453.693479 204.270243)scale(0.1 -0.1)">
       <use xlink:href="#DejaVuSans-48"/>
       <use x="63.623047" xlink:href="#DejaVuSans-46"/>
       <use x="95.410156" xlink:href="#DejaVuSans-52"/>
      </g>
     </g>
    </g>
    <g id="xtick_20">
     <g id="line2d_29">
      <g>
       <use style="stroke:#000000;stroke-width:0.8;" x="494.831109" xlink:href="#m7aec493643" y="189.671805"/>
      </g>
     </g>
     <g id="text_30">
      <!-- 0.6 -->
      <g transform="translate(486.879546 204.270243)scale(0.1 -0.1)">
       <use xlink:href="#DejaVuSans-48"/>
       <use x="63.623047" xlink:href="#DejaVuSans-46"/>
       <use x="95.410156" xlink:href="#DejaVuSans-54"/>
      </g>
     </g>
    </g>
    <g id="xtick_21">
     <g id="line2d_30">
      <g>
       <use style="stroke:#000000;stroke-width:0.8;" x="528.017176" xlink:href="#m7aec493643" y="189.671805"/>
      </g>
     </g>
     <g id="text_31">
      <!-- 0.8 -->
      <g transform="translate(520.065614 204.270243)scale(0.1 -0.1)">
       <use xlink:href="#DejaVuSans-48"/>
       <use x="63.623047" xlink:href="#DejaVuSans-46"/>
       <use x="95.410156" xlink:href="#DejaVuSans-56"/>
      </g>
     </g>
    </g>
    <g id="xtick_22">
     <g id="line2d_31">
      <g>
       <use style="stroke:#000000;stroke-width:0.8;" x="561.203243" xlink:href="#m7aec493643" y="189.671805"/>
      </g>
     </g>
     <g id="text_32">
      <!-- 1.0 -->
      <g transform="translate(553.251681 204.270243)scale(0.1 -0.1)">
       <use xlink:href="#DejaVuSans-49"/>
       <use x="63.623047" xlink:href="#DejaVuSans-46"/>
       <use x="95.410156" xlink:href="#DejaVuSans-48"/>
      </g>
     </g>
    </g>
    <g id="text_33">
     <!-- False Positive Rate -->
     <defs>
      <path d="M 19.671875 64.796875 
L 19.671875 37.40625 
L 32.078125 37.40625 
Q 38.96875 37.40625 42.71875 40.96875 
Q 46.484375 44.53125 46.484375 51.125 
Q 46.484375 57.671875 42.71875 61.234375 
Q 38.96875 64.796875 32.078125 64.796875 
z
M 9.8125 72.90625 
L 32.078125 72.90625 
Q 44.34375 72.90625 50.609375 67.359375 
Q 56.890625 61.8125 56.890625 51.125 
Q 56.890625 40.328125 50.609375 34.8125 
Q 44.34375 29.296875 32.078125 29.296875 
L 19.671875 29.296875 
L 19.671875 0 
L 9.8125 0 
z
" id="DejaVuSans-80"/>
      <path d="M 2.984375 54.6875 
L 12.5 54.6875 
L 29.59375 8.796875 
L 46.6875 54.6875 
L 56.203125 54.6875 
L 35.6875 0 
L 23.484375 0 
z
" id="DejaVuSans-118"/>
     </defs>
     <g transform="translate(421.591513 219.468055)scale(0.12 -0.12)">
      <use xlink:href="#DejaVuSans-70"/>
      <use x="57.378906" xlink:href="#DejaVuSans-97"/>
      <use x="118.658203" xlink:href="#DejaVuSans-108"/>
      <use x="146.441406" xlink:href="#DejaVuSans-115"/>
      <use x="198.541016" xlink:href="#DejaVuSans-101"/>
      <use x="260.064453" xlink:href="#DejaVuSans-32"/>
      <use x="291.851562" xlink:href="#DejaVuSans-80"/>
      <use x="352.107422" xlink:href="#DejaVuSans-111"/>
      <use x="413.289062" xlink:href="#DejaVuSans-115"/>
      <use x="465.388672" xlink:href="#DejaVuSans-105"/>
      <use x="493.171875" xlink:href="#DejaVuSans-116"/>
      <use x="532.380859" xlink:href="#DejaVuSans-105"/>
      <use x="560.164062" xlink:href="#DejaVuSans-118"/>
      <use x="619.34375" xlink:href="#DejaVuSans-101"/>
      <use x="680.867188" xlink:href="#DejaVuSans-32"/>
      <use x="712.654297" xlink:href="#DejaVuSans-82"/>
      <use x="782.105469" xlink:href="#DejaVuSans-97"/>
      <use x="843.384766" xlink:href="#DejaVuSans-116"/>
      <use x="882.59375" xlink:href="#DejaVuSans-101"/>
     </g>
    </g>
   </g>
   <g id="matplotlib.axis_8">
    <g id="ytick_13">
     <g id="line2d_32">
      <g>
       <use style="stroke:#000000;stroke-width:0.8;" x="386.976391" xlink:href="#m2649c40434" y="184.195054"/>
      </g>
     </g>
     <g id="text_34">
      <!-- 0.0 -->
      <g transform="translate(364.073266 187.994273)scale(0.1 -0.1)">
       <use xlink:href="#DejaVuSans-48"/>
       <use x="63.623047" xlink:href="#DejaVuSans-46"/>
       <use x="95.410156" xlink:href="#DejaVuSans-48"/>
      </g>
     </g>
    </g>
    <g id="ytick_14">
     <g id="line2d_33">
      <g>
       <use style="stroke:#000000;stroke-width:0.8;" x="386.976391" xlink:href="#m2649c40434" y="162.288049"/>
      </g>
     </g>
     <g id="text_35">
      <!-- 0.2 -->
      <g transform="translate(364.073266 166.087268)scale(0.1 -0.1)">
       <use xlink:href="#DejaVuSans-48"/>
       <use x="63.623047" xlink:href="#DejaVuSans-46"/>
       <use x="95.410156" xlink:href="#DejaVuSans-50"/>
      </g>
     </g>
    </g>
    <g id="ytick_15">
     <g id="line2d_34">
      <g>
       <use style="stroke:#000000;stroke-width:0.8;" x="386.976391" xlink:href="#m2649c40434" y="140.381045"/>
      </g>
     </g>
     <g id="text_36">
      <!-- 0.4 -->
      <g transform="translate(364.073266 144.180264)scale(0.1 -0.1)">
       <use xlink:href="#DejaVuSans-48"/>
       <use x="63.623047" xlink:href="#DejaVuSans-46"/>
       <use x="95.410156" xlink:href="#DejaVuSans-52"/>
      </g>
     </g>
    </g>
    <g id="ytick_16">
     <g id="line2d_35">
      <g>
       <use style="stroke:#000000;stroke-width:0.8;" x="386.976391" xlink:href="#m2649c40434" y="118.47404"/>
      </g>
     </g>
     <g id="text_37">
      <!-- 0.6 -->
      <g transform="translate(364.073266 122.273259)scale(0.1 -0.1)">
       <use xlink:href="#DejaVuSans-48"/>
       <use x="63.623047" xlink:href="#DejaVuSans-46"/>
       <use x="95.410156" xlink:href="#DejaVuSans-54"/>
      </g>
     </g>
    </g>
    <g id="ytick_17">
     <g id="line2d_36">
      <g>
       <use style="stroke:#000000;stroke-width:0.8;" x="386.976391" xlink:href="#m2649c40434" y="96.567036"/>
      </g>
     </g>
     <g id="text_38">
      <!-- 0.8 -->
      <g transform="translate(364.073266 100.366254)scale(0.1 -0.1)">
       <use xlink:href="#DejaVuSans-48"/>
       <use x="63.623047" xlink:href="#DejaVuSans-46"/>
       <use x="95.410156" xlink:href="#DejaVuSans-56"/>
      </g>
     </g>
    </g>
    <g id="ytick_18">
     <g id="line2d_37">
      <g>
       <use style="stroke:#000000;stroke-width:0.8;" x="386.976391" xlink:href="#m2649c40434" y="74.660031"/>
      </g>
     </g>
     <g id="text_39">
      <!-- 1.0 -->
      <g transform="translate(364.073266 78.45925)scale(0.1 -0.1)">
       <use xlink:href="#DejaVuSans-49"/>
       <use x="63.623047" xlink:href="#DejaVuSans-46"/>
       <use x="95.410156" xlink:href="#DejaVuSans-48"/>
      </g>
     </g>
    </g>
    <g id="text_40">
     <!-- True Positive Rate -->
     <defs>
      <path d="M -0.296875 72.90625 
L 61.375 72.90625 
L 61.375 64.59375 
L 35.5 64.59375 
L 35.5 0 
L 25.59375 0 
L 25.59375 64.59375 
L -0.296875 64.59375 
z
" id="DejaVuSans-84"/>
     </defs>
     <g transform="translate(357.577641 184.082855)rotate(-90)scale(0.12 -0.12)">
      <use xlink:href="#DejaVuSans-84"/>
      <use x="60.865234" xlink:href="#DejaVuSans-114"/>
      <use x="101.978516" xlink:href="#DejaVuSans-117"/>
      <use x="165.357422" xlink:href="#DejaVuSans-101"/>
      <use x="226.880859" xlink:href="#DejaVuSans-32"/>
      <use x="258.667969" xlink:href="#DejaVuSans-80"/>
      <use x="318.923828" xlink:href="#DejaVuSans-111"/>
      <use x="380.105469" xlink:href="#DejaVuSans-115"/>
      <use x="432.205078" xlink:href="#DejaVuSans-105"/>
      <use x="459.988281" xlink:href="#DejaVuSans-116"/>
      <use x="499.197266" xlink:href="#DejaVuSans-105"/>
      <use x="526.980469" xlink:href="#DejaVuSans-118"/>
      <use x="586.160156" xlink:href="#DejaVuSans-101"/>
      <use x="647.683594" xlink:href="#DejaVuSans-32"/>
      <use x="679.470703" xlink:href="#DejaVuSans-82"/>
      <use x="748.921875" xlink:href="#DejaVuSans-97"/>
      <use x="810.201172" xlink:href="#DejaVuSans-116"/>
      <use x="849.410156" xlink:href="#DejaVuSans-101"/>
     </g>
    </g>
   </g>
   <g id="line2d_38">
    <path clip-path="url(#p42c038a44d)" d="M 395.272908 184.195054 
L 398.526444 112.759169 
L 401.77998 79.422423 
L 561.203243 74.660031 
" style="fill:none;stroke:#0073b2;stroke-linecap:square;stroke-width:1.5;"/>
   </g>
   <g id="line2d_39">
    <path clip-path="url(#p42c038a44d)" d="M 395.272908 184.195054 
L 395.272908 176.257733 
L 395.272908 114.346634 
L 399.106282 84.184816 
L 561.203243 74.660031 
" style="fill:none;stroke:#cc6600;stroke-linecap:square;stroke-width:1.5;"/>
   </g>
   <g id="line2d_40">
    <path clip-path="url(#p42c038a44d)" d="M 395.272908 184.195054 
L 561.203243 74.660031 
" style="fill:none;stroke:#808080;stroke-dasharray:4,8;stroke-dashoffset:0;stroke-width:0.8;"/>
   </g>
   <g id="patch_117">
    <path d="M 386.976391 189.671805 
L 386.976391 69.18328 
" style="fill:none;stroke:#000000;stroke-linecap:square;stroke-linejoin:miter;stroke-width:0.8;"/>
   </g>
   <g id="patch_118">
    <path d="M 569.49976 189.671805 
L 569.49976 69.18328 
" style="fill:none;stroke:#000000;stroke-linecap:square;stroke-linejoin:miter;stroke-width:0.8;"/>
   </g>
   <g id="patch_119">
    <path d="M 386.976391 189.671805 
L 569.49976 189.671805 
" style="fill:none;stroke:#000000;stroke-linecap:square;stroke-linejoin:miter;stroke-width:0.8;"/>
   </g>
   <g id="patch_120">
    <path d="M 386.976391 69.18328 
L 569.49976 69.18328 
" style="fill:none;stroke:#000000;stroke-linecap:square;stroke-linejoin:miter;stroke-width:0.8;"/>
   </g>
   <g id="legend_1">
    <g id="patch_121">
     <path d="M 433.284135 184.671805 
L 562.49976 184.671805 
Q 564.49976 184.671805 564.49976 182.671805 
L 564.49976 154.315555 
Q 564.49976 152.315555 562.49976 152.315555 
L 433.284135 152.315555 
Q 431.284135 152.315555 431.284135 154.315555 
L 431.284135 182.671805 
Q 431.284135 184.671805 433.284135 184.671805 
z
" style="fill:#ffffff;opacity:0.8;stroke:#cccccc;stroke-linejoin:miter;"/>
    </g>
    <g id="line2d_41">
     <path d="M 435.284135 160.413993 
L 455.284135 160.413993 
" style="fill:none;stroke:#0073b2;stroke-linecap:square;stroke-width:1.5;"/>
    </g>
    <g id="line2d_42"/>
    <g id="text_41">
     <!-- Test, AUC: 0.96 -->
     <defs>
      <path d="M 11.71875 12.40625 
L 22.015625 12.40625 
L 22.015625 4 
L 14.015625 -11.625 
L 7.71875 -11.625 
L 11.71875 4 
z
" id="DejaVuSans-44"/>
      <path d="M 34.1875 63.1875 
L 20.796875 26.90625 
L 47.609375 26.90625 
z
M 28.609375 72.90625 
L 39.796875 72.90625 
L 67.578125 0 
L 57.328125 0 
L 50.6875 18.703125 
L 17.828125 18.703125 
L 11.1875 0 
L 0.78125 0 
z
" id="DejaVuSans-65"/>
      <path d="M 11.71875 12.40625 
L 22.015625 12.40625 
L 22.015625 0 
L 11.71875 0 
z
M 11.71875 51.703125 
L 22.015625 51.703125 
L 22.015625 39.3125 
L 11.71875 39.3125 
z
" id="DejaVuSans-58"/>
      <path d="M 10.984375 1.515625 
L 10.984375 10.5 
Q 14.703125 8.734375 18.5 7.8125 
Q 22.3125 6.890625 25.984375 6.890625 
Q 35.75 6.890625 40.890625 13.453125 
Q 46.046875 20.015625 46.78125 33.40625 
Q 43.953125 29.203125 39.59375 26.953125 
Q 35.25 24.703125 29.984375 24.703125 
Q 19.046875 24.703125 12.671875 31.3125 
Q 6.296875 37.9375 6.296875 49.421875 
Q 6.296875 60.640625 12.9375 67.421875 
Q 19.578125 74.21875 30.609375 74.21875 
Q 43.265625 74.21875 49.921875 64.515625 
Q 56.59375 54.828125 56.59375 36.375 
Q 56.59375 19.140625 48.40625 8.859375 
Q 40.234375 -1.421875 26.421875 -1.421875 
Q 22.703125 -1.421875 18.890625 -0.6875 
Q 15.09375 0.046875 10.984375 1.515625 
z
M 30.609375 32.421875 
Q 37.25 32.421875 41.125 36.953125 
Q 45.015625 41.5 45.015625 49.421875 
Q 45.015625 57.28125 41.125 61.84375 
Q 37.25 66.40625 30.609375 66.40625 
Q 23.96875 66.40625 20.09375 61.84375 
Q 16.21875 57.28125 16.21875 49.421875 
Q 16.21875 41.5 20.09375 36.953125 
Q 23.96875 32.421875 30.609375 32.421875 
z
" id="DejaVuSans-57"/>
     </defs>
     <g transform="translate(463.284135 163.913993)scale(0.1 -0.1)">
      <use xlink:href="#DejaVuSans-84"/>
      <use x="60.818359" xlink:href="#DejaVuSans-101"/>
      <use x="122.341797" xlink:href="#DejaVuSans-115"/>
      <use x="174.441406" xlink:href="#DejaVuSans-116"/>
      <use x="213.650391" xlink:href="#DejaVuSans-44"/>
      <use x="245.4375" xlink:href="#DejaVuSans-32"/>
      <use x="277.224609" xlink:href="#DejaVuSans-65"/>
      <use x="345.632812" xlink:href="#DejaVuSans-85"/>
      <use x="418.826172" xlink:href="#DejaVuSans-67"/>
      <use x="488.650391" xlink:href="#DejaVuSans-58"/>
      <use x="522.341797" xlink:href="#DejaVuSans-32"/>
      <use x="554.128906" xlink:href="#DejaVuSans-48"/>
      <use x="617.751953" xlink:href="#DejaVuSans-46"/>
      <use x="649.539062" xlink:href="#DejaVuSans-57"/>
      <use x="713.162109" xlink:href="#DejaVuSans-54"/>
     </g>
    </g>
    <g id="line2d_43">
     <path d="M 435.284135 175.092118 
L 455.284135 175.092118 
" style="fill:none;stroke:#cc6600;stroke-linecap:square;stroke-width:1.5;"/>
    </g>
    <g id="line2d_44"/>
    <g id="text_42">
     <!-- Training, AUC: 0.95 -->
     <defs>
      <path d="M 10.796875 72.90625 
L 49.515625 72.90625 
L 49.515625 64.59375 
L 19.828125 64.59375 
L 19.828125 46.734375 
Q 21.96875 47.46875 24.109375 47.828125 
Q 26.265625 48.1875 28.421875 48.1875 
Q 40.625 48.1875 47.75 41.5 
Q 54.890625 34.8125 54.890625 23.390625 
Q 54.890625 11.625 47.5625 5.09375 
Q 40.234375 -1.421875 26.90625 -1.421875 
Q 22.3125 -1.421875 17.546875 -0.640625 
Q 12.796875 0.140625 7.71875 1.703125 
L 7.71875 11.625 
Q 12.109375 9.234375 16.796875 8.0625 
Q 21.484375 6.890625 26.703125 6.890625 
Q 35.15625 6.890625 40.078125 11.328125 
Q 45.015625 15.765625 45.015625 23.390625 
Q 45.015625 31 40.078125 35.4375 
Q 35.15625 39.890625 26.703125 39.890625 
Q 22.75 39.890625 18.8125 39.015625 
Q 14.890625 38.140625 10.796875 36.28125 
z
" id="DejaVuSans-53"/>
     </defs>
     <g transform="translate(463.284135 178.592118)scale(0.1 -0.1)">
      <use xlink:href="#DejaVuSans-84"/>
      <use x="60.865234" xlink:href="#DejaVuSans-114"/>
      <use x="101.978516" xlink:href="#DejaVuSans-97"/>
      <use x="163.257812" xlink:href="#DejaVuSans-105"/>
      <use x="191.041016" xlink:href="#DejaVuSans-110"/>
      <use x="254.419922" xlink:href="#DejaVuSans-105"/>
      <use x="282.203125" xlink:href="#DejaVuSans-110"/>
      <use x="345.582031" xlink:href="#DejaVuSans-103"/>
      <use x="409.058594" xlink:href="#DejaVuSans-44"/>
      <use x="440.845703" xlink:href="#DejaVuSans-32"/>
      <use x="472.632812" xlink:href="#DejaVuSans-65"/>
      <use x="541.041016" xlink:href="#DejaVuSans-85"/>
      <use x="614.234375" xlink:href="#DejaVuSans-67"/>
      <use x="684.058594" xlink:href="#DejaVuSans-58"/>
      <use x="717.75" xlink:href="#DejaVuSans-32"/>
      <use x="749.537109" xlink:href="#DejaVuSans-48"/>
      <use x="813.160156" xlink:href="#DejaVuSans-46"/>
      <use x="844.947266" xlink:href="#DejaVuSans-57"/>
      <use x="908.570312" xlink:href="#DejaVuSans-53"/>
     </g>
    </g>
   </g>
  </g>
  <g id="axes_5">
   <g id="line2d_45">
    <path clip-path="url(#pb73faf7087)" d="M 267.73407 244.831906 
L 267.73407 272.133671 
" style="fill:none;stroke:#000000;stroke-linecap:square;stroke-width:0.583973;"/>
   </g>
   <g id="line2d_46">
    <path clip-path="url(#pb73faf7087)" d="M 313.237013 244.831906 
L 267.73407 244.831906 
" style="fill:none;stroke:#000000;stroke-linecap:square;stroke-width:0.583973;"/>
   </g>
   <g id="line2d_47">
    <path clip-path="url(#pb73faf7087)" d="M 313.237013 244.831906 
L 313.237013 272.133671 
" style="fill:none;stroke:#000000;stroke-linecap:square;stroke-width:0.583973;"/>
   </g>
   <g id="patch_122">
    <path clip-path="url(#pb73faf7087)" d="M 270.371819 264.241755 
L 274.287561 264.241755 
L 274.287561 265.185585 
L 269.022728 265.185585 
L 269.022728 264.241755 
Q 269.660836 263.58054 270.76286 262.467851 
Q 271.866662 261.353384 272.149278 261.029887 
Q 272.687848 260.425551 272.901143 260.006071 
Q 273.116215 259.586591 273.116215 259.18133 
Q 273.116215 258.520115 272.652299 258.10419 
Q 272.188382 257.686487 271.443627 257.686487 
Q 270.915721 257.686487 270.32916 257.869565 
Q 269.744376 258.052644 269.077829 258.42591 
L 269.077829 257.291891 
Q 269.755041 257.01994 270.34338 256.881298 
Q 270.933496 256.742657 271.422297 256.742657 
Q 272.710955 256.742657 273.477039 257.387874 
Q 274.243124 258.031314 274.243124 259.108454 
Q 274.243124 259.620362 274.051159 260.078947 
Q 273.86097 260.535753 273.354395 261.157864 
Q 273.215753 261.319613 272.470998 262.089252 
Q 271.72802 262.858892 270.371819 264.241755 
z
M 276.759783 263.774283 
L 277.931129 263.774283 
L 277.931129 264.730556 
L 277.02107 266.508015 
L 276.304754 266.508015 
L 276.759783 264.730556 
z
M 283.658767 260.713499 
Q 284.463956 260.885913 284.91543 261.431593 
Q 285.368682 261.975495 285.368682 262.775351 
Q 285.368682 264.001798 284.524389 264.675455 
Q 283.680097 265.347334 282.12482 265.347334 
Q 281.604025 265.347334 281.051235 265.244242 
Q 280.498446 265.141149 279.910107 264.934964 
L 279.910107 263.852491 
Q 280.375801 264.124443 280.930368 264.263084 
Q 281.486713 264.401726 282.092826 264.401726 
Q 283.146859 264.401726 283.699649 263.985801 
Q 284.252438 263.569875 284.252438 262.775351 
Q 284.252438 262.041261 283.738753 261.628891 
Q 283.225067 261.214743 282.309676 261.214743 
L 281.342738 261.214743 
L 281.342738 260.292242 
L 282.354112 260.292242 
Q 283.180631 260.292242 283.619663 259.961634 
Q 284.058695 259.631027 284.058695 259.008916 
Q 284.058695 258.370809 283.605443 258.029537 
Q 283.153969 257.686487 282.309676 257.686487 
Q 281.847537 257.686487 281.319631 257.787802 
Q 280.791726 257.88734 280.158951 258.09708 
L 280.158951 257.098148 
Q 280.798836 256.920403 281.356958 256.83153 
Q 281.91508 256.742657 282.409214 256.742657 
Q 283.687206 256.742657 284.430184 257.323886 
Q 285.174939 257.903337 285.174939 258.891604 
Q 285.174939 259.581258 284.780344 260.05584 
Q 284.385748 260.530421 283.658767 260.713499 
z
M 287.61339 263.774283 
L 288.784736 263.774283 
L 288.784736 264.730556 
L 287.874677 266.508015 
L 287.158361 266.508015 
L 287.61339 264.730556 
z
M 294.195987 257.869565 
L 291.362717 262.297215 
L 294.195987 262.297215 
z
M 293.900928 256.891963 
L 295.312231 256.891963 
L 295.312231 262.297215 
L 296.496018 262.297215 
L 296.496018 263.230381 
L 295.312231 263.230381 
L 295.312231 265.185585 
L 294.195987 265.185585 
L 294.195987 263.230381 
L 290.452659 263.230381 
L 290.452659 262.147909 
z
M 298.466998 263.774283 
L 299.638343 263.774283 
L 299.638343 264.730556 
L 298.728284 266.508015 
L 298.011968 266.508015 
L 298.466998 264.730556 
z
M 304.505691 260.592632 
Q 303.750271 260.592632 303.307684 261.109873 
Q 302.866874 261.625336 302.866874 262.52473 
Q 302.866874 263.418791 303.307684 263.939587 
Q 303.750271 264.458605 304.505691 264.458605 
Q 305.261111 264.458605 305.701921 263.939587 
Q 306.142731 263.418791 306.142731 262.52473 
Q 306.142731 261.625336 305.701921 261.109873 
Q 305.261111 260.592632 304.505691 260.592632 
z
M 306.732847 257.075041 
L 306.732847 258.09708 
Q 306.309812 257.898005 305.879667 257.793135 
Q 305.449522 257.686487 305.026487 257.686487 
Q 303.915575 257.686487 303.329014 258.436575 
Q 302.74423 259.186662 302.660689 260.702835 
Q 302.987742 260.219366 303.481875 259.961634 
Q 303.977786 259.703903 304.571457 259.703903 
Q 305.821011 259.703903 306.546214 260.462878 
Q 307.271417 261.220075 307.271417 262.52473 
Q 307.271417 263.802723 306.515997 264.575917 
Q 305.760577 265.347334 304.505691 265.347334 
Q 303.06595 265.347334 302.305197 264.24531 
Q 301.544445 263.141508 301.544445 261.047662 
Q 301.544445 259.081792 302.477611 257.912224 
Q 303.410777 256.742657 304.98205 256.742657 
Q 305.405085 256.742657 305.83523 256.826197 
Q 306.265375 256.909738 306.732847 257.075041 
z
"/>
   </g>
   <g id="patch_123">
    <path clip-path="url(#pb73faf7087)" d="M 283.02377 243.537916 
L 283.02377 246.287645 
L 281.996399 246.287645 
L 281.996399 237.739846 
Q 281.996399 235.206967 284.362196 235.206967 
Q 286.774208 235.206967 286.774208 237.34525 
Q 286.774208 238.866755 285.817935 239.423099 
Q 287.373211 239.922565 287.373211 241.404966 
Q 287.373211 244.039159 284.696359 244.039159 
Q 283.517903 244.039159 283.02377 243.537916 
z
M 283.02377 242.204822 
Q 283.640548 243.166427 284.735463 243.166427 
Q 286.335176 243.166427 286.335176 241.42274 
Q 286.335176 239.855022 283.75786 239.977666 
L 283.75786 239.033836 
Q 285.773499 239.033836 285.773499 237.256377 
Q 285.773499 236.040595 284.474176 236.040595 
Q 283.02377 236.040595 283.02377 237.773618 
z
"/>
   </g>
   <g id="patch_124">
    <path clip-path="url(#pb73faf7087)" d="M 298.880479 236.605827 
L 296.04721 241.033477 
L 298.880479 241.033477 
z
M 298.585421 235.628225 
L 299.996723 235.628225 
L 299.996723 241.033477 
L 301.18051 241.033477 
L 301.18051 241.966643 
L 299.996723 241.966643 
L 299.996723 243.921847 
L 298.880479 243.921847 
L 298.880479 241.966643 
L 295.137151 241.966643 
L 295.137151 240.88417 
z
"/>
   </g>
   <g id="patch_125">
    <path clip-path="url(#pb73faf7087)" d="M 318.308102 260.713499 
Q 319.113291 260.885913 319.564766 261.431593 
Q 320.018018 261.975495 320.018018 262.775351 
Q 320.018018 264.001798 319.173725 264.675455 
Q 318.329432 265.347334 316.774155 265.347334 
Q 316.25336 265.347334 315.70057 265.244242 
Q 315.147781 265.141149 314.559442 264.934964 
L 314.559442 263.852491 
Q 315.025136 264.124443 315.579703 264.263084 
Q 316.136048 264.401726 316.742161 264.401726 
Q 317.796194 264.401726 318.348984 263.985801 
Q 318.901773 263.569875 318.901773 262.775351 
Q 318.901773 262.041261 318.388088 261.628891 
Q 317.874402 261.214743 316.959011 261.214743 
L 315.992074 261.214743 
L 315.992074 260.292242 
L 317.003448 260.292242 
Q 317.829966 260.292242 318.268998 259.961634 
Q 318.70803 259.631027 318.70803 259.008916 
Q 318.70803 258.370809 318.254779 258.029537 
Q 317.803304 257.686487 316.959011 257.686487 
Q 316.496872 257.686487 315.968967 257.787802 
Q 315.441061 257.88734 314.808286 258.09708 
L 314.808286 257.098148 
Q 315.448171 256.920403 316.006293 256.83153 
Q 316.564415 256.742657 317.058549 256.742657 
Q 318.336542 256.742657 319.079519 257.323886 
Q 319.824275 257.903337 319.824275 258.891604 
Q 319.824275 259.581258 319.429679 260.05584 
Q 319.035083 260.530421 318.308102 260.713499 
z
M 322.262726 263.774283 
L 323.434071 263.774283 
L 323.434071 264.730556 
L 322.524012 266.508015 
L 321.807696 266.508015 
L 322.262726 264.730556 
z
M 328.301419 260.592632 
Q 327.545999 260.592632 327.103412 261.109873 
Q 326.662602 261.625336 326.662602 262.52473 
Q 326.662602 263.418791 327.103412 263.939587 
Q 327.545999 264.458605 328.301419 264.458605 
Q 329.056839 264.458605 329.497649 263.939587 
Q 329.938459 263.418791 329.938459 262.52473 
Q 329.938459 261.625336 329.497649 261.109873 
Q 329.056839 260.592632 328.301419 260.592632 
z
M 330.528575 257.075041 
L 330.528575 258.09708 
Q 330.10554 257.898005 329.675395 257.793135 
Q 329.24525 257.686487 328.822215 257.686487 
Q 327.711303 257.686487 327.124742 258.436575 
Q 326.539958 259.186662 326.456417 260.702835 
Q 326.78347 260.219366 327.277603 259.961634 
Q 327.773514 259.703903 328.367185 259.703903 
Q 329.616739 259.703903 330.341942 260.462878 
Q 331.067145 261.220075 331.067145 262.52473 
Q 331.067145 263.802723 330.311725 264.575917 
Q 329.556305 265.347334 328.301419 265.347334 
Q 326.861678 265.347334 326.100926 264.24531 
Q 325.340173 263.141508 325.340173 261.047662 
Q 325.340173 259.081792 326.273339 257.912224 
Q 327.206505 256.742657 328.777778 256.742657 
Q 329.200813 256.742657 329.630958 256.826197 
Q 330.061103 256.909738 330.528575 257.075041 
z
"/>
   </g>
   <g id="patch_126">
    <path clip-path="url(#pb73faf7087)" d="M 322.337601 235.731318 
L 322.337601 253.932494 
L 304.136424 253.932494 
L 304.136424 235.731318 
L 322.337601 235.731318 
z
" style="fill:#0090bc;stroke:#000000;stroke-linejoin:miter;stroke-width:0.583973;"/>
   </g>
   <g id="patch_127">
    <path clip-path="url(#pb73faf7087)" d="M 267.73407 253.932494 
C 270.147575 253.932494 272.462553 252.973599 274.169158 251.266994 
C 275.875763 249.560389 276.834659 247.24541 276.834659 244.831906 
C 276.834659 242.418402 275.875763 240.103423 274.169158 238.396818 
C 272.462553 236.690213 270.147575 235.731318 267.73407 235.731318 
C 265.320566 235.731318 263.005588 236.690213 261.298983 238.396818 
C 259.592377 240.103423 258.633482 242.418402 258.633482 244.831906 
C 258.633482 247.24541 259.592377 249.560389 261.298983 251.266994 
C 263.005588 252.973599 265.320566 253.932494 267.73407 253.932494 
z
" style="fill:#ffd400;stroke:#000000;stroke-linejoin:miter;stroke-width:0.583973;"/>
   </g>
   <g id="patch_128">
    <path clip-path="url(#pb73faf7087)" d="M 320.062454 265.30823 
L 306.411571 278.959113 
z
" style="fill:#ffffff;stroke:#000000;stroke-linejoin:miter;stroke-width:0.583973;"/>
   </g>
   <g id="patch_129">
    <path clip-path="url(#pb73faf7087)" d="M 306.411571 265.30823 
L 320.062454 278.959113 
z
" style="fill:#ffffff;stroke:#000000;stroke-linejoin:miter;stroke-width:0.583973;"/>
   </g>
   <g id="patch_130">
    <path clip-path="url(#pb73faf7087)" d="M 274.559512 265.30823 
L 260.908629 278.959113 
z
" style="fill:#ffffff;stroke:#000000;stroke-linejoin:miter;stroke-width:0.583973;"/>
   </g>
   <g id="patch_131">
    <path clip-path="url(#pb73faf7087)" d="M 260.908629 265.30823 
L 274.559512 278.959113 
z
" style="fill:#ffffff;stroke:#000000;stroke-linejoin:miter;stroke-width:0.583973;"/>
   </g>
  </g>
  <g id="axes_6">
   <g id="line2d_48">
    <path clip-path="url(#p9eb162d100)" d="M 284.900388 316.77911 
L 284.900388 344.412044 
" style="fill:none;stroke:#000000;stroke-linecap:square;stroke-width:0.583973;"/>
   </g>
   <g id="patch_132">
    <path clip-path="url(#p9eb162d100)" d="M 287.570133 336.424399 
L 291.533372 336.424399 
L 291.533372 337.379678 
L 286.204677 337.379678 
L 286.204677 336.424399 
Q 286.850525 335.755164 287.965917 334.628978 
Q 289.083108 333.500993 289.369152 333.173572 
Q 289.914255 332.561905 290.130137 332.137337 
Q 290.347818 331.712768 290.347818 331.302592 
Q 290.347818 330.633357 289.878274 330.212386 
Q 289.40873 329.789617 288.654941 329.789617 
Q 288.120633 329.789617 287.526956 329.974916 
Q 286.935079 330.160215 286.260447 330.538009 
L 286.260447 329.390234 
Q 286.945873 329.114984 287.541349 328.974661 
Q 288.138623 328.834338 288.633353 328.834338 
Q 289.937642 328.834338 290.713019 329.487381 
Q 291.488396 330.138626 291.488396 331.228832 
Q 291.488396 331.746949 291.294102 332.211096 
Q 291.101607 332.673444 290.588887 333.303101 
Q 290.448563 333.466812 289.694774 334.245787 
Q 288.942784 335.024762 287.570133 336.424399 
z
M 294.035583 335.951257 
L 295.221136 335.951257 
L 295.221136 336.91913 
L 294.300039 338.718149 
L 293.575034 338.718149 
L 294.035583 336.91913 
z
M 301.018251 332.853346 
Q 301.833206 333.027851 302.290157 333.58015 
Q 302.748907 334.13065 302.748907 334.940208 
Q 302.748907 336.181532 301.894373 336.86336 
Q 301.039839 337.543389 299.465697 337.543389 
Q 298.938585 337.543389 298.37909 337.439046 
Q 297.819595 337.334703 297.224119 337.126017 
L 297.224119 336.030414 
Q 297.695462 336.305664 298.256756 336.445987 
Q 298.819849 336.586311 299.433315 336.586311 
Q 300.500133 336.586311 301.059628 336.165341 
Q 301.619123 335.74437 301.619123 334.940208 
Q 301.619123 334.197214 301.099206 333.779841 
Q 300.57929 333.36067 299.652795 333.36067 
L 298.674129 333.36067 
L 298.674129 332.426979 
L 299.697771 332.426979 
Q 300.534314 332.426979 300.978672 332.092361 
Q 301.42303 331.757744 301.42303 331.128087 
Q 301.42303 330.482239 300.96428 330.136827 
Q 300.507329 329.789617 299.652795 329.789617 
Q 299.18505 329.789617 298.650741 329.892161 
Q 298.116433 329.992906 297.475982 330.20519 
L 297.475982 329.194141 
Q 298.123629 329.014239 298.688521 328.924288 
Q 299.253413 328.834338 299.75354 328.834338 
Q 301.047035 328.834338 301.799025 329.422617 
Q 302.552814 330.009097 302.552814 331.009352 
Q 302.552814 331.707371 302.153432 332.187709 
Q 301.754049 332.668047 301.018251 332.853346 
z
M 305.020843 335.951257 
L 306.206397 335.951257 
L 306.206397 336.91913 
L 305.285299 338.718149 
L 304.560294 338.718149 
L 305.020843 336.91913 
z
M 311.683286 329.974916 
L 308.815649 334.456272 
L 311.683286 334.456272 
z
M 311.384649 328.985455 
L 312.81307 328.985455 
L 312.81307 334.456272 
L 314.011217 334.456272 
L 314.011217 335.400757 
L 312.81307 335.400757 
L 312.81307 337.379678 
L 311.683286 337.379678 
L 311.683286 335.400757 
L 307.894552 335.400757 
L 307.894552 334.305155 
z
"/>
   </g>
   <g id="patch_133">
    <path clip-path="url(#p9eb162d100)" d="M 284.900388 325.990088 
C 287.343168 325.990088 289.686227 325.019562 291.413533 323.292255 
C 293.14084 321.564949 294.111366 319.22189 294.111366 316.77911 
C 294.111366 314.33633 293.14084 311.993272 291.413533 310.265965 
C 289.686227 308.538659 287.343168 307.568132 284.900388 307.568132 
C 282.457608 307.568132 280.11455 308.538659 278.387243 310.265965 
C 276.659937 311.993272 275.68941 314.33633 275.68941 316.77911 
C 275.68941 319.22189 276.659937 321.564949 278.387243 323.292255 
C 280.11455 325.019562 282.457608 325.990088 284.900388 325.990088 
z
" style="fill:#ffd400;stroke:#000000;stroke-linejoin:miter;stroke-width:0.583973;"/>
   </g>
   <g id="patch_134">
    <path clip-path="url(#p9eb162d100)" d="M 291.808622 337.503811 
L 277.992155 351.320278 
z
" style="fill:#ffffff;stroke:#000000;stroke-linejoin:miter;stroke-width:0.583973;"/>
   </g>
   <g id="patch_135">
    <path clip-path="url(#p9eb162d100)" d="M 277.992155 337.503811 
L 291.808622 351.320278 
z
" style="fill:#ffffff;stroke:#000000;stroke-linejoin:miter;stroke-width:0.583973;"/>
   </g>
  </g>
  <g id="text_43">
   <!-- RCAI_10ug_14110_v5.0_DATA.csv -->
   <defs>
    <path d="M 50.984375 -16.609375 
L 50.984375 -23.578125 
L -0.984375 -23.578125 
L -0.984375 -16.609375 
z
" id="DejaVuSans-95"/>
    <path d="M 19.671875 64.796875 
L 19.671875 8.109375 
L 31.59375 8.109375 
Q 46.6875 8.109375 53.6875 14.9375 
Q 60.6875 21.78125 60.6875 36.53125 
Q 60.6875 51.171875 53.6875 57.984375 
Q 46.6875 64.796875 31.59375 64.796875 
z
M 9.8125 72.90625 
L 30.078125 72.90625 
Q 51.265625 72.90625 61.171875 64.09375 
Q 71.09375 55.28125 71.09375 36.53125 
Q 71.09375 17.671875 61.125 8.828125 
Q 51.171875 0 30.078125 0 
L 9.8125 0 
z
" id="DejaVuSans-68"/>
   </defs>
   <g transform="translate(185.983125 16.68225)scale(0.12 -0.12)">
    <use xlink:href="#DejaVuSans-82"/>
    <use x="69.404297" xlink:href="#DejaVuSans-67"/>
    <use x="139.228516" xlink:href="#DejaVuSans-65"/>
    <use x="207.636719" xlink:href="#DejaVuSans-73"/>
    <use x="237.128906" xlink:href="#DejaVuSans-95"/>
    <use x="287.128906" xlink:href="#DejaVuSans-49"/>
    <use x="350.751953" xlink:href="#DejaVuSans-48"/>
    <use x="414.375" xlink:href="#DejaVuSans-117"/>
    <use x="477.753906" xlink:href="#DejaVuSans-103"/>
    <use x="541.230469" xlink:href="#DejaVuSans-95"/>
    <use x="591.230469" xlink:href="#DejaVuSans-49"/>
    <use x="654.853516" xlink:href="#DejaVuSans-52"/>
    <use x="718.476562" xlink:href="#DejaVuSans-49"/>
    <use x="782.099609" xlink:href="#DejaVuSans-49"/>
    <use x="845.722656" xlink:href="#DejaVuSans-48"/>
    <use x="909.345703" xlink:href="#DejaVuSans-95"/>
    <use x="959.345703" xlink:href="#DejaVuSans-118"/>
    <use x="1018.525391" xlink:href="#DejaVuSans-53"/>
    <use x="1082.148438" xlink:href="#DejaVuSans-46"/>
    <use x="1113.935547" xlink:href="#DejaVuSans-48"/>
    <use x="1177.558594" xlink:href="#DejaVuSans-95"/>
    <use x="1227.558594" xlink:href="#DejaVuSans-68"/>
    <use x="1304.544922" xlink:href="#DejaVuSans-65"/>
    <use x="1372.84375" xlink:href="#DejaVuSans-84"/>
    <use x="1433.818359" xlink:href="#DejaVuSans-65"/>
    <use x="1502.210938" xlink:href="#DejaVuSans-46"/>
    <use x="1533.998047" xlink:href="#DejaVuSans-99"/>
    <use x="1588.978516" xlink:href="#DejaVuSans-115"/>
    <use x="1641.078125" xlink:href="#DejaVuSans-118"/>
   </g>
  </g>
 </g>
 <defs>
  <clipPath id="p7d4310a7ee">
   <rect height="120.488525" width="300.251671" x="36.403365" y="69.18328"/>
  </clipPath>
  <clipPath id="p86139d0033">
   <rect height="120.488525" width="182.523369" x="36.403365" y="233.01936"/>
  </clipPath>
  <clipPath id="pf2506ae70e">
   <rect height="120.488525" width="182.523369" x="386.976391" y="233.01936"/>
  </clipPath>
  <clipPath id="p42c038a44d">
   <rect height="120.488525" width="182.523369" x="386.976391" y="69.18328"/>
  </clipPath>
  <clipPath id="pb73faf7087">
   <rect height="48.12736" width="79.677029" x="255.011799" y="233.01936"/>
  </clipPath>
  <clipPath id="p9eb162d100">
   <rect height="48.12736" width="42.153987" x="273.77332" y="305.380525"/>
  </clipPath>
 </defs>
</svg>
