<?xml version="1.0" encoding="utf-8" standalone="no"?>
<!DOCTYPE svg PUBLIC "-//W3C//DTD SVG 1.1//EN"
  "http://www.w3.org/Graphics/SVG/1.1/DTD/svg11.dtd">
<!-- Created with matplotlib (https://matplotlib.org/) -->
<svg height="475.2pt" version="1.1" viewBox="0 0 576 475.2" width="576pt" xmlns="http://www.w3.org/2000/svg" xmlns:xlink="http://www.w3.org/1999/xlink">
 <defs>
  <style type="text/css">
*{stroke-linecap:butt;stroke-linejoin:round;}
  </style>
 </defs>
 <g id="figure_1">
  <g id="patch_1">
   <path d="M 0 475.2 
L 576 475.2 
L 576 0 
L 0 0 
z
" style="fill:#ffffff;"/>
  </g>
  <g id="axes_1">
   <g id="patch_2">
    <path d="M 36.403365 198.8497 
L 332.994059 198.8497 
L 332.994059 80.339713 
L 36.403365 80.339713 
z
" style="fill:#ffffff;"/>
   </g>
   <g id="patch_3">
    <path clip-path="url(#p4287c272b7)" d="M 49.88476 198.8497 
L 52.733965 198.8497 
L 52.733965 194.957746 
L 49.88476 194.957746 
z
" style="fill:#1f77b4;"/>
   </g>
   <g id="patch_4">
    <path clip-path="url(#p4287c272b7)" d="M 52.733965 198.8497 
L 55.58317 198.8497 
L 55.58317 198.8497 
L 52.733965 198.8497 
z
" style="fill:#1f77b4;"/>
   </g>
   <g id="patch_5">
    <path clip-path="url(#p4287c272b7)" d="M 55.58317 198.8497 
L 58.432376 198.8497 
L 58.432376 198.8497 
L 55.58317 198.8497 
z
" style="fill:#1f77b4;"/>
   </g>
   <g id="patch_6">
    <path clip-path="url(#p4287c272b7)" d="M 58.432376 198.8497 
L 61.281581 198.8497 
L 61.281581 198.8497 
L 58.432376 198.8497 
z
" style="fill:#1f77b4;"/>
   </g>
   <g id="patch_7">
    <path clip-path="url(#p4287c272b7)" d="M 61.281581 198.8497 
L 64.130786 198.8497 
L 64.130786 198.8497 
L 61.281581 198.8497 
z
" style="fill:#1f77b4;"/>
   </g>
   <g id="patch_8">
    <path clip-path="url(#p4287c272b7)" d="M 64.130786 198.8497 
L 66.979991 198.8497 
L 66.979991 194.957746 
L 64.130786 194.957746 
z
" style="fill:#1f77b4;"/>
   </g>
   <g id="patch_9">
    <path clip-path="url(#p4287c272b7)" d="M 66.979991 198.8497 
L 69.829196 198.8497 
L 69.829196 198.8497 
L 66.979991 198.8497 
z
" style="fill:#1f77b4;"/>
   </g>
   <g id="patch_10">
    <path clip-path="url(#p4287c272b7)" d="M 69.829196 198.8497 
L 72.678401 198.8497 
L 72.678401 198.8497 
L 69.829196 198.8497 
z
" style="fill:#1f77b4;"/>
   </g>
   <g id="patch_11">
    <path clip-path="url(#p4287c272b7)" d="M 72.678401 198.8497 
L 75.527607 198.8497 
L 75.527607 198.8497 
L 72.678401 198.8497 
z
" style="fill:#1f77b4;"/>
   </g>
   <g id="patch_12">
    <path clip-path="url(#p4287c272b7)" d="M 75.527607 198.8497 
L 78.376812 198.8497 
L 78.376812 198.8497 
L 75.527607 198.8497 
z
" style="fill:#1f77b4;"/>
   </g>
   <g id="patch_13">
    <path clip-path="url(#p4287c272b7)" d="M 78.376812 198.8497 
L 81.226017 198.8497 
L 81.226017 198.8497 
L 78.376812 198.8497 
z
" style="fill:#1f77b4;"/>
   </g>
   <g id="patch_14">
    <path clip-path="url(#p4287c272b7)" d="M 81.226017 198.8497 
L 84.075222 198.8497 
L 84.075222 198.8497 
L 81.226017 198.8497 
z
" style="fill:#1f77b4;"/>
   </g>
   <g id="patch_15">
    <path clip-path="url(#p4287c272b7)" d="M 84.075222 198.8497 
L 86.924427 198.8497 
L 86.924427 198.8497 
L 84.075222 198.8497 
z
" style="fill:#1f77b4;"/>
   </g>
   <g id="patch_16">
    <path clip-path="url(#p4287c272b7)" d="M 86.924427 198.8497 
L 89.773632 198.8497 
L 89.773632 194.957746 
L 86.924427 194.957746 
z
" style="fill:#1f77b4;"/>
   </g>
   <g id="patch_17">
    <path clip-path="url(#p4287c272b7)" d="M 89.773632 198.8497 
L 92.622838 198.8497 
L 92.622838 198.8497 
L 89.773632 198.8497 
z
" style="fill:#1f77b4;"/>
   </g>
   <g id="patch_18">
    <path clip-path="url(#p4287c272b7)" d="M 92.622838 198.8497 
L 95.472043 198.8497 
L 95.472043 198.8497 
L 92.622838 198.8497 
z
" style="fill:#1f77b4;"/>
   </g>
   <g id="patch_19">
    <path clip-path="url(#p4287c272b7)" d="M 95.472043 198.8497 
L 98.321248 198.8497 
L 98.321248 198.8497 
L 95.472043 198.8497 
z
" style="fill:#1f77b4;"/>
   </g>
   <g id="patch_20">
    <path clip-path="url(#p4287c272b7)" d="M 98.321248 198.8497 
L 101.170453 198.8497 
L 101.170453 198.8497 
L 98.321248 198.8497 
z
" style="fill:#1f77b4;"/>
   </g>
   <g id="patch_21">
    <path clip-path="url(#p4287c272b7)" d="M 101.170453 198.8497 
L 104.019658 198.8497 
L 104.019658 198.8497 
L 101.170453 198.8497 
z
" style="fill:#1f77b4;"/>
   </g>
   <g id="patch_22">
    <path clip-path="url(#p4287c272b7)" d="M 104.019658 198.8497 
L 106.868863 198.8497 
L 106.868863 198.8497 
L 104.019658 198.8497 
z
" style="fill:#1f77b4;"/>
   </g>
   <g id="patch_23">
    <path clip-path="url(#p4287c272b7)" d="M 106.868863 198.8497 
L 109.718069 198.8497 
L 109.718069 198.8497 
L 106.868863 198.8497 
z
" style="fill:#1f77b4;"/>
   </g>
   <g id="patch_24">
    <path clip-path="url(#p4287c272b7)" d="M 109.718069 198.8497 
L 112.567274 198.8497 
L 112.567274 198.8497 
L 109.718069 198.8497 
z
" style="fill:#1f77b4;"/>
   </g>
   <g id="patch_25">
    <path clip-path="url(#p4287c272b7)" d="M 112.567274 198.8497 
L 115.416479 198.8497 
L 115.416479 194.957746 
L 112.567274 194.957746 
z
" style="fill:#1f77b4;"/>
   </g>
   <g id="patch_26">
    <path clip-path="url(#p4287c272b7)" d="M 115.416479 198.8497 
L 118.265684 198.8497 
L 118.265684 187.173839 
L 115.416479 187.173839 
z
" style="fill:#1f77b4;"/>
   </g>
   <g id="patch_27">
    <path clip-path="url(#p4287c272b7)" d="M 118.265684 198.8497 
L 121.114889 198.8497 
L 121.114889 187.173839 
L 118.265684 187.173839 
z
" style="fill:#1f77b4;"/>
   </g>
   <g id="patch_28">
    <path clip-path="url(#p4287c272b7)" d="M 121.114889 198.8497 
L 123.964094 198.8497 
L 123.964094 183.281886 
L 121.114889 183.281886 
z
" style="fill:#1f77b4;"/>
   </g>
   <g id="patch_29">
    <path clip-path="url(#p4287c272b7)" d="M 123.964094 198.8497 
L 126.8133 198.8497 
L 126.8133 187.173839 
L 123.964094 187.173839 
z
" style="fill:#1f77b4;"/>
   </g>
   <g id="patch_30">
    <path clip-path="url(#p4287c272b7)" d="M 126.8133 198.8497 
L 129.662505 198.8497 
L 129.662505 198.8497 
L 126.8133 198.8497 
z
" style="fill:#1f77b4;"/>
   </g>
   <g id="patch_31">
    <path clip-path="url(#p4287c272b7)" d="M 129.662505 198.8497 
L 132.51171 198.8497 
L 132.51171 187.173839 
L 129.662505 187.173839 
z
" style="fill:#1f77b4;"/>
   </g>
   <g id="patch_32">
    <path clip-path="url(#p4287c272b7)" d="M 132.51171 198.8497 
L 135.360915 198.8497 
L 135.360915 175.497978 
L 132.51171 175.497978 
z
" style="fill:#1f77b4;"/>
   </g>
   <g id="patch_33">
    <path clip-path="url(#p4287c272b7)" d="M 135.360915 198.8497 
L 138.21012 198.8497 
L 138.21012 187.173839 
L 135.360915 187.173839 
z
" style="fill:#1f77b4;"/>
   </g>
   <g id="patch_34">
    <path clip-path="url(#p4287c272b7)" d="M 138.21012 198.8497 
L 141.059325 198.8497 
L 141.059325 183.281886 
L 138.21012 183.281886 
z
" style="fill:#1f77b4;"/>
   </g>
   <g id="patch_35">
    <path clip-path="url(#p4287c272b7)" d="M 141.059325 198.8497 
L 143.908531 198.8497 
L 143.908531 171.606025 
L 141.059325 171.606025 
z
" style="fill:#1f77b4;"/>
   </g>
   <g id="patch_36">
    <path clip-path="url(#p4287c272b7)" d="M 143.908531 198.8497 
L 146.757736 198.8497 
L 146.757736 171.606025 
L 143.908531 171.606025 
z
" style="fill:#1f77b4;"/>
   </g>
   <g id="patch_37">
    <path clip-path="url(#p4287c272b7)" d="M 146.757736 198.8497 
L 149.606941 198.8497 
L 149.606941 144.36235 
L 146.757736 144.36235 
z
" style="fill:#1f77b4;"/>
   </g>
   <g id="patch_38">
    <path clip-path="url(#p4287c272b7)" d="M 149.606941 198.8497 
L 152.456146 198.8497 
L 152.456146 132.686489 
L 149.606941 132.686489 
z
" style="fill:#1f77b4;"/>
   </g>
   <g id="patch_39">
    <path clip-path="url(#p4287c272b7)" d="M 152.456146 198.8497 
L 155.305351 198.8497 
L 155.305351 144.36235 
L 152.456146 144.36235 
z
" style="fill:#1f77b4;"/>
   </g>
   <g id="patch_40">
    <path clip-path="url(#p4287c272b7)" d="M 155.305351 198.8497 
L 158.154556 198.8497 
L 158.154556 140.470396 
L 155.305351 140.470396 
z
" style="fill:#1f77b4;"/>
   </g>
   <g id="patch_41">
    <path clip-path="url(#p4287c272b7)" d="M 158.154556 198.8497 
L 161.003762 198.8497 
L 161.003762 136.578443 
L 158.154556 136.578443 
z
" style="fill:#1f77b4;"/>
   </g>
   <g id="patch_42">
    <path clip-path="url(#p4287c272b7)" d="M 161.003762 198.8497 
L 163.852967 198.8497 
L 163.852967 132.686489 
L 161.003762 132.686489 
z
" style="fill:#1f77b4;"/>
   </g>
   <g id="patch_43">
    <path clip-path="url(#p4287c272b7)" d="M 163.852967 198.8497 
L 166.702172 198.8497 
L 166.702172 136.578443 
L 163.852967 136.578443 
z
" style="fill:#1f77b4;"/>
   </g>
   <g id="patch_44">
    <path clip-path="url(#p4287c272b7)" d="M 166.702172 198.8497 
L 169.551377 198.8497 
L 169.551377 101.55086 
L 166.702172 101.55086 
z
" style="fill:#1f77b4;"/>
   </g>
   <g id="patch_45">
    <path clip-path="url(#p4287c272b7)" d="M 169.551377 198.8497 
L 172.400582 198.8497 
L 172.400582 140.470396 
L 169.551377 140.470396 
z
" style="fill:#1f77b4;"/>
   </g>
   <g id="patch_46">
    <path clip-path="url(#p4287c272b7)" d="M 172.400582 198.8497 
L 175.249787 198.8497 
L 175.249787 117.118675 
L 172.400582 117.118675 
z
" style="fill:#1f77b4;"/>
   </g>
   <g id="patch_47">
    <path clip-path="url(#p4287c272b7)" d="M 175.249787 198.8497 
L 178.098993 198.8497 
L 178.098993 117.118675 
L 175.249787 117.118675 
z
" style="fill:#1f77b4;"/>
   </g>
   <g id="patch_48">
    <path clip-path="url(#p4287c272b7)" d="M 178.098993 198.8497 
L 180.948198 198.8497 
L 180.948198 140.470396 
L 178.098993 140.470396 
z
" style="fill:#1f77b4;"/>
   </g>
   <g id="patch_49">
    <path clip-path="url(#p4287c272b7)" d="M 180.948198 198.8497 
L 183.797403 198.8497 
L 183.797403 136.578443 
L 180.948198 136.578443 
z
" style="fill:#1f77b4;"/>
   </g>
   <g id="patch_50">
    <path clip-path="url(#p4287c272b7)" d="M 183.797403 198.8497 
L 186.646608 198.8497 
L 186.646608 113.226721 
L 183.797403 113.226721 
z
" style="fill:#1f77b4;"/>
   </g>
   <g id="patch_51">
    <path clip-path="url(#p4287c272b7)" d="M 186.646608 198.8497 
L 189.495813 198.8497 
L 189.495813 105.442814 
L 186.646608 105.442814 
z
" style="fill:#1f77b4;"/>
   </g>
   <g id="patch_52">
    <path clip-path="url(#p4287c272b7)" d="M 189.495813 198.8497 
L 192.345018 198.8497 
L 192.345018 140.470396 
L 189.495813 140.470396 
z
" style="fill:#1f77b4;"/>
   </g>
   <g id="patch_53">
    <path clip-path="url(#p4287c272b7)" d="M 192.345018 198.8497 
L 195.194224 198.8497 
L 195.194224 85.983046 
L 192.345018 85.983046 
z
" style="fill:#1f77b4;"/>
   </g>
   <g id="patch_54">
    <path clip-path="url(#p4287c272b7)" d="M 195.194224 198.8497 
L 198.043429 198.8497 
L 198.043429 124.902582 
L 195.194224 124.902582 
z
" style="fill:#1f77b4;"/>
   </g>
   <g id="patch_55">
    <path clip-path="url(#p4287c272b7)" d="M 198.043429 198.8497 
L 200.892634 198.8497 
L 200.892634 117.118675 
L 198.043429 117.118675 
z
" style="fill:#1f77b4;"/>
   </g>
   <g id="patch_56">
    <path clip-path="url(#p4287c272b7)" d="M 200.892634 198.8497 
L 203.741839 198.8497 
L 203.741839 121.010628 
L 200.892634 121.010628 
z
" style="fill:#1f77b4;"/>
   </g>
   <g id="patch_57">
    <path clip-path="url(#p4287c272b7)" d="M 203.741839 198.8497 
L 206.591044 198.8497 
L 206.591044 117.118675 
L 203.741839 117.118675 
z
" style="fill:#1f77b4;"/>
   </g>
   <g id="patch_58">
    <path clip-path="url(#p4287c272b7)" d="M 206.591044 198.8497 
L 209.440249 198.8497 
L 209.440249 140.470396 
L 206.591044 140.470396 
z
" style="fill:#1f77b4;"/>
   </g>
   <g id="patch_59">
    <path clip-path="url(#p4287c272b7)" d="M 209.440249 198.8497 
L 212.289455 198.8497 
L 212.289455 156.03821 
L 209.440249 156.03821 
z
" style="fill:#1f77b4;"/>
   </g>
   <g id="patch_60">
    <path clip-path="url(#p4287c272b7)" d="M 212.289455 198.8497 
L 215.13866 198.8497 
L 215.13866 140.470396 
L 212.289455 140.470396 
z
" style="fill:#1f77b4;"/>
   </g>
   <g id="patch_61">
    <path clip-path="url(#p4287c272b7)" d="M 215.13866 198.8497 
L 217.987865 198.8497 
L 217.987865 159.930164 
L 215.13866 159.930164 
z
" style="fill:#1f77b4;"/>
   </g>
   <g id="patch_62">
    <path clip-path="url(#p4287c272b7)" d="M 217.987865 198.8497 
L 220.83707 198.8497 
L 220.83707 167.714071 
L 217.987865 167.714071 
z
" style="fill:#1f77b4;"/>
   </g>
   <g id="patch_63">
    <path clip-path="url(#p4287c272b7)" d="M 220.83707 198.8497 
L 223.686275 198.8497 
L 223.686275 171.606025 
L 220.83707 171.606025 
z
" style="fill:#1f77b4;"/>
   </g>
   <g id="patch_64">
    <path clip-path="url(#p4287c272b7)" d="M 223.686275 198.8497 
L 226.53548 198.8497 
L 226.53548 175.497978 
L 223.686275 175.497978 
z
" style="fill:#1f77b4;"/>
   </g>
   <g id="patch_65">
    <path clip-path="url(#p4287c272b7)" d="M 226.53548 198.8497 
L 229.384686 198.8497 
L 229.384686 159.930164 
L 226.53548 159.930164 
z
" style="fill:#1f77b4;"/>
   </g>
   <g id="patch_66">
    <path clip-path="url(#p4287c272b7)" d="M 229.384686 198.8497 
L 232.233891 198.8497 
L 232.233891 179.389932 
L 229.384686 179.389932 
z
" style="fill:#1f77b4;"/>
   </g>
   <g id="patch_67">
    <path clip-path="url(#p4287c272b7)" d="M 232.233891 198.8497 
L 235.083096 198.8497 
L 235.083096 167.714071 
L 232.233891 167.714071 
z
" style="fill:#1f77b4;"/>
   </g>
   <g id="patch_68">
    <path clip-path="url(#p4287c272b7)" d="M 235.083096 198.8497 
L 237.932301 198.8497 
L 237.932301 187.173839 
L 235.083096 187.173839 
z
" style="fill:#1f77b4;"/>
   </g>
   <g id="patch_69">
    <path clip-path="url(#p4287c272b7)" d="M 305.266638 198.8497 
L 308.115843 198.8497 
L 308.115843 167.714071 
L 305.266638 167.714071 
z
" style="fill:#ff0000;"/>
   </g>
   <g id="patch_70">
    <path clip-path="url(#p4287c272b7)" d="M 308.115843 198.8497 
L 310.965048 198.8497 
L 310.965048 136.578443 
L 308.115843 136.578443 
z
" style="fill:#ff0000;"/>
   </g>
   <g id="patch_71">
    <path clip-path="url(#p4287c272b7)" d="M 310.965048 198.8497 
L 313.814253 198.8497 
L 313.814253 159.930164 
L 310.965048 159.930164 
z
" style="fill:#ff0000;"/>
   </g>
   <g id="patch_72">
    <path clip-path="url(#p4287c272b7)" d="M 313.814253 198.8497 
L 316.663458 198.8497 
L 316.663458 191.065793 
L 313.814253 191.065793 
z
" style="fill:#ff0000;"/>
   </g>
   <g id="patch_73">
    <path clip-path="url(#p4287c272b7)" d="M 316.663458 198.8497 
L 319.512663 198.8497 
L 319.512663 194.957746 
L 316.663458 194.957746 
z
" style="fill:#ff0000;"/>
   </g>
   <g id="patch_74">
    <path clip-path="url(#p4287c272b7)" d="M 238.35779 198.8497 
L 241.206996 198.8497 
L 241.206996 179.389932 
L 238.35779 179.389932 
z
" style="fill:#ffa500;"/>
   </g>
   <g id="patch_75">
    <path clip-path="url(#p4287c272b7)" d="M 241.206996 198.8497 
L 244.056201 198.8497 
L 244.056201 179.389932 
L 241.206996 179.389932 
z
" style="fill:#ffa500;"/>
   </g>
   <g id="patch_76">
    <path clip-path="url(#p4287c272b7)" d="M 244.056201 198.8497 
L 246.905406 198.8497 
L 246.905406 179.389932 
L 244.056201 179.389932 
z
" style="fill:#ffa500;"/>
   </g>
   <g id="patch_77">
    <path clip-path="url(#p4287c272b7)" d="M 246.905406 198.8497 
L 249.754611 198.8497 
L 249.754611 179.389932 
L 246.905406 179.389932 
z
" style="fill:#ffa500;"/>
   </g>
   <g id="patch_78">
    <path clip-path="url(#p4287c272b7)" d="M 249.754611 198.8497 
L 252.603816 198.8497 
L 252.603816 198.8497 
L 249.754611 198.8497 
z
" style="fill:#ffa500;"/>
   </g>
   <g id="patch_79">
    <path clip-path="url(#p4287c272b7)" d="M 252.603816 198.8497 
L 255.453021 198.8497 
L 255.453021 191.065793 
L 252.603816 191.065793 
z
" style="fill:#ffa500;"/>
   </g>
   <g id="patch_80">
    <path clip-path="url(#p4287c272b7)" d="M 255.453021 198.8497 
L 258.302227 198.8497 
L 258.302227 194.957746 
L 255.453021 194.957746 
z
" style="fill:#ffa500;"/>
   </g>
   <g id="patch_81">
    <path clip-path="url(#p4287c272b7)" d="M 258.302227 198.8497 
L 261.151432 198.8497 
L 261.151432 194.957746 
L 258.302227 194.957746 
z
" style="fill:#ffa500;"/>
   </g>
   <g id="patch_82">
    <path clip-path="url(#p4287c272b7)" d="M 261.151432 198.8497 
L 264.000637 198.8497 
L 264.000637 191.065793 
L 261.151432 191.065793 
z
" style="fill:#ffa500;"/>
   </g>
   <g id="patch_83">
    <path clip-path="url(#p4287c272b7)" d="M 264.000637 198.8497 
L 266.849842 198.8497 
L 266.849842 194.957746 
L 264.000637 194.957746 
z
" style="fill:#ffa500;"/>
   </g>
   <g id="patch_84">
    <path clip-path="url(#p4287c272b7)" d="M 266.849842 198.8497 
L 269.699047 198.8497 
L 269.699047 198.8497 
L 266.849842 198.8497 
z
" style="fill:#ffa500;"/>
   </g>
   <g id="patch_85">
    <path clip-path="url(#p4287c272b7)" d="M 269.699047 198.8497 
L 272.548252 198.8497 
L 272.548252 198.8497 
L 269.699047 198.8497 
z
" style="fill:#ffa500;"/>
   </g>
   <g id="patch_86">
    <path clip-path="url(#p4287c272b7)" d="M 272.548252 198.8497 
L 275.397458 198.8497 
L 275.397458 194.957746 
L 272.548252 194.957746 
z
" style="fill:#ffa500;"/>
   </g>
   <g id="patch_87">
    <path clip-path="url(#p4287c272b7)" d="M 275.397458 198.8497 
L 278.246663 198.8497 
L 278.246663 198.8497 
L 275.397458 198.8497 
z
" style="fill:#ffa500;"/>
   </g>
   <g id="patch_88">
    <path clip-path="url(#p4287c272b7)" d="M 278.246663 198.8497 
L 281.095868 198.8497 
L 281.095868 198.8497 
L 278.246663 198.8497 
z
" style="fill:#ffa500;"/>
   </g>
   <g id="patch_89">
    <path clip-path="url(#p4287c272b7)" d="M 281.095868 198.8497 
L 283.945073 198.8497 
L 283.945073 198.8497 
L 281.095868 198.8497 
z
" style="fill:#ffa500;"/>
   </g>
   <g id="patch_90">
    <path clip-path="url(#p4287c272b7)" d="M 283.945073 198.8497 
L 286.794278 198.8497 
L 286.794278 198.8497 
L 283.945073 198.8497 
z
" style="fill:#ffa500;"/>
   </g>
   <g id="patch_91">
    <path clip-path="url(#p4287c272b7)" d="M 286.794278 198.8497 
L 289.643483 198.8497 
L 289.643483 194.957746 
L 286.794278 194.957746 
z
" style="fill:#ffa500;"/>
   </g>
   <g id="patch_92">
    <path clip-path="url(#p4287c272b7)" d="M 289.643483 198.8497 
L 292.492689 198.8497 
L 292.492689 194.957746 
L 289.643483 194.957746 
z
" style="fill:#ffa500;"/>
   </g>
   <g id="patch_93">
    <path clip-path="url(#p4287c272b7)" d="M 292.492689 198.8497 
L 295.341894 198.8497 
L 295.341894 198.8497 
L 292.492689 198.8497 
z
" style="fill:#ffa500;"/>
   </g>
   <g id="patch_94">
    <path clip-path="url(#p4287c272b7)" d="M 295.341894 198.8497 
L 298.191099 198.8497 
L 298.191099 187.173839 
L 295.341894 187.173839 
z
" style="fill:#ffa500;"/>
   </g>
   <g id="patch_95">
    <path clip-path="url(#p4287c272b7)" d="M 298.191099 198.8497 
L 301.040304 198.8497 
L 301.040304 194.957746 
L 298.191099 194.957746 
z
" style="fill:#ffa500;"/>
   </g>
   <g id="patch_96">
    <path clip-path="url(#p4287c272b7)" d="M 301.040304 198.8497 
L 303.889509 198.8497 
L 303.889509 191.065793 
L 301.040304 191.065793 
z
" style="fill:#ffa500;"/>
   </g>
   <g id="matplotlib.axis_1">
    <g id="xtick_1">
     <g id="line2d_1">
      <defs>
       <path d="M 0 0 
L 0 3.5 
" id="m98e658d918" style="stroke:#000000;stroke-width:0.8;"/>
      </defs>
      <g>
       <use style="stroke:#000000;stroke-width:0.8;" x="49.88476" xlink:href="#m98e658d918" y="198.8497"/>
      </g>
     </g>
     <g id="text_1">
      <!-- 0 -->
      <defs>
       <path d="M 31.78125 66.40625 
Q 24.171875 66.40625 20.328125 58.90625 
Q 16.5 51.421875 16.5 36.375 
Q 16.5 21.390625 20.328125 13.890625 
Q 24.171875 6.390625 31.78125 6.390625 
Q 39.453125 6.390625 43.28125 13.890625 
Q 47.125 21.390625 47.125 36.375 
Q 47.125 51.421875 43.28125 58.90625 
Q 39.453125 66.40625 31.78125 66.40625 
z
M 31.78125 74.21875 
Q 44.046875 74.21875 50.515625 64.515625 
Q 56.984375 54.828125 56.984375 36.375 
Q 56.984375 17.96875 50.515625 8.265625 
Q 44.046875 -1.421875 31.78125 -1.421875 
Q 19.53125 -1.421875 13.0625 8.265625 
Q 6.59375 17.96875 6.59375 36.375 
Q 6.59375 54.828125 13.0625 64.515625 
Q 19.53125 74.21875 31.78125 74.21875 
z
" id="DejaVuSans-48"/>
      </defs>
      <g transform="translate(46.70351 213.448137)scale(0.1 -0.1)">
       <use xlink:href="#DejaVuSans-48"/>
      </g>
     </g>
    </g>
    <g id="xtick_2">
     <g id="line2d_2">
      <g>
       <use style="stroke:#000000;stroke-width:0.8;" x="106.868863" xlink:href="#m98e658d918" y="198.8497"/>
      </g>
     </g>
     <g id="text_2">
      <!-- 1 -->
      <defs>
       <path d="M 12.40625 8.296875 
L 28.515625 8.296875 
L 28.515625 63.921875 
L 10.984375 60.40625 
L 10.984375 69.390625 
L 28.421875 72.90625 
L 38.28125 72.90625 
L 38.28125 8.296875 
L 54.390625 8.296875 
L 54.390625 0 
L 12.40625 0 
z
" id="DejaVuSans-49"/>
      </defs>
      <g transform="translate(103.687613 213.448137)scale(0.1 -0.1)">
       <use xlink:href="#DejaVuSans-49"/>
      </g>
     </g>
    </g>
    <g id="xtick_3">
     <g id="line2d_3">
      <g>
       <use style="stroke:#000000;stroke-width:0.8;" x="163.852967" xlink:href="#m98e658d918" y="198.8497"/>
      </g>
     </g>
     <g id="text_3">
      <!-- 2 -->
      <defs>
       <path d="M 19.1875 8.296875 
L 53.609375 8.296875 
L 53.609375 0 
L 7.328125 0 
L 7.328125 8.296875 
Q 12.9375 14.109375 22.625 23.890625 
Q 32.328125 33.6875 34.8125 36.53125 
Q 39.546875 41.84375 41.421875 45.53125 
Q 43.3125 49.21875 43.3125 52.78125 
Q 43.3125 58.59375 39.234375 62.25 
Q 35.15625 65.921875 28.609375 65.921875 
Q 23.96875 65.921875 18.8125 64.3125 
Q 13.671875 62.703125 7.8125 59.421875 
L 7.8125 69.390625 
Q 13.765625 71.78125 18.9375 73 
Q 24.125 74.21875 28.421875 74.21875 
Q 39.75 74.21875 46.484375 68.546875 
Q 53.21875 62.890625 53.21875 53.421875 
Q 53.21875 48.921875 51.53125 44.890625 
Q 49.859375 40.875 45.40625 35.40625 
Q 44.1875 33.984375 37.640625 27.21875 
Q 31.109375 20.453125 19.1875 8.296875 
z
" id="DejaVuSans-50"/>
      </defs>
      <g transform="translate(160.671717 213.448137)scale(0.1 -0.1)">
       <use xlink:href="#DejaVuSans-50"/>
      </g>
     </g>
    </g>
    <g id="xtick_4">
     <g id="line2d_4">
      <g>
       <use style="stroke:#000000;stroke-width:0.8;" x="220.83707" xlink:href="#m98e658d918" y="198.8497"/>
      </g>
     </g>
     <g id="text_4">
      <!-- 3 -->
      <defs>
       <path d="M 40.578125 39.3125 
Q 47.65625 37.796875 51.625 33 
Q 55.609375 28.21875 55.609375 21.1875 
Q 55.609375 10.40625 48.1875 4.484375 
Q 40.765625 -1.421875 27.09375 -1.421875 
Q 22.515625 -1.421875 17.65625 -0.515625 
Q 12.796875 0.390625 7.625 2.203125 
L 7.625 11.71875 
Q 11.71875 9.328125 16.59375 8.109375 
Q 21.484375 6.890625 26.8125 6.890625 
Q 36.078125 6.890625 40.9375 10.546875 
Q 45.796875 14.203125 45.796875 21.1875 
Q 45.796875 27.640625 41.28125 31.265625 
Q 36.765625 34.90625 28.71875 34.90625 
L 20.21875 34.90625 
L 20.21875 43.015625 
L 29.109375 43.015625 
Q 36.375 43.015625 40.234375 45.921875 
Q 44.09375 48.828125 44.09375 54.296875 
Q 44.09375 59.90625 40.109375 62.90625 
Q 36.140625 65.921875 28.71875 65.921875 
Q 24.65625 65.921875 20.015625 65.03125 
Q 15.375 64.15625 9.8125 62.3125 
L 9.8125 71.09375 
Q 15.4375 72.65625 20.34375 73.4375 
Q 25.25 74.21875 29.59375 74.21875 
Q 40.828125 74.21875 47.359375 69.109375 
Q 53.90625 64.015625 53.90625 55.328125 
Q 53.90625 49.265625 50.4375 45.09375 
Q 46.96875 40.921875 40.578125 39.3125 
z
" id="DejaVuSans-51"/>
      </defs>
      <g transform="translate(217.65582 213.448137)scale(0.1 -0.1)">
       <use xlink:href="#DejaVuSans-51"/>
      </g>
     </g>
    </g>
    <g id="xtick_5">
     <g id="line2d_5">
      <g>
       <use style="stroke:#000000;stroke-width:0.8;" x="277.821173" xlink:href="#m98e658d918" y="198.8497"/>
      </g>
     </g>
     <g id="text_5">
      <!-- 4 -->
      <defs>
       <path d="M 37.796875 64.3125 
L 12.890625 25.390625 
L 37.796875 25.390625 
z
M 35.203125 72.90625 
L 47.609375 72.90625 
L 47.609375 25.390625 
L 58.015625 25.390625 
L 58.015625 17.1875 
L 47.609375 17.1875 
L 47.609375 0 
L 37.796875 0 
L 37.796875 17.1875 
L 4.890625 17.1875 
L 4.890625 26.703125 
z
" id="DejaVuSans-52"/>
      </defs>
      <g transform="translate(274.639923 213.448137)scale(0.1 -0.1)">
       <use xlink:href="#DejaVuSans-52"/>
      </g>
     </g>
    </g>
    <g id="text_6">
     <!-- log(RFU) -->
     <defs>
      <path d="M 9.421875 75.984375 
L 18.40625 75.984375 
L 18.40625 0 
L 9.421875 0 
z
" id="DejaVuSans-108"/>
      <path d="M 30.609375 48.390625 
Q 23.390625 48.390625 19.1875 42.75 
Q 14.984375 37.109375 14.984375 27.296875 
Q 14.984375 17.484375 19.15625 11.84375 
Q 23.34375 6.203125 30.609375 6.203125 
Q 37.796875 6.203125 41.984375 11.859375 
Q 46.1875 17.53125 46.1875 27.296875 
Q 46.1875 37.015625 41.984375 42.703125 
Q 37.796875 48.390625 30.609375 48.390625 
z
M 30.609375 56 
Q 42.328125 56 49.015625 48.375 
Q 55.71875 40.765625 55.71875 27.296875 
Q 55.71875 13.875 49.015625 6.21875 
Q 42.328125 -1.421875 30.609375 -1.421875 
Q 18.84375 -1.421875 12.171875 6.21875 
Q 5.515625 13.875 5.515625 27.296875 
Q 5.515625 40.765625 12.171875 48.375 
Q 18.84375 56 30.609375 56 
z
" id="DejaVuSans-111"/>
      <path d="M 45.40625 27.984375 
Q 45.40625 37.75 41.375 43.109375 
Q 37.359375 48.484375 30.078125 48.484375 
Q 22.859375 48.484375 18.828125 43.109375 
Q 14.796875 37.75 14.796875 27.984375 
Q 14.796875 18.265625 18.828125 12.890625 
Q 22.859375 7.515625 30.078125 7.515625 
Q 37.359375 7.515625 41.375 12.890625 
Q 45.40625 18.265625 45.40625 27.984375 
z
M 54.390625 6.78125 
Q 54.390625 -7.171875 48.1875 -13.984375 
Q 42 -20.796875 29.203125 -20.796875 
Q 24.46875 -20.796875 20.265625 -20.09375 
Q 16.0625 -19.390625 12.109375 -17.921875 
L 12.109375 -9.1875 
Q 16.0625 -11.328125 19.921875 -12.34375 
Q 23.78125 -13.375 27.78125 -13.375 
Q 36.625 -13.375 41.015625 -8.765625 
Q 45.40625 -4.15625 45.40625 5.171875 
L 45.40625 9.625 
Q 42.625 4.78125 38.28125 2.390625 
Q 33.9375 0 27.875 0 
Q 17.828125 0 11.671875 7.65625 
Q 5.515625 15.328125 5.515625 27.984375 
Q 5.515625 40.671875 11.671875 48.328125 
Q 17.828125 56 27.875 56 
Q 33.9375 56 38.28125 53.609375 
Q 42.625 51.21875 45.40625 46.390625 
L 45.40625 54.6875 
L 54.390625 54.6875 
z
" id="DejaVuSans-103"/>
      <path d="M 31 75.875 
Q 24.46875 64.65625 21.28125 53.65625 
Q 18.109375 42.671875 18.109375 31.390625 
Q 18.109375 20.125 21.3125 9.0625 
Q 24.515625 -2 31 -13.1875 
L 23.1875 -13.1875 
Q 15.875 -1.703125 12.234375 9.375 
Q 8.59375 20.453125 8.59375 31.390625 
Q 8.59375 42.28125 12.203125 53.3125 
Q 15.828125 64.359375 23.1875 75.875 
z
" id="DejaVuSans-40"/>
      <path d="M 44.390625 34.1875 
Q 47.5625 33.109375 50.5625 29.59375 
Q 53.5625 26.078125 56.59375 19.921875 
L 66.609375 0 
L 56 0 
L 46.6875 18.703125 
Q 43.0625 26.03125 39.671875 28.421875 
Q 36.28125 30.8125 30.421875 30.8125 
L 19.671875 30.8125 
L 19.671875 0 
L 9.8125 0 
L 9.8125 72.90625 
L 32.078125 72.90625 
Q 44.578125 72.90625 50.734375 67.671875 
Q 56.890625 62.453125 56.890625 51.90625 
Q 56.890625 45.015625 53.6875 40.46875 
Q 50.484375 35.9375 44.390625 34.1875 
z
M 19.671875 64.796875 
L 19.671875 38.921875 
L 32.078125 38.921875 
Q 39.203125 38.921875 42.84375 42.21875 
Q 46.484375 45.515625 46.484375 51.90625 
Q 46.484375 58.296875 42.84375 61.546875 
Q 39.203125 64.796875 32.078125 64.796875 
z
" id="DejaVuSans-82"/>
      <path d="M 9.8125 72.90625 
L 51.703125 72.90625 
L 51.703125 64.59375 
L 19.671875 64.59375 
L 19.671875 43.109375 
L 48.578125 43.109375 
L 48.578125 34.8125 
L 19.671875 34.8125 
L 19.671875 0 
L 9.8125 0 
z
" id="DejaVuSans-70"/>
      <path d="M 8.6875 72.90625 
L 18.609375 72.90625 
L 18.609375 28.609375 
Q 18.609375 16.890625 22.84375 11.734375 
Q 27.09375 6.59375 36.625 6.59375 
Q 46.09375 6.59375 50.34375 11.734375 
Q 54.59375 16.890625 54.59375 28.609375 
L 54.59375 72.90625 
L 64.5 72.90625 
L 64.5 27.390625 
Q 64.5 13.140625 57.4375 5.859375 
Q 50.390625 -1.421875 36.625 -1.421875 
Q 22.796875 -1.421875 15.734375 5.859375 
Q 8.6875 13.140625 8.6875 27.390625 
z
" id="DejaVuSans-85"/>
      <path d="M 8.015625 75.875 
L 15.828125 75.875 
Q 23.140625 64.359375 26.78125 53.3125 
Q 30.421875 42.28125 30.421875 31.390625 
Q 30.421875 20.453125 26.78125 9.375 
Q 23.140625 -1.703125 15.828125 -13.1875 
L 8.015625 -13.1875 
Q 14.5 -2 17.703125 9.0625 
Q 20.90625 20.125 20.90625 31.390625 
Q 20.90625 42.671875 17.703125 53.65625 
Q 14.5 64.65625 8.015625 75.875 
z
" id="DejaVuSans-41"/>
     </defs>
     <g transform="translate(163.165118 227.126262)scale(0.1 -0.1)">
      <use xlink:href="#DejaVuSans-108"/>
      <use x="27.783203" xlink:href="#DejaVuSans-111"/>
      <use x="88.964844" xlink:href="#DejaVuSans-103"/>
      <use x="152.441406" xlink:href="#DejaVuSans-40"/>
      <use x="191.455078" xlink:href="#DejaVuSans-82"/>
      <use x="260.9375" xlink:href="#DejaVuSans-70"/>
      <use x="318.457031" xlink:href="#DejaVuSans-85"/>
      <use x="391.650391" xlink:href="#DejaVuSans-41"/>
     </g>
    </g>
   </g>
   <g id="matplotlib.axis_2">
    <g id="ytick_1">
     <g id="line2d_6">
      <defs>
       <path d="M 0 0 
L -3.5 0 
" id="m302529cb65" style="stroke:#000000;stroke-width:0.8;"/>
      </defs>
      <g>
       <use style="stroke:#000000;stroke-width:0.8;" x="36.403365" xlink:href="#m302529cb65" y="198.8497"/>
      </g>
     </g>
     <g id="text_7">
      <!-- 0 -->
      <g transform="translate(23.040865 202.648919)scale(0.1 -0.1)">
       <use xlink:href="#DejaVuSans-48"/>
      </g>
     </g>
    </g>
    <g id="ytick_2">
     <g id="line2d_7">
      <g>
       <use style="stroke:#000000;stroke-width:0.8;" x="36.403365" xlink:href="#m302529cb65" y="159.930164"/>
      </g>
     </g>
     <g id="text_8">
      <!-- 10 -->
      <g transform="translate(16.678365 163.729383)scale(0.1 -0.1)">
       <use xlink:href="#DejaVuSans-49"/>
       <use x="63.623047" xlink:href="#DejaVuSans-48"/>
      </g>
     </g>
    </g>
    <g id="ytick_3">
     <g id="line2d_8">
      <g>
       <use style="stroke:#000000;stroke-width:0.8;" x="36.403365" xlink:href="#m302529cb65" y="121.010628"/>
      </g>
     </g>
     <g id="text_9">
      <!-- 20 -->
      <g transform="translate(16.678365 124.809847)scale(0.1 -0.1)">
       <use xlink:href="#DejaVuSans-50"/>
       <use x="63.623047" xlink:href="#DejaVuSans-48"/>
      </g>
     </g>
    </g>
    <g id="ytick_4">
     <g id="line2d_9">
      <g>
       <use style="stroke:#000000;stroke-width:0.8;" x="36.403365" xlink:href="#m302529cb65" y="82.091092"/>
      </g>
     </g>
     <g id="text_10">
      <!-- 30 -->
      <g transform="translate(16.678365 85.890311)scale(0.1 -0.1)">
       <use xlink:href="#DejaVuSans-51"/>
       <use x="63.623047" xlink:href="#DejaVuSans-48"/>
      </g>
     </g>
    </g>
    <g id="text_11">
     <!-- Counts -->
     <defs>
      <path d="M 64.40625 67.28125 
L 64.40625 56.890625 
Q 59.421875 61.53125 53.78125 63.8125 
Q 48.140625 66.109375 41.796875 66.109375 
Q 29.296875 66.109375 22.65625 58.46875 
Q 16.015625 50.828125 16.015625 36.375 
Q 16.015625 21.96875 22.65625 14.328125 
Q 29.296875 6.6875 41.796875 6.6875 
Q 48.140625 6.6875 53.78125 8.984375 
Q 59.421875 11.28125 64.40625 15.921875 
L 64.40625 5.609375 
Q 59.234375 2.09375 53.4375 0.328125 
Q 47.65625 -1.421875 41.21875 -1.421875 
Q 24.65625 -1.421875 15.125 8.703125 
Q 5.609375 18.84375 5.609375 36.375 
Q 5.609375 53.953125 15.125 64.078125 
Q 24.65625 74.21875 41.21875 74.21875 
Q 47.75 74.21875 53.53125 72.484375 
Q 59.328125 70.75 64.40625 67.28125 
z
" id="DejaVuSans-67"/>
      <path d="M 8.5 21.578125 
L 8.5 54.6875 
L 17.484375 54.6875 
L 17.484375 21.921875 
Q 17.484375 14.15625 20.5 10.265625 
Q 23.53125 6.390625 29.59375 6.390625 
Q 36.859375 6.390625 41.078125 11.03125 
Q 45.3125 15.671875 45.3125 23.6875 
L 45.3125 54.6875 
L 54.296875 54.6875 
L 54.296875 0 
L 45.3125 0 
L 45.3125 8.40625 
Q 42.046875 3.421875 37.71875 1 
Q 33.40625 -1.421875 27.6875 -1.421875 
Q 18.265625 -1.421875 13.375 4.4375 
Q 8.5 10.296875 8.5 21.578125 
z
M 31.109375 56 
z
" id="DejaVuSans-117"/>
      <path d="M 54.890625 33.015625 
L 54.890625 0 
L 45.90625 0 
L 45.90625 32.71875 
Q 45.90625 40.484375 42.875 44.328125 
Q 39.84375 48.1875 33.796875 48.1875 
Q 26.515625 48.1875 22.3125 43.546875 
Q 18.109375 38.921875 18.109375 30.90625 
L 18.109375 0 
L 9.078125 0 
L 9.078125 54.6875 
L 18.109375 54.6875 
L 18.109375 46.1875 
Q 21.34375 51.125 25.703125 53.5625 
Q 30.078125 56 35.796875 56 
Q 45.21875 56 50.046875 50.171875 
Q 54.890625 44.34375 54.890625 33.015625 
z
" id="DejaVuSans-110"/>
      <path d="M 18.3125 70.21875 
L 18.3125 54.6875 
L 36.8125 54.6875 
L 36.8125 47.703125 
L 18.3125 47.703125 
L 18.3125 18.015625 
Q 18.3125 11.328125 20.140625 9.421875 
Q 21.96875 7.515625 27.59375 7.515625 
L 36.8125 7.515625 
L 36.8125 0 
L 27.59375 0 
Q 17.1875 0 13.234375 3.875 
Q 9.28125 7.765625 9.28125 18.015625 
L 9.28125 47.703125 
L 2.6875 47.703125 
L 2.6875 54.6875 
L 9.28125 54.6875 
L 9.28125 70.21875 
z
" id="DejaVuSans-116"/>
      <path d="M 44.28125 53.078125 
L 44.28125 44.578125 
Q 40.484375 46.53125 36.375 47.5 
Q 32.28125 48.484375 27.875 48.484375 
Q 21.1875 48.484375 17.84375 46.4375 
Q 14.5 44.390625 14.5 40.28125 
Q 14.5 37.15625 16.890625 35.375 
Q 19.28125 33.59375 26.515625 31.984375 
L 29.59375 31.296875 
Q 39.15625 29.25 43.1875 25.515625 
Q 47.21875 21.78125 47.21875 15.09375 
Q 47.21875 7.46875 41.1875 3.015625 
Q 35.15625 -1.421875 24.609375 -1.421875 
Q 20.21875 -1.421875 15.453125 -0.5625 
Q 10.6875 0.296875 5.421875 2 
L 5.421875 11.28125 
Q 10.40625 8.6875 15.234375 7.390625 
Q 20.0625 6.109375 24.8125 6.109375 
Q 31.15625 6.109375 34.5625 8.28125 
Q 37.984375 10.453125 37.984375 14.40625 
Q 37.984375 18.0625 35.515625 20.015625 
Q 33.0625 21.96875 24.703125 23.78125 
L 21.578125 24.515625 
Q 13.234375 26.265625 9.515625 29.90625 
Q 5.8125 33.546875 5.8125 39.890625 
Q 5.8125 47.609375 11.28125 51.796875 
Q 16.75 56 26.8125 56 
Q 31.78125 56 36.171875 55.265625 
Q 40.578125 54.546875 44.28125 53.078125 
z
" id="DejaVuSans-115"/>
     </defs>
     <g transform="translate(10.598678 157.047832)rotate(-90)scale(0.1 -0.1)">
      <use xlink:href="#DejaVuSans-67"/>
      <use x="69.824219" xlink:href="#DejaVuSans-111"/>
      <use x="131.005859" xlink:href="#DejaVuSans-117"/>
      <use x="194.384766" xlink:href="#DejaVuSans-110"/>
      <use x="257.763672" xlink:href="#DejaVuSans-116"/>
      <use x="296.972656" xlink:href="#DejaVuSans-115"/>
     </g>
    </g>
   </g>
   <g id="patch_97">
    <path d="M 36.403365 198.8497 
L 36.403365 80.339713 
" style="fill:none;stroke:#000000;stroke-linecap:square;stroke-linejoin:miter;stroke-width:0.8;"/>
   </g>
   <g id="patch_98">
    <path d="M 332.994059 198.8497 
L 332.994059 80.339713 
" style="fill:none;stroke:#000000;stroke-linecap:square;stroke-linejoin:miter;stroke-width:0.8;"/>
   </g>
   <g id="patch_99">
    <path d="M 36.403365 198.8497 
L 332.994059 198.8497 
" style="fill:none;stroke:#000000;stroke-linecap:square;stroke-linejoin:miter;stroke-width:0.8;"/>
   </g>
   <g id="patch_100">
    <path d="M 36.403365 80.339713 
L 332.994059 80.339713 
" style="fill:none;stroke:#000000;stroke-linecap:square;stroke-linejoin:miter;stroke-width:0.8;"/>
   </g>
  </g>
  <g id="axes_2">
   <g id="patch_101">
    <path d="M 36.403365 439.907885 
L 216.093584 439.907885 
L 216.093584 242.226055 
L 36.403365 242.226055 
z
" style="fill:#ffffff;"/>
   </g>
   <g id="patch_102">
    <path clip-path="url(#p6a6e8f2866)" d="M 45.453587 430.922347 
L 44.571102 430.922347 
L 44.571102 379.576417 
L 45.453587 379.576417 
z
" style="fill:#1f77b4;"/>
   </g>
   <g id="patch_103">
    <path clip-path="url(#p6a6e8f2866)" d="M 45.453587 366.739935 
L 139.378076 366.739935 
L 139.378076 315.394005 
L 45.453587 315.394005 
z
" style="fill:#1f77b4;"/>
   </g>
   <g id="patch_104">
    <path clip-path="url(#p6a6e8f2866)" d="M 45.453587 302.557522 
L 207.925847 302.557522 
L 207.925847 251.211593 
L 45.453587 251.211593 
z
" style="fill:#1f77b4;"/>
   </g>
   <g id="matplotlib.axis_3">
    <g id="xtick_6">
     <g id="line2d_10">
      <g>
       <use style="stroke:#000000;stroke-width:0.8;" x="45.453587" xlink:href="#m98e658d918" y="439.907885"/>
      </g>
     </g>
     <g id="text_12">
      <!-- 0.0 -->
      <defs>
       <path d="M 10.6875 12.40625 
L 21 12.40625 
L 21 0 
L 10.6875 0 
z
" id="DejaVuSans-46"/>
      </defs>
      <g transform="translate(37.502024 454.506323)scale(0.1 -0.1)">
       <use xlink:href="#DejaVuSans-48"/>
       <use x="63.623047" xlink:href="#DejaVuSans-46"/>
       <use x="95.410156" xlink:href="#DejaVuSans-48"/>
      </g>
     </g>
    </g>
    <g id="xtick_7">
     <g id="line2d_11">
      <g>
       <use style="stroke:#000000;stroke-width:0.8;" x="89.986245" xlink:href="#m98e658d918" y="439.907885"/>
      </g>
     </g>
     <g id="text_13">
      <!-- 2.5 -->
      <defs>
       <path d="M 10.796875 72.90625 
L 49.515625 72.90625 
L 49.515625 64.59375 
L 19.828125 64.59375 
L 19.828125 46.734375 
Q 21.96875 47.46875 24.109375 47.828125 
Q 26.265625 48.1875 28.421875 48.1875 
Q 40.625 48.1875 47.75 41.5 
Q 54.890625 34.8125 54.890625 23.390625 
Q 54.890625 11.625 47.5625 5.09375 
Q 40.234375 -1.421875 26.90625 -1.421875 
Q 22.3125 -1.421875 17.546875 -0.640625 
Q 12.796875 0.140625 7.71875 1.703125 
L 7.71875 11.625 
Q 12.109375 9.234375 16.796875 8.0625 
Q 21.484375 6.890625 26.703125 6.890625 
Q 35.15625 6.890625 40.078125 11.328125 
Q 45.015625 15.765625 45.015625 23.390625 
Q 45.015625 31 40.078125 35.4375 
Q 35.15625 39.890625 26.703125 39.890625 
Q 22.75 39.890625 18.8125 39.015625 
Q 14.890625 38.140625 10.796875 36.28125 
z
" id="DejaVuSans-53"/>
      </defs>
      <g transform="translate(82.034682 454.506323)scale(0.1 -0.1)">
       <use xlink:href="#DejaVuSans-50"/>
       <use x="63.623047" xlink:href="#DejaVuSans-46"/>
       <use x="95.410156" xlink:href="#DejaVuSans-53"/>
      </g>
     </g>
    </g>
    <g id="xtick_8">
     <g id="line2d_12">
      <g>
       <use style="stroke:#000000;stroke-width:0.8;" x="134.518903" xlink:href="#m98e658d918" y="439.907885"/>
      </g>
     </g>
     <g id="text_14">
      <!-- 5.0 -->
      <g transform="translate(126.567341 454.506323)scale(0.1 -0.1)">
       <use xlink:href="#DejaVuSans-53"/>
       <use x="63.623047" xlink:href="#DejaVuSans-46"/>
       <use x="95.410156" xlink:href="#DejaVuSans-48"/>
      </g>
     </g>
    </g>
    <g id="xtick_9">
     <g id="line2d_13">
      <g>
       <use style="stroke:#000000;stroke-width:0.8;" x="179.051562" xlink:href="#m98e658d918" y="439.907885"/>
      </g>
     </g>
     <g id="text_15">
      <!-- 7.5 -->
      <defs>
       <path d="M 8.203125 72.90625 
L 55.078125 72.90625 
L 55.078125 68.703125 
L 28.609375 0 
L 18.3125 0 
L 43.21875 64.59375 
L 8.203125 64.59375 
z
" id="DejaVuSans-55"/>
      </defs>
      <g transform="translate(171.099999 454.506323)scale(0.1 -0.1)">
       <use xlink:href="#DejaVuSans-55"/>
       <use x="63.623047" xlink:href="#DejaVuSans-46"/>
       <use x="95.410156" xlink:href="#DejaVuSans-53"/>
      </g>
     </g>
    </g>
    <g id="text_16">
     <!-- Model Coefficient -->
     <defs>
      <path d="M 9.8125 72.90625 
L 24.515625 72.90625 
L 43.109375 23.296875 
L 61.8125 72.90625 
L 76.515625 72.90625 
L 76.515625 0 
L 66.890625 0 
L 66.890625 64.015625 
L 48.09375 14.015625 
L 38.1875 14.015625 
L 19.390625 64.015625 
L 19.390625 0 
L 9.8125 0 
z
" id="DejaVuSans-77"/>
      <path d="M 45.40625 46.390625 
L 45.40625 75.984375 
L 54.390625 75.984375 
L 54.390625 0 
L 45.40625 0 
L 45.40625 8.203125 
Q 42.578125 3.328125 38.25 0.953125 
Q 33.9375 -1.421875 27.875 -1.421875 
Q 17.96875 -1.421875 11.734375 6.484375 
Q 5.515625 14.40625 5.515625 27.296875 
Q 5.515625 40.1875 11.734375 48.09375 
Q 17.96875 56 27.875 56 
Q 33.9375 56 38.25 53.625 
Q 42.578125 51.265625 45.40625 46.390625 
z
M 14.796875 27.296875 
Q 14.796875 17.390625 18.875 11.75 
Q 22.953125 6.109375 30.078125 6.109375 
Q 37.203125 6.109375 41.296875 11.75 
Q 45.40625 17.390625 45.40625 27.296875 
Q 45.40625 37.203125 41.296875 42.84375 
Q 37.203125 48.484375 30.078125 48.484375 
Q 22.953125 48.484375 18.875 42.84375 
Q 14.796875 37.203125 14.796875 27.296875 
z
" id="DejaVuSans-100"/>
      <path d="M 56.203125 29.59375 
L 56.203125 25.203125 
L 14.890625 25.203125 
Q 15.484375 15.921875 20.484375 11.0625 
Q 25.484375 6.203125 34.421875 6.203125 
Q 39.59375 6.203125 44.453125 7.46875 
Q 49.3125 8.734375 54.109375 11.28125 
L 54.109375 2.78125 
Q 49.265625 0.734375 44.1875 -0.34375 
Q 39.109375 -1.421875 33.890625 -1.421875 
Q 20.796875 -1.421875 13.15625 6.1875 
Q 5.515625 13.8125 5.515625 26.8125 
Q 5.515625 40.234375 12.765625 48.109375 
Q 20.015625 56 32.328125 56 
Q 43.359375 56 49.78125 48.890625 
Q 56.203125 41.796875 56.203125 29.59375 
z
M 47.21875 32.234375 
Q 47.125 39.59375 43.09375 43.984375 
Q 39.0625 48.390625 32.421875 48.390625 
Q 24.90625 48.390625 20.390625 44.140625 
Q 15.875 39.890625 15.1875 32.171875 
z
" id="DejaVuSans-101"/>
      <path id="DejaVuSans-32"/>
      <path d="M 37.109375 75.984375 
L 37.109375 68.5 
L 28.515625 68.5 
Q 23.6875 68.5 21.796875 66.546875 
Q 19.921875 64.59375 19.921875 59.515625 
L 19.921875 54.6875 
L 34.71875 54.6875 
L 34.71875 47.703125 
L 19.921875 47.703125 
L 19.921875 0 
L 10.890625 0 
L 10.890625 47.703125 
L 2.296875 47.703125 
L 2.296875 54.6875 
L 10.890625 54.6875 
L 10.890625 58.5 
Q 10.890625 67.625 15.140625 71.796875 
Q 19.390625 75.984375 28.609375 75.984375 
z
" id="DejaVuSans-102"/>
      <path d="M 9.421875 54.6875 
L 18.40625 54.6875 
L 18.40625 0 
L 9.421875 0 
z
M 9.421875 75.984375 
L 18.40625 75.984375 
L 18.40625 64.59375 
L 9.421875 64.59375 
z
" id="DejaVuSans-105"/>
      <path d="M 48.78125 52.59375 
L 48.78125 44.1875 
Q 44.96875 46.296875 41.140625 47.34375 
Q 37.3125 48.390625 33.40625 48.390625 
Q 24.65625 48.390625 19.8125 42.84375 
Q 14.984375 37.3125 14.984375 27.296875 
Q 14.984375 17.28125 19.8125 11.734375 
Q 24.65625 6.203125 33.40625 6.203125 
Q 37.3125 6.203125 41.140625 7.25 
Q 44.96875 8.296875 48.78125 10.40625 
L 48.78125 2.09375 
Q 45.015625 0.34375 40.984375 -0.53125 
Q 36.96875 -1.421875 32.421875 -1.421875 
Q 20.0625 -1.421875 12.78125 6.34375 
Q 5.515625 14.109375 5.515625 27.296875 
Q 5.515625 40.671875 12.859375 48.328125 
Q 20.21875 56 33.015625 56 
Q 37.15625 56 41.109375 55.140625 
Q 45.0625 54.296875 48.78125 52.59375 
z
" id="DejaVuSans-99"/>
     </defs>
     <g transform="translate(74.0691 469.704135)scale(0.12 -0.12)">
      <use xlink:href="#DejaVuSans-77"/>
      <use x="86.279297" xlink:href="#DejaVuSans-111"/>
      <use x="147.460938" xlink:href="#DejaVuSans-100"/>
      <use x="210.9375" xlink:href="#DejaVuSans-101"/>
      <use x="272.460938" xlink:href="#DejaVuSans-108"/>
      <use x="300.244141" xlink:href="#DejaVuSans-32"/>
      <use x="332.03125" xlink:href="#DejaVuSans-67"/>
      <use x="401.855469" xlink:href="#DejaVuSans-111"/>
      <use x="463.037109" xlink:href="#DejaVuSans-101"/>
      <use x="524.560547" xlink:href="#DejaVuSans-102"/>
      <use x="559.765625" xlink:href="#DejaVuSans-102"/>
      <use x="594.970703" xlink:href="#DejaVuSans-105"/>
      <use x="622.753906" xlink:href="#DejaVuSans-99"/>
      <use x="677.734375" xlink:href="#DejaVuSans-105"/>
      <use x="705.517578" xlink:href="#DejaVuSans-101"/>
      <use x="767.041016" xlink:href="#DejaVuSans-110"/>
      <use x="830.419922" xlink:href="#DejaVuSans-116"/>
     </g>
    </g>
   </g>
   <g id="matplotlib.axis_4">
    <g id="ytick_5"/>
    <g id="ytick_6"/>
    <g id="ytick_7"/>
    <g id="ytick_8"/>
    <g id="ytick_9"/>
    <g id="ytick_10"/>
    <g id="ytick_11"/>
    <g id="text_17">
     <!-- Motif -->
     <g transform="translate(22.90774 356.046345)rotate(-90)scale(0.12 -0.12)">
      <use xlink:href="#DejaVuSans-77"/>
      <use x="86.279297" xlink:href="#DejaVuSans-111"/>
      <use x="147.460938" xlink:href="#DejaVuSans-116"/>
      <use x="186.669922" xlink:href="#DejaVuSans-105"/>
      <use x="214.453125" xlink:href="#DejaVuSans-102"/>
     </g>
    </g>
   </g>
   <g id="patch_105">
    <path d="M 36.403365 439.907885 
L 36.403365 242.226055 
" style="fill:none;stroke:#000000;stroke-linecap:square;stroke-linejoin:miter;stroke-width:0.8;"/>
   </g>
   <g id="patch_106">
    <path d="M 216.093584 439.907885 
L 216.093584 242.226055 
" style="fill:none;stroke:#000000;stroke-linecap:square;stroke-linejoin:miter;stroke-width:0.8;"/>
   </g>
   <g id="patch_107">
    <path d="M 36.403365 439.907885 
L 216.093584 439.907885 
" style="fill:none;stroke:#000000;stroke-linecap:square;stroke-linejoin:miter;stroke-width:0.8;"/>
   </g>
   <g id="patch_108">
    <path d="M 36.403365 242.226055 
L 216.093584 242.226055 
" style="fill:none;stroke:#000000;stroke-linecap:square;stroke-linejoin:miter;stroke-width:0.8;"/>
   </g>
  </g>
  <g id="axes_3">
   <g id="patch_109">
    <path d="M 389.677914 439.907885 
L 569.368133 439.907885 
L 569.368133 242.226055 
L 389.677914 242.226055 
z
" style="fill:#ffffff;"/>
   </g>
   <g id="patch_110">
    <path clip-path="url(#pa718a54845)" d="M 389.677914 433.318491 
L 560.811455 433.318491 
L 560.811455 380.603336 
L 389.677914 380.603336 
z
" style="fill:#808080;"/>
   </g>
   <g id="patch_111">
    <path clip-path="url(#pa718a54845)" d="M 389.677914 367.424547 
L 439.21657 367.424547 
L 439.21657 314.709393 
L 389.677914 314.709393 
z
" style="fill:#808080;"/>
   </g>
   <g id="patch_112">
    <path clip-path="url(#pa718a54845)" d="M 389.677914 301.530604 
L 547.300913 301.530604 
L 547.300913 248.815449 
L 389.677914 248.815449 
z
" style="fill:#808080;"/>
   </g>
   <g id="matplotlib.axis_5">
    <g id="xtick_10">
     <g id="line2d_14">
      <g>
       <use style="stroke:#000000;stroke-width:0.8;" x="389.677914" xlink:href="#m98e658d918" y="439.907885"/>
      </g>
     </g>
     <g id="text_18">
      <!-- 0 -->
      <g transform="translate(386.496664 454.506323)scale(0.1 -0.1)">
       <use xlink:href="#DejaVuSans-48"/>
      </g>
     </g>
    </g>
    <g id="xtick_11">
     <g id="line2d_15">
      <g>
       <use style="stroke:#000000;stroke-width:0.8;" x="425.706028" xlink:href="#m98e658d918" y="439.907885"/>
      </g>
     </g>
     <g id="text_19">
      <!-- 1 -->
      <g transform="translate(422.524778 454.506323)scale(0.1 -0.1)">
       <use xlink:href="#DejaVuSans-49"/>
      </g>
     </g>
    </g>
    <g id="xtick_12">
     <g id="line2d_16">
      <g>
       <use style="stroke:#000000;stroke-width:0.8;" x="461.734142" xlink:href="#m98e658d918" y="439.907885"/>
      </g>
     </g>
     <g id="text_20">
      <!-- 2 -->
      <g transform="translate(458.552892 454.506323)scale(0.1 -0.1)">
       <use xlink:href="#DejaVuSans-50"/>
      </g>
     </g>
    </g>
    <g id="xtick_13">
     <g id="line2d_17">
      <g>
       <use style="stroke:#000000;stroke-width:0.8;" x="497.762256" xlink:href="#m98e658d918" y="439.907885"/>
      </g>
     </g>
     <g id="text_21">
      <!-- 3 -->
      <g transform="translate(494.581006 454.506323)scale(0.1 -0.1)">
       <use xlink:href="#DejaVuSans-51"/>
      </g>
     </g>
    </g>
    <g id="xtick_14">
     <g id="line2d_18">
      <g>
       <use style="stroke:#000000;stroke-width:0.8;" x="533.79037" xlink:href="#m98e658d918" y="439.907885"/>
      </g>
     </g>
     <g id="text_22">
      <!-- 4 -->
      <g transform="translate(530.60912 454.506323)scale(0.1 -0.1)">
       <use xlink:href="#DejaVuSans-52"/>
      </g>
     </g>
    </g>
    <g id="xtick_15">
     <g id="line2d_19">
      <g>
       <use style="stroke:#000000;stroke-width:0.8;" x="569.818484" xlink:href="#m98e658d918" y="439.907885"/>
      </g>
     </g>
     <g id="text_23">
      <!-- 5 -->
      <g transform="translate(566.637234 454.506323)scale(0.1 -0.1)">
       <use xlink:href="#DejaVuSans-53"/>
      </g>
     </g>
    </g>
    <g id="text_24">
     <!-- Variance Inflation Factor -->
     <defs>
      <path d="M 28.609375 0 
L 0.78125 72.90625 
L 11.078125 72.90625 
L 34.1875 11.53125 
L 57.328125 72.90625 
L 67.578125 72.90625 
L 39.796875 0 
z
" id="DejaVuSans-86"/>
      <path d="M 34.28125 27.484375 
Q 23.390625 27.484375 19.1875 25 
Q 14.984375 22.515625 14.984375 16.5 
Q 14.984375 11.71875 18.140625 8.90625 
Q 21.296875 6.109375 26.703125 6.109375 
Q 34.1875 6.109375 38.703125 11.40625 
Q 43.21875 16.703125 43.21875 25.484375 
L 43.21875 27.484375 
z
M 52.203125 31.203125 
L 52.203125 0 
L 43.21875 0 
L 43.21875 8.296875 
Q 40.140625 3.328125 35.546875 0.953125 
Q 30.953125 -1.421875 24.3125 -1.421875 
Q 15.921875 -1.421875 10.953125 3.296875 
Q 6 8.015625 6 15.921875 
Q 6 25.140625 12.171875 29.828125 
Q 18.359375 34.515625 30.609375 34.515625 
L 43.21875 34.515625 
L 43.21875 35.40625 
Q 43.21875 41.609375 39.140625 45 
Q 35.0625 48.390625 27.6875 48.390625 
Q 23 48.390625 18.546875 47.265625 
Q 14.109375 46.140625 10.015625 43.890625 
L 10.015625 52.203125 
Q 14.9375 54.109375 19.578125 55.046875 
Q 24.21875 56 28.609375 56 
Q 40.484375 56 46.34375 49.84375 
Q 52.203125 43.703125 52.203125 31.203125 
z
" id="DejaVuSans-97"/>
      <path d="M 41.109375 46.296875 
Q 39.59375 47.171875 37.8125 47.578125 
Q 36.03125 48 33.890625 48 
Q 26.265625 48 22.1875 43.046875 
Q 18.109375 38.09375 18.109375 28.8125 
L 18.109375 0 
L 9.078125 0 
L 9.078125 54.6875 
L 18.109375 54.6875 
L 18.109375 46.1875 
Q 20.953125 51.171875 25.484375 53.578125 
Q 30.03125 56 36.53125 56 
Q 37.453125 56 38.578125 55.875 
Q 39.703125 55.765625 41.0625 55.515625 
z
" id="DejaVuSans-114"/>
      <path d="M 9.8125 72.90625 
L 19.671875 72.90625 
L 19.671875 0 
L 9.8125 0 
z
" id="DejaVuSans-73"/>
     </defs>
     <g transform="translate(405.901148 469.704135)scale(0.12 -0.12)">
      <use xlink:href="#DejaVuSans-86"/>
      <use x="68.298828" xlink:href="#DejaVuSans-97"/>
      <use x="129.578125" xlink:href="#DejaVuSans-114"/>
      <use x="170.691406" xlink:href="#DejaVuSans-105"/>
      <use x="198.474609" xlink:href="#DejaVuSans-97"/>
      <use x="259.753906" xlink:href="#DejaVuSans-110"/>
      <use x="323.132812" xlink:href="#DejaVuSans-99"/>
      <use x="378.113281" xlink:href="#DejaVuSans-101"/>
      <use x="439.636719" xlink:href="#DejaVuSans-32"/>
      <use x="471.423828" xlink:href="#DejaVuSans-73"/>
      <use x="500.916016" xlink:href="#DejaVuSans-110"/>
      <use x="564.294922" xlink:href="#DejaVuSans-102"/>
      <use x="599.5" xlink:href="#DejaVuSans-108"/>
      <use x="627.283203" xlink:href="#DejaVuSans-97"/>
      <use x="688.5625" xlink:href="#DejaVuSans-116"/>
      <use x="727.771484" xlink:href="#DejaVuSans-105"/>
      <use x="755.554688" xlink:href="#DejaVuSans-111"/>
      <use x="816.736328" xlink:href="#DejaVuSans-110"/>
      <use x="880.115234" xlink:href="#DejaVuSans-32"/>
      <use x="911.902344" xlink:href="#DejaVuSans-70"/>
      <use x="969.28125" xlink:href="#DejaVuSans-97"/>
      <use x="1030.560547" xlink:href="#DejaVuSans-99"/>
      <use x="1085.541016" xlink:href="#DejaVuSans-116"/>
      <use x="1124.75" xlink:href="#DejaVuSans-111"/>
      <use x="1185.931641" xlink:href="#DejaVuSans-114"/>
     </g>
    </g>
   </g>
   <g id="matplotlib.axis_6">
    <g id="ytick_12">
     <g id="line2d_20">
      <g>
       <use style="stroke:#000000;stroke-width:0.8;" x="389.677914" xlink:href="#m302529cb65" y="439.907885"/>
      </g>
     </g>
    </g>
    <g id="ytick_13">
     <g id="line2d_21">
      <g>
       <use style="stroke:#000000;stroke-width:0.8;" x="389.677914" xlink:href="#m302529cb65" y="406.960913"/>
      </g>
     </g>
    </g>
    <g id="ytick_14">
     <g id="line2d_22">
      <g>
       <use style="stroke:#000000;stroke-width:0.8;" x="389.677914" xlink:href="#m302529cb65" y="374.013942"/>
      </g>
     </g>
    </g>
    <g id="ytick_15">
     <g id="line2d_23">
      <g>
       <use style="stroke:#000000;stroke-width:0.8;" x="389.677914" xlink:href="#m302529cb65" y="341.06697"/>
      </g>
     </g>
    </g>
    <g id="ytick_16">
     <g id="line2d_24">
      <g>
       <use style="stroke:#000000;stroke-width:0.8;" x="389.677914" xlink:href="#m302529cb65" y="308.119998"/>
      </g>
     </g>
    </g>
    <g id="ytick_17">
     <g id="line2d_25">
      <g>
       <use style="stroke:#000000;stroke-width:0.8;" x="389.677914" xlink:href="#m302529cb65" y="275.173027"/>
      </g>
     </g>
    </g>
    <g id="ytick_18">
     <g id="line2d_26">
      <g>
       <use style="stroke:#000000;stroke-width:0.8;" x="389.677914" xlink:href="#m302529cb65" y="242.226055"/>
      </g>
     </g>
    </g>
    <g id="text_25">
     <!-- Motif -->
     <g transform="translate(376.182289 356.046345)rotate(-90)scale(0.12 -0.12)">
      <use xlink:href="#DejaVuSans-77"/>
      <use x="86.279297" xlink:href="#DejaVuSans-111"/>
      <use x="147.460938" xlink:href="#DejaVuSans-116"/>
      <use x="186.669922" xlink:href="#DejaVuSans-105"/>
      <use x="214.453125" xlink:href="#DejaVuSans-102"/>
     </g>
    </g>
   </g>
   <g id="patch_113">
    <path d="M 389.677914 439.907885 
L 389.677914 242.226055 
" style="fill:none;stroke:#000000;stroke-linecap:square;stroke-linejoin:miter;stroke-width:0.8;"/>
   </g>
   <g id="patch_114">
    <path d="M 569.368133 439.907885 
L 569.368133 242.226055 
" style="fill:none;stroke:#000000;stroke-linecap:square;stroke-linejoin:miter;stroke-width:0.8;"/>
   </g>
   <g id="patch_115">
    <path d="M 389.677914 439.907885 
L 569.368133 439.907885 
" style="fill:none;stroke:#000000;stroke-linecap:square;stroke-linejoin:miter;stroke-width:0.8;"/>
   </g>
   <g id="patch_116">
    <path d="M 389.677914 242.226055 
L 569.368133 242.226055 
" style="fill:none;stroke:#000000;stroke-linecap:square;stroke-linejoin:miter;stroke-width:0.8;"/>
   </g>
  </g>
  <g id="axes_4">
   <g id="patch_117">
    <path d="M 389.677914 198.8497 
L 569.368133 198.8497 
L 569.368133 80.339713 
L 389.677914 80.339713 
z
" style="fill:#ffffff;"/>
   </g>
   <g id="matplotlib.axis_7">
    <g id="xtick_16">
     <g id="line2d_27">
      <g>
       <use style="stroke:#000000;stroke-width:0.8;" x="397.845651" xlink:href="#m98e658d918" y="198.8497"/>
      </g>
     </g>
     <g id="text_26">
      <!-- 0.00 -->
      <g transform="translate(386.712838 213.448137)scale(0.1 -0.1)">
       <use xlink:href="#DejaVuSans-48"/>
       <use x="63.623047" xlink:href="#DejaVuSans-46"/>
       <use x="95.410156" xlink:href="#DejaVuSans-48"/>
       <use x="159.033203" xlink:href="#DejaVuSans-48"/>
      </g>
     </g>
    </g>
    <g id="xtick_17">
     <g id="line2d_28">
      <g>
       <use style="stroke:#000000;stroke-width:0.8;" x="438.684337" xlink:href="#m98e658d918" y="198.8497"/>
      </g>
     </g>
     <g id="text_27">
      <!-- 0.25 -->
      <g transform="translate(427.551524 213.448137)scale(0.1 -0.1)">
       <use xlink:href="#DejaVuSans-48"/>
       <use x="63.623047" xlink:href="#DejaVuSans-46"/>
       <use x="95.410156" xlink:href="#DejaVuSans-50"/>
       <use x="159.033203" xlink:href="#DejaVuSans-53"/>
      </g>
     </g>
    </g>
    <g id="xtick_18">
     <g id="line2d_29">
      <g>
       <use style="stroke:#000000;stroke-width:0.8;" x="479.523023" xlink:href="#m98e658d918" y="198.8497"/>
      </g>
     </g>
     <g id="text_28">
      <!-- 0.50 -->
      <g transform="translate(468.390211 213.448137)scale(0.1 -0.1)">
       <use xlink:href="#DejaVuSans-48"/>
       <use x="63.623047" xlink:href="#DejaVuSans-46"/>
       <use x="95.410156" xlink:href="#DejaVuSans-53"/>
       <use x="159.033203" xlink:href="#DejaVuSans-48"/>
      </g>
     </g>
    </g>
    <g id="xtick_19">
     <g id="line2d_30">
      <g>
       <use style="stroke:#000000;stroke-width:0.8;" x="520.361709" xlink:href="#m98e658d918" y="198.8497"/>
      </g>
     </g>
     <g id="text_29">
      <!-- 0.75 -->
      <g transform="translate(509.228897 213.448137)scale(0.1 -0.1)">
       <use xlink:href="#DejaVuSans-48"/>
       <use x="63.623047" xlink:href="#DejaVuSans-46"/>
       <use x="95.410156" xlink:href="#DejaVuSans-55"/>
       <use x="159.033203" xlink:href="#DejaVuSans-53"/>
      </g>
     </g>
    </g>
    <g id="xtick_20">
     <g id="line2d_31">
      <g>
       <use style="stroke:#000000;stroke-width:0.8;" x="561.200395" xlink:href="#m98e658d918" y="198.8497"/>
      </g>
     </g>
     <g id="text_30">
      <!-- 1.00 -->
      <g transform="translate(550.067583 213.448137)scale(0.1 -0.1)">
       <use xlink:href="#DejaVuSans-49"/>
       <use x="63.623047" xlink:href="#DejaVuSans-46"/>
       <use x="95.410156" xlink:href="#DejaVuSans-48"/>
       <use x="159.033203" xlink:href="#DejaVuSans-48"/>
      </g>
     </g>
    </g>
    <g id="text_31">
     <!-- False Positive Rate -->
     <defs>
      <path d="M 19.671875 64.796875 
L 19.671875 37.40625 
L 32.078125 37.40625 
Q 38.96875 37.40625 42.71875 40.96875 
Q 46.484375 44.53125 46.484375 51.125 
Q 46.484375 57.671875 42.71875 61.234375 
Q 38.96875 64.796875 32.078125 64.796875 
z
M 9.8125 72.90625 
L 32.078125 72.90625 
Q 44.34375 72.90625 50.609375 67.359375 
Q 56.890625 61.8125 56.890625 51.125 
Q 56.890625 40.328125 50.609375 34.8125 
Q 44.34375 29.296875 32.078125 29.296875 
L 19.671875 29.296875 
L 19.671875 0 
L 9.8125 0 
z
" id="DejaVuSans-80"/>
      <path d="M 2.984375 54.6875 
L 12.5 54.6875 
L 29.59375 8.796875 
L 46.6875 54.6875 
L 56.203125 54.6875 
L 35.6875 0 
L 23.484375 0 
z
" id="DejaVuSans-118"/>
     </defs>
     <g transform="translate(422.876461 228.64595)scale(0.12 -0.12)">
      <use xlink:href="#DejaVuSans-70"/>
      <use x="57.378906" xlink:href="#DejaVuSans-97"/>
      <use x="118.658203" xlink:href="#DejaVuSans-108"/>
      <use x="146.441406" xlink:href="#DejaVuSans-115"/>
      <use x="198.541016" xlink:href="#DejaVuSans-101"/>
      <use x="260.064453" xlink:href="#DejaVuSans-32"/>
      <use x="291.851562" xlink:href="#DejaVuSans-80"/>
      <use x="352.107422" xlink:href="#DejaVuSans-111"/>
      <use x="413.289062" xlink:href="#DejaVuSans-115"/>
      <use x="465.388672" xlink:href="#DejaVuSans-105"/>
      <use x="493.171875" xlink:href="#DejaVuSans-116"/>
      <use x="532.380859" xlink:href="#DejaVuSans-105"/>
      <use x="560.164062" xlink:href="#DejaVuSans-118"/>
      <use x="619.34375" xlink:href="#DejaVuSans-101"/>
      <use x="680.867188" xlink:href="#DejaVuSans-32"/>
      <use x="712.654297" xlink:href="#DejaVuSans-82"/>
      <use x="782.105469" xlink:href="#DejaVuSans-97"/>
      <use x="843.384766" xlink:href="#DejaVuSans-116"/>
      <use x="882.59375" xlink:href="#DejaVuSans-101"/>
     </g>
    </g>
   </g>
   <g id="matplotlib.axis_8">
    <g id="ytick_19">
     <g id="line2d_32">
      <g>
       <use style="stroke:#000000;stroke-width:0.8;" x="389.677914" xlink:href="#m302529cb65" y="193.462882"/>
      </g>
     </g>
     <g id="text_32">
      <!-- 0.00 -->
      <g transform="translate(360.412289 197.262101)scale(0.1 -0.1)">
       <use xlink:href="#DejaVuSans-48"/>
       <use x="63.623047" xlink:href="#DejaVuSans-46"/>
       <use x="95.410156" xlink:href="#DejaVuSans-48"/>
       <use x="159.033203" xlink:href="#DejaVuSans-48"/>
      </g>
     </g>
    </g>
    <g id="ytick_20">
     <g id="line2d_33">
      <g>
       <use style="stroke:#000000;stroke-width:0.8;" x="389.677914" xlink:href="#m302529cb65" y="166.528794"/>
      </g>
     </g>
     <g id="text_33">
      <!-- 0.25 -->
      <g transform="translate(360.412289 170.328013)scale(0.1 -0.1)">
       <use xlink:href="#DejaVuSans-48"/>
       <use x="63.623047" xlink:href="#DejaVuSans-46"/>
       <use x="95.410156" xlink:href="#DejaVuSans-50"/>
       <use x="159.033203" xlink:href="#DejaVuSans-53"/>
      </g>
     </g>
    </g>
    <g id="ytick_21">
     <g id="line2d_34">
      <g>
       <use style="stroke:#000000;stroke-width:0.8;" x="389.677914" xlink:href="#m302529cb65" y="139.594707"/>
      </g>
     </g>
     <g id="text_34">
      <!-- 0.50 -->
      <g transform="translate(360.412289 143.393925)scale(0.1 -0.1)">
       <use xlink:href="#DejaVuSans-48"/>
       <use x="63.623047" xlink:href="#DejaVuSans-46"/>
       <use x="95.410156" xlink:href="#DejaVuSans-53"/>
       <use x="159.033203" xlink:href="#DejaVuSans-48"/>
      </g>
     </g>
    </g>
    <g id="ytick_22">
     <g id="line2d_35">
      <g>
       <use style="stroke:#000000;stroke-width:0.8;" x="389.677914" xlink:href="#m302529cb65" y="112.660619"/>
      </g>
     </g>
     <g id="text_35">
      <!-- 0.75 -->
      <g transform="translate(360.412289 116.459837)scale(0.1 -0.1)">
       <use xlink:href="#DejaVuSans-48"/>
       <use x="63.623047" xlink:href="#DejaVuSans-46"/>
       <use x="95.410156" xlink:href="#DejaVuSans-55"/>
       <use x="159.033203" xlink:href="#DejaVuSans-53"/>
      </g>
     </g>
    </g>
    <g id="ytick_23">
     <g id="line2d_36">
      <g>
       <use style="stroke:#000000;stroke-width:0.8;" x="389.677914" xlink:href="#m302529cb65" y="85.726531"/>
      </g>
     </g>
     <g id="text_36">
      <!-- 1.00 -->
      <g transform="translate(360.412289 89.52575)scale(0.1 -0.1)">
       <use xlink:href="#DejaVuSans-49"/>
       <use x="63.623047" xlink:href="#DejaVuSans-46"/>
       <use x="95.410156" xlink:href="#DejaVuSans-48"/>
       <use x="159.033203" xlink:href="#DejaVuSans-48"/>
      </g>
     </g>
    </g>
    <g id="text_37">
     <!-- True Positive Rate -->
     <defs>
      <path d="M -0.296875 72.90625 
L 61.375 72.90625 
L 61.375 64.59375 
L 35.5 64.59375 
L 35.5 0 
L 25.59375 0 
L 25.59375 64.59375 
L -0.296875 64.59375 
z
" id="DejaVuSans-84"/>
     </defs>
     <g transform="translate(353.916664 194.250019)rotate(-90)scale(0.12 -0.12)">
      <use xlink:href="#DejaVuSans-84"/>
      <use x="60.865234" xlink:href="#DejaVuSans-114"/>
      <use x="101.978516" xlink:href="#DejaVuSans-117"/>
      <use x="165.357422" xlink:href="#DejaVuSans-101"/>
      <use x="226.880859" xlink:href="#DejaVuSans-32"/>
      <use x="258.667969" xlink:href="#DejaVuSans-80"/>
      <use x="318.923828" xlink:href="#DejaVuSans-111"/>
      <use x="380.105469" xlink:href="#DejaVuSans-115"/>
      <use x="432.205078" xlink:href="#DejaVuSans-105"/>
      <use x="459.988281" xlink:href="#DejaVuSans-116"/>
      <use x="499.197266" xlink:href="#DejaVuSans-105"/>
      <use x="526.980469" xlink:href="#DejaVuSans-118"/>
      <use x="586.160156" xlink:href="#DejaVuSans-101"/>
      <use x="647.683594" xlink:href="#DejaVuSans-32"/>
      <use x="679.470703" xlink:href="#DejaVuSans-82"/>
      <use x="748.921875" xlink:href="#DejaVuSans-97"/>
      <use x="810.201172" xlink:href="#DejaVuSans-116"/>
      <use x="849.410156" xlink:href="#DejaVuSans-101"/>
     </g>
    </g>
   </g>
   <g id="line2d_37">
    <path clip-path="url(#p27ee6d64e2)" d="M 397.845651 193.462882 
L 397.845651 97.697237 
L 559.99036 97.697237 
L 561.200395 85.726531 
" style="fill:none;stroke:#0073b2;stroke-linecap:square;stroke-width:1.5;"/>
   </g>
   <g id="line2d_38">
    <path clip-path="url(#p27ee6d64e2)" d="M 397.845651 193.462882 
L 398.250997 93.421985 
L 399.061691 89.574258 
L 557.957621 85.726531 
L 561.200395 85.726531 
" style="fill:none;stroke:#cc6600;stroke-linecap:square;stroke-width:1.5;"/>
   </g>
   <g id="line2d_39">
    <path clip-path="url(#p27ee6d64e2)" d="M 397.845651 193.462882 
L 561.200395 85.726531 
" style="fill:none;stroke:#808080;stroke-dasharray:4,8;stroke-dashoffset:0;stroke-width:0.8;"/>
   </g>
   <g id="patch_118">
    <path d="M 389.677914 198.8497 
L 389.677914 80.339713 
" style="fill:none;stroke:#000000;stroke-linecap:square;stroke-linejoin:miter;stroke-width:0.8;"/>
   </g>
   <g id="patch_119">
    <path d="M 569.368133 198.8497 
L 569.368133 80.339713 
" style="fill:none;stroke:#000000;stroke-linecap:square;stroke-linejoin:miter;stroke-width:0.8;"/>
   </g>
   <g id="patch_120">
    <path d="M 389.677914 198.8497 
L 569.368133 198.8497 
" style="fill:none;stroke:#000000;stroke-linecap:square;stroke-linejoin:miter;stroke-width:0.8;"/>
   </g>
   <g id="patch_121">
    <path d="M 389.677914 80.339713 
L 569.368133 80.339713 
" style="fill:none;stroke:#000000;stroke-linecap:square;stroke-linejoin:miter;stroke-width:0.8;"/>
   </g>
   <g id="legend_1">
    <g id="patch_122">
     <path d="M 433.152508 193.8497 
L 562.368133 193.8497 
Q 564.368133 193.8497 564.368133 191.8497 
L 564.368133 163.49345 
Q 564.368133 161.49345 562.368133 161.49345 
L 433.152508 161.49345 
Q 431.152508 161.49345 431.152508 163.49345 
L 431.152508 191.8497 
Q 431.152508 193.8497 433.152508 193.8497 
z
" style="fill:#ffffff;opacity:0.8;stroke:#cccccc;stroke-linejoin:miter;"/>
    </g>
    <g id="line2d_40">
     <path d="M 435.152508 169.591887 
L 455.152508 169.591887 
" style="fill:none;stroke:#0073b2;stroke-linecap:square;stroke-width:1.5;"/>
    </g>
    <g id="line2d_41"/>
    <g id="text_38">
     <!-- Test, AUC: 0.89 -->
     <defs>
      <path d="M 11.71875 12.40625 
L 22.015625 12.40625 
L 22.015625 4 
L 14.015625 -11.625 
L 7.71875 -11.625 
L 11.71875 4 
z
" id="DejaVuSans-44"/>
      <path d="M 34.1875 63.1875 
L 20.796875 26.90625 
L 47.609375 26.90625 
z
M 28.609375 72.90625 
L 39.796875 72.90625 
L 67.578125 0 
L 57.328125 0 
L 50.6875 18.703125 
L 17.828125 18.703125 
L 11.1875 0 
L 0.78125 0 
z
" id="DejaVuSans-65"/>
      <path d="M 11.71875 12.40625 
L 22.015625 12.40625 
L 22.015625 0 
L 11.71875 0 
z
M 11.71875 51.703125 
L 22.015625 51.703125 
L 22.015625 39.3125 
L 11.71875 39.3125 
z
" id="DejaVuSans-58"/>
      <path d="M 31.78125 34.625 
Q 24.75 34.625 20.71875 30.859375 
Q 16.703125 27.09375 16.703125 20.515625 
Q 16.703125 13.921875 20.71875 10.15625 
Q 24.75 6.390625 31.78125 6.390625 
Q 38.8125 6.390625 42.859375 10.171875 
Q 46.921875 13.96875 46.921875 20.515625 
Q 46.921875 27.09375 42.890625 30.859375 
Q 38.875 34.625 31.78125 34.625 
z
M 21.921875 38.8125 
Q 15.578125 40.375 12.03125 44.71875 
Q 8.5 49.078125 8.5 55.328125 
Q 8.5 64.0625 14.71875 69.140625 
Q 20.953125 74.21875 31.78125 74.21875 
Q 42.671875 74.21875 48.875 69.140625 
Q 55.078125 64.0625 55.078125 55.328125 
Q 55.078125 49.078125 51.53125 44.71875 
Q 48 40.375 41.703125 38.8125 
Q 48.828125 37.15625 52.796875 32.3125 
Q 56.78125 27.484375 56.78125 20.515625 
Q 56.78125 9.90625 50.3125 4.234375 
Q 43.84375 -1.421875 31.78125 -1.421875 
Q 19.734375 -1.421875 13.25 4.234375 
Q 6.78125 9.90625 6.78125 20.515625 
Q 6.78125 27.484375 10.78125 32.3125 
Q 14.796875 37.15625 21.921875 38.8125 
z
M 18.3125 54.390625 
Q 18.3125 48.734375 21.84375 45.5625 
Q 25.390625 42.390625 31.78125 42.390625 
Q 38.140625 42.390625 41.71875 45.5625 
Q 45.3125 48.734375 45.3125 54.390625 
Q 45.3125 60.0625 41.71875 63.234375 
Q 38.140625 66.40625 31.78125 66.40625 
Q 25.390625 66.40625 21.84375 63.234375 
Q 18.3125 60.0625 18.3125 54.390625 
z
" id="DejaVuSans-56"/>
      <path d="M 10.984375 1.515625 
L 10.984375 10.5 
Q 14.703125 8.734375 18.5 7.8125 
Q 22.3125 6.890625 25.984375 6.890625 
Q 35.75 6.890625 40.890625 13.453125 
Q 46.046875 20.015625 46.78125 33.40625 
Q 43.953125 29.203125 39.59375 26.953125 
Q 35.25 24.703125 29.984375 24.703125 
Q 19.046875 24.703125 12.671875 31.3125 
Q 6.296875 37.9375 6.296875 49.421875 
Q 6.296875 60.640625 12.9375 67.421875 
Q 19.578125 74.21875 30.609375 74.21875 
Q 43.265625 74.21875 49.921875 64.515625 
Q 56.59375 54.828125 56.59375 36.375 
Q 56.59375 19.140625 48.40625 8.859375 
Q 40.234375 -1.421875 26.421875 -1.421875 
Q 22.703125 -1.421875 18.890625 -0.6875 
Q 15.09375 0.046875 10.984375 1.515625 
z
M 30.609375 32.421875 
Q 37.25 32.421875 41.125 36.953125 
Q 45.015625 41.5 45.015625 49.421875 
Q 45.015625 57.28125 41.125 61.84375 
Q 37.25 66.40625 30.609375 66.40625 
Q 23.96875 66.40625 20.09375 61.84375 
Q 16.21875 57.28125 16.21875 49.421875 
Q 16.21875 41.5 20.09375 36.953125 
Q 23.96875 32.421875 30.609375 32.421875 
z
" id="DejaVuSans-57"/>
     </defs>
     <g transform="translate(463.152508 173.091887)scale(0.1 -0.1)">
      <use xlink:href="#DejaVuSans-84"/>
      <use x="60.818359" xlink:href="#DejaVuSans-101"/>
      <use x="122.341797" xlink:href="#DejaVuSans-115"/>
      <use x="174.441406" xlink:href="#DejaVuSans-116"/>
      <use x="213.650391" xlink:href="#DejaVuSans-44"/>
      <use x="245.4375" xlink:href="#DejaVuSans-32"/>
      <use x="277.224609" xlink:href="#DejaVuSans-65"/>
      <use x="345.632812" xlink:href="#DejaVuSans-85"/>
      <use x="418.826172" xlink:href="#DejaVuSans-67"/>
      <use x="488.650391" xlink:href="#DejaVuSans-58"/>
      <use x="522.341797" xlink:href="#DejaVuSans-32"/>
      <use x="554.128906" xlink:href="#DejaVuSans-48"/>
      <use x="617.751953" xlink:href="#DejaVuSans-46"/>
      <use x="649.539062" xlink:href="#DejaVuSans-56"/>
      <use x="713.162109" xlink:href="#DejaVuSans-57"/>
     </g>
    </g>
    <g id="line2d_42">
     <path d="M 435.152508 184.270012 
L 455.152508 184.270012 
" style="fill:none;stroke:#cc6600;stroke-linecap:square;stroke-width:1.5;"/>
    </g>
    <g id="line2d_43"/>
    <g id="text_39">
     <!-- Training, AUC: 0.98 -->
     <g transform="translate(463.152508 187.770012)scale(0.1 -0.1)">
      <use xlink:href="#DejaVuSans-84"/>
      <use x="60.865234" xlink:href="#DejaVuSans-114"/>
      <use x="101.978516" xlink:href="#DejaVuSans-97"/>
      <use x="163.257812" xlink:href="#DejaVuSans-105"/>
      <use x="191.041016" xlink:href="#DejaVuSans-110"/>
      <use x="254.419922" xlink:href="#DejaVuSans-105"/>
      <use x="282.203125" xlink:href="#DejaVuSans-110"/>
      <use x="345.582031" xlink:href="#DejaVuSans-103"/>
      <use x="409.058594" xlink:href="#DejaVuSans-44"/>
      <use x="440.845703" xlink:href="#DejaVuSans-32"/>
      <use x="472.632812" xlink:href="#DejaVuSans-65"/>
      <use x="541.041016" xlink:href="#DejaVuSans-85"/>
      <use x="614.234375" xlink:href="#DejaVuSans-67"/>
      <use x="684.058594" xlink:href="#DejaVuSans-58"/>
      <use x="717.75" xlink:href="#DejaVuSans-32"/>
      <use x="749.537109" xlink:href="#DejaVuSans-48"/>
      <use x="813.160156" xlink:href="#DejaVuSans-46"/>
      <use x="844.947266" xlink:href="#DejaVuSans-57"/>
      <use x="908.570312" xlink:href="#DejaVuSans-56"/>
     </g>
    </g>
   </g>
  </g>
  <g id="axes_5">
   <g id="line2d_44">
    <path clip-path="url(#pfec89d69c7)" d="M 293.144193 264.824036 
L 263.049339 264.824036 
" style="fill:none;stroke:#000000;stroke-linecap:square;stroke-width:0.577241;"/>
   </g>
   <g id="line2d_45">
    <path clip-path="url(#pfec89d69c7)" d="M 293.144193 264.824036 
L 293.144193 282.880949 
" style="fill:none;stroke:#000000;stroke-linecap:square;stroke-width:0.577241;"/>
   </g>
   <g id="line2d_46">
    <path clip-path="url(#pfec89d69c7)" d="M 323.239048 264.824036 
L 293.144193 264.824036 
" style="fill:none;stroke:#000000;stroke-linecap:square;stroke-width:0.577241;"/>
   </g>
   <g id="patch_123">
    <path clip-path="url(#pfec89d69c7)" d="M 274.885081 262.308294 
L 274.722851 261.459525 
Q 274.55827 260.58842 273.903471 260.58842 
Q 273.412079 260.58842 273.187543 260.99282 
Q 272.904228 261.499495 272.904228 262.1684 
Q 272.904228 262.9772 273.180489 263.36279 
Q 273.459102 263.755434 273.903471 263.755434 
Q 274.396039 263.755434 274.660545 262.972497 
z
M 275.263618 261.18444 
L 275.626872 260.107608 
L 276.229945 260.107608 
L 275.476398 262.337684 
L 275.623345 263.141781 
Q 275.656262 263.321645 275.7844 263.472119 
Q 275.93605 263.648456 276.053608 263.648456 
L 276.376892 263.648456 
L 276.376892 264.222139 
L 275.972493 264.222139 
Q 275.626872 264.222139 275.31887 263.912961 
Q 275.16722 263.75896 275.104914 263.435676 
Q 274.936806 263.843602 274.591186 264.16336 
Q 274.428956 264.313834 273.903471 264.313834 
Q 273.040595 264.313834 272.622089 263.755434 
Q 272.191827 263.178224 272.191827 262.1684 
Q 272.191827 261.088042 272.658532 260.581367 
Q 273.176963 260.015913 273.903471 260.015913 
Q 275.046135 260.015913 275.263618 261.18444 
z
"/>
   </g>
   <g id="patch_124">
    <path clip-path="url(#pfec89d69c7)" d="M 283.289304 261.18444 
Q 282.789683 261.18444 282.496963 261.526534 
Q 282.205419 261.867452 282.205419 262.462295 
Q 282.205419 263.053612 282.496963 263.398057 
Q 282.789683 263.741327 283.289304 263.741327 
Q 283.788926 263.741327 284.08047 263.398057 
Q 284.372014 263.053612 284.372014 262.462295 
Q 284.372014 261.867452 284.08047 261.526534 
Q 283.788926 261.18444 283.289304 261.18444 
z
M 284.762306 258.857966 
L 284.762306 259.533925 
Q 284.482518 259.40226 284.198028 259.332901 
Q 283.913537 259.262366 283.633749 259.262366 
Q 282.899011 259.262366 282.51107 259.758461 
Q 282.124304 260.254556 282.069052 261.257326 
Q 282.285359 260.937568 282.61217 260.767109 
Q 282.940157 260.59665 283.332801 260.59665 
Q 284.159234 260.59665 284.63887 261.098622 
Q 285.118507 261.59942 285.118507 262.462295 
Q 285.118507 263.307538 284.618885 263.818915 
Q 284.119264 264.329117 283.289304 264.329117 
Q 282.337084 264.329117 281.833936 263.600257 
Q 281.330787 262.870222 281.330787 261.485388 
Q 281.330787 260.185196 281.947967 259.411665 
Q 282.565147 258.638133 283.60436 258.638133 
Q 283.884148 258.638133 284.168638 258.693385 
Q 284.453129 258.748637 284.762306 258.857966 
z
"/>
   </g>
   <g id="patch_125">
    <path clip-path="url(#pfec89d69c7)" d="M 294.888755 277.661373 
L 297.478558 277.661373 
L 297.478558 278.285606 
L 293.996489 278.285606 
L 293.996489 277.661373 
Q 294.418522 277.224057 295.147382 276.488143 
Q 295.877418 275.751055 296.064335 275.537099 
Q 296.420536 275.137402 296.561605 274.859965 
Q 296.70385 274.582528 296.70385 274.314496 
Q 296.70385 273.87718 296.397024 273.602094 
Q 296.090198 273.325833 295.597629 273.325833 
Q 295.248482 273.325833 294.860541 273.446917 
Q 294.473775 273.568002 294.032932 273.814874 
L 294.032932 273.064854 
Q 294.480828 272.88499 294.869945 272.793295 
Q 295.260238 272.701599 295.583522 272.701599 
Q 296.435818 272.701599 296.942493 273.128335 
Q 297.449168 273.553895 297.449168 274.266297 
Q 297.449168 274.604864 297.322206 274.908164 
Q 297.196419 275.210288 296.861378 275.621741 
Q 296.769683 275.728719 296.277115 276.237745 
Q 295.785722 276.746771 294.888755 277.661373 
z
M 299.113643 277.352195 
L 299.88835 277.352195 
L 299.88835 277.984657 
L 299.286453 279.160237 
L 298.812695 279.160237 
L 299.113643 277.984657 
z
M 303.676511 275.327846 
Q 304.209049 275.441877 304.507646 275.80278 
Q 304.807419 276.162508 304.807419 276.691519 
Q 304.807419 277.502669 304.249018 277.948214 
Q 303.690618 278.392584 302.661985 278.392584 
Q 302.31754 278.392584 301.951935 278.3244 
Q 301.586329 278.256216 301.197212 278.119849 
L 301.197212 277.403921 
Q 301.505214 277.583784 301.871995 277.67548 
Q 302.239952 277.767175 302.640825 277.767175 
Q 303.337944 277.767175 303.703549 277.492089 
Q 304.069155 277.217003 304.069155 276.691519 
Q 304.069155 276.206004 303.729412 275.93327 
Q 303.389669 275.659359 302.784245 275.659359 
L 302.14473 275.659359 
L 302.14473 275.049233 
L 302.813635 275.049233 
Q 303.36028 275.049233 303.650648 274.830575 
Q 303.941016 274.611917 303.941016 274.200464 
Q 303.941016 273.778431 303.641243 273.55272 
Q 303.342646 273.325833 302.784245 273.325833 
Q 302.478595 273.325833 302.129447 273.392841 
Q 301.7803 273.458673 301.361793 273.597392 
L 301.361793 272.936716 
Q 301.785002 272.819157 302.154134 272.760378 
Q 302.523267 272.701599 302.850078 272.701599 
Q 303.69532 272.701599 304.186713 273.086014 
Q 304.679281 273.469253 304.679281 274.122876 
Q 304.679281 274.579001 304.418302 274.892881 
Q 304.157323 275.206761 303.676511 275.327846 
z
M 306.29203 277.352195 
L 307.066737 277.352195 
L 307.066737 277.984657 
L 306.46484 279.160237 
L 305.991081 279.160237 
L 306.29203 277.984657 
z
M 310.645645 273.446917 
L 308.77177 276.375288 
L 310.645645 276.375288 
z
M 310.450498 272.800348 
L 311.383909 272.800348 
L 311.383909 276.375288 
L 312.166845 276.375288 
L 312.166845 276.992467 
L 311.383909 276.992467 
L 311.383909 278.285606 
L 310.645645 278.285606 
L 310.645645 276.992467 
L 308.169873 276.992467 
L 308.169873 276.276539 
z
"/>
   </g>
   <g id="patch_126">
    <path clip-path="url(#pfec89d69c7)" d="M 303.256535 263.968214 
L 303.256535 265.786836 
L 302.577049 265.786836 
L 302.577049 260.133471 
Q 302.577049 258.458269 304.141747 258.458269 
Q 305.737009 258.458269 305.737009 259.872492 
Q 305.737009 260.878789 305.104547 261.246745 
Q 306.13318 261.577083 306.13318 262.557517 
Q 306.13318 264.299727 304.362756 264.299727 
Q 303.583346 264.299727 303.256535 263.968214 
z
M 303.256535 263.086529 
Q 303.664461 263.722517 304.388619 263.722517 
Q 305.446641 263.722517 305.446641 262.569273 
Q 305.446641 261.532411 303.742049 261.613526 
L 303.742049 260.989293 
Q 305.075157 260.989293 305.075157 259.813713 
Q 305.075157 259.009616 304.215808 259.009616 
Q 303.256535 259.009616 303.256535 260.155807 
z
"/>
   </g>
   <g id="patch_127">
    <path clip-path="url(#pfec89d69c7)" d="M 313.743886 259.383451 
L 311.870011 262.311821 
L 313.743886 262.311821 
z
M 313.54874 258.736882 
L 314.482151 258.736882 
L 314.482151 262.311821 
L 315.265087 262.311821 
L 315.265087 262.929001 
L 314.482151 262.929001 
L 314.482151 264.222139 
L 313.743886 264.222139 
L 313.743886 262.929001 
L 311.268114 262.929001 
L 311.268114 262.213072 
z
"/>
   </g>
   <g id="patch_128">
    <path clip-path="url(#pfec89d69c7)" d="M 329.258019 258.805065 
L 329.258019 270.843007 
L 317.220077 270.843007 
L 317.220077 258.805065 
L 329.258019 258.805065 
z
" style="fill:#0090bc;stroke:#000000;stroke-linejoin:miter;stroke-width:0.577241;"/>
   </g>
   <g id="patch_129">
    <path clip-path="url(#pfec89d69c7)" d="M 293.144193 270.843007 
C 294.740443 270.843007 296.27153 270.20881 297.400249 269.080091 
C 298.528968 267.951372 299.163164 266.420286 299.163164 264.824036 
C 299.163164 263.227786 298.528968 261.6967 297.400249 260.567981 
C 296.27153 259.439262 294.740443 258.805065 293.144193 258.805065 
C 291.547944 258.805065 290.016857 259.439262 288.888138 260.567981 
C 287.759419 261.6967 287.125223 263.227786 287.125223 264.824036 
C 287.125223 266.420286 287.759419 267.951372 288.888138 269.080091 
C 290.016857 270.20881 291.547944 270.843007 293.144193 270.843007 
z
" style="fill:#ffd400;stroke:#000000;stroke-linejoin:miter;stroke-width:0.577241;"/>
   </g>
   <g id="patch_130">
    <path clip-path="url(#pfec89d69c7)" d="M 263.049339 256.311926 
L 271.561449 264.824036 
L 263.049339 273.336146 
L 254.537229 264.824036 
L 263.049339 256.311926 
z
" style="fill:#a54399;stroke:#000000;stroke-linejoin:miter;stroke-width:0.577241;"/>
   </g>
   <g id="patch_131">
    <path clip-path="url(#pfec89d69c7)" d="M 297.658422 278.366721 
L 288.629965 287.395177 
z
" style="fill:#ffffff;stroke:#000000;stroke-linejoin:miter;stroke-width:0.577241;"/>
   </g>
   <g id="patch_132">
    <path clip-path="url(#pfec89d69c7)" d="M 288.629965 278.366721 
L 297.658422 287.395177 
z
" style="fill:#ffffff;stroke:#000000;stroke-linejoin:miter;stroke-width:0.577241;"/>
   </g>
  </g>
  <g id="axes_6">
   <g id="line2d_47">
    <path clip-path="url(#p19dedcd856)" d="M 260.776146 331.925724 
L 260.776146 350.642478 
" style="fill:none;stroke:#000000;stroke-linecap:square;stroke-width:0.577241;"/>
   </g>
   <g id="line2d_48">
    <path clip-path="url(#p19dedcd856)" d="M 291.970736 331.925724 
L 260.776146 331.925724 
" style="fill:none;stroke:#000000;stroke-linecap:square;stroke-width:0.577241;"/>
   </g>
   <g id="line2d_49">
    <path clip-path="url(#p19dedcd856)" d="M 323.165326 331.925724 
L 291.970736 331.925724 
" style="fill:none;stroke:#000000;stroke-linecap:square;stroke-width:0.577241;"/>
   </g>
   <g id="patch_133">
    <path clip-path="url(#p19dedcd856)" d="M 262.584458 345.232167 
L 265.268898 345.232167 
L 265.268898 345.879211 
L 261.659587 345.879211 
L 261.659587 345.232167 
Q 262.097042 344.77887 262.852536 344.016065 
Q 263.609249 343.252041 263.802996 343.030267 
Q 264.172214 342.615964 264.318438 342.328389 
Q 264.465882 342.040814 264.465882 341.762987 
Q 264.465882 341.309691 264.147843 341.024553 
Q 263.829804 340.738196 263.319237 340.738196 
Q 262.957331 340.738196 262.555213 340.863705 
Q 262.154314 340.989215 261.697362 341.245108 
L 261.697362 340.46768 
Q 262.161625 340.281244 262.564961 340.186198 
Q 262.969516 340.091152 263.304614 340.091152 
Q 264.188055 340.091152 264.713245 340.533482 
Q 265.238435 340.974592 265.238435 341.713027 
Q 265.238435 342.063966 265.106833 342.378349 
Q 264.976449 342.691513 264.629166 343.118002 
Q 264.53412 343.228889 264.023552 343.756516 
Q 263.514203 344.284143 262.584458 345.232167 
z
M 266.963733 344.911691 
L 267.76675 344.911691 
L 267.76675 345.567265 
L 267.142859 346.785803 
L 266.651788 346.785803 
L 266.963733 345.567265 
z
M 271.693339 342.813367 
Q 272.245337 342.931566 272.554846 343.305657 
Q 272.865573 343.67853 272.865573 344.226872 
Q 272.865573 345.067664 272.286767 345.52949 
Q 271.707961 345.990098 270.64174 345.990098 
Q 270.284708 345.990098 269.905743 345.919422 
Q 269.526777 345.848747 269.123441 345.707397 
L 269.123441 344.965307 
Q 269.442698 345.151743 269.822882 345.246789 
Q 270.204285 345.341835 270.619806 345.341835 
Q 271.3424 345.341835 271.721365 345.056697 
Q 272.100331 344.771559 272.100331 344.226872 
Q 272.100331 343.723616 271.748173 343.440915 
Q 271.396015 343.156995 270.768468 343.156995 
L 270.105583 343.156995 
L 270.105583 342.524574 
L 270.798932 342.524574 
Q 271.365552 342.524574 271.666531 342.297925 
Q 271.96751 342.071277 271.96751 341.644789 
Q 271.96751 341.207333 271.656783 340.973374 
Q 271.347274 340.738196 270.768468 340.738196 
Q 270.451648 340.738196 270.089742 340.807653 
Q 269.727836 340.875891 269.294036 341.019678 
L 269.294036 340.33486 
Q 269.73271 340.213006 270.115331 340.152079 
Q 270.497952 340.091152 270.836706 340.091152 
Q 271.712836 340.091152 272.222185 340.489614 
Q 272.732752 340.886858 272.732752 341.564365 
Q 272.732752 342.037158 272.462237 342.362508 
Q 272.191721 342.687858 271.693339 342.813367 
z
M 274.404435 344.911691 
L 275.207452 344.911691 
L 275.207452 345.567265 
L 274.58356 346.785803 
L 274.092489 346.785803 
L 274.404435 345.567265 
z
M 278.917141 340.863705 
L 276.97479 343.899085 
L 278.917141 343.899085 
z
M 278.714863 340.193509 
L 279.682383 340.193509 
L 279.682383 343.899085 
L 280.49393 343.899085 
L 280.49393 344.538818 
L 279.682383 344.538818 
L 279.682383 345.879211 
L 278.917141 345.879211 
L 278.917141 344.538818 
L 276.350898 344.538818 
L 276.350898 343.796728 
z
"/>
   </g>
   <g id="patch_134">
    <path clip-path="url(#p19dedcd856)" d="M 271.258016 331.038628 
L 271.258016 332.923708 
L 270.553701 332.923708 
L 270.553701 327.063755 
Q 270.553701 325.327338 272.175576 325.327338 
Q 273.829133 325.327338 273.829133 326.79324 
Q 273.829133 327.836309 273.173559 328.217711 
Q 274.23978 328.560121 274.23978 329.576382 
Q 274.23978 331.382256 272.404661 331.382256 
Q 271.59677 331.382256 271.258016 331.038628 
z
M 271.258016 330.124724 
Q 271.680849 330.783954 272.431469 330.783954 
Q 273.528153 330.783954 273.528153 329.588567 
Q 273.528153 328.513816 271.761272 328.597895 
L 271.761272 327.950851 
Q 273.143095 327.950851 273.143095 326.732313 
Q 273.143095 325.898832 272.252344 325.898832 
Q 271.258016 325.898832 271.258016 327.086907 
z
"/>
   </g>
   <g id="patch_135">
    <path clip-path="url(#p19dedcd856)" d="M 282.128599 326.286328 
L 280.186249 329.321707 
L 282.128599 329.321707 
z
M 281.926322 325.616131 
L 282.893842 325.616131 
L 282.893842 329.321707 
L 283.705388 329.321707 
L 283.705388 329.96144 
L 282.893842 329.96144 
L 282.893842 331.301833 
L 282.128599 331.301833 
L 282.128599 329.96144 
L 279.562357 329.96144 
L 279.562357 329.21935 
z
"/>
   </g>
   <g id="patch_136">
    <path clip-path="url(#p19dedcd856)" d="M 320.294449 333.740128 
L 320.12629 332.860344 
Q 319.955695 331.957406 319.276969 331.957406 
Q 318.76762 331.957406 318.534879 332.376584 
Q 318.241211 332.901774 318.241211 333.595122 
Q 318.241211 334.433477 318.527568 334.833158 
Q 318.816361 335.24015 319.276969 335.24015 
Q 319.787537 335.24015 320.061708 334.428603 
z
M 320.686818 332.575206 
L 321.063347 331.459024 
L 321.688457 331.459024 
L 320.907374 333.770592 
L 321.059691 334.604072 
Q 321.09381 334.790509 321.226631 334.946482 
Q 321.383822 335.129263 321.505676 335.129263 
L 321.840774 335.129263 
L 321.840774 335.723909 
L 321.421597 335.723909 
Q 321.063347 335.723909 320.744089 335.403434 
Q 320.586898 335.243805 320.522315 334.908707 
Q 320.348064 335.33154 319.989814 335.662982 
Q 319.821656 335.818955 319.276969 335.818955 
Q 318.382561 335.818955 317.948762 335.24015 
Q 317.502777 334.641847 317.502777 333.595122 
Q 317.502777 332.475285 317.986536 331.950095 
Q 318.523912 331.363978 319.276969 331.363978 
Q 320.461388 331.363978 320.686818 332.575206 
z
M 324.193468 330.038208 
L 324.840512 330.038208 
L 322.860386 336.447721 
L 322.213342 336.447721 
z
M 326.276255 335.460705 
L 326.276255 337.345784 
L 325.57194 337.345784 
L 325.57194 331.485832 
Q 325.57194 329.749414 327.193814 329.749414 
Q 328.847371 329.749414 328.847371 331.215316 
Q 328.847371 332.258385 328.191798 332.639788 
Q 329.258019 332.982197 329.258019 333.998459 
Q 329.258019 335.804333 327.4229 335.804333 
Q 326.615009 335.804333 326.276255 335.460705 
z
M 326.276255 334.546801 
Q 326.699088 335.20603 327.449708 335.20603 
Q 328.546392 335.20603 328.546392 334.010644 
Q 328.546392 332.935893 326.779511 333.019972 
L 326.779511 332.372928 
Q 328.161334 332.372928 328.161334 331.154389 
Q 328.161334 330.320909 327.270582 330.320909 
Q 326.276255 330.320909 326.276255 331.508984 
z
"/>
   </g>
   <g id="patch_137">
    <path clip-path="url(#p19dedcd856)" d="M 298.209654 325.686807 
L 298.209654 338.164642 
L 285.731818 338.164642 
L 285.731818 325.686807 
L 298.209654 325.686807 
z
" style="fill:#0090bc;stroke:#000000;stroke-linejoin:miter;stroke-width:0.577241;"/>
   </g>
   <g id="patch_138">
    <path clip-path="url(#p19dedcd856)" d="M 260.776146 338.164642 
C 262.430727 338.164642 264.017763 337.507271 265.187728 336.337306 
C 266.357693 335.167341 267.015064 333.580305 267.015064 331.925724 
C 267.015064 330.271144 266.357693 328.684108 265.187728 327.514143 
C 264.017763 326.344178 262.430727 325.686807 260.776146 325.686807 
C 259.121566 325.686807 257.53453 326.344178 256.364565 327.514143 
C 255.1946 328.684108 254.537229 330.271144 254.537229 331.925724 
C 254.537229 333.580305 255.1946 335.167341 256.364565 336.337306 
C 257.53453 337.507271 259.121566 338.164642 260.776146 338.164642 
z
" style="fill:#ffd400;stroke:#000000;stroke-linejoin:miter;stroke-width:0.577241;"/>
   </g>
   <g id="patch_139">
    <path clip-path="url(#p19dedcd856)" d="M 265.455335 345.96329 
L 256.096958 355.321667 
z
" style="fill:#ffffff;stroke:#000000;stroke-linejoin:miter;stroke-width:0.577241;"/>
   </g>
   <g id="patch_140">
    <path clip-path="url(#p19dedcd856)" d="M 256.096958 345.96329 
L 265.455335 355.321667 
z
" style="fill:#ffffff;stroke:#000000;stroke-linejoin:miter;stroke-width:0.577241;"/>
   </g>
  </g>
  <g id="axes_7">
   <g id="line2d_50">
    <path clip-path="url(#p62be1fbbbe)" d="M 265.211627 395.910605 
L 265.211627 427.933801 
" style="fill:none;stroke:#000000;stroke-linecap:square;stroke-width:0.591389;"/>
   </g>
   <g id="line2d_51">
    <path clip-path="url(#p62be1fbbbe)" d="M 318.58362 395.910605 
L 265.211627 395.910605 
" style="fill:none;stroke:#000000;stroke-linecap:square;stroke-width:0.591389;"/>
   </g>
   <g id="patch_141">
    <path clip-path="url(#p62be1fbbbe)" d="M 268.305535 418.677095 
L 272.898445 418.677095 
L 272.898445 419.784147 
L 266.723139 419.784147 
L 266.723139 418.677095 
Q 267.471597 417.901534 268.7642 416.596422 
Q 270.058888 415.289225 270.390378 414.909783 
Q 271.022086 414.200937 271.272267 413.708913 
Q 271.524533 413.21689 271.524533 412.741546 
Q 271.524533 411.965984 270.980389 411.478131 
Q 270.436245 410.988193 269.562696 410.988193 
Q 268.943497 410.988193 268.255499 411.202932 
Q 267.569585 411.41767 266.787769 411.855488 
L 266.787769 410.525357 
Q 267.582094 410.206376 268.272177 410.043759 
Q 268.964345 409.881141 269.537677 409.881141 
Q 271.049189 409.881141 271.947756 410.637939 
Q 272.846324 411.392652 272.846324 412.656068 
Q 272.846324 413.256502 272.621161 413.794392 
Q 272.398083 414.330197 271.803902 415.059892 
Q 271.641284 415.249613 270.767735 416.15235 
Q 269.89627 417.055087 268.305535 418.677095 
z
M 275.798202 418.128782 
L 277.172114 418.128782 
L 277.172114 419.250427 
L 276.104674 421.335271 
L 275.264482 421.335271 
L 275.798202 419.250427 
z
M 283.890261 414.538681 
Q 284.834695 414.740911 285.364245 415.380958 
Q 285.895881 416.01892 285.895881 416.9571 
Q 285.895881 418.395642 284.90558 419.185797 
Q 283.915279 419.973868 282.091041 419.973868 
Q 281.480182 419.973868 280.831796 419.852947 
Q 280.183409 419.732026 279.493326 419.490184 
L 279.493326 418.220515 
Q 280.039555 418.539496 280.690026 418.702114 
Q 281.342582 418.864731 282.053514 418.864731 
Q 283.289826 418.864731 283.938213 418.376878 
Q 284.586599 417.889025 284.586599 416.9571 
Q 284.586599 416.096059 283.984079 415.612376 
Q 283.381559 415.126607 282.307865 415.126607 
L 281.17371 415.126607 
L 281.17371 414.044573 
L 282.359986 414.044573 
Q 283.329438 414.044573 283.844395 413.656792 
Q 284.359351 413.269011 284.359351 412.539316 
Q 284.359351 411.790857 283.827716 411.390568 
Q 283.298166 410.988193 282.307865 410.988193 
Q 281.765806 410.988193 281.146607 411.107029 
Q 280.527409 411.22378 279.785204 411.469792 
L 279.785204 410.29811 
Q 280.535748 410.089625 281.190389 409.985383 
Q 281.84503 409.881141 282.424616 409.881141 
Q 283.923619 409.881141 284.795083 410.562885 
Q 285.668633 411.242544 285.668633 412.401717 
Q 285.668633 413.210636 285.205797 413.767289 
Q 284.742962 414.323942 283.890261 414.538681 
z
M 288.528777 418.128782 
L 289.902689 418.128782 
L 289.902689 419.250427 
L 288.835249 421.335271 
L 287.995057 421.335271 
L 288.528777 419.250427 
z
M 296.249735 411.202932 
L 292.926494 416.396277 
L 296.249735 416.396277 
z
M 295.903651 410.056268 
L 297.559016 410.056268 
L 297.559016 416.396277 
L 298.947522 416.396277 
L 298.947522 417.49082 
L 297.559016 417.49082 
L 297.559016 419.784147 
L 296.249735 419.784147 
L 296.249735 417.49082 
L 291.859054 417.49082 
L 291.859054 416.22115 
z
"/>
   </g>
   <g id="patch_142">
    <path clip-path="url(#p62be1fbbbe)" d="M 283.145451 394.392839 
L 283.145451 397.618091 
L 281.940411 397.618091 
L 281.940411 387.592079 
Q 281.940411 384.621177 284.715338 384.621177 
Q 287.544471 384.621177 287.544471 387.129244 
Q 287.544471 388.91387 286.422825 389.566426 
Q 288.247063 390.152267 288.247063 391.891026 
Q 288.247063 394.980764 285.107289 394.980764 
Q 283.725037 394.980764 283.145451 394.392839 
z
M 283.145451 392.829206 
Q 283.868891 393.957106 285.153155 393.957106 
Q 287.029514 393.957106 287.029514 391.911875 
Q 287.029514 390.073043 284.006491 390.216897 
L 284.006491 389.109845 
Q 286.370704 389.109845 286.370704 387.025002 
Q 286.370704 385.598969 284.846683 385.598969 
Q 283.145451 385.598969 283.145451 387.631691 
z
"/>
   </g>
   <g id="patch_143">
    <path clip-path="url(#p62be1fbbbe)" d="M 301.74434 386.261949 
L 298.421099 391.455294 
L 301.74434 391.455294 
z
M 301.398256 385.115285 
L 303.053621 385.115285 
L 303.053621 391.455294 
L 304.442127 391.455294 
L 304.442127 392.549837 
L 303.053621 392.549837 
L 303.053621 394.843165 
L 301.74434 394.843165 
L 301.74434 392.549837 
L 297.353659 392.549837 
L 297.353659 391.280167 
z
"/>
   </g>
   <g id="patch_144">
    <path clip-path="url(#p62be1fbbbe)" d="M 329.258019 385.236206 
L 329.258019 406.585003 
L 307.909222 406.585003 
L 307.909222 385.236206 
L 329.258019 385.236206 
z
" style="fill:#0090bc;stroke:#000000;stroke-linejoin:miter;stroke-width:0.591389;"/>
   </g>
   <g id="patch_145">
    <path clip-path="url(#p62be1fbbbe)" d="M 265.211627 406.585003 
C 268.042511 406.585003 270.75783 405.460281 272.759567 403.458544 
C 274.761304 401.456807 275.886026 398.741488 275.886026 395.910605 
C 275.886026 393.079721 274.761304 390.364402 272.759567 388.362665 
C 270.75783 386.360928 268.042511 385.236206 265.211627 385.236206 
C 262.380744 385.236206 259.665424 386.360928 257.663687 388.362665 
C 255.661951 390.364402 254.537229 393.079721 254.537229 395.910605 
C 254.537229 398.741488 255.661951 401.456807 257.663687 403.458544 
C 259.665424 405.460281 262.380744 406.585003 265.211627 406.585003 
z
" style="fill:#ffd400;stroke:#000000;stroke-linejoin:miter;stroke-width:0.591389;"/>
   </g>
   <g id="patch_146">
    <path clip-path="url(#p62be1fbbbe)" d="M 273.217426 419.928002 
L 257.205828 435.9396 
z
" style="fill:#ffffff;stroke:#000000;stroke-linejoin:miter;stroke-width:0.591389;"/>
   </g>
   <g id="patch_147">
    <path clip-path="url(#p62be1fbbbe)" d="M 257.205828 419.928002 
L 273.217426 435.9396 
z
" style="fill:#ffffff;stroke:#000000;stroke-linejoin:miter;stroke-width:0.591389;"/>
   </g>
  </g>
  <g id="text_40">
   <!-- SNA_10ug_13631_v5.0_DATA.csv -->
   <defs>
    <path d="M 53.515625 70.515625 
L 53.515625 60.890625 
Q 47.90625 63.578125 42.921875 64.890625 
Q 37.9375 66.21875 33.296875 66.21875 
Q 25.25 66.21875 20.875 63.09375 
Q 16.5 59.96875 16.5 54.203125 
Q 16.5 49.359375 19.40625 46.890625 
Q 22.3125 44.4375 30.421875 42.921875 
L 36.375 41.703125 
Q 47.40625 39.59375 52.65625 34.296875 
Q 57.90625 29 57.90625 20.125 
Q 57.90625 9.515625 50.796875 4.046875 
Q 43.703125 -1.421875 29.984375 -1.421875 
Q 24.8125 -1.421875 18.96875 -0.25 
Q 13.140625 0.921875 6.890625 3.21875 
L 6.890625 13.375 
Q 12.890625 10.015625 18.65625 8.296875 
Q 24.421875 6.59375 29.984375 6.59375 
Q 38.421875 6.59375 43.015625 9.90625 
Q 47.609375 13.234375 47.609375 19.390625 
Q 47.609375 24.75 44.3125 27.78125 
Q 41.015625 30.8125 33.5 32.328125 
L 27.484375 33.5 
Q 16.453125 35.6875 11.515625 40.375 
Q 6.59375 45.0625 6.59375 53.421875 
Q 6.59375 63.09375 13.40625 68.65625 
Q 20.21875 74.21875 32.171875 74.21875 
Q 37.3125 74.21875 42.625 73.28125 
Q 47.953125 72.359375 53.515625 70.515625 
z
" id="DejaVuSans-83"/>
    <path d="M 9.8125 72.90625 
L 23.09375 72.90625 
L 55.421875 11.921875 
L 55.421875 72.90625 
L 64.984375 72.90625 
L 64.984375 0 
L 51.703125 0 
L 19.390625 60.984375 
L 19.390625 0 
L 9.8125 0 
z
" id="DejaVuSans-78"/>
    <path d="M 50.984375 -16.609375 
L 50.984375 -23.578125 
L -0.984375 -23.578125 
L -0.984375 -16.609375 
z
" id="DejaVuSans-95"/>
    <path d="M 33.015625 40.375 
Q 26.375 40.375 22.484375 35.828125 
Q 18.609375 31.296875 18.609375 23.390625 
Q 18.609375 15.53125 22.484375 10.953125 
Q 26.375 6.390625 33.015625 6.390625 
Q 39.65625 6.390625 43.53125 10.953125 
Q 47.40625 15.53125 47.40625 23.390625 
Q 47.40625 31.296875 43.53125 35.828125 
Q 39.65625 40.375 33.015625 40.375 
z
M 52.59375 71.296875 
L 52.59375 62.3125 
Q 48.875 64.0625 45.09375 64.984375 
Q 41.3125 65.921875 37.59375 65.921875 
Q 27.828125 65.921875 22.671875 59.328125 
Q 17.53125 52.734375 16.796875 39.40625 
Q 19.671875 43.65625 24.015625 45.921875 
Q 28.375 48.1875 33.59375 48.1875 
Q 44.578125 48.1875 50.953125 41.515625 
Q 57.328125 34.859375 57.328125 23.390625 
Q 57.328125 12.15625 50.6875 5.359375 
Q 44.046875 -1.421875 33.015625 -1.421875 
Q 20.359375 -1.421875 13.671875 8.265625 
Q 6.984375 17.96875 6.984375 36.375 
Q 6.984375 53.65625 15.1875 63.9375 
Q 23.390625 74.21875 37.203125 74.21875 
Q 40.921875 74.21875 44.703125 73.484375 
Q 48.484375 72.75 52.59375 71.296875 
z
" id="DejaVuSans-54"/>
    <path d="M 19.671875 64.796875 
L 19.671875 8.109375 
L 31.59375 8.109375 
Q 46.6875 8.109375 53.6875 14.9375 
Q 60.6875 21.78125 60.6875 36.53125 
Q 60.6875 51.171875 53.6875 57.984375 
Q 46.6875 64.796875 31.59375 64.796875 
z
M 9.8125 72.90625 
L 30.078125 72.90625 
Q 51.265625 72.90625 61.171875 64.09375 
Q 71.09375 55.28125 71.09375 36.53125 
Q 71.09375 17.671875 61.125 8.828125 
Q 51.171875 0 30.078125 0 
L 9.8125 0 
z
" id="DejaVuSans-68"/>
   </defs>
   <g transform="translate(187.809375 18.41025)scale(0.12 -0.12)">
    <use xlink:href="#DejaVuSans-83"/>
    <use x="63.476562" xlink:href="#DejaVuSans-78"/>
    <use x="138.28125" xlink:href="#DejaVuSans-65"/>
    <use x="206.689453" xlink:href="#DejaVuSans-95"/>
    <use x="256.689453" xlink:href="#DejaVuSans-49"/>
    <use x="320.3125" xlink:href="#DejaVuSans-48"/>
    <use x="383.935547" xlink:href="#DejaVuSans-117"/>
    <use x="447.314453" xlink:href="#DejaVuSans-103"/>
    <use x="510.791016" xlink:href="#DejaVuSans-95"/>
    <use x="560.791016" xlink:href="#DejaVuSans-49"/>
    <use x="624.414062" xlink:href="#DejaVuSans-51"/>
    <use x="688.037109" xlink:href="#DejaVuSans-54"/>
    <use x="751.660156" xlink:href="#DejaVuSans-51"/>
    <use x="815.283203" xlink:href="#DejaVuSans-49"/>
    <use x="878.90625" xlink:href="#DejaVuSans-95"/>
    <use x="928.90625" xlink:href="#DejaVuSans-118"/>
    <use x="988.085938" xlink:href="#DejaVuSans-53"/>
    <use x="1051.708984" xlink:href="#DejaVuSans-46"/>
    <use x="1083.496094" xlink:href="#DejaVuSans-48"/>
    <use x="1147.119141" xlink:href="#DejaVuSans-95"/>
    <use x="1197.119141" xlink:href="#DejaVuSans-68"/>
    <use x="1274.105469" xlink:href="#DejaVuSans-65"/>
    <use x="1342.404297" xlink:href="#DejaVuSans-84"/>
    <use x="1403.378906" xlink:href="#DejaVuSans-65"/>
    <use x="1471.771484" xlink:href="#DejaVuSans-46"/>
    <use x="1503.558594" xlink:href="#DejaVuSans-99"/>
    <use x="1558.539062" xlink:href="#DejaVuSans-115"/>
    <use x="1610.638672" xlink:href="#DejaVuSans-118"/>
   </g>
  </g>
 </g>
 <defs>
  <clipPath id="p4287c272b7">
   <rect height="118.509987" width="296.590694" x="36.403365" y="80.339713"/>
  </clipPath>
  <clipPath id="p6a6e8f2866">
   <rect height="197.68183" width="179.690219" x="36.403365" y="242.226055"/>
  </clipPath>
  <clipPath id="pa718a54845">
   <rect height="197.68183" width="179.690219" x="389.677914" y="242.226055"/>
  </clipPath>
  <clipPath id="p27ee6d64e2">
   <rect height="118.509987" width="179.690219" x="389.677914" y="80.339713"/>
  </clipPath>
  <clipPath id="pfec89d69c7">
   <rect height="34.191576" width="82.19287" x="250.801189" y="254.757763"/>
  </clipPath>
  <clipPath id="p19dedcd856">
   <rect height="32.993762" width="82.19287" x="250.801189" y="323.827621"/>
  </clipPath>
  <clipPath id="p62be1fbbbe">
   <rect height="56.450265" width="82.19287" x="250.801189" y="382.055256"/>
  </clipPath>
 </defs>
</svg>
