<?xml version="1.0" encoding="utf-8" standalone="no"?>
<!DOCTYPE svg PUBLIC "-//W3C//DTD SVG 1.1//EN"
  "http://www.w3.org/Graphics/SVG/1.1/DTD/svg11.dtd">
<!-- Created with matplotlib (https://matplotlib.org/) -->
<svg height="475.2pt" version="1.1" viewBox="0 0 576 475.2" width="576pt" xmlns="http://www.w3.org/2000/svg" xmlns:xlink="http://www.w3.org/1999/xlink">
 <defs>
  <style type="text/css">
*{stroke-linecap:butt;stroke-linejoin:round;}
  </style>
 </defs>
 <g id="figure_1">
  <g id="patch_1">
   <path d="M 0 475.2 
L 576 475.2 
L 576 0 
L 0 0 
z
" style="fill:#ffffff;"/>
  </g>
  <g id="axes_1">
   <g id="patch_2">
    <path d="M 36.403365 203.43899 
L 331.929285 203.43899 
L 331.929285 76.150579 
L 36.403365 76.150579 
z
" style="fill:#ffffff;"/>
   </g>
   <g id="patch_3">
    <path clip-path="url(#pf9dc85a610)" d="M 49.836361 203.43899 
L 52.675338 203.43899 
L 52.675338 199.258747 
L 49.836361 199.258747 
z
" style="fill:#1f77b4;"/>
   </g>
   <g id="patch_4">
    <path clip-path="url(#pf9dc85a610)" d="M 52.675338 203.43899 
L 55.514314 203.43899 
L 55.514314 203.43899 
L 52.675338 203.43899 
z
" style="fill:#1f77b4;"/>
   </g>
   <g id="patch_5">
    <path clip-path="url(#pf9dc85a610)" d="M 55.514314 203.43899 
L 58.353291 203.43899 
L 58.353291 203.43899 
L 55.514314 203.43899 
z
" style="fill:#1f77b4;"/>
   </g>
   <g id="patch_6">
    <path clip-path="url(#pf9dc85a610)" d="M 58.353291 203.43899 
L 61.192267 203.43899 
L 61.192267 203.43899 
L 58.353291 203.43899 
z
" style="fill:#1f77b4;"/>
   </g>
   <g id="patch_7">
    <path clip-path="url(#pf9dc85a610)" d="M 61.192267 203.43899 
L 64.031243 203.43899 
L 64.031243 203.43899 
L 61.192267 203.43899 
z
" style="fill:#1f77b4;"/>
   </g>
   <g id="patch_8">
    <path clip-path="url(#pf9dc85a610)" d="M 64.031243 203.43899 
L 66.87022 203.43899 
L 66.87022 199.258747 
L 64.031243 199.258747 
z
" style="fill:#1f77b4;"/>
   </g>
   <g id="patch_9">
    <path clip-path="url(#pf9dc85a610)" d="M 66.87022 203.43899 
L 69.709196 203.43899 
L 69.709196 203.43899 
L 66.87022 203.43899 
z
" style="fill:#1f77b4;"/>
   </g>
   <g id="patch_10">
    <path clip-path="url(#pf9dc85a610)" d="M 69.709196 203.43899 
L 72.548173 203.43899 
L 72.548173 203.43899 
L 69.709196 203.43899 
z
" style="fill:#1f77b4;"/>
   </g>
   <g id="patch_11">
    <path clip-path="url(#pf9dc85a610)" d="M 72.548173 203.43899 
L 75.387149 203.43899 
L 75.387149 203.43899 
L 72.548173 203.43899 
z
" style="fill:#1f77b4;"/>
   </g>
   <g id="patch_12">
    <path clip-path="url(#pf9dc85a610)" d="M 75.387149 203.43899 
L 78.226125 203.43899 
L 78.226125 203.43899 
L 75.387149 203.43899 
z
" style="fill:#1f77b4;"/>
   </g>
   <g id="patch_13">
    <path clip-path="url(#pf9dc85a610)" d="M 78.226125 203.43899 
L 81.065102 203.43899 
L 81.065102 203.43899 
L 78.226125 203.43899 
z
" style="fill:#1f77b4;"/>
   </g>
   <g id="patch_14">
    <path clip-path="url(#pf9dc85a610)" d="M 81.065102 203.43899 
L 83.904078 203.43899 
L 83.904078 203.43899 
L 81.065102 203.43899 
z
" style="fill:#1f77b4;"/>
   </g>
   <g id="patch_15">
    <path clip-path="url(#pf9dc85a610)" d="M 83.904078 203.43899 
L 86.743055 203.43899 
L 86.743055 203.43899 
L 83.904078 203.43899 
z
" style="fill:#1f77b4;"/>
   </g>
   <g id="patch_16">
    <path clip-path="url(#pf9dc85a610)" d="M 86.743055 203.43899 
L 89.582031 203.43899 
L 89.582031 199.258747 
L 86.743055 199.258747 
z
" style="fill:#1f77b4;"/>
   </g>
   <g id="patch_17">
    <path clip-path="url(#pf9dc85a610)" d="M 89.582031 203.43899 
L 92.421007 203.43899 
L 92.421007 203.43899 
L 89.582031 203.43899 
z
" style="fill:#1f77b4;"/>
   </g>
   <g id="patch_18">
    <path clip-path="url(#pf9dc85a610)" d="M 92.421007 203.43899 
L 95.259984 203.43899 
L 95.259984 203.43899 
L 92.421007 203.43899 
z
" style="fill:#1f77b4;"/>
   </g>
   <g id="patch_19">
    <path clip-path="url(#pf9dc85a610)" d="M 95.259984 203.43899 
L 98.09896 203.43899 
L 98.09896 203.43899 
L 95.259984 203.43899 
z
" style="fill:#1f77b4;"/>
   </g>
   <g id="patch_20">
    <path clip-path="url(#pf9dc85a610)" d="M 98.09896 203.43899 
L 100.937936 203.43899 
L 100.937936 203.43899 
L 98.09896 203.43899 
z
" style="fill:#1f77b4;"/>
   </g>
   <g id="patch_21">
    <path clip-path="url(#pf9dc85a610)" d="M 100.937936 203.43899 
L 103.776913 203.43899 
L 103.776913 203.43899 
L 100.937936 203.43899 
z
" style="fill:#1f77b4;"/>
   </g>
   <g id="patch_22">
    <path clip-path="url(#pf9dc85a610)" d="M 103.776913 203.43899 
L 106.615889 203.43899 
L 106.615889 203.43899 
L 103.776913 203.43899 
z
" style="fill:#1f77b4;"/>
   </g>
   <g id="patch_23">
    <path clip-path="url(#pf9dc85a610)" d="M 106.615889 203.43899 
L 109.454866 203.43899 
L 109.454866 203.43899 
L 106.615889 203.43899 
z
" style="fill:#1f77b4;"/>
   </g>
   <g id="patch_24">
    <path clip-path="url(#pf9dc85a610)" d="M 109.454866 203.43899 
L 112.293842 203.43899 
L 112.293842 203.43899 
L 109.454866 203.43899 
z
" style="fill:#1f77b4;"/>
   </g>
   <g id="patch_25">
    <path clip-path="url(#pf9dc85a610)" d="M 112.293842 203.43899 
L 115.132818 203.43899 
L 115.132818 199.258747 
L 112.293842 199.258747 
z
" style="fill:#1f77b4;"/>
   </g>
   <g id="patch_26">
    <path clip-path="url(#pf9dc85a610)" d="M 115.132818 203.43899 
L 117.971795 203.43899 
L 117.971795 190.89826 
L 115.132818 190.89826 
z
" style="fill:#1f77b4;"/>
   </g>
   <g id="patch_27">
    <path clip-path="url(#pf9dc85a610)" d="M 117.971795 203.43899 
L 120.810771 203.43899 
L 120.810771 190.89826 
L 117.971795 190.89826 
z
" style="fill:#1f77b4;"/>
   </g>
   <g id="patch_28">
    <path clip-path="url(#pf9dc85a610)" d="M 120.810771 203.43899 
L 123.649748 203.43899 
L 123.649748 186.718017 
L 120.810771 186.718017 
z
" style="fill:#1f77b4;"/>
   </g>
   <g id="patch_29">
    <path clip-path="url(#pf9dc85a610)" d="M 123.649748 203.43899 
L 126.488724 203.43899 
L 126.488724 190.89826 
L 123.649748 190.89826 
z
" style="fill:#1f77b4;"/>
   </g>
   <g id="patch_30">
    <path clip-path="url(#pf9dc85a610)" d="M 126.488724 203.43899 
L 129.3277 203.43899 
L 129.3277 203.43899 
L 126.488724 203.43899 
z
" style="fill:#1f77b4;"/>
   </g>
   <g id="patch_31">
    <path clip-path="url(#pf9dc85a610)" d="M 129.3277 203.43899 
L 132.166677 203.43899 
L 132.166677 190.89826 
L 129.3277 190.89826 
z
" style="fill:#1f77b4;"/>
   </g>
   <g id="patch_32">
    <path clip-path="url(#pf9dc85a610)" d="M 132.166677 203.43899 
L 135.005653 203.43899 
L 135.005653 178.35753 
L 132.166677 178.35753 
z
" style="fill:#1f77b4;"/>
   </g>
   <g id="patch_33">
    <path clip-path="url(#pf9dc85a610)" d="M 135.005653 203.43899 
L 137.84463 203.43899 
L 137.84463 190.89826 
L 135.005653 190.89826 
z
" style="fill:#1f77b4;"/>
   </g>
   <g id="patch_34">
    <path clip-path="url(#pf9dc85a610)" d="M 137.84463 203.43899 
L 140.683606 203.43899 
L 140.683606 186.718017 
L 137.84463 186.718017 
z
" style="fill:#1f77b4;"/>
   </g>
   <g id="patch_35">
    <path clip-path="url(#pf9dc85a610)" d="M 140.683606 203.43899 
L 143.522582 203.43899 
L 143.522582 174.177286 
L 140.683606 174.177286 
z
" style="fill:#1f77b4;"/>
   </g>
   <g id="patch_36">
    <path clip-path="url(#pf9dc85a610)" d="M 143.522582 203.43899 
L 146.361559 203.43899 
L 146.361559 174.177286 
L 143.522582 174.177286 
z
" style="fill:#1f77b4;"/>
   </g>
   <g id="patch_37">
    <path clip-path="url(#pf9dc85a610)" d="M 146.361559 203.43899 
L 149.200535 203.43899 
L 149.200535 144.915583 
L 146.361559 144.915583 
z
" style="fill:#1f77b4;"/>
   </g>
   <g id="patch_38">
    <path clip-path="url(#pf9dc85a610)" d="M 149.200535 203.43899 
L 152.039512 203.43899 
L 152.039512 132.374853 
L 149.200535 132.374853 
z
" style="fill:#1f77b4;"/>
   </g>
   <g id="patch_39">
    <path clip-path="url(#pf9dc85a610)" d="M 152.039512 203.43899 
L 154.878488 203.43899 
L 154.878488 144.915583 
L 152.039512 144.915583 
z
" style="fill:#1f77b4;"/>
   </g>
   <g id="patch_40">
    <path clip-path="url(#pf9dc85a610)" d="M 154.878488 203.43899 
L 157.717464 203.43899 
L 157.717464 140.735339 
L 154.878488 140.735339 
z
" style="fill:#1f77b4;"/>
   </g>
   <g id="patch_41">
    <path clip-path="url(#pf9dc85a610)" d="M 157.717464 203.43899 
L 160.556441 203.43899 
L 160.556441 136.555096 
L 157.717464 136.555096 
z
" style="fill:#1f77b4;"/>
   </g>
   <g id="patch_42">
    <path clip-path="url(#pf9dc85a610)" d="M 160.556441 203.43899 
L 163.395417 203.43899 
L 163.395417 132.374853 
L 160.556441 132.374853 
z
" style="fill:#1f77b4;"/>
   </g>
   <g id="patch_43">
    <path clip-path="url(#pf9dc85a610)" d="M 163.395417 203.43899 
L 166.234394 203.43899 
L 166.234394 136.555096 
L 163.395417 136.555096 
z
" style="fill:#1f77b4;"/>
   </g>
   <g id="patch_44">
    <path clip-path="url(#pf9dc85a610)" d="M 166.234394 203.43899 
L 169.07337 203.43899 
L 169.07337 98.932905 
L 166.234394 98.932905 
z
" style="fill:#1f77b4;"/>
   </g>
   <g id="patch_45">
    <path clip-path="url(#pf9dc85a610)" d="M 169.07337 203.43899 
L 171.912346 203.43899 
L 171.912346 140.735339 
L 169.07337 140.735339 
z
" style="fill:#1f77b4;"/>
   </g>
   <g id="patch_46">
    <path clip-path="url(#pf9dc85a610)" d="M 171.912346 203.43899 
L 174.751323 203.43899 
L 174.751323 115.653879 
L 171.912346 115.653879 
z
" style="fill:#1f77b4;"/>
   </g>
   <g id="patch_47">
    <path clip-path="url(#pf9dc85a610)" d="M 174.751323 203.43899 
L 177.590299 203.43899 
L 177.590299 115.653879 
L 174.751323 115.653879 
z
" style="fill:#1f77b4;"/>
   </g>
   <g id="patch_48">
    <path clip-path="url(#pf9dc85a610)" d="M 177.590299 203.43899 
L 180.429276 203.43899 
L 180.429276 140.735339 
L 177.590299 140.735339 
z
" style="fill:#1f77b4;"/>
   </g>
   <g id="patch_49">
    <path clip-path="url(#pf9dc85a610)" d="M 180.429276 203.43899 
L 183.268252 203.43899 
L 183.268252 136.555096 
L 180.429276 136.555096 
z
" style="fill:#1f77b4;"/>
   </g>
   <g id="patch_50">
    <path clip-path="url(#pf9dc85a610)" d="M 183.268252 203.43899 
L 186.107228 203.43899 
L 186.107228 111.473636 
L 183.268252 111.473636 
z
" style="fill:#1f77b4;"/>
   </g>
   <g id="patch_51">
    <path clip-path="url(#pf9dc85a610)" d="M 186.107228 203.43899 
L 188.946205 203.43899 
L 188.946205 103.113149 
L 186.107228 103.113149 
z
" style="fill:#1f77b4;"/>
   </g>
   <g id="patch_52">
    <path clip-path="url(#pf9dc85a610)" d="M 188.946205 203.43899 
L 191.785181 203.43899 
L 191.785181 140.735339 
L 188.946205 140.735339 
z
" style="fill:#1f77b4;"/>
   </g>
   <g id="patch_53">
    <path clip-path="url(#pf9dc85a610)" d="M 191.785181 203.43899 
L 194.624158 203.43899 
L 194.624158 82.211932 
L 191.785181 82.211932 
z
" style="fill:#1f77b4;"/>
   </g>
   <g id="patch_54">
    <path clip-path="url(#pf9dc85a610)" d="M 194.624158 203.43899 
L 197.463134 203.43899 
L 197.463134 124.014366 
L 194.624158 124.014366 
z
" style="fill:#1f77b4;"/>
   </g>
   <g id="patch_55">
    <path clip-path="url(#pf9dc85a610)" d="M 197.463134 203.43899 
L 200.30211 203.43899 
L 200.30211 115.653879 
L 197.463134 115.653879 
z
" style="fill:#1f77b4;"/>
   </g>
   <g id="patch_56">
    <path clip-path="url(#pf9dc85a610)" d="M 200.30211 203.43899 
L 203.141087 203.43899 
L 203.141087 119.834122 
L 200.30211 119.834122 
z
" style="fill:#1f77b4;"/>
   </g>
   <g id="patch_57">
    <path clip-path="url(#pf9dc85a610)" d="M 203.141087 203.43899 
L 205.980063 203.43899 
L 205.980063 115.653879 
L 203.141087 115.653879 
z
" style="fill:#1f77b4;"/>
   </g>
   <g id="patch_58">
    <path clip-path="url(#pf9dc85a610)" d="M 205.980063 203.43899 
L 208.81904 203.43899 
L 208.81904 140.735339 
L 205.980063 140.735339 
z
" style="fill:#1f77b4;"/>
   </g>
   <g id="patch_59">
    <path clip-path="url(#pf9dc85a610)" d="M 208.81904 203.43899 
L 211.658016 203.43899 
L 211.658016 157.456313 
L 208.81904 157.456313 
z
" style="fill:#1f77b4;"/>
   </g>
   <g id="patch_60">
    <path clip-path="url(#pf9dc85a610)" d="M 211.658016 203.43899 
L 214.496992 203.43899 
L 214.496992 140.735339 
L 211.658016 140.735339 
z
" style="fill:#1f77b4;"/>
   </g>
   <g id="patch_61">
    <path clip-path="url(#pf9dc85a610)" d="M 214.496992 203.43899 
L 217.335969 203.43899 
L 217.335969 161.636556 
L 214.496992 161.636556 
z
" style="fill:#1f77b4;"/>
   </g>
   <g id="patch_62">
    <path clip-path="url(#pf9dc85a610)" d="M 217.335969 203.43899 
L 220.174945 203.43899 
L 220.174945 169.997043 
L 217.335969 169.997043 
z
" style="fill:#1f77b4;"/>
   </g>
   <g id="patch_63">
    <path clip-path="url(#pf9dc85a610)" d="M 220.174945 203.43899 
L 223.013921 203.43899 
L 223.013921 174.177286 
L 220.174945 174.177286 
z
" style="fill:#1f77b4;"/>
   </g>
   <g id="patch_64">
    <path clip-path="url(#pf9dc85a610)" d="M 223.013921 203.43899 
L 225.852898 203.43899 
L 225.852898 178.35753 
L 223.013921 178.35753 
z
" style="fill:#1f77b4;"/>
   </g>
   <g id="patch_65">
    <path clip-path="url(#pf9dc85a610)" d="M 225.852898 203.43899 
L 228.691874 203.43899 
L 228.691874 161.636556 
L 225.852898 161.636556 
z
" style="fill:#1f77b4;"/>
   </g>
   <g id="patch_66">
    <path clip-path="url(#pf9dc85a610)" d="M 228.691874 203.43899 
L 231.530851 203.43899 
L 231.530851 182.537773 
L 228.691874 182.537773 
z
" style="fill:#1f77b4;"/>
   </g>
   <g id="patch_67">
    <path clip-path="url(#pf9dc85a610)" d="M 231.530851 203.43899 
L 234.369827 203.43899 
L 234.369827 169.997043 
L 231.530851 169.997043 
z
" style="fill:#1f77b4;"/>
   </g>
   <g id="patch_68">
    <path clip-path="url(#pf9dc85a610)" d="M 234.369827 203.43899 
L 237.208803 203.43899 
L 237.208803 190.89826 
L 234.369827 190.89826 
z
" style="fill:#1f77b4;"/>
   </g>
   <g id="patch_69">
    <path clip-path="url(#pf9dc85a610)" d="M 304.301407 203.43899 
L 307.140383 203.43899 
L 307.140383 169.997043 
L 304.301407 169.997043 
z
" style="fill:#ff0000;"/>
   </g>
   <g id="patch_70">
    <path clip-path="url(#pf9dc85a610)" d="M 307.140383 203.43899 
L 309.979359 203.43899 
L 309.979359 136.555096 
L 307.140383 136.555096 
z
" style="fill:#ff0000;"/>
   </g>
   <g id="patch_71">
    <path clip-path="url(#pf9dc85a610)" d="M 309.979359 203.43899 
L 312.818336 203.43899 
L 312.818336 161.636556 
L 309.979359 161.636556 
z
" style="fill:#ff0000;"/>
   </g>
   <g id="patch_72">
    <path clip-path="url(#pf9dc85a610)" d="M 312.818336 203.43899 
L 315.657312 203.43899 
L 315.657312 195.078503 
L 312.818336 195.078503 
z
" style="fill:#ff0000;"/>
   </g>
   <g id="patch_73">
    <path clip-path="url(#pf9dc85a610)" d="M 315.657312 203.43899 
L 318.496289 203.43899 
L 318.496289 199.258747 
L 315.657312 199.258747 
z
" style="fill:#ff0000;"/>
   </g>
   <g id="patch_74">
    <path clip-path="url(#pf9dc85a610)" d="M 237.632765 203.43899 
L 240.471742 203.43899 
L 240.471742 182.537773 
L 237.632765 182.537773 
z
" style="fill:#ffa500;"/>
   </g>
   <g id="patch_75">
    <path clip-path="url(#pf9dc85a610)" d="M 240.471742 203.43899 
L 243.310718 203.43899 
L 243.310718 182.537773 
L 240.471742 182.537773 
z
" style="fill:#ffa500;"/>
   </g>
   <g id="patch_76">
    <path clip-path="url(#pf9dc85a610)" d="M 243.310718 203.43899 
L 246.149694 203.43899 
L 246.149694 182.537773 
L 243.310718 182.537773 
z
" style="fill:#ffa500;"/>
   </g>
   <g id="patch_77">
    <path clip-path="url(#pf9dc85a610)" d="M 246.149694 203.43899 
L 248.988671 203.43899 
L 248.988671 182.537773 
L 246.149694 182.537773 
z
" style="fill:#ffa500;"/>
   </g>
   <g id="patch_78">
    <path clip-path="url(#pf9dc85a610)" d="M 248.988671 203.43899 
L 251.827647 203.43899 
L 251.827647 203.43899 
L 248.988671 203.43899 
z
" style="fill:#ffa500;"/>
   </g>
   <g id="patch_79">
    <path clip-path="url(#pf9dc85a610)" d="M 251.827647 203.43899 
L 254.666624 203.43899 
L 254.666624 195.078503 
L 251.827647 195.078503 
z
" style="fill:#ffa500;"/>
   </g>
   <g id="patch_80">
    <path clip-path="url(#pf9dc85a610)" d="M 254.666624 203.43899 
L 257.5056 203.43899 
L 257.5056 199.258747 
L 254.666624 199.258747 
z
" style="fill:#ffa500;"/>
   </g>
   <g id="patch_81">
    <path clip-path="url(#pf9dc85a610)" d="M 257.5056 203.43899 
L 260.344576 203.43899 
L 260.344576 199.258747 
L 257.5056 199.258747 
z
" style="fill:#ffa500;"/>
   </g>
   <g id="patch_82">
    <path clip-path="url(#pf9dc85a610)" d="M 260.344576 203.43899 
L 263.183553 203.43899 
L 263.183553 195.078503 
L 260.344576 195.078503 
z
" style="fill:#ffa500;"/>
   </g>
   <g id="patch_83">
    <path clip-path="url(#pf9dc85a610)" d="M 263.183553 203.43899 
L 266.022529 203.43899 
L 266.022529 199.258747 
L 263.183553 199.258747 
z
" style="fill:#ffa500;"/>
   </g>
   <g id="patch_84">
    <path clip-path="url(#pf9dc85a610)" d="M 266.022529 203.43899 
L 268.861506 203.43899 
L 268.861506 203.43899 
L 266.022529 203.43899 
z
" style="fill:#ffa500;"/>
   </g>
   <g id="patch_85">
    <path clip-path="url(#pf9dc85a610)" d="M 268.861506 203.43899 
L 271.700482 203.43899 
L 271.700482 203.43899 
L 268.861506 203.43899 
z
" style="fill:#ffa500;"/>
   </g>
   <g id="patch_86">
    <path clip-path="url(#pf9dc85a610)" d="M 271.700482 203.43899 
L 274.539458 203.43899 
L 274.539458 199.258747 
L 271.700482 199.258747 
z
" style="fill:#ffa500;"/>
   </g>
   <g id="patch_87">
    <path clip-path="url(#pf9dc85a610)" d="M 274.539458 203.43899 
L 277.378435 203.43899 
L 277.378435 203.43899 
L 274.539458 203.43899 
z
" style="fill:#ffa500;"/>
   </g>
   <g id="patch_88">
    <path clip-path="url(#pf9dc85a610)" d="M 277.378435 203.43899 
L 280.217411 203.43899 
L 280.217411 203.43899 
L 277.378435 203.43899 
z
" style="fill:#ffa500;"/>
   </g>
   <g id="patch_89">
    <path clip-path="url(#pf9dc85a610)" d="M 280.217411 203.43899 
L 283.056388 203.43899 
L 283.056388 203.43899 
L 280.217411 203.43899 
z
" style="fill:#ffa500;"/>
   </g>
   <g id="patch_90">
    <path clip-path="url(#pf9dc85a610)" d="M 283.056388 203.43899 
L 285.895364 203.43899 
L 285.895364 203.43899 
L 283.056388 203.43899 
z
" style="fill:#ffa500;"/>
   </g>
   <g id="patch_91">
    <path clip-path="url(#pf9dc85a610)" d="M 285.895364 203.43899 
L 288.73434 203.43899 
L 288.73434 199.258747 
L 285.895364 199.258747 
z
" style="fill:#ffa500;"/>
   </g>
   <g id="patch_92">
    <path clip-path="url(#pf9dc85a610)" d="M 288.73434 203.43899 
L 291.573317 203.43899 
L 291.573317 199.258747 
L 288.73434 199.258747 
z
" style="fill:#ffa500;"/>
   </g>
   <g id="patch_93">
    <path clip-path="url(#pf9dc85a610)" d="M 291.573317 203.43899 
L 294.412293 203.43899 
L 294.412293 203.43899 
L 291.573317 203.43899 
z
" style="fill:#ffa500;"/>
   </g>
   <g id="patch_94">
    <path clip-path="url(#pf9dc85a610)" d="M 294.412293 203.43899 
L 297.25127 203.43899 
L 297.25127 190.89826 
L 294.412293 190.89826 
z
" style="fill:#ffa500;"/>
   </g>
   <g id="patch_95">
    <path clip-path="url(#pf9dc85a610)" d="M 297.25127 203.43899 
L 300.090246 203.43899 
L 300.090246 199.258747 
L 297.25127 199.258747 
z
" style="fill:#ffa500;"/>
   </g>
   <g id="patch_96">
    <path clip-path="url(#pf9dc85a610)" d="M 300.090246 203.43899 
L 302.929222 203.43899 
L 302.929222 195.078503 
L 300.090246 195.078503 
z
" style="fill:#ffa500;"/>
   </g>
   <g id="matplotlib.axis_1">
    <g id="xtick_1">
     <g id="line2d_1">
      <defs>
       <path d="M 0 0 
L 0 3.5 
" id="m730bce6441" style="stroke:#000000;stroke-width:0.8;"/>
      </defs>
      <g>
       <use style="stroke:#000000;stroke-width:0.8;" x="49.836361" xlink:href="#m730bce6441" y="203.43899"/>
      </g>
     </g>
     <g id="text_1">
      <!-- 0 -->
      <defs>
       <path d="M 31.78125 66.40625 
Q 24.171875 66.40625 20.328125 58.90625 
Q 16.5 51.421875 16.5 36.375 
Q 16.5 21.390625 20.328125 13.890625 
Q 24.171875 6.390625 31.78125 6.390625 
Q 39.453125 6.390625 43.28125 13.890625 
Q 47.125 21.390625 47.125 36.375 
Q 47.125 51.421875 43.28125 58.90625 
Q 39.453125 66.40625 31.78125 66.40625 
z
M 31.78125 74.21875 
Q 44.046875 74.21875 50.515625 64.515625 
Q 56.984375 54.828125 56.984375 36.375 
Q 56.984375 17.96875 50.515625 8.265625 
Q 44.046875 -1.421875 31.78125 -1.421875 
Q 19.53125 -1.421875 13.0625 8.265625 
Q 6.59375 17.96875 6.59375 36.375 
Q 6.59375 54.828125 13.0625 64.515625 
Q 19.53125 74.21875 31.78125 74.21875 
z
" id="DejaVuSans-48"/>
      </defs>
      <g transform="translate(46.655111 218.037428)scale(0.1 -0.1)">
       <use xlink:href="#DejaVuSans-48"/>
      </g>
     </g>
    </g>
    <g id="xtick_2">
     <g id="line2d_2">
      <g>
       <use style="stroke:#000000;stroke-width:0.8;" x="106.615889" xlink:href="#m730bce6441" y="203.43899"/>
      </g>
     </g>
     <g id="text_2">
      <!-- 1 -->
      <defs>
       <path d="M 12.40625 8.296875 
L 28.515625 8.296875 
L 28.515625 63.921875 
L 10.984375 60.40625 
L 10.984375 69.390625 
L 28.421875 72.90625 
L 38.28125 72.90625 
L 38.28125 8.296875 
L 54.390625 8.296875 
L 54.390625 0 
L 12.40625 0 
z
" id="DejaVuSans-49"/>
      </defs>
      <g transform="translate(103.434639 218.037428)scale(0.1 -0.1)">
       <use xlink:href="#DejaVuSans-49"/>
      </g>
     </g>
    </g>
    <g id="xtick_3">
     <g id="line2d_3">
      <g>
       <use style="stroke:#000000;stroke-width:0.8;" x="163.395417" xlink:href="#m730bce6441" y="203.43899"/>
      </g>
     </g>
     <g id="text_3">
      <!-- 2 -->
      <defs>
       <path d="M 19.1875 8.296875 
L 53.609375 8.296875 
L 53.609375 0 
L 7.328125 0 
L 7.328125 8.296875 
Q 12.9375 14.109375 22.625 23.890625 
Q 32.328125 33.6875 34.8125 36.53125 
Q 39.546875 41.84375 41.421875 45.53125 
Q 43.3125 49.21875 43.3125 52.78125 
Q 43.3125 58.59375 39.234375 62.25 
Q 35.15625 65.921875 28.609375 65.921875 
Q 23.96875 65.921875 18.8125 64.3125 
Q 13.671875 62.703125 7.8125 59.421875 
L 7.8125 69.390625 
Q 13.765625 71.78125 18.9375 73 
Q 24.125 74.21875 28.421875 74.21875 
Q 39.75 74.21875 46.484375 68.546875 
Q 53.21875 62.890625 53.21875 53.421875 
Q 53.21875 48.921875 51.53125 44.890625 
Q 49.859375 40.875 45.40625 35.40625 
Q 44.1875 33.984375 37.640625 27.21875 
Q 31.109375 20.453125 19.1875 8.296875 
z
" id="DejaVuSans-50"/>
      </defs>
      <g transform="translate(160.214167 218.037428)scale(0.1 -0.1)">
       <use xlink:href="#DejaVuSans-50"/>
      </g>
     </g>
    </g>
    <g id="xtick_4">
     <g id="line2d_4">
      <g>
       <use style="stroke:#000000;stroke-width:0.8;" x="220.174945" xlink:href="#m730bce6441" y="203.43899"/>
      </g>
     </g>
     <g id="text_4">
      <!-- 3 -->
      <defs>
       <path d="M 40.578125 39.3125 
Q 47.65625 37.796875 51.625 33 
Q 55.609375 28.21875 55.609375 21.1875 
Q 55.609375 10.40625 48.1875 4.484375 
Q 40.765625 -1.421875 27.09375 -1.421875 
Q 22.515625 -1.421875 17.65625 -0.515625 
Q 12.796875 0.390625 7.625 2.203125 
L 7.625 11.71875 
Q 11.71875 9.328125 16.59375 8.109375 
Q 21.484375 6.890625 26.8125 6.890625 
Q 36.078125 6.890625 40.9375 10.546875 
Q 45.796875 14.203125 45.796875 21.1875 
Q 45.796875 27.640625 41.28125 31.265625 
Q 36.765625 34.90625 28.71875 34.90625 
L 20.21875 34.90625 
L 20.21875 43.015625 
L 29.109375 43.015625 
Q 36.375 43.015625 40.234375 45.921875 
Q 44.09375 48.828125 44.09375 54.296875 
Q 44.09375 59.90625 40.109375 62.90625 
Q 36.140625 65.921875 28.71875 65.921875 
Q 24.65625 65.921875 20.015625 65.03125 
Q 15.375 64.15625 9.8125 62.3125 
L 9.8125 71.09375 
Q 15.4375 72.65625 20.34375 73.4375 
Q 25.25 74.21875 29.59375 74.21875 
Q 40.828125 74.21875 47.359375 69.109375 
Q 53.90625 64.015625 53.90625 55.328125 
Q 53.90625 49.265625 50.4375 45.09375 
Q 46.96875 40.921875 40.578125 39.3125 
z
" id="DejaVuSans-51"/>
      </defs>
      <g transform="translate(216.993695 218.037428)scale(0.1 -0.1)">
       <use xlink:href="#DejaVuSans-51"/>
      </g>
     </g>
    </g>
    <g id="xtick_5">
     <g id="line2d_5">
      <g>
       <use style="stroke:#000000;stroke-width:0.8;" x="276.954473" xlink:href="#m730bce6441" y="203.43899"/>
      </g>
     </g>
     <g id="text_5">
      <!-- 4 -->
      <defs>
       <path d="M 37.796875 64.3125 
L 12.890625 25.390625 
L 37.796875 25.390625 
z
M 35.203125 72.90625 
L 47.609375 72.90625 
L 47.609375 25.390625 
L 58.015625 25.390625 
L 58.015625 17.1875 
L 47.609375 17.1875 
L 47.609375 0 
L 37.796875 0 
L 37.796875 17.1875 
L 4.890625 17.1875 
L 4.890625 26.703125 
z
" id="DejaVuSans-52"/>
      </defs>
      <g transform="translate(273.773223 218.037428)scale(0.1 -0.1)">
       <use xlink:href="#DejaVuSans-52"/>
      </g>
     </g>
    </g>
    <g id="text_6">
     <!-- log(RFU) -->
     <defs>
      <path d="M 9.421875 75.984375 
L 18.40625 75.984375 
L 18.40625 0 
L 9.421875 0 
z
" id="DejaVuSans-108"/>
      <path d="M 30.609375 48.390625 
Q 23.390625 48.390625 19.1875 42.75 
Q 14.984375 37.109375 14.984375 27.296875 
Q 14.984375 17.484375 19.15625 11.84375 
Q 23.34375 6.203125 30.609375 6.203125 
Q 37.796875 6.203125 41.984375 11.859375 
Q 46.1875 17.53125 46.1875 27.296875 
Q 46.1875 37.015625 41.984375 42.703125 
Q 37.796875 48.390625 30.609375 48.390625 
z
M 30.609375 56 
Q 42.328125 56 49.015625 48.375 
Q 55.71875 40.765625 55.71875 27.296875 
Q 55.71875 13.875 49.015625 6.21875 
Q 42.328125 -1.421875 30.609375 -1.421875 
Q 18.84375 -1.421875 12.171875 6.21875 
Q 5.515625 13.875 5.515625 27.296875 
Q 5.515625 40.765625 12.171875 48.375 
Q 18.84375 56 30.609375 56 
z
" id="DejaVuSans-111"/>
      <path d="M 45.40625 27.984375 
Q 45.40625 37.75 41.375 43.109375 
Q 37.359375 48.484375 30.078125 48.484375 
Q 22.859375 48.484375 18.828125 43.109375 
Q 14.796875 37.75 14.796875 27.984375 
Q 14.796875 18.265625 18.828125 12.890625 
Q 22.859375 7.515625 30.078125 7.515625 
Q 37.359375 7.515625 41.375 12.890625 
Q 45.40625 18.265625 45.40625 27.984375 
z
M 54.390625 6.78125 
Q 54.390625 -7.171875 48.1875 -13.984375 
Q 42 -20.796875 29.203125 -20.796875 
Q 24.46875 -20.796875 20.265625 -20.09375 
Q 16.0625 -19.390625 12.109375 -17.921875 
L 12.109375 -9.1875 
Q 16.0625 -11.328125 19.921875 -12.34375 
Q 23.78125 -13.375 27.78125 -13.375 
Q 36.625 -13.375 41.015625 -8.765625 
Q 45.40625 -4.15625 45.40625 5.171875 
L 45.40625 9.625 
Q 42.625 4.78125 38.28125 2.390625 
Q 33.9375 0 27.875 0 
Q 17.828125 0 11.671875 7.65625 
Q 5.515625 15.328125 5.515625 27.984375 
Q 5.515625 40.671875 11.671875 48.328125 
Q 17.828125 56 27.875 56 
Q 33.9375 56 38.28125 53.609375 
Q 42.625 51.21875 45.40625 46.390625 
L 45.40625 54.6875 
L 54.390625 54.6875 
z
" id="DejaVuSans-103"/>
      <path d="M 31 75.875 
Q 24.46875 64.65625 21.28125 53.65625 
Q 18.109375 42.671875 18.109375 31.390625 
Q 18.109375 20.125 21.3125 9.0625 
Q 24.515625 -2 31 -13.1875 
L 23.1875 -13.1875 
Q 15.875 -1.703125 12.234375 9.375 
Q 8.59375 20.453125 8.59375 31.390625 
Q 8.59375 42.28125 12.203125 53.3125 
Q 15.828125 64.359375 23.1875 75.875 
z
" id="DejaVuSans-40"/>
      <path d="M 44.390625 34.1875 
Q 47.5625 33.109375 50.5625 29.59375 
Q 53.5625 26.078125 56.59375 19.921875 
L 66.609375 0 
L 56 0 
L 46.6875 18.703125 
Q 43.0625 26.03125 39.671875 28.421875 
Q 36.28125 30.8125 30.421875 30.8125 
L 19.671875 30.8125 
L 19.671875 0 
L 9.8125 0 
L 9.8125 72.90625 
L 32.078125 72.90625 
Q 44.578125 72.90625 50.734375 67.671875 
Q 56.890625 62.453125 56.890625 51.90625 
Q 56.890625 45.015625 53.6875 40.46875 
Q 50.484375 35.9375 44.390625 34.1875 
z
M 19.671875 64.796875 
L 19.671875 38.921875 
L 32.078125 38.921875 
Q 39.203125 38.921875 42.84375 42.21875 
Q 46.484375 45.515625 46.484375 51.90625 
Q 46.484375 58.296875 42.84375 61.546875 
Q 39.203125 64.796875 32.078125 64.796875 
z
" id="DejaVuSans-82"/>
      <path d="M 9.8125 72.90625 
L 51.703125 72.90625 
L 51.703125 64.59375 
L 19.671875 64.59375 
L 19.671875 43.109375 
L 48.578125 43.109375 
L 48.578125 34.8125 
L 19.671875 34.8125 
L 19.671875 0 
L 9.8125 0 
z
" id="DejaVuSans-70"/>
      <path d="M 8.6875 72.90625 
L 18.609375 72.90625 
L 18.609375 28.609375 
Q 18.609375 16.890625 22.84375 11.734375 
Q 27.09375 6.59375 36.625 6.59375 
Q 46.09375 6.59375 50.34375 11.734375 
Q 54.59375 16.890625 54.59375 28.609375 
L 54.59375 72.90625 
L 64.5 72.90625 
L 64.5 27.390625 
Q 64.5 13.140625 57.4375 5.859375 
Q 50.390625 -1.421875 36.625 -1.421875 
Q 22.796875 -1.421875 15.734375 5.859375 
Q 8.6875 13.140625 8.6875 27.390625 
z
" id="DejaVuSans-85"/>
      <path d="M 8.015625 75.875 
L 15.828125 75.875 
Q 23.140625 64.359375 26.78125 53.3125 
Q 30.421875 42.28125 30.421875 31.390625 
Q 30.421875 20.453125 26.78125 9.375 
Q 23.140625 -1.703125 15.828125 -13.1875 
L 8.015625 -13.1875 
Q 14.5 -2 17.703125 9.0625 
Q 20.90625 20.125 20.90625 31.390625 
Q 20.90625 42.671875 17.703125 53.65625 
Q 14.5 64.65625 8.015625 75.875 
z
" id="DejaVuSans-41"/>
     </defs>
     <g transform="translate(162.632731 231.715553)scale(0.1 -0.1)">
      <use xlink:href="#DejaVuSans-108"/>
      <use x="27.783203" xlink:href="#DejaVuSans-111"/>
      <use x="88.964844" xlink:href="#DejaVuSans-103"/>
      <use x="152.441406" xlink:href="#DejaVuSans-40"/>
      <use x="191.455078" xlink:href="#DejaVuSans-82"/>
      <use x="260.9375" xlink:href="#DejaVuSans-70"/>
      <use x="318.457031" xlink:href="#DejaVuSans-85"/>
      <use x="391.650391" xlink:href="#DejaVuSans-41"/>
     </g>
    </g>
   </g>
   <g id="matplotlib.axis_2">
    <g id="ytick_1">
     <g id="line2d_6">
      <defs>
       <path d="M 0 0 
L -3.5 0 
" id="m3143155b32" style="stroke:#000000;stroke-width:0.8;"/>
      </defs>
      <g>
       <use style="stroke:#000000;stroke-width:0.8;" x="36.403365" xlink:href="#m3143155b32" y="203.43899"/>
      </g>
     </g>
     <g id="text_7">
      <!-- 0 -->
      <g transform="translate(23.040865 207.238209)scale(0.1 -0.1)">
       <use xlink:href="#DejaVuSans-48"/>
      </g>
     </g>
    </g>
    <g id="ytick_2">
     <g id="line2d_7">
      <g>
       <use style="stroke:#000000;stroke-width:0.8;" x="36.403365" xlink:href="#m3143155b32" y="161.636556"/>
      </g>
     </g>
     <g id="text_8">
      <!-- 10 -->
      <g transform="translate(16.678365 165.435775)scale(0.1 -0.1)">
       <use xlink:href="#DejaVuSans-49"/>
       <use x="63.623047" xlink:href="#DejaVuSans-48"/>
      </g>
     </g>
    </g>
    <g id="ytick_3">
     <g id="line2d_8">
      <g>
       <use style="stroke:#000000;stroke-width:0.8;" x="36.403365" xlink:href="#m3143155b32" y="119.834122"/>
      </g>
     </g>
     <g id="text_9">
      <!-- 20 -->
      <g transform="translate(16.678365 123.633341)scale(0.1 -0.1)">
       <use xlink:href="#DejaVuSans-50"/>
       <use x="63.623047" xlink:href="#DejaVuSans-48"/>
      </g>
     </g>
    </g>
    <g id="ytick_4">
     <g id="line2d_9">
      <g>
       <use style="stroke:#000000;stroke-width:0.8;" x="36.403365" xlink:href="#m3143155b32" y="78.031689"/>
      </g>
     </g>
     <g id="text_10">
      <!-- 30 -->
      <g transform="translate(16.678365 81.830907)scale(0.1 -0.1)">
       <use xlink:href="#DejaVuSans-51"/>
       <use x="63.623047" xlink:href="#DejaVuSans-48"/>
      </g>
     </g>
    </g>
    <g id="text_11">
     <!-- Counts -->
     <defs>
      <path d="M 64.40625 67.28125 
L 64.40625 56.890625 
Q 59.421875 61.53125 53.78125 63.8125 
Q 48.140625 66.109375 41.796875 66.109375 
Q 29.296875 66.109375 22.65625 58.46875 
Q 16.015625 50.828125 16.015625 36.375 
Q 16.015625 21.96875 22.65625 14.328125 
Q 29.296875 6.6875 41.796875 6.6875 
Q 48.140625 6.6875 53.78125 8.984375 
Q 59.421875 11.28125 64.40625 15.921875 
L 64.40625 5.609375 
Q 59.234375 2.09375 53.4375 0.328125 
Q 47.65625 -1.421875 41.21875 -1.421875 
Q 24.65625 -1.421875 15.125 8.703125 
Q 5.609375 18.84375 5.609375 36.375 
Q 5.609375 53.953125 15.125 64.078125 
Q 24.65625 74.21875 41.21875 74.21875 
Q 47.75 74.21875 53.53125 72.484375 
Q 59.328125 70.75 64.40625 67.28125 
z
" id="DejaVuSans-67"/>
      <path d="M 8.5 21.578125 
L 8.5 54.6875 
L 17.484375 54.6875 
L 17.484375 21.921875 
Q 17.484375 14.15625 20.5 10.265625 
Q 23.53125 6.390625 29.59375 6.390625 
Q 36.859375 6.390625 41.078125 11.03125 
Q 45.3125 15.671875 45.3125 23.6875 
L 45.3125 54.6875 
L 54.296875 54.6875 
L 54.296875 0 
L 45.3125 0 
L 45.3125 8.40625 
Q 42.046875 3.421875 37.71875 1 
Q 33.40625 -1.421875 27.6875 -1.421875 
Q 18.265625 -1.421875 13.375 4.4375 
Q 8.5 10.296875 8.5 21.578125 
z
M 31.109375 56 
z
" id="DejaVuSans-117"/>
      <path d="M 54.890625 33.015625 
L 54.890625 0 
L 45.90625 0 
L 45.90625 32.71875 
Q 45.90625 40.484375 42.875 44.328125 
Q 39.84375 48.1875 33.796875 48.1875 
Q 26.515625 48.1875 22.3125 43.546875 
Q 18.109375 38.921875 18.109375 30.90625 
L 18.109375 0 
L 9.078125 0 
L 9.078125 54.6875 
L 18.109375 54.6875 
L 18.109375 46.1875 
Q 21.34375 51.125 25.703125 53.5625 
Q 30.078125 56 35.796875 56 
Q 45.21875 56 50.046875 50.171875 
Q 54.890625 44.34375 54.890625 33.015625 
z
" id="DejaVuSans-110"/>
      <path d="M 18.3125 70.21875 
L 18.3125 54.6875 
L 36.8125 54.6875 
L 36.8125 47.703125 
L 18.3125 47.703125 
L 18.3125 18.015625 
Q 18.3125 11.328125 20.140625 9.421875 
Q 21.96875 7.515625 27.59375 7.515625 
L 36.8125 7.515625 
L 36.8125 0 
L 27.59375 0 
Q 17.1875 0 13.234375 3.875 
Q 9.28125 7.765625 9.28125 18.015625 
L 9.28125 47.703125 
L 2.6875 47.703125 
L 2.6875 54.6875 
L 9.28125 54.6875 
L 9.28125 70.21875 
z
" id="DejaVuSans-116"/>
      <path d="M 44.28125 53.078125 
L 44.28125 44.578125 
Q 40.484375 46.53125 36.375 47.5 
Q 32.28125 48.484375 27.875 48.484375 
Q 21.1875 48.484375 17.84375 46.4375 
Q 14.5 44.390625 14.5 40.28125 
Q 14.5 37.15625 16.890625 35.375 
Q 19.28125 33.59375 26.515625 31.984375 
L 29.59375 31.296875 
Q 39.15625 29.25 43.1875 25.515625 
Q 47.21875 21.78125 47.21875 15.09375 
Q 47.21875 7.46875 41.1875 3.015625 
Q 35.15625 -1.421875 24.609375 -1.421875 
Q 20.21875 -1.421875 15.453125 -0.5625 
Q 10.6875 0.296875 5.421875 2 
L 5.421875 11.28125 
Q 10.40625 8.6875 15.234375 7.390625 
Q 20.0625 6.109375 24.8125 6.109375 
Q 31.15625 6.109375 34.5625 8.28125 
Q 37.984375 10.453125 37.984375 14.40625 
Q 37.984375 18.0625 35.515625 20.015625 
Q 33.0625 21.96875 24.703125 23.78125 
L 21.578125 24.515625 
Q 13.234375 26.265625 9.515625 29.90625 
Q 5.8125 33.546875 5.8125 39.890625 
Q 5.8125 47.609375 11.28125 51.796875 
Q 16.75 56 26.8125 56 
Q 31.78125 56 36.171875 55.265625 
Q 40.578125 54.546875 44.28125 53.078125 
z
" id="DejaVuSans-115"/>
     </defs>
     <g transform="translate(10.598677 157.24791)rotate(-90)scale(0.1 -0.1)">
      <use xlink:href="#DejaVuSans-67"/>
      <use x="69.824219" xlink:href="#DejaVuSans-111"/>
      <use x="131.005859" xlink:href="#DejaVuSans-117"/>
      <use x="194.384766" xlink:href="#DejaVuSans-110"/>
      <use x="257.763672" xlink:href="#DejaVuSans-116"/>
      <use x="296.972656" xlink:href="#DejaVuSans-115"/>
     </g>
    </g>
   </g>
   <g id="patch_97">
    <path d="M 36.403365 203.43899 
L 36.403365 76.150579 
" style="fill:none;stroke:#000000;stroke-linecap:square;stroke-linejoin:miter;stroke-width:0.8;"/>
   </g>
   <g id="patch_98">
    <path d="M 331.929285 203.43899 
L 331.929285 76.150579 
" style="fill:none;stroke:#000000;stroke-linecap:square;stroke-linejoin:miter;stroke-width:0.8;"/>
   </g>
   <g id="patch_99">
    <path d="M 36.403365 203.43899 
L 331.929285 203.43899 
" style="fill:none;stroke:#000000;stroke-linecap:square;stroke-linejoin:miter;stroke-width:0.8;"/>
   </g>
   <g id="patch_100">
    <path d="M 36.403365 76.150579 
L 331.929285 76.150579 
" style="fill:none;stroke:#000000;stroke-linecap:square;stroke-linejoin:miter;stroke-width:0.8;"/>
   </g>
  </g>
  <g id="axes_2">
   <g id="patch_101">
    <path d="M 36.403365 439.907885 
L 230.652485 439.907885 
L 230.652485 243.315345 
L 36.403365 243.315345 
z
" style="fill:#ffffff;"/>
   </g>
   <g id="patch_102">
    <path clip-path="url(#p0706e92e4d)" d="M 46.186856 430.97186 
L 45.23287 430.97186 
L 45.23287 379.908863 
L 46.186856 379.908863 
z
" style="fill:#1f77b4;"/>
   </g>
   <g id="patch_103">
    <path clip-path="url(#p0706e92e4d)" d="M 46.186856 367.143114 
L 147.721316 367.143114 
L 147.721316 316.080116 
L 46.186856 316.080116 
z
" style="fill:#1f77b4;"/>
   </g>
   <g id="patch_104">
    <path clip-path="url(#p0706e92e4d)" d="M 46.186856 303.314367 
L 221.82298 303.314367 
L 221.82298 252.25137 
L 46.186856 252.25137 
z
" style="fill:#1f77b4;"/>
   </g>
   <g id="matplotlib.axis_3">
    <g id="xtick_6">
     <g id="line2d_10">
      <g>
       <use style="stroke:#000000;stroke-width:0.8;" x="46.186856" xlink:href="#m730bce6441" y="439.907885"/>
      </g>
     </g>
     <g id="text_12">
      <!-- 0 -->
      <g transform="translate(43.005606 454.506323)scale(0.1 -0.1)">
       <use xlink:href="#DejaVuSans-48"/>
      </g>
     </g>
    </g>
    <g id="xtick_7">
     <g id="line2d_11">
      <g>
       <use style="stroke:#000000;stroke-width:0.8;" x="84.69949" xlink:href="#m730bce6441" y="439.907885"/>
      </g>
     </g>
     <g id="text_13">
      <!-- 2 -->
      <g transform="translate(81.51824 454.506323)scale(0.1 -0.1)">
       <use xlink:href="#DejaVuSans-50"/>
      </g>
     </g>
    </g>
    <g id="xtick_8">
     <g id="line2d_12">
      <g>
       <use style="stroke:#000000;stroke-width:0.8;" x="123.212125" xlink:href="#m730bce6441" y="439.907885"/>
      </g>
     </g>
     <g id="text_14">
      <!-- 4 -->
      <g transform="translate(120.030875 454.506323)scale(0.1 -0.1)">
       <use xlink:href="#DejaVuSans-52"/>
      </g>
     </g>
    </g>
    <g id="xtick_9">
     <g id="line2d_13">
      <g>
       <use style="stroke:#000000;stroke-width:0.8;" x="161.72476" xlink:href="#m730bce6441" y="439.907885"/>
      </g>
     </g>
     <g id="text_15">
      <!-- 6 -->
      <defs>
       <path d="M 33.015625 40.375 
Q 26.375 40.375 22.484375 35.828125 
Q 18.609375 31.296875 18.609375 23.390625 
Q 18.609375 15.53125 22.484375 10.953125 
Q 26.375 6.390625 33.015625 6.390625 
Q 39.65625 6.390625 43.53125 10.953125 
Q 47.40625 15.53125 47.40625 23.390625 
Q 47.40625 31.296875 43.53125 35.828125 
Q 39.65625 40.375 33.015625 40.375 
z
M 52.59375 71.296875 
L 52.59375 62.3125 
Q 48.875 64.0625 45.09375 64.984375 
Q 41.3125 65.921875 37.59375 65.921875 
Q 27.828125 65.921875 22.671875 59.328125 
Q 17.53125 52.734375 16.796875 39.40625 
Q 19.671875 43.65625 24.015625 45.921875 
Q 28.375 48.1875 33.59375 48.1875 
Q 44.578125 48.1875 50.953125 41.515625 
Q 57.328125 34.859375 57.328125 23.390625 
Q 57.328125 12.15625 50.6875 5.359375 
Q 44.046875 -1.421875 33.015625 -1.421875 
Q 20.359375 -1.421875 13.671875 8.265625 
Q 6.984375 17.96875 6.984375 36.375 
Q 6.984375 53.65625 15.1875 63.9375 
Q 23.390625 74.21875 37.203125 74.21875 
Q 40.921875 74.21875 44.703125 73.484375 
Q 48.484375 72.75 52.59375 71.296875 
z
" id="DejaVuSans-54"/>
      </defs>
      <g transform="translate(158.54351 454.506323)scale(0.1 -0.1)">
       <use xlink:href="#DejaVuSans-54"/>
      </g>
     </g>
    </g>
    <g id="xtick_10">
     <g id="line2d_14">
      <g>
       <use style="stroke:#000000;stroke-width:0.8;" x="200.237394" xlink:href="#m730bce6441" y="439.907885"/>
      </g>
     </g>
     <g id="text_16">
      <!-- 8 -->
      <defs>
       <path d="M 31.78125 34.625 
Q 24.75 34.625 20.71875 30.859375 
Q 16.703125 27.09375 16.703125 20.515625 
Q 16.703125 13.921875 20.71875 10.15625 
Q 24.75 6.390625 31.78125 6.390625 
Q 38.8125 6.390625 42.859375 10.171875 
Q 46.921875 13.96875 46.921875 20.515625 
Q 46.921875 27.09375 42.890625 30.859375 
Q 38.875 34.625 31.78125 34.625 
z
M 21.921875 38.8125 
Q 15.578125 40.375 12.03125 44.71875 
Q 8.5 49.078125 8.5 55.328125 
Q 8.5 64.0625 14.71875 69.140625 
Q 20.953125 74.21875 31.78125 74.21875 
Q 42.671875 74.21875 48.875 69.140625 
Q 55.078125 64.0625 55.078125 55.328125 
Q 55.078125 49.078125 51.53125 44.71875 
Q 48 40.375 41.703125 38.8125 
Q 48.828125 37.15625 52.796875 32.3125 
Q 56.78125 27.484375 56.78125 20.515625 
Q 56.78125 9.90625 50.3125 4.234375 
Q 43.84375 -1.421875 31.78125 -1.421875 
Q 19.734375 -1.421875 13.25 4.234375 
Q 6.78125 9.90625 6.78125 20.515625 
Q 6.78125 27.484375 10.78125 32.3125 
Q 14.796875 37.15625 21.921875 38.8125 
z
M 18.3125 54.390625 
Q 18.3125 48.734375 21.84375 45.5625 
Q 25.390625 42.390625 31.78125 42.390625 
Q 38.140625 42.390625 41.71875 45.5625 
Q 45.3125 48.734375 45.3125 54.390625 
Q 45.3125 60.0625 41.71875 63.234375 
Q 38.140625 66.40625 31.78125 66.40625 
Q 25.390625 66.40625 21.84375 63.234375 
Q 18.3125 60.0625 18.3125 54.390625 
z
" id="DejaVuSans-56"/>
      </defs>
      <g transform="translate(197.056144 454.506323)scale(0.1 -0.1)">
       <use xlink:href="#DejaVuSans-56"/>
      </g>
     </g>
    </g>
    <g id="text_17">
     <!-- Model Coefficient -->
     <defs>
      <path d="M 9.8125 72.90625 
L 24.515625 72.90625 
L 43.109375 23.296875 
L 61.8125 72.90625 
L 76.515625 72.90625 
L 76.515625 0 
L 66.890625 0 
L 66.890625 64.015625 
L 48.09375 14.015625 
L 38.1875 14.015625 
L 19.390625 64.015625 
L 19.390625 0 
L 9.8125 0 
z
" id="DejaVuSans-77"/>
      <path d="M 45.40625 46.390625 
L 45.40625 75.984375 
L 54.390625 75.984375 
L 54.390625 0 
L 45.40625 0 
L 45.40625 8.203125 
Q 42.578125 3.328125 38.25 0.953125 
Q 33.9375 -1.421875 27.875 -1.421875 
Q 17.96875 -1.421875 11.734375 6.484375 
Q 5.515625 14.40625 5.515625 27.296875 
Q 5.515625 40.1875 11.734375 48.09375 
Q 17.96875 56 27.875 56 
Q 33.9375 56 38.25 53.625 
Q 42.578125 51.265625 45.40625 46.390625 
z
M 14.796875 27.296875 
Q 14.796875 17.390625 18.875 11.75 
Q 22.953125 6.109375 30.078125 6.109375 
Q 37.203125 6.109375 41.296875 11.75 
Q 45.40625 17.390625 45.40625 27.296875 
Q 45.40625 37.203125 41.296875 42.84375 
Q 37.203125 48.484375 30.078125 48.484375 
Q 22.953125 48.484375 18.875 42.84375 
Q 14.796875 37.203125 14.796875 27.296875 
z
" id="DejaVuSans-100"/>
      <path d="M 56.203125 29.59375 
L 56.203125 25.203125 
L 14.890625 25.203125 
Q 15.484375 15.921875 20.484375 11.0625 
Q 25.484375 6.203125 34.421875 6.203125 
Q 39.59375 6.203125 44.453125 7.46875 
Q 49.3125 8.734375 54.109375 11.28125 
L 54.109375 2.78125 
Q 49.265625 0.734375 44.1875 -0.34375 
Q 39.109375 -1.421875 33.890625 -1.421875 
Q 20.796875 -1.421875 13.15625 6.1875 
Q 5.515625 13.8125 5.515625 26.8125 
Q 5.515625 40.234375 12.765625 48.109375 
Q 20.015625 56 32.328125 56 
Q 43.359375 56 49.78125 48.890625 
Q 56.203125 41.796875 56.203125 29.59375 
z
M 47.21875 32.234375 
Q 47.125 39.59375 43.09375 43.984375 
Q 39.0625 48.390625 32.421875 48.390625 
Q 24.90625 48.390625 20.390625 44.140625 
Q 15.875 39.890625 15.1875 32.171875 
z
" id="DejaVuSans-101"/>
      <path id="DejaVuSans-32"/>
      <path d="M 37.109375 75.984375 
L 37.109375 68.5 
L 28.515625 68.5 
Q 23.6875 68.5 21.796875 66.546875 
Q 19.921875 64.59375 19.921875 59.515625 
L 19.921875 54.6875 
L 34.71875 54.6875 
L 34.71875 47.703125 
L 19.921875 47.703125 
L 19.921875 0 
L 10.890625 0 
L 10.890625 47.703125 
L 2.296875 47.703125 
L 2.296875 54.6875 
L 10.890625 54.6875 
L 10.890625 58.5 
Q 10.890625 67.625 15.140625 71.796875 
Q 19.390625 75.984375 28.609375 75.984375 
z
" id="DejaVuSans-102"/>
      <path d="M 9.421875 54.6875 
L 18.40625 54.6875 
L 18.40625 0 
L 9.421875 0 
z
M 9.421875 75.984375 
L 18.40625 75.984375 
L 18.40625 64.59375 
L 9.421875 64.59375 
z
" id="DejaVuSans-105"/>
      <path d="M 48.78125 52.59375 
L 48.78125 44.1875 
Q 44.96875 46.296875 41.140625 47.34375 
Q 37.3125 48.390625 33.40625 48.390625 
Q 24.65625 48.390625 19.8125 42.84375 
Q 14.984375 37.3125 14.984375 27.296875 
Q 14.984375 17.28125 19.8125 11.734375 
Q 24.65625 6.203125 33.40625 6.203125 
Q 37.3125 6.203125 41.140625 7.25 
Q 44.96875 8.296875 48.78125 10.40625 
L 48.78125 2.09375 
Q 45.015625 0.34375 40.984375 -0.53125 
Q 36.96875 -1.421875 32.421875 -1.421875 
Q 20.0625 -1.421875 12.78125 6.34375 
Q 5.515625 14.109375 5.515625 27.296875 
Q 5.515625 40.671875 12.859375 48.328125 
Q 20.21875 56 33.015625 56 
Q 37.15625 56 41.109375 55.140625 
Q 45.0625 54.296875 48.78125 52.59375 
z
" id="DejaVuSans-99"/>
     </defs>
     <g transform="translate(81.34855 469.704135)scale(0.12 -0.12)">
      <use xlink:href="#DejaVuSans-77"/>
      <use x="86.279297" xlink:href="#DejaVuSans-111"/>
      <use x="147.460938" xlink:href="#DejaVuSans-100"/>
      <use x="210.9375" xlink:href="#DejaVuSans-101"/>
      <use x="272.460938" xlink:href="#DejaVuSans-108"/>
      <use x="300.244141" xlink:href="#DejaVuSans-32"/>
      <use x="332.03125" xlink:href="#DejaVuSans-67"/>
      <use x="401.855469" xlink:href="#DejaVuSans-111"/>
      <use x="463.037109" xlink:href="#DejaVuSans-101"/>
      <use x="524.560547" xlink:href="#DejaVuSans-102"/>
      <use x="559.765625" xlink:href="#DejaVuSans-102"/>
      <use x="594.970703" xlink:href="#DejaVuSans-105"/>
      <use x="622.753906" xlink:href="#DejaVuSans-99"/>
      <use x="677.734375" xlink:href="#DejaVuSans-105"/>
      <use x="705.517578" xlink:href="#DejaVuSans-101"/>
      <use x="767.041016" xlink:href="#DejaVuSans-110"/>
      <use x="830.419922" xlink:href="#DejaVuSans-116"/>
     </g>
    </g>
   </g>
   <g id="matplotlib.axis_4">
    <g id="ytick_5"/>
    <g id="ytick_6"/>
    <g id="ytick_7"/>
    <g id="ytick_8"/>
    <g id="ytick_9"/>
    <g id="ytick_10"/>
    <g id="ytick_11"/>
    <g id="text_18">
     <!-- Motif -->
     <g transform="translate(22.90774 356.59099)rotate(-90)scale(0.12 -0.12)">
      <use xlink:href="#DejaVuSans-77"/>
      <use x="86.279297" xlink:href="#DejaVuSans-111"/>
      <use x="147.460938" xlink:href="#DejaVuSans-116"/>
      <use x="186.669922" xlink:href="#DejaVuSans-105"/>
      <use x="214.453125" xlink:href="#DejaVuSans-102"/>
     </g>
    </g>
   </g>
   <g id="patch_105">
    <path d="M 36.403365 439.907885 
L 36.403365 243.315345 
" style="fill:none;stroke:#000000;stroke-linecap:square;stroke-linejoin:miter;stroke-width:0.8;"/>
   </g>
   <g id="patch_106">
    <path d="M 230.652485 439.907885 
L 230.652485 243.315345 
" style="fill:none;stroke:#000000;stroke-linecap:square;stroke-linejoin:miter;stroke-width:0.8;"/>
   </g>
   <g id="patch_107">
    <path d="M 36.403365 439.907885 
L 230.652485 439.907885 
" style="fill:none;stroke:#000000;stroke-linecap:square;stroke-linejoin:miter;stroke-width:0.8;"/>
   </g>
   <g id="patch_108">
    <path d="M 36.403365 243.315345 
L 230.652485 243.315345 
" style="fill:none;stroke:#000000;stroke-linecap:square;stroke-linejoin:miter;stroke-width:0.8;"/>
   </g>
  </g>
  <g id="axes_3">
   <g id="patch_109">
    <path d="M 378.75064 439.907885 
L 572.99976 439.907885 
L 572.99976 243.315345 
L 378.75064 243.315345 
z
" style="fill:#ffffff;"/>
   </g>
   <g id="patch_110">
    <path clip-path="url(#p943071d09e)" d="M 378.75064 433.3548 
L 563.749802 433.3548 
L 563.749802 380.930123 
L 378.75064 380.930123 
z
" style="fill:#808080;"/>
   </g>
   <g id="patch_111">
    <path clip-path="url(#p943071d09e)" d="M 378.75064 367.823954 
L 432.303029 367.823954 
L 432.303029 315.399276 
L 378.75064 315.399276 
z
" style="fill:#808080;"/>
   </g>
   <g id="patch_112">
    <path clip-path="url(#p943071d09e)" d="M 378.75064 302.293107 
L 549.144605 302.293107 
L 549.144605 249.86843 
L 378.75064 249.86843 
z
" style="fill:#808080;"/>
   </g>
   <g id="matplotlib.axis_5">
    <g id="xtick_11">
     <g id="line2d_15">
      <g>
       <use style="stroke:#000000;stroke-width:0.8;" x="378.75064" xlink:href="#m730bce6441" y="439.907885"/>
      </g>
     </g>
     <g id="text_19">
      <!-- 0 -->
      <g transform="translate(375.56939 454.506323)scale(0.1 -0.1)">
       <use xlink:href="#DejaVuSans-48"/>
      </g>
     </g>
    </g>
    <g id="xtick_12">
     <g id="line2d_16">
      <g>
       <use style="stroke:#000000;stroke-width:0.8;" x="417.697832" xlink:href="#m730bce6441" y="439.907885"/>
      </g>
     </g>
     <g id="text_20">
      <!-- 1 -->
      <g transform="translate(414.516582 454.506323)scale(0.1 -0.1)">
       <use xlink:href="#DejaVuSans-49"/>
      </g>
     </g>
    </g>
    <g id="xtick_13">
     <g id="line2d_17">
      <g>
       <use style="stroke:#000000;stroke-width:0.8;" x="456.645024" xlink:href="#m730bce6441" y="439.907885"/>
      </g>
     </g>
     <g id="text_21">
      <!-- 2 -->
      <g transform="translate(453.463774 454.506323)scale(0.1 -0.1)">
       <use xlink:href="#DejaVuSans-50"/>
      </g>
     </g>
    </g>
    <g id="xtick_14">
     <g id="line2d_18">
      <g>
       <use style="stroke:#000000;stroke-width:0.8;" x="495.592216" xlink:href="#m730bce6441" y="439.907885"/>
      </g>
     </g>
     <g id="text_22">
      <!-- 3 -->
      <g transform="translate(492.410966 454.506323)scale(0.1 -0.1)">
       <use xlink:href="#DejaVuSans-51"/>
      </g>
     </g>
    </g>
    <g id="xtick_15">
     <g id="line2d_19">
      <g>
       <use style="stroke:#000000;stroke-width:0.8;" x="534.539408" xlink:href="#m730bce6441" y="439.907885"/>
      </g>
     </g>
     <g id="text_23">
      <!-- 4 -->
      <g transform="translate(531.358158 454.506323)scale(0.1 -0.1)">
       <use xlink:href="#DejaVuSans-52"/>
      </g>
     </g>
    </g>
    <g id="text_24">
     <!-- Variance Inflation Factor -->
     <defs>
      <path d="M 28.609375 0 
L 0.78125 72.90625 
L 11.078125 72.90625 
L 34.1875 11.53125 
L 57.328125 72.90625 
L 67.578125 72.90625 
L 39.796875 0 
z
" id="DejaVuSans-86"/>
      <path d="M 34.28125 27.484375 
Q 23.390625 27.484375 19.1875 25 
Q 14.984375 22.515625 14.984375 16.5 
Q 14.984375 11.71875 18.140625 8.90625 
Q 21.296875 6.109375 26.703125 6.109375 
Q 34.1875 6.109375 38.703125 11.40625 
Q 43.21875 16.703125 43.21875 25.484375 
L 43.21875 27.484375 
z
M 52.203125 31.203125 
L 52.203125 0 
L 43.21875 0 
L 43.21875 8.296875 
Q 40.140625 3.328125 35.546875 0.953125 
Q 30.953125 -1.421875 24.3125 -1.421875 
Q 15.921875 -1.421875 10.953125 3.296875 
Q 6 8.015625 6 15.921875 
Q 6 25.140625 12.171875 29.828125 
Q 18.359375 34.515625 30.609375 34.515625 
L 43.21875 34.515625 
L 43.21875 35.40625 
Q 43.21875 41.609375 39.140625 45 
Q 35.0625 48.390625 27.6875 48.390625 
Q 23 48.390625 18.546875 47.265625 
Q 14.109375 46.140625 10.015625 43.890625 
L 10.015625 52.203125 
Q 14.9375 54.109375 19.578125 55.046875 
Q 24.21875 56 28.609375 56 
Q 40.484375 56 46.34375 49.84375 
Q 52.203125 43.703125 52.203125 31.203125 
z
" id="DejaVuSans-97"/>
      <path d="M 41.109375 46.296875 
Q 39.59375 47.171875 37.8125 47.578125 
Q 36.03125 48 33.890625 48 
Q 26.265625 48 22.1875 43.046875 
Q 18.109375 38.09375 18.109375 28.8125 
L 18.109375 0 
L 9.078125 0 
L 9.078125 54.6875 
L 18.109375 54.6875 
L 18.109375 46.1875 
Q 20.953125 51.171875 25.484375 53.578125 
Q 30.03125 56 36.53125 56 
Q 37.453125 56 38.578125 55.875 
Q 39.703125 55.765625 41.0625 55.515625 
z
" id="DejaVuSans-114"/>
      <path d="M 9.8125 72.90625 
L 19.671875 72.90625 
L 19.671875 0 
L 9.8125 0 
z
" id="DejaVuSans-73"/>
     </defs>
     <g transform="translate(402.253325 469.704135)scale(0.12 -0.12)">
      <use xlink:href="#DejaVuSans-86"/>
      <use x="68.298828" xlink:href="#DejaVuSans-97"/>
      <use x="129.578125" xlink:href="#DejaVuSans-114"/>
      <use x="170.691406" xlink:href="#DejaVuSans-105"/>
      <use x="198.474609" xlink:href="#DejaVuSans-97"/>
      <use x="259.753906" xlink:href="#DejaVuSans-110"/>
      <use x="323.132812" xlink:href="#DejaVuSans-99"/>
      <use x="378.113281" xlink:href="#DejaVuSans-101"/>
      <use x="439.636719" xlink:href="#DejaVuSans-32"/>
      <use x="471.423828" xlink:href="#DejaVuSans-73"/>
      <use x="500.916016" xlink:href="#DejaVuSans-110"/>
      <use x="564.294922" xlink:href="#DejaVuSans-102"/>
      <use x="599.5" xlink:href="#DejaVuSans-108"/>
      <use x="627.283203" xlink:href="#DejaVuSans-97"/>
      <use x="688.5625" xlink:href="#DejaVuSans-116"/>
      <use x="727.771484" xlink:href="#DejaVuSans-105"/>
      <use x="755.554688" xlink:href="#DejaVuSans-111"/>
      <use x="816.736328" xlink:href="#DejaVuSans-110"/>
      <use x="880.115234" xlink:href="#DejaVuSans-32"/>
      <use x="911.902344" xlink:href="#DejaVuSans-70"/>
      <use x="969.28125" xlink:href="#DejaVuSans-97"/>
      <use x="1030.560547" xlink:href="#DejaVuSans-99"/>
      <use x="1085.541016" xlink:href="#DejaVuSans-116"/>
      <use x="1124.75" xlink:href="#DejaVuSans-111"/>
      <use x="1185.931641" xlink:href="#DejaVuSans-114"/>
     </g>
    </g>
   </g>
   <g id="matplotlib.axis_6">
    <g id="ytick_12">
     <g id="line2d_20">
      <g>
       <use style="stroke:#000000;stroke-width:0.8;" x="378.75064" xlink:href="#m3143155b32" y="439.907885"/>
      </g>
     </g>
    </g>
    <g id="ytick_13">
     <g id="line2d_21">
      <g>
       <use style="stroke:#000000;stroke-width:0.8;" x="378.75064" xlink:href="#m3143155b32" y="407.142462"/>
      </g>
     </g>
    </g>
    <g id="ytick_14">
     <g id="line2d_22">
      <g>
       <use style="stroke:#000000;stroke-width:0.8;" x="378.75064" xlink:href="#m3143155b32" y="374.377038"/>
      </g>
     </g>
    </g>
    <g id="ytick_15">
     <g id="line2d_23">
      <g>
       <use style="stroke:#000000;stroke-width:0.8;" x="378.75064" xlink:href="#m3143155b32" y="341.611615"/>
      </g>
     </g>
    </g>
    <g id="ytick_16">
     <g id="line2d_24">
      <g>
       <use style="stroke:#000000;stroke-width:0.8;" x="378.75064" xlink:href="#m3143155b32" y="308.846192"/>
      </g>
     </g>
    </g>
    <g id="ytick_17">
     <g id="line2d_25">
      <g>
       <use style="stroke:#000000;stroke-width:0.8;" x="378.75064" xlink:href="#m3143155b32" y="276.080768"/>
      </g>
     </g>
    </g>
    <g id="ytick_18">
     <g id="line2d_26">
      <g>
       <use style="stroke:#000000;stroke-width:0.8;" x="378.75064" xlink:href="#m3143155b32" y="243.315345"/>
      </g>
     </g>
    </g>
    <g id="text_25">
     <!-- Motif -->
     <g transform="translate(365.255015 356.59099)rotate(-90)scale(0.12 -0.12)">
      <use xlink:href="#DejaVuSans-77"/>
      <use x="86.279297" xlink:href="#DejaVuSans-111"/>
      <use x="147.460938" xlink:href="#DejaVuSans-116"/>
      <use x="186.669922" xlink:href="#DejaVuSans-105"/>
      <use x="214.453125" xlink:href="#DejaVuSans-102"/>
     </g>
    </g>
   </g>
   <g id="patch_113">
    <path d="M 378.75064 439.907885 
L 378.75064 243.315345 
" style="fill:none;stroke:#000000;stroke-linecap:square;stroke-linejoin:miter;stroke-width:0.8;"/>
   </g>
   <g id="patch_114">
    <path d="M 572.99976 439.907885 
L 572.99976 243.315345 
" style="fill:none;stroke:#000000;stroke-linecap:square;stroke-linejoin:miter;stroke-width:0.8;"/>
   </g>
   <g id="patch_115">
    <path d="M 378.75064 439.907885 
L 572.99976 439.907885 
" style="fill:none;stroke:#000000;stroke-linecap:square;stroke-linejoin:miter;stroke-width:0.8;"/>
   </g>
   <g id="patch_116">
    <path d="M 378.75064 243.315345 
L 572.99976 243.315345 
" style="fill:none;stroke:#000000;stroke-linecap:square;stroke-linejoin:miter;stroke-width:0.8;"/>
   </g>
  </g>
  <g id="axes_4">
   <g id="patch_117">
    <path d="M 378.75064 203.43899 
L 572.99976 203.43899 
L 572.99976 76.150579 
L 378.75064 76.150579 
z
" style="fill:#ffffff;"/>
   </g>
   <g id="matplotlib.axis_7">
    <g id="xtick_16">
     <g id="line2d_27">
      <g>
       <use style="stroke:#000000;stroke-width:0.8;" x="387.580145" xlink:href="#m730bce6441" y="203.43899"/>
      </g>
     </g>
     <g id="text_26">
      <!-- 0.0 -->
      <defs>
       <path d="M 10.6875 12.40625 
L 21 12.40625 
L 21 0 
L 10.6875 0 
z
" id="DejaVuSans-46"/>
      </defs>
      <g transform="translate(379.628583 218.037428)scale(0.1 -0.1)">
       <use xlink:href="#DejaVuSans-48"/>
       <use x="63.623047" xlink:href="#DejaVuSans-46"/>
       <use x="95.410156" xlink:href="#DejaVuSans-48"/>
      </g>
     </g>
    </g>
    <g id="xtick_17">
     <g id="line2d_28">
      <g>
       <use style="stroke:#000000;stroke-width:0.8;" x="422.898167" xlink:href="#m730bce6441" y="203.43899"/>
      </g>
     </g>
     <g id="text_27">
      <!-- 0.2 -->
      <g transform="translate(414.946605 218.037428)scale(0.1 -0.1)">
       <use xlink:href="#DejaVuSans-48"/>
       <use x="63.623047" xlink:href="#DejaVuSans-46"/>
       <use x="95.410156" xlink:href="#DejaVuSans-50"/>
      </g>
     </g>
    </g>
    <g id="xtick_18">
     <g id="line2d_29">
      <g>
       <use style="stroke:#000000;stroke-width:0.8;" x="458.216189" xlink:href="#m730bce6441" y="203.43899"/>
      </g>
     </g>
     <g id="text_28">
      <!-- 0.4 -->
      <g transform="translate(450.264627 218.037428)scale(0.1 -0.1)">
       <use xlink:href="#DejaVuSans-48"/>
       <use x="63.623047" xlink:href="#DejaVuSans-46"/>
       <use x="95.410156" xlink:href="#DejaVuSans-52"/>
      </g>
     </g>
    </g>
    <g id="xtick_19">
     <g id="line2d_30">
      <g>
       <use style="stroke:#000000;stroke-width:0.8;" x="493.534211" xlink:href="#m730bce6441" y="203.43899"/>
      </g>
     </g>
     <g id="text_29">
      <!-- 0.6 -->
      <g transform="translate(485.582648 218.037428)scale(0.1 -0.1)">
       <use xlink:href="#DejaVuSans-48"/>
       <use x="63.623047" xlink:href="#DejaVuSans-46"/>
       <use x="95.410156" xlink:href="#DejaVuSans-54"/>
      </g>
     </g>
    </g>
    <g id="xtick_20">
     <g id="line2d_31">
      <g>
       <use style="stroke:#000000;stroke-width:0.8;" x="528.852233" xlink:href="#m730bce6441" y="203.43899"/>
      </g>
     </g>
     <g id="text_30">
      <!-- 0.8 -->
      <g transform="translate(520.90067 218.037428)scale(0.1 -0.1)">
       <use xlink:href="#DejaVuSans-48"/>
       <use x="63.623047" xlink:href="#DejaVuSans-46"/>
       <use x="95.410156" xlink:href="#DejaVuSans-56"/>
      </g>
     </g>
    </g>
    <g id="xtick_21">
     <g id="line2d_32">
      <g>
       <use style="stroke:#000000;stroke-width:0.8;" x="564.170255" xlink:href="#m730bce6441" y="203.43899"/>
      </g>
     </g>
     <g id="text_31">
      <!-- 1.0 -->
      <g transform="translate(556.218692 218.037428)scale(0.1 -0.1)">
       <use xlink:href="#DejaVuSans-49"/>
       <use x="63.623047" xlink:href="#DejaVuSans-46"/>
       <use x="95.410156" xlink:href="#DejaVuSans-48"/>
      </g>
     </g>
    </g>
    <g id="text_32">
     <!-- False Positive Rate -->
     <defs>
      <path d="M 19.671875 64.796875 
L 19.671875 37.40625 
L 32.078125 37.40625 
Q 38.96875 37.40625 42.71875 40.96875 
Q 46.484375 44.53125 46.484375 51.125 
Q 46.484375 57.671875 42.71875 61.234375 
Q 38.96875 64.796875 32.078125 64.796875 
z
M 9.8125 72.90625 
L 32.078125 72.90625 
Q 44.34375 72.90625 50.609375 67.359375 
Q 56.890625 61.8125 56.890625 51.125 
Q 56.890625 40.328125 50.609375 34.8125 
Q 44.34375 29.296875 32.078125 29.296875 
L 19.671875 29.296875 
L 19.671875 0 
L 9.8125 0 
z
" id="DejaVuSans-80"/>
      <path d="M 2.984375 54.6875 
L 12.5 54.6875 
L 29.59375 8.796875 
L 46.6875 54.6875 
L 56.203125 54.6875 
L 35.6875 0 
L 23.484375 0 
z
" id="DejaVuSans-118"/>
     </defs>
     <g transform="translate(419.228637 233.23524)scale(0.12 -0.12)">
      <use xlink:href="#DejaVuSans-70"/>
      <use x="57.378906" xlink:href="#DejaVuSans-97"/>
      <use x="118.658203" xlink:href="#DejaVuSans-108"/>
      <use x="146.441406" xlink:href="#DejaVuSans-115"/>
      <use x="198.541016" xlink:href="#DejaVuSans-101"/>
      <use x="260.064453" xlink:href="#DejaVuSans-32"/>
      <use x="291.851562" xlink:href="#DejaVuSans-80"/>
      <use x="352.107422" xlink:href="#DejaVuSans-111"/>
      <use x="413.289062" xlink:href="#DejaVuSans-115"/>
      <use x="465.388672" xlink:href="#DejaVuSans-105"/>
      <use x="493.171875" xlink:href="#DejaVuSans-116"/>
      <use x="532.380859" xlink:href="#DejaVuSans-105"/>
      <use x="560.164062" xlink:href="#DejaVuSans-118"/>
      <use x="619.34375" xlink:href="#DejaVuSans-101"/>
      <use x="680.867188" xlink:href="#DejaVuSans-32"/>
      <use x="712.654297" xlink:href="#DejaVuSans-82"/>
      <use x="782.105469" xlink:href="#DejaVuSans-97"/>
      <use x="843.384766" xlink:href="#DejaVuSans-116"/>
      <use x="882.59375" xlink:href="#DejaVuSans-101"/>
     </g>
    </g>
   </g>
   <g id="matplotlib.axis_8">
    <g id="ytick_19">
     <g id="line2d_33">
      <g>
       <use style="stroke:#000000;stroke-width:0.8;" x="378.75064" xlink:href="#m3143155b32" y="197.653153"/>
      </g>
     </g>
     <g id="text_33">
      <!-- 0.0 -->
      <g transform="translate(355.847515 201.452372)scale(0.1 -0.1)">
       <use xlink:href="#DejaVuSans-48"/>
       <use x="63.623047" xlink:href="#DejaVuSans-46"/>
       <use x="95.410156" xlink:href="#DejaVuSans-48"/>
      </g>
     </g>
    </g>
    <g id="ytick_20">
     <g id="line2d_34">
      <g>
       <use style="stroke:#000000;stroke-width:0.8;" x="378.75064" xlink:href="#m3143155b32" y="174.509806"/>
      </g>
     </g>
     <g id="text_34">
      <!-- 0.2 -->
      <g transform="translate(355.847515 178.309024)scale(0.1 -0.1)">
       <use xlink:href="#DejaVuSans-48"/>
       <use x="63.623047" xlink:href="#DejaVuSans-46"/>
       <use x="95.410156" xlink:href="#DejaVuSans-50"/>
      </g>
     </g>
    </g>
    <g id="ytick_21">
     <g id="line2d_35">
      <g>
       <use style="stroke:#000000;stroke-width:0.8;" x="378.75064" xlink:href="#m3143155b32" y="151.366458"/>
      </g>
     </g>
     <g id="text_35">
      <!-- 0.4 -->
      <g transform="translate(355.847515 155.165677)scale(0.1 -0.1)">
       <use xlink:href="#DejaVuSans-48"/>
       <use x="63.623047" xlink:href="#DejaVuSans-46"/>
       <use x="95.410156" xlink:href="#DejaVuSans-52"/>
      </g>
     </g>
    </g>
    <g id="ytick_22">
     <g id="line2d_36">
      <g>
       <use style="stroke:#000000;stroke-width:0.8;" x="378.75064" xlink:href="#m3143155b32" y="128.223111"/>
      </g>
     </g>
     <g id="text_36">
      <!-- 0.6 -->
      <g transform="translate(355.847515 132.02233)scale(0.1 -0.1)">
       <use xlink:href="#DejaVuSans-48"/>
       <use x="63.623047" xlink:href="#DejaVuSans-46"/>
       <use x="95.410156" xlink:href="#DejaVuSans-54"/>
      </g>
     </g>
    </g>
    <g id="ytick_23">
     <g id="line2d_37">
      <g>
       <use style="stroke:#000000;stroke-width:0.8;" x="378.75064" xlink:href="#m3143155b32" y="105.079763"/>
      </g>
     </g>
     <g id="text_37">
      <!-- 0.8 -->
      <g transform="translate(355.847515 108.878982)scale(0.1 -0.1)">
       <use xlink:href="#DejaVuSans-48"/>
       <use x="63.623047" xlink:href="#DejaVuSans-46"/>
       <use x="95.410156" xlink:href="#DejaVuSans-56"/>
      </g>
     </g>
    </g>
    <g id="ytick_24">
     <g id="line2d_38">
      <g>
       <use style="stroke:#000000;stroke-width:0.8;" x="378.75064" xlink:href="#m3143155b32" y="81.936416"/>
      </g>
     </g>
     <g id="text_38">
      <!-- 1.0 -->
      <g transform="translate(355.847515 85.735635)scale(0.1 -0.1)">
       <use xlink:href="#DejaVuSans-49"/>
       <use x="63.623047" xlink:href="#DejaVuSans-46"/>
       <use x="95.410156" xlink:href="#DejaVuSans-48"/>
      </g>
     </g>
    </g>
    <g id="text_39">
     <!-- True Positive Rate -->
     <defs>
      <path d="M -0.296875 72.90625 
L 61.375 72.90625 
L 61.375 64.59375 
L 35.5 64.59375 
L 35.5 0 
L 25.59375 0 
L 25.59375 64.59375 
L -0.296875 64.59375 
z
" id="DejaVuSans-84"/>
     </defs>
     <g transform="translate(349.35189 194.450097)rotate(-90)scale(0.12 -0.12)">
      <use xlink:href="#DejaVuSans-84"/>
      <use x="60.865234" xlink:href="#DejaVuSans-114"/>
      <use x="101.978516" xlink:href="#DejaVuSans-117"/>
      <use x="165.357422" xlink:href="#DejaVuSans-101"/>
      <use x="226.880859" xlink:href="#DejaVuSans-32"/>
      <use x="258.667969" xlink:href="#DejaVuSans-80"/>
      <use x="318.923828" xlink:href="#DejaVuSans-111"/>
      <use x="380.105469" xlink:href="#DejaVuSans-115"/>
      <use x="432.205078" xlink:href="#DejaVuSans-105"/>
      <use x="459.988281" xlink:href="#DejaVuSans-116"/>
      <use x="499.197266" xlink:href="#DejaVuSans-105"/>
      <use x="526.980469" xlink:href="#DejaVuSans-118"/>
      <use x="586.160156" xlink:href="#DejaVuSans-101"/>
      <use x="647.683594" xlink:href="#DejaVuSans-32"/>
      <use x="679.470703" xlink:href="#DejaVuSans-82"/>
      <use x="748.921875" xlink:href="#DejaVuSans-97"/>
      <use x="810.201172" xlink:href="#DejaVuSans-116"/>
      <use x="849.410156" xlink:href="#DejaVuSans-101"/>
     </g>
    </g>
   </g>
   <g id="line2d_39">
    <path clip-path="url(#pde68401182)" d="M 387.580145 197.653153 
L 387.580145 94.793831 
L 562.86218 94.793831 
L 564.170255 81.936416 
" style="fill:none;stroke:#0073b2;stroke-linecap:square;stroke-width:1.5;"/>
   </g>
   <g id="line2d_40">
    <path clip-path="url(#pde68401182)" d="M 387.580145 197.653153 
L 388.018334 90.201897 
L 388.894712 86.069157 
L 560.664744 81.936416 
L 564.170255 81.936416 
" style="fill:none;stroke:#cc6600;stroke-linecap:square;stroke-width:1.5;"/>
   </g>
   <g id="line2d_41">
    <path clip-path="url(#pde68401182)" d="M 387.580145 197.653153 
L 564.170255 81.936416 
" style="fill:none;stroke:#808080;stroke-dasharray:4,8;stroke-dashoffset:0;stroke-width:0.8;"/>
   </g>
   <g id="patch_118">
    <path d="M 378.75064 203.43899 
L 378.75064 76.150579 
" style="fill:none;stroke:#000000;stroke-linecap:square;stroke-linejoin:miter;stroke-width:0.8;"/>
   </g>
   <g id="patch_119">
    <path d="M 572.99976 203.43899 
L 572.99976 76.150579 
" style="fill:none;stroke:#000000;stroke-linecap:square;stroke-linejoin:miter;stroke-width:0.8;"/>
   </g>
   <g id="patch_120">
    <path d="M 378.75064 203.43899 
L 572.99976 203.43899 
" style="fill:none;stroke:#000000;stroke-linecap:square;stroke-linejoin:miter;stroke-width:0.8;"/>
   </g>
   <g id="patch_121">
    <path d="M 378.75064 76.150579 
L 572.99976 76.150579 
" style="fill:none;stroke:#000000;stroke-linecap:square;stroke-linejoin:miter;stroke-width:0.8;"/>
   </g>
   <g id="legend_1">
    <g id="patch_122">
     <path d="M 436.784135 198.43899 
L 565.99976 198.43899 
Q 567.99976 198.43899 567.99976 196.43899 
L 567.99976 168.08274 
Q 567.99976 166.08274 565.99976 166.08274 
L 436.784135 166.08274 
Q 434.784135 166.08274 434.784135 168.08274 
L 434.784135 196.43899 
Q 434.784135 198.43899 436.784135 198.43899 
z
" style="fill:#ffffff;opacity:0.8;stroke:#cccccc;stroke-linejoin:miter;"/>
    </g>
    <g id="line2d_42">
     <path d="M 438.784135 174.181178 
L 458.784135 174.181178 
" style="fill:none;stroke:#0073b2;stroke-linecap:square;stroke-width:1.5;"/>
    </g>
    <g id="line2d_43"/>
    <g id="text_40">
     <!-- Test, AUC: 0.89 -->
     <defs>
      <path d="M 11.71875 12.40625 
L 22.015625 12.40625 
L 22.015625 4 
L 14.015625 -11.625 
L 7.71875 -11.625 
L 11.71875 4 
z
" id="DejaVuSans-44"/>
      <path d="M 34.1875 63.1875 
L 20.796875 26.90625 
L 47.609375 26.90625 
z
M 28.609375 72.90625 
L 39.796875 72.90625 
L 67.578125 0 
L 57.328125 0 
L 50.6875 18.703125 
L 17.828125 18.703125 
L 11.1875 0 
L 0.78125 0 
z
" id="DejaVuSans-65"/>
      <path d="M 11.71875 12.40625 
L 22.015625 12.40625 
L 22.015625 0 
L 11.71875 0 
z
M 11.71875 51.703125 
L 22.015625 51.703125 
L 22.015625 39.3125 
L 11.71875 39.3125 
z
" id="DejaVuSans-58"/>
      <path d="M 10.984375 1.515625 
L 10.984375 10.5 
Q 14.703125 8.734375 18.5 7.8125 
Q 22.3125 6.890625 25.984375 6.890625 
Q 35.75 6.890625 40.890625 13.453125 
Q 46.046875 20.015625 46.78125 33.40625 
Q 43.953125 29.203125 39.59375 26.953125 
Q 35.25 24.703125 29.984375 24.703125 
Q 19.046875 24.703125 12.671875 31.3125 
Q 6.296875 37.9375 6.296875 49.421875 
Q 6.296875 60.640625 12.9375 67.421875 
Q 19.578125 74.21875 30.609375 74.21875 
Q 43.265625 74.21875 49.921875 64.515625 
Q 56.59375 54.828125 56.59375 36.375 
Q 56.59375 19.140625 48.40625 8.859375 
Q 40.234375 -1.421875 26.421875 -1.421875 
Q 22.703125 -1.421875 18.890625 -0.6875 
Q 15.09375 0.046875 10.984375 1.515625 
z
M 30.609375 32.421875 
Q 37.25 32.421875 41.125 36.953125 
Q 45.015625 41.5 45.015625 49.421875 
Q 45.015625 57.28125 41.125 61.84375 
Q 37.25 66.40625 30.609375 66.40625 
Q 23.96875 66.40625 20.09375 61.84375 
Q 16.21875 57.28125 16.21875 49.421875 
Q 16.21875 41.5 20.09375 36.953125 
Q 23.96875 32.421875 30.609375 32.421875 
z
" id="DejaVuSans-57"/>
     </defs>
     <g transform="translate(466.784135 177.681178)scale(0.1 -0.1)">
      <use xlink:href="#DejaVuSans-84"/>
      <use x="60.818359" xlink:href="#DejaVuSans-101"/>
      <use x="122.341797" xlink:href="#DejaVuSans-115"/>
      <use x="174.441406" xlink:href="#DejaVuSans-116"/>
      <use x="213.650391" xlink:href="#DejaVuSans-44"/>
      <use x="245.4375" xlink:href="#DejaVuSans-32"/>
      <use x="277.224609" xlink:href="#DejaVuSans-65"/>
      <use x="345.632812" xlink:href="#DejaVuSans-85"/>
      <use x="418.826172" xlink:href="#DejaVuSans-67"/>
      <use x="488.650391" xlink:href="#DejaVuSans-58"/>
      <use x="522.341797" xlink:href="#DejaVuSans-32"/>
      <use x="554.128906" xlink:href="#DejaVuSans-48"/>
      <use x="617.751953" xlink:href="#DejaVuSans-46"/>
      <use x="649.539062" xlink:href="#DejaVuSans-56"/>
      <use x="713.162109" xlink:href="#DejaVuSans-57"/>
     </g>
    </g>
    <g id="line2d_44">
     <path d="M 438.784135 188.859303 
L 458.784135 188.859303 
" style="fill:none;stroke:#cc6600;stroke-linecap:square;stroke-width:1.5;"/>
    </g>
    <g id="line2d_45"/>
    <g id="text_41">
     <!-- Training, AUC: 0.98 -->
     <g transform="translate(466.784135 192.359303)scale(0.1 -0.1)">
      <use xlink:href="#DejaVuSans-84"/>
      <use x="60.865234" xlink:href="#DejaVuSans-114"/>
      <use x="101.978516" xlink:href="#DejaVuSans-97"/>
      <use x="163.257812" xlink:href="#DejaVuSans-105"/>
      <use x="191.041016" xlink:href="#DejaVuSans-110"/>
      <use x="254.419922" xlink:href="#DejaVuSans-105"/>
      <use x="282.203125" xlink:href="#DejaVuSans-110"/>
      <use x="345.582031" xlink:href="#DejaVuSans-103"/>
      <use x="409.058594" xlink:href="#DejaVuSans-44"/>
      <use x="440.845703" xlink:href="#DejaVuSans-32"/>
      <use x="472.632812" xlink:href="#DejaVuSans-65"/>
      <use x="541.041016" xlink:href="#DejaVuSans-85"/>
      <use x="614.234375" xlink:href="#DejaVuSans-67"/>
      <use x="684.058594" xlink:href="#DejaVuSans-58"/>
      <use x="717.75" xlink:href="#DejaVuSans-32"/>
      <use x="749.537109" xlink:href="#DejaVuSans-48"/>
      <use x="813.160156" xlink:href="#DejaVuSans-46"/>
      <use x="844.947266" xlink:href="#DejaVuSans-57"/>
      <use x="908.570312" xlink:href="#DejaVuSans-56"/>
     </g>
    </g>
   </g>
  </g>
  <g id="axes_5">
   <g id="line2d_46">
    <path clip-path="url(#p5d344c67b8)" d="M 320.894922 275.137448 
L 286.85318 275.137448 
" style="fill:none;stroke:#000000;stroke-linecap:square;stroke-width:0.577241;"/>
   </g>
   <g id="line2d_47">
    <path clip-path="url(#p5d344c67b8)" d="M 286.85318 275.137448 
L 252.811438 275.137448 
" style="fill:none;stroke:#000000;stroke-linecap:square;stroke-width:0.577241;"/>
   </g>
   <g id="patch_123">
    <path clip-path="url(#p5d344c67b8)" d="M 298.291737 274.169386 
L 298.291737 276.226518 
L 297.523139 276.226518 
L 297.523139 269.831723 
Q 297.523139 267.936822 299.293043 267.936822 
Q 301.097522 267.936822 301.097522 269.536517 
Q 301.097522 270.674788 300.382113 271.091002 
Q 301.545649 271.464663 301.545649 272.573679 
Q 301.545649 274.544377 299.543037 274.544377 
Q 298.661409 274.544377 298.291737 274.169386 
z
M 298.291737 273.172069 
Q 298.753162 273.891467 299.572292 273.891467 
Q 300.769072 273.891467 300.769072 272.586977 
Q 300.769072 271.414132 298.840926 271.505885 
L 298.840926 270.799785 
Q 300.348869 270.799785 300.348869 269.47003 
Q 300.348869 268.560477 299.376818 268.560477 
Q 298.291737 268.560477 298.291737 269.856989 
z
"/>
   </g>
   <g id="patch_124">
    <path clip-path="url(#p5d344c67b8)" d="M 310.154487 268.983339 
L 308.034856 272.29576 
L 310.154487 272.29576 
z
M 309.933747 268.251974 
L 310.989573 268.251974 
L 310.989573 272.29576 
L 311.87519 272.29576 
L 311.87519 272.993882 
L 310.989573 272.993882 
L 310.989573 274.456613 
L 310.154487 274.456613 
L 310.154487 272.993882 
L 307.354021 272.993882 
L 307.354021 272.184061 
z
"/>
   </g>
   <g id="patch_125">
    <path clip-path="url(#p5d344c67b8)" d="M 266.199417 272.291771 
L 266.015911 271.331687 
Q 265.829745 270.346339 265.089071 270.346339 
Q 264.533233 270.346339 264.27925 270.803774 
Q 263.958779 271.376899 263.958779 272.13353 
Q 263.958779 273.048402 264.271271 273.484562 
Q 264.586424 273.9287 265.089071 273.9287 
Q 265.646239 273.9287 265.945434 273.043083 
z
M 266.627598 271.020525 
L 267.038493 269.802469 
L 267.720657 269.802469 
L 266.868284 272.325015 
L 267.034503 273.234568 
Q 267.071737 273.43802 267.21668 273.608229 
Q 267.388218 273.807692 267.521194 273.807692 
L 267.886877 273.807692 
L 267.886877 274.456613 
L 267.429441 274.456613 
Q 267.038493 274.456613 266.690097 274.106887 
Q 266.518558 273.932689 266.448081 273.567006 
Q 266.257926 274.028432 265.866978 274.390125 
Q 265.683472 274.560334 265.089071 274.560334 
Q 264.113031 274.560334 263.639638 273.9287 
Q 263.152947 273.27579 263.152947 272.13353 
Q 263.152947 270.911485 263.68086 270.33836 
Q 264.267282 269.698748 265.089071 269.698748 
Q 266.381594 269.698748 266.627598 271.020525 
z
"/>
   </g>
   <g id="patch_126">
    <path clip-path="url(#p5d344c67b8)" d="M 275.705839 271.020525 
Q 275.140693 271.020525 274.809584 271.407483 
Q 274.479805 271.793113 274.479805 272.465969 
Q 274.479805 273.134836 274.809584 273.524454 
Q 275.140693 273.912743 275.705839 273.912743 
Q 276.270985 273.912743 276.600765 273.524454 
Q 276.930544 273.134836 276.930544 272.465969 
Q 276.930544 271.793113 276.600765 271.407483 
Q 276.270985 271.020525 275.705839 271.020525 
z
M 277.372023 268.388938 
L 277.372023 269.153548 
Q 277.055541 269.004615 276.73374 268.92616 
Q 276.41194 268.846374 276.095458 268.846374 
Q 275.264361 268.846374 274.825541 269.407531 
Q 274.388052 269.968688 274.325553 271.102969 
Q 274.570228 270.741276 274.9399 270.548461 
Q 275.310902 270.355647 275.75504 270.355647 
Q 276.689858 270.355647 277.232399 270.923452 
Q 277.774939 271.489928 277.774939 272.465969 
Q 277.774939 273.422063 277.209793 274.000507 
Q 276.644647 274.577621 275.705839 274.577621 
Q 274.628737 274.577621 274.059602 273.753172 
Q 273.490467 272.927394 273.490467 271.360942 
Q 273.490467 269.890232 274.188588 269.015253 
Q 274.88671 268.140274 276.062214 268.140274 
Q 276.378696 268.140274 276.700497 268.202773 
Q 277.022297 268.265271 277.372023 268.388938 
z
"/>
   </g>
   <g id="patch_127">
    <path clip-path="url(#p5d344c67b8)" d="M 327.70327 268.329099 
L 327.70327 281.945796 
L 314.086574 281.945796 
L 314.086574 268.329099 
L 327.70327 268.329099 
z
" style="fill:#0090bc;stroke:#000000;stroke-linejoin:miter;stroke-width:0.577241;"/>
   </g>
   <g id="patch_128">
    <path clip-path="url(#p5d344c67b8)" d="M 286.85318 281.945796 
C 288.658775 281.945796 290.390661 281.228426 291.667409 279.951677 
C 292.944158 278.674929 293.661529 276.943043 293.661529 275.137448 
C 293.661529 273.331853 292.944158 271.599967 291.667409 270.323218 
C 290.390661 269.04647 288.658775 268.329099 286.85318 268.329099 
C 285.047585 268.329099 283.315699 269.04647 282.038951 270.323218 
C 280.762202 271.599967 280.044832 273.331853 280.044832 275.137448 
C 280.044832 276.943043 280.762202 278.674929 282.038951 279.951677 
C 283.315699 281.228426 285.047585 281.945796 286.85318 281.945796 
z
" style="fill:#ffd400;stroke:#000000;stroke-linejoin:miter;stroke-width:0.577241;"/>
   </g>
   <g id="patch_129">
    <path clip-path="url(#p5d344c67b8)" d="M 252.811438 265.508989 
L 262.439897 275.137448 
L 252.811438 284.765906 
L 243.18298 275.137448 
L 252.811438 265.508989 
z
" style="fill:#a54399;stroke:#000000;stroke-linejoin:miter;stroke-width:0.577241;"/>
   </g>
  </g>
  <g id="axes_6">
   <g id="line2d_48">
    <path clip-path="url(#p2fb606282f)" d="M 285.525826 330.865391 
L 250.240121 330.865391 
" style="fill:none;stroke:#000000;stroke-linecap:square;stroke-width:0.577241;"/>
   </g>
   <g id="line2d_49">
    <path clip-path="url(#p2fb606282f)" d="M 250.240121 330.865391 
L 250.240121 352.036814 
" style="fill:none;stroke:#000000;stroke-linecap:square;stroke-width:0.577241;"/>
   </g>
   <g id="line2d_50">
    <path clip-path="url(#p2fb606282f)" d="M 320.811531 330.865391 
L 285.525826 330.865391 
" style="fill:none;stroke:#000000;stroke-linecap:square;stroke-width:0.577241;"/>
   </g>
   <g id="patch_130">
    <path clip-path="url(#p2fb606282f)" d="M 262.096669 329.861953 
L 262.096669 331.994258 
L 261.299984 331.994258 
L 261.299984 325.365783 
Q 261.299984 323.401637 263.134565 323.401637 
Q 265.004983 323.401637 265.004983 325.059789 
Q 265.004983 326.239655 264.263432 326.671078 
Q 265.469486 327.058394 265.469486 328.207936 
Q 265.469486 330.250647 263.393694 330.250647 
Q 262.47985 330.250647 262.096669 329.861953 
z
M 262.096669 328.828192 
Q 262.574956 329.573879 263.424018 329.573879 
Q 264.664531 329.573879 264.664531 328.221719 
Q 264.664531 327.006017 262.665927 327.101123 
L 262.665927 326.36922 
Q 264.228973 326.36922 264.228973 324.990872 
Q 264.228973 324.048082 263.221401 324.048082 
Q 262.096669 324.048082 262.096669 325.391971 
z
"/>
   </g>
   <g id="patch_131">
    <path clip-path="url(#p2fb606282f)" d="M 274.39291 324.486397 
L 272.195824 327.919861 
L 274.39291 327.919861 
z
M 274.164104 323.728305 
L 275.258513 323.728305 
L 275.258513 327.919861 
L 276.176492 327.919861 
L 276.176492 328.643494 
L 275.258513 328.643494 
L 275.258513 330.159677 
L 274.39291 330.159677 
L 274.39291 328.643494 
L 271.49011 328.643494 
L 271.49011 327.80408 
z
"/>
   </g>
   <g id="patch_132">
    <path clip-path="url(#p2fb606282f)" d="M 252.285589 345.916949 
L 255.322089 345.916949 
L 255.322089 346.648852 
L 251.239423 346.648852 
L 251.239423 345.916949 
Q 251.73425 345.404204 252.588825 344.541358 
Q 253.444779 343.677134 253.663937 343.426275 
Q 254.081576 342.957636 254.246978 342.632346 
Q 254.413758 342.307056 254.413758 341.992793 
Q 254.413758 341.480048 254.054009 341.157514 
Q 253.69426 340.833602 253.116733 340.833602 
Q 252.707363 340.833602 252.252508 340.975572 
Q 251.799032 341.117542 251.282152 341.406995 
L 251.282152 340.527609 
Q 251.807302 340.316722 252.263535 340.209211 
Q 252.721147 340.1017 253.100192 340.1017 
Q 254.099495 340.1017 254.693563 340.60204 
Q 255.28763 341.101002 255.28763 341.936281 
Q 255.28763 342.333245 255.138769 342.688859 
Q 254.991286 343.043094 254.598457 343.525516 
Q 254.490945 343.650945 253.913418 344.24777 
Q 253.337268 344.844595 252.285589 345.916949 
z
M 257.239199 345.554444 
L 258.14753 345.554444 
L 258.14753 346.295995 
L 257.441816 347.674343 
L 256.886342 347.674343 
L 257.239199 346.295995 
z
M 262.589084 343.180929 
Q 263.213475 343.314629 263.563576 343.737781 
Q 263.915054 344.159556 263.915054 344.779812 
Q 263.915054 345.730872 263.260339 346.253266 
Q 262.605624 346.774282 261.399569 346.774282 
Q 260.995714 346.774282 260.567047 346.694337 
Q 260.138381 346.614393 259.682148 346.454505 
L 259.682148 345.615091 
Q 260.043275 345.825978 260.47332 345.933489 
Q 260.904743 346.041001 261.374759 346.041001 
Q 262.192119 346.041001 262.620786 345.718467 
Q 263.049452 345.395934 263.049452 344.779812 
Q 263.049452 344.210555 262.651109 343.890778 
Q 262.252767 343.569623 261.542918 343.569623 
L 260.793096 343.569623 
L 260.793096 342.85426 
L 261.577376 342.85426 
Q 262.218308 342.85426 262.55876 342.597888 
Q 262.899212 342.341515 262.899212 341.859093 
Q 262.899212 341.364266 262.547733 341.099623 
Q 262.197633 340.833602 261.542918 340.833602 
Q 261.184547 340.833602 260.775178 340.912168 
Q 260.365809 340.989356 259.875117 341.152001 
L 259.875117 340.377369 
Q 260.371322 340.239534 260.804123 340.170617 
Q 261.236924 340.1017 261.620105 340.1017 
Q 262.611137 340.1017 263.187287 340.552419 
Q 263.764814 341.001761 263.764814 341.768122 
Q 263.764814 342.302921 263.458821 342.67094 
Q 263.152828 343.038959 262.589084 343.180929 
z
M 265.655735 345.554444 
L 266.564067 345.554444 
L 266.564067 346.295995 
L 265.858353 347.674343 
L 265.302878 347.674343 
L 265.655735 346.295995 
z
M 270.760274 340.975572 
L 268.563188 344.409037 
L 270.760274 344.409037 
z
M 270.531469 340.217481 
L 271.625877 340.217481 
L 271.625877 344.409037 
L 272.543857 344.409037 
L 272.543857 345.132669 
L 271.625877 345.132669 
L 271.625877 346.648852 
L 270.760274 346.648852 
L 270.760274 345.132669 
L 267.857474 345.132669 
L 267.857474 344.293255 
z
"/>
   </g>
   <g id="patch_133">
    <path clip-path="url(#p2fb606282f)" d="M 317.564144 332.917751 
L 317.373932 331.922583 
Q 317.180963 330.901228 316.413223 330.901228 
Q 315.837074 330.901228 315.573809 331.375379 
Q 315.241627 331.969447 315.241627 332.753727 
Q 315.241627 333.702031 315.565539 334.154129 
Q 315.892208 334.614497 316.413223 334.614497 
Q 316.990751 334.614497 317.300879 333.696517 
z
M 318.007972 331.60005 
L 318.433881 330.337483 
L 319.140974 330.337483 
L 318.257453 332.952209 
L 318.429746 333.894999 
Q 318.46834 334.105886 318.61858 334.282315 
Q 318.796387 334.489067 318.934221 334.489067 
L 319.313267 334.489067 
L 319.313267 335.161701 
L 318.839115 335.161701 
Q 318.433881 335.161701 318.072754 334.799195 
Q 317.894947 334.618632 317.821895 334.239586 
Q 317.624791 334.717873 317.219557 335.092784 
Q 317.029345 335.269212 316.413223 335.269212 
Q 315.401516 335.269212 314.910824 334.614497 
Q 314.406349 333.937728 314.406349 332.753727 
Q 314.406349 331.487026 314.953553 330.892958 
Q 315.561404 330.229972 316.413223 330.229972 
Q 317.752977 330.229972 318.007972 331.60005 
z
M 321.974512 328.73033 
L 322.706415 328.73033 
L 320.4666 335.98044 
L 319.734697 335.98044 
z
M 324.330453 334.863978 
L 324.330453 336.996282 
L 323.533768 336.996282 
L 323.533768 330.367807 
Q 323.533768 328.403661 325.368349 328.403661 
Q 327.238767 328.403661 327.238767 330.061814 
Q 327.238767 331.24168 326.497216 331.673102 
Q 327.70327 332.060418 327.70327 333.20996 
Q 327.70327 335.252672 325.627479 335.252672 
Q 324.713634 335.252672 324.330453 334.863978 
z
M 324.330453 333.830217 
Q 324.80874 334.575903 325.657802 334.575903 
Q 326.898315 334.575903 326.898315 333.223744 
Q 326.898315 332.008041 324.899711 332.103147 
L 324.899711 331.371244 
Q 326.462757 331.371244 326.462757 329.992896 
Q 326.462757 329.050106 325.455185 329.050106 
Q 324.330453 329.050106 324.330453 330.393996 
z
"/>
   </g>
   <g id="patch_134">
    <path clip-path="url(#p2fb606282f)" d="M 292.582967 323.80825 
L 292.582967 337.922532 
L 278.468685 337.922532 
L 278.468685 323.80825 
L 292.582967 323.80825 
z
" style="fill:#0090bc;stroke:#000000;stroke-linejoin:miter;stroke-width:0.577241;"/>
   </g>
   <g id="patch_135">
    <path clip-path="url(#p2fb606282f)" d="M 250.240121 337.922532 
C 252.111696 337.922532 253.906869 337.178947 255.230273 335.855543 
C 256.553677 334.532139 257.297262 332.736966 257.297262 330.865391 
C 257.297262 328.993815 256.553677 327.198642 255.230273 325.875238 
C 253.906869 324.551834 252.111696 323.80825 250.240121 323.80825 
C 248.368545 323.80825 246.573372 324.551834 245.249968 325.875238 
C 243.926564 327.198642 243.18298 328.993815 243.18298 330.865391 
C 243.18298 332.736966 243.926564 334.532139 245.249968 335.855543 
C 246.573372 337.178947 248.368545 337.922532 250.240121 337.922532 
z
" style="fill:#ffd400;stroke:#000000;stroke-linejoin:miter;stroke-width:0.577241;"/>
   </g>
   <g id="patch_136">
    <path clip-path="url(#p2fb606282f)" d="M 255.532976 346.743958 
L 244.947265 357.32967 
z
" style="fill:#ffffff;stroke:#000000;stroke-linejoin:miter;stroke-width:0.577241;"/>
   </g>
   <g id="patch_137">
    <path clip-path="url(#p2fb606282f)" d="M 244.947265 346.743958 
L 255.532976 357.32967 
z
" style="fill:#ffffff;stroke:#000000;stroke-linejoin:miter;stroke-width:0.577241;"/>
   </g>
  </g>
  <g id="axes_7">
   <g id="line2d_51">
    <path clip-path="url(#p8d69ac1825)" d="M 315.529947 391.884734 
L 255.356303 391.884734 
" style="fill:none;stroke:#000000;stroke-linecap:square;stroke-width:0.591389;"/>
   </g>
   <g id="line2d_52">
    <path clip-path="url(#p8d69ac1825)" d="M 255.356303 391.884734 
L 255.356303 427.98892 
" style="fill:none;stroke:#000000;stroke-linecap:square;stroke-width:0.591389;"/>
   </g>
   <g id="patch_138">
    <path clip-path="url(#p8d69ac1825)" d="M 275.575588 390.173546 
L 275.575588 393.80982 
L 274.21698 393.80982 
L 274.21698 382.506107 
Q 274.21698 379.156598 277.345539 379.156598 
Q 280.535212 379.156598 280.535212 381.984289 
Q 280.535212 383.996345 279.270625 384.732062 
Q 281.327342 385.392562 281.327342 387.352906 
Q 281.327342 390.836396 277.787439 390.836396 
Q 276.229036 390.836396 275.575588 390.173546 
z
M 275.575588 388.410646 
Q 276.391223 389.682285 277.839151 389.682285 
Q 279.954631 389.682285 279.954631 387.376412 
Q 279.954631 385.303242 276.546358 385.465428 
L 276.546358 384.217295 
Q 279.211862 384.217295 279.211862 381.866762 
Q 279.211862 380.258998 277.493623 380.258998 
Q 275.575588 380.258998 275.575588 382.550768 
z
"/>
   </g>
   <g id="patch_139">
    <path clip-path="url(#p8d69ac1825)" d="M 296.544692 381.006467 
L 292.797943 386.861645 
L 296.544692 386.861645 
z
M 296.154504 379.713674 
L 298.020827 379.713674 
L 298.020827 386.861645 
L 299.586282 386.861645 
L 299.586282 388.095675 
L 298.020827 388.095675 
L 298.020827 390.681261 
L 296.544692 390.681261 
L 296.544692 388.095675 
L 291.59447 388.095675 
L 291.59447 386.6642 
z
"/>
   </g>
   <g id="patch_140">
    <path clip-path="url(#p8d69ac1825)" d="M 258.844494 417.552554 
L 264.022718 417.552554 
L 264.022718 418.800687 
L 257.06044 418.800687 
L 257.06044 417.552554 
Q 257.904281 416.678155 259.361611 415.206722 
Q 260.821292 413.732938 261.195027 413.305141 
Q 261.907239 412.505959 262.189303 411.951234 
Q 262.473717 411.396508 262.473717 410.860586 
Q 262.473717 409.986188 261.860228 409.436163 
Q 261.246739 408.883788 260.261865 408.883788 
Q 259.563757 408.883788 258.788081 409.125893 
Q 258.014756 409.367998 257.133306 409.86161 
L 257.133306 408.36197 
Q 258.028859 408.002338 258.806886 407.818997 
Q 259.587263 407.635655 260.233659 407.635655 
Q 261.937795 407.635655 262.950875 408.488899 
Q 263.963955 409.339792 263.963955 410.764215 
Q 263.963955 411.441168 263.710097 412.047606 
Q 263.45859 412.651693 262.788688 413.474379 
Q 262.605347 413.688278 261.620474 414.706058 
Q 260.637951 415.723839 258.844494 417.552554 
z
M 267.292016 416.934364 
L 268.841017 416.934364 
L 268.841017 418.19895 
L 267.637544 420.549483 
L 266.690279 420.549483 
L 267.292016 418.19895 
z
M 276.415316 412.886746 
Q 277.480107 413.114748 278.077142 413.836361 
Q 278.676528 414.555624 278.676528 415.613364 
Q 278.676528 417.235232 277.560025 418.126084 
Q 276.443522 419.014585 274.386806 419.014585 
Q 273.698099 419.014585 272.967084 418.878254 
Q 272.236068 418.741923 271.458042 418.469262 
L 271.458042 417.037787 
Q 272.073881 417.397419 272.807247 417.58076 
Q 273.542964 417.764102 274.344496 417.764102 
Q 275.738362 417.764102 276.469378 417.214077 
Q 277.200394 416.664052 277.200394 415.613364 
Q 277.200394 414.642594 276.52109 414.09727 
Q 275.841786 413.549596 274.631261 413.549596 
L 273.352571 413.549596 
L 273.352571 412.32967 
L 274.690024 412.32967 
Q 275.783022 412.32967 276.363604 411.89247 
Q 276.944185 411.455271 276.944185 410.632585 
Q 276.944185 409.788743 276.3448 409.337441 
Q 275.747764 408.883788 274.631261 408.883788 
Q 274.020122 408.883788 273.322014 409.017769 
Q 272.623906 409.149398 271.787116 409.426761 
L 271.787116 408.105762 
Q 272.633308 407.870708 273.371375 407.753182 
Q 274.109443 407.635655 274.762891 407.635655 
Q 276.452924 407.635655 277.435447 408.404279 
Q 278.42032 409.170553 278.42032 410.47745 
Q 278.42032 411.389456 277.898502 412.017049 
Q 277.376684 412.644641 276.415316 412.886746 
z
M 281.644958 416.934364 
L 283.193959 416.934364 
L 283.193959 418.19895 
L 281.990486 420.549483 
L 281.043221 420.549483 
L 281.644958 418.19895 
z
M 290.349863 409.125893 
L 286.603113 414.981071 
L 290.349863 414.981071 
z
M 289.959674 407.8331 
L 291.825997 407.8331 
L 291.825997 414.981071 
L 293.391452 414.981071 
L 293.391452 416.2151 
L 291.825997 416.2151 
L 291.825997 418.800687 
L 290.349863 418.800687 
L 290.349863 416.2151 
L 285.39964 416.2151 
L 285.39964 414.783626 
z
"/>
   </g>
   <g id="patch_141">
    <path clip-path="url(#p8d69ac1825)" d="M 327.564676 379.850005 
L 327.564676 403.919463 
L 303.495218 403.919463 
L 303.495218 379.850005 
L 327.564676 379.850005 
z
" style="fill:#0090bc;stroke:#000000;stroke-linejoin:miter;stroke-width:0.591389;"/>
   </g>
   <g id="patch_142">
    <path clip-path="url(#p8d69ac1825)" d="M 255.356303 403.919463 
C 258.547951 403.919463 261.609306 402.651408 263.866141 400.394572 
C 266.122977 398.137737 267.391032 395.076381 267.391032 391.884734 
C 267.391032 388.693087 266.122977 385.631731 263.866141 383.374896 
C 261.609306 381.11806 258.547951 379.850005 255.356303 379.850005 
C 252.164656 379.850005 249.1033 381.11806 246.846465 383.374896 
C 244.589629 385.631731 243.321574 388.693087 243.321574 391.884734 
C 243.321574 395.076381 244.589629 398.137737 246.846465 400.394572 
C 249.1033 402.651408 252.164656 403.919463 255.356303 403.919463 
z
" style="fill:#ffd400;stroke:#000000;stroke-linejoin:miter;stroke-width:0.591389;"/>
   </g>
   <g id="patch_143">
    <path clip-path="url(#p8d69ac1825)" d="M 264.38235 418.962873 
L 246.330257 437.014967 
z
" style="fill:#ffffff;stroke:#000000;stroke-linejoin:miter;stroke-width:0.591389;"/>
   </g>
   <g id="patch_144">
    <path clip-path="url(#p8d69ac1825)" d="M 246.330257 418.962873 
L 264.38235 437.014967 
z
" style="fill:#ffffff;stroke:#000000;stroke-linejoin:miter;stroke-width:0.591389;"/>
   </g>
  </g>
  <g id="text_42">
   <!-- SNA_10ug_13631_v5.0_DATA.csv -->
   <defs>
    <path d="M 53.515625 70.515625 
L 53.515625 60.890625 
Q 47.90625 63.578125 42.921875 64.890625 
Q 37.9375 66.21875 33.296875 66.21875 
Q 25.25 66.21875 20.875 63.09375 
Q 16.5 59.96875 16.5 54.203125 
Q 16.5 49.359375 19.40625 46.890625 
Q 22.3125 44.4375 30.421875 42.921875 
L 36.375 41.703125 
Q 47.40625 39.59375 52.65625 34.296875 
Q 57.90625 29 57.90625 20.125 
Q 57.90625 9.515625 50.796875 4.046875 
Q 43.703125 -1.421875 29.984375 -1.421875 
Q 24.8125 -1.421875 18.96875 -0.25 
Q 13.140625 0.921875 6.890625 3.21875 
L 6.890625 13.375 
Q 12.890625 10.015625 18.65625 8.296875 
Q 24.421875 6.59375 29.984375 6.59375 
Q 38.421875 6.59375 43.015625 9.90625 
Q 47.609375 13.234375 47.609375 19.390625 
Q 47.609375 24.75 44.3125 27.78125 
Q 41.015625 30.8125 33.5 32.328125 
L 27.484375 33.5 
Q 16.453125 35.6875 11.515625 40.375 
Q 6.59375 45.0625 6.59375 53.421875 
Q 6.59375 63.09375 13.40625 68.65625 
Q 20.21875 74.21875 32.171875 74.21875 
Q 37.3125 74.21875 42.625 73.28125 
Q 47.953125 72.359375 53.515625 70.515625 
z
" id="DejaVuSans-83"/>
    <path d="M 9.8125 72.90625 
L 23.09375 72.90625 
L 55.421875 11.921875 
L 55.421875 72.90625 
L 64.984375 72.90625 
L 64.984375 0 
L 51.703125 0 
L 19.390625 60.984375 
L 19.390625 0 
L 9.8125 0 
z
" id="DejaVuSans-78"/>
    <path d="M 50.984375 -16.609375 
L 50.984375 -23.578125 
L -0.984375 -23.578125 
L -0.984375 -16.609375 
z
" id="DejaVuSans-95"/>
    <path d="M 10.796875 72.90625 
L 49.515625 72.90625 
L 49.515625 64.59375 
L 19.828125 64.59375 
L 19.828125 46.734375 
Q 21.96875 47.46875 24.109375 47.828125 
Q 26.265625 48.1875 28.421875 48.1875 
Q 40.625 48.1875 47.75 41.5 
Q 54.890625 34.8125 54.890625 23.390625 
Q 54.890625 11.625 47.5625 5.09375 
Q 40.234375 -1.421875 26.90625 -1.421875 
Q 22.3125 -1.421875 17.546875 -0.640625 
Q 12.796875 0.140625 7.71875 1.703125 
L 7.71875 11.625 
Q 12.109375 9.234375 16.796875 8.0625 
Q 21.484375 6.890625 26.703125 6.890625 
Q 35.15625 6.890625 40.078125 11.328125 
Q 45.015625 15.765625 45.015625 23.390625 
Q 45.015625 31 40.078125 35.4375 
Q 35.15625 39.890625 26.703125 39.890625 
Q 22.75 39.890625 18.8125 39.015625 
Q 14.890625 38.140625 10.796875 36.28125 
z
" id="DejaVuSans-53"/>
    <path d="M 19.671875 64.796875 
L 19.671875 8.109375 
L 31.59375 8.109375 
Q 46.6875 8.109375 53.6875 14.9375 
Q 60.6875 21.78125 60.6875 36.53125 
Q 60.6875 51.171875 53.6875 57.984375 
Q 46.6875 64.796875 31.59375 64.796875 
z
M 9.8125 72.90625 
L 30.078125 72.90625 
Q 51.265625 72.90625 61.171875 64.09375 
Q 71.09375 55.28125 71.09375 36.53125 
Q 71.09375 17.671875 61.125 8.828125 
Q 51.171875 0 30.078125 0 
L 9.8125 0 
z
" id="DejaVuSans-68"/>
   </defs>
   <g transform="translate(187.809375 18.41025)scale(0.12 -0.12)">
    <use xlink:href="#DejaVuSans-83"/>
    <use x="63.476562" xlink:href="#DejaVuSans-78"/>
    <use x="138.28125" xlink:href="#DejaVuSans-65"/>
    <use x="206.689453" xlink:href="#DejaVuSans-95"/>
    <use x="256.689453" xlink:href="#DejaVuSans-49"/>
    <use x="320.3125" xlink:href="#DejaVuSans-48"/>
    <use x="383.935547" xlink:href="#DejaVuSans-117"/>
    <use x="447.314453" xlink:href="#DejaVuSans-103"/>
    <use x="510.791016" xlink:href="#DejaVuSans-95"/>
    <use x="560.791016" xlink:href="#DejaVuSans-49"/>
    <use x="624.414062" xlink:href="#DejaVuSans-51"/>
    <use x="688.037109" xlink:href="#DejaVuSans-54"/>
    <use x="751.660156" xlink:href="#DejaVuSans-51"/>
    <use x="815.283203" xlink:href="#DejaVuSans-49"/>
    <use x="878.90625" xlink:href="#DejaVuSans-95"/>
    <use x="928.90625" xlink:href="#DejaVuSans-118"/>
    <use x="988.085938" xlink:href="#DejaVuSans-53"/>
    <use x="1051.708984" xlink:href="#DejaVuSans-46"/>
    <use x="1083.496094" xlink:href="#DejaVuSans-48"/>
    <use x="1147.119141" xlink:href="#DejaVuSans-95"/>
    <use x="1197.119141" xlink:href="#DejaVuSans-68"/>
    <use x="1274.105469" xlink:href="#DejaVuSans-65"/>
    <use x="1342.404297" xlink:href="#DejaVuSans-84"/>
    <use x="1403.378906" xlink:href="#DejaVuSans-65"/>
    <use x="1471.771484" xlink:href="#DejaVuSans-46"/>
    <use x="1503.558594" xlink:href="#DejaVuSans-99"/>
    <use x="1558.539062" xlink:href="#DejaVuSans-115"/>
    <use x="1610.638672" xlink:href="#DejaVuSans-118"/>
   </g>
  </g>
 </g>
 <defs>
  <clipPath id="pf9dc85a610">
   <rect height="127.288411" width="295.52592" x="36.403365" y="76.150579"/>
  </clipPath>
  <clipPath id="p0706e92e4d">
   <rect height="196.59254" width="194.24912" x="36.403365" y="243.315345"/>
  </clipPath>
  <clipPath id="p943071d09e">
   <rect height="196.59254" width="194.24912" x="378.75064" y="243.315345"/>
  </clipPath>
  <clipPath id="pde68401182">
   <rect height="127.288411" width="194.24912" x="378.75064" y="76.150579"/>
  </clipPath>
  <clipPath id="p5d344c67b8">
   <rect height="21.182609" width="92.97232" x="238.956965" y="264.546143"/>
  </clipPath>
  <clipPath id="p2fb606282f">
   <rect height="37.320836" width="92.97232" x="238.956965" y="321.705235"/>
  </clipPath>
  <clipPath id="p8d69ac1825">
   <rect height="63.644205" width="92.667411" x="239.109419" y="376.26368"/>
  </clipPath>
 </defs>
</svg>
