<?xml version="1.0" encoding="utf-8" standalone="no"?>
<!DOCTYPE svg PUBLIC "-//W3C//DTD SVG 1.1//EN"
  "http://www.w3.org/Graphics/SVG/1.1/DTD/svg11.dtd">
<!-- Created with matplotlib (https://matplotlib.org/) -->
<svg height="288pt" version="1.1" viewBox="0 0 288 288" width="288pt" xmlns="http://www.w3.org/2000/svg" xmlns:xlink="http://www.w3.org/1999/xlink">
 <defs>
  <style type="text/css">
*{stroke-linecap:butt;stroke-linejoin:round;}
  </style>
 </defs>
 <g id="figure_1">
  <g id="patch_1">
   <path d="M 0 288 
L 288 288 
L 288 0 
L 0 0 
z
" style="fill:#ffffff;"/>
  </g>
  <g id="axes_1">
   <g id="patch_2">
    <path d="M 38.88 252 
L 256.32 252 
L 256.32 34.56 
L 38.88 34.56 
z
" style="fill:#ffffff;"/>
   </g>
   <g id="PolyCollection_1">
    <defs>
     <path d="M 48.763636 -113.508517 
L 48.763636 -45.883636 
L 50.760331 -71.341488 
L 52.757025 -98.907387 
L 54.753719 -112.218042 
L 56.750413 -132.365455 
L 58.747107 -134.091847 
L 60.743802 -150.622172 
L 62.740496 -151.681652 
L 64.73719 -162.849195 
L 66.733884 -163.506003 
L 68.730579 -164.16281 
L 70.727273 -164.761818 
L 72.723967 -167.454728 
L 74.720661 -170.081207 
L 76.717355 -174.448788 
L 78.71405 -183.826682 
L 80.710744 -189.816765 
L 82.707438 -196.161816 
L 84.704132 -196.864437 
L 86.700826 -197.208312 
L 88.697521 -197.552188 
L 90.694215 -197.896063 
L 92.690909 -198.840653 
L 94.687603 -199.872278 
L 96.684298 -201.411666 
L 98.680992 -203.100099 
L 100.677686 -204.021818 
L 102.67438 -204.021818 
L 104.671074 -204.021818 
L 106.667769 -204.021818 
L 108.664463 -204.021818 
L 110.661157 -204.819768 
L 112.657851 -206.04458 
L 114.654545 -207.269392 
L 116.65124 -208.494205 
L 118.647934 -209.719017 
L 120.644628 -210.943829 
L 122.641322 -212.168642 
L 124.638017 -213.393454 
L 126.634711 -214.618266 
L 128.631405 -215.843079 
L 130.628099 -217.067891 
L 132.624793 -218.292703 
L 134.621488 -219.517516 
L 136.618182 -220.742328 
L 138.614876 -221.434369 
L 140.61157 -222.005836 
L 142.608264 -222.894021 
L 144.604959 -223.782206 
L 146.601653 -224.67039 
L 148.598347 -225.558575 
L 150.595041 -226.44676 
L 152.591736 -227.334944 
L 154.58843 -228.097343 
L 156.585124 -228.181818 
L 158.581818 -228.694303 
L 160.578512 -228.975287 
L 162.575207 -229.367681 
L 164.571901 -229.760075 
L 166.568595 -230.152469 
L 168.565289 -230.544862 
L 170.561983 -230.937256 
L 172.558678 -231.32965 
L 174.555372 -231.722044 
L 176.552066 -232.114438 
L 178.54876 -232.335449 
L 180.545455 -232.514862 
L 182.542149 -232.694275 
L 184.538843 -232.873688 
L 186.535537 -233.053101 
L 188.532231 -233.232514 
L 190.528926 -233.411927 
L 192.52562 -233.59134 
L 194.522314 -233.966806 
L 196.519008 -234.505045 
L 198.515702 -235.047091 
L 200.512397 -235.813766 
L 202.509091 -236.580441 
L 204.505785 -237.301973 
L 206.502479 -237.743389 
L 208.499174 -238.232711 
L 210.495868 -238.98901 
L 212.492562 -240.413814 
L 214.489256 -241.180489 
L 216.48595 -241.947163 
L 218.482645 -242.58034 
L 220.479339 -243.141168 
L 222.476033 -243.285295 
L 224.472727 -243.307884 
L 226.469421 -243.330473 
L 228.466116 -243.353062 
L 230.46281 -243.375651 
L 232.459504 -243.556364 
L 234.456198 -243.556364 
L 236.452893 -243.556364 
L 238.449587 -243.556364 
L 240.446281 -243.556364 
L 242.442975 -243.556364 
L 244.439669 -243.556364 
L 246.436364 -243.556364 
L 246.436364 -243.556364 
L 246.436364 -243.556364 
L 244.439669 -243.556364 
L 242.442975 -243.556364 
L 240.446281 -243.556364 
L 238.449587 -243.556364 
L 236.452893 -243.556364 
L 234.456198 -243.556364 
L 232.459504 -243.556364 
L 230.46281 -243.556364 
L 228.466116 -243.556364 
L 226.469421 -243.556364 
L 224.472727 -243.556364 
L 222.476033 -243.556364 
L 220.479339 -243.556364 
L 218.482645 -243.556364 
L 216.48595 -243.556364 
L 214.489256 -243.556364 
L 212.492562 -243.556364 
L 210.495868 -243.556364 
L 208.499174 -243.556364 
L 206.502479 -243.556364 
L 204.505785 -243.556364 
L 202.509091 -243.556364 
L 200.512397 -243.556364 
L 198.515702 -243.556364 
L 196.519008 -243.556364 
L 194.522314 -243.556364 
L 192.52562 -243.556364 
L 190.528926 -243.556364 
L 188.532231 -243.556364 
L 186.535537 -243.556364 
L 184.538843 -243.556364 
L 182.542149 -243.556364 
L 180.545455 -243.556364 
L 178.54876 -243.556364 
L 176.552066 -243.556364 
L 174.555372 -243.556364 
L 172.558678 -243.556364 
L 170.561983 -243.556364 
L 168.565289 -243.556364 
L 166.568595 -243.556364 
L 164.571901 -243.556364 
L 162.575207 -243.556364 
L 160.578512 -243.556364 
L 158.581818 -243.556364 
L 156.585124 -243.556364 
L 154.58843 -243.556364 
L 152.591736 -243.556364 
L 150.595041 -243.556364 
L 148.598347 -243.556364 
L 146.601653 -243.556364 
L 144.604959 -243.556364 
L 142.608264 -243.556364 
L 140.61157 -243.556364 
L 138.614876 -243.556364 
L 136.618182 -243.556364 
L 134.621488 -243.556364 
L 132.624793 -243.556364 
L 130.628099 -243.556364 
L 128.631405 -243.556364 
L 126.634711 -243.556364 
L 124.638017 -243.556364 
L 122.641322 -243.556364 
L 120.644628 -243.556364 
L 118.647934 -243.556364 
L 116.65124 -243.556364 
L 114.654545 -243.556364 
L 112.657851 -243.556364 
L 110.661157 -243.556364 
L 108.664463 -243.556364 
L 106.667769 -243.556364 
L 104.671074 -243.556364 
L 102.67438 -243.556364 
L 100.677686 -243.556364 
L 98.680992 -243.556364 
L 96.684298 -243.556364 
L 94.687603 -243.556364 
L 92.690909 -243.556364 
L 90.694215 -240.41157 
L 88.697521 -238.20276 
L 86.700826 -238.134993 
L 84.704132 -237.318466 
L 82.707438 -234.291335 
L 80.710744 -234.268746 
L 78.71405 -234.246157 
L 76.717355 -234.223568 
L 74.720661 -225.140979 
L 72.723967 -225.11839 
L 70.727273 -225.095801 
L 68.730579 -225.005907 
L 66.733884 -224.837355 
L 64.73719 -223.736905 
L 62.740496 -222.330143 
L 60.743802 -219.584688 
L 58.747107 -214.607323 
L 56.750413 -211.074427 
L 54.753719 -206.799038 
L 52.757025 -198.116444 
L 50.760331 -164.697639 
L 48.763636 -113.508517 
z
" id="m6c4a11a083" style="stroke:#808080;stroke-opacity:0.5;"/>
    </defs>
    <g clip-path="url(#p5bea63759a)">
     <use style="fill:#808080;fill-opacity:0.5;stroke:#808080;stroke-opacity:0.5;" x="0" xlink:href="#m6c4a11a083" y="288"/>
    </g>
   </g>
   <g id="matplotlib.axis_1">
    <g id="xtick_1">
     <g id="line2d_1">
      <defs>
       <path d="M 0 0 
L 0 3.5 
" id="m92dc3a0506" style="stroke:#000000;stroke-width:0.8;"/>
      </defs>
      <g>
       <use style="stroke:#000000;stroke-width:0.8;" x="48.763636" xlink:href="#m92dc3a0506" y="252"/>
      </g>
     </g>
     <g id="text_1">
      <!-- 0.0 -->
      <defs>
       <path d="M 31.78125 66.40625 
Q 24.171875 66.40625 20.328125 58.90625 
Q 16.5 51.421875 16.5 36.375 
Q 16.5 21.390625 20.328125 13.890625 
Q 24.171875 6.390625 31.78125 6.390625 
Q 39.453125 6.390625 43.28125 13.890625 
Q 47.125 21.390625 47.125 36.375 
Q 47.125 51.421875 43.28125 58.90625 
Q 39.453125 66.40625 31.78125 66.40625 
z
M 31.78125 74.21875 
Q 44.046875 74.21875 50.515625 64.515625 
Q 56.984375 54.828125 56.984375 36.375 
Q 56.984375 17.96875 50.515625 8.265625 
Q 44.046875 -1.421875 31.78125 -1.421875 
Q 19.53125 -1.421875 13.0625 8.265625 
Q 6.59375 17.96875 6.59375 36.375 
Q 6.59375 54.828125 13.0625 64.515625 
Q 19.53125 74.21875 31.78125 74.21875 
z
" id="DejaVuSans-48"/>
       <path d="M 10.6875 12.40625 
L 21 12.40625 
L 21 0 
L 10.6875 0 
z
" id="DejaVuSans-46"/>
      </defs>
      <g transform="translate(40.812074 266.598437)scale(0.1 -0.1)">
       <use xlink:href="#DejaVuSans-48"/>
       <use x="63.623047" xlink:href="#DejaVuSans-46"/>
       <use x="95.410156" xlink:href="#DejaVuSans-48"/>
      </g>
     </g>
    </g>
    <g id="xtick_2">
     <g id="line2d_2">
      <g>
       <use style="stroke:#000000;stroke-width:0.8;" x="88.298182" xlink:href="#m92dc3a0506" y="252"/>
      </g>
     </g>
     <g id="text_2">
      <!-- 0.2 -->
      <defs>
       <path d="M 19.1875 8.296875 
L 53.609375 8.296875 
L 53.609375 0 
L 7.328125 0 
L 7.328125 8.296875 
Q 12.9375 14.109375 22.625 23.890625 
Q 32.328125 33.6875 34.8125 36.53125 
Q 39.546875 41.84375 41.421875 45.53125 
Q 43.3125 49.21875 43.3125 52.78125 
Q 43.3125 58.59375 39.234375 62.25 
Q 35.15625 65.921875 28.609375 65.921875 
Q 23.96875 65.921875 18.8125 64.3125 
Q 13.671875 62.703125 7.8125 59.421875 
L 7.8125 69.390625 
Q 13.765625 71.78125 18.9375 73 
Q 24.125 74.21875 28.421875 74.21875 
Q 39.75 74.21875 46.484375 68.546875 
Q 53.21875 62.890625 53.21875 53.421875 
Q 53.21875 48.921875 51.53125 44.890625 
Q 49.859375 40.875 45.40625 35.40625 
Q 44.1875 33.984375 37.640625 27.21875 
Q 31.109375 20.453125 19.1875 8.296875 
z
" id="DejaVuSans-50"/>
      </defs>
      <g transform="translate(80.346619 266.598437)scale(0.1 -0.1)">
       <use xlink:href="#DejaVuSans-48"/>
       <use x="63.623047" xlink:href="#DejaVuSans-46"/>
       <use x="95.410156" xlink:href="#DejaVuSans-50"/>
      </g>
     </g>
    </g>
    <g id="xtick_3">
     <g id="line2d_3">
      <g>
       <use style="stroke:#000000;stroke-width:0.8;" x="127.832727" xlink:href="#m92dc3a0506" y="252"/>
      </g>
     </g>
     <g id="text_3">
      <!-- 0.4 -->
      <defs>
       <path d="M 37.796875 64.3125 
L 12.890625 25.390625 
L 37.796875 25.390625 
z
M 35.203125 72.90625 
L 47.609375 72.90625 
L 47.609375 25.390625 
L 58.015625 25.390625 
L 58.015625 17.1875 
L 47.609375 17.1875 
L 47.609375 0 
L 37.796875 0 
L 37.796875 17.1875 
L 4.890625 17.1875 
L 4.890625 26.703125 
z
" id="DejaVuSans-52"/>
      </defs>
      <g transform="translate(119.881165 266.598437)scale(0.1 -0.1)">
       <use xlink:href="#DejaVuSans-48"/>
       <use x="63.623047" xlink:href="#DejaVuSans-46"/>
       <use x="95.410156" xlink:href="#DejaVuSans-52"/>
      </g>
     </g>
    </g>
    <g id="xtick_4">
     <g id="line2d_4">
      <g>
       <use style="stroke:#000000;stroke-width:0.8;" x="167.367273" xlink:href="#m92dc3a0506" y="252"/>
      </g>
     </g>
     <g id="text_4">
      <!-- 0.6 -->
      <defs>
       <path d="M 33.015625 40.375 
Q 26.375 40.375 22.484375 35.828125 
Q 18.609375 31.296875 18.609375 23.390625 
Q 18.609375 15.53125 22.484375 10.953125 
Q 26.375 6.390625 33.015625 6.390625 
Q 39.65625 6.390625 43.53125 10.953125 
Q 47.40625 15.53125 47.40625 23.390625 
Q 47.40625 31.296875 43.53125 35.828125 
Q 39.65625 40.375 33.015625 40.375 
z
M 52.59375 71.296875 
L 52.59375 62.3125 
Q 48.875 64.0625 45.09375 64.984375 
Q 41.3125 65.921875 37.59375 65.921875 
Q 27.828125 65.921875 22.671875 59.328125 
Q 17.53125 52.734375 16.796875 39.40625 
Q 19.671875 43.65625 24.015625 45.921875 
Q 28.375 48.1875 33.59375 48.1875 
Q 44.578125 48.1875 50.953125 41.515625 
Q 57.328125 34.859375 57.328125 23.390625 
Q 57.328125 12.15625 50.6875 5.359375 
Q 44.046875 -1.421875 33.015625 -1.421875 
Q 20.359375 -1.421875 13.671875 8.265625 
Q 6.984375 17.96875 6.984375 36.375 
Q 6.984375 53.65625 15.1875 63.9375 
Q 23.390625 74.21875 37.203125 74.21875 
Q 40.921875 74.21875 44.703125 73.484375 
Q 48.484375 72.75 52.59375 71.296875 
z
" id="DejaVuSans-54"/>
      </defs>
      <g transform="translate(159.41571 266.598437)scale(0.1 -0.1)">
       <use xlink:href="#DejaVuSans-48"/>
       <use x="63.623047" xlink:href="#DejaVuSans-46"/>
       <use x="95.410156" xlink:href="#DejaVuSans-54"/>
      </g>
     </g>
    </g>
    <g id="xtick_5">
     <g id="line2d_5">
      <g>
       <use style="stroke:#000000;stroke-width:0.8;" x="206.901818" xlink:href="#m92dc3a0506" y="252"/>
      </g>
     </g>
     <g id="text_5">
      <!-- 0.8 -->
      <defs>
       <path d="M 31.78125 34.625 
Q 24.75 34.625 20.71875 30.859375 
Q 16.703125 27.09375 16.703125 20.515625 
Q 16.703125 13.921875 20.71875 10.15625 
Q 24.75 6.390625 31.78125 6.390625 
Q 38.8125 6.390625 42.859375 10.171875 
Q 46.921875 13.96875 46.921875 20.515625 
Q 46.921875 27.09375 42.890625 30.859375 
Q 38.875 34.625 31.78125 34.625 
z
M 21.921875 38.8125 
Q 15.578125 40.375 12.03125 44.71875 
Q 8.5 49.078125 8.5 55.328125 
Q 8.5 64.0625 14.71875 69.140625 
Q 20.953125 74.21875 31.78125 74.21875 
Q 42.671875 74.21875 48.875 69.140625 
Q 55.078125 64.0625 55.078125 55.328125 
Q 55.078125 49.078125 51.53125 44.71875 
Q 48 40.375 41.703125 38.8125 
Q 48.828125 37.15625 52.796875 32.3125 
Q 56.78125 27.484375 56.78125 20.515625 
Q 56.78125 9.90625 50.3125 4.234375 
Q 43.84375 -1.421875 31.78125 -1.421875 
Q 19.734375 -1.421875 13.25 4.234375 
Q 6.78125 9.90625 6.78125 20.515625 
Q 6.78125 27.484375 10.78125 32.3125 
Q 14.796875 37.15625 21.921875 38.8125 
z
M 18.3125 54.390625 
Q 18.3125 48.734375 21.84375 45.5625 
Q 25.390625 42.390625 31.78125 42.390625 
Q 38.140625 42.390625 41.71875 45.5625 
Q 45.3125 48.734375 45.3125 54.390625 
Q 45.3125 60.0625 41.71875 63.234375 
Q 38.140625 66.40625 31.78125 66.40625 
Q 25.390625 66.40625 21.84375 63.234375 
Q 18.3125 60.0625 18.3125 54.390625 
z
" id="DejaVuSans-56"/>
      </defs>
      <g transform="translate(198.950256 266.598437)scale(0.1 -0.1)">
       <use xlink:href="#DejaVuSans-48"/>
       <use x="63.623047" xlink:href="#DejaVuSans-46"/>
       <use x="95.410156" xlink:href="#DejaVuSans-56"/>
      </g>
     </g>
    </g>
    <g id="xtick_6">
     <g id="line2d_6">
      <g>
       <use style="stroke:#000000;stroke-width:0.8;" x="246.436364" xlink:href="#m92dc3a0506" y="252"/>
      </g>
     </g>
     <g id="text_6">
      <!-- 1.0 -->
      <defs>
       <path d="M 12.40625 8.296875 
L 28.515625 8.296875 
L 28.515625 63.921875 
L 10.984375 60.40625 
L 10.984375 69.390625 
L 28.421875 72.90625 
L 38.28125 72.90625 
L 38.28125 8.296875 
L 54.390625 8.296875 
L 54.390625 0 
L 12.40625 0 
z
" id="DejaVuSans-49"/>
      </defs>
      <g transform="translate(238.484801 266.598437)scale(0.1 -0.1)">
       <use xlink:href="#DejaVuSans-49"/>
       <use x="63.623047" xlink:href="#DejaVuSans-46"/>
       <use x="95.410156" xlink:href="#DejaVuSans-48"/>
      </g>
     </g>
    </g>
    <g id="text_7">
     <!-- False Positive Rate -->
     <defs>
      <path d="M 9.8125 72.90625 
L 51.703125 72.90625 
L 51.703125 64.59375 
L 19.671875 64.59375 
L 19.671875 43.109375 
L 48.578125 43.109375 
L 48.578125 34.8125 
L 19.671875 34.8125 
L 19.671875 0 
L 9.8125 0 
z
" id="DejaVuSans-70"/>
      <path d="M 34.28125 27.484375 
Q 23.390625 27.484375 19.1875 25 
Q 14.984375 22.515625 14.984375 16.5 
Q 14.984375 11.71875 18.140625 8.90625 
Q 21.296875 6.109375 26.703125 6.109375 
Q 34.1875 6.109375 38.703125 11.40625 
Q 43.21875 16.703125 43.21875 25.484375 
L 43.21875 27.484375 
z
M 52.203125 31.203125 
L 52.203125 0 
L 43.21875 0 
L 43.21875 8.296875 
Q 40.140625 3.328125 35.546875 0.953125 
Q 30.953125 -1.421875 24.3125 -1.421875 
Q 15.921875 -1.421875 10.953125 3.296875 
Q 6 8.015625 6 15.921875 
Q 6 25.140625 12.171875 29.828125 
Q 18.359375 34.515625 30.609375 34.515625 
L 43.21875 34.515625 
L 43.21875 35.40625 
Q 43.21875 41.609375 39.140625 45 
Q 35.0625 48.390625 27.6875 48.390625 
Q 23 48.390625 18.546875 47.265625 
Q 14.109375 46.140625 10.015625 43.890625 
L 10.015625 52.203125 
Q 14.9375 54.109375 19.578125 55.046875 
Q 24.21875 56 28.609375 56 
Q 40.484375 56 46.34375 49.84375 
Q 52.203125 43.703125 52.203125 31.203125 
z
" id="DejaVuSans-97"/>
      <path d="M 9.421875 75.984375 
L 18.40625 75.984375 
L 18.40625 0 
L 9.421875 0 
z
" id="DejaVuSans-108"/>
      <path d="M 44.28125 53.078125 
L 44.28125 44.578125 
Q 40.484375 46.53125 36.375 47.5 
Q 32.28125 48.484375 27.875 48.484375 
Q 21.1875 48.484375 17.84375 46.4375 
Q 14.5 44.390625 14.5 40.28125 
Q 14.5 37.15625 16.890625 35.375 
Q 19.28125 33.59375 26.515625 31.984375 
L 29.59375 31.296875 
Q 39.15625 29.25 43.1875 25.515625 
Q 47.21875 21.78125 47.21875 15.09375 
Q 47.21875 7.46875 41.1875 3.015625 
Q 35.15625 -1.421875 24.609375 -1.421875 
Q 20.21875 -1.421875 15.453125 -0.5625 
Q 10.6875 0.296875 5.421875 2 
L 5.421875 11.28125 
Q 10.40625 8.6875 15.234375 7.390625 
Q 20.0625 6.109375 24.8125 6.109375 
Q 31.15625 6.109375 34.5625 8.28125 
Q 37.984375 10.453125 37.984375 14.40625 
Q 37.984375 18.0625 35.515625 20.015625 
Q 33.0625 21.96875 24.703125 23.78125 
L 21.578125 24.515625 
Q 13.234375 26.265625 9.515625 29.90625 
Q 5.8125 33.546875 5.8125 39.890625 
Q 5.8125 47.609375 11.28125 51.796875 
Q 16.75 56 26.8125 56 
Q 31.78125 56 36.171875 55.265625 
Q 40.578125 54.546875 44.28125 53.078125 
z
" id="DejaVuSans-115"/>
      <path d="M 56.203125 29.59375 
L 56.203125 25.203125 
L 14.890625 25.203125 
Q 15.484375 15.921875 20.484375 11.0625 
Q 25.484375 6.203125 34.421875 6.203125 
Q 39.59375 6.203125 44.453125 7.46875 
Q 49.3125 8.734375 54.109375 11.28125 
L 54.109375 2.78125 
Q 49.265625 0.734375 44.1875 -0.34375 
Q 39.109375 -1.421875 33.890625 -1.421875 
Q 20.796875 -1.421875 13.15625 6.1875 
Q 5.515625 13.8125 5.515625 26.8125 
Q 5.515625 40.234375 12.765625 48.109375 
Q 20.015625 56 32.328125 56 
Q 43.359375 56 49.78125 48.890625 
Q 56.203125 41.796875 56.203125 29.59375 
z
M 47.21875 32.234375 
Q 47.125 39.59375 43.09375 43.984375 
Q 39.0625 48.390625 32.421875 48.390625 
Q 24.90625 48.390625 20.390625 44.140625 
Q 15.875 39.890625 15.1875 32.171875 
z
" id="DejaVuSans-101"/>
      <path id="DejaVuSans-32"/>
      <path d="M 19.671875 64.796875 
L 19.671875 37.40625 
L 32.078125 37.40625 
Q 38.96875 37.40625 42.71875 40.96875 
Q 46.484375 44.53125 46.484375 51.125 
Q 46.484375 57.671875 42.71875 61.234375 
Q 38.96875 64.796875 32.078125 64.796875 
z
M 9.8125 72.90625 
L 32.078125 72.90625 
Q 44.34375 72.90625 50.609375 67.359375 
Q 56.890625 61.8125 56.890625 51.125 
Q 56.890625 40.328125 50.609375 34.8125 
Q 44.34375 29.296875 32.078125 29.296875 
L 19.671875 29.296875 
L 19.671875 0 
L 9.8125 0 
z
" id="DejaVuSans-80"/>
      <path d="M 30.609375 48.390625 
Q 23.390625 48.390625 19.1875 42.75 
Q 14.984375 37.109375 14.984375 27.296875 
Q 14.984375 17.484375 19.15625 11.84375 
Q 23.34375 6.203125 30.609375 6.203125 
Q 37.796875 6.203125 41.984375 11.859375 
Q 46.1875 17.53125 46.1875 27.296875 
Q 46.1875 37.015625 41.984375 42.703125 
Q 37.796875 48.390625 30.609375 48.390625 
z
M 30.609375 56 
Q 42.328125 56 49.015625 48.375 
Q 55.71875 40.765625 55.71875 27.296875 
Q 55.71875 13.875 49.015625 6.21875 
Q 42.328125 -1.421875 30.609375 -1.421875 
Q 18.84375 -1.421875 12.171875 6.21875 
Q 5.515625 13.875 5.515625 27.296875 
Q 5.515625 40.765625 12.171875 48.375 
Q 18.84375 56 30.609375 56 
z
" id="DejaVuSans-111"/>
      <path d="M 9.421875 54.6875 
L 18.40625 54.6875 
L 18.40625 0 
L 9.421875 0 
z
M 9.421875 75.984375 
L 18.40625 75.984375 
L 18.40625 64.59375 
L 9.421875 64.59375 
z
" id="DejaVuSans-105"/>
      <path d="M 18.3125 70.21875 
L 18.3125 54.6875 
L 36.8125 54.6875 
L 36.8125 47.703125 
L 18.3125 47.703125 
L 18.3125 18.015625 
Q 18.3125 11.328125 20.140625 9.421875 
Q 21.96875 7.515625 27.59375 7.515625 
L 36.8125 7.515625 
L 36.8125 0 
L 27.59375 0 
Q 17.1875 0 13.234375 3.875 
Q 9.28125 7.765625 9.28125 18.015625 
L 9.28125 47.703125 
L 2.6875 47.703125 
L 2.6875 54.6875 
L 9.28125 54.6875 
L 9.28125 70.21875 
z
" id="DejaVuSans-116"/>
      <path d="M 2.984375 54.6875 
L 12.5 54.6875 
L 29.59375 8.796875 
L 46.6875 54.6875 
L 56.203125 54.6875 
L 35.6875 0 
L 23.484375 0 
z
" id="DejaVuSans-118"/>
      <path d="M 44.390625 34.1875 
Q 47.5625 33.109375 50.5625 29.59375 
Q 53.5625 26.078125 56.59375 19.921875 
L 66.609375 0 
L 56 0 
L 46.6875 18.703125 
Q 43.0625 26.03125 39.671875 28.421875 
Q 36.28125 30.8125 30.421875 30.8125 
L 19.671875 30.8125 
L 19.671875 0 
L 9.8125 0 
L 9.8125 72.90625 
L 32.078125 72.90625 
Q 44.578125 72.90625 50.734375 67.671875 
Q 56.890625 62.453125 56.890625 51.90625 
Q 56.890625 45.015625 53.6875 40.46875 
Q 50.484375 35.9375 44.390625 34.1875 
z
M 19.671875 64.796875 
L 19.671875 38.921875 
L 32.078125 38.921875 
Q 39.203125 38.921875 42.84375 42.21875 
Q 46.484375 45.515625 46.484375 51.90625 
Q 46.484375 58.296875 42.84375 61.546875 
Q 39.203125 64.796875 32.078125 64.796875 
z
" id="DejaVuSans-82"/>
     </defs>
     <g transform="translate(100.394531 280.276563)scale(0.1 -0.1)">
      <use xlink:href="#DejaVuSans-70"/>
      <use x="57.378906" xlink:href="#DejaVuSans-97"/>
      <use x="118.658203" xlink:href="#DejaVuSans-108"/>
      <use x="146.441406" xlink:href="#DejaVuSans-115"/>
      <use x="198.541016" xlink:href="#DejaVuSans-101"/>
      <use x="260.064453" xlink:href="#DejaVuSans-32"/>
      <use x="291.851562" xlink:href="#DejaVuSans-80"/>
      <use x="352.107422" xlink:href="#DejaVuSans-111"/>
      <use x="413.289062" xlink:href="#DejaVuSans-115"/>
      <use x="465.388672" xlink:href="#DejaVuSans-105"/>
      <use x="493.171875" xlink:href="#DejaVuSans-116"/>
      <use x="532.380859" xlink:href="#DejaVuSans-105"/>
      <use x="560.164062" xlink:href="#DejaVuSans-118"/>
      <use x="619.34375" xlink:href="#DejaVuSans-101"/>
      <use x="680.867188" xlink:href="#DejaVuSans-32"/>
      <use x="712.654297" xlink:href="#DejaVuSans-82"/>
      <use x="782.105469" xlink:href="#DejaVuSans-97"/>
      <use x="843.384766" xlink:href="#DejaVuSans-116"/>
      <use x="882.59375" xlink:href="#DejaVuSans-101"/>
     </g>
    </g>
   </g>
   <g id="matplotlib.axis_2">
    <g id="ytick_1">
     <g id="line2d_7">
      <defs>
       <path d="M 0 0 
L -3.5 0 
" id="m7cba71caf5" style="stroke:#000000;stroke-width:0.8;"/>
      </defs>
      <g>
       <use style="stroke:#000000;stroke-width:0.8;" x="38.88" xlink:href="#m7cba71caf5" y="242.116364"/>
      </g>
     </g>
     <g id="text_8">
      <!-- 0.0 -->
      <g transform="translate(15.976875 245.915582)scale(0.1 -0.1)">
       <use xlink:href="#DejaVuSans-48"/>
       <use x="63.623047" xlink:href="#DejaVuSans-46"/>
       <use x="95.410156" xlink:href="#DejaVuSans-48"/>
      </g>
     </g>
    </g>
    <g id="ytick_2">
     <g id="line2d_8">
      <g>
       <use style="stroke:#000000;stroke-width:0.8;" x="38.88" xlink:href="#m7cba71caf5" y="202.581818"/>
      </g>
     </g>
     <g id="text_9">
      <!-- 0.2 -->
      <g transform="translate(15.976875 206.381037)scale(0.1 -0.1)">
       <use xlink:href="#DejaVuSans-48"/>
       <use x="63.623047" xlink:href="#DejaVuSans-46"/>
       <use x="95.410156" xlink:href="#DejaVuSans-50"/>
      </g>
     </g>
    </g>
    <g id="ytick_3">
     <g id="line2d_9">
      <g>
       <use style="stroke:#000000;stroke-width:0.8;" x="38.88" xlink:href="#m7cba71caf5" y="163.047273"/>
      </g>
     </g>
     <g id="text_10">
      <!-- 0.4 -->
      <g transform="translate(15.976875 166.846491)scale(0.1 -0.1)">
       <use xlink:href="#DejaVuSans-48"/>
       <use x="63.623047" xlink:href="#DejaVuSans-46"/>
       <use x="95.410156" xlink:href="#DejaVuSans-52"/>
      </g>
     </g>
    </g>
    <g id="ytick_4">
     <g id="line2d_10">
      <g>
       <use style="stroke:#000000;stroke-width:0.8;" x="38.88" xlink:href="#m7cba71caf5" y="123.512727"/>
      </g>
     </g>
     <g id="text_11">
      <!-- 0.6 -->
      <g transform="translate(15.976875 127.311946)scale(0.1 -0.1)">
       <use xlink:href="#DejaVuSans-48"/>
       <use x="63.623047" xlink:href="#DejaVuSans-46"/>
       <use x="95.410156" xlink:href="#DejaVuSans-54"/>
      </g>
     </g>
    </g>
    <g id="ytick_5">
     <g id="line2d_11">
      <g>
       <use style="stroke:#000000;stroke-width:0.8;" x="38.88" xlink:href="#m7cba71caf5" y="83.978182"/>
      </g>
     </g>
     <g id="text_12">
      <!-- 0.8 -->
      <g transform="translate(15.976875 87.777401)scale(0.1 -0.1)">
       <use xlink:href="#DejaVuSans-48"/>
       <use x="63.623047" xlink:href="#DejaVuSans-46"/>
       <use x="95.410156" xlink:href="#DejaVuSans-56"/>
      </g>
     </g>
    </g>
    <g id="ytick_6">
     <g id="line2d_12">
      <g>
       <use style="stroke:#000000;stroke-width:0.8;" x="38.88" xlink:href="#m7cba71caf5" y="44.443636"/>
      </g>
     </g>
     <g id="text_13">
      <!-- 1.0 -->
      <g transform="translate(15.976875 48.242855)scale(0.1 -0.1)">
       <use xlink:href="#DejaVuSans-49"/>
       <use x="63.623047" xlink:href="#DejaVuSans-46"/>
       <use x="95.410156" xlink:href="#DejaVuSans-48"/>
      </g>
     </g>
    </g>
    <g id="text_14">
     <!-- True Positive Rate -->
     <defs>
      <path d="M -0.296875 72.90625 
L 61.375 72.90625 
L 61.375 64.59375 
L 35.5 64.59375 
L 35.5 0 
L 25.59375 0 
L 25.59375 64.59375 
L -0.296875 64.59375 
z
" id="DejaVuSans-84"/>
      <path d="M 41.109375 46.296875 
Q 39.59375 47.171875 37.8125 47.578125 
Q 36.03125 48 33.890625 48 
Q 26.265625 48 22.1875 43.046875 
Q 18.109375 38.09375 18.109375 28.8125 
L 18.109375 0 
L 9.078125 0 
L 9.078125 54.6875 
L 18.109375 54.6875 
L 18.109375 46.1875 
Q 20.953125 51.171875 25.484375 53.578125 
Q 30.03125 56 36.53125 56 
Q 37.453125 56 38.578125 55.875 
Q 39.703125 55.765625 41.0625 55.515625 
z
" id="DejaVuSans-114"/>
      <path d="M 8.5 21.578125 
L 8.5 54.6875 
L 17.484375 54.6875 
L 17.484375 21.921875 
Q 17.484375 14.15625 20.5 10.265625 
Q 23.53125 6.390625 29.59375 6.390625 
Q 36.859375 6.390625 41.078125 11.03125 
Q 45.3125 15.671875 45.3125 23.6875 
L 45.3125 54.6875 
L 54.296875 54.6875 
L 54.296875 0 
L 45.3125 0 
L 45.3125 8.40625 
Q 42.046875 3.421875 37.71875 1 
Q 33.40625 -1.421875 27.6875 -1.421875 
Q 18.265625 -1.421875 13.375 4.4375 
Q 8.5 10.296875 8.5 21.578125 
z
M 31.109375 56 
z
" id="DejaVuSans-117"/>
     </defs>
     <g transform="translate(9.897187 188.826094)rotate(-90)scale(0.1 -0.1)">
      <use xlink:href="#DejaVuSans-84"/>
      <use x="60.865234" xlink:href="#DejaVuSans-114"/>
      <use x="101.978516" xlink:href="#DejaVuSans-117"/>
      <use x="165.357422" xlink:href="#DejaVuSans-101"/>
      <use x="226.880859" xlink:href="#DejaVuSans-32"/>
      <use x="258.667969" xlink:href="#DejaVuSans-80"/>
      <use x="318.923828" xlink:href="#DejaVuSans-111"/>
      <use x="380.105469" xlink:href="#DejaVuSans-115"/>
      <use x="432.205078" xlink:href="#DejaVuSans-105"/>
      <use x="459.988281" xlink:href="#DejaVuSans-116"/>
      <use x="499.197266" xlink:href="#DejaVuSans-105"/>
      <use x="526.980469" xlink:href="#DejaVuSans-118"/>
      <use x="586.160156" xlink:href="#DejaVuSans-101"/>
      <use x="647.683594" xlink:href="#DejaVuSans-32"/>
      <use x="679.470703" xlink:href="#DejaVuSans-82"/>
      <use x="748.921875" xlink:href="#DejaVuSans-97"/>
      <use x="810.201172" xlink:href="#DejaVuSans-116"/>
      <use x="849.410156" xlink:href="#DejaVuSans-101"/>
     </g>
    </g>
   </g>
   <g id="line2d_13">
    <path clip-path="url(#p5bea63759a)" d="M 48.763636 242.116364 
L 48.763636 232.232727 
L 48.763636 202.581818 
L 50.467712 202.581818 
L 50.467712 192.698182 
L 50.467712 182.814545 
L 50.467712 163.047273 
L 52.171787 163.047273 
L 55.579937 163.047273 
L 55.579937 153.163636 
L 57.284013 153.163636 
L 64.100313 103.745455 
L 70.916614 93.861818 
L 74.324765 83.978182 
L 76.02884 54.327273 
L 77.732915 54.327273 
L 84.549216 54.327273 
L 168.048903 54.327273 
L 173.161129 54.327273 
L 174.865204 54.327273 
L 179.977429 54.327273 
L 208.946708 54.327273 
L 210.650784 54.327273 
L 210.650784 44.443636 
L 212.354859 44.443636 
L 225.987461 44.443636 
L 227.691536 44.443636 
L 246.436364 44.443636 
" style="fill:none;stroke:#0000ff;stroke-linecap:square;stroke-opacity:0.1;stroke-width:1.5;"/>
   </g>
   <g id="line2d_14">
    <path clip-path="url(#p5bea63759a)" d="M 48.763636 242.116364 
L 246.436364 44.443636 
" style="fill:none;stroke:#808080;stroke-dasharray:4,8;stroke-dashoffset:0;stroke-width:0.8;"/>
   </g>
   <g id="line2d_15">
    <path clip-path="url(#p5bea63759a)" d="M 48.763636 242.116364 
L 52.231579 66.407273 
L 52.231579 59.086061 
L 59.167464 59.086061 
L 64.369378 44.443636 
L 67.837321 44.443636 
L 246.436364 44.443636 
" style="fill:none;stroke:#0000ff;stroke-linecap:square;stroke-opacity:0.1;stroke-width:1.5;"/>
   </g>
   <g id="line2d_16">
    <path clip-path="url(#p5bea63759a)" d="M 48.763636 242.116364 
L 246.436364 44.443636 
" style="fill:none;stroke:#808080;stroke-dasharray:4,8;stroke-dashoffset:0;stroke-width:0.8;"/>
   </g>
   <g id="line2d_17">
    <path clip-path="url(#p5bea63759a)" d="M 48.763636 242.116364 
L 50.307955 176.225455 
L 61.118182 70.8 
L 246.436364 44.443636 
" style="fill:none;stroke:#0000ff;stroke-linecap:square;stroke-opacity:0.1;stroke-width:1.5;"/>
   </g>
   <g id="line2d_18">
    <path clip-path="url(#p5bea63759a)" d="M 48.763636 242.116364 
L 246.436364 44.443636 
" style="fill:none;stroke:#808080;stroke-dasharray:4,8;stroke-dashoffset:0;stroke-width:0.8;"/>
   </g>
   <g id="line2d_19">
    <path clip-path="url(#p5bea63759a)" d="M 48.763636 242.116364 
L 52.639572 113.199368 
L 56.515508 53.038103 
L 246.436364 44.443636 
" style="fill:none;stroke:#0000ff;stroke-linecap:square;stroke-opacity:0.1;stroke-width:1.5;"/>
   </g>
   <g id="line2d_20">
    <path clip-path="url(#p5bea63759a)" d="M 48.763636 242.116364 
L 246.436364 44.443636 
" style="fill:none;stroke:#808080;stroke-dasharray:4,8;stroke-dashoffset:0;stroke-width:0.8;"/>
   </g>
   <g id="line2d_21">
    <path clip-path="url(#p5bea63759a)" d="M 48.763636 242.116364 
L 48.763636 206.175868 
L 48.763636 197.190744 
L 48.763636 188.20562 
L 48.763636 179.220496 
L 48.763636 161.250248 
L 48.763636 134.294876 
L 48.763636 107.339504 
L 48.763636 98.35438 
L 55.140176 80.384132 
L 56.734311 80.384132 
L 59.922581 71.399008 
L 66.29912 53.42876 
L 67.893255 53.42876 
L 79.052199 44.443636 
L 87.022874 44.443636 
L 246.436364 44.443636 
" style="fill:none;stroke:#0000ff;stroke-linecap:square;stroke-opacity:0.1;stroke-width:1.5;"/>
   </g>
   <g id="line2d_22">
    <path clip-path="url(#p5bea63759a)" d="M 48.763636 242.116364 
L 246.436364 44.443636 
" style="fill:none;stroke:#808080;stroke-dasharray:4,8;stroke-dashoffset:0;stroke-width:0.8;"/>
   </g>
   <g id="line2d_23">
    <path clip-path="url(#p5bea63759a)" d="M 48.763636 242.116364 
L 48.763636 185.638442 
L 50.217112 100.921558 
L 57.484492 72.682597 
L 61.84492 44.443636 
L 83.647059 44.443636 
L 246.436364 44.443636 
" style="fill:none;stroke:#0000ff;stroke-linecap:square;stroke-opacity:0.1;stroke-width:1.5;"/>
   </g>
   <g id="line2d_24">
    <path clip-path="url(#p5bea63759a)" d="M 48.763636 242.116364 
L 246.436364 44.443636 
" style="fill:none;stroke:#808080;stroke-dasharray:4,8;stroke-dashoffset:0;stroke-width:0.8;"/>
   </g>
   <g id="line2d_25">
    <path clip-path="url(#p5bea63759a)" d="M 48.763636 242.116364 
L 48.763636 215.76 
L 48.763636 83.978182 
L 51.876593 83.978182 
L 70.554331 44.443636 
L 241.766929 44.443636 
L 246.436364 44.443636 
" style="fill:none;stroke:#0000ff;stroke-linecap:square;stroke-opacity:0.1;stroke-width:1.5;"/>
   </g>
   <g id="line2d_26">
    <path clip-path="url(#p5bea63759a)" d="M 48.763636 242.116364 
L 246.436364 44.443636 
" style="fill:none;stroke:#808080;stroke-dasharray:4,8;stroke-dashoffset:0;stroke-width:0.8;"/>
   </g>
   <g id="line2d_27">
    <path clip-path="url(#p5bea63759a)" d="M 48.763636 242.116364 
L 48.763636 66.407273 
L 244.972121 66.407273 
L 246.436364 44.443636 
" style="fill:none;stroke:#0000ff;stroke-linecap:square;stroke-opacity:0.1;stroke-width:1.5;"/>
   </g>
   <g id="line2d_28">
    <path clip-path="url(#p5bea63759a)" d="M 48.763636 242.116364 
L 246.436364 44.443636 
" style="fill:none;stroke:#808080;stroke-dasharray:4,8;stroke-dashoffset:0;stroke-width:0.8;"/>
   </g>
   <g id="line2d_29">
    <path clip-path="url(#p5bea63759a)" d="M 48.763636 242.116364 
L 48.763636 232.232727 
L 48.763636 212.465455 
L 48.763636 202.581818 
L 48.763636 192.698182 
L 48.763636 143.28 
L 53.546041 133.396364 
L 55.140176 113.629091 
L 56.734311 113.629091 
L 99.775953 83.978182 
L 110.934897 83.978182 
L 220.930205 44.443636 
L 222.52434 44.443636 
L 225.71261 44.443636 
L 227.306745 44.443636 
L 230.495015 44.443636 
L 235.277419 44.443636 
L 236.871554 44.443636 
L 246.436364 44.443636 
" style="fill:none;stroke:#0000ff;stroke-linecap:square;stroke-opacity:0.1;stroke-width:1.5;"/>
   </g>
   <g id="line2d_30">
    <path clip-path="url(#p5bea63759a)" d="M 48.763636 242.116364 
L 246.436364 44.443636 
" style="fill:none;stroke:#808080;stroke-dasharray:4,8;stroke-dashoffset:0;stroke-width:0.8;"/>
   </g>
   <g id="line2d_31">
    <path clip-path="url(#p5bea63759a)" d="M 48.763636 242.116364 
L 50.272588 224.146116 
L 53.290493 206.175868 
L 59.326301 188.20562 
L 59.326301 170.235372 
L 62.344205 170.235372 
L 94.0322 98.35438 
L 101.57696 98.35438 
L 193.62304 62.413884 
L 195.131992 62.413884 
L 196.640944 62.413884 
L 198.149896 62.413884 
L 202.676752 62.413884 
L 207.203609 62.413884 
L 210.221513 62.413884 
L 219.275226 62.413884 
L 231.346842 44.443636 
L 240.400555 44.443636 
L 241.909507 44.443636 
L 246.436364 44.443636 
" style="fill:none;stroke:#0000ff;stroke-linecap:square;stroke-opacity:0.1;stroke-width:1.5;"/>
   </g>
   <g id="line2d_32">
    <path clip-path="url(#p5bea63759a)" d="M 48.763636 242.116364 
L 246.436364 44.443636 
" style="fill:none;stroke:#808080;stroke-dasharray:4,8;stroke-dashoffset:0;stroke-width:0.8;"/>
   </g>
   <g id="line2d_33">
    <path clip-path="url(#p5bea63759a)" d="M 48.763636 242.116364 
L 48.763636 169.289569 
L 246.436364 44.443636 
" style="fill:none;stroke:#0000ff;stroke-linecap:square;stroke-opacity:0.1;stroke-width:1.5;"/>
   </g>
   <g id="line2d_34">
    <path clip-path="url(#p5bea63759a)" d="M 48.763636 242.116364 
L 246.436364 44.443636 
" style="fill:none;stroke:#808080;stroke-dasharray:4,8;stroke-dashoffset:0;stroke-width:0.8;"/>
   </g>
   <g id="line2d_35">
    <path clip-path="url(#p5bea63759a)" d="M 48.763636 242.116364 
L 48.763636 215.76 
L 48.763636 176.225455 
L 50.397295 97.156364 
L 55.298272 83.978182 
L 58.56559 83.978182 
L 70.001202 83.978182 
L 197.426597 44.443636 
L 199.060255 44.443636 
L 212.129527 44.443636 
L 223.565139 44.443636 
L 246.436364 44.443636 
" style="fill:none;stroke:#0000ff;stroke-linecap:square;stroke-opacity:0.1;stroke-width:1.5;"/>
   </g>
   <g id="line2d_36">
    <path clip-path="url(#p5bea63759a)" d="M 48.763636 242.116364 
L 246.436364 44.443636 
" style="fill:none;stroke:#808080;stroke-dasharray:4,8;stroke-dashoffset:0;stroke-width:0.8;"/>
   </g>
   <g id="line2d_37">
    <path clip-path="url(#p5bea63759a)" d="M 48.763636 242.116364 
L 48.763636 236.91445 
L 48.763636 226.510622 
L 48.763636 221.308708 
L 48.763636 210.90488 
L 48.763636 205.702967 
L 52.717091 169.289569 
L 52.717091 164.087656 
L 52.717091 158.885742 
L 52.717091 153.683828 
L 58.647273 143.28 
L 60.624 132.876172 
L 62.600727 132.876172 
L 106.088727 75.65512 
L 106.088727 70.453206 
L 113.995636 65.251292 
L 115.972364 65.251292 
L 151.553455 49.64555 
L 157.483636 49.64555 
L 159.460364 49.64555 
L 181.204364 49.64555 
L 181.204364 44.443636 
L 191.088 44.443636 
L 193.064727 44.443636 
L 234.576 44.443636 
L 240.506182 44.443636 
L 244.459636 44.443636 
L 246.436364 44.443636 
" style="fill:none;stroke:#0000ff;stroke-linecap:square;stroke-opacity:0.1;stroke-width:1.5;"/>
   </g>
   <g id="line2d_38">
    <path clip-path="url(#p5bea63759a)" d="M 48.763636 242.116364 
L 246.436364 44.443636 
" style="fill:none;stroke:#808080;stroke-dasharray:4,8;stroke-dashoffset:0;stroke-width:0.8;"/>
   </g>
   <g id="line2d_39">
    <path clip-path="url(#p5bea63759a)" d="M 48.763636 242.116364 
L 48.763636 228.938182 
L 50.332468 228.938182 
L 50.332468 215.76 
L 51.901299 215.76 
L 53.47013 189.403636 
L 56.607792 189.403636 
L 58.176623 189.403636 
L 59.745455 189.403636 
L 62.883117 189.403636 
L 70.727273 149.869091 
L 72.296104 149.869091 
L 83.277922 70.8 
L 86.415584 57.621818 
L 92.690909 44.443636 
L 97.397403 44.443636 
L 98.966234 44.443636 
L 100.535065 44.443636 
L 102.103896 44.443636 
L 164.857143 44.443636 
L 166.425974 44.443636 
L 199.371429 44.443636 
L 219.766234 44.443636 
L 221.335065 44.443636 
L 224.472727 44.443636 
L 226.041558 44.443636 
L 229.179221 44.443636 
L 230.748052 44.443636 
L 235.454545 44.443636 
L 246.436364 44.443636 
" style="fill:none;stroke:#0000ff;stroke-linecap:square;stroke-opacity:0.1;stroke-width:1.5;"/>
   </g>
   <g id="line2d_40">
    <path clip-path="url(#p5bea63759a)" d="M 48.763636 242.116364 
L 246.436364 44.443636 
" style="fill:none;stroke:#808080;stroke-dasharray:4,8;stroke-dashoffset:0;stroke-width:0.8;"/>
   </g>
   <g id="line2d_41">
    <path clip-path="url(#p5bea63759a)" d="M 48.763636 242.116364 
L 50.295983 228.938182 
L 51.82833 228.938182 
L 53.360677 136.690909 
L 57.957717 123.512727 
L 59.490063 110.334545 
L 65.61945 110.334545 
L 154.49556 57.621818 
L 157.560254 57.621818 
L 159.0926 44.443636 
L 160.624947 44.443636 
L 163.689641 44.443636 
L 171.351374 44.443636 
L 186.674841 44.443636 
L 188.207188 44.443636 
L 206.595349 44.443636 
L 209.660042 44.443636 
L 237.242283 44.443636 
L 238.77463 44.443636 
L 243.37167 44.443636 
L 244.904017 44.443636 
L 246.436364 44.443636 
" style="fill:none;stroke:#0000ff;stroke-linecap:square;stroke-opacity:0.1;stroke-width:1.5;"/>
   </g>
   <g id="line2d_42">
    <path clip-path="url(#p5bea63759a)" d="M 48.763636 242.116364 
L 246.436364 44.443636 
" style="fill:none;stroke:#808080;stroke-dasharray:4,8;stroke-dashoffset:0;stroke-width:0.8;"/>
   </g>
   <g id="line2d_43">
    <path clip-path="url(#p5bea63759a)" d="M 48.763636 242.116364 
L 48.763636 226.910769 
L 48.763636 211.705175 
L 48.763636 196.49958 
L 54.893023 181.293986 
L 54.893023 166.088392 
L 54.893023 150.882797 
L 56.42537 150.882797 
L 59.490063 150.882797 
L 62.554757 150.882797 
L 65.61945 90.06042 
L 67.151797 90.06042 
L 73.281184 90.06042 
L 79.410571 90.06042 
L 84.007611 90.06042 
L 90.136998 90.06042 
L 94.734038 90.06042 
L 99.331078 90.06042 
L 172.883721 44.443636 
L 185.142495 44.443636 
L 186.674841 44.443636 
L 191.271882 44.443636 
L 194.336575 44.443636 
L 200.465962 44.443636 
L 201.998309 44.443636 
L 208.127696 44.443636 
L 209.660042 44.443636 
L 220.386469 44.443636 
L 237.242283 44.443636 
L 238.77463 44.443636 
L 246.436364 44.443636 
" style="fill:none;stroke:#0000ff;stroke-linecap:square;stroke-opacity:0.1;stroke-width:1.5;"/>
   </g>
   <g id="line2d_44">
    <path clip-path="url(#p5bea63759a)" d="M 48.763636 242.116364 
L 246.436364 44.443636 
" style="fill:none;stroke:#808080;stroke-dasharray:4,8;stroke-dashoffset:0;stroke-width:0.8;"/>
   </g>
   <g id="line2d_45">
    <path clip-path="url(#p5bea63759a)" d="M 48.763636 242.116364 
L 85.257063 44.443636 
L 246.436364 44.443636 
" style="fill:none;stroke:#0000ff;stroke-linecap:square;stroke-opacity:0.1;stroke-width:1.5;"/>
   </g>
   <g id="line2d_46">
    <path clip-path="url(#p5bea63759a)" d="M 48.763636 242.116364 
L 246.436364 44.443636 
" style="fill:none;stroke:#808080;stroke-dasharray:4,8;stroke-dashoffset:0;stroke-width:0.8;"/>
   </g>
   <g id="line2d_47">
    <path clip-path="url(#p5bea63759a)" d="M 48.763636 242.116364 
L 59.167464 123.512727 
L 71.057553 123.512727 
L 72.543814 123.512727 
L 74.030075 123.512727 
L 94.837731 44.443636 
L 172.123308 44.443636 
L 246.436364 44.443636 
" style="fill:none;stroke:#0000ff;stroke-linecap:square;stroke-opacity:0.1;stroke-width:1.5;"/>
   </g>
   <g id="line2d_48">
    <path clip-path="url(#p5bea63759a)" d="M 48.763636 242.116364 
L 246.436364 44.443636 
" style="fill:none;stroke:#808080;stroke-dasharray:4,8;stroke-dashoffset:0;stroke-width:0.8;"/>
   </g>
   <g id="line2d_49">
    <path clip-path="url(#p5bea63759a)" d="M 48.763636 242.116364 
L 51.736159 77.389091 
L 56.194942 77.389091 
L 74.030075 77.389091 
L 75.516336 77.389091 
L 93.35147 77.389091 
L 94.837731 60.916364 
L 166.178264 44.443636 
L 167.664525 44.443636 
L 178.068353 44.443636 
L 198.876008 44.443636 
L 201.84853 44.443636 
L 241.97758 44.443636 
L 246.436364 44.443636 
" style="fill:none;stroke:#0000ff;stroke-linecap:square;stroke-opacity:0.1;stroke-width:1.5;"/>
   </g>
   <g id="line2d_50">
    <path clip-path="url(#p5bea63759a)" d="M 48.763636 242.116364 
L 246.436364 44.443636 
" style="fill:none;stroke:#808080;stroke-dasharray:4,8;stroke-dashoffset:0;stroke-width:0.8;"/>
   </g>
   <g id="line2d_51">
    <path clip-path="url(#p5bea63759a)" d="M 48.763636 242.116364 
L 50.227879 242.116364 
L 51.692121 242.116364 
L 56.084848 163.047273 
L 59.013333 163.047273 
L 59.013333 123.512727 
L 60.477576 123.512727 
L 61.941818 123.512727 
L 63.406061 123.512727 
L 66.334545 123.512727 
L 72.191515 123.512727 
L 73.655758 123.512727 
L 75.12 123.512727 
L 83.905455 83.978182 
L 108.797576 83.978182 
L 110.261818 83.978182 
L 126.368485 83.978182 
L 133.689697 83.978182 
L 220.08 44.443636 
L 221.544242 44.443636 
L 224.472727 44.443636 
L 228.865455 44.443636 
L 246.436364 44.443636 
" style="fill:none;stroke:#0000ff;stroke-linecap:square;stroke-opacity:0.1;stroke-width:1.5;"/>
   </g>
   <g id="line2d_52">
    <path clip-path="url(#p5bea63759a)" d="M 48.763636 242.116364 
L 246.436364 44.443636 
" style="fill:none;stroke:#808080;stroke-dasharray:4,8;stroke-dashoffset:0;stroke-width:0.8;"/>
   </g>
   <g id="line2d_53">
    <path clip-path="url(#p5bea63759a)" d="M 48.763636 217.320574 
L 50.760331 169.921105 
L 52.757025 152.977478 
L 54.753719 132.783093 
L 56.750413 120.295831 
L 58.747107 114.483232 
L 60.743802 110.600771 
L 62.740496 109.913021 
L 64.73719 105.195938 
L 66.733884 94.993598 
L 68.730579 93.545995 
L 70.727273 92.098392 
L 72.723967 89.340458 
L 74.720661 86.287179 
L 76.717355 85.977436 
L 78.71405 80.579962 
L 80.710744 79.022284 
L 82.707438 76.148288 
L 84.704132 72.417322 
L 86.700826 71.262726 
L 88.697521 67.32702 
L 90.694215 66.500452 
L 92.690909 66.358465 
L 94.687603 64.302979 
L 96.684298 63.115847 
L 98.680992 62.743339 
L 100.677686 62.370831 
L 102.67438 61.998322 
L 104.671074 61.625814 
L 106.667769 61.253306 
L 108.664463 60.880798 
L 110.661157 60.508289 
L 112.657851 60.135781 
L 114.654545 59.763273 
L 116.65124 59.390764 
L 118.647934 59.018256 
L 120.644628 58.645748 
L 122.641322 58.27324 
L 124.638017 57.88892 
L 126.634711 57.451048 
L 128.631405 57.013177 
L 130.628099 56.575305 
L 132.624793 56.137434 
L 134.621488 55.699562 
L 136.618182 55.261691 
L 138.614876 54.823819 
L 140.61157 54.385948 
L 142.608264 53.948076 
L 144.604959 53.510204 
L 146.601653 53.072333 
L 148.598347 52.634461 
L 150.595041 52.19659 
L 152.591736 51.986411 
L 154.58843 51.986411 
L 156.585124 51.986411 
L 158.581818 49.240957 
L 160.578512 48.987251 
L 162.575207 48.942073 
L 164.571901 48.873401 
L 166.568595 48.209056 
L 168.565289 47.544711 
L 170.561983 46.880365 
L 172.558678 46.21602 
L 174.555372 46.070047 
L 176.552066 46.024869 
L 178.54876 45.979691 
L 180.545455 45.934513 
L 182.542149 44.443636 
L 184.538843 44.443636 
L 186.535537 44.443636 
L 188.532231 44.443636 
L 190.528926 44.443636 
L 192.52562 44.443636 
L 194.522314 44.443636 
L 196.519008 44.443636 
L 198.515702 44.443636 
L 200.512397 44.443636 
L 202.509091 44.443636 
L 204.505785 44.443636 
L 206.502479 44.443636 
L 208.499174 44.443636 
L 210.495868 44.443636 
L 212.492562 44.443636 
L 214.489256 44.443636 
L 216.48595 44.443636 
L 218.482645 44.443636 
L 220.479339 44.443636 
L 222.476033 44.443636 
L 224.472727 44.443636 
L 226.469421 44.443636 
L 228.466116 44.443636 
L 230.46281 44.443636 
L 232.459504 44.443636 
L 234.456198 44.443636 
L 236.452893 44.443636 
L 238.449587 44.443636 
L 240.446281 44.443636 
L 242.442975 44.443636 
L 244.439669 44.443636 
L 246.436364 44.443636 
" style="fill:none;stroke:#000000;stroke-linecap:square;stroke-width:1.5;"/>
   </g>
   <g id="patch_3">
    <path d="M 38.88 252 
L 38.88 34.56 
" style="fill:none;stroke:#000000;stroke-linecap:square;stroke-linejoin:miter;stroke-width:0.8;"/>
   </g>
   <g id="patch_4">
    <path d="M 256.32 252 
L 256.32 34.56 
" style="fill:none;stroke:#000000;stroke-linecap:square;stroke-linejoin:miter;stroke-width:0.8;"/>
   </g>
   <g id="patch_5">
    <path d="M 38.88 252 
L 256.32 252 
" style="fill:none;stroke:#000000;stroke-linecap:square;stroke-linejoin:miter;stroke-width:0.8;"/>
   </g>
   <g id="patch_6">
    <path d="M 38.88 34.56 
L 256.32 34.56 
" style="fill:none;stroke:#000000;stroke-linecap:square;stroke-linejoin:miter;stroke-width:0.8;"/>
   </g>
  </g>
 </g>
 <defs>
  <clipPath id="p5bea63759a">
   <rect height="217.44" width="217.44" x="38.88" y="34.56"/>
  </clipPath>
 </defs>
</svg>
