<?xml version="1.0" encoding="utf-8" standalone="no"?>
<!DOCTYPE svg PUBLIC "-//W3C//DTD SVG 1.1//EN"
  "http://www.w3.org/Graphics/SVG/1.1/DTD/svg11.dtd">
<!-- Created with matplotlib (https://matplotlib.org/) -->
<svg height="936pt" version="1.1" viewBox="0 0 720 936" width="720pt" xmlns="http://www.w3.org/2000/svg" xmlns:xlink="http://www.w3.org/1999/xlink">
 <defs>
  <style type="text/css">
*{stroke-linecap:butt;stroke-linejoin:round;}
  </style>
 </defs>
 <g id="figure_1">
  <g id="patch_1">
   <path d="M 0 936 
L 720 936 
L 720 0 
L 0 0 
z
" style="fill:#ffffff;"/>
  </g>
  <g id="axes_1">
   <g id="patch_2">
    <path d="M 56.19854 275.86641 
L 713.49976 275.86641 
L 713.49976 17.90649 
L 56.19854 17.90649 
z
" style="fill:#ffffff;"/>
   </g>
   <g id="patch_3">
    <path clip-path="url(#p99b57616f9)" d="M 86.075868 275.86641 
L 92.586216 275.86641 
L 92.586216 267.677206 
L 86.075868 267.677206 
z
" style="fill:#1f77b4;"/>
   </g>
   <g id="patch_4">
    <path clip-path="url(#p99b57616f9)" d="M 92.586216 275.86641 
L 99.096564 275.86641 
L 99.096564 275.86641 
L 92.586216 275.86641 
z
" style="fill:#1f77b4;"/>
   </g>
   <g id="patch_5">
    <path clip-path="url(#p99b57616f9)" d="M 99.096564 275.86641 
L 105.606913 275.86641 
L 105.606913 275.86641 
L 99.096564 275.86641 
z
" style="fill:#1f77b4;"/>
   </g>
   <g id="patch_6">
    <path clip-path="url(#p99b57616f9)" d="M 105.606913 275.86641 
L 112.117261 275.86641 
L 112.117261 267.677206 
L 105.606913 267.677206 
z
" style="fill:#1f77b4;"/>
   </g>
   <g id="patch_7">
    <path clip-path="url(#p99b57616f9)" d="M 112.117261 275.86641 
L 118.627609 275.86641 
L 118.627609 275.86641 
L 112.117261 275.86641 
z
" style="fill:#1f77b4;"/>
   </g>
   <g id="patch_8">
    <path clip-path="url(#p99b57616f9)" d="M 118.627609 275.86641 
L 125.137957 275.86641 
L 125.137957 259.488002 
L 118.627609 259.488002 
z
" style="fill:#1f77b4;"/>
   </g>
   <g id="patch_9">
    <path clip-path="url(#p99b57616f9)" d="M 125.137957 275.86641 
L 131.648305 275.86641 
L 131.648305 259.488002 
L 125.137957 259.488002 
z
" style="fill:#1f77b4;"/>
   </g>
   <g id="patch_10">
    <path clip-path="url(#p99b57616f9)" d="M 131.648305 275.86641 
L 138.158653 275.86641 
L 138.158653 259.488002 
L 131.648305 259.488002 
z
" style="fill:#1f77b4;"/>
   </g>
   <g id="patch_11">
    <path clip-path="url(#p99b57616f9)" d="M 138.158653 275.86641 
L 144.669001 275.86641 
L 144.669001 259.488002 
L 138.158653 259.488002 
z
" style="fill:#1f77b4;"/>
   </g>
   <g id="patch_12">
    <path clip-path="url(#p99b57616f9)" d="M 144.669001 275.86641 
L 151.17935 275.86641 
L 151.17935 259.488002 
L 144.669001 259.488002 
z
" style="fill:#1f77b4;"/>
   </g>
   <g id="patch_13">
    <path clip-path="url(#p99b57616f9)" d="M 151.17935 275.86641 
L 157.689698 275.86641 
L 157.689698 267.677206 
L 151.17935 267.677206 
z
" style="fill:#1f77b4;"/>
   </g>
   <g id="patch_14">
    <path clip-path="url(#p99b57616f9)" d="M 157.689698 275.86641 
L 164.200046 275.86641 
L 164.200046 275.86641 
L 157.689698 275.86641 
z
" style="fill:#1f77b4;"/>
   </g>
   <g id="patch_15">
    <path clip-path="url(#p99b57616f9)" d="M 164.200046 275.86641 
L 170.710394 275.86641 
L 170.710394 251.298799 
L 164.200046 251.298799 
z
" style="fill:#1f77b4;"/>
   </g>
   <g id="patch_16">
    <path clip-path="url(#p99b57616f9)" d="M 170.710394 275.86641 
L 177.220742 275.86641 
L 177.220742 243.109595 
L 170.710394 243.109595 
z
" style="fill:#1f77b4;"/>
   </g>
   <g id="patch_17">
    <path clip-path="url(#p99b57616f9)" d="M 177.220742 275.86641 
L 183.73109 275.86641 
L 183.73109 234.920391 
L 177.220742 234.920391 
z
" style="fill:#1f77b4;"/>
   </g>
   <g id="patch_18">
    <path clip-path="url(#p99b57616f9)" d="M 183.73109 275.86641 
L 190.241438 275.86641 
L 190.241438 177.595964 
L 183.73109 177.595964 
z
" style="fill:#1f77b4;"/>
   </g>
   <g id="patch_19">
    <path clip-path="url(#p99b57616f9)" d="M 190.241438 275.86641 
L 196.751787 275.86641 
L 196.751787 153.028353 
L 190.241438 153.028353 
z
" style="fill:#1f77b4;"/>
   </g>
   <g id="patch_20">
    <path clip-path="url(#p99b57616f9)" d="M 196.751787 275.86641 
L 203.262135 275.86641 
L 203.262135 193.974372 
L 196.751787 193.974372 
z
" style="fill:#1f77b4;"/>
   </g>
   <g id="patch_21">
    <path clip-path="url(#p99b57616f9)" d="M 203.262135 275.86641 
L 209.772483 275.86641 
L 209.772483 169.40676 
L 203.262135 169.40676 
z
" style="fill:#1f77b4;"/>
   </g>
   <g id="patch_22">
    <path clip-path="url(#p99b57616f9)" d="M 209.772483 275.86641 
L 216.282831 275.86641 
L 216.282831 112.082334 
L 209.772483 112.082334 
z
" style="fill:#1f77b4;"/>
   </g>
   <g id="patch_23">
    <path clip-path="url(#p99b57616f9)" d="M 216.282831 275.86641 
L 222.793179 275.86641 
L 222.793179 38.3795 
L 216.282831 38.3795 
z
" style="fill:#1f77b4;"/>
   </g>
   <g id="patch_24">
    <path clip-path="url(#p99b57616f9)" d="M 222.793179 275.86641 
L 229.303527 275.86641 
L 229.303527 112.082334 
L 222.793179 112.082334 
z
" style="fill:#1f77b4;"/>
   </g>
   <g id="patch_25">
    <path clip-path="url(#p99b57616f9)" d="M 229.303527 275.86641 
L 235.813875 275.86641 
L 235.813875 71.136315 
L 229.303527 71.136315 
z
" style="fill:#1f77b4;"/>
   </g>
   <g id="patch_26">
    <path clip-path="url(#p99b57616f9)" d="M 235.813875 275.86641 
L 242.324224 275.86641 
L 242.324224 30.190296 
L 235.813875 30.190296 
z
" style="fill:#1f77b4;"/>
   </g>
   <g id="patch_27">
    <path clip-path="url(#p99b57616f9)" d="M 242.324224 275.86641 
L 248.834572 275.86641 
L 248.834572 46.568703 
L 242.324224 46.568703 
z
" style="fill:#1f77b4;"/>
   </g>
   <g id="patch_28">
    <path clip-path="url(#p99b57616f9)" d="M 248.834572 275.86641 
L 255.34492 275.86641 
L 255.34492 95.703926 
L 248.834572 95.703926 
z
" style="fill:#1f77b4;"/>
   </g>
   <g id="patch_29">
    <path clip-path="url(#p99b57616f9)" d="M 255.34492 275.86641 
L 261.855268 275.86641 
L 261.855268 87.514722 
L 255.34492 87.514722 
z
" style="fill:#1f77b4;"/>
   </g>
   <g id="patch_30">
    <path clip-path="url(#p99b57616f9)" d="M 261.855268 275.86641 
L 268.365616 275.86641 
L 268.365616 30.190296 
L 261.855268 30.190296 
z
" style="fill:#1f77b4;"/>
   </g>
   <g id="patch_31">
    <path clip-path="url(#p99b57616f9)" d="M 268.365616 275.86641 
L 274.875964 275.86641 
L 274.875964 62.947111 
L 268.365616 62.947111 
z
" style="fill:#1f77b4;"/>
   </g>
   <g id="patch_32">
    <path clip-path="url(#p99b57616f9)" d="M 274.875964 275.86641 
L 281.386312 275.86641 
L 281.386312 95.703926 
L 274.875964 95.703926 
z
" style="fill:#1f77b4;"/>
   </g>
   <g id="patch_33">
    <path clip-path="url(#p99b57616f9)" d="M 281.386312 275.86641 
L 287.896661 275.86641 
L 287.896661 161.217557 
L 281.386312 161.217557 
z
" style="fill:#1f77b4;"/>
   </g>
   <g id="patch_34">
    <path clip-path="url(#p99b57616f9)" d="M 287.896661 275.86641 
L 294.407009 275.86641 
L 294.407009 185.785168 
L 287.896661 185.785168 
z
" style="fill:#1f77b4;"/>
   </g>
   <g id="patch_35">
    <path clip-path="url(#p99b57616f9)" d="M 294.407009 275.86641 
L 300.917357 275.86641 
L 300.917357 161.217557 
L 294.407009 161.217557 
z
" style="fill:#1f77b4;"/>
   </g>
   <g id="patch_36">
    <path clip-path="url(#p99b57616f9)" d="M 300.917357 275.86641 
L 307.427705 275.86641 
L 307.427705 177.595964 
L 300.917357 177.595964 
z
" style="fill:#1f77b4;"/>
   </g>
   <g id="patch_37">
    <path clip-path="url(#p99b57616f9)" d="M 307.427705 275.86641 
L 313.938053 275.86641 
L 313.938053 193.974372 
L 307.427705 193.974372 
z
" style="fill:#1f77b4;"/>
   </g>
   <g id="patch_38">
    <path clip-path="url(#p99b57616f9)" d="M 313.938053 275.86641 
L 320.448401 275.86641 
L 320.448401 210.35278 
L 313.938053 210.35278 
z
" style="fill:#1f77b4;"/>
   </g>
   <g id="patch_39">
    <path clip-path="url(#p99b57616f9)" d="M 320.448401 275.86641 
L 326.958749 275.86641 
L 326.958749 226.731187 
L 320.448401 226.731187 
z
" style="fill:#1f77b4;"/>
   </g>
   <g id="patch_40">
    <path clip-path="url(#p99b57616f9)" d="M 326.958749 275.86641 
L 333.469097 275.86641 
L 333.469097 243.109595 
L 326.958749 243.109595 
z
" style="fill:#1f77b4;"/>
   </g>
   <g id="patch_41">
    <path clip-path="url(#p99b57616f9)" d="M 333.469097 275.86641 
L 339.979446 275.86641 
L 339.979446 226.731187 
L 333.469097 226.731187 
z
" style="fill:#1f77b4;"/>
   </g>
   <g id="patch_42">
    <path clip-path="url(#p99b57616f9)" d="M 339.979446 275.86641 
L 346.489794 275.86641 
L 346.489794 251.298799 
L 339.979446 251.298799 
z
" style="fill:#1f77b4;"/>
   </g>
   <g id="patch_43">
    <path clip-path="url(#p99b57616f9)" d="M 346.489794 275.86641 
L 353.000142 275.86641 
L 353.000142 251.298799 
L 346.489794 251.298799 
z
" style="fill:#1f77b4;"/>
   </g>
   <g id="patch_44">
    <path clip-path="url(#p99b57616f9)" d="M 353.000142 275.86641 
L 359.51049 275.86641 
L 359.51049 251.298799 
L 353.000142 251.298799 
z
" style="fill:#1f77b4;"/>
   </g>
   <g id="patch_45">
    <path clip-path="url(#p99b57616f9)" d="M 359.51049 275.86641 
L 366.020838 275.86641 
L 366.020838 251.298799 
L 359.51049 251.298799 
z
" style="fill:#1f77b4;"/>
   </g>
   <g id="patch_46">
    <path clip-path="url(#p99b57616f9)" d="M 366.020838 275.86641 
L 372.531186 275.86641 
L 372.531186 251.298799 
L 366.020838 251.298799 
z
" style="fill:#1f77b4;"/>
   </g>
   <g id="patch_47">
    <path clip-path="url(#p99b57616f9)" d="M 372.531186 275.86641 
L 379.041534 275.86641 
L 379.041534 251.298799 
L 372.531186 251.298799 
z
" style="fill:#1f77b4;"/>
   </g>
   <g id="patch_48">
    <path clip-path="url(#p99b57616f9)" d="M 527.374076 275.86641 
L 533.884425 275.86641 
L 533.884425 234.920391 
L 527.374076 234.920391 
z
" style="fill:#ff0000;"/>
   </g>
   <g id="patch_49">
    <path clip-path="url(#p99b57616f9)" d="M 533.884425 275.86641 
L 540.394773 275.86641 
L 540.394773 275.86641 
L 533.884425 275.86641 
z
" style="fill:#ff0000;"/>
   </g>
   <g id="patch_50">
    <path clip-path="url(#p99b57616f9)" d="M 540.394773 275.86641 
L 546.905121 275.86641 
L 546.905121 275.86641 
L 540.394773 275.86641 
z
" style="fill:#ff0000;"/>
   </g>
   <g id="patch_51">
    <path clip-path="url(#p99b57616f9)" d="M 546.905121 275.86641 
L 553.415469 275.86641 
L 553.415469 259.488002 
L 546.905121 259.488002 
z
" style="fill:#ff0000;"/>
   </g>
   <g id="patch_52">
    <path clip-path="url(#p99b57616f9)" d="M 553.415469 275.86641 
L 559.925817 275.86641 
L 559.925817 267.677206 
L 553.415469 267.677206 
z
" style="fill:#ff0000;"/>
   </g>
   <g id="patch_53">
    <path clip-path="url(#p99b57616f9)" d="M 559.925817 275.86641 
L 566.436165 275.86641 
L 566.436165 226.731187 
L 559.925817 226.731187 
z
" style="fill:#ff0000;"/>
   </g>
   <g id="patch_54">
    <path clip-path="url(#p99b57616f9)" d="M 566.436165 275.86641 
L 572.946513 275.86641 
L 572.946513 267.677206 
L 566.436165 267.677206 
z
" style="fill:#ff0000;"/>
   </g>
   <g id="patch_55">
    <path clip-path="url(#p99b57616f9)" d="M 572.946513 275.86641 
L 579.456862 275.86641 
L 579.456862 267.677206 
L 572.946513 267.677206 
z
" style="fill:#ff0000;"/>
   </g>
   <g id="patch_56">
    <path clip-path="url(#p99b57616f9)" d="M 579.456862 275.86641 
L 585.96721 275.86641 
L 585.96721 210.35278 
L 579.456862 210.35278 
z
" style="fill:#ff0000;"/>
   </g>
   <g id="patch_57">
    <path clip-path="url(#p99b57616f9)" d="M 585.96721 275.86641 
L 592.477558 275.86641 
L 592.477558 243.109595 
L 585.96721 243.109595 
z
" style="fill:#ff0000;"/>
   </g>
   <g id="patch_58">
    <path clip-path="url(#p99b57616f9)" d="M 592.477558 275.86641 
L 598.987906 275.86641 
L 598.987906 259.488002 
L 592.477558 259.488002 
z
" style="fill:#ff0000;"/>
   </g>
   <g id="patch_59">
    <path clip-path="url(#p99b57616f9)" d="M 598.987906 275.86641 
L 605.498254 275.86641 
L 605.498254 251.298799 
L 598.987906 251.298799 
z
" style="fill:#ff0000;"/>
   </g>
   <g id="patch_60">
    <path clip-path="url(#p99b57616f9)" d="M 605.498254 275.86641 
L 612.008602 275.86641 
L 612.008602 267.677206 
L 605.498254 267.677206 
z
" style="fill:#ff0000;"/>
   </g>
   <g id="patch_61">
    <path clip-path="url(#p99b57616f9)" d="M 612.008602 275.86641 
L 618.51895 275.86641 
L 618.51895 267.677206 
L 612.008602 267.677206 
z
" style="fill:#ff0000;"/>
   </g>
   <g id="patch_62">
    <path clip-path="url(#p99b57616f9)" d="M 618.51895 275.86641 
L 625.029299 275.86641 
L 625.029299 251.298799 
L 618.51895 251.298799 
z
" style="fill:#ff0000;"/>
   </g>
   <g id="patch_63">
    <path clip-path="url(#p99b57616f9)" d="M 625.029299 275.86641 
L 631.539647 275.86641 
L 631.539647 243.109595 
L 625.029299 243.109595 
z
" style="fill:#ff0000;"/>
   </g>
   <g id="patch_64">
    <path clip-path="url(#p99b57616f9)" d="M 631.539647 275.86641 
L 638.049995 275.86641 
L 638.049995 234.920391 
L 631.539647 234.920391 
z
" style="fill:#ff0000;"/>
   </g>
   <g id="patch_65">
    <path clip-path="url(#p99b57616f9)" d="M 638.049995 275.86641 
L 644.560343 275.86641 
L 644.560343 202.163576 
L 638.049995 202.163576 
z
" style="fill:#ff0000;"/>
   </g>
   <g id="patch_66">
    <path clip-path="url(#p99b57616f9)" d="M 644.560343 275.86641 
L 651.070691 275.86641 
L 651.070691 185.785168 
L 644.560343 185.785168 
z
" style="fill:#ff0000;"/>
   </g>
   <g id="patch_67">
    <path clip-path="url(#p99b57616f9)" d="M 651.070691 275.86641 
L 657.581039 275.86641 
L 657.581039 169.40676 
L 651.070691 169.40676 
z
" style="fill:#ff0000;"/>
   </g>
   <g id="patch_68">
    <path clip-path="url(#p99b57616f9)" d="M 657.581039 275.86641 
L 664.091387 275.86641 
L 664.091387 193.974372 
L 657.581039 193.974372 
z
" style="fill:#ff0000;"/>
   </g>
   <g id="patch_69">
    <path clip-path="url(#p99b57616f9)" d="M 664.091387 275.86641 
L 670.601736 275.86641 
L 670.601736 202.163576 
L 664.091387 202.163576 
z
" style="fill:#ff0000;"/>
   </g>
   <g id="patch_70">
    <path clip-path="url(#p99b57616f9)" d="M 670.601736 275.86641 
L 677.112084 275.86641 
L 677.112084 210.35278 
L 670.601736 210.35278 
z
" style="fill:#ff0000;"/>
   </g>
   <g id="patch_71">
    <path clip-path="url(#p99b57616f9)" d="M 677.112084 275.86641 
L 683.622432 275.86641 
L 683.622432 259.488002 
L 677.112084 259.488002 
z
" style="fill:#ff0000;"/>
   </g>
   <g id="patch_72">
    <path clip-path="url(#p99b57616f9)" d="M 382.864595 275.86641 
L 389.374943 275.86641 
L 389.374943 243.109595 
L 382.864595 243.109595 
z
" style="fill:#ffa500;"/>
   </g>
   <g id="patch_73">
    <path clip-path="url(#p99b57616f9)" d="M 389.374943 275.86641 
L 395.885292 275.86641 
L 395.885292 259.488002 
L 389.374943 259.488002 
z
" style="fill:#ffa500;"/>
   </g>
   <g id="patch_74">
    <path clip-path="url(#p99b57616f9)" d="M 395.885292 275.86641 
L 402.39564 275.86641 
L 402.39564 243.109595 
L 395.885292 243.109595 
z
" style="fill:#ffa500;"/>
   </g>
   <g id="patch_75">
    <path clip-path="url(#p99b57616f9)" d="M 402.39564 275.86641 
L 408.905988 275.86641 
L 408.905988 243.109595 
L 402.39564 243.109595 
z
" style="fill:#ffa500;"/>
   </g>
   <g id="patch_76">
    <path clip-path="url(#p99b57616f9)" d="M 408.905988 275.86641 
L 415.416336 275.86641 
L 415.416336 243.109595 
L 408.905988 243.109595 
z
" style="fill:#ffa500;"/>
   </g>
   <g id="patch_77">
    <path clip-path="url(#p99b57616f9)" d="M 415.416336 275.86641 
L 421.926684 275.86641 
L 421.926684 234.920391 
L 415.416336 234.920391 
z
" style="fill:#ffa500;"/>
   </g>
   <g id="patch_78">
    <path clip-path="url(#p99b57616f9)" d="M 421.926684 275.86641 
L 428.437032 275.86641 
L 428.437032 275.86641 
L 421.926684 275.86641 
z
" style="fill:#ffa500;"/>
   </g>
   <g id="patch_79">
    <path clip-path="url(#p99b57616f9)" d="M 428.437032 275.86641 
L 434.94738 275.86641 
L 434.94738 259.488002 
L 428.437032 259.488002 
z
" style="fill:#ffa500;"/>
   </g>
   <g id="patch_80">
    <path clip-path="url(#p99b57616f9)" d="M 434.94738 275.86641 
L 441.457729 275.86641 
L 441.457729 251.298799 
L 434.94738 251.298799 
z
" style="fill:#ffa500;"/>
   </g>
   <g id="patch_81">
    <path clip-path="url(#p99b57616f9)" d="M 441.457729 275.86641 
L 447.968077 275.86641 
L 447.968077 267.677206 
L 441.457729 267.677206 
z
" style="fill:#ffa500;"/>
   </g>
   <g id="patch_82">
    <path clip-path="url(#p99b57616f9)" d="M 447.968077 275.86641 
L 454.478425 275.86641 
L 454.478425 267.677206 
L 447.968077 267.677206 
z
" style="fill:#ffa500;"/>
   </g>
   <g id="patch_83">
    <path clip-path="url(#p99b57616f9)" d="M 454.478425 275.86641 
L 460.988773 275.86641 
L 460.988773 251.298799 
L 454.478425 251.298799 
z
" style="fill:#ffa500;"/>
   </g>
   <g id="patch_84">
    <path clip-path="url(#p99b57616f9)" d="M 460.988773 275.86641 
L 467.499121 275.86641 
L 467.499121 259.488002 
L 460.988773 259.488002 
z
" style="fill:#ffa500;"/>
   </g>
   <g id="patch_85">
    <path clip-path="url(#p99b57616f9)" d="M 467.499121 275.86641 
L 474.009469 275.86641 
L 474.009469 275.86641 
L 467.499121 275.86641 
z
" style="fill:#ffa500;"/>
   </g>
   <g id="patch_86">
    <path clip-path="url(#p99b57616f9)" d="M 474.009469 275.86641 
L 480.519817 275.86641 
L 480.519817 259.488002 
L 474.009469 259.488002 
z
" style="fill:#ffa500;"/>
   </g>
   <g id="patch_87">
    <path clip-path="url(#p99b57616f9)" d="M 480.519817 275.86641 
L 487.030166 275.86641 
L 487.030166 267.677206 
L 480.519817 267.677206 
z
" style="fill:#ffa500;"/>
   </g>
   <g id="patch_88">
    <path clip-path="url(#p99b57616f9)" d="M 487.030166 275.86641 
L 493.540514 275.86641 
L 493.540514 243.109595 
L 487.030166 243.109595 
z
" style="fill:#ffa500;"/>
   </g>
   <g id="patch_89">
    <path clip-path="url(#p99b57616f9)" d="M 493.540514 275.86641 
L 500.050862 275.86641 
L 500.050862 275.86641 
L 493.540514 275.86641 
z
" style="fill:#ffa500;"/>
   </g>
   <g id="patch_90">
    <path clip-path="url(#p99b57616f9)" d="M 500.050862 275.86641 
L 506.56121 275.86641 
L 506.56121 259.488002 
L 500.050862 259.488002 
z
" style="fill:#ffa500;"/>
   </g>
   <g id="patch_91">
    <path clip-path="url(#p99b57616f9)" d="M 506.56121 275.86641 
L 513.071558 275.86641 
L 513.071558 267.677206 
L 506.56121 267.677206 
z
" style="fill:#ffa500;"/>
   </g>
   <g id="patch_92">
    <path clip-path="url(#p99b57616f9)" d="M 513.071558 275.86641 
L 519.581906 275.86641 
L 519.581906 259.488002 
L 513.071558 259.488002 
z
" style="fill:#ffa500;"/>
   </g>
   <g id="patch_93">
    <path clip-path="url(#p99b57616f9)" d="M 519.581906 275.86641 
L 526.092254 275.86641 
L 526.092254 259.488002 
L 519.581906 259.488002 
z
" style="fill:#ffa500;"/>
   </g>
   <g id="matplotlib.axis_1">
    <g id="xtick_1">
     <g id="line2d_1">
      <defs>
       <path d="M 0 0 
L 0 3.5 
" id="m1e33d6cd3c" style="stroke:#000000;stroke-width:0.8;"/>
      </defs>
      <g>
       <use style="stroke:#000000;stroke-width:0.8;" x="86.075868" xlink:href="#m1e33d6cd3c" y="275.86641"/>
      </g>
     </g>
     <g id="text_1">
      <!-- 0 -->
      <defs>
       <path d="M 31.78125 66.40625 
Q 24.171875 66.40625 20.328125 58.90625 
Q 16.5 51.421875 16.5 36.375 
Q 16.5 21.390625 20.328125 13.890625 
Q 24.171875 6.390625 31.78125 6.390625 
Q 39.453125 6.390625 43.28125 13.890625 
Q 47.125 21.390625 47.125 36.375 
Q 47.125 51.421875 43.28125 58.90625 
Q 39.453125 66.40625 31.78125 66.40625 
z
M 31.78125 74.21875 
Q 44.046875 74.21875 50.515625 64.515625 
Q 56.984375 54.828125 56.984375 36.375 
Q 56.984375 17.96875 50.515625 8.265625 
Q 44.046875 -1.421875 31.78125 -1.421875 
Q 19.53125 -1.421875 13.0625 8.265625 
Q 6.59375 17.96875 6.59375 36.375 
Q 6.59375 54.828125 13.0625 64.515625 
Q 19.53125 74.21875 31.78125 74.21875 
z
" id="DejaVuSans-48"/>
      </defs>
      <g transform="translate(82.894618 290.464847)scale(0.1 -0.1)">
       <use xlink:href="#DejaVuSans-48"/>
      </g>
     </g>
    </g>
    <g id="xtick_2">
     <g id="line2d_2">
      <g>
       <use style="stroke:#000000;stroke-width:0.8;" x="216.282831" xlink:href="#m1e33d6cd3c" y="275.86641"/>
      </g>
     </g>
     <g id="text_2">
      <!-- 1 -->
      <defs>
       <path d="M 12.40625 8.296875 
L 28.515625 8.296875 
L 28.515625 63.921875 
L 10.984375 60.40625 
L 10.984375 69.390625 
L 28.421875 72.90625 
L 38.28125 72.90625 
L 38.28125 8.296875 
L 54.390625 8.296875 
L 54.390625 0 
L 12.40625 0 
z
" id="DejaVuSans-49"/>
      </defs>
      <g transform="translate(213.101581 290.464847)scale(0.1 -0.1)">
       <use xlink:href="#DejaVuSans-49"/>
      </g>
     </g>
    </g>
    <g id="xtick_3">
     <g id="line2d_3">
      <g>
       <use style="stroke:#000000;stroke-width:0.8;" x="346.489794" xlink:href="#m1e33d6cd3c" y="275.86641"/>
      </g>
     </g>
     <g id="text_3">
      <!-- 2 -->
      <defs>
       <path d="M 19.1875 8.296875 
L 53.609375 8.296875 
L 53.609375 0 
L 7.328125 0 
L 7.328125 8.296875 
Q 12.9375 14.109375 22.625 23.890625 
Q 32.328125 33.6875 34.8125 36.53125 
Q 39.546875 41.84375 41.421875 45.53125 
Q 43.3125 49.21875 43.3125 52.78125 
Q 43.3125 58.59375 39.234375 62.25 
Q 35.15625 65.921875 28.609375 65.921875 
Q 23.96875 65.921875 18.8125 64.3125 
Q 13.671875 62.703125 7.8125 59.421875 
L 7.8125 69.390625 
Q 13.765625 71.78125 18.9375 73 
Q 24.125 74.21875 28.421875 74.21875 
Q 39.75 74.21875 46.484375 68.546875 
Q 53.21875 62.890625 53.21875 53.421875 
Q 53.21875 48.921875 51.53125 44.890625 
Q 49.859375 40.875 45.40625 35.40625 
Q 44.1875 33.984375 37.640625 27.21875 
Q 31.109375 20.453125 19.1875 8.296875 
z
" id="DejaVuSans-50"/>
      </defs>
      <g transform="translate(343.308544 290.464847)scale(0.1 -0.1)">
       <use xlink:href="#DejaVuSans-50"/>
      </g>
     </g>
    </g>
    <g id="xtick_4">
     <g id="line2d_4">
      <g>
       <use style="stroke:#000000;stroke-width:0.8;" x="476.696757" xlink:href="#m1e33d6cd3c" y="275.86641"/>
      </g>
     </g>
     <g id="text_4">
      <!-- 3 -->
      <defs>
       <path d="M 40.578125 39.3125 
Q 47.65625 37.796875 51.625 33 
Q 55.609375 28.21875 55.609375 21.1875 
Q 55.609375 10.40625 48.1875 4.484375 
Q 40.765625 -1.421875 27.09375 -1.421875 
Q 22.515625 -1.421875 17.65625 -0.515625 
Q 12.796875 0.390625 7.625 2.203125 
L 7.625 11.71875 
Q 11.71875 9.328125 16.59375 8.109375 
Q 21.484375 6.890625 26.8125 6.890625 
Q 36.078125 6.890625 40.9375 10.546875 
Q 45.796875 14.203125 45.796875 21.1875 
Q 45.796875 27.640625 41.28125 31.265625 
Q 36.765625 34.90625 28.71875 34.90625 
L 20.21875 34.90625 
L 20.21875 43.015625 
L 29.109375 43.015625 
Q 36.375 43.015625 40.234375 45.921875 
Q 44.09375 48.828125 44.09375 54.296875 
Q 44.09375 59.90625 40.109375 62.90625 
Q 36.140625 65.921875 28.71875 65.921875 
Q 24.65625 65.921875 20.015625 65.03125 
Q 15.375 64.15625 9.8125 62.3125 
L 9.8125 71.09375 
Q 15.4375 72.65625 20.34375 73.4375 
Q 25.25 74.21875 29.59375 74.21875 
Q 40.828125 74.21875 47.359375 69.109375 
Q 53.90625 64.015625 53.90625 55.328125 
Q 53.90625 49.265625 50.4375 45.09375 
Q 46.96875 40.921875 40.578125 39.3125 
z
" id="DejaVuSans-51"/>
      </defs>
      <g transform="translate(473.515507 290.464847)scale(0.1 -0.1)">
       <use xlink:href="#DejaVuSans-51"/>
      </g>
     </g>
    </g>
    <g id="xtick_5">
     <g id="line2d_5">
      <g>
       <use style="stroke:#000000;stroke-width:0.8;" x="606.903719" xlink:href="#m1e33d6cd3c" y="275.86641"/>
      </g>
     </g>
     <g id="text_5">
      <!-- 4 -->
      <defs>
       <path d="M 37.796875 64.3125 
L 12.890625 25.390625 
L 37.796875 25.390625 
z
M 35.203125 72.90625 
L 47.609375 72.90625 
L 47.609375 25.390625 
L 58.015625 25.390625 
L 58.015625 17.1875 
L 47.609375 17.1875 
L 47.609375 0 
L 37.796875 0 
L 37.796875 17.1875 
L 4.890625 17.1875 
L 4.890625 26.703125 
z
" id="DejaVuSans-52"/>
      </defs>
      <g transform="translate(603.722469 290.464847)scale(0.1 -0.1)">
       <use xlink:href="#DejaVuSans-52"/>
      </g>
     </g>
    </g>
    <g id="text_6">
     <!-- log(RFU) -->
     <defs>
      <path d="M 9.421875 75.984375 
L 18.40625 75.984375 
L 18.40625 0 
L 9.421875 0 
z
" id="DejaVuSans-108"/>
      <path d="M 30.609375 48.390625 
Q 23.390625 48.390625 19.1875 42.75 
Q 14.984375 37.109375 14.984375 27.296875 
Q 14.984375 17.484375 19.15625 11.84375 
Q 23.34375 6.203125 30.609375 6.203125 
Q 37.796875 6.203125 41.984375 11.859375 
Q 46.1875 17.53125 46.1875 27.296875 
Q 46.1875 37.015625 41.984375 42.703125 
Q 37.796875 48.390625 30.609375 48.390625 
z
M 30.609375 56 
Q 42.328125 56 49.015625 48.375 
Q 55.71875 40.765625 55.71875 27.296875 
Q 55.71875 13.875 49.015625 6.21875 
Q 42.328125 -1.421875 30.609375 -1.421875 
Q 18.84375 -1.421875 12.171875 6.21875 
Q 5.515625 13.875 5.515625 27.296875 
Q 5.515625 40.765625 12.171875 48.375 
Q 18.84375 56 30.609375 56 
z
" id="DejaVuSans-111"/>
      <path d="M 45.40625 27.984375 
Q 45.40625 37.75 41.375 43.109375 
Q 37.359375 48.484375 30.078125 48.484375 
Q 22.859375 48.484375 18.828125 43.109375 
Q 14.796875 37.75 14.796875 27.984375 
Q 14.796875 18.265625 18.828125 12.890625 
Q 22.859375 7.515625 30.078125 7.515625 
Q 37.359375 7.515625 41.375 12.890625 
Q 45.40625 18.265625 45.40625 27.984375 
z
M 54.390625 6.78125 
Q 54.390625 -7.171875 48.1875 -13.984375 
Q 42 -20.796875 29.203125 -20.796875 
Q 24.46875 -20.796875 20.265625 -20.09375 
Q 16.0625 -19.390625 12.109375 -17.921875 
L 12.109375 -9.1875 
Q 16.0625 -11.328125 19.921875 -12.34375 
Q 23.78125 -13.375 27.78125 -13.375 
Q 36.625 -13.375 41.015625 -8.765625 
Q 45.40625 -4.15625 45.40625 5.171875 
L 45.40625 9.625 
Q 42.625 4.78125 38.28125 2.390625 
Q 33.9375 0 27.875 0 
Q 17.828125 0 11.671875 7.65625 
Q 5.515625 15.328125 5.515625 27.984375 
Q 5.515625 40.671875 11.671875 48.328125 
Q 17.828125 56 27.875 56 
Q 33.9375 56 38.28125 53.609375 
Q 42.625 51.21875 45.40625 46.390625 
L 45.40625 54.6875 
L 54.390625 54.6875 
z
" id="DejaVuSans-103"/>
      <path d="M 31 75.875 
Q 24.46875 64.65625 21.28125 53.65625 
Q 18.109375 42.671875 18.109375 31.390625 
Q 18.109375 20.125 21.3125 9.0625 
Q 24.515625 -2 31 -13.1875 
L 23.1875 -13.1875 
Q 15.875 -1.703125 12.234375 9.375 
Q 8.59375 20.453125 8.59375 31.390625 
Q 8.59375 42.28125 12.203125 53.3125 
Q 15.828125 64.359375 23.1875 75.875 
z
" id="DejaVuSans-40"/>
      <path d="M 44.390625 34.1875 
Q 47.5625 33.109375 50.5625 29.59375 
Q 53.5625 26.078125 56.59375 19.921875 
L 66.609375 0 
L 56 0 
L 46.6875 18.703125 
Q 43.0625 26.03125 39.671875 28.421875 
Q 36.28125 30.8125 30.421875 30.8125 
L 19.671875 30.8125 
L 19.671875 0 
L 9.8125 0 
L 9.8125 72.90625 
L 32.078125 72.90625 
Q 44.578125 72.90625 50.734375 67.671875 
Q 56.890625 62.453125 56.890625 51.90625 
Q 56.890625 45.015625 53.6875 40.46875 
Q 50.484375 35.9375 44.390625 34.1875 
z
M 19.671875 64.796875 
L 19.671875 38.921875 
L 32.078125 38.921875 
Q 39.203125 38.921875 42.84375 42.21875 
Q 46.484375 45.515625 46.484375 51.90625 
Q 46.484375 58.296875 42.84375 61.546875 
Q 39.203125 64.796875 32.078125 64.796875 
z
" id="DejaVuSans-82"/>
      <path d="M 9.8125 72.90625 
L 51.703125 72.90625 
L 51.703125 64.59375 
L 19.671875 64.59375 
L 19.671875 43.109375 
L 48.578125 43.109375 
L 48.578125 34.8125 
L 19.671875 34.8125 
L 19.671875 0 
L 9.8125 0 
z
" id="DejaVuSans-70"/>
      <path d="M 8.6875 72.90625 
L 18.609375 72.90625 
L 18.609375 28.609375 
Q 18.609375 16.890625 22.84375 11.734375 
Q 27.09375 6.59375 36.625 6.59375 
Q 46.09375 6.59375 50.34375 11.734375 
Q 54.59375 16.890625 54.59375 28.609375 
L 54.59375 72.90625 
L 64.5 72.90625 
L 64.5 27.390625 
Q 64.5 13.140625 57.4375 5.859375 
Q 50.390625 -1.421875 36.625 -1.421875 
Q 22.796875 -1.421875 15.734375 5.859375 
Q 8.6875 13.140625 8.6875 27.390625 
z
" id="DejaVuSans-85"/>
      <path d="M 8.015625 75.875 
L 15.828125 75.875 
Q 23.140625 64.359375 26.78125 53.3125 
Q 30.421875 42.28125 30.421875 31.390625 
Q 30.421875 20.453125 26.78125 9.375 
Q 23.140625 -1.703125 15.828125 -13.1875 
L 8.015625 -13.1875 
Q 14.5 -2 17.703125 9.0625 
Q 20.90625 20.125 20.90625 31.390625 
Q 20.90625 42.671875 17.703125 53.65625 
Q 14.5 64.65625 8.015625 75.875 
z
" id="DejaVuSans-41"/>
     </defs>
     <g transform="translate(363.315556 304.142972)scale(0.1 -0.1)">
      <use xlink:href="#DejaVuSans-108"/>
      <use x="27.783203" xlink:href="#DejaVuSans-111"/>
      <use x="88.964844" xlink:href="#DejaVuSans-103"/>
      <use x="152.441406" xlink:href="#DejaVuSans-40"/>
      <use x="191.455078" xlink:href="#DejaVuSans-82"/>
      <use x="260.9375" xlink:href="#DejaVuSans-70"/>
      <use x="318.457031" xlink:href="#DejaVuSans-85"/>
      <use x="391.650391" xlink:href="#DejaVuSans-41"/>
     </g>
    </g>
   </g>
   <g id="matplotlib.axis_2">
    <g id="ytick_1">
     <g id="line2d_6">
      <defs>
       <path d="M 0 0 
L -3.5 0 
" id="m0408c3fd8b" style="stroke:#000000;stroke-width:0.8;"/>
      </defs>
      <g>
       <use style="stroke:#000000;stroke-width:0.8;" x="56.19854" xlink:href="#m0408c3fd8b" y="275.86641"/>
      </g>
     </g>
     <g id="text_7">
      <!-- 0 -->
      <g transform="translate(42.83604 279.665629)scale(0.1 -0.1)">
       <use xlink:href="#DejaVuSans-48"/>
      </g>
     </g>
    </g>
    <g id="ytick_2">
     <g id="line2d_7">
      <g>
       <use style="stroke:#000000;stroke-width:0.8;" x="56.19854" xlink:href="#m0408c3fd8b" y="234.920391"/>
      </g>
     </g>
     <g id="text_8">
      <!-- 5 -->
      <defs>
       <path d="M 10.796875 72.90625 
L 49.515625 72.90625 
L 49.515625 64.59375 
L 19.828125 64.59375 
L 19.828125 46.734375 
Q 21.96875 47.46875 24.109375 47.828125 
Q 26.265625 48.1875 28.421875 48.1875 
Q 40.625 48.1875 47.75 41.5 
Q 54.890625 34.8125 54.890625 23.390625 
Q 54.890625 11.625 47.5625 5.09375 
Q 40.234375 -1.421875 26.90625 -1.421875 
Q 22.3125 -1.421875 17.546875 -0.640625 
Q 12.796875 0.140625 7.71875 1.703125 
L 7.71875 11.625 
Q 12.109375 9.234375 16.796875 8.0625 
Q 21.484375 6.890625 26.703125 6.890625 
Q 35.15625 6.890625 40.078125 11.328125 
Q 45.015625 15.765625 45.015625 23.390625 
Q 45.015625 31 40.078125 35.4375 
Q 35.15625 39.890625 26.703125 39.890625 
Q 22.75 39.890625 18.8125 39.015625 
Q 14.890625 38.140625 10.796875 36.28125 
z
" id="DejaVuSans-53"/>
      </defs>
      <g transform="translate(42.83604 238.71961)scale(0.1 -0.1)">
       <use xlink:href="#DejaVuSans-53"/>
      </g>
     </g>
    </g>
    <g id="ytick_3">
     <g id="line2d_8">
      <g>
       <use style="stroke:#000000;stroke-width:0.8;" x="56.19854" xlink:href="#m0408c3fd8b" y="193.974372"/>
      </g>
     </g>
     <g id="text_9">
      <!-- 10 -->
      <g transform="translate(36.47354 197.773591)scale(0.1 -0.1)">
       <use xlink:href="#DejaVuSans-49"/>
       <use x="63.623047" xlink:href="#DejaVuSans-48"/>
      </g>
     </g>
    </g>
    <g id="ytick_4">
     <g id="line2d_9">
      <g>
       <use style="stroke:#000000;stroke-width:0.8;" x="56.19854" xlink:href="#m0408c3fd8b" y="153.028353"/>
      </g>
     </g>
     <g id="text_10">
      <!-- 15 -->
      <g transform="translate(36.47354 156.827572)scale(0.1 -0.1)">
       <use xlink:href="#DejaVuSans-49"/>
       <use x="63.623047" xlink:href="#DejaVuSans-53"/>
      </g>
     </g>
    </g>
    <g id="ytick_5">
     <g id="line2d_10">
      <g>
       <use style="stroke:#000000;stroke-width:0.8;" x="56.19854" xlink:href="#m0408c3fd8b" y="112.082334"/>
      </g>
     </g>
     <g id="text_11">
      <!-- 20 -->
      <g transform="translate(36.47354 115.881553)scale(0.1 -0.1)">
       <use xlink:href="#DejaVuSans-50"/>
       <use x="63.623047" xlink:href="#DejaVuSans-48"/>
      </g>
     </g>
    </g>
    <g id="ytick_6">
     <g id="line2d_11">
      <g>
       <use style="stroke:#000000;stroke-width:0.8;" x="56.19854" xlink:href="#m0408c3fd8b" y="71.136315"/>
      </g>
     </g>
     <g id="text_12">
      <!-- 25 -->
      <g transform="translate(36.47354 74.935534)scale(0.1 -0.1)">
       <use xlink:href="#DejaVuSans-50"/>
       <use x="63.623047" xlink:href="#DejaVuSans-53"/>
      </g>
     </g>
    </g>
    <g id="ytick_7">
     <g id="line2d_12">
      <g>
       <use style="stroke:#000000;stroke-width:0.8;" x="56.19854" xlink:href="#m0408c3fd8b" y="30.190296"/>
      </g>
     </g>
     <g id="text_13">
      <!-- 30 -->
      <g transform="translate(36.47354 33.989514)scale(0.1 -0.1)">
       <use xlink:href="#DejaVuSans-51"/>
       <use x="63.623047" xlink:href="#DejaVuSans-48"/>
      </g>
     </g>
    </g>
    <g id="text_14">
     <!-- Counts -->
     <defs>
      <path d="M 64.40625 67.28125 
L 64.40625 56.890625 
Q 59.421875 61.53125 53.78125 63.8125 
Q 48.140625 66.109375 41.796875 66.109375 
Q 29.296875 66.109375 22.65625 58.46875 
Q 16.015625 50.828125 16.015625 36.375 
Q 16.015625 21.96875 22.65625 14.328125 
Q 29.296875 6.6875 41.796875 6.6875 
Q 48.140625 6.6875 53.78125 8.984375 
Q 59.421875 11.28125 64.40625 15.921875 
L 64.40625 5.609375 
Q 59.234375 2.09375 53.4375 0.328125 
Q 47.65625 -1.421875 41.21875 -1.421875 
Q 24.65625 -1.421875 15.125 8.703125 
Q 5.609375 18.84375 5.609375 36.375 
Q 5.609375 53.953125 15.125 64.078125 
Q 24.65625 74.21875 41.21875 74.21875 
Q 47.75 74.21875 53.53125 72.484375 
Q 59.328125 70.75 64.40625 67.28125 
z
" id="DejaVuSans-67"/>
      <path d="M 8.5 21.578125 
L 8.5 54.6875 
L 17.484375 54.6875 
L 17.484375 21.921875 
Q 17.484375 14.15625 20.5 10.265625 
Q 23.53125 6.390625 29.59375 6.390625 
Q 36.859375 6.390625 41.078125 11.03125 
Q 45.3125 15.671875 45.3125 23.6875 
L 45.3125 54.6875 
L 54.296875 54.6875 
L 54.296875 0 
L 45.3125 0 
L 45.3125 8.40625 
Q 42.046875 3.421875 37.71875 1 
Q 33.40625 -1.421875 27.6875 -1.421875 
Q 18.265625 -1.421875 13.375 4.4375 
Q 8.5 10.296875 8.5 21.578125 
z
M 31.109375 56 
z
" id="DejaVuSans-117"/>
      <path d="M 54.890625 33.015625 
L 54.890625 0 
L 45.90625 0 
L 45.90625 32.71875 
Q 45.90625 40.484375 42.875 44.328125 
Q 39.84375 48.1875 33.796875 48.1875 
Q 26.515625 48.1875 22.3125 43.546875 
Q 18.109375 38.921875 18.109375 30.90625 
L 18.109375 0 
L 9.078125 0 
L 9.078125 54.6875 
L 18.109375 54.6875 
L 18.109375 46.1875 
Q 21.34375 51.125 25.703125 53.5625 
Q 30.078125 56 35.796875 56 
Q 45.21875 56 50.046875 50.171875 
Q 54.890625 44.34375 54.890625 33.015625 
z
" id="DejaVuSans-110"/>
      <path d="M 18.3125 70.21875 
L 18.3125 54.6875 
L 36.8125 54.6875 
L 36.8125 47.703125 
L 18.3125 47.703125 
L 18.3125 18.015625 
Q 18.3125 11.328125 20.140625 9.421875 
Q 21.96875 7.515625 27.59375 7.515625 
L 36.8125 7.515625 
L 36.8125 0 
L 27.59375 0 
Q 17.1875 0 13.234375 3.875 
Q 9.28125 7.765625 9.28125 18.015625 
L 9.28125 47.703125 
L 2.6875 47.703125 
L 2.6875 54.6875 
L 9.28125 54.6875 
L 9.28125 70.21875 
z
" id="DejaVuSans-116"/>
      <path d="M 44.28125 53.078125 
L 44.28125 44.578125 
Q 40.484375 46.53125 36.375 47.5 
Q 32.28125 48.484375 27.875 48.484375 
Q 21.1875 48.484375 17.84375 46.4375 
Q 14.5 44.390625 14.5 40.28125 
Q 14.5 37.15625 16.890625 35.375 
Q 19.28125 33.59375 26.515625 31.984375 
L 29.59375 31.296875 
Q 39.15625 29.25 43.1875 25.515625 
Q 47.21875 21.78125 47.21875 15.09375 
Q 47.21875 7.46875 41.1875 3.015625 
Q 35.15625 -1.421875 24.609375 -1.421875 
Q 20.21875 -1.421875 15.453125 -0.5625 
Q 10.6875 0.296875 5.421875 2 
L 5.421875 11.28125 
Q 10.40625 8.6875 15.234375 7.390625 
Q 20.0625 6.109375 24.8125 6.109375 
Q 31.15625 6.109375 34.5625 8.28125 
Q 37.984375 10.453125 37.984375 14.40625 
Q 37.984375 18.0625 35.515625 20.015625 
Q 33.0625 21.96875 24.703125 23.78125 
L 21.578125 24.515625 
Q 13.234375 26.265625 9.515625 29.90625 
Q 5.8125 33.546875 5.8125 39.890625 
Q 5.8125 47.609375 11.28125 51.796875 
Q 16.75 56 26.8125 56 
Q 31.78125 56 36.171875 55.265625 
Q 40.578125 54.546875 44.28125 53.078125 
z
" id="DejaVuSans-115"/>
     </defs>
     <g transform="translate(30.393852 164.339575)rotate(-90)scale(0.1 -0.1)">
      <use xlink:href="#DejaVuSans-67"/>
      <use x="69.824219" xlink:href="#DejaVuSans-111"/>
      <use x="131.005859" xlink:href="#DejaVuSans-117"/>
      <use x="194.384766" xlink:href="#DejaVuSans-110"/>
      <use x="257.763672" xlink:href="#DejaVuSans-116"/>
      <use x="296.972656" xlink:href="#DejaVuSans-115"/>
     </g>
    </g>
   </g>
   <g id="patch_94">
    <path d="M 56.19854 275.86641 
L 56.19854 17.90649 
" style="fill:none;stroke:#000000;stroke-linecap:square;stroke-linejoin:miter;stroke-width:0.8;"/>
   </g>
   <g id="patch_95">
    <path d="M 713.49976 275.86641 
L 713.49976 17.90649 
" style="fill:none;stroke:#000000;stroke-linecap:square;stroke-linejoin:miter;stroke-width:0.8;"/>
   </g>
   <g id="patch_96">
    <path d="M 56.19854 275.86641 
L 713.49976 275.86641 
" style="fill:none;stroke:#000000;stroke-linecap:square;stroke-linejoin:miter;stroke-width:0.8;"/>
   </g>
   <g id="patch_97">
    <path d="M 56.19854 17.90649 
L 713.49976 17.90649 
" style="fill:none;stroke:#000000;stroke-linecap:square;stroke-linejoin:miter;stroke-width:0.8;"/>
   </g>
   <g id="text_15">
    <!-- ConA_13799-10ug_V5.0_DATA.csv -->
    <defs>
     <path d="M 34.1875 63.1875 
L 20.796875 26.90625 
L 47.609375 26.90625 
z
M 28.609375 72.90625 
L 39.796875 72.90625 
L 67.578125 0 
L 57.328125 0 
L 50.6875 18.703125 
L 17.828125 18.703125 
L 11.1875 0 
L 0.78125 0 
z
" id="DejaVuSans-65"/>
     <path d="M 50.984375 -16.609375 
L 50.984375 -23.578125 
L -0.984375 -23.578125 
L -0.984375 -16.609375 
z
" id="DejaVuSans-95"/>
     <path d="M 8.203125 72.90625 
L 55.078125 72.90625 
L 55.078125 68.703125 
L 28.609375 0 
L 18.3125 0 
L 43.21875 64.59375 
L 8.203125 64.59375 
z
" id="DejaVuSans-55"/>
     <path d="M 10.984375 1.515625 
L 10.984375 10.5 
Q 14.703125 8.734375 18.5 7.8125 
Q 22.3125 6.890625 25.984375 6.890625 
Q 35.75 6.890625 40.890625 13.453125 
Q 46.046875 20.015625 46.78125 33.40625 
Q 43.953125 29.203125 39.59375 26.953125 
Q 35.25 24.703125 29.984375 24.703125 
Q 19.046875 24.703125 12.671875 31.3125 
Q 6.296875 37.9375 6.296875 49.421875 
Q 6.296875 60.640625 12.9375 67.421875 
Q 19.578125 74.21875 30.609375 74.21875 
Q 43.265625 74.21875 49.921875 64.515625 
Q 56.59375 54.828125 56.59375 36.375 
Q 56.59375 19.140625 48.40625 8.859375 
Q 40.234375 -1.421875 26.421875 -1.421875 
Q 22.703125 -1.421875 18.890625 -0.6875 
Q 15.09375 0.046875 10.984375 1.515625 
z
M 30.609375 32.421875 
Q 37.25 32.421875 41.125 36.953125 
Q 45.015625 41.5 45.015625 49.421875 
Q 45.015625 57.28125 41.125 61.84375 
Q 37.25 66.40625 30.609375 66.40625 
Q 23.96875 66.40625 20.09375 61.84375 
Q 16.21875 57.28125 16.21875 49.421875 
Q 16.21875 41.5 20.09375 36.953125 
Q 23.96875 32.421875 30.609375 32.421875 
z
" id="DejaVuSans-57"/>
     <path d="M 4.890625 31.390625 
L 31.203125 31.390625 
L 31.203125 23.390625 
L 4.890625 23.390625 
z
" id="DejaVuSans-45"/>
     <path d="M 28.609375 0 
L 0.78125 72.90625 
L 11.078125 72.90625 
L 34.1875 11.53125 
L 57.328125 72.90625 
L 67.578125 72.90625 
L 39.796875 0 
z
" id="DejaVuSans-86"/>
     <path d="M 10.6875 12.40625 
L 21 12.40625 
L 21 0 
L 10.6875 0 
z
" id="DejaVuSans-46"/>
     <path d="M 19.671875 64.796875 
L 19.671875 8.109375 
L 31.59375 8.109375 
Q 46.6875 8.109375 53.6875 14.9375 
Q 60.6875 21.78125 60.6875 36.53125 
Q 60.6875 51.171875 53.6875 57.984375 
Q 46.6875 64.796875 31.59375 64.796875 
z
M 9.8125 72.90625 
L 30.078125 72.90625 
Q 51.265625 72.90625 61.171875 64.09375 
Q 71.09375 55.28125 71.09375 36.53125 
Q 71.09375 17.671875 61.125 8.828125 
Q 51.171875 0 30.078125 0 
L 9.8125 0 
z
" id="DejaVuSans-68"/>
     <path d="M -0.296875 72.90625 
L 61.375 72.90625 
L 61.375 64.59375 
L 35.5 64.59375 
L 35.5 0 
L 25.59375 0 
L 25.59375 64.59375 
L -0.296875 64.59375 
z
" id="DejaVuSans-84"/>
     <path d="M 48.78125 52.59375 
L 48.78125 44.1875 
Q 44.96875 46.296875 41.140625 47.34375 
Q 37.3125 48.390625 33.40625 48.390625 
Q 24.65625 48.390625 19.8125 42.84375 
Q 14.984375 37.3125 14.984375 27.296875 
Q 14.984375 17.28125 19.8125 11.734375 
Q 24.65625 6.203125 33.40625 6.203125 
Q 37.3125 6.203125 41.140625 7.25 
Q 44.96875 8.296875 48.78125 10.40625 
L 48.78125 2.09375 
Q 45.015625 0.34375 40.984375 -0.53125 
Q 36.96875 -1.421875 32.421875 -1.421875 
Q 20.0625 -1.421875 12.78125 6.34375 
Q 5.515625 14.109375 5.515625 27.296875 
Q 5.515625 40.671875 12.859375 48.328125 
Q 20.21875 56 33.015625 56 
Q 37.15625 56 41.109375 55.140625 
Q 45.0625 54.296875 48.78125 52.59375 
z
" id="DejaVuSans-99"/>
     <path d="M 2.984375 54.6875 
L 12.5 54.6875 
L 29.59375 8.796875 
L 46.6875 54.6875 
L 56.203125 54.6875 
L 35.6875 0 
L 23.484375 0 
z
" id="DejaVuSans-118"/>
    </defs>
    <g transform="translate(281.575087 11.90649)scale(0.12 -0.12)">
     <use xlink:href="#DejaVuSans-67"/>
     <use x="69.824219" xlink:href="#DejaVuSans-111"/>
     <use x="131.005859" xlink:href="#DejaVuSans-110"/>
     <use x="194.384766" xlink:href="#DejaVuSans-65"/>
     <use x="262.792969" xlink:href="#DejaVuSans-95"/>
     <use x="312.792969" xlink:href="#DejaVuSans-49"/>
     <use x="376.416016" xlink:href="#DejaVuSans-51"/>
     <use x="440.039062" xlink:href="#DejaVuSans-55"/>
     <use x="503.662109" xlink:href="#DejaVuSans-57"/>
     <use x="567.285156" xlink:href="#DejaVuSans-57"/>
     <use x="630.908203" xlink:href="#DejaVuSans-45"/>
     <use x="666.992188" xlink:href="#DejaVuSans-49"/>
     <use x="730.615234" xlink:href="#DejaVuSans-48"/>
     <use x="794.238281" xlink:href="#DejaVuSans-117"/>
     <use x="857.617188" xlink:href="#DejaVuSans-103"/>
     <use x="921.09375" xlink:href="#DejaVuSans-95"/>
     <use x="971.09375" xlink:href="#DejaVuSans-86"/>
     <use x="1039.501953" xlink:href="#DejaVuSans-53"/>
     <use x="1103.125" xlink:href="#DejaVuSans-46"/>
     <use x="1134.912109" xlink:href="#DejaVuSans-48"/>
     <use x="1198.535156" xlink:href="#DejaVuSans-95"/>
     <use x="1248.535156" xlink:href="#DejaVuSans-68"/>
     <use x="1325.521484" xlink:href="#DejaVuSans-65"/>
     <use x="1393.820312" xlink:href="#DejaVuSans-84"/>
     <use x="1454.794922" xlink:href="#DejaVuSans-65"/>
     <use x="1523.1875" xlink:href="#DejaVuSans-46"/>
     <use x="1554.974609" xlink:href="#DejaVuSans-99"/>
     <use x="1609.955078" xlink:href="#DejaVuSans-115"/>
     <use x="1662.054688" xlink:href="#DejaVuSans-118"/>
    </g>
   </g>
  </g>
  <g id="axes_2">
   <g id="patch_98">
    <path d="M 56.19854 895.597835 
L 713.49976 895.597835 
L 713.49976 637.637915 
L 56.19854 637.637915 
z
" style="fill:#ffffff;"/>
   </g>
   <g id="patch_99">
    <path clip-path="url(#pbea05062d9)" d="M 86.075868 766.617875 
L 185.666962 766.617875 
L 185.666962 649.363366 
L 86.075868 649.363366 
z
" style="fill:#0000ff;"/>
   </g>
   <g id="patch_100">
    <path clip-path="url(#pbea05062d9)" d="M 210.564736 766.617875 
L 310.15583 766.617875 
L 310.15583 686.683399 
L 210.564736 686.683399 
z
" style="fill:#0000ff;"/>
   </g>
   <g id="patch_101">
    <path clip-path="url(#pbea05062d9)" d="M 335.053603 766.617875 
L 434.644697 766.617875 
L 434.644697 716.536217 
L 335.053603 716.536217 
z
" style="fill:#0000ff;"/>
   </g>
   <g id="patch_102">
    <path clip-path="url(#pbea05062d9)" d="M 459.54247 766.617875 
L 559.133564 766.617875 
L 559.133564 716.536217 
L 459.54247 716.536217 
z
" style="fill:#0000ff;"/>
   </g>
   <g id="patch_103">
    <path clip-path="url(#pbea05062d9)" d="M 584.031338 766.617875 
L 683.622432 766.617875 
L 683.622432 716.536217 
L 584.031338 716.536217 
z
" style="fill:#0000ff;"/>
   </g>
   <g id="matplotlib.axis_3">
    <g id="xtick_6">
     <g id="line2d_13">
      <g>
       <use style="stroke:#000000;stroke-width:0.8;" x="135.871415" xlink:href="#m1e33d6cd3c" y="895.597835"/>
      </g>
     </g>
     <g id="text_16">
      <!-- 0 -->
      <g transform="translate(132.690165 910.196272)scale(0.1 -0.1)">
       <use xlink:href="#DejaVuSans-48"/>
      </g>
     </g>
    </g>
    <g id="xtick_7">
     <g id="line2d_14">
      <g>
       <use style="stroke:#000000;stroke-width:0.8;" x="260.360283" xlink:href="#m1e33d6cd3c" y="895.597835"/>
      </g>
     </g>
     <g id="text_17">
      <!-- 1 -->
      <g transform="translate(257.179033 910.196272)scale(0.1 -0.1)">
       <use xlink:href="#DejaVuSans-49"/>
      </g>
     </g>
    </g>
    <g id="xtick_8">
     <g id="line2d_15">
      <g>
       <use style="stroke:#000000;stroke-width:0.8;" x="384.84915" xlink:href="#m1e33d6cd3c" y="895.597835"/>
      </g>
     </g>
     <g id="text_18">
      <!-- 2 -->
      <g transform="translate(381.6679 910.196272)scale(0.1 -0.1)">
       <use xlink:href="#DejaVuSans-50"/>
      </g>
     </g>
    </g>
    <g id="xtick_9">
     <g id="line2d_16">
      <g>
       <use style="stroke:#000000;stroke-width:0.8;" x="509.338017" xlink:href="#m1e33d6cd3c" y="895.597835"/>
      </g>
     </g>
     <g id="text_19">
      <!-- 3 -->
      <g transform="translate(506.156767 910.196272)scale(0.1 -0.1)">
       <use xlink:href="#DejaVuSans-51"/>
      </g>
     </g>
    </g>
    <g id="xtick_10">
     <g id="line2d_17">
      <g>
       <use style="stroke:#000000;stroke-width:0.8;" x="633.826885" xlink:href="#m1e33d6cd3c" y="895.597835"/>
      </g>
     </g>
     <g id="text_20">
      <!-- 4 -->
      <g transform="translate(630.645635 910.196272)scale(0.1 -0.1)">
       <use xlink:href="#DejaVuSans-52"/>
      </g>
     </g>
    </g>
    <g id="text_21">
     <!-- Feature -->
     <defs>
      <path d="M 56.203125 29.59375 
L 56.203125 25.203125 
L 14.890625 25.203125 
Q 15.484375 15.921875 20.484375 11.0625 
Q 25.484375 6.203125 34.421875 6.203125 
Q 39.59375 6.203125 44.453125 7.46875 
Q 49.3125 8.734375 54.109375 11.28125 
L 54.109375 2.78125 
Q 49.265625 0.734375 44.1875 -0.34375 
Q 39.109375 -1.421875 33.890625 -1.421875 
Q 20.796875 -1.421875 13.15625 6.1875 
Q 5.515625 13.8125 5.515625 26.8125 
Q 5.515625 40.234375 12.765625 48.109375 
Q 20.015625 56 32.328125 56 
Q 43.359375 56 49.78125 48.890625 
Q 56.203125 41.796875 56.203125 29.59375 
z
M 47.21875 32.234375 
Q 47.125 39.59375 43.09375 43.984375 
Q 39.0625 48.390625 32.421875 48.390625 
Q 24.90625 48.390625 20.390625 44.140625 
Q 15.875 39.890625 15.1875 32.171875 
z
" id="DejaVuSans-101"/>
      <path d="M 34.28125 27.484375 
Q 23.390625 27.484375 19.1875 25 
Q 14.984375 22.515625 14.984375 16.5 
Q 14.984375 11.71875 18.140625 8.90625 
Q 21.296875 6.109375 26.703125 6.109375 
Q 34.1875 6.109375 38.703125 11.40625 
Q 43.21875 16.703125 43.21875 25.484375 
L 43.21875 27.484375 
z
M 52.203125 31.203125 
L 52.203125 0 
L 43.21875 0 
L 43.21875 8.296875 
Q 40.140625 3.328125 35.546875 0.953125 
Q 30.953125 -1.421875 24.3125 -1.421875 
Q 15.921875 -1.421875 10.953125 3.296875 
Q 6 8.015625 6 15.921875 
Q 6 25.140625 12.171875 29.828125 
Q 18.359375 34.515625 30.609375 34.515625 
L 43.21875 34.515625 
L 43.21875 35.40625 
Q 43.21875 41.609375 39.140625 45 
Q 35.0625 48.390625 27.6875 48.390625 
Q 23 48.390625 18.546875 47.265625 
Q 14.109375 46.140625 10.015625 43.890625 
L 10.015625 52.203125 
Q 14.9375 54.109375 19.578125 55.046875 
Q 24.21875 56 28.609375 56 
Q 40.484375 56 46.34375 49.84375 
Q 52.203125 43.703125 52.203125 31.203125 
z
" id="DejaVuSans-97"/>
      <path d="M 41.109375 46.296875 
Q 39.59375 47.171875 37.8125 47.578125 
Q 36.03125 48 33.890625 48 
Q 26.265625 48 22.1875 43.046875 
Q 18.109375 38.09375 18.109375 28.8125 
L 18.109375 0 
L 9.078125 0 
L 9.078125 54.6875 
L 18.109375 54.6875 
L 18.109375 46.1875 
Q 20.953125 51.171875 25.484375 53.578125 
Q 30.03125 56 36.53125 56 
Q 37.453125 56 38.578125 55.875 
Q 39.703125 55.765625 41.0625 55.515625 
z
" id="DejaVuSans-114"/>
     </defs>
     <g transform="translate(351.54735 929.40606)scale(0.1728 -0.1728)">
      <use xlink:href="#DejaVuSans-70"/>
      <use x="57.441406" xlink:href="#DejaVuSans-101"/>
      <use x="118.964844" xlink:href="#DejaVuSans-97"/>
      <use x="180.244141" xlink:href="#DejaVuSans-116"/>
      <use x="219.453125" xlink:href="#DejaVuSans-117"/>
      <use x="282.832031" xlink:href="#DejaVuSans-114"/>
      <use x="323.914062" xlink:href="#DejaVuSans-101"/>
     </g>
    </g>
   </g>
   <g id="matplotlib.axis_4">
    <g id="ytick_8">
     <g id="line2d_18">
      <g>
       <use style="stroke:#000000;stroke-width:0.8;" x="56.19854" xlink:href="#m0408c3fd8b" y="870.703372"/>
      </g>
     </g>
     <g id="text_22">
      <!-- −3 -->
      <defs>
       <path d="M 10.59375 35.5 
L 73.1875 35.5 
L 73.1875 27.203125 
L 10.59375 27.203125 
z
" id="DejaVuSans-8722"/>
      </defs>
      <g transform="translate(23.72404 877.268422)scale(0.1728 -0.1728)">
       <use xlink:href="#DejaVuSans-8722"/>
       <use x="83.789062" xlink:href="#DejaVuSans-51"/>
      </g>
     </g>
    </g>
    <g id="ytick_9">
     <g id="line2d_19">
      <g>
       <use style="stroke:#000000;stroke-width:0.8;" x="56.19854" xlink:href="#m0408c3fd8b" y="836.008206"/>
      </g>
     </g>
     <g id="text_23">
      <!-- −2 -->
      <g transform="translate(23.72404 842.573256)scale(0.1728 -0.1728)">
       <use xlink:href="#DejaVuSans-8722"/>
       <use x="83.789062" xlink:href="#DejaVuSans-50"/>
      </g>
     </g>
    </g>
    <g id="ytick_10">
     <g id="line2d_20">
      <g>
       <use style="stroke:#000000;stroke-width:0.8;" x="56.19854" xlink:href="#m0408c3fd8b" y="801.313041"/>
      </g>
     </g>
     <g id="text_24">
      <!-- −1 -->
      <g transform="translate(23.72404 807.878091)scale(0.1728 -0.1728)">
       <use xlink:href="#DejaVuSans-8722"/>
       <use x="83.789062" xlink:href="#DejaVuSans-49"/>
      </g>
     </g>
    </g>
    <g id="ytick_11">
     <g id="line2d_21">
      <g>
       <use style="stroke:#000000;stroke-width:0.8;" x="56.19854" xlink:href="#m0408c3fd8b" y="766.617875"/>
      </g>
     </g>
     <g id="text_25">
      <!-- 0 -->
      <g transform="translate(38.20414 773.182925)scale(0.1728 -0.1728)">
       <use xlink:href="#DejaVuSans-48"/>
      </g>
     </g>
    </g>
    <g id="ytick_12">
     <g id="line2d_22">
      <g>
       <use style="stroke:#000000;stroke-width:0.8;" x="56.19854" xlink:href="#m0408c3fd8b" y="731.922709"/>
      </g>
     </g>
     <g id="text_26">
      <!-- 1 -->
      <g transform="translate(38.20414 738.487759)scale(0.1728 -0.1728)">
       <use xlink:href="#DejaVuSans-49"/>
      </g>
     </g>
    </g>
    <g id="ytick_13">
     <g id="line2d_23">
      <g>
       <use style="stroke:#000000;stroke-width:0.8;" x="56.19854" xlink:href="#m0408c3fd8b" y="697.227544"/>
      </g>
     </g>
     <g id="text_27">
      <!-- 2 -->
      <g transform="translate(38.20414 703.792594)scale(0.1728 -0.1728)">
       <use xlink:href="#DejaVuSans-50"/>
      </g>
     </g>
    </g>
    <g id="ytick_14">
     <g id="line2d_24">
      <g>
       <use style="stroke:#000000;stroke-width:0.8;" x="56.19854" xlink:href="#m0408c3fd8b" y="662.532378"/>
      </g>
     </g>
     <g id="text_28">
      <!-- 3 -->
      <g transform="translate(38.20414 669.097428)scale(0.1728 -0.1728)">
       <use xlink:href="#DejaVuSans-51"/>
      </g>
     </g>
    </g>
    <g id="text_29">
     <!-- Coefficient -->
     <defs>
      <path d="M 37.109375 75.984375 
L 37.109375 68.5 
L 28.515625 68.5 
Q 23.6875 68.5 21.796875 66.546875 
Q 19.921875 64.59375 19.921875 59.515625 
L 19.921875 54.6875 
L 34.71875 54.6875 
L 34.71875 47.703125 
L 19.921875 47.703125 
L 19.921875 0 
L 10.890625 0 
L 10.890625 47.703125 
L 2.296875 47.703125 
L 2.296875 54.6875 
L 10.890625 54.6875 
L 10.890625 58.5 
Q 10.890625 67.625 15.140625 71.796875 
Q 19.390625 75.984375 28.609375 75.984375 
z
" id="DejaVuSans-102"/>
      <path d="M 9.421875 54.6875 
L 18.40625 54.6875 
L 18.40625 0 
L 9.421875 0 
z
M 9.421875 75.984375 
L 18.40625 75.984375 
L 18.40625 64.59375 
L 9.421875 64.59375 
z
" id="DejaVuSans-105"/>
     </defs>
     <g transform="translate(16.13034 813.067325)rotate(-90)scale(0.1728 -0.1728)">
      <use xlink:href="#DejaVuSans-67"/>
      <use x="69.824219" xlink:href="#DejaVuSans-111"/>
      <use x="131.005859" xlink:href="#DejaVuSans-101"/>
      <use x="192.529297" xlink:href="#DejaVuSans-102"/>
      <use x="227.734375" xlink:href="#DejaVuSans-102"/>
      <use x="262.939453" xlink:href="#DejaVuSans-105"/>
      <use x="290.722656" xlink:href="#DejaVuSans-99"/>
      <use x="345.703125" xlink:href="#DejaVuSans-105"/>
      <use x="373.486328" xlink:href="#DejaVuSans-101"/>
      <use x="435.009766" xlink:href="#DejaVuSans-110"/>
      <use x="498.388672" xlink:href="#DejaVuSans-116"/>
     </g>
    </g>
   </g>
   <g id="patch_104">
    <path d="M 56.19854 895.597835 
L 56.19854 637.637915 
" style="fill:none;stroke:#000000;stroke-linecap:square;stroke-linejoin:miter;stroke-width:0.8;"/>
   </g>
   <g id="patch_105">
    <path d="M 713.49976 895.597835 
L 713.49976 637.637915 
" style="fill:none;stroke:#000000;stroke-linecap:square;stroke-linejoin:miter;stroke-width:0.8;"/>
   </g>
   <g id="patch_106">
    <path d="M 56.19854 895.597835 
L 713.49976 895.597835 
" style="fill:none;stroke:#000000;stroke-linecap:square;stroke-linejoin:miter;stroke-width:0.8;"/>
   </g>
   <g id="patch_107">
    <path d="M 56.19854 637.637915 
L 713.49976 637.637915 
" style="fill:none;stroke:#000000;stroke-linecap:square;stroke-linejoin:miter;stroke-width:0.8;"/>
   </g>
  </g>
  <g id="axes_3">
   <g id="patch_108">
    <path d="M 56.19854 591.541185 
L 273.630489 591.541185 
L 273.630489 333.581265 
L 56.19854 333.581265 
z
" style="fill:#ffffff;"/>
   </g>
   <g id="matplotlib.axis_5">
    <g id="xtick_11">
     <g id="line2d_25">
      <g>
       <use style="stroke:#000000;stroke-width:0.8;" x="66.08181" xlink:href="#m1e33d6cd3c" y="591.541185"/>
      </g>
     </g>
     <g id="text_30">
      <!-- 0.0 -->
      <g transform="translate(58.130248 606.139622)scale(0.1 -0.1)">
       <use xlink:href="#DejaVuSans-48"/>
       <use x="63.623047" xlink:href="#DejaVuSans-46"/>
       <use x="95.410156" xlink:href="#DejaVuSans-48"/>
      </g>
     </g>
    </g>
    <g id="xtick_12">
     <g id="line2d_26">
      <g>
       <use style="stroke:#000000;stroke-width:0.8;" x="105.614892" xlink:href="#m1e33d6cd3c" y="591.541185"/>
      </g>
     </g>
     <g id="text_31">
      <!-- 0.2 -->
      <g transform="translate(97.663329 606.139622)scale(0.1 -0.1)">
       <use xlink:href="#DejaVuSans-48"/>
       <use x="63.623047" xlink:href="#DejaVuSans-46"/>
       <use x="95.410156" xlink:href="#DejaVuSans-50"/>
      </g>
     </g>
    </g>
    <g id="xtick_13">
     <g id="line2d_27">
      <g>
       <use style="stroke:#000000;stroke-width:0.8;" x="145.147974" xlink:href="#m1e33d6cd3c" y="591.541185"/>
      </g>
     </g>
     <g id="text_32">
      <!-- 0.4 -->
      <g transform="translate(137.196411 606.139622)scale(0.1 -0.1)">
       <use xlink:href="#DejaVuSans-48"/>
       <use x="63.623047" xlink:href="#DejaVuSans-46"/>
       <use x="95.410156" xlink:href="#DejaVuSans-52"/>
      </g>
     </g>
    </g>
    <g id="xtick_14">
     <g id="line2d_28">
      <g>
       <use style="stroke:#000000;stroke-width:0.8;" x="184.681055" xlink:href="#m1e33d6cd3c" y="591.541185"/>
      </g>
     </g>
     <g id="text_33">
      <!-- 0.6 -->
      <defs>
       <path d="M 33.015625 40.375 
Q 26.375 40.375 22.484375 35.828125 
Q 18.609375 31.296875 18.609375 23.390625 
Q 18.609375 15.53125 22.484375 10.953125 
Q 26.375 6.390625 33.015625 6.390625 
Q 39.65625 6.390625 43.53125 10.953125 
Q 47.40625 15.53125 47.40625 23.390625 
Q 47.40625 31.296875 43.53125 35.828125 
Q 39.65625 40.375 33.015625 40.375 
z
M 52.59375 71.296875 
L 52.59375 62.3125 
Q 48.875 64.0625 45.09375 64.984375 
Q 41.3125 65.921875 37.59375 65.921875 
Q 27.828125 65.921875 22.671875 59.328125 
Q 17.53125 52.734375 16.796875 39.40625 
Q 19.671875 43.65625 24.015625 45.921875 
Q 28.375 48.1875 33.59375 48.1875 
Q 44.578125 48.1875 50.953125 41.515625 
Q 57.328125 34.859375 57.328125 23.390625 
Q 57.328125 12.15625 50.6875 5.359375 
Q 44.046875 -1.421875 33.015625 -1.421875 
Q 20.359375 -1.421875 13.671875 8.265625 
Q 6.984375 17.96875 6.984375 36.375 
Q 6.984375 53.65625 15.1875 63.9375 
Q 23.390625 74.21875 37.203125 74.21875 
Q 40.921875 74.21875 44.703125 73.484375 
Q 48.484375 72.75 52.59375 71.296875 
z
" id="DejaVuSans-54"/>
      </defs>
      <g transform="translate(176.729493 606.139622)scale(0.1 -0.1)">
       <use xlink:href="#DejaVuSans-48"/>
       <use x="63.623047" xlink:href="#DejaVuSans-46"/>
       <use x="95.410156" xlink:href="#DejaVuSans-54"/>
      </g>
     </g>
    </g>
    <g id="xtick_15">
     <g id="line2d_29">
      <g>
       <use style="stroke:#000000;stroke-width:0.8;" x="224.214137" xlink:href="#m1e33d6cd3c" y="591.541185"/>
      </g>
     </g>
     <g id="text_34">
      <!-- 0.8 -->
      <defs>
       <path d="M 31.78125 34.625 
Q 24.75 34.625 20.71875 30.859375 
Q 16.703125 27.09375 16.703125 20.515625 
Q 16.703125 13.921875 20.71875 10.15625 
Q 24.75 6.390625 31.78125 6.390625 
Q 38.8125 6.390625 42.859375 10.171875 
Q 46.921875 13.96875 46.921875 20.515625 
Q 46.921875 27.09375 42.890625 30.859375 
Q 38.875 34.625 31.78125 34.625 
z
M 21.921875 38.8125 
Q 15.578125 40.375 12.03125 44.71875 
Q 8.5 49.078125 8.5 55.328125 
Q 8.5 64.0625 14.71875 69.140625 
Q 20.953125 74.21875 31.78125 74.21875 
Q 42.671875 74.21875 48.875 69.140625 
Q 55.078125 64.0625 55.078125 55.328125 
Q 55.078125 49.078125 51.53125 44.71875 
Q 48 40.375 41.703125 38.8125 
Q 48.828125 37.15625 52.796875 32.3125 
Q 56.78125 27.484375 56.78125 20.515625 
Q 56.78125 9.90625 50.3125 4.234375 
Q 43.84375 -1.421875 31.78125 -1.421875 
Q 19.734375 -1.421875 13.25 4.234375 
Q 6.78125 9.90625 6.78125 20.515625 
Q 6.78125 27.484375 10.78125 32.3125 
Q 14.796875 37.15625 21.921875 38.8125 
z
M 18.3125 54.390625 
Q 18.3125 48.734375 21.84375 45.5625 
Q 25.390625 42.390625 31.78125 42.390625 
Q 38.140625 42.390625 41.71875 45.5625 
Q 45.3125 48.734375 45.3125 54.390625 
Q 45.3125 60.0625 41.71875 63.234375 
Q 38.140625 66.40625 31.78125 66.40625 
Q 25.390625 66.40625 21.84375 63.234375 
Q 18.3125 60.0625 18.3125 54.390625 
z
" id="DejaVuSans-56"/>
      </defs>
      <g transform="translate(216.262574 606.139622)scale(0.1 -0.1)">
       <use xlink:href="#DejaVuSans-48"/>
       <use x="63.623047" xlink:href="#DejaVuSans-46"/>
       <use x="95.410156" xlink:href="#DejaVuSans-56"/>
      </g>
     </g>
    </g>
    <g id="xtick_16">
     <g id="line2d_30">
      <g>
       <use style="stroke:#000000;stroke-width:0.8;" x="263.747218" xlink:href="#m1e33d6cd3c" y="591.541185"/>
      </g>
     </g>
     <g id="text_35">
      <!-- 1.0 -->
      <g transform="translate(255.795656 606.139622)scale(0.1 -0.1)">
       <use xlink:href="#DejaVuSans-49"/>
       <use x="63.623047" xlink:href="#DejaVuSans-46"/>
       <use x="95.410156" xlink:href="#DejaVuSans-48"/>
      </g>
     </g>
    </g>
    <g id="text_36">
     <!-- False Positive Rate -->
     <defs>
      <path id="DejaVuSans-32"/>
      <path d="M 19.671875 64.796875 
L 19.671875 37.40625 
L 32.078125 37.40625 
Q 38.96875 37.40625 42.71875 40.96875 
Q 46.484375 44.53125 46.484375 51.125 
Q 46.484375 57.671875 42.71875 61.234375 
Q 38.96875 64.796875 32.078125 64.796875 
z
M 9.8125 72.90625 
L 32.078125 72.90625 
Q 44.34375 72.90625 50.609375 67.359375 
Q 56.890625 61.8125 56.890625 51.125 
Q 56.890625 40.328125 50.609375 34.8125 
Q 44.34375 29.296875 32.078125 29.296875 
L 19.671875 29.296875 
L 19.671875 0 
L 9.8125 0 
z
" id="DejaVuSans-80"/>
     </defs>
     <g transform="translate(117.709046 619.817747)scale(0.1 -0.1)">
      <use xlink:href="#DejaVuSans-70"/>
      <use x="57.378906" xlink:href="#DejaVuSans-97"/>
      <use x="118.658203" xlink:href="#DejaVuSans-108"/>
      <use x="146.441406" xlink:href="#DejaVuSans-115"/>
      <use x="198.541016" xlink:href="#DejaVuSans-101"/>
      <use x="260.064453" xlink:href="#DejaVuSans-32"/>
      <use x="291.851562" xlink:href="#DejaVuSans-80"/>
      <use x="352.107422" xlink:href="#DejaVuSans-111"/>
      <use x="413.289062" xlink:href="#DejaVuSans-115"/>
      <use x="465.388672" xlink:href="#DejaVuSans-105"/>
      <use x="493.171875" xlink:href="#DejaVuSans-116"/>
      <use x="532.380859" xlink:href="#DejaVuSans-105"/>
      <use x="560.164062" xlink:href="#DejaVuSans-118"/>
      <use x="619.34375" xlink:href="#DejaVuSans-101"/>
      <use x="680.867188" xlink:href="#DejaVuSans-32"/>
      <use x="712.654297" xlink:href="#DejaVuSans-82"/>
      <use x="782.105469" xlink:href="#DejaVuSans-97"/>
      <use x="843.384766" xlink:href="#DejaVuSans-116"/>
      <use x="882.59375" xlink:href="#DejaVuSans-101"/>
     </g>
    </g>
   </g>
   <g id="matplotlib.axis_6">
    <g id="ytick_15">
     <g id="line2d_31">
      <g>
       <use style="stroke:#000000;stroke-width:0.8;" x="56.19854" xlink:href="#m0408c3fd8b" y="579.815734"/>
      </g>
     </g>
     <g id="text_37">
      <!-- 0.0 -->
      <g transform="translate(33.295415 583.614953)scale(0.1 -0.1)">
       <use xlink:href="#DejaVuSans-48"/>
       <use x="63.623047" xlink:href="#DejaVuSans-46"/>
       <use x="95.410156" xlink:href="#DejaVuSans-48"/>
      </g>
     </g>
    </g>
    <g id="ytick_16">
     <g id="line2d_32">
      <g>
       <use style="stroke:#000000;stroke-width:0.8;" x="56.19854" xlink:href="#m0408c3fd8b" y="532.91393"/>
      </g>
     </g>
     <g id="text_38">
      <!-- 0.2 -->
      <g transform="translate(33.295415 536.713149)scale(0.1 -0.1)">
       <use xlink:href="#DejaVuSans-48"/>
       <use x="63.623047" xlink:href="#DejaVuSans-46"/>
       <use x="95.410156" xlink:href="#DejaVuSans-50"/>
      </g>
     </g>
    </g>
    <g id="ytick_17">
     <g id="line2d_33">
      <g>
       <use style="stroke:#000000;stroke-width:0.8;" x="56.19854" xlink:href="#m0408c3fd8b" y="486.012127"/>
      </g>
     </g>
     <g id="text_39">
      <!-- 0.4 -->
      <g transform="translate(33.295415 489.811346)scale(0.1 -0.1)">
       <use xlink:href="#DejaVuSans-48"/>
       <use x="63.623047" xlink:href="#DejaVuSans-46"/>
       <use x="95.410156" xlink:href="#DejaVuSans-52"/>
      </g>
     </g>
    </g>
    <g id="ytick_18">
     <g id="line2d_34">
      <g>
       <use style="stroke:#000000;stroke-width:0.8;" x="56.19854" xlink:href="#m0408c3fd8b" y="439.110323"/>
      </g>
     </g>
     <g id="text_40">
      <!-- 0.6 -->
      <g transform="translate(33.295415 442.909542)scale(0.1 -0.1)">
       <use xlink:href="#DejaVuSans-48"/>
       <use x="63.623047" xlink:href="#DejaVuSans-46"/>
       <use x="95.410156" xlink:href="#DejaVuSans-54"/>
      </g>
     </g>
    </g>
    <g id="ytick_19">
     <g id="line2d_35">
      <g>
       <use style="stroke:#000000;stroke-width:0.8;" x="56.19854" xlink:href="#m0408c3fd8b" y="392.20852"/>
      </g>
     </g>
     <g id="text_41">
      <!-- 0.8 -->
      <g transform="translate(33.295415 396.007738)scale(0.1 -0.1)">
       <use xlink:href="#DejaVuSans-48"/>
       <use x="63.623047" xlink:href="#DejaVuSans-46"/>
       <use x="95.410156" xlink:href="#DejaVuSans-56"/>
      </g>
     </g>
    </g>
    <g id="ytick_20">
     <g id="line2d_36">
      <g>
       <use style="stroke:#000000;stroke-width:0.8;" x="56.19854" xlink:href="#m0408c3fd8b" y="345.306716"/>
      </g>
     </g>
     <g id="text_42">
      <!-- 1.0 -->
      <g transform="translate(33.295415 349.105935)scale(0.1 -0.1)">
       <use xlink:href="#DejaVuSans-49"/>
       <use x="63.623047" xlink:href="#DejaVuSans-46"/>
       <use x="95.410156" xlink:href="#DejaVuSans-48"/>
      </g>
     </g>
    </g>
    <g id="text_43">
     <!-- True Positive Rate -->
     <g transform="translate(27.215727 508.107319)rotate(-90)scale(0.1 -0.1)">
      <use xlink:href="#DejaVuSans-84"/>
      <use x="60.865234" xlink:href="#DejaVuSans-114"/>
      <use x="101.978516" xlink:href="#DejaVuSans-117"/>
      <use x="165.357422" xlink:href="#DejaVuSans-101"/>
      <use x="226.880859" xlink:href="#DejaVuSans-32"/>
      <use x="258.667969" xlink:href="#DejaVuSans-80"/>
      <use x="318.923828" xlink:href="#DejaVuSans-111"/>
      <use x="380.105469" xlink:href="#DejaVuSans-115"/>
      <use x="432.205078" xlink:href="#DejaVuSans-105"/>
      <use x="459.988281" xlink:href="#DejaVuSans-116"/>
      <use x="499.197266" xlink:href="#DejaVuSans-105"/>
      <use x="526.980469" xlink:href="#DejaVuSans-118"/>
      <use x="586.160156" xlink:href="#DejaVuSans-101"/>
      <use x="647.683594" xlink:href="#DejaVuSans-32"/>
      <use x="679.470703" xlink:href="#DejaVuSans-82"/>
      <use x="748.921875" xlink:href="#DejaVuSans-97"/>
      <use x="810.201172" xlink:href="#DejaVuSans-116"/>
      <use x="849.410156" xlink:href="#DejaVuSans-101"/>
     </g>
    </g>
   </g>
   <g id="line2d_37">
    <path clip-path="url(#pa157a85123)" d="M 66.08181 579.815734 
L 67.247978 385.344841 
L 67.831062 368.185645 
L 70.746481 351.026448 
L 75.411151 348.166582 
L 78.32657 348.166582 
L 263.747218 345.306716 
" style="fill:none;stroke:#0000ff;stroke-linecap:square;stroke-width:1.5;"/>
   </g>
   <g id="line2d_38">
    <path clip-path="url(#pa157a85123)" d="M 66.08181 579.815734 
L 263.747218 345.306716 
" style="fill:none;stroke:#808080;stroke-dasharray:5.55,2.4;stroke-dashoffset:0;stroke-width:1.5;"/>
   </g>
   <g id="patch_109">
    <path d="M 56.19854 591.541185 
L 56.19854 333.581265 
" style="fill:none;stroke:#000000;stroke-linecap:square;stroke-linejoin:miter;stroke-width:0.8;"/>
   </g>
   <g id="patch_110">
    <path d="M 273.630489 591.541185 
L 273.630489 333.581265 
" style="fill:none;stroke:#000000;stroke-linecap:square;stroke-linejoin:miter;stroke-width:0.8;"/>
   </g>
   <g id="patch_111">
    <path d="M 56.19854 591.541185 
L 273.630489 591.541185 
" style="fill:none;stroke:#000000;stroke-linecap:square;stroke-linejoin:miter;stroke-width:0.8;"/>
   </g>
   <g id="patch_112">
    <path d="M 56.19854 333.581265 
L 273.630489 333.581265 
" style="fill:none;stroke:#000000;stroke-linecap:square;stroke-linejoin:miter;stroke-width:0.8;"/>
   </g>
   <g id="text_44">
    <!-- Training Set -->
    <defs>
     <path d="M 53.515625 70.515625 
L 53.515625 60.890625 
Q 47.90625 63.578125 42.921875 64.890625 
Q 37.9375 66.21875 33.296875 66.21875 
Q 25.25 66.21875 20.875 63.09375 
Q 16.5 59.96875 16.5 54.203125 
Q 16.5 49.359375 19.40625 46.890625 
Q 22.3125 44.4375 30.421875 42.921875 
L 36.375 41.703125 
Q 47.40625 39.59375 52.65625 34.296875 
Q 57.90625 29 57.90625 20.125 
Q 57.90625 9.515625 50.796875 4.046875 
Q 43.703125 -1.421875 29.984375 -1.421875 
Q 24.8125 -1.421875 18.96875 -0.25 
Q 13.140625 0.921875 6.890625 3.21875 
L 6.890625 13.375 
Q 12.890625 10.015625 18.65625 8.296875 
Q 24.421875 6.59375 29.984375 6.59375 
Q 38.421875 6.59375 43.015625 9.90625 
Q 47.609375 13.234375 47.609375 19.390625 
Q 47.609375 24.75 44.3125 27.78125 
Q 41.015625 30.8125 33.5 32.328125 
L 27.484375 33.5 
Q 16.453125 35.6875 11.515625 40.375 
Q 6.59375 45.0625 6.59375 53.421875 
Q 6.59375 63.09375 13.40625 68.65625 
Q 20.21875 74.21875 32.171875 74.21875 
Q 37.3125 74.21875 42.625 73.28125 
Q 47.953125 72.359375 53.515625 70.515625 
z
" id="DejaVuSans-83"/>
    </defs>
    <g transform="translate(128.611702 327.581265)scale(0.12 -0.12)">
     <use xlink:href="#DejaVuSans-84"/>
     <use x="60.865234" xlink:href="#DejaVuSans-114"/>
     <use x="101.978516" xlink:href="#DejaVuSans-97"/>
     <use x="163.257812" xlink:href="#DejaVuSans-105"/>
     <use x="191.041016" xlink:href="#DejaVuSans-110"/>
     <use x="254.419922" xlink:href="#DejaVuSans-105"/>
     <use x="282.203125" xlink:href="#DejaVuSans-110"/>
     <use x="345.582031" xlink:href="#DejaVuSans-103"/>
     <use x="409.058594" xlink:href="#DejaVuSans-32"/>
     <use x="440.845703" xlink:href="#DejaVuSans-83"/>
     <use x="504.322266" xlink:href="#DejaVuSans-101"/>
     <use x="565.845703" xlink:href="#DejaVuSans-116"/>
    </g>
   </g>
   <g id="legend_1">
    <g id="patch_113">
     <path d="M 101.589864 586.541185 
L 266.630489 586.541185 
Q 268.630489 586.541185 268.630489 584.541185 
L 268.630489 570.86306 
Q 268.630489 568.86306 266.630489 568.86306 
L 101.589864 568.86306 
Q 99.589864 568.86306 99.589864 570.86306 
L 99.589864 584.541185 
Q 99.589864 586.541185 101.589864 586.541185 
z
" style="fill:#ffffff;opacity:0.8;stroke:#cccccc;stroke-linejoin:miter;"/>
    </g>
    <g id="line2d_39">
     <path d="M 103.589864 576.961497 
L 123.589864 576.961497 
" style="fill:none;stroke:#0000ff;stroke-linecap:square;stroke-width:1.5;"/>
    </g>
    <g id="line2d_40"/>
    <g id="text_45">
     <!-- ROC curve (area =  0.989) -->
     <defs>
      <path d="M 39.40625 66.21875 
Q 28.65625 66.21875 22.328125 58.203125 
Q 16.015625 50.203125 16.015625 36.375 
Q 16.015625 22.609375 22.328125 14.59375 
Q 28.65625 6.59375 39.40625 6.59375 
Q 50.140625 6.59375 56.421875 14.59375 
Q 62.703125 22.609375 62.703125 36.375 
Q 62.703125 50.203125 56.421875 58.203125 
Q 50.140625 66.21875 39.40625 66.21875 
z
M 39.40625 74.21875 
Q 54.734375 74.21875 63.90625 63.9375 
Q 73.09375 53.65625 73.09375 36.375 
Q 73.09375 19.140625 63.90625 8.859375 
Q 54.734375 -1.421875 39.40625 -1.421875 
Q 24.03125 -1.421875 14.8125 8.828125 
Q 5.609375 19.09375 5.609375 36.375 
Q 5.609375 53.65625 14.8125 63.9375 
Q 24.03125 74.21875 39.40625 74.21875 
z
" id="DejaVuSans-79"/>
      <path d="M 10.59375 45.40625 
L 73.1875 45.40625 
L 73.1875 37.203125 
L 10.59375 37.203125 
z
M 10.59375 25.484375 
L 73.1875 25.484375 
L 73.1875 17.1875 
L 10.59375 17.1875 
z
" id="DejaVuSans-61"/>
     </defs>
     <g transform="translate(131.589864 580.461497)scale(0.1 -0.1)">
      <use xlink:href="#DejaVuSans-82"/>
      <use x="69.482422" xlink:href="#DejaVuSans-79"/>
      <use x="148.193359" xlink:href="#DejaVuSans-67"/>
      <use x="218.017578" xlink:href="#DejaVuSans-32"/>
      <use x="249.804688" xlink:href="#DejaVuSans-99"/>
      <use x="304.785156" xlink:href="#DejaVuSans-117"/>
      <use x="368.164062" xlink:href="#DejaVuSans-114"/>
      <use x="409.277344" xlink:href="#DejaVuSans-118"/>
      <use x="468.457031" xlink:href="#DejaVuSans-101"/>
      <use x="529.980469" xlink:href="#DejaVuSans-32"/>
      <use x="561.767578" xlink:href="#DejaVuSans-40"/>
      <use x="600.78125" xlink:href="#DejaVuSans-97"/>
      <use x="662.060547" xlink:href="#DejaVuSans-114"/>
      <use x="703.142578" xlink:href="#DejaVuSans-101"/>
      <use x="764.666016" xlink:href="#DejaVuSans-97"/>
      <use x="825.945312" xlink:href="#DejaVuSans-32"/>
      <use x="857.732422" xlink:href="#DejaVuSans-61"/>
      <use x="941.521484" xlink:href="#DejaVuSans-32"/>
      <use x="973.308594" xlink:href="#DejaVuSans-32"/>
      <use x="1005.095703" xlink:href="#DejaVuSans-48"/>
      <use x="1068.71875" xlink:href="#DejaVuSans-46"/>
      <use x="1100.505859" xlink:href="#DejaVuSans-57"/>
      <use x="1164.128906" xlink:href="#DejaVuSans-56"/>
      <use x="1227.751953" xlink:href="#DejaVuSans-57"/>
      <use x="1291.375" xlink:href="#DejaVuSans-41"/>
     </g>
    </g>
   </g>
  </g>
  <g id="axes_4">
   <g id="patch_114">
    <path d="M 408.790015 591.541185 
L 626.221964 591.541185 
L 626.221964 333.581265 
L 408.790015 333.581265 
z
" style="fill:#ffffff;"/>
   </g>
   <g id="matplotlib.axis_7">
    <g id="xtick_17">
     <g id="line2d_41">
      <g>
       <use style="stroke:#000000;stroke-width:0.8;" x="418.673285" xlink:href="#m1e33d6cd3c" y="591.541185"/>
      </g>
     </g>
     <g id="text_46">
      <!-- 0.0 -->
      <g transform="translate(410.721723 606.139622)scale(0.1 -0.1)">
       <use xlink:href="#DejaVuSans-48"/>
       <use x="63.623047" xlink:href="#DejaVuSans-46"/>
       <use x="95.410156" xlink:href="#DejaVuSans-48"/>
      </g>
     </g>
    </g>
    <g id="xtick_18">
     <g id="line2d_42">
      <g>
       <use style="stroke:#000000;stroke-width:0.8;" x="458.206367" xlink:href="#m1e33d6cd3c" y="591.541185"/>
      </g>
     </g>
     <g id="text_47">
      <!-- 0.2 -->
      <g transform="translate(450.254804 606.139622)scale(0.1 -0.1)">
       <use xlink:href="#DejaVuSans-48"/>
       <use x="63.623047" xlink:href="#DejaVuSans-46"/>
       <use x="95.410156" xlink:href="#DejaVuSans-50"/>
      </g>
     </g>
    </g>
    <g id="xtick_19">
     <g id="line2d_43">
      <g>
       <use style="stroke:#000000;stroke-width:0.8;" x="497.739449" xlink:href="#m1e33d6cd3c" y="591.541185"/>
      </g>
     </g>
     <g id="text_48">
      <!-- 0.4 -->
      <g transform="translate(489.787886 606.139622)scale(0.1 -0.1)">
       <use xlink:href="#DejaVuSans-48"/>
       <use x="63.623047" xlink:href="#DejaVuSans-46"/>
       <use x="95.410156" xlink:href="#DejaVuSans-52"/>
      </g>
     </g>
    </g>
    <g id="xtick_20">
     <g id="line2d_44">
      <g>
       <use style="stroke:#000000;stroke-width:0.8;" x="537.27253" xlink:href="#m1e33d6cd3c" y="591.541185"/>
      </g>
     </g>
     <g id="text_49">
      <!-- 0.6 -->
      <g transform="translate(529.320968 606.139622)scale(0.1 -0.1)">
       <use xlink:href="#DejaVuSans-48"/>
       <use x="63.623047" xlink:href="#DejaVuSans-46"/>
       <use x="95.410156" xlink:href="#DejaVuSans-54"/>
      </g>
     </g>
    </g>
    <g id="xtick_21">
     <g id="line2d_45">
      <g>
       <use style="stroke:#000000;stroke-width:0.8;" x="576.805612" xlink:href="#m1e33d6cd3c" y="591.541185"/>
      </g>
     </g>
     <g id="text_50">
      <!-- 0.8 -->
      <g transform="translate(568.854049 606.139622)scale(0.1 -0.1)">
       <use xlink:href="#DejaVuSans-48"/>
       <use x="63.623047" xlink:href="#DejaVuSans-46"/>
       <use x="95.410156" xlink:href="#DejaVuSans-56"/>
      </g>
     </g>
    </g>
    <g id="xtick_22">
     <g id="line2d_46">
      <g>
       <use style="stroke:#000000;stroke-width:0.8;" x="616.338693" xlink:href="#m1e33d6cd3c" y="591.541185"/>
      </g>
     </g>
     <g id="text_51">
      <!-- 1.0 -->
      <g transform="translate(608.387131 606.139622)scale(0.1 -0.1)">
       <use xlink:href="#DejaVuSans-49"/>
       <use x="63.623047" xlink:href="#DejaVuSans-46"/>
       <use x="95.410156" xlink:href="#DejaVuSans-48"/>
      </g>
     </g>
    </g>
    <g id="text_52">
     <!-- False Positive Rate -->
     <g transform="translate(470.300521 619.817747)scale(0.1 -0.1)">
      <use xlink:href="#DejaVuSans-70"/>
      <use x="57.378906" xlink:href="#DejaVuSans-97"/>
      <use x="118.658203" xlink:href="#DejaVuSans-108"/>
      <use x="146.441406" xlink:href="#DejaVuSans-115"/>
      <use x="198.541016" xlink:href="#DejaVuSans-101"/>
      <use x="260.064453" xlink:href="#DejaVuSans-32"/>
      <use x="291.851562" xlink:href="#DejaVuSans-80"/>
      <use x="352.107422" xlink:href="#DejaVuSans-111"/>
      <use x="413.289062" xlink:href="#DejaVuSans-115"/>
      <use x="465.388672" xlink:href="#DejaVuSans-105"/>
      <use x="493.171875" xlink:href="#DejaVuSans-116"/>
      <use x="532.380859" xlink:href="#DejaVuSans-105"/>
      <use x="560.164062" xlink:href="#DejaVuSans-118"/>
      <use x="619.34375" xlink:href="#DejaVuSans-101"/>
      <use x="680.867188" xlink:href="#DejaVuSans-32"/>
      <use x="712.654297" xlink:href="#DejaVuSans-82"/>
      <use x="782.105469" xlink:href="#DejaVuSans-97"/>
      <use x="843.384766" xlink:href="#DejaVuSans-116"/>
      <use x="882.59375" xlink:href="#DejaVuSans-101"/>
     </g>
    </g>
   </g>
   <g id="matplotlib.axis_8">
    <g id="ytick_21">
     <g id="line2d_47">
      <g>
       <use style="stroke:#000000;stroke-width:0.8;" x="408.790015" xlink:href="#m0408c3fd8b" y="579.815734"/>
      </g>
     </g>
     <g id="text_53">
      <!-- 0.0 -->
      <g transform="translate(385.88689 583.614953)scale(0.1 -0.1)">
       <use xlink:href="#DejaVuSans-48"/>
       <use x="63.623047" xlink:href="#DejaVuSans-46"/>
       <use x="95.410156" xlink:href="#DejaVuSans-48"/>
      </g>
     </g>
    </g>
    <g id="ytick_22">
     <g id="line2d_48">
      <g>
       <use style="stroke:#000000;stroke-width:0.8;" x="408.790015" xlink:href="#m0408c3fd8b" y="532.91393"/>
      </g>
     </g>
     <g id="text_54">
      <!-- 0.2 -->
      <g transform="translate(385.88689 536.713149)scale(0.1 -0.1)">
       <use xlink:href="#DejaVuSans-48"/>
       <use x="63.623047" xlink:href="#DejaVuSans-46"/>
       <use x="95.410156" xlink:href="#DejaVuSans-50"/>
      </g>
     </g>
    </g>
    <g id="ytick_23">
     <g id="line2d_49">
      <g>
       <use style="stroke:#000000;stroke-width:0.8;" x="408.790015" xlink:href="#m0408c3fd8b" y="486.012127"/>
      </g>
     </g>
     <g id="text_55">
      <!-- 0.4 -->
      <g transform="translate(385.88689 489.811346)scale(0.1 -0.1)">
       <use xlink:href="#DejaVuSans-48"/>
       <use x="63.623047" xlink:href="#DejaVuSans-46"/>
       <use x="95.410156" xlink:href="#DejaVuSans-52"/>
      </g>
     </g>
    </g>
    <g id="ytick_24">
     <g id="line2d_50">
      <g>
       <use style="stroke:#000000;stroke-width:0.8;" x="408.790015" xlink:href="#m0408c3fd8b" y="439.110323"/>
      </g>
     </g>
     <g id="text_56">
      <!-- 0.6 -->
      <g transform="translate(385.88689 442.909542)scale(0.1 -0.1)">
       <use xlink:href="#DejaVuSans-48"/>
       <use x="63.623047" xlink:href="#DejaVuSans-46"/>
       <use x="95.410156" xlink:href="#DejaVuSans-54"/>
      </g>
     </g>
    </g>
    <g id="ytick_25">
     <g id="line2d_51">
      <g>
       <use style="stroke:#000000;stroke-width:0.8;" x="408.790015" xlink:href="#m0408c3fd8b" y="392.20852"/>
      </g>
     </g>
     <g id="text_57">
      <!-- 0.8 -->
      <g transform="translate(385.88689 396.007738)scale(0.1 -0.1)">
       <use xlink:href="#DejaVuSans-48"/>
       <use x="63.623047" xlink:href="#DejaVuSans-46"/>
       <use x="95.410156" xlink:href="#DejaVuSans-56"/>
      </g>
     </g>
    </g>
    <g id="ytick_26">
     <g id="line2d_52">
      <g>
       <use style="stroke:#000000;stroke-width:0.8;" x="408.790015" xlink:href="#m0408c3fd8b" y="345.306716"/>
      </g>
     </g>
     <g id="text_58">
      <!-- 1.0 -->
      <g transform="translate(385.88689 349.105935)scale(0.1 -0.1)">
       <use xlink:href="#DejaVuSans-49"/>
       <use x="63.623047" xlink:href="#DejaVuSans-46"/>
       <use x="95.410156" xlink:href="#DejaVuSans-48"/>
      </g>
     </g>
    </g>
    <g id="text_59">
     <!-- True Positive Rate -->
     <g transform="translate(379.807202 508.107319)rotate(-90)scale(0.1 -0.1)">
      <use xlink:href="#DejaVuSans-84"/>
      <use x="60.865234" xlink:href="#DejaVuSans-114"/>
      <use x="101.978516" xlink:href="#DejaVuSans-117"/>
      <use x="165.357422" xlink:href="#DejaVuSans-101"/>
      <use x="226.880859" xlink:href="#DejaVuSans-32"/>
      <use x="258.667969" xlink:href="#DejaVuSans-80"/>
      <use x="318.923828" xlink:href="#DejaVuSans-111"/>
      <use x="380.105469" xlink:href="#DejaVuSans-115"/>
      <use x="432.205078" xlink:href="#DejaVuSans-105"/>
      <use x="459.988281" xlink:href="#DejaVuSans-116"/>
      <use x="499.197266" xlink:href="#DejaVuSans-105"/>
      <use x="526.980469" xlink:href="#DejaVuSans-118"/>
      <use x="586.160156" xlink:href="#DejaVuSans-101"/>
      <use x="647.683594" xlink:href="#DejaVuSans-32"/>
      <use x="679.470703" xlink:href="#DejaVuSans-82"/>
      <use x="748.921875" xlink:href="#DejaVuSans-97"/>
      <use x="810.201172" xlink:href="#DejaVuSans-116"/>
      <use x="849.410156" xlink:href="#DejaVuSans-101"/>
     </g>
    </g>
   </g>
   <g id="line2d_53">
    <path clip-path="url(#pd15eb81f0d)" d="M 418.673285 579.815734 
L 422.1411 371.363273 
L 422.1411 362.677754 
L 429.076728 362.677754 
L 434.278449 345.306716 
L 437.746263 345.306716 
L 616.338693 345.306716 
" style="fill:none;stroke:#0000ff;stroke-linecap:square;stroke-width:1.5;"/>
   </g>
   <g id="line2d_54">
    <path clip-path="url(#pd15eb81f0d)" d="M 418.673285 579.815734 
L 616.338693 345.306716 
" style="fill:none;stroke:#808080;stroke-dasharray:5.55,2.4;stroke-dashoffset:0;stroke-width:1.5;"/>
   </g>
   <g id="patch_115">
    <path d="M 408.790015 591.541185 
L 408.790015 333.581265 
" style="fill:none;stroke:#000000;stroke-linecap:square;stroke-linejoin:miter;stroke-width:0.8;"/>
   </g>
   <g id="patch_116">
    <path d="M 626.221964 591.541185 
L 626.221964 333.581265 
" style="fill:none;stroke:#000000;stroke-linecap:square;stroke-linejoin:miter;stroke-width:0.8;"/>
   </g>
   <g id="patch_117">
    <path d="M 408.790015 591.541185 
L 626.221964 591.541185 
" style="fill:none;stroke:#000000;stroke-linecap:square;stroke-linejoin:miter;stroke-width:0.8;"/>
   </g>
   <g id="patch_118">
    <path d="M 408.790015 333.581265 
L 626.221964 333.581265 
" style="fill:none;stroke:#000000;stroke-linecap:square;stroke-linejoin:miter;stroke-width:0.8;"/>
   </g>
   <g id="text_60">
    <!-- Test Set -->
    <g transform="translate(492.927552 327.581265)scale(0.12 -0.12)">
     <use xlink:href="#DejaVuSans-84"/>
     <use x="60.818359" xlink:href="#DejaVuSans-101"/>
     <use x="122.341797" xlink:href="#DejaVuSans-115"/>
     <use x="174.441406" xlink:href="#DejaVuSans-116"/>
     <use x="213.650391" xlink:href="#DejaVuSans-32"/>
     <use x="245.4375" xlink:href="#DejaVuSans-83"/>
     <use x="308.914062" xlink:href="#DejaVuSans-101"/>
     <use x="370.4375" xlink:href="#DejaVuSans-116"/>
    </g>
   </g>
   <g id="legend_2">
    <g id="patch_119">
     <path d="M 454.181339 586.541185 
L 619.221964 586.541185 
Q 621.221964 586.541185 621.221964 584.541185 
L 621.221964 570.86306 
Q 621.221964 568.86306 619.221964 568.86306 
L 454.181339 568.86306 
Q 452.181339 568.86306 452.181339 570.86306 
L 452.181339 584.541185 
Q 452.181339 586.541185 454.181339 586.541185 
z
" style="fill:#ffffff;opacity:0.8;stroke:#cccccc;stroke-linejoin:miter;"/>
    </g>
    <g id="line2d_55">
     <path d="M 456.181339 576.961497 
L 476.181339 576.961497 
" style="fill:none;stroke:#0000ff;stroke-linecap:square;stroke-width:1.5;"/>
    </g>
    <g id="line2d_56"/>
    <g id="text_61">
     <!-- ROC curve (area =  0.987) -->
     <g transform="translate(484.181339 580.461497)scale(0.1 -0.1)">
      <use xlink:href="#DejaVuSans-82"/>
      <use x="69.482422" xlink:href="#DejaVuSans-79"/>
      <use x="148.193359" xlink:href="#DejaVuSans-67"/>
      <use x="218.017578" xlink:href="#DejaVuSans-32"/>
      <use x="249.804688" xlink:href="#DejaVuSans-99"/>
      <use x="304.785156" xlink:href="#DejaVuSans-117"/>
      <use x="368.164062" xlink:href="#DejaVuSans-114"/>
      <use x="409.277344" xlink:href="#DejaVuSans-118"/>
      <use x="468.457031" xlink:href="#DejaVuSans-101"/>
      <use x="529.980469" xlink:href="#DejaVuSans-32"/>
      <use x="561.767578" xlink:href="#DejaVuSans-40"/>
      <use x="600.78125" xlink:href="#DejaVuSans-97"/>
      <use x="662.060547" xlink:href="#DejaVuSans-114"/>
      <use x="703.142578" xlink:href="#DejaVuSans-101"/>
      <use x="764.666016" xlink:href="#DejaVuSans-97"/>
      <use x="825.945312" xlink:href="#DejaVuSans-32"/>
      <use x="857.732422" xlink:href="#DejaVuSans-61"/>
      <use x="941.521484" xlink:href="#DejaVuSans-32"/>
      <use x="973.308594" xlink:href="#DejaVuSans-32"/>
      <use x="1005.095703" xlink:href="#DejaVuSans-48"/>
      <use x="1068.71875" xlink:href="#DejaVuSans-46"/>
      <use x="1100.505859" xlink:href="#DejaVuSans-57"/>
      <use x="1164.128906" xlink:href="#DejaVuSans-56"/>
      <use x="1227.751953" xlink:href="#DejaVuSans-55"/>
      <use x="1291.375" xlink:href="#DejaVuSans-41"/>
     </g>
    </g>
   </g>
  </g>
  <g id="axes_5">
   <g id="line2d_57">
    <path clip-path="url(#p314d36482b)" d="M 95.452952 808.8777 
L 95.452952 857.379856 
" style="fill:none;stroke:#000000;stroke-linecap:square;"/>
   </g>
   <g id="line2d_58">
    <path clip-path="url(#p314d36482b)" d="M 176.289879 808.8777 
L 95.452952 808.8777 
" style="fill:none;stroke:#000000;stroke-linecap:square;"/>
   </g>
   <g id="patch_120">
    <path clip-path="url(#p314d36482b)" d="M 192.457264 792.710315 
L 192.457264 825.045085 
L 160.122493 825.045085 
L 160.122493 792.710315 
L 192.457264 792.710315 
z
" style="fill:#ffffff;"/>
   </g>
   <g id="patch_121">
    <path clip-path="url(#p314d36482b)" d="M 95.452952 825.045085 
C 99.740592 825.045085 103.8532 823.341588 106.88502 820.309768 
C 109.916839 817.277948 111.620337 813.165341 111.620337 808.8777 
C 111.620337 804.590059 109.916839 800.477452 106.88502 797.445632 
C 103.8532 794.413812 99.740592 792.710315 95.452952 792.710315 
C 91.165311 792.710315 87.052704 794.413812 84.020884 797.445632 
C 80.989064 800.477452 79.285566 804.590059 79.285566 808.8777 
C 79.285566 813.165341 80.989064 817.277948 84.020884 820.309768 
C 87.052704 823.341588 91.165311 825.045085 95.452952 825.045085 
z
" style="fill:#00a651;stroke:#000000;stroke-linejoin:miter;"/>
   </g>
   <g id="patch_122">
    <path clip-path="url(#p314d36482b)" d="M 107.578491 845.254317 
L 83.327413 869.505395 
z
" style="fill:#ffffff;stroke:#000000;stroke-linejoin:miter;"/>
   </g>
   <g id="patch_123">
    <path clip-path="url(#p314d36482b)" d="M 83.327413 845.254317 
L 107.578491 869.505395 
z
" style="fill:#ffffff;stroke:#000000;stroke-linejoin:miter;"/>
   </g>
   <g id="text_62">
    <!-- 3,4,6 -->
    <defs>
     <path d="M 11.71875 12.40625 
L 22.015625 12.40625 
L 22.015625 4 
L 14.015625 -11.625 
L 7.71875 -11.625 
L 11.71875 4 
z
" id="DejaVuSans-44"/>
    </defs>
    <g transform="translate(95.452952 842.829209)scale(0.1 -0.1)">
     <use xlink:href="#DejaVuSans-51"/>
     <use x="63.623047" xlink:href="#DejaVuSans-44"/>
     <use x="95.410156" xlink:href="#DejaVuSans-52"/>
     <use x="159.033203" xlink:href="#DejaVuSans-44"/>
     <use x="190.820312" xlink:href="#DejaVuSans-54"/>
    </g>
   </g>
   <g id="text_63">
    <!-- α -->
    <defs>
     <path d="M 41.3125 25.4375 
L 39.15625 36.71875 
Q 36.96875 48.296875 28.265625 48.296875 
Q 21.734375 48.296875 18.75 42.921875 
Q 14.984375 36.1875 14.984375 27.296875 
Q 14.984375 16.546875 18.65625 11.421875 
Q 22.359375 6.203125 28.265625 6.203125 
Q 34.8125 6.203125 38.328125 16.609375 
z
M 46.34375 40.375 
L 51.171875 54.6875 
L 59.1875 54.6875 
L 49.171875 25.046875 
L 51.125 14.359375 
Q 51.5625 11.96875 53.265625 9.96875 
Q 55.28125 7.625 56.84375 7.625 
L 61.140625 7.625 
L 61.140625 0 
L 55.765625 0 
Q 51.171875 0 47.078125 4.109375 
Q 45.0625 6.15625 44.234375 10.453125 
Q 42 5.03125 37.40625 0.78125 
Q 35.25 -1.21875 28.265625 -1.21875 
Q 16.796875 -1.21875 11.234375 6.203125 
Q 5.515625 13.875 5.515625 27.296875 
Q 5.515625 41.65625 11.71875 48.390625 
Q 18.609375 55.90625 28.265625 55.90625 
Q 43.453125 55.90625 46.34375 40.375 
z
" id="DejaVuSans-945"/>
    </defs>
    <g transform="translate(172.993785 811.637075)scale(0.1 -0.1)">
     <use xlink:href="#DejaVuSans-945"/>
    </g>
   </g>
  </g>
  <g id="axes_6">
   <g id="line2d_59">
    <path clip-path="url(#p028e731fa6)" d="M 300.778746 831.107855 
L 219.941819 831.107855 
" style="fill:none;stroke:#000000;stroke-linecap:square;"/>
   </g>
   <g id="patch_124">
    <path clip-path="url(#p028e731fa6)" d="M 300.778746 847.27524 
C 305.066387 847.27524 309.178994 845.571743 312.210814 842.539923 
C 315.242634 839.508103 316.946131 835.395496 316.946131 831.107855 
C 316.946131 826.820214 315.242634 822.707607 312.210814 819.675787 
C 309.178994 816.643967 305.066387 814.94047 300.778746 814.94047 
C 296.491105 814.94047 292.378498 816.643967 289.346678 819.675787 
C 286.314858 822.707607 284.611361 826.820214 284.611361 831.107855 
C 284.611361 835.395496 286.314858 839.508103 289.346678 842.539923 
C 292.378498 845.571743 296.491105 847.27524 300.778746 847.27524 
z
" style="fill:#00a651;stroke:#000000;stroke-linejoin:miter;"/>
   </g>
   <g id="patch_125">
    <path clip-path="url(#p028e731fa6)" d="M 219.941819 847.27524 
C 224.22946 847.27524 228.342067 845.571743 231.373887 842.539923 
C 234.405707 839.508103 236.109205 835.395496 236.109205 831.107855 
C 236.109205 826.820214 234.405707 822.707607 231.373887 819.675787 
C 228.342067 816.643967 224.22946 814.94047 219.941819 814.94047 
C 215.654178 814.94047 211.541571 816.643967 208.509751 819.675787 
C 205.477931 822.707607 203.774434 826.820214 203.774434 831.107855 
C 203.774434 835.395496 205.477931 839.508103 208.509751 842.539923 
C 211.541571 845.571743 215.654178 847.27524 219.941819 847.27524 
z
" style="fill:#00a651;stroke:#000000;stroke-linejoin:miter;"/>
   </g>
   <g id="text_64">
    <!-- α -->
    <g transform="translate(243.384528 830.299486)scale(0.1 -0.1)">
     <use xlink:href="#DejaVuSans-945"/>
    </g>
   </g>
   <g id="text_65">
    <!-- 3 -->
    <g transform="translate(267.635606 830.299486)scale(0.1 -0.1)">
     <use xlink:href="#DejaVuSans-51"/>
    </g>
   </g>
  </g>
  <g id="axes_7">
   <g id="line2d_60">
    <path clip-path="url(#p832db35b00)" d="M 425.267613 808.8777 
L 425.267613 857.379856 
" style="fill:none;stroke:#000000;stroke-linecap:square;"/>
   </g>
   <g id="line2d_61">
    <path clip-path="url(#p832db35b00)" d="M 425.267613 808.8777 
L 344.430687 808.8777 
" style="fill:none;stroke:#000000;stroke-linecap:square;"/>
   </g>
   <g id="patch_126">
    <path clip-path="url(#p832db35b00)" d="M 425.267613 825.045085 
C 429.555254 825.045085 433.667861 823.341588 436.699681 820.309768 
C 439.731501 817.277948 441.434999 813.165341 441.434999 808.8777 
C 441.434999 804.590059 439.731501 800.477452 436.699681 797.445632 
C 433.667861 794.413812 429.555254 792.710315 425.267613 792.710315 
C 420.979973 792.710315 416.867365 794.413812 413.835546 797.445632 
C 410.803726 800.477452 409.100228 804.590059 409.100228 808.8777 
C 409.100228 813.165341 410.803726 817.277948 413.835546 820.309768 
C 416.867365 823.341588 420.979973 825.045085 425.267613 825.045085 
z
" style="fill:#00a651;stroke:#000000;stroke-linejoin:miter;"/>
   </g>
   <g id="patch_127">
    <path clip-path="url(#p832db35b00)" d="M 437.393152 845.254317 
L 413.142074 869.505395 
z
" style="fill:#ffffff;stroke:#000000;stroke-linejoin:miter;"/>
   </g>
   <g id="patch_128">
    <path clip-path="url(#p832db35b00)" d="M 413.142074 845.254317 
L 437.393152 869.505395 
z
" style="fill:#ffffff;stroke:#000000;stroke-linejoin:miter;"/>
   </g>
   <g id="patch_129">
    <path clip-path="url(#p832db35b00)" d="M 344.430687 825.045085 
C 348.718327 825.045085 352.830935 823.341588 355.862754 820.309768 
C 358.894574 817.277948 360.598072 813.165341 360.598072 808.8777 
C 360.598072 804.590059 358.894574 800.477452 355.862754 797.445632 
C 352.830935 794.413812 348.718327 792.710315 344.430687 792.710315 
C 340.143046 792.710315 336.030439 794.413812 332.998619 797.445632 
C 329.966799 800.477452 328.263301 804.590059 328.263301 808.8777 
C 328.263301 813.165341 329.966799 817.277948 332.998619 820.309768 
C 336.030439 823.341588 340.143046 825.045085 344.430687 825.045085 
z
" style="fill:#00a651;stroke:#000000;stroke-linejoin:miter;"/>
   </g>
   <g id="text_66">
    <!-- 2,4 -->
    <g transform="translate(425.267613 842.829209)scale(0.1 -0.1)">
     <use xlink:href="#DejaVuSans-50"/>
     <use x="63.623047" xlink:href="#DejaVuSans-44"/>
     <use x="95.410156" xlink:href="#DejaVuSans-52"/>
    </g>
   </g>
   <g id="text_67">
    <!-- α -->
    <g transform="translate(367.873395 808.069331)scale(0.1 -0.1)">
     <use xlink:href="#DejaVuSans-945"/>
    </g>
   </g>
   <g id="text_68">
    <!-- 3 -->
    <g transform="translate(392.124473 808.069331)scale(0.1 -0.1)">
     <use xlink:href="#DejaVuSans-51"/>
    </g>
   </g>
  </g>
  <g id="axes_8">
   <g id="line2d_62">
    <path clip-path="url(#pbb4d1cbb5b)" d="M 549.756481 808.8777 
L 468.919554 808.8777 
" style="fill:none;stroke:#000000;stroke-linecap:square;"/>
   </g>
   <g id="line2d_63">
    <path clip-path="url(#pbb4d1cbb5b)" d="M 549.756481 808.8777 
L 549.756481 857.379856 
" style="fill:none;stroke:#000000;stroke-linecap:square;"/>
   </g>
   <g id="patch_130">
    <path clip-path="url(#pbb4d1cbb5b)" d="M 549.756481 825.045085 
C 554.044122 825.045085 558.156729 823.341588 561.188549 820.309768 
C 564.220369 817.277948 565.923866 813.165341 565.923866 808.8777 
C 565.923866 804.590059 564.220369 800.477452 561.188549 797.445632 
C 558.156729 794.413812 554.044122 792.710315 549.756481 792.710315 
C 545.46884 792.710315 541.356233 794.413812 538.324413 797.445632 
C 535.292593 800.477452 533.589095 804.590059 533.589095 808.8777 
C 533.589095 813.165341 535.292593 817.277948 538.324413 820.309768 
C 541.356233 823.341588 545.46884 825.045085 549.756481 825.045085 
z
" style="fill:#00a651;stroke:#000000;stroke-linejoin:miter;"/>
   </g>
   <g id="patch_131">
    <path clip-path="url(#pbb4d1cbb5b)" d="M 468.919554 825.045085 
C 473.207195 825.045085 477.319802 823.341588 480.351622 820.309768 
C 483.383442 817.277948 485.086939 813.165341 485.086939 808.8777 
C 485.086939 804.590059 483.383442 800.477452 480.351622 797.445632 
C 477.319802 794.413812 473.207195 792.710315 468.919554 792.710315 
C 464.631913 792.710315 460.519306 794.413812 457.487486 797.445632 
C 454.455666 800.477452 452.752169 804.590059 452.752169 808.8777 
C 452.752169 813.165341 454.455666 817.277948 457.487486 820.309768 
C 460.519306 823.341588 464.631913 825.045085 468.919554 825.045085 
z
" style="fill:#00a651;stroke:#000000;stroke-linejoin:miter;"/>
   </g>
   <g id="patch_132">
    <path clip-path="url(#pbb4d1cbb5b)" d="M 561.88202 845.254317 
L 537.630942 869.505395 
z
" style="fill:#ffffff;stroke:#000000;stroke-linejoin:miter;"/>
   </g>
   <g id="patch_133">
    <path clip-path="url(#pbb4d1cbb5b)" d="M 537.630942 845.254317 
L 561.88202 869.505395 
z
" style="fill:#ffffff;stroke:#000000;stroke-linejoin:miter;"/>
   </g>
   <g id="text_69">
    <!-- α -->
    <g transform="translate(492.362263 808.069331)scale(0.1 -0.1)">
     <use xlink:href="#DejaVuSans-945"/>
    </g>
   </g>
   <g id="text_70">
    <!-- 6 -->
    <g transform="translate(516.613341 808.069331)scale(0.1 -0.1)">
     <use xlink:href="#DejaVuSans-54"/>
    </g>
   </g>
   <g id="text_71">
    <!-- 2,4 -->
    <g transform="translate(549.756481 842.829209)scale(0.1 -0.1)">
     <use xlink:href="#DejaVuSans-50"/>
     <use x="63.623047" xlink:href="#DejaVuSans-44"/>
     <use x="95.410156" xlink:href="#DejaVuSans-52"/>
    </g>
   </g>
  </g>
  <g id="axes_9">
   <g id="line2d_64">
    <path clip-path="url(#p43effcc9fd)" d="M 658.254908 831.107855 
L 609.398862 879.9639 
" style="fill:none;stroke:#000000;stroke-linecap:square;"/>
   </g>
   <g id="line2d_65">
    <path clip-path="url(#p43effcc9fd)" d="M 658.254908 831.107855 
L 658.254908 860.421482 
" style="fill:none;stroke:#000000;stroke-linecap:square;"/>
   </g>
   <g id="line2d_66">
    <path clip-path="url(#p43effcc9fd)" d="M 658.254908 831.107855 
L 609.398862 782.25181 
" style="fill:none;stroke:#000000;stroke-linecap:square;"/>
   </g>
   <g id="patch_134">
    <path clip-path="url(#p43effcc9fd)" d="M 658.254908 840.879064 
C 660.846263 840.879064 663.331831 839.849508 665.164196 838.017143 
C 666.99656 836.184779 668.026117 833.69921 668.026117 831.107855 
C 668.026117 828.5165 666.99656 826.030931 665.164196 824.198567 
C 663.331831 822.366202 660.846263 821.336646 658.254908 821.336646 
C 655.663553 821.336646 653.177984 822.366202 651.345619 824.198567 
C 649.513255 826.030931 648.483698 828.5165 648.483698 831.107855 
C 648.483698 833.69921 649.513255 836.184779 651.345619 838.017143 
C 653.177984 839.849508 655.663553 840.879064 658.254908 840.879064 
z
" style="fill:#00a651;stroke:#000000;stroke-linejoin:miter;"/>
   </g>
   <g id="patch_135">
    <path clip-path="url(#p43effcc9fd)" d="M 609.398862 889.73511 
C 611.990217 889.73511 614.475786 888.705553 616.30815 886.873189 
C 618.140515 885.040824 619.170071 882.555255 619.170071 879.9639 
C 619.170071 877.372546 618.140515 874.886977 616.30815 873.054612 
C 614.475786 871.222248 611.990217 870.192691 609.398862 870.192691 
C 606.807507 870.192691 604.321939 871.222248 602.489574 873.054612 
C 600.657209 874.886977 599.627653 877.372546 599.627653 879.9639 
C 599.627653 882.555255 600.657209 885.040824 602.489574 886.873189 
C 604.321939 888.705553 606.807507 889.73511 609.398862 889.73511 
z
" style="fill:#00a651;stroke:#000000;stroke-linejoin:miter;"/>
   </g>
   <g id="patch_136">
    <path clip-path="url(#p43effcc9fd)" d="M 665.583314 853.093075 
L 650.926501 867.749889 
z
" style="fill:#ffffff;stroke:#000000;stroke-linejoin:miter;"/>
   </g>
   <g id="patch_137">
    <path clip-path="url(#p43effcc9fd)" d="M 650.926501 853.093075 
L 665.583314 867.749889 
z
" style="fill:#ffffff;stroke:#000000;stroke-linejoin:miter;"/>
   </g>
   <g id="patch_138">
    <path clip-path="url(#p43effcc9fd)" d="M 609.398862 792.023019 
C 611.990217 792.023019 614.475786 790.993462 616.30815 789.161098 
C 618.140515 787.328733 619.170071 784.843164 619.170071 782.25181 
C 619.170071 779.660455 618.140515 777.174886 616.30815 775.342521 
C 614.475786 773.510157 611.990217 772.4806 609.398862 772.4806 
C 606.807507 772.4806 604.321939 773.510157 602.489574 775.342521 
C 600.657209 777.174886 599.627653 779.660455 599.627653 782.25181 
C 599.627653 784.843164 600.657209 787.328733 602.489574 789.161098 
C 604.321939 790.993462 606.807507 792.023019 609.398862 792.023019 
z
" style="fill:#00a651;stroke:#000000;stroke-linejoin:miter;"/>
   </g>
   <g id="text_72">
    <!-- α -->
    <g transform="translate(617.463488 864.818526)scale(0.1 -0.1)">
     <use xlink:href="#DejaVuSans-945"/>
    </g>
   </g>
   <g id="text_73">
    <!-- 6 -->
    <g transform="translate(632.349989 850.161713)scale(0.1 -0.1)">
     <use xlink:href="#DejaVuSans-54"/>
    </g>
   </g>
   <g id="text_74">
    <!-- 2,4 -->
    <g transform="translate(658.254908 851.627394)scale(0.1 -0.1)">
     <use xlink:href="#DejaVuSans-50"/>
     <use x="63.623047" xlink:href="#DejaVuSans-44"/>
     <use x="95.410156" xlink:href="#DejaVuSans-52"/>
    </g>
   </g>
   <g id="text_75">
    <!-- α -->
    <g transform="translate(623.567115 796.420063)scale(0.1 -0.1)">
     <use xlink:href="#DejaVuSans-945"/>
    </g>
   </g>
   <g id="text_76">
    <!-- 3 -->
    <g transform="translate(638.223929 811.076876)scale(0.1 -0.1)">
     <use xlink:href="#DejaVuSans-51"/>
    </g>
   </g>
  </g>
 </g>
 <defs>
  <clipPath id="p99b57616f9">
   <rect height="257.95992" width="657.30122" x="56.19854" y="17.90649"/>
  </clipPath>
  <clipPath id="pbea05062d9">
   <rect height="257.95992" width="657.30122" x="56.19854" y="637.637915"/>
  </clipPath>
  <clipPath id="pa157a85123">
   <rect height="257.95992" width="217.431949" x="56.19854" y="333.581265"/>
  </clipPath>
  <clipPath id="pd15eb81f0d">
   <rect height="257.95992" width="217.431949" x="408.790015" y="333.581265"/>
  </clipPath>
  <clipPath id="p314d36482b">
   <rect height="84.474589" width="124.488867" x="73.626981" y="788.870561"/>
  </clipPath>
  <clipPath id="p028e731fa6">
   <rect height="35.568248" width="124.488867" x="198.115849" y="813.323731"/>
  </clipPath>
  <clipPath id="p832db35b00">
   <rect height="84.474589" width="124.488867" x="322.604716" y="788.870561"/>
  </clipPath>
  <clipPath id="pbb4d1cbb5b">
   <rect height="84.474589" width="124.488867" x="447.093584" y="788.870561"/>
  </clipPath>
  <clipPath id="p43effcc9fd">
   <rect height="128.97996" width="75.23831" x="596.20773" y="766.617875"/>
  </clipPath>
 </defs>
</svg>
